MFile 1 4 480
MTrk
0 Meta SeqName "BBoomBBomm"
0 Tempo 492206
0 TimeSig 4/4 24 8
0 Meta TrkEnd
TrkEnd
MTrk
0 Meta TrkName "[GM 001] Acoustic Grand Piano"
2640 On ch=1 n=70 v=79
2640 On ch=1 n=78 v=79
2880 Off ch=1 n=70 v=64
2880 Off ch=1 n=78 v=64
3120 On ch=1 n=68 v=80
3120 On ch=1 n=77 v=80
3360 Off ch=1 n=68 v=64
3360 Off ch=1 n=77 v=64
3600 On ch=1 n=68 v=81
3600 On ch=1 n=77 v=81
3840 Off ch=1 n=68 v=64
3840 Off ch=1 n=77 v=64
4560 On ch=1 n=66 v=84
4560 On ch=1 n=75 v=84
4920 Off ch=1 n=66 v=64
4920 Off ch=1 n=75 v=64
5040 On ch=1 n=68 v=84
5040 On ch=1 n=77 v=84
5400 Off ch=1 n=68 v=64
5400 Off ch=1 n=77 v=64
5520 On ch=1 n=68 v=85
5520 On ch=1 n=77 v=85
5880 Off ch=1 n=68 v=64
5880 Off ch=1 n=77 v=64
6480 On ch=1 n=70 v=86
6480 On ch=1 n=78 v=86
6840 Off ch=1 n=70 v=64
6840 Off ch=1 n=78 v=64
6960 On ch=1 n=68 v=86
6960 On ch=1 n=77 v=86
7320 Off ch=1 n=68 v=64
7320 Off ch=1 n=77 v=64
7440 On ch=1 n=68 v=86
7440 On ch=1 n=77 v=86
7680 Off ch=1 n=68 v=64
7680 Off ch=1 n=77 v=64
8400 On ch=1 n=66 v=86
8400 On ch=1 n=75 v=86
8640 Off ch=1 n=66 v=64
8640 Off ch=1 n=75 v=64
8640 On ch=1 n=70 v=86
8645 Par ch=1 c=64 v=104
8880 Off ch=1 n=70 v=64
8880 On ch=1 n=68 v=86
9120 Off ch=1 n=68 v=64
9120 On ch=1 n=66 v=86
9360 Off ch=1 n=66 v=64
9360 On ch=1 n=68 v=86
9588 Par ch=1 c=64 v=1
9600 Off ch=1 n=68 v=64
9600 On ch=1 n=75 v=85
9600 Par ch=1 c=64 v=104
9840 Off ch=1 n=75 v=64
9840 On ch=1 n=63 v=85
10080 Off ch=1 n=63 v=64
10080 On ch=1 n=63 v=85
10320 Off ch=1 n=63 v=64
10320 On ch=1 n=63 v=85
10560 Off ch=1 n=63 v=64
10560 On ch=1 n=66 v=85
10800 Off ch=1 n=66 v=64
10800 On ch=1 n=66 v=85
11040 Off ch=1 n=66 v=64
11040 On ch=1 n=68 v=85
11280 Off ch=1 n=68 v=64
11280 On ch=1 n=66 v=85
11497 Par ch=1 c=64 v=0
11520 Off ch=1 n=66 v=64
11520 On ch=1 n=70 v=85
11520 Par ch=1 c=64 v=104
12240 Off ch=1 n=70 v=64
12240 On ch=1 n=70 v=85
12480 Off ch=1 n=70 v=64
12480 On ch=1 n=70 v=85
12720 Off ch=1 n=70 v=64
12720 On ch=1 n=68 v=85
12960 Off ch=1 n=68 v=64
12960 On ch=1 n=66 v=85
13200 Off ch=1 n=66 v=64
13200 On ch=1 n=68 v=85
13417 Par ch=1 c=64 v=0
13440 Off ch=1 n=68 v=64
13440 On ch=1 n=75 v=85
13440 Par ch=1 c=64 v=104
13680 Off ch=1 n=75 v=64
13680 On ch=1 n=63 v=85
13920 Off ch=1 n=63 v=64
13920 On ch=1 n=63 v=85
14160 Off ch=1 n=63 v=64
14160 On ch=1 n=63 v=84
14400 Off ch=1 n=63 v=64
14400 On ch=1 n=66 v=84
14640 Off ch=1 n=66 v=64
14640 On ch=1 n=66 v=84
14880 Off ch=1 n=66 v=64
14880 On ch=1 n=68 v=84
15120 Off ch=1 n=68 v=64
15120 On ch=1 n=66 v=84
15337 Par ch=1 c=64 v=0
15360 Off ch=1 n=66 v=64
15360 On ch=1 n=66 v=84
15360 Par ch=1 c=64 v=104
15600 Off ch=1 n=66 v=64
15600 On ch=1 n=63 v=82
15840 Off ch=1 n=63 v=64
15840 On ch=1 n=63 v=82
16080 Off ch=1 n=63 v=64
16080 On ch=1 n=63 v=82
16320 Off ch=1 n=63 v=64
16320 On ch=1 n=63 v=82
16560 Off ch=1 n=63 v=64
16800 On ch=1 n=63 v=82
17040 Off ch=1 n=63 v=64
17257 Par ch=1 c=64 v=0
17280 On ch=1 n=75 v=82
17280 Par ch=1 c=64 v=104
17520 Off ch=1 n=75 v=64
17520 On ch=1 n=63 v=82
17760 Off ch=1 n=63 v=64
17760 On ch=1 n=63 v=82
18000 Off ch=1 n=63 v=64
18000 On ch=1 n=63 v=82
18240 Off ch=1 n=63 v=64
18240 On ch=1 n=66 v=82
18480 Off ch=1 n=66 v=64
18480 On ch=1 n=66 v=82
18720 Off ch=1 n=66 v=64
18720 On ch=1 n=68 v=82
18960 Off ch=1 n=68 v=64
18960 On ch=1 n=66 v=82
19177 Par ch=1 c=64 v=0
19200 Off ch=1 n=66 v=64
19200 On ch=1 n=70 v=82
19200 Par ch=1 c=64 v=104
19920 Off ch=1 n=70 v=64
19920 On ch=1 n=70 v=82
20160 Off ch=1 n=70 v=64
20160 On ch=1 n=70 v=82
20400 Off ch=1 n=70 v=64
20400 On ch=1 n=68 v=82
20640 Off ch=1 n=68 v=64
20640 On ch=1 n=66 v=82
20880 Off ch=1 n=66 v=64
20880 On ch=1 n=68 v=82
21120 Off ch=1 n=68 v=64
21120 On ch=1 n=63 v=82
21480 Off ch=1 n=63 v=64
21480 On ch=1 n=63 v=82
21600 Off ch=1 n=63 v=64
21600 On ch=1 n=63 v=82
21840 Off ch=1 n=63 v=64
21840 On ch=1 n=63 v=82
21960 Off ch=1 n=63 v=64
21960 On ch=1 n=63 v=82
22080 Off ch=1 n=63 v=64
22080 On ch=1 n=63 v=82
22320 Off ch=1 n=63 v=64
22320 On ch=1 n=63 v=82
22560 Off ch=1 n=63 v=64
22560 On ch=1 n=63 v=82
22800 Off ch=1 n=63 v=64
22800 On ch=1 n=63 v=82
23040 Off ch=1 n=63 v=64
23040 On ch=1 n=63 v=84
23040 On ch=1 n=75 v=84
23400 Off ch=1 n=63 v=64
23400 Off ch=1 n=75 v=64
23400 On ch=1 n=63 v=84
23400 On ch=1 n=75 v=84
23520 Off ch=1 n=63 v=64
23520 Off ch=1 n=75 v=64
23520 On ch=1 n=63 v=84
23520 On ch=1 n=75 v=84
23760 Off ch=1 n=63 v=64
23760 Off ch=1 n=75 v=64
23760 On ch=1 n=63 v=84
23760 On ch=1 n=75 v=84
23880 Off ch=1 n=63 v=64
23880 Off ch=1 n=75 v=64
23880 On ch=1 n=63 v=84
23880 On ch=1 n=75 v=84
24000 Off ch=1 n=63 v=64
24000 Off ch=1 n=75 v=64
24480 On ch=1 n=75 v=85
24720 Off ch=1 n=75 v=64
24720 On ch=1 n=75 v=88
24960 Off ch=1 n=75 v=64
24960 On ch=1 n=75 v=88
25440 Off ch=1 n=75 v=64
25440 On ch=1 n=75 v=88
25680 Off ch=1 n=75 v=64
25680 On ch=1 n=75 v=88
25920 Off ch=1 n=75 v=64
25920 On ch=1 n=78 v=89
26160 Off ch=1 n=78 v=64
26160 On ch=1 n=78 v=89
26400 Off ch=1 n=78 v=64
26400 On ch=1 n=80 v=90
26640 Off ch=1 n=80 v=64
26640 On ch=1 n=78 v=90
26880 Off ch=1 n=78 v=64
26880 On ch=1 n=71 v=92
26880 On ch=1 n=82 v=92
27360 Off ch=1 n=71 v=64
27360 Off ch=1 n=82 v=64
27360 On ch=1 n=87 v=92
27600 Off ch=1 n=87 v=64
27600 On ch=1 n=75 v=93
27840 Off ch=1 n=75 v=64
27840 On ch=1 n=87 v=95
28320 Off ch=1 n=87 v=64
28560 On ch=1 n=75 v=95
28800 Off ch=1 n=75 v=64
28800 On ch=1 n=75 v=95
28800 On ch=1 n=66 v=95
29040 Off ch=1 n=75 v=64
29040 Off ch=1 n=66 v=64
29040 On ch=1 n=75 v=96
29280 Off ch=1 n=75 v=64
29280 On ch=1 n=75 v=96
29400 Off ch=1 n=75 v=64
29400 On ch=1 n=75 v=96
29520 Off ch=1 n=75 v=64
29520 On ch=1 n=75 v=96
29760 Off ch=1 n=75 v=64
29760 On ch=1 n=78 v=96
30000 Off ch=1 n=78 v=64
30000 On ch=1 n=78 v=97
30120 Off ch=1 n=78 v=64
30120 On ch=1 n=78 v=97
30240 Off ch=1 n=78 v=64
30240 On ch=1 n=80 v=97
30480 Off ch=1 n=80 v=64
30480 On ch=1 n=78 v=97
30720 Off ch=1 n=78 v=64
30720 On ch=1 n=82 v=98
31200 Off ch=1 n=82 v=64
31200 On ch=1 n=77 v=98
31440 Off ch=1 n=77 v=64
31440 On ch=1 n=77 v=98
31680 Off ch=1 n=77 v=64
31680 On ch=1 n=68 v=98
31680 On ch=1 n=77 v=98
31920 Off ch=1 n=68 v=64
31920 Off ch=1 n=77 v=64
31920 On ch=1 n=75 v=98
32400 Off ch=1 n=75 v=64
32400 On ch=1 n=75 v=98
32400 Off ch=1 n=75 v=64
32400 On ch=1 n=75 v=99
32640 Off ch=1 n=75 v=64
32640 On ch=1 n=75 v=99
32880 Off ch=1 n=75 v=64
32880 On ch=1 n=75 v=99
33120 Off ch=1 n=75 v=64
33120 On ch=1 n=78 v=99
33360 Off ch=1 n=78 v=64
33360 On ch=1 n=78 v=99
33600 Off ch=1 n=78 v=64
33600 On ch=1 n=73 v=99
33600 On ch=1 n=80 v=99
33960 Off ch=1 n=73 v=64
33960 Off ch=1 n=80 v=64
33960 On ch=1 n=80 v=100
34320 Off ch=1 n=80 v=64
34320 On ch=1 n=78 v=100
34560 Off ch=1 n=78 v=64
34560 On ch=1 n=78 v=100
34680 Off ch=1 n=78 v=64
34680 On ch=1 n=82 v=100
34800 Off ch=1 n=82 v=64
35040 On ch=1 n=75 v=100
35160 Off ch=1 n=75 v=64
35160 On ch=1 n=75 v=100
35280 Off ch=1 n=75 v=64
35520 On ch=1 n=73 v=101
35760 Off ch=1 n=73 v=64
35760 On ch=1 n=78 v=101
36000 Off ch=1 n=78 v=64
36000 On ch=1 n=78 v=101
36240 Off ch=1 n=78 v=64
36240 On ch=1 n=78 v=101
36480 Off ch=1 n=78 v=64
36480 On ch=1 n=78 v=101
36720 Off ch=1 n=78 v=64
36720 On ch=1 n=78 v=101
36960 Off ch=1 n=78 v=64
36960 On ch=1 n=78 v=101
37200 Off ch=1 n=78 v=64
37200 On ch=1 n=78 v=101
37440 Off ch=1 n=78 v=64
37440 On ch=1 n=78 v=101
37920 Off ch=1 n=78 v=64
37920 On ch=1 n=70 v=101
38160 Off ch=1 n=70 v=64
38160 On ch=1 n=78 v=101
38400 Off ch=1 n=78 v=64
38400 On ch=1 n=78 v=101
38880 Off ch=1 n=78 v=64
38880 On ch=1 n=75 v=101
39120 Off ch=1 n=75 v=64
39120 On ch=1 n=78 v=101
39360 Off ch=1 n=78 v=64
39360 On ch=1 n=73 v=101
39360 On ch=1 n=77 v=101
39840 Off ch=1 n=73 v=64
39840 Off ch=1 n=77 v=64
40320 On ch=1 n=63 v=92
40680 Off ch=1 n=63 v=64
40680 On ch=1 n=63 v=92
40800 Off ch=1 n=63 v=64
40800 On ch=1 n=63 v=92
41280 Off ch=1 n=63 v=64
41280 On ch=1 n=61 v=97
41280 On ch=1 n=66 v=97
41520 Off ch=1 n=61 v=64
41520 Off ch=1 n=66 v=64
41520 On ch=1 n=61 v=101
41520 On ch=1 n=66 v=101
41760 Off ch=1 n=61 v=64
41760 Off ch=1 n=66 v=64
41760 On ch=1 n=61 v=102
41760 On ch=1 n=68 v=102
42000 Off ch=1 n=61 v=64
42000 Off ch=1 n=68 v=64
42000 On ch=1 n=61 v=91
42000 On ch=1 n=66 v=91
42240 Off ch=1 n=61 v=64
42240 Off ch=1 n=66 v=64
42240 On ch=1 n=63 v=90
42600 Off ch=1 n=63 v=64
42600 On ch=1 n=63 v=90
42720 Off ch=1 n=63 v=64
42720 On ch=1 n=63 v=89
43200 Off ch=1 n=63 v=64
43200 On ch=1 n=61 v=98
43200 On ch=1 n=66 v=98
43440 Off ch=1 n=61 v=64
43440 Off ch=1 n=66 v=64
43440 On ch=1 n=61 v=103
43440 On ch=1 n=66 v=103
43680 Off ch=1 n=61 v=64
43680 Off ch=1 n=66 v=64
43680 On ch=1 n=61 v=102
43680 On ch=1 n=68 v=102
43920 Off ch=1 n=61 v=64
43920 Off ch=1 n=68 v=64
43920 On ch=1 n=61 v=91
43920 On ch=1 n=66 v=91
44160 Off ch=1 n=61 v=64
44160 Off ch=1 n=66 v=64
44160 On ch=1 n=63 v=88
44520 Off ch=1 n=63 v=64
44520 On ch=1 n=63 v=88
44640 Off ch=1 n=63 v=64
44640 On ch=1 n=63 v=89
45120 Off ch=1 n=63 v=64
45120 On ch=1 n=61 v=94
45120 On ch=1 n=66 v=94
45360 Off ch=1 n=61 v=64
45360 Off ch=1 n=66 v=64
45360 On ch=1 n=61 v=97
45360 On ch=1 n=66 v=97
45600 Off ch=1 n=61 v=64
45600 Off ch=1 n=66 v=64
45600 On ch=1 n=61 v=101
45600 On ch=1 n=68 v=101
45840 Off ch=1 n=61 v=64
45840 Off ch=1 n=68 v=64
45840 On ch=1 n=61 v=94
45840 On ch=1 n=66 v=94
46080 Off ch=1 n=61 v=64
46080 Off ch=1 n=66 v=64
46080 On ch=1 n=61 v=106
46080 On ch=1 n=70 v=106
46320 Off ch=1 n=61 v=64
46320 Off ch=1 n=70 v=64
46320 On ch=1 n=63 v=96
46560 Off ch=1 n=63 v=64
46560 On ch=1 n=63 v=99
46800 Off ch=1 n=63 v=64
46800 On ch=1 n=63 v=102
47040 Off ch=1 n=63 v=64
47040 On ch=1 n=63 v=101
47520 Off ch=1 n=63 v=64
47520 On ch=1 n=63 v=97
48000 Off ch=1 n=63 v=64
48000 On ch=1 n=63 v=97
48480 Off ch=1 n=63 v=64
48480 On ch=1 n=66 v=97
48960 Off ch=1 n=66 v=64
48960 On ch=1 n=68 v=100
49440 Off ch=1 n=68 v=64
49440 On ch=1 n=68 v=102
49680 Off ch=1 n=68 v=64
49680 On ch=1 n=68 v=102
49920 Off ch=1 n=68 v=64
49920 On ch=1 n=68 v=97
50160 Off ch=1 n=68 v=64
50160 On ch=1 n=70 v=94
50400 Off ch=1 n=70 v=64
50400 On ch=1 n=68 v=92
50640 Off ch=1 n=68 v=64
50640 On ch=1 n=66 v=93
50760 Off ch=1 n=66 v=64
50760 On ch=1 n=63 v=94
50880 Off ch=1 n=63 v=64
51120 On ch=1 n=66 v=102
51360 Off ch=1 n=66 v=64
51360 On ch=1 n=66 v=97
51600 Off ch=1 n=66 v=64
51600 On ch=1 n=66 v=98
51840 Off ch=1 n=66 v=64
51840 On ch=1 n=66 v=98
52080 Off ch=1 n=66 v=64
52080 On ch=1 n=66 v=98
52320 Off ch=1 n=66 v=64
52320 On ch=1 n=66 v=98
52560 Off ch=1 n=66 v=64
52560 On ch=1 n=66 v=97
52800 Off ch=1 n=66 v=64
52800 On ch=1 n=66 v=96
53280 Off ch=1 n=66 v=64
53520 On ch=1 n=66 v=95
53760 Off ch=1 n=66 v=64
53760 On ch=1 n=65 v=96
54240 Off ch=1 n=65 v=64
54240 On ch=1 n=63 v=98
54720 Off ch=1 n=63 v=64
54720 On ch=1 n=66 v=98
55200 Off ch=1 n=66 v=64
55200 On ch=1 n=80 v=96
55200 On ch=1 n=68 v=96
55440 Off ch=1 n=80 v=64
55440 Off ch=1 n=68 v=64
55440 On ch=1 n=78 v=98
55440 On ch=1 n=66 v=98
55680 Off ch=1 n=78 v=64
55680 Off ch=1 n=66 v=64
55680 On ch=1 n=82 v=104
55680 On ch=1 n=70 v=104
56880 Off ch=1 n=82 v=64
56880 Off ch=1 n=70 v=64
56880 On ch=1 n=83 v=100
56880 On ch=1 n=71 v=100
57120 Off ch=1 n=83 v=64
57120 Off ch=1 n=71 v=64
57120 On ch=1 n=82 v=101
57120 On ch=1 n=70 v=101
57360 Off ch=1 n=82 v=64
57360 Off ch=1 n=70 v=64
57360 On ch=1 n=82 v=100
57360 On ch=1 n=70 v=100
57600 Off ch=1 n=82 v=64
57600 Off ch=1 n=70 v=64
57600 On ch=1 n=80 v=99
57600 On ch=1 n=68 v=99
58800 Off ch=1 n=80 v=64
58800 Off ch=1 n=68 v=64
58800 On ch=1 n=78 v=94
58800 On ch=1 n=66 v=94
59040 Off ch=1 n=78 v=64
59040 Off ch=1 n=66 v=64
59040 On ch=1 n=80 v=98
59040 On ch=1 n=68 v=98
59280 Off ch=1 n=80 v=64
59280 Off ch=1 n=68 v=64
59280 On ch=1 n=82 v=102
59280 On ch=1 n=70 v=102
59760 Off ch=1 n=82 v=64
59760 Off ch=1 n=70 v=64
59760 On ch=1 n=83 v=105
59760 On ch=1 n=71 v=105
60000 Off ch=1 n=83 v=64
60000 Off ch=1 n=71 v=64
60000 On ch=1 n=82 v=95
60000 On ch=1 n=70 v=95
60240 Off ch=1 n=82 v=64
60240 Off ch=1 n=70 v=64
60240 On ch=1 n=80 v=91
60240 On ch=1 n=68 v=91
60480 Off ch=1 n=80 v=64
60480 Off ch=1 n=68 v=64
60480 On ch=1 n=80 v=102
60480 On ch=1 n=68 v=102
60720 Off ch=1 n=80 v=64
60720 Off ch=1 n=68 v=64
60720 On ch=1 n=66 v=88
60720 On ch=1 n=78 v=88
60960 Off ch=1 n=66 v=64
60960 Off ch=1 n=78 v=64
60960 On ch=1 n=66 v=90
60960 On ch=1 n=78 v=90
61200 Off ch=1 n=66 v=64
61200 Off ch=1 n=78 v=64
61200 On ch=1 n=70 v=94
61200 On ch=1 n=82 v=94
61680 Off ch=1 n=70 v=64
61680 Off ch=1 n=82 v=64
61680 On ch=1 n=71 v=92
61680 On ch=1 n=83 v=92
61920 Off ch=1 n=71 v=64
61920 Off ch=1 n=83 v=64
61920 On ch=1 n=82 v=108
62040 Off ch=1 n=82 v=64
62040 On ch=1 n=82 v=107
62160 Off ch=1 n=82 v=64
62160 On ch=1 n=80 v=103
62400 Off ch=1 n=80 v=64
62400 On ch=1 n=80 v=101
62520 Off ch=1 n=80 v=64
62520 On ch=1 n=80 v=102
62640 Off ch=1 n=80 v=64
62640 On ch=1 n=78 v=97
62880 Off ch=1 n=78 v=64
62880 On ch=1 n=68 v=83
62880 On ch=1 n=80 v=83
63120 Off ch=1 n=68 v=64
63120 Off ch=1 n=80 v=64
63120 On ch=1 n=70 v=93
63120 On ch=1 n=82 v=93
64560 Off ch=1 n=70 v=64
64560 Off ch=1 n=82 v=64
64560 On ch=1 n=73 v=102
64560 On ch=1 n=85 v=102
64800 Off ch=1 n=73 v=64
64800 Off ch=1 n=85 v=64
64800 On ch=1 n=70 v=94
64800 On ch=1 n=82 v=94
65040 Off ch=1 n=70 v=64
65040 Off ch=1 n=82 v=64
65040 On ch=1 n=70 v=93
65040 On ch=1 n=82 v=93
65280 Off ch=1 n=70 v=64
65280 Off ch=1 n=82 v=64
65280 On ch=1 n=68 v=92
65280 On ch=1 n=80 v=92
66240 Off ch=1 n=68 v=64
66240 Off ch=1 n=80 v=64
66480 On ch=1 n=70 v=86
66480 On ch=1 n=82 v=86
66720 Off ch=1 n=70 v=64
66720 Off ch=1 n=82 v=64
66720 On ch=1 n=73 v=93
66720 On ch=1 n=85 v=93
66960 Off ch=1 n=73 v=64
66960 Off ch=1 n=85 v=64
66960 On ch=1 n=75 v=104
66960 On ch=1 n=87 v=104
67920 Off ch=1 n=75 v=64
67920 Off ch=1 n=87 v=64
67920 On ch=1 n=63 v=78
67920 On ch=1 n=66 v=78
67920 On ch=1 n=70 v=78
68160 Off ch=1 n=63 v=64
68160 Off ch=1 n=66 v=64
68160 Off ch=1 n=70 v=64
68160 On ch=1 n=63 v=89
68160 On ch=1 n=66 v=89
68160 On ch=1 n=70 v=89
68400 Off ch=1 n=63 v=64
68400 Off ch=1 n=66 v=64
68400 Off ch=1 n=70 v=64
68400 On ch=1 n=63 v=101
68400 On ch=1 n=66 v=101
68400 On ch=1 n=70 v=101
68640 Off ch=1 n=63 v=64
68640 Off ch=1 n=66 v=64
68640 Off ch=1 n=70 v=64
68640 On ch=1 n=63 v=113
68640 On ch=1 n=66 v=113
68640 On ch=1 n=70 v=113
68880 Off ch=1 n=63 v=64
68880 Off ch=1 n=66 v=64
68880 Off ch=1 n=70 v=64
68880 On ch=1 n=63 v=124
68880 On ch=1 n=66 v=124
68880 On ch=1 n=70 v=124
69120 Off ch=1 n=63 v=64
69120 Off ch=1 n=66 v=64
69120 Off ch=1 n=70 v=64
69360 On ch=1 n=62 v=87
69360 On ch=1 n=65 v=87
69360 On ch=1 n=68 v=87
69480 Off ch=1 n=62 v=64
69480 Off ch=1 n=65 v=64
69480 Off ch=1 n=68 v=64
69600 On ch=1 n=62 v=109
69600 On ch=1 n=65 v=109
69600 On ch=1 n=68 v=109
70080 Off ch=1 n=62 v=64
70080 Off ch=1 n=65 v=64
70080 Off ch=1 n=68 v=64
70080 On ch=1 n=70 v=102
70320 Off ch=1 n=70 v=64
70320 On ch=1 n=68 v=102
70560 Off ch=1 n=68 v=64
70560 On ch=1 n=66 v=102
70800 Off ch=1 n=66 v=64
70800 On ch=1 n=68 v=102
71040 Off ch=1 n=68 v=64
71040 On ch=1 n=70 v=102
71520 Off ch=1 n=70 v=64
71520 On ch=1 n=63 v=102
71760 Off ch=1 n=63 v=64
71760 On ch=1 n=63 v=102
72000 Off ch=1 n=63 v=64
72000 On ch=1 n=61 v=102
72000 On ch=1 n=66 v=102
72240 Off ch=1 n=61 v=64
72240 Off ch=1 n=66 v=64
72240 On ch=1 n=61 v=102
72240 On ch=1 n=66 v=102
72480 Off ch=1 n=61 v=64
72480 Off ch=1 n=66 v=64
72480 On ch=1 n=61 v=102
72480 On ch=1 n=68 v=102
72720 Off ch=1 n=61 v=64
72720 Off ch=1 n=68 v=64
72720 On ch=1 n=61 v=102
72720 On ch=1 n=66 v=102
72960 Off ch=1 n=61 v=64
72960 Off ch=1 n=66 v=64
72960 On ch=1 n=63 v=102
72960 On ch=1 n=70 v=102
73320 Off ch=1 n=63 v=64
73320 Off ch=1 n=70 v=64
73320 On ch=1 n=63 v=102
73320 On ch=1 n=70 v=102
73560 Off ch=1 n=63 v=64
73560 Off ch=1 n=70 v=64
73920 On ch=1 n=61 v=102
73920 On ch=1 n=70 v=102
74160 Off ch=1 n=61 v=64
74160 Off ch=1 n=70 v=64
74160 On ch=1 n=61 v=102
74160 On ch=1 n=68 v=102
74400 Off ch=1 n=61 v=64
74400 Off ch=1 n=68 v=64
74400 On ch=1 n=61 v=102
74400 On ch=1 n=66 v=102
74640 Off ch=1 n=61 v=64
74640 Off ch=1 n=66 v=64
74640 On ch=1 n=68 v=102
74880 Off ch=1 n=68 v=64
74880 On ch=1 n=63 v=102
74880 On ch=1 n=70 v=102
75360 Off ch=1 n=63 v=64
75360 Off ch=1 n=70 v=64
75360 On ch=1 n=63 v=102
75600 Off ch=1 n=63 v=64
75600 On ch=1 n=63 v=102
75840 Off ch=1 n=63 v=64
75840 On ch=1 n=61 v=102
75840 On ch=1 n=66 v=102
76080 Off ch=1 n=61 v=64
76080 Off ch=1 n=66 v=64
76080 On ch=1 n=61 v=102
76080 On ch=1 n=66 v=102
76320 Off ch=1 n=61 v=64
76320 Off ch=1 n=66 v=64
76320 On ch=1 n=61 v=102
76320 On ch=1 n=68 v=102
76560 Off ch=1 n=61 v=64
76560 Off ch=1 n=68 v=64
76560 On ch=1 n=61 v=102
76560 On ch=1 n=68 v=102
76800 Off ch=1 n=61 v=64
76800 Off ch=1 n=68 v=64
76800 On ch=1 n=63 v=102
77280 Off ch=1 n=63 v=64
77760 On ch=1 n=61 v=102
77760 On ch=1 n=70 v=102
78000 Off ch=1 n=61 v=64
78000 Off ch=1 n=70 v=64
78000 On ch=1 n=61 v=102
78000 On ch=1 n=68 v=102
78240 Off ch=1 n=61 v=64
78240 Off ch=1 n=68 v=64
78240 On ch=1 n=61 v=102
78240 On ch=1 n=66 v=102
78480 Off ch=1 n=61 v=64
78480 Off ch=1 n=66 v=64
78480 On ch=1 n=61 v=102
78480 On ch=1 n=68 v=102
78720 Off ch=1 n=61 v=64
78720 Off ch=1 n=68 v=64
78720 On ch=1 n=63 v=102
78720 On ch=1 n=70 v=102
79200 Off ch=1 n=63 v=64
79200 Off ch=1 n=70 v=64
79200 On ch=1 n=63 v=102
79440 Off ch=1 n=63 v=64
79440 On ch=1 n=63 v=102
79680 Off ch=1 n=63 v=64
79680 On ch=1 n=61 v=102
79680 On ch=1 n=66 v=102
79920 Off ch=1 n=61 v=64
79920 Off ch=1 n=66 v=64
79920 On ch=1 n=61 v=102
79920 On ch=1 n=66 v=102
80160 Off ch=1 n=61 v=64
80160 Off ch=1 n=66 v=64
80160 On ch=1 n=61 v=102
80160 On ch=1 n=68 v=102
80400 Off ch=1 n=61 v=64
80400 Off ch=1 n=68 v=64
80400 On ch=1 n=61 v=102
80400 On ch=1 n=66 v=102
80640 Off ch=1 n=61 v=64
80640 Off ch=1 n=66 v=64
80640 On ch=1 n=63 v=102
80640 On ch=1 n=70 v=102
81000 Off ch=1 n=63 v=64
81000 Off ch=1 n=70 v=64
81000 On ch=1 n=63 v=102
81000 On ch=1 n=70 v=102
81120 Off ch=1 n=63 v=64
81120 Off ch=1 n=70 v=64
81360 On ch=1 n=63 v=102
81600 Off ch=1 n=63 v=64
81600 On ch=1 n=63 v=102
81600 On ch=1 n=70 v=102
81840 Off ch=1 n=63 v=64
81840 Off ch=1 n=70 v=64
81840 On ch=1 n=61 v=102
81840 On ch=1 n=68 v=102
82080 Off ch=1 n=61 v=64
82080 Off ch=1 n=68 v=64
82080 On ch=1 n=61 v=102
82080 On ch=1 n=66 v=102
82320 Off ch=1 n=61 v=64
82320 Off ch=1 n=66 v=64
82320 On ch=1 n=68 v=102
82560 Off ch=1 n=68 v=64
82560 On ch=1 n=63 v=102
82920 Off ch=1 n=63 v=64
82920 On ch=1 n=63 v=102
83040 Off ch=1 n=63 v=64
83280 On ch=1 n=63 v=102
83520 Off ch=1 n=63 v=64
83520 On ch=1 n=61 v=102
83520 On ch=1 n=70 v=102
83760 Off ch=1 n=61 v=64
83760 Off ch=1 n=70 v=64
83760 On ch=1 n=68 v=102
84000 Off ch=1 n=68 v=64
84000 On ch=1 n=61 v=102
84000 On ch=1 n=66 v=102
84240 Off ch=1 n=61 v=64
84240 Off ch=1 n=66 v=64
84240 On ch=1 n=68 v=102
84480 Off ch=1 n=68 v=64
84480 On ch=1 n=63 v=102
84840 Off ch=1 n=63 v=64
84840 On ch=1 n=63 v=102
84960 Off ch=1 n=63 v=64
85200 On ch=1 n=63 v=102
85440 Off ch=1 n=63 v=64
85440 On ch=1 n=61 v=102
85440 On ch=1 n=70 v=102
85680 Off ch=1 n=61 v=64
85680 Off ch=1 n=70 v=64
85680 On ch=1 n=68 v=102
85920 Off ch=1 n=68 v=64
85920 On ch=1 n=61 v=102
85920 On ch=1 n=66 v=102
86160 Off ch=1 n=61 v=64
86160 Off ch=1 n=66 v=64
86160 On ch=1 n=68 v=102
86400 Off ch=1 n=68 v=64
86400 On ch=1 n=63 v=102
86400 On ch=1 n=75 v=102
86640 Off ch=1 n=63 v=64
86640 Off ch=1 n=75 v=64
86640 On ch=1 n=63 v=102
86880 Off ch=1 n=63 v=64
86880 On ch=1 n=63 v=102
87120 Off ch=1 n=63 v=64
87120 On ch=1 n=63 v=102
87360 Off ch=1 n=63 v=64
87360 On ch=1 n=66 v=102
87600 Off ch=1 n=66 v=64
87600 On ch=1 n=66 v=102
87840 Off ch=1 n=66 v=64
87840 On ch=1 n=68 v=102
88080 Off ch=1 n=68 v=64
88080 On ch=1 n=66 v=102
88320 Off ch=1 n=66 v=64
88320 On ch=1 n=63 v=102
88320 On ch=1 n=70 v=102
88800 Off ch=1 n=63 v=64
88800 Off ch=1 n=70 v=64
89040 On ch=1 n=63 v=102
89040 On ch=1 n=70 v=102
89280 Off ch=1 n=63 v=64
89280 Off ch=1 n=70 v=64
89280 On ch=1 n=61 v=102
89280 On ch=1 n=70 v=102
89520 Off ch=1 n=61 v=64
89520 Off ch=1 n=70 v=64
89520 On ch=1 n=61 v=102
89520 On ch=1 n=68 v=102
89760 Off ch=1 n=61 v=64
89760 Off ch=1 n=68 v=64
89760 On ch=1 n=61 v=102
89760 On ch=1 n=66 v=102
90000 Off ch=1 n=61 v=64
90000 Off ch=1 n=66 v=64
90000 On ch=1 n=68 v=102
90240 Off ch=1 n=68 v=64
90240 On ch=1 n=63 v=102
90240 On ch=1 n=75 v=102
90480 Off ch=1 n=63 v=64
90480 Off ch=1 n=75 v=64
90480 On ch=1 n=63 v=102
90720 Off ch=1 n=63 v=64
90720 On ch=1 n=63 v=102
90960 Off ch=1 n=63 v=64
90960 On ch=1 n=63 v=102
91200 Off ch=1 n=63 v=64
91200 On ch=1 n=66 v=102
91440 Off ch=1 n=66 v=64
91440 On ch=1 n=66 v=102
91680 Off ch=1 n=66 v=64
91680 On ch=1 n=68 v=102
91920 Off ch=1 n=68 v=64
91920 On ch=1 n=66 v=102
92160 Off ch=1 n=66 v=64
92400 On ch=1 n=63 v=102
92640 Off ch=1 n=63 v=64
92640 On ch=1 n=63 v=102
92880 Off ch=1 n=63 v=64
92880 On ch=1 n=63 v=102
93120 Off ch=1 n=63 v=64
93120 On ch=1 n=63 v=119
93120 Par ch=1 c=64 v=0
93360 Off ch=1 n=63 v=64
93600 On ch=1 n=63 v=119
93840 Off ch=1 n=63 v=64
94075 Par ch=1 c=64 v=109
94080 On ch=1 n=63 v=102
94080 On ch=1 n=75 v=102
94320 Off ch=1 n=63 v=64
94320 Off ch=1 n=75 v=64
94320 On ch=1 n=63 v=102
94560 Off ch=1 n=63 v=64
94560 On ch=1 n=63 v=102
94800 Off ch=1 n=63 v=64
94800 On ch=1 n=63 v=102
95040 Off ch=1 n=63 v=64
95040 On ch=1 n=66 v=102
95280 Off ch=1 n=66 v=64
95280 On ch=1 n=66 v=102
95520 Off ch=1 n=66 v=64
95520 On ch=1 n=68 v=102
95760 Off ch=1 n=68 v=64
95760 On ch=1 n=66 v=102
96000 Off ch=1 n=66 v=64
96000 On ch=1 n=63 v=102
96000 On ch=1 n=70 v=102
96480 Off ch=1 n=63 v=64
96480 Off ch=1 n=70 v=64
96720 On ch=1 n=63 v=102
96720 On ch=1 n=70 v=102
96960 Off ch=1 n=63 v=64
96960 Off ch=1 n=70 v=64
96960 On ch=1 n=61 v=102
96960 On ch=1 n=70 v=102
97200 Off ch=1 n=61 v=64
97200 Off ch=1 n=70 v=64
97200 On ch=1 n=61 v=102
97200 On ch=1 n=68 v=102
97440 Off ch=1 n=61 v=64
97440 Off ch=1 n=68 v=64
97440 On ch=1 n=61 v=102
97440 On ch=1 n=66 v=102
97680 Off ch=1 n=61 v=64
97680 Off ch=1 n=66 v=64
97680 On ch=1 n=68 v=102
97920 Off ch=1 n=68 v=64
97920 On ch=1 n=63 v=102
98280 Off ch=1 n=63 v=64
98280 On ch=1 n=63 v=102
98400 Off ch=1 n=63 v=64
98640 On ch=1 n=63 v=102
98880 Off ch=1 n=63 v=64
98880 On ch=1 n=70 v=102
99120 Off ch=1 n=70 v=64
99120 On ch=1 n=68 v=102
99360 Off ch=1 n=68 v=64
99360 On ch=1 n=66 v=102
99600 Off ch=1 n=66 v=64
99600 On ch=1 n=68 v=102
99840 Off ch=1 n=68 v=64
99840 On ch=1 n=63 v=102
100200 Off ch=1 n=63 v=64
100200 On ch=1 n=63 v=102
100320 Off ch=1 n=63 v=64
100560 On ch=1 n=63 v=102
100800 Off ch=1 n=63 v=64
101280 On ch=1 n=70 v=88
101280 On ch=1 n=82 v=88
101760 Off ch=1 n=70 v=64
101760 Off ch=1 n=82 v=64
101760 On ch=1 n=75 v=105
101760 On ch=1 n=87 v=105
102240 Off ch=1 n=75 v=64
102240 Off ch=1 n=87 v=64
102240 On ch=1 n=82 v=91
102720 Off ch=1 n=82 v=64
102720 On ch=1 n=83 v=97
103200 Off ch=1 n=83 v=64
103200 On ch=1 n=80 v=90
103680 Off ch=1 n=80 v=64
103680 On ch=1 n=75 v=99
103680 On ch=1 n=87 v=99
104160 Off ch=1 n=75 v=64
104160 Off ch=1 n=87 v=64
104160 On ch=1 n=82 v=93
104640 Off ch=1 n=82 v=64
104640 On ch=1 n=75 v=88
104640 On ch=1 n=83 v=88
105600 Off ch=1 n=75 v=64
105600 Off ch=1 n=83 v=64
105600 On ch=1 n=87 v=104
106080 Off ch=1 n=87 v=64
106080 On ch=1 n=82 v=90
106560 Off ch=1 n=82 v=64
106560 On ch=1 n=83 v=96
107040 Off ch=1 n=83 v=64
107040 On ch=1 n=80 v=89
107520 Off ch=1 n=80 v=64
107520 On ch=1 n=87 v=97
108000 Off ch=1 n=87 v=64
108000 On ch=1 n=82 v=89
108480 Off ch=1 n=82 v=64
108480 On ch=1 n=83 v=90
109440 Off ch=1 n=83 v=64
109440 On ch=1 n=75 v=99
109440 On ch=1 n=87 v=99
109920 Off ch=1 n=75 v=64
109920 Off ch=1 n=87 v=64
109920 On ch=1 n=82 v=89
110400 Off ch=1 n=82 v=64
110400 On ch=1 n=83 v=94
110880 Off ch=1 n=83 v=64
110880 On ch=1 n=80 v=89
111360 Off ch=1 n=80 v=64
111360 On ch=1 n=75 v=89
111360 On ch=1 n=87 v=89
111840 Off ch=1 n=75 v=64
111840 Off ch=1 n=87 v=64
111840 On ch=1 n=82 v=92
112320 Off ch=1 n=82 v=64
112320 On ch=1 n=83 v=95
112800 Off ch=1 n=83 v=64
112800 On ch=1 n=73 v=93
112920 Off ch=1 n=73 v=64
112920 On ch=1 n=75 v=89
113160 Off ch=1 n=75 v=64
113160 On ch=1 n=75 v=102
113280 Off ch=1 n=75 v=64
113280 On ch=1 n=75 v=94
113760 Off ch=1 n=75 v=64
113760 On ch=1 n=73 v=96
113880 Off ch=1 n=73 v=64
113880 On ch=1 n=75 v=96
114120 Off ch=1 n=75 v=64
114120 On ch=1 n=75 v=97
114240 Off ch=1 n=75 v=64
114240 On ch=1 n=75 v=96
114720 Off ch=1 n=75 v=64
114720 On ch=1 n=73 v=95
114960 Off ch=1 n=73 v=64
114960 On ch=1 n=73 v=90
115200 Off ch=1 n=73 v=64
115200 On ch=1 n=75 v=94
115440 Off ch=1 n=75 v=64
115440 On ch=1 n=70 v=97
115680 Off ch=1 n=70 v=64
115680 On ch=1 n=75 v=86
115920 Off ch=1 n=75 v=64
115920 On ch=1 n=70 v=96
116160 Off ch=1 n=70 v=64
116160 On ch=1 n=75 v=87
116400 Off ch=1 n=75 v=64
116400 On ch=1 n=70 v=94
116640 Off ch=1 n=70 v=64
117120 On ch=1 n=63 v=102
117480 Off ch=1 n=63 v=64
117480 On ch=1 n=63 v=102
117600 Off ch=1 n=63 v=64
117600 On ch=1 n=63 v=102
118080 Off ch=1 n=63 v=64
118080 On ch=1 n=61 v=102
118080 On ch=1 n=66 v=102
118320 Off ch=1 n=61 v=64
118320 Off ch=1 n=66 v=64
118320 On ch=1 n=61 v=102
118320 On ch=1 n=66 v=102
118560 Off ch=1 n=61 v=64
118560 Off ch=1 n=66 v=64
118560 On ch=1 n=61 v=102
118560 On ch=1 n=68 v=102
118800 Off ch=1 n=61 v=64
118800 Off ch=1 n=68 v=64
118800 On ch=1 n=61 v=102
118800 On ch=1 n=66 v=102
119040 Off ch=1 n=61 v=64
119040 Off ch=1 n=66 v=64
119040 On ch=1 n=63 v=102
119400 Off ch=1 n=63 v=64
119400 On ch=1 n=63 v=102
119520 Off ch=1 n=63 v=64
119520 On ch=1 n=63 v=102
120000 Off ch=1 n=63 v=64
120000 On ch=1 n=61 v=102
120000 On ch=1 n=66 v=102
120240 Off ch=1 n=61 v=64
120240 Off ch=1 n=66 v=64
120240 On ch=1 n=61 v=102
120240 On ch=1 n=66 v=102
120480 Off ch=1 n=61 v=64
120480 Off ch=1 n=66 v=64
120480 On ch=1 n=61 v=102
120480 On ch=1 n=68 v=102
120720 Off ch=1 n=61 v=64
120720 Off ch=1 n=68 v=64
120720 On ch=1 n=61 v=102
120720 On ch=1 n=66 v=102
120960 Off ch=1 n=61 v=64
120960 Off ch=1 n=66 v=64
120960 On ch=1 n=63 v=102
121320 Off ch=1 n=63 v=64
121320 On ch=1 n=63 v=102
121440 Off ch=1 n=63 v=64
121440 On ch=1 n=63 v=102
121920 Off ch=1 n=63 v=64
121920 On ch=1 n=61 v=102
121920 On ch=1 n=66 v=102
122160 Off ch=1 n=61 v=64
122160 Off ch=1 n=66 v=64
122160 On ch=1 n=61 v=102
122160 On ch=1 n=66 v=102
122400 Off ch=1 n=61 v=64
122400 Off ch=1 n=66 v=64
122400 On ch=1 n=61 v=102
122400 On ch=1 n=68 v=102
122640 Off ch=1 n=61 v=64
122640 Off ch=1 n=68 v=64
122640 On ch=1 n=61 v=102
122640 On ch=1 n=66 v=102
122880 Off ch=1 n=61 v=64
122880 Off ch=1 n=66 v=64
122880 On ch=1 n=61 v=102
122880 On ch=1 n=70 v=102
123120 Off ch=1 n=61 v=64
123120 Off ch=1 n=70 v=64
123120 On ch=1 n=63 v=102
123360 Off ch=1 n=63 v=64
123360 On ch=1 n=63 v=102
123600 Off ch=1 n=63 v=64
123600 On ch=1 n=63 v=102
123840 Off ch=1 n=63 v=64
123840 On ch=1 n=63 v=102
124320 Off ch=1 n=63 v=64
124320 On ch=1 n=63 v=102
124800 Off ch=1 n=63 v=64
124800 On ch=1 n=63 v=102
125280 Off ch=1 n=63 v=64
125280 On ch=1 n=66 v=102
125760 Off ch=1 n=66 v=64
125760 On ch=1 n=68 v=102
126240 Off ch=1 n=68 v=64
126240 On ch=1 n=68 v=102
126480 Off ch=1 n=68 v=64
126480 On ch=1 n=68 v=102
126720 Off ch=1 n=68 v=64
126720 On ch=1 n=68 v=102
126960 Off ch=1 n=68 v=64
126960 On ch=1 n=70 v=102
127200 Off ch=1 n=70 v=64
127200 On ch=1 n=68 v=102
127440 Off ch=1 n=68 v=64
127440 On ch=1 n=66 v=102
127560 Off ch=1 n=66 v=64
127560 On ch=1 n=63 v=102
127680 Off ch=1 n=63 v=64
127920 On ch=1 n=66 v=102
128160 Off ch=1 n=66 v=64
128160 On ch=1 n=66 v=102
128400 Off ch=1 n=66 v=64
128400 On ch=1 n=66 v=102
128640 Off ch=1 n=66 v=64
128640 On ch=1 n=66 v=102
128880 Off ch=1 n=66 v=64
128880 On ch=1 n=66 v=102
129120 Off ch=1 n=66 v=64
129120 On ch=1 n=66 v=102
129360 Off ch=1 n=66 v=64
129360 On ch=1 n=66 v=102
129600 Off ch=1 n=66 v=64
129600 On ch=1 n=66 v=102
130080 Off ch=1 n=66 v=64
130320 On ch=1 n=66 v=102
130560 Off ch=1 n=66 v=64
130560 On ch=1 n=65 v=102
131040 Off ch=1 n=65 v=64
131040 On ch=1 n=63 v=102
131520 Off ch=1 n=63 v=64
131520 On ch=1 n=66 v=102
132000 Off ch=1 n=66 v=64
132000 On ch=1 n=68 v=102
132000 On ch=1 n=80 v=102
132240 Off ch=1 n=68 v=64
132240 Off ch=1 n=80 v=64
132240 On ch=1 n=66 v=102
132240 On ch=1 n=78 v=102
132480 Off ch=1 n=66 v=64
132480 Off ch=1 n=78 v=64
132480 On ch=1 n=70 v=102
132480 On ch=1 n=82 v=102
133680 Off ch=1 n=70 v=64
133680 Off ch=1 n=82 v=64
133680 On ch=1 n=71 v=102
133680 On ch=1 n=83 v=102
133920 Off ch=1 n=71 v=64
133920 Off ch=1 n=83 v=64
133920 On ch=1 n=70 v=102
133920 On ch=1 n=82 v=102
134160 Off ch=1 n=70 v=64
134160 Off ch=1 n=82 v=64
134160 On ch=1 n=70 v=102
134160 On ch=1 n=82 v=102
134400 Off ch=1 n=70 v=64
134400 Off ch=1 n=82 v=64
134400 On ch=1 n=68 v=102
134400 On ch=1 n=80 v=102
135600 Off ch=1 n=68 v=64
135600 Off ch=1 n=80 v=64
135600 On ch=1 n=66 v=102
135600 On ch=1 n=78 v=102
135840 Off ch=1 n=66 v=64
135840 Off ch=1 n=78 v=64
135840 On ch=1 n=68 v=102
135840 On ch=1 n=80 v=102
136080 Off ch=1 n=68 v=64
136080 Off ch=1 n=80 v=64
136080 On ch=1 n=70 v=102
136080 On ch=1 n=82 v=102
136560 Off ch=1 n=70 v=64
136560 Off ch=1 n=82 v=64
136560 On ch=1 n=71 v=102
136560 On ch=1 n=83 v=102
136800 Off ch=1 n=71 v=64
136800 Off ch=1 n=83 v=64
136800 On ch=1 n=70 v=102
136800 On ch=1 n=82 v=102
137040 Off ch=1 n=70 v=64
137040 Off ch=1 n=82 v=64
137040 On ch=1 n=68 v=102
137040 On ch=1 n=80 v=102
137280 Off ch=1 n=68 v=64
137280 Off ch=1 n=80 v=64
137280 On ch=1 n=68 v=102
137280 On ch=1 n=80 v=102
137520 Off ch=1 n=68 v=64
137520 Off ch=1 n=80 v=64
137520 On ch=1 n=66 v=102
137520 On ch=1 n=78 v=102
137760 Off ch=1 n=66 v=64
137760 Off ch=1 n=78 v=64
137760 On ch=1 n=66 v=102
137760 On ch=1 n=78 v=102
138000 Off ch=1 n=66 v=64
138000 Off ch=1 n=78 v=64
138000 On ch=1 n=70 v=102
138000 On ch=1 n=82 v=102
138480 Off ch=1 n=70 v=64
138480 Off ch=1 n=82 v=64
138480 On ch=1 n=71 v=102
138480 On ch=1 n=83 v=102
138720 Off ch=1 n=71 v=64
138720 Off ch=1 n=83 v=64
138720 On ch=1 n=82 v=102
138840 Off ch=1 n=82 v=64
138840 On ch=1 n=82 v=102
138960 Off ch=1 n=82 v=64
138960 On ch=1 n=80 v=102
139200 Off ch=1 n=80 v=64
139200 On ch=1 n=80 v=102
139320 Off ch=1 n=80 v=64
139320 On ch=1 n=80 v=102
139440 Off ch=1 n=80 v=64
139440 On ch=1 n=78 v=102
139680 Off ch=1 n=78 v=64
139680 On ch=1 n=68 v=102
139680 On ch=1 n=80 v=102
139920 Off ch=1 n=68 v=64
139920 Off ch=1 n=80 v=64
139920 On ch=1 n=70 v=102
139920 On ch=1 n=82 v=102
141360 Off ch=1 n=70 v=64
141360 Off ch=1 n=82 v=64
141360 On ch=1 n=73 v=102
141360 On ch=1 n=85 v=102
141600 Off ch=1 n=73 v=64
141600 Off ch=1 n=85 v=64
141600 On ch=1 n=70 v=102
141600 On ch=1 n=82 v=102
141840 Off ch=1 n=70 v=64
141840 Off ch=1 n=82 v=64
141840 On ch=1 n=70 v=102
141840 On ch=1 n=82 v=102
142080 Off ch=1 n=70 v=64
142080 Off ch=1 n=82 v=64
142080 On ch=1 n=68 v=102
142080 On ch=1 n=80 v=102
143040 Off ch=1 n=68 v=64
143040 Off ch=1 n=80 v=64
143280 On ch=1 n=70 v=102
143280 On ch=1 n=82 v=102
143520 Off ch=1 n=70 v=64
143520 Off ch=1 n=82 v=64
143520 On ch=1 n=73 v=102
143520 On ch=1 n=85 v=102
143760 Off ch=1 n=73 v=64
143760 Off ch=1 n=85 v=64
143760 On ch=1 n=75 v=107
143760 On ch=1 n=87 v=107
144720 Off ch=1 n=75 v=64
144720 Off ch=1 n=87 v=64
144720 On ch=1 n=63 v=79
144720 On ch=1 n=66 v=79
144720 On ch=1 n=70 v=79
144960 Off ch=1 n=63 v=64
144960 Off ch=1 n=66 v=64
144960 Off ch=1 n=70 v=64
144960 On ch=1 n=63 v=90
144960 On ch=1 n=66 v=90
144960 On ch=1 n=70 v=90
145200 Off ch=1 n=63 v=64
145200 Off ch=1 n=66 v=64
145200 Off ch=1 n=70 v=64
145200 On ch=1 n=63 v=99
145200 On ch=1 n=66 v=99
145200 On ch=1 n=70 v=99
145440 Off ch=1 n=63 v=64
145440 Off ch=1 n=66 v=64
145440 Off ch=1 n=70 v=64
145440 On ch=1 n=63 v=109
145440 On ch=1 n=66 v=109
145440 On ch=1 n=70 v=109
145680 Off ch=1 n=63 v=64
145680 Off ch=1 n=66 v=64
145680 Off ch=1 n=70 v=64
145680 On ch=1 n=63 v=119
145680 On ch=1 n=66 v=119
145680 On ch=1 n=70 v=119
145920 Off ch=1 n=63 v=64
145920 Off ch=1 n=66 v=64
145920 Off ch=1 n=70 v=64
146160 On ch=1 n=62 v=89
146160 On ch=1 n=65 v=89
146160 On ch=1 n=68 v=89
146280 Off ch=1 n=62 v=64
146280 Off ch=1 n=65 v=64
146280 Off ch=1 n=68 v=64
146400 On ch=1 n=62 v=117
146400 On ch=1 n=65 v=117
146400 On ch=1 n=68 v=117
146880 Off ch=1 n=62 v=64
146880 Off ch=1 n=65 v=64
146880 Off ch=1 n=68 v=64
146880 On ch=1 n=70 v=107
147120 Off ch=1 n=70 v=64
147120 On ch=1 n=68 v=95
147360 Off ch=1 n=68 v=64
147360 On ch=1 n=66 v=91
147600 Off ch=1 n=66 v=64
147600 On ch=1 n=68 v=99
147840 Off ch=1 n=68 v=64
147840 On ch=1 n=70 v=120
148320 Off ch=1 n=70 v=64
148320 On ch=1 n=63 v=115
148560 Off ch=1 n=63 v=64
148560 On ch=1 n=63 v=110
148800 Off ch=1 n=63 v=64
148800 On ch=1 n=61 v=107
148800 On ch=1 n=66 v=107
149040 Off ch=1 n=61 v=64
149040 Off ch=1 n=66 v=64
149040 On ch=1 n=61 v=105
149040 On ch=1 n=66 v=105
149280 Off ch=1 n=61 v=64
149280 Off ch=1 n=66 v=64
149280 On ch=1 n=61 v=104
149280 On ch=1 n=68 v=104
149520 Off ch=1 n=61 v=64
149520 Off ch=1 n=68 v=64
149520 On ch=1 n=61 v=104
149520 On ch=1 n=66 v=104
149760 Off ch=1 n=61 v=64
149760 Off ch=1 n=66 v=64
149760 On ch=1 n=63 v=104
149760 On ch=1 n=70 v=104
150120 Off ch=1 n=63 v=64
150120 Off ch=1 n=70 v=64
150120 On ch=1 n=63 v=107
150120 On ch=1 n=70 v=107
150360 Off ch=1 n=63 v=64
150360 Off ch=1 n=70 v=64
150720 On ch=1 n=61 v=108
150720 On ch=1 n=70 v=108
150960 Off ch=1 n=61 v=64
150960 Off ch=1 n=70 v=64
150960 On ch=1 n=61 v=108
150960 On ch=1 n=68 v=108
151200 Off ch=1 n=61 v=64
151200 Off ch=1 n=68 v=64
151200 On ch=1 n=61 v=109
151200 On ch=1 n=66 v=109
151440 Off ch=1 n=61 v=64
151440 Off ch=1 n=66 v=64
151440 On ch=1 n=68 v=109
151680 Off ch=1 n=68 v=64
151680 On ch=1 n=63 v=109
151680 On ch=1 n=70 v=109
152160 Off ch=1 n=63 v=64
152160 Off ch=1 n=70 v=64
152160 On ch=1 n=63 v=109
152400 Off ch=1 n=63 v=64
152400 On ch=1 n=63 v=109
152640 Off ch=1 n=63 v=64
152640 On ch=1 n=61 v=109
152640 On ch=1 n=66 v=109
152880 Off ch=1 n=61 v=64
152880 Off ch=1 n=66 v=64
152880 On ch=1 n=61 v=110
152880 On ch=1 n=66 v=110
153120 Off ch=1 n=61 v=64
153120 Off ch=1 n=66 v=64
153120 On ch=1 n=61 v=111
153120 On ch=1 n=68 v=111
153360 Off ch=1 n=61 v=64
153360 Off ch=1 n=68 v=64
153360 On ch=1 n=61 v=112
153360 On ch=1 n=68 v=112
153600 Off ch=1 n=61 v=64
153600 Off ch=1 n=68 v=64
153600 On ch=1 n=63 v=113
154080 Off ch=1 n=63 v=64
154560 On ch=1 n=61 v=114
154560 On ch=1 n=70 v=114
154800 Off ch=1 n=61 v=64
154800 Off ch=1 n=70 v=64
154800 On ch=1 n=61 v=114
154800 On ch=1 n=68 v=114
155040 Off ch=1 n=61 v=64
155040 Off ch=1 n=68 v=64
155040 On ch=1 n=61 v=114
155040 On ch=1 n=66 v=114
155280 Off ch=1 n=61 v=64
155280 Off ch=1 n=66 v=64
155280 On ch=1 n=61 v=114
155280 On ch=1 n=68 v=114
155520 Off ch=1 n=61 v=64
155520 Off ch=1 n=68 v=64
155520 On ch=1 n=70 v=114
156000 Off ch=1 n=70 v=64
156000 On ch=1 n=63 v=114
156240 Off ch=1 n=63 v=64
156240 On ch=1 n=63 v=114
156480 Off ch=1 n=63 v=64
156480 On ch=1 n=61 v=114
156480 On ch=1 n=66 v=114
156720 Off ch=1 n=61 v=64
156720 Off ch=1 n=66 v=64
156720 On ch=1 n=61 v=114
156720 On ch=1 n=66 v=114
156960 Off ch=1 n=61 v=64
156960 Off ch=1 n=66 v=64
156960 On ch=1 n=61 v=114
156960 On ch=1 n=68 v=114
157200 Off ch=1 n=61 v=64
157200 Off ch=1 n=68 v=64
157200 On ch=1 n=61 v=114
157200 On ch=1 n=66 v=114
157440 Off ch=1 n=61 v=64
157440 Off ch=1 n=66 v=64
157440 On ch=1 n=63 v=114
157440 On ch=1 n=70 v=114
157800 Off ch=1 n=63 v=64
157800 Off ch=1 n=70 v=64
157800 On ch=1 n=63 v=113
157800 On ch=1 n=70 v=113
158040 Off ch=1 n=63 v=64
158040 Off ch=1 n=70 v=64
158400 On ch=1 n=61 v=113
158400 On ch=1 n=70 v=113
158640 Off ch=1 n=61 v=64
158640 Off ch=1 n=70 v=64
158640 On ch=1 n=61 v=113
158640 On ch=1 n=68 v=113
158880 Off ch=1 n=61 v=64
158880 Off ch=1 n=68 v=64
158880 On ch=1 n=61 v=113
158880 On ch=1 n=66 v=113
159120 Off ch=1 n=61 v=64
159120 Off ch=1 n=66 v=64
159120 On ch=1 n=68 v=112
159360 Off ch=1 n=68 v=64
159360 On ch=1 n=63 v=112
159360 On ch=1 n=70 v=112
159840 Off ch=1 n=63 v=64
159840 Off ch=1 n=70 v=64
159840 On ch=1 n=63 v=111
160080 Off ch=1 n=63 v=64
160080 On ch=1 n=63 v=111
160320 Off ch=1 n=63 v=64
160320 On ch=1 n=61 v=110
160320 On ch=1 n=66 v=110
160560 Off ch=1 n=61 v=64
160560 Off ch=1 n=66 v=64
160560 On ch=1 n=61 v=110
160560 On ch=1 n=66 v=110
160800 Off ch=1 n=61 v=64
160800 Off ch=1 n=66 v=64
160800 On ch=1 n=61 v=110
160800 On ch=1 n=68 v=110
161040 Off ch=1 n=61 v=64
161040 Off ch=1 n=68 v=64
161040 On ch=1 n=61 v=109
161040 On ch=1 n=68 v=109
161280 Off ch=1 n=61 v=64
161280 Off ch=1 n=68 v=64
161280 On ch=1 n=63 v=109
161640 Off ch=1 n=63 v=64
161640 On ch=1 n=63 v=108
161760 Off ch=1 n=63 v=64
162000 On ch=1 n=63 v=109
162240 Off ch=1 n=63 v=64
162360 On ch=1 n=63 v=107
162720 Off ch=1 n=63 v=64
162720 On ch=1 n=70 v=107
162720 On ch=1 n=82 v=107
162960 Off ch=1 n=70 v=64
162960 Off ch=1 n=82 v=64
162960 On ch=1 n=78 v=107
164160 Off ch=1 n=78 v=64
164400 On ch=1 n=70 v=98
164400 On ch=1 n=78 v=98
164640 Off ch=1 n=70 v=64
164640 Off ch=1 n=78 v=64
164640 On ch=1 n=70 v=96
164640 On ch=1 n=77 v=96
164880 Off ch=1 n=70 v=64
164880 Off ch=1 n=77 v=64
164880 On ch=1 n=70 v=95
164880 On ch=1 n=78 v=95
165120 Off ch=1 n=70 v=64
165120 Off ch=1 n=78 v=64
165360 On ch=1 n=70 v=95
165360 On ch=1 n=78 v=95
165600 Off ch=1 n=70 v=64
165600 Off ch=1 n=78 v=64
165600 On ch=1 n=70 v=94
165600 On ch=1 n=77 v=94
165840 Off ch=1 n=70 v=64
165840 Off ch=1 n=77 v=64
165840 On ch=1 n=70 v=94
165840 On ch=1 n=78 v=94
166080 Off ch=1 n=70 v=64
166080 Off ch=1 n=78 v=64
166320 On ch=1 n=70 v=94
166320 On ch=1 n=78 v=94
166560 Off ch=1 n=70 v=64
166560 Off ch=1 n=78 v=64
166560 On ch=1 n=70 v=94
166560 On ch=1 n=77 v=94
166800 Off ch=1 n=70 v=64
166800 Off ch=1 n=77 v=64
166800 On ch=1 n=70 v=94
166800 On ch=1 n=78 v=94
167040 Off ch=1 n=70 v=64
167040 Off ch=1 n=78 v=64
167040 On ch=1 n=70 v=93
167040 On ch=1 n=75 v=93
167400 Off ch=1 n=70 v=64
167400 Off ch=1 n=75 v=64
167400 On ch=1 n=70 v=92
167400 On ch=1 n=75 v=92
167520 Off ch=1 n=70 v=64
167520 Off ch=1 n=75 v=64
167760 On ch=1 n=70 v=92
167760 On ch=1 n=75 v=92
168120 Off ch=1 n=70 v=64
168120 Off ch=1 n=75 v=64
168120 On ch=1 n=70 v=92
168120 On ch=1 n=75 v=92
168480 Off ch=1 n=70 v=64
168480 Off ch=1 n=75 v=64
168960 On ch=1 n=66 v=91
168960 On ch=1 n=73 v=91
169320 Off ch=1 n=66 v=64
169320 Off ch=1 n=73 v=64
169320 On ch=1 n=66 v=91
169320 On ch=1 n=73 v=91
169440 Off ch=1 n=66 v=64
169440 Off ch=1 n=73 v=64
169680 On ch=1 n=66 v=91
169680 On ch=1 n=73 v=91
170040 Off ch=1 n=66 v=64
170040 Off ch=1 n=73 v=64
170040 On ch=1 n=66 v=91
170040 On ch=1 n=73 v=91
170400 Off ch=1 n=66 v=64
170400 Off ch=1 n=73 v=64
170640 On ch=1 n=66 v=91
170640 On ch=1 n=73 v=91
170640 On ch=1 n=78 v=91
171840 Off ch=1 n=66 v=64
171840 Off ch=1 n=73 v=64
171840 Off ch=1 n=78 v=64
172080 On ch=1 n=78 v=91
172320 Off ch=1 n=78 v=64
172320 On ch=1 n=77 v=91
172560 Off ch=1 n=77 v=64
172560 On ch=1 n=78 v=91
172800 Off ch=1 n=78 v=64
173040 On ch=1 n=78 v=91
173280 Off ch=1 n=78 v=64
173280 On ch=1 n=77 v=91
173520 Off ch=1 n=77 v=64
173520 On ch=1 n=78 v=91
173760 Off ch=1 n=78 v=64
174000 On ch=1 n=78 v=91
174240 Off ch=1 n=78 v=64
174240 On ch=1 n=77 v=91
174480 Off ch=1 n=77 v=64
174480 On ch=1 n=78 v=90
174720 Off ch=1 n=78 v=64
174720 On ch=1 n=70 v=90
174720 On ch=1 n=75 v=90
175080 Off ch=1 n=70 v=64
175080 Off ch=1 n=75 v=64
175080 On ch=1 n=70 v=90
175080 On ch=1 n=75 v=90
175200 Off ch=1 n=70 v=64
175200 Off ch=1 n=75 v=64
175440 On ch=1 n=70 v=90
175440 On ch=1 n=75 v=90
175800 Off ch=1 n=70 v=64
175800 Off ch=1 n=75 v=64
175800 On ch=1 n=70 v=90
175800 On ch=1 n=75 v=90
176160 Off ch=1 n=70 v=64
176160 Off ch=1 n=75 v=64
176640 On ch=1 n=66 v=90
176640 On ch=1 n=73 v=90
177000 Off ch=1 n=66 v=64
177000 Off ch=1 n=73 v=64
177000 On ch=1 n=66 v=90
177000 On ch=1 n=73 v=90
177120 Off ch=1 n=66 v=64
177120 Off ch=1 n=73 v=64
177360 On ch=1 n=66 v=90
177360 On ch=1 n=73 v=90
177720 Off ch=1 n=66 v=64
177720 Off ch=1 n=73 v=64
177720 On ch=1 n=66 v=90
177720 On ch=1 n=73 v=90
178080 Off ch=1 n=66 v=64
178080 Off ch=1 n=73 v=64
178080 On ch=1 n=78 v=90
178320 Off ch=1 n=78 v=64
178320 On ch=1 n=80 v=91
178560 Off ch=1 n=80 v=64
178560 On ch=1 n=70 v=92
178560 On ch=1 n=82 v=92
179040 Off ch=1 n=70 v=64
179040 Off ch=1 n=82 v=64
179040 On ch=1 n=70 v=93
179040 On ch=1 n=75 v=93
179280 Off ch=1 n=70 v=64
179280 Off ch=1 n=75 v=64
179280 On ch=1 n=70 v=93
179280 On ch=1 n=75 v=93
179520 Off ch=1 n=70 v=64
179520 Off ch=1 n=75 v=64
179520 On ch=1 n=70 v=93
179520 On ch=1 n=78 v=93
179760 Off ch=1 n=70 v=64
179760 Off ch=1 n=78 v=64
179760 On ch=1 n=70 v=94
179760 On ch=1 n=78 v=94
180000 Off ch=1 n=70 v=64
180000 Off ch=1 n=78 v=64
180000 On ch=1 n=70 v=94
180000 On ch=1 n=80 v=94
180240 Off ch=1 n=70 v=64
180240 Off ch=1 n=80 v=64
180240 On ch=1 n=78 v=94
180480 Off ch=1 n=78 v=64
180480 On ch=1 n=70 v=94
180480 On ch=1 n=75 v=94
180480 On ch=1 n=82 v=94
180840 Off ch=1 n=70 v=64
180840 Off ch=1 n=75 v=64
180840 Off ch=1 n=82 v=64
180840 On ch=1 n=70 v=95
180840 On ch=1 n=82 v=95
181080 Off ch=1 n=70 v=64
181080 Off ch=1 n=82 v=64
181440 On ch=1 n=73 v=95
181440 On ch=1 n=82 v=95
181680 Off ch=1 n=73 v=64
181680 Off ch=1 n=82 v=64
181680 On ch=1 n=73 v=95
181680 On ch=1 n=80 v=95
181920 Off ch=1 n=73 v=64
181920 Off ch=1 n=80 v=64
181920 On ch=1 n=73 v=95
181920 On ch=1 n=78 v=95
182160 Off ch=1 n=73 v=64
182160 Off ch=1 n=78 v=64
182160 On ch=1 n=73 v=95
182160 On ch=1 n=80 v=95
182400 Off ch=1 n=73 v=64
182400 Off ch=1 n=80 v=64
182400 On ch=1 n=70 v=95
182400 On ch=1 n=82 v=95
182880 Off ch=1 n=70 v=64
182880 Off ch=1 n=82 v=64
182880 On ch=1 n=75 v=95
183120 Off ch=1 n=75 v=64
183120 On ch=1 n=75 v=95
183360 Off ch=1 n=75 v=64
183360 On ch=1 n=73 v=95
183360 On ch=1 n=78 v=95
183600 Off ch=1 n=73 v=64
183600 Off ch=1 n=78 v=64
183600 On ch=1 n=73 v=95
183600 On ch=1 n=78 v=95
183840 Off ch=1 n=73 v=64
183840 Off ch=1 n=78 v=64
183840 On ch=1 n=73 v=95
183840 On ch=1 n=80 v=95
184080 Off ch=1 n=73 v=64
184080 Off ch=1 n=80 v=64
184080 On ch=1 n=73 v=95
184080 On ch=1 n=80 v=95
184320 Off ch=1 n=73 v=64
184320 Off ch=1 n=80 v=64
184320 On ch=1 n=70 v=95
184320 On ch=1 n=75 v=95
184800 Off ch=1 n=70 v=64
184800 Off ch=1 n=75 v=64
185280 On ch=1 n=73 v=94
185280 On ch=1 n=82 v=94
185520 Off ch=1 n=73 v=64
185520 Off ch=1 n=82 v=64
185520 On ch=1 n=73 v=94
185520 On ch=1 n=80 v=94
185760 Off ch=1 n=73 v=64
185760 Off ch=1 n=80 v=64
185760 On ch=1 n=73 v=94
185760 On ch=1 n=78 v=94
186000 Off ch=1 n=73 v=64
186000 Off ch=1 n=78 v=64
186000 On ch=1 n=73 v=94
186000 On ch=1 n=80 v=94
186240 Off ch=1 n=73 v=64
186240 Off ch=1 n=80 v=64
186240 On ch=1 n=75 v=94
186240 On ch=1 n=82 v=94
186720 Off ch=1 n=75 v=64
186720 Off ch=1 n=82 v=64
186720 On ch=1 n=75 v=94
186960 Off ch=1 n=75 v=64
186960 On ch=1 n=75 v=94
187200 Off ch=1 n=75 v=64
187200 On ch=1 n=73 v=94
187200 On ch=1 n=78 v=94
187440 Off ch=1 n=73 v=64
187440 Off ch=1 n=78 v=64
187440 On ch=1 n=73 v=94
187440 On ch=1 n=78 v=94
187680 Off ch=1 n=73 v=64
187680 Off ch=1 n=78 v=64
187680 On ch=1 n=73 v=94
187680 On ch=1 n=80 v=94
187920 Off ch=1 n=73 v=64
187920 Off ch=1 n=80 v=64
187920 On ch=1 n=73 v=94
187920 On ch=1 n=80 v=94
188160 Off ch=1 n=73 v=64
188160 Off ch=1 n=80 v=64
188160 On ch=1 n=75 v=94
188160 On ch=1 n=82 v=94
188520 Off ch=1 n=75 v=64
188520 Off ch=1 n=82 v=64
188520 On ch=1 n=75 v=94
188520 On ch=1 n=82 v=94
188640 Off ch=1 n=75 v=64
188640 Off ch=1 n=82 v=64
188880 On ch=1 n=75 v=95
189120 Off ch=1 n=75 v=64
189120 On ch=1 n=75 v=95
189120 On ch=1 n=82 v=95
189360 Off ch=1 n=75 v=64
189360 Off ch=1 n=82 v=64
189360 On ch=1 n=73 v=96
189360 On ch=1 n=80 v=96
189600 Off ch=1 n=73 v=64
189600 Off ch=1 n=80 v=64
189600 On ch=1 n=73 v=96
189600 On ch=1 n=78 v=96
189840 Off ch=1 n=73 v=64
189840 Off ch=1 n=78 v=64
189840 On ch=1 n=80 v=96
190080 Off ch=1 n=80 v=64
190080 On ch=1 n=75 v=96
190440 Off ch=1 n=75 v=64
190440 On ch=1 n=75 v=97
190800 Off ch=1 n=75 v=64
190800 On ch=1 n=75 v=97
191040 Off ch=1 n=75 v=64
191040 On ch=1 n=73 v=97
191040 On ch=1 n=82 v=97
191280 Off ch=1 n=73 v=64
191280 Off ch=1 n=82 v=64
191280 On ch=1 n=73 v=97
191280 On ch=1 n=80 v=97
191520 Off ch=1 n=73 v=64
191520 Off ch=1 n=80 v=64
191520 On ch=1 n=73 v=97
191520 On ch=1 n=78 v=97
191760 Off ch=1 n=73 v=64
191760 Off ch=1 n=78 v=64
191760 On ch=1 n=73 v=97
191760 On ch=1 n=80 v=97
192000 Off ch=1 n=73 v=64
192000 Off ch=1 n=80 v=64
192000 On ch=1 n=75 v=96
192360 Off ch=1 n=75 v=64
192360 On ch=1 n=75 v=96
192720 Off ch=1 n=75 v=64
192720 On ch=1 n=75 v=95
193080 Off ch=1 n=75 v=64
193080 On ch=1 n=75 v=95
193440 Off ch=1 n=75 v=64
193440 On ch=1 n=70 v=95
193920 Off ch=1 n=70 v=64
193920 On ch=1 n=63 v=110
193920 On ch=1 n=75 v=110
194160 Off ch=1 n=63 v=64
194160 Off ch=1 n=75 v=64
194160 On ch=1 n=63 v=92
194400 Off ch=1 n=63 v=64
194400 On ch=1 n=63 v=92
194640 Off ch=1 n=63 v=64
194640 On ch=1 n=63 v=95
194880 Off ch=1 n=63 v=64
194880 On ch=1 n=66 v=98
195120 Off ch=1 n=66 v=64
195120 On ch=1 n=66 v=101
195360 Off ch=1 n=66 v=64
195360 On ch=1 n=68 v=104
195600 Off ch=1 n=68 v=64
195600 On ch=1 n=66 v=102
195840 Off ch=1 n=66 v=64
195840 On ch=1 n=63 v=95
195840 On ch=1 n=70 v=95
196320 Off ch=1 n=63 v=64
196320 Off ch=1 n=70 v=64
196560 On ch=1 n=63 v=93
196560 On ch=1 n=70 v=93
196800 Off ch=1 n=63 v=64
196800 Off ch=1 n=70 v=64
196800 On ch=1 n=61 v=93
196800 On ch=1 n=70 v=93
197040 Off ch=1 n=61 v=64
197040 Off ch=1 n=70 v=64
197040 On ch=1 n=61 v=90
197040 On ch=1 n=68 v=90
197280 Off ch=1 n=61 v=64
197280 Off ch=1 n=68 v=64
197280 On ch=1 n=61 v=89
197280 On ch=1 n=66 v=89
197520 Off ch=1 n=61 v=64
197520 Off ch=1 n=66 v=64
197520 On ch=1 n=68 v=91
197760 Off ch=1 n=68 v=64
197760 On ch=1 n=63 v=111
197760 On ch=1 n=75 v=111
198000 Off ch=1 n=63 v=64
198000 Off ch=1 n=75 v=64
198000 On ch=1 n=63 v=91
198240 Off ch=1 n=63 v=64
198240 On ch=1 n=63 v=89
198480 Off ch=1 n=63 v=64
198480 On ch=1 n=63 v=91
198720 Off ch=1 n=63 v=64
198720 On ch=1 n=66 v=93
198960 Off ch=1 n=66 v=64
198960 On ch=1 n=66 v=95
199200 Off ch=1 n=66 v=64
199200 On ch=1 n=68 v=97
199440 Off ch=1 n=68 v=64
199440 On ch=1 n=66 v=98
199680 Off ch=1 n=66 v=64
199920 On ch=1 n=63 v=92
200160 Off ch=1 n=63 v=64
200160 On ch=1 n=63 v=91
200400 Off ch=1 n=63 v=64
200400 On ch=1 n=63 v=90
200640 Off ch=1 n=63 v=64
200640 On ch=1 n=63 v=90
200880 Off ch=1 n=63 v=64
201120 On ch=1 n=63 v=91
201360 Off ch=1 n=63 v=64
201600 On ch=1 n=63 v=114
201600 On ch=1 n=75 v=114
201840 Off ch=1 n=63 v=64
201840 Off ch=1 n=75 v=64
201840 On ch=1 n=63 v=91
202080 Off ch=1 n=63 v=64
202080 On ch=1 n=63 v=92
202320 Off ch=1 n=63 v=64
202320 On ch=1 n=63 v=94
202560 Off ch=1 n=63 v=64
202560 On ch=1 n=66 v=96
202800 Off ch=1 n=66 v=64
202800 On ch=1 n=66 v=99
203040 Off ch=1 n=66 v=64
203040 On ch=1 n=68 v=99
203280 Off ch=1 n=68 v=64
203280 On ch=1 n=66 v=100
203520 Off ch=1 n=66 v=64
203520 On ch=1 n=63 v=101
203520 On ch=1 n=70 v=101
204000 Off ch=1 n=63 v=64
204000 Off ch=1 n=70 v=64
204240 On ch=1 n=63 v=97
204480 Off ch=1 n=63 v=64
204480 On ch=1 n=61 v=95
204480 On ch=1 n=70 v=95
204720 Off ch=1 n=61 v=64
204720 Off ch=1 n=70 v=64
204720 On ch=1 n=61 v=92
204720 On ch=1 n=68 v=92
204960 Off ch=1 n=61 v=64
204960 Off ch=1 n=68 v=64
204960 On ch=1 n=61 v=91
204960 On ch=1 n=66 v=91
205200 Off ch=1 n=61 v=64
205200 Off ch=1 n=66 v=64
205200 On ch=1 n=68 v=94
205440 Off ch=1 n=68 v=64
205440 On ch=1 n=63 v=112
205800 Off ch=1 n=63 v=64
205800 On ch=1 n=63 v=95
205920 Off ch=1 n=63 v=64
206160 On ch=1 n=63 v=95
206400 Off ch=1 n=63 v=64
206400 On ch=1 n=70 v=95
206640 Off ch=1 n=70 v=64
206640 On ch=1 n=68 v=91
206880 Off ch=1 n=68 v=64
206880 On ch=1 n=66 v=89
207120 Off ch=1 n=66 v=64
207120 On ch=1 n=68 v=89
207360 Off ch=1 n=68 v=64
207360 On ch=1 n=63 v=91
207720 Off ch=1 n=63 v=64
207720 On ch=1 n=63 v=89
207840 Off ch=1 n=63 v=64
208320 On ch=1 n=70 v=85
208320 On ch=1 n=82 v=85
208800 Off ch=1 n=70 v=64
208800 Off ch=1 n=82 v=64
208800 On ch=1 n=70 v=79
208800 On ch=1 n=82 v=79
209280 Off ch=1 n=70 v=64
209280 Off ch=1 n=82 v=64
209280 Meta TrkEnd
TrkEnd
MTrk
0 Meta TrkName "[GM 001] Acoustic Grand Piano"
1920 On ch=1 n=51 v=64
2040 Off ch=1 n=51 v=64
2160 On ch=1 n=58 v=71
2280 Off ch=1 n=58 v=64
2400 On ch=1 n=63 v=78
2520 Off ch=1 n=63 v=64
2880 On ch=1 n=46 v=71
3000 Off ch=1 n=46 v=64
3120 On ch=1 n=53 v=75
3240 Off ch=1 n=53 v=64
3360 On ch=1 n=58 v=80
3480 Off ch=1 n=58 v=64
3840 On ch=1 n=47 v=72
3960 Off ch=1 n=47 v=64
4080 On ch=1 n=54 v=77
4200 Off ch=1 n=54 v=64
4320 On ch=1 n=59 v=82
4440 Off ch=1 n=59 v=64
4800 On ch=1 n=49 v=75
4920 Off ch=1 n=49 v=64
5040 On ch=1 n=56 v=80
5160 Off ch=1 n=56 v=64
5280 On ch=1 n=61 v=82
5400 Off ch=1 n=61 v=64
5760 On ch=1 n=51 v=72
5880 Off ch=1 n=51 v=64
6000 On ch=1 n=58 v=79
6120 Off ch=1 n=58 v=64
6240 On ch=1 n=63 v=82
6360 Off ch=1 n=63 v=64
6720 On ch=1 n=46 v=76
6840 Off ch=1 n=46 v=64
6960 On ch=1 n=53 v=81
7080 Off ch=1 n=53 v=64
7200 On ch=1 n=58 v=85
7320 Off ch=1 n=58 v=64
7680 On ch=1 n=47 v=78
7800 Off ch=1 n=47 v=64
7920 On ch=1 n=54 v=83
8040 Off ch=1 n=54 v=64
8160 On ch=1 n=59 v=86
8280 Off ch=1 n=59 v=64
8640 On ch=1 n=49 v=74
8640 On ch=1 n=56 v=74
8640 On ch=1 n=58 v=74
8642 Par ch=1 c=64 v=102
9000 Off ch=1 n=49 v=64
9000 Off ch=1 n=56 v=64
9000 Off ch=1 n=58 v=64
9000 On ch=1 n=37 v=84
9000 On ch=1 n=49 v=84
9600 Off ch=1 n=37 v=64
9600 Off ch=1 n=49 v=64
9600 On ch=1 n=39 v=84
9600 On ch=1 n=51 v=84
9600 Par ch=1 c=64 v=104
9840 Off ch=1 n=39 v=64
9840 Off ch=1 n=51 v=64
9840 On ch=1 n=51 v=84
9960 Off ch=1 n=51 v=64
9960 On ch=1 n=46 v=84
10080 Off ch=1 n=46 v=64
10080 On ch=1 n=51 v=84
10080 On ch=1 n=54 v=84
10320 Off ch=1 n=51 v=64
10320 Off ch=1 n=54 v=64
10320 On ch=1 n=46 v=85
10560 Off ch=1 n=46 v=64
10560 On ch=1 n=46 v=84
10800 Off ch=1 n=46 v=64
10800 On ch=1 n=46 v=82
11040 Off ch=1 n=46 v=64
11040 On ch=1 n=49 v=82
11040 On ch=1 n=53 v=82
11280 Off ch=1 n=49 v=64
11280 Off ch=1 n=53 v=64
11280 On ch=1 n=46 v=82
11497 Par ch=1 c=64 v=0
11520 Off ch=1 n=46 v=64
11520 On ch=1 n=47 v=82
11520 Par ch=1 c=64 v=104
11880 Off ch=1 n=47 v=64
11880 On ch=1 n=54 v=82
11880 On ch=1 n=58 v=82
12240 Off ch=1 n=54 v=64
12240 Off ch=1 n=58 v=64
12240 On ch=1 n=47 v=82
12480 Off ch=1 n=47 v=64
12480 On ch=1 n=37 v=81
12840 Off ch=1 n=37 v=64
12840 On ch=1 n=37 v=81
12840 On ch=1 n=44 v=81
12840 On ch=1 n=49 v=81
12960 Off ch=1 n=37 v=64
12960 On ch=1 n=37 v=82
13200 Off ch=1 n=44 v=64
13200 Off ch=1 n=49 v=64
13200 Off ch=1 n=37 v=64
13200 On ch=1 n=37 v=83
13417 Par ch=1 c=64 v=0
13440 Off ch=1 n=37 v=64
13440 On ch=1 n=39 v=83
13440 On ch=1 n=51 v=83
13440 Par ch=1 c=64 v=104
13680 Off ch=1 n=39 v=64
13680 Off ch=1 n=51 v=64
13680 On ch=1 n=51 v=84
13800 Off ch=1 n=51 v=64
13800 On ch=1 n=46 v=84
13920 Off ch=1 n=46 v=64
13920 On ch=1 n=51 v=83
13920 On ch=1 n=54 v=83
14400 Off ch=1 n=51 v=64
14400 Off ch=1 n=54 v=64
14400 On ch=1 n=46 v=82
14640 Off ch=1 n=46 v=64
14640 On ch=1 n=46 v=82
14880 Off ch=1 n=46 v=64
14880 On ch=1 n=56 v=81
15120 Off ch=1 n=56 v=64
15120 On ch=1 n=46 v=81
15337 Par ch=1 c=64 v=0
15360 Off ch=1 n=46 v=64
15360 On ch=1 n=47 v=81
15360 Par ch=1 c=64 v=104
15840 Off ch=1 n=47 v=64
15840 On ch=1 n=51 v=82
15840 On ch=1 n=58 v=82
16080 Off ch=1 n=51 v=64
16080 Off ch=1 n=58 v=64
16080 On ch=1 n=49 v=83
16320 Off ch=1 n=49 v=64
16320 On ch=1 n=37 v=83
16680 Off ch=1 n=37 v=64
16680 On ch=1 n=37 v=83
16680 On ch=1 n=44 v=83
16680 On ch=1 n=49 v=83
16800 Off ch=1 n=37 v=64
16800 On ch=1 n=37 v=82
17040 Off ch=1 n=44 v=64
17040 Off ch=1 n=49 v=64
17040 Off ch=1 n=37 v=64
17040 On ch=1 n=37 v=82
17257 Par ch=1 c=64 v=0
17280 Off ch=1 n=37 v=64
17280 On ch=1 n=39 v=82
17280 Par ch=1 c=64 v=104
17520 Off ch=1 n=39 v=64
17520 On ch=1 n=51 v=82
17640 Off ch=1 n=51 v=64
17640 On ch=1 n=46 v=82
17760 Off ch=1 n=46 v=64
17760 On ch=1 n=51 v=84
17760 On ch=1 n=54 v=84
18000 Off ch=1 n=51 v=64
18000 Off ch=1 n=54 v=64
18000 On ch=1 n=46 v=83
18240 Off ch=1 n=46 v=64
18240 On ch=1 n=46 v=83
18480 Off ch=1 n=46 v=64
18480 On ch=1 n=46 v=82
18720 Off ch=1 n=46 v=64
18720 On ch=1 n=58 v=82
18960 Off ch=1 n=58 v=64
18960 On ch=1 n=46 v=82
19177 Par ch=1 c=64 v=0
19200 Off ch=1 n=46 v=64
19200 On ch=1 n=47 v=82
19200 Par ch=1 c=64 v=104
19560 Off ch=1 n=47 v=64
19560 On ch=1 n=47 v=82
19680 Off ch=1 n=47 v=64
19680 On ch=1 n=47 v=83
19920 Off ch=1 n=47 v=64
19920 On ch=1 n=47 v=83
20160 Off ch=1 n=47 v=64
20160 On ch=1 n=49 v=83
20520 Off ch=1 n=49 v=64
20520 On ch=1 n=49 v=83
20640 Off ch=1 n=49 v=64
20640 On ch=1 n=49 v=83
20640 On ch=1 n=56 v=83
20880 Off ch=1 n=49 v=64
20880 Off ch=1 n=56 v=64
20880 On ch=1 n=44 v=82
20880 On ch=1 n=49 v=82
21120 Off ch=1 n=44 v=64
21120 Off ch=1 n=49 v=64
21120 On ch=1 n=39 v=83
21120 On ch=1 n=51 v=83
21480 Off ch=1 n=51 v=64
21480 On ch=1 n=51 v=83
21600 Off ch=1 n=39 v=64
21600 Off ch=1 n=51 v=64
21600 On ch=1 n=58 v=84
21840 Off ch=1 n=58 v=64
21840 On ch=1 n=46 v=84
22080 Off ch=1 n=46 v=64
22080 On ch=1 n=34 v=85
22080 On ch=1 n=46 v=85
22440 Off ch=1 n=46 v=64
22440 On ch=1 n=46 v=86
22560 Off ch=1 n=34 v=64
22560 Off ch=1 n=46 v=64
22560 On ch=1 n=56 v=87
22800 Off ch=1 n=56 v=64
22800 On ch=1 n=46 v=88
23040 Off ch=1 n=46 v=64
23040 On ch=1 n=35 v=89
23040 On ch=1 n=47 v=89
23400 Off ch=1 n=47 v=64
23400 On ch=1 n=47 v=90
23520 Off ch=1 n=35 v=64
23520 Off ch=1 n=47 v=64
23520 On ch=1 n=58 v=90
23760 Off ch=1 n=58 v=64
23760 On ch=1 n=51 v=90
24000 Off ch=1 n=51 v=64
24000 On ch=1 n=49 v=91
24240 Off ch=1 n=49 v=64
24240 On ch=1 n=56 v=92
24480 Off ch=1 n=56 v=64
24480 On ch=1 n=65 v=92
24960 Off ch=1 n=65 v=64
24960 On ch=1 n=51 v=92
25200 Off ch=1 n=51 v=64
25200 On ch=1 n=58 v=93
25440 Off ch=1 n=58 v=64
25440 On ch=1 n=66 v=92
25920 Off ch=1 n=66 v=64
25920 On ch=1 n=58 v=92
26160 Off ch=1 n=58 v=64
26160 On ch=1 n=66 v=92
26400 Off ch=1 n=66 v=64
26400 On ch=1 n=68 v=94
26880 Off ch=1 n=68 v=64
26880 On ch=1 n=59 v=94
26880 On ch=1 n=66 v=94
26880 On ch=1 n=70 v=94
27360 Off ch=1 n=59 v=64
27360 Off ch=1 n=66 v=64
27360 Off ch=1 n=70 v=64
27840 On ch=1 n=61 v=94
27840 On ch=1 n=68 v=94
27840 On ch=1 n=70 v=94
27840 On ch=1 n=75 v=94
28080 Off ch=1 n=61 v=64
28080 Off ch=1 n=68 v=64
28080 Off ch=1 n=70 v=64
28080 Off ch=1 n=75 v=64
28800 On ch=1 n=70 v=94
28800 On ch=1 n=63 v=94
29040 Off ch=1 n=70 v=64
29040 Off ch=1 n=63 v=64
29760 On ch=1 n=58 v=94
29760 On ch=1 n=65 v=94
29760 On ch=1 n=68 v=94
30000 Off ch=1 n=58 v=64
30000 Off ch=1 n=65 v=64
30000 Off ch=1 n=68 v=64
30720 On ch=1 n=59 v=94
30960 Off ch=1 n=59 v=64
30960 On ch=1 n=66 v=94
31200 Off ch=1 n=66 v=64
31200 On ch=1 n=68 v=94
31680 Off ch=1 n=68 v=64
31680 On ch=1 n=49 v=94
31920 Off ch=1 n=49 v=64
31920 On ch=1 n=56 v=94
32160 Off ch=1 n=56 v=64
32160 On ch=1 n=63 v=94
32400 Off ch=1 n=63 v=64
32400 On ch=1 n=65 v=94
32640 Off ch=1 n=65 v=64
32640 On ch=1 n=51 v=94
32880 Off ch=1 n=51 v=64
32880 On ch=1 n=58 v=94
33120 Off ch=1 n=58 v=64
33120 On ch=1 n=66 v=94
33600 Off ch=1 n=66 v=64
33600 On ch=1 n=58 v=94
33600 On ch=1 n=65 v=94
33600 On ch=1 n=68 v=94
34080 Off ch=1 n=58 v=64
34080 Off ch=1 n=65 v=64
34080 Off ch=1 n=68 v=64
34560 On ch=1 n=59 v=92
34560 On ch=1 n=66 v=92
34560 On ch=1 n=70 v=92
35040 Off ch=1 n=59 v=64
35040 Off ch=1 n=66 v=64
35040 Off ch=1 n=70 v=64
35520 On ch=1 n=49 v=92
35760 Off ch=1 n=49 v=64
35760 On ch=1 n=56 v=92
36000 Off ch=1 n=56 v=64
36000 On ch=1 n=63 v=92
36240 Off ch=1 n=63 v=64
36240 On ch=1 n=65 v=92
36480 Off ch=1 n=65 v=64
36480 On ch=1 n=51 v=93
36720 Off ch=1 n=51 v=64
36720 On ch=1 n=58 v=93
36960 Off ch=1 n=58 v=64
36960 On ch=1 n=63 v=93
37200 Off ch=1 n=63 v=64
37200 On ch=1 n=58 v=93
37200 On ch=1 n=65 v=93
37200 On ch=1 n=68 v=93
37440 Off ch=1 n=58 v=64
37440 Off ch=1 n=65 v=64
37440 Off ch=1 n=68 v=64
38400 On ch=1 n=59 v=93
38640 Off ch=1 n=59 v=64
38640 On ch=1 n=66 v=93
38880 Off ch=1 n=66 v=64
38880 On ch=1 n=59 v=93
38880 On ch=1 n=70 v=93
39120 Off ch=1 n=59 v=64
39120 Off ch=1 n=70 v=64
39360 On ch=1 n=61 v=92
39360 On ch=1 n=65 v=92
39360 On ch=1 n=68 v=92
39840 Off ch=1 n=61 v=64
39840 Off ch=1 n=65 v=64
39840 Off ch=1 n=68 v=64
40320 On ch=1 n=39 v=80
40320 On ch=1 n=51 v=80
40680 Off ch=1 n=39 v=64
40680 Off ch=1 n=51 v=64
40680 On ch=1 n=54 v=65
40680 On ch=1 n=58 v=65
41040 Off ch=1 n=54 v=64
41040 Off ch=1 n=58 v=64
41040 On ch=1 n=51 v=74
41280 Off ch=1 n=51 v=64
41280 On ch=1 n=34 v=82
41280 On ch=1 n=46 v=82
41640 Off ch=1 n=34 v=64
41640 Off ch=1 n=46 v=64
41640 On ch=1 n=53 v=70
41640 On ch=1 n=56 v=70
42000 Off ch=1 n=53 v=64
42000 Off ch=1 n=56 v=64
42000 On ch=1 n=46 v=70
42240 Off ch=1 n=46 v=64
42240 On ch=1 n=47 v=83
42600 Off ch=1 n=47 v=64
42600 On ch=1 n=54 v=75
42600 On ch=1 n=58 v=75
42960 Off ch=1 n=54 v=64
42960 Off ch=1 n=58 v=64
42960 On ch=1 n=47 v=80
43200 Off ch=1 n=47 v=64
43200 On ch=1 n=37 v=88
43200 On ch=1 n=49 v=88
43560 Off ch=1 n=37 v=64
43560 Off ch=1 n=49 v=64
43560 On ch=1 n=53 v=72
43560 On ch=1 n=56 v=72
43920 Off ch=1 n=53 v=64
43920 Off ch=1 n=56 v=64
43920 On ch=1 n=49 v=79
44160 Off ch=1 n=49 v=64
44160 On ch=1 n=39 v=85
44160 On ch=1 n=51 v=85
44520 Off ch=1 n=39 v=64
44520 Off ch=1 n=51 v=64
44520 On ch=1 n=54 v=71
44520 On ch=1 n=58 v=71
44880 Off ch=1 n=54 v=64
44880 Off ch=1 n=58 v=64
44880 On ch=1 n=51 v=76
45120 Off ch=1 n=51 v=64
45120 On ch=1 n=34 v=87
45120 On ch=1 n=46 v=87
45480 Off ch=1 n=34 v=64
45480 Off ch=1 n=46 v=64
45480 On ch=1 n=53 v=72
45480 On ch=1 n=56 v=72
45840 Off ch=1 n=53 v=64
45840 Off ch=1 n=56 v=64
45840 On ch=1 n=46 v=79
46080 Off ch=1 n=46 v=64
46080 On ch=1 n=47 v=85
46560 Off ch=1 n=47 v=64
46560 On ch=1 n=54 v=72
46560 On ch=1 n=58 v=72
47040 Off ch=1 n=54 v=64
47040 Off ch=1 n=58 v=64
47040 On ch=1 n=37 v=79
47040 On ch=1 n=49 v=79
47400 Off ch=1 n=37 v=64
47400 Off ch=1 n=49 v=64
47400 On ch=1 n=37 v=88
47520 Off ch=1 n=37 v=64
47520 On ch=1 n=49 v=85
47760 Off ch=1 n=49 v=64
47760 On ch=1 n=37 v=85
48000 Off ch=1 n=37 v=64
48000 On ch=1 n=39 v=84
48000 On ch=1 n=51 v=84
48480 Off ch=1 n=39 v=64
48480 Off ch=1 n=51 v=64
48480 On ch=1 n=54 v=73
48480 On ch=1 n=58 v=73
48720 Off ch=1 n=54 v=64
48720 Off ch=1 n=58 v=64
48720 On ch=1 n=51 v=75
48960 Off ch=1 n=51 v=64
48960 On ch=1 n=46 v=82
49440 Off ch=1 n=46 v=64
49440 On ch=1 n=53 v=77
49440 On ch=1 n=56 v=77
49680 Off ch=1 n=53 v=64
49680 Off ch=1 n=56 v=64
49680 On ch=1 n=46 v=81
49920 Off ch=1 n=46 v=64
49920 On ch=1 n=47 v=85
50280 Off ch=1 n=47 v=64
50280 On ch=1 n=54 v=79
50280 On ch=1 n=58 v=79
50640 Off ch=1 n=54 v=64
50640 Off ch=1 n=58 v=64
50640 On ch=1 n=47 v=82
50880 Off ch=1 n=47 v=64
50880 On ch=1 n=37 v=91
51240 Off ch=1 n=37 v=64
51240 On ch=1 n=44 v=77
51240 On ch=1 n=49 v=77
51600 Off ch=1 n=44 v=64
51600 Off ch=1 n=49 v=64
51600 On ch=1 n=37 v=82
51840 Off ch=1 n=37 v=64
51840 On ch=1 n=39 v=89
51840 On ch=1 n=51 v=89
52320 Off ch=1 n=39 v=64
52320 Off ch=1 n=51 v=64
52320 On ch=1 n=54 v=78
52320 On ch=1 n=58 v=78
52560 Off ch=1 n=54 v=64
52560 Off ch=1 n=58 v=64
52560 On ch=1 n=51 v=82
52800 Off ch=1 n=51 v=64
52800 On ch=1 n=46 v=89
53280 Off ch=1 n=46 v=64
53280 On ch=1 n=53 v=78
53280 On ch=1 n=56 v=78
53520 Off ch=1 n=53 v=64
53520 Off ch=1 n=56 v=64
53520 On ch=1 n=46 v=83
53760 Off ch=1 n=46 v=64
53760 On ch=1 n=47 v=89
54120 Off ch=1 n=47 v=64
54120 On ch=1 n=54 v=78
54120 On ch=1 n=58 v=78
54480 Off ch=1 n=54 v=64
54480 Off ch=1 n=58 v=64
54480 On ch=1 n=47 v=81
54720 Off ch=1 n=47 v=64
54720 On ch=1 n=37 v=86
54720 On ch=1 n=49 v=86
55080 Off ch=1 n=37 v=64
55080 Off ch=1 n=49 v=64
55080 On ch=1 n=49 v=81
55440 Off ch=1 n=49 v=64
55440 On ch=1 n=37 v=81
55680 Off ch=1 n=37 v=64
55680 On ch=1 n=39 v=90
55680 On ch=1 n=51 v=90
55920 Off ch=1 n=39 v=64
55920 Off ch=1 n=51 v=64
55920 On ch=1 n=46 v=77
56160 Off ch=1 n=46 v=64
56160 On ch=1 n=54 v=83
56400 Off ch=1 n=54 v=64
56400 On ch=1 n=61 v=87
57120 Off ch=1 n=61 v=64
57120 On ch=1 n=54 v=84
57600 Off ch=1 n=54 v=64
57600 On ch=1 n=37 v=83
57600 On ch=1 n=49 v=83
57840 Off ch=1 n=37 v=64
57840 Off ch=1 n=49 v=64
57840 On ch=1 n=44 v=72
58080 Off ch=1 n=44 v=64
58080 On ch=1 n=51 v=78
58320 Off ch=1 n=51 v=64
58320 On ch=1 n=53 v=82
59040 Off ch=1 n=53 v=64
59040 On ch=1 n=44 v=75
59520 Off ch=1 n=44 v=64
59520 On ch=1 n=35 v=83
59520 On ch=1 n=47 v=83
59760 Off ch=1 n=35 v=64
59760 Off ch=1 n=47 v=64
59760 On ch=1 n=54 v=71
60000 Off ch=1 n=54 v=64
60000 On ch=1 n=58 v=77
60720 Off ch=1 n=58 v=64
60720 On ch=1 n=54 v=79
60960 Off ch=1 n=54 v=64
60960 On ch=1 n=47 v=82
61200 Off ch=1 n=47 v=64
61440 On ch=1 n=34 v=84
61440 On ch=1 n=46 v=84
61680 Off ch=1 n=34 v=64
61680 Off ch=1 n=46 v=64
61680 On ch=1 n=53 v=71
61920 Off ch=1 n=53 v=64
61920 On ch=1 n=56 v=76
62640 Off ch=1 n=56 v=64
62640 On ch=1 n=53 v=84
62880 Off ch=1 n=53 v=64
62880 On ch=1 n=58 v=89
63120 Off ch=1 n=58 v=64
63360 On ch=1 n=39 v=77
63360 On ch=1 n=51 v=77
63600 Off ch=1 n=39 v=64
63600 Off ch=1 n=51 v=64
63600 On ch=1 n=46 v=79
63840 Off ch=1 n=46 v=64
63840 On ch=1 n=58 v=84
64080 Off ch=1 n=58 v=64
64080 On ch=1 n=63 v=88
64560 Off ch=1 n=63 v=64
64560 On ch=1 n=58 v=82
64800 Off ch=1 n=58 v=64
64800 On ch=1 n=66 v=74
65280 Off ch=1 n=66 v=64
65280 On ch=1 n=37 v=88
65280 On ch=1 n=49 v=88
65520 Off ch=1 n=37 v=64
65520 Off ch=1 n=49 v=64
65520 On ch=1 n=44 v=81
65760 Off ch=1 n=44 v=64
65760 On ch=1 n=54 v=81
66000 Off ch=1 n=54 v=64
66000 On ch=1 n=53 v=87
66480 Off ch=1 n=53 v=64
66480 On ch=1 n=49 v=89
66720 Off ch=1 n=49 v=64
66720 On ch=1 n=44 v=79
66960 Off ch=1 n=44 v=64
67200 On ch=1 n=35 v=103
67200 On ch=1 n=47 v=103
67920 Off ch=1 n=35 v=64
67920 Off ch=1 n=47 v=64
67920 On ch=1 n=51 v=72
68160 Off ch=1 n=51 v=64
68160 On ch=1 n=47 v=83
68160 On ch=1 n=51 v=83
68160 On ch=1 n=54 v=83
68400 Off ch=1 n=47 v=64
68400 Off ch=1 n=51 v=64
68400 Off ch=1 n=54 v=64
68400 On ch=1 n=47 v=92
68400 On ch=1 n=51 v=92
68400 On ch=1 n=54 v=92
68640 Off ch=1 n=47 v=64
68640 Off ch=1 n=51 v=64
68640 Off ch=1 n=54 v=64
68640 On ch=1 n=47 v=107
68640 On ch=1 n=51 v=107
68640 On ch=1 n=54 v=107
68880 Off ch=1 n=47 v=64
68880 Off ch=1 n=51 v=64
68880 Off ch=1 n=54 v=64
68880 On ch=1 n=47 v=112
68880 On ch=1 n=51 v=112
68880 On ch=1 n=54 v=112
69120 Off ch=1 n=47 v=64
69120 Off ch=1 n=51 v=64
69120 Off ch=1 n=54 v=64
69360 On ch=1 n=38 v=88
69360 On ch=1 n=50 v=88
69480 Off ch=1 n=38 v=64
69480 Off ch=1 n=50 v=64
69600 On ch=1 n=38 v=109
69600 On ch=1 n=50 v=109
70080 Off ch=1 n=38 v=64
70080 Off ch=1 n=50 v=64
70080 On ch=1 n=50 v=91
70440 Off ch=1 n=50 v=64
70440 On ch=1 n=38 v=91
70560 Off ch=1 n=38 v=64
70560 On ch=1 n=38 v=91
70680 Off ch=1 n=38 v=64
71040 On ch=1 n=39 v=91
71040 On ch=1 n=51 v=91
71400 Off ch=1 n=39 v=64
71400 Off ch=1 n=51 v=64
71400 On ch=1 n=54 v=91
71400 On ch=1 n=58 v=91
71760 Off ch=1 n=54 v=64
71760 Off ch=1 n=58 v=64
71760 On ch=1 n=51 v=91
72000 Off ch=1 n=51 v=64
72000 On ch=1 n=34 v=91
72000 On ch=1 n=46 v=91
72360 Off ch=1 n=34 v=64
72360 Off ch=1 n=46 v=64
72360 On ch=1 n=53 v=91
72360 On ch=1 n=56 v=91
72720 Off ch=1 n=53 v=64
72720 Off ch=1 n=56 v=64
72720 On ch=1 n=46 v=91
72960 Off ch=1 n=46 v=64
72960 On ch=1 n=47 v=91
73320 Off ch=1 n=47 v=64
73320 On ch=1 n=54 v=91
73320 On ch=1 n=58 v=91
73680 Off ch=1 n=54 v=64
73680 Off ch=1 n=58 v=64
73680 On ch=1 n=47 v=91
73920 Off ch=1 n=47 v=64
73920 On ch=1 n=37 v=91
73920 On ch=1 n=49 v=91
74280 Off ch=1 n=37 v=64
74280 Off ch=1 n=49 v=64
74280 On ch=1 n=53 v=91
74280 On ch=1 n=56 v=91
74640 Off ch=1 n=53 v=64
74640 Off ch=1 n=56 v=64
74640 On ch=1 n=49 v=91
74880 Off ch=1 n=49 v=64
74880 On ch=1 n=39 v=91
74880 On ch=1 n=51 v=91
75240 Off ch=1 n=39 v=64
75240 Off ch=1 n=51 v=64
75240 On ch=1 n=54 v=91
75240 On ch=1 n=58 v=91
75600 Off ch=1 n=54 v=64
75600 Off ch=1 n=58 v=64
75600 On ch=1 n=51 v=91
75840 Off ch=1 n=51 v=64
75840 On ch=1 n=34 v=91
75840 On ch=1 n=46 v=91
76200 Off ch=1 n=34 v=64
76200 Off ch=1 n=46 v=64
76200 On ch=1 n=53 v=91
76200 On ch=1 n=56 v=91
76560 Off ch=1 n=53 v=64
76560 Off ch=1 n=56 v=64
76560 On ch=1 n=46 v=91
76800 Off ch=1 n=46 v=64
76800 On ch=1 n=47 v=91
77160 Off ch=1 n=47 v=64
77160 On ch=1 n=54 v=91
77160 On ch=1 n=58 v=91
77520 Off ch=1 n=54 v=64
77520 Off ch=1 n=58 v=64
77520 On ch=1 n=47 v=91
77760 Off ch=1 n=47 v=64
77760 On ch=1 n=37 v=91
77760 On ch=1 n=49 v=91
78120 Off ch=1 n=37 v=64
78120 Off ch=1 n=49 v=64
78120 On ch=1 n=37 v=91
78240 Off ch=1 n=37 v=64
78240 On ch=1 n=49 v=91
78480 Off ch=1 n=49 v=64
78480 On ch=1 n=37 v=91
78720 Off ch=1 n=37 v=64
78720 On ch=1 n=39 v=91
78720 On ch=1 n=51 v=91
79200 Off ch=1 n=39 v=64
79200 Off ch=1 n=51 v=64
79200 On ch=1 n=54 v=91
79200 On ch=1 n=58 v=91
79440 Off ch=1 n=54 v=64
79440 Off ch=1 n=58 v=64
79440 On ch=1 n=51 v=91
79680 Off ch=1 n=51 v=64
79680 On ch=1 n=46 v=91
80160 Off ch=1 n=46 v=64
80160 On ch=1 n=53 v=91
80160 On ch=1 n=56 v=91
80400 Off ch=1 n=53 v=64
80400 Off ch=1 n=56 v=64
80400 On ch=1 n=46 v=91
80640 Off ch=1 n=46 v=64
80640 On ch=1 n=47 v=91
81120 Off ch=1 n=47 v=64
81120 On ch=1 n=54 v=91
81120 On ch=1 n=58 v=91
81360 Off ch=1 n=54 v=64
81360 Off ch=1 n=58 v=64
81360 On ch=1 n=47 v=91
81600 Off ch=1 n=47 v=64
81600 On ch=1 n=37 v=91
81960 Off ch=1 n=37 v=64
81960 On ch=1 n=44 v=91
81960 On ch=1 n=49 v=91
82320 Off ch=1 n=44 v=64
82320 Off ch=1 n=49 v=64
82320 On ch=1 n=37 v=91
82560 Off ch=1 n=37 v=64
82560 On ch=1 n=39 v=91
83040 Off ch=1 n=39 v=64
83040 On ch=1 n=42 v=91
83040 On ch=1 n=46 v=91
83280 Off ch=1 n=42 v=64
83280 Off ch=1 n=46 v=64
83280 On ch=1 n=39 v=91
83520 Off ch=1 n=39 v=64
83520 On ch=1 n=46 v=91
83880 Off ch=1 n=46 v=64
83880 On ch=1 n=53 v=91
83880 On ch=1 n=56 v=91
84240 Off ch=1 n=53 v=64
84240 Off ch=1 n=56 v=64
84240 On ch=1 n=46 v=91
84480 Off ch=1 n=46 v=64
84480 On ch=1 n=47 v=91
84840 Off ch=1 n=47 v=64
84840 On ch=1 n=54 v=91
84840 On ch=1 n=58 v=91
85200 Off ch=1 n=54 v=64
85200 Off ch=1 n=58 v=64
85200 On ch=1 n=47 v=91
85440 Off ch=1 n=47 v=64
85440 On ch=1 n=37 v=91
85440 On ch=1 n=49 v=91
85800 Off ch=1 n=37 v=64
85800 Off ch=1 n=49 v=64
85800 On ch=1 n=49 v=91
86160 Off ch=1 n=49 v=64
86160 On ch=1 n=37 v=91
86400 Off ch=1 n=37 v=64
86400 On ch=1 n=39 v=91
86400 On ch=1 n=51 v=91
86760 Off ch=1 n=39 v=64
86760 Off ch=1 n=51 v=64
86760 On ch=1 n=54 v=91
86760 On ch=1 n=58 v=91
87120 Off ch=1 n=54 v=64
87120 Off ch=1 n=58 v=64
87120 On ch=1 n=51 v=91
87360 Off ch=1 n=51 v=64
87360 On ch=1 n=34 v=91
87360 On ch=1 n=46 v=91
87720 Off ch=1 n=34 v=64
87720 Off ch=1 n=46 v=64
87720 On ch=1 n=53 v=91
87720 On ch=1 n=56 v=91
88080 Off ch=1 n=53 v=64
88080 Off ch=1 n=56 v=64
88080 On ch=1 n=46 v=90
88320 Off ch=1 n=46 v=64
88320 On ch=1 n=47 v=90
88680 Off ch=1 n=47 v=64
88680 On ch=1 n=54 v=90
88680 On ch=1 n=58 v=90
89040 Off ch=1 n=54 v=64
89040 Off ch=1 n=58 v=64
89040 On ch=1 n=47 v=90
89280 Off ch=1 n=47 v=64
89280 On ch=1 n=37 v=90
89280 On ch=1 n=49 v=90
89640 Off ch=1 n=37 v=64
89640 Off ch=1 n=49 v=64
89640 On ch=1 n=53 v=90
89640 On ch=1 n=56 v=90
90000 Off ch=1 n=53 v=64
90000 Off ch=1 n=56 v=64
90000 On ch=1 n=49 v=90
90240 Off ch=1 n=49 v=64
90240 On ch=1 n=39 v=90
90240 On ch=1 n=51 v=90
90600 Off ch=1 n=39 v=64
90600 Off ch=1 n=51 v=64
90600 On ch=1 n=54 v=90
90600 On ch=1 n=58 v=90
90960 Off ch=1 n=54 v=64
90960 Off ch=1 n=58 v=64
90960 On ch=1 n=51 v=90
91200 Off ch=1 n=51 v=64
91200 On ch=1 n=34 v=90
91200 On ch=1 n=46 v=90
91560 Off ch=1 n=34 v=64
91560 Off ch=1 n=46 v=64
91560 On ch=1 n=53 v=90
91560 On ch=1 n=56 v=90
91920 Off ch=1 n=53 v=64
91920 Off ch=1 n=56 v=64
91920 On ch=1 n=46 v=90
92160 Off ch=1 n=46 v=64
92160 On ch=1 n=47 v=90
92520 Off ch=1 n=47 v=64
92520 On ch=1 n=54 v=90
92520 On ch=1 n=58 v=90
92880 Off ch=1 n=54 v=64
92880 Off ch=1 n=58 v=64
92880 On ch=1 n=47 v=90
93120 Off ch=1 n=47 v=64
93120 On ch=1 n=37 v=90
93120 On ch=1 n=49 v=103
93129 Par ch=1 c=64 v=3
93360 Off ch=1 n=37 v=64
93360 Off ch=1 n=49 v=64
93600 On ch=1 n=37 v=104
93600 On ch=1 n=49 v=104
93840 Off ch=1 n=37 v=64
93840 Off ch=1 n=49 v=64
94080 On ch=1 n=39 v=90
94080 On ch=1 n=51 v=90
94101 Par ch=1 c=64 v=107
94440 Off ch=1 n=39 v=64
94440 Off ch=1 n=51 v=64
94440 On ch=1 n=54 v=90
94440 On ch=1 n=58 v=90
94800 Off ch=1 n=54 v=64
94800 Off ch=1 n=58 v=64
94800 On ch=1 n=51 v=90
95040 Off ch=1 n=51 v=64
95040 On ch=1 n=34 v=90
95040 On ch=1 n=46 v=90
95400 Off ch=1 n=34 v=64
95400 Off ch=1 n=46 v=64
95400 On ch=1 n=53 v=90
95400 On ch=1 n=56 v=90
95760 Off ch=1 n=53 v=64
95760 Off ch=1 n=56 v=64
95760 On ch=1 n=46 v=90
96000 Off ch=1 n=46 v=64
96000 On ch=1 n=47 v=89
96360 Off ch=1 n=47 v=64
96360 On ch=1 n=54 v=89
96360 On ch=1 n=58 v=89
96720 Off ch=1 n=54 v=64
96720 Off ch=1 n=58 v=64
96720 On ch=1 n=47 v=89
96960 Off ch=1 n=47 v=64
96960 On ch=1 n=37 v=89
96960 On ch=1 n=49 v=89
97320 Off ch=1 n=37 v=64
97320 Off ch=1 n=49 v=64
97320 On ch=1 n=53 v=89
97320 On ch=1 n=56 v=89
97680 Off ch=1 n=53 v=64
97680 Off ch=1 n=56 v=64
97680 On ch=1 n=49 v=89
97920 Off ch=1 n=49 v=64
97920 On ch=1 n=39 v=89
97920 On ch=1 n=51 v=89
98280 Off ch=1 n=39 v=64
98280 Off ch=1 n=51 v=64
98280 On ch=1 n=54 v=89
98280 On ch=1 n=58 v=89
98640 Off ch=1 n=54 v=64
98640 Off ch=1 n=58 v=64
98640 On ch=1 n=51 v=89
98880 Off ch=1 n=51 v=64
98880 On ch=1 n=34 v=89
98880 On ch=1 n=46 v=89
99240 Off ch=1 n=34 v=64
99240 Off ch=1 n=46 v=64
99240 On ch=1 n=53 v=89
99240 On ch=1 n=56 v=89
99600 Off ch=1 n=53 v=64
99600 Off ch=1 n=56 v=64
99600 On ch=1 n=46 v=89
99840 Off ch=1 n=46 v=64
99840 On ch=1 n=47 v=89
100200 Off ch=1 n=47 v=64
100200 On ch=1 n=54 v=89
100200 On ch=1 n=58 v=89
100560 Off ch=1 n=54 v=64
100560 Off ch=1 n=58 v=64
100560 On ch=1 n=47 v=89
100800 Off ch=1 n=47 v=64
100800 On ch=1 n=49 v=89
101040 Off ch=1 n=49 v=64
101040 On ch=1 n=56 v=89
101280 Off ch=1 n=56 v=64
101280 On ch=1 n=65 v=89
101760 Off ch=1 n=65 v=64
101760 On ch=1 n=51 v=81
101760 On ch=1 n=63 v=81
102240 Off ch=1 n=51 v=64
102240 Off ch=1 n=63 v=64
102480 On ch=1 n=70 v=79
105600 Off ch=1 n=70 v=64
105600 On ch=1 n=27 v=78
105600 On ch=1 n=39 v=78
106320 Off ch=1 n=27 v=64
106320 Off ch=1 n=39 v=64
106320 On ch=1 n=39 v=77
106320 On ch=1 n=51 v=77
107040 Off ch=1 n=39 v=64
107040 Off ch=1 n=51 v=64
107040 On ch=1 n=65 v=74
107520 Off ch=1 n=65 v=64
107520 On ch=1 n=66 v=70
108960 Off ch=1 n=66 v=64
109440 On ch=1 n=39 v=68
109440 On ch=1 n=51 v=68
109680 Off ch=1 n=39 v=64
109680 Off ch=1 n=51 v=64
109680 On ch=1 n=46 v=68
109920 Off ch=1 n=46 v=64
109920 On ch=1 n=51 v=68
110160 Off ch=1 n=51 v=64
110160 On ch=1 n=58 v=67
110400 Off ch=1 n=58 v=64
110400 On ch=1 n=63 v=67
110640 Off ch=1 n=63 v=64
110640 On ch=1 n=51 v=69
112320 Off ch=1 n=51 v=64
113280 On ch=1 n=39 v=80
113280 On ch=1 n=51 v=80
114000 Off ch=1 n=39 v=64
114000 Off ch=1 n=51 v=64
114000 On ch=1 n=58 v=82
114000 On ch=1 n=63 v=82
114480 Off ch=1 n=58 v=64
114480 Off ch=1 n=63 v=64
114480 On ch=1 n=51 v=83
114720 Off ch=1 n=51 v=64
114720 On ch=1 n=58 v=84
114720 On ch=1 n=61 v=84
115200 Off ch=1 n=58 v=64
115200 Off ch=1 n=61 v=64
115200 On ch=1 n=51 v=84
115440 Off ch=1 n=51 v=64
115440 On ch=1 n=58 v=87
115680 Off ch=1 n=58 v=64
115680 On ch=1 n=66 v=83
115920 Off ch=1 n=66 v=64
116400 On ch=1 n=39 v=81
116400 On ch=1 n=51 v=81
116640 Off ch=1 n=39 v=64
116640 Off ch=1 n=51 v=64
116640 On ch=1 n=39 v=81
116640 On ch=1 n=51 v=81
116880 Off ch=1 n=39 v=64
116880 Off ch=1 n=51 v=64
117120 On ch=1 n=39 v=89
117120 On ch=1 n=51 v=89
117480 Off ch=1 n=39 v=64
117480 Off ch=1 n=51 v=64
117480 On ch=1 n=54 v=88
117480 On ch=1 n=58 v=88
117840 Off ch=1 n=54 v=64
117840 Off ch=1 n=58 v=64
117840 On ch=1 n=51 v=88
118080 Off ch=1 n=51 v=64
118080 On ch=1 n=34 v=86
118080 On ch=1 n=46 v=86
118440 Off ch=1 n=34 v=64
118440 Off ch=1 n=46 v=64
118440 On ch=1 n=53 v=81
118440 On ch=1 n=56 v=81
118800 Off ch=1 n=53 v=64
118800 Off ch=1 n=56 v=64
118800 On ch=1 n=46 v=76
119040 Off ch=1 n=46 v=64
119040 On ch=1 n=47 v=75
119400 Off ch=1 n=47 v=64
119400 On ch=1 n=54 v=74
119400 On ch=1 n=58 v=74
119760 Off ch=1 n=54 v=64
119760 Off ch=1 n=58 v=64
119760 On ch=1 n=47 v=76
120000 Off ch=1 n=47 v=64
120000 On ch=1 n=37 v=82
120000 On ch=1 n=49 v=82
120360 Off ch=1 n=37 v=64
120360 Off ch=1 n=49 v=64
120360 On ch=1 n=53 v=87
120360 On ch=1 n=56 v=87
120720 Off ch=1 n=53 v=64
120720 Off ch=1 n=56 v=64
120720 On ch=1 n=49 v=88
120960 Off ch=1 n=49 v=64
120960 On ch=1 n=39 v=88
120960 On ch=1 n=51 v=88
121320 Off ch=1 n=39 v=64
121320 Off ch=1 n=51 v=64
121320 On ch=1 n=54 v=88
121320 On ch=1 n=58 v=88
121680 Off ch=1 n=54 v=64
121680 Off ch=1 n=58 v=64
121680 On ch=1 n=51 v=87
121920 Off ch=1 n=51 v=64
121920 On ch=1 n=34 v=83
121920 On ch=1 n=46 v=83
122280 Off ch=1 n=34 v=64
122280 Off ch=1 n=46 v=64
122280 On ch=1 n=53 v=76
122280 On ch=1 n=56 v=76
122640 Off ch=1 n=53 v=64
122640 Off ch=1 n=56 v=64
122640 On ch=1 n=46 v=74
122880 Off ch=1 n=46 v=64
122880 On ch=1 n=47 v=74
123360 Off ch=1 n=47 v=64
123360 On ch=1 n=54 v=76
123360 On ch=1 n=58 v=76
123840 Off ch=1 n=54 v=64
123840 Off ch=1 n=58 v=64
123840 On ch=1 n=37 v=81
123840 On ch=1 n=49 v=81
124200 Off ch=1 n=37 v=64
124200 Off ch=1 n=49 v=64
124200 On ch=1 n=37 v=83
124320 Off ch=1 n=37 v=64
124320 On ch=1 n=49 v=86
124560 Off ch=1 n=49 v=64
124560 On ch=1 n=37 v=88
124800 Off ch=1 n=37 v=64
124800 On ch=1 n=39 v=88
124800 On ch=1 n=51 v=88
125280 Off ch=1 n=39 v=64
125280 Off ch=1 n=51 v=64
125280 On ch=1 n=54 v=88
125280 On ch=1 n=58 v=88
125520 Off ch=1 n=54 v=64
125520 Off ch=1 n=58 v=64
125520 On ch=1 n=51 v=88
125760 Off ch=1 n=51 v=64
125760 On ch=1 n=46 v=85
126240 Off ch=1 n=46 v=64
126240 On ch=1 n=53 v=82
126240 On ch=1 n=56 v=82
126480 Off ch=1 n=53 v=64
126480 Off ch=1 n=56 v=64
126480 On ch=1 n=46 v=79
126720 Off ch=1 n=46 v=64
126720 On ch=1 n=47 v=76
127080 Off ch=1 n=47 v=64
127080 On ch=1 n=54 v=75
127080 On ch=1 n=58 v=75
127440 Off ch=1 n=54 v=64
127440 Off ch=1 n=58 v=64
127440 On ch=1 n=47 v=76
127680 Off ch=1 n=47 v=64
127680 On ch=1 n=37 v=78
128040 Off ch=1 n=37 v=64
128040 On ch=1 n=44 v=81
128040 On ch=1 n=49 v=81
128400 Off ch=1 n=44 v=64
128400 Off ch=1 n=49 v=64
128400 On ch=1 n=37 v=82
128640 Off ch=1 n=37 v=64
128640 On ch=1 n=39 v=87
128640 On ch=1 n=51 v=87
129120 Off ch=1 n=39 v=64
129120 Off ch=1 n=51 v=64
129120 On ch=1 n=54 v=88
129120 On ch=1 n=58 v=88
129360 Off ch=1 n=54 v=64
129360 Off ch=1 n=58 v=64
129360 On ch=1 n=51 v=89
129600 Off ch=1 n=51 v=64
129600 On ch=1 n=46 v=89
130080 Off ch=1 n=46 v=64
130080 On ch=1 n=53 v=87
130080 On ch=1 n=56 v=87
130320 Off ch=1 n=53 v=64
130320 Off ch=1 n=56 v=64
130320 On ch=1 n=46 v=85
130560 Off ch=1 n=46 v=64
130560 On ch=1 n=47 v=84
130920 Off ch=1 n=47 v=64
130920 On ch=1 n=54 v=79
130920 On ch=1 n=58 v=79
131280 Off ch=1 n=54 v=64
131280 Off ch=1 n=58 v=64
131280 On ch=1 n=47 v=77
131520 Off ch=1 n=47 v=64
131520 On ch=1 n=37 v=76
131520 On ch=1 n=49 v=76
131880 Off ch=1 n=37 v=64
131880 Off ch=1 n=49 v=64
131880 On ch=1 n=49 v=77
132240 Off ch=1 n=49 v=64
132240 On ch=1 n=37 v=78
132480 Off ch=1 n=37 v=64
132480 On ch=1 n=39 v=81
132480 On ch=1 n=51 v=81
132720 Off ch=1 n=39 v=64
132720 Off ch=1 n=51 v=64
132720 On ch=1 n=46 v=83
132960 Off ch=1 n=46 v=64
132960 On ch=1 n=54 v=85
133200 Off ch=1 n=54 v=64
133200 On ch=1 n=61 v=88
133920 Off ch=1 n=61 v=64
133920 On ch=1 n=54 v=87
134400 Off ch=1 n=54 v=64
134400 On ch=1 n=37 v=84
134400 On ch=1 n=49 v=84
134640 Off ch=1 n=37 v=64
134640 Off ch=1 n=49 v=64
134640 On ch=1 n=44 v=82
134880 Off ch=1 n=44 v=64
134880 On ch=1 n=51 v=79
135120 Off ch=1 n=51 v=64
135120 On ch=1 n=53 v=76
135840 Off ch=1 n=53 v=64
135840 On ch=1 n=44 v=90
136320 Off ch=1 n=44 v=64
136320 On ch=1 n=35 v=90
136320 On ch=1 n=47 v=90
136560 Off ch=1 n=35 v=64
136560 Off ch=1 n=47 v=64
136560 On ch=1 n=54 v=90
136800 Off ch=1 n=54 v=64
136800 On ch=1 n=58 v=90
137520 Off ch=1 n=58 v=64
137520 On ch=1 n=54 v=90
137760 Off ch=1 n=54 v=64
137760 On ch=1 n=47 v=90
138000 Off ch=1 n=47 v=64
138240 On ch=1 n=34 v=90
138240 On ch=1 n=46 v=90
138480 Off ch=1 n=34 v=64
138480 Off ch=1 n=46 v=64
138480 On ch=1 n=53 v=90
138720 Off ch=1 n=53 v=64
138720 On ch=1 n=56 v=90
139440 Off ch=1 n=56 v=64
139440 On ch=1 n=53 v=90
139680 Off ch=1 n=53 v=64
139680 On ch=1 n=58 v=90
139920 Off ch=1 n=58 v=64
140160 On ch=1 n=39 v=90
140160 On ch=1 n=51 v=90
140400 Off ch=1 n=39 v=64
140400 Off ch=1 n=51 v=64
140400 On ch=1 n=46 v=90
140640 Off ch=1 n=46 v=64
140640 On ch=1 n=58 v=90
140880 Off ch=1 n=58 v=64
140880 On ch=1 n=63 v=90
141360 Off ch=1 n=63 v=64
141360 On ch=1 n=58 v=90
141600 Off ch=1 n=58 v=64
141600 On ch=1 n=66 v=90
142080 Off ch=1 n=66 v=64
142080 On ch=1 n=37 v=90
142080 On ch=1 n=49 v=90
142320 Off ch=1 n=37 v=64
142320 Off ch=1 n=49 v=64
142320 On ch=1 n=44 v=90
142560 Off ch=1 n=44 v=64
142560 On ch=1 n=54 v=90
142800 Off ch=1 n=54 v=64
142800 On ch=1 n=53 v=90
143280 Off ch=1 n=53 v=64
143280 On ch=1 n=49 v=90
143520 Off ch=1 n=49 v=64
143520 On ch=1 n=44 v=90
143760 Off ch=1 n=44 v=64
144000 On ch=1 n=35 v=102
144000 On ch=1 n=47 v=102
144720 Off ch=1 n=35 v=64
144720 Off ch=1 n=47 v=64
144720 On ch=1 n=51 v=63
144960 Off ch=1 n=51 v=64
144960 On ch=1 n=47 v=72
144960 On ch=1 n=51 v=72
144960 On ch=1 n=54 v=72
145200 Off ch=1 n=47 v=64
145200 Off ch=1 n=51 v=64
145200 Off ch=1 n=54 v=64
145200 On ch=1 n=47 v=87
145200 On ch=1 n=51 v=87
145200 On ch=1 n=54 v=87
145440 Off ch=1 n=47 v=64
145440 Off ch=1 n=51 v=64
145440 Off ch=1 n=54 v=64
145440 On ch=1 n=47 v=101
145440 On ch=1 n=51 v=101
145440 On ch=1 n=54 v=101
145680 Off ch=1 n=47 v=64
145680 Off ch=1 n=51 v=64
145680 Off ch=1 n=54 v=64
145680 On ch=1 n=47 v=110
145680 On ch=1 n=51 v=110
145680 On ch=1 n=54 v=110
145920 Off ch=1 n=47 v=64
145920 Off ch=1 n=51 v=64
145920 Off ch=1 n=54 v=64
146160 On ch=1 n=38 v=85
146160 On ch=1 n=50 v=85
146280 Off ch=1 n=38 v=64
146280 Off ch=1 n=50 v=64
146400 On ch=1 n=38 v=108
146400 On ch=1 n=50 v=108
146880 Off ch=1 n=38 v=64
146880 Off ch=1 n=50 v=64
146880 On ch=1 n=50 v=90
147240 Off ch=1 n=50 v=64
147240 On ch=1 n=38 v=90
147360 Off ch=1 n=38 v=64
147360 On ch=1 n=38 v=90
147480 Off ch=1 n=38 v=64
147840 On ch=1 n=39 v=105
147840 On ch=1 n=51 v=105
148200 Off ch=1 n=39 v=64
148200 Off ch=1 n=51 v=64
148200 On ch=1 n=54 v=104
148200 On ch=1 n=58 v=104
148560 Off ch=1 n=54 v=64
148560 Off ch=1 n=58 v=64
148560 On ch=1 n=51 v=103
148800 Off ch=1 n=51 v=64
148800 On ch=1 n=34 v=101
148800 On ch=1 n=46 v=101
149160 Off ch=1 n=34 v=64
149160 Off ch=1 n=46 v=64
149160 On ch=1 n=53 v=90
149160 On ch=1 n=56 v=97
149520 Off ch=1 n=53 v=64
149520 Off ch=1 n=56 v=64
149520 On ch=1 n=46 v=97
149760 Off ch=1 n=46 v=64
149760 On ch=1 n=47 v=98
150120 Off ch=1 n=47 v=64
150120 On ch=1 n=54 v=99
150120 On ch=1 n=58 v=99
150480 Off ch=1 n=54 v=64
150480 Off ch=1 n=58 v=64
150480 On ch=1 n=47 v=100
150720 Off ch=1 n=47 v=64
150720 On ch=1 n=37 v=101
150720 On ch=1 n=49 v=101
151080 Off ch=1 n=37 v=64
151080 Off ch=1 n=49 v=64
151080 On ch=1 n=53 v=101
151080 On ch=1 n=56 v=101
151440 Off ch=1 n=53 v=64
151440 Off ch=1 n=56 v=64
151440 On ch=1 n=49 v=99
151680 Off ch=1 n=49 v=64
151680 On ch=1 n=39 v=96
151680 On ch=1 n=51 v=96
152040 Off ch=1 n=39 v=64
152040 Off ch=1 n=51 v=64
152040 On ch=1 n=54 v=94
152040 On ch=1 n=58 v=94
152400 Off ch=1 n=54 v=64
152400 Off ch=1 n=58 v=64
152400 On ch=1 n=51 v=93
152640 Off ch=1 n=51 v=64
152640 On ch=1 n=34 v=95
152640 On ch=1 n=46 v=95
153000 Off ch=1 n=34 v=64
153000 Off ch=1 n=46 v=64
153000 On ch=1 n=53 v=97
153000 On ch=1 n=56 v=97
153360 Off ch=1 n=53 v=64
153360 Off ch=1 n=56 v=64
153360 On ch=1 n=46 v=98
153600 Off ch=1 n=46 v=64
153600 On ch=1 n=47 v=98
153960 Off ch=1 n=47 v=64
153960 On ch=1 n=54 v=99
153960 On ch=1 n=58 v=99
154320 Off ch=1 n=54 v=64
154320 Off ch=1 n=58 v=64
154320 On ch=1 n=47 v=97
154560 Off ch=1 n=47 v=64
154560 On ch=1 n=37 v=96
154560 On ch=1 n=49 v=96
154920 Off ch=1 n=37 v=64
154920 Off ch=1 n=49 v=64
154920 On ch=1 n=37 v=97
155040 Off ch=1 n=37 v=64
155040 On ch=1 n=49 v=98
155280 Off ch=1 n=49 v=64
155280 On ch=1 n=37 v=99
155520 Off ch=1 n=37 v=64
155520 On ch=1 n=39 v=99
155520 On ch=1 n=51 v=99
155880 Off ch=1 n=39 v=64
155880 Off ch=1 n=51 v=64
155880 On ch=1 n=54 v=98
155880 On ch=1 n=58 v=98
156240 Off ch=1 n=54 v=64
156240 Off ch=1 n=58 v=64
156240 On ch=1 n=51 v=95
156480 Off ch=1 n=51 v=64
156480 On ch=1 n=34 v=94
156480 On ch=1 n=46 v=94
156840 Off ch=1 n=34 v=64
156840 Off ch=1 n=46 v=64
156840 On ch=1 n=53 v=96
156840 On ch=1 n=56 v=96
157200 Off ch=1 n=53 v=64
157200 Off ch=1 n=56 v=64
157200 On ch=1 n=46 v=97
157440 Off ch=1 n=46 v=64
157440 On ch=1 n=47 v=97
157800 Off ch=1 n=47 v=64
157800 On ch=1 n=54 v=96
157800 On ch=1 n=58 v=96
158160 Off ch=1 n=54 v=64
158160 Off ch=1 n=58 v=64
158160 On ch=1 n=47 v=92
158400 Off ch=1 n=47 v=64
158400 On ch=1 n=37 v=92
158400 On ch=1 n=49 v=92
158760 Off ch=1 n=37 v=64
158760 Off ch=1 n=49 v=64
158760 On ch=1 n=53 v=94
158760 On ch=1 n=56 v=94
159120 Off ch=1 n=53 v=64
159120 Off ch=1 n=56 v=64
159120 On ch=1 n=49 v=96
159360 Off ch=1 n=49 v=64
159360 On ch=1 n=39 v=98
159360 On ch=1 n=51 v=98
159720 Off ch=1 n=39 v=64
159720 Off ch=1 n=51 v=64
159720 On ch=1 n=54 v=98
159720 On ch=1 n=58 v=98
160080 Off ch=1 n=54 v=64
160080 Off ch=1 n=58 v=64
160080 On ch=1 n=51 v=95
160320 Off ch=1 n=51 v=64
160320 On ch=1 n=34 v=93
160320 On ch=1 n=46 v=93
160680 Off ch=1 n=34 v=64
160680 Off ch=1 n=46 v=64
160680 On ch=1 n=53 v=94
160680 On ch=1 n=56 v=94
161040 Off ch=1 n=53 v=64
161040 Off ch=1 n=56 v=64
161040 On ch=1 n=46 v=96
161280 Off ch=1 n=46 v=64
161280 On ch=1 n=47 v=98
161640 Off ch=1 n=47 v=64
161640 On ch=1 n=54 v=101
161640 On ch=1 n=58 v=101
162000 Off ch=1 n=54 v=64
162000 Off ch=1 n=58 v=64
162000 On ch=1 n=47 v=100
162240 Off ch=1 n=47 v=64
162240 On ch=1 n=37 v=98
162240 On ch=1 n=49 v=98
162480 Off ch=1 n=37 v=64
162480 Off ch=1 n=49 v=64
162480 On ch=1 n=44 v=97
162720 Off ch=1 n=44 v=64
162720 On ch=1 n=49 v=96
163200 Off ch=1 n=49 v=64
163200 On ch=1 n=39 v=92
163440 Off ch=1 n=39 v=64
163440 On ch=1 n=46 v=65
163680 Off ch=1 n=46 v=64
163680 On ch=1 n=53 v=74
163920 Off ch=1 n=53 v=64
163920 On ch=1 n=54 v=94
164640 Off ch=1 n=54 v=64
164640 On ch=1 n=61 v=88
165120 Off ch=1 n=61 v=64
165120 On ch=1 n=47 v=85
165360 Off ch=1 n=47 v=64
165360 On ch=1 n=54 v=65
165600 Off ch=1 n=54 v=64
165600 On ch=1 n=58 v=72
166080 Off ch=1 n=58 v=64
166080 On ch=1 n=49 v=84
166320 Off ch=1 n=49 v=64
166320 On ch=1 n=56 v=68
166560 Off ch=1 n=56 v=64
166560 On ch=1 n=58 v=82
167040 Off ch=1 n=58 v=64
167040 On ch=1 n=39 v=77
167280 Off ch=1 n=39 v=64
167280 On ch=1 n=46 v=79
167520 Off ch=1 n=46 v=64
167520 On ch=1 n=51 v=77
167760 Off ch=1 n=51 v=64
167760 On ch=1 n=46 v=87
167760 On ch=1 n=53 v=87
167760 On ch=1 n=56 v=87
168480 Off ch=1 n=46 v=64
168480 Off ch=1 n=53 v=64
168480 Off ch=1 n=56 v=64
168480 On ch=1 n=58 v=91
168960 Off ch=1 n=58 v=64
168960 On ch=1 n=47 v=83
169200 Off ch=1 n=47 v=64
169200 On ch=1 n=54 v=67
169440 Off ch=1 n=54 v=64
169440 On ch=1 n=58 v=76
169680 Off ch=1 n=58 v=64
169680 On ch=1 n=49 v=83
169680 On ch=1 n=56 v=83
170400 Off ch=1 n=49 v=64
170400 Off ch=1 n=56 v=64
170400 On ch=1 n=61 v=85
170880 Off ch=1 n=61 v=64
170880 On ch=1 n=39 v=86
171120 Off ch=1 n=39 v=64
171120 On ch=1 n=46 v=65
171360 Off ch=1 n=46 v=64
171360 On ch=1 n=53 v=75
171600 Off ch=1 n=53 v=64
171600 On ch=1 n=54 v=82
171840 Off ch=1 n=54 v=64
171840 On ch=1 n=46 v=86
171840 On ch=1 n=54 v=86
171840 On ch=1 n=58 v=86
172320 Off ch=1 n=46 v=64
172320 Off ch=1 n=54 v=64
172320 Off ch=1 n=58 v=64
172320 On ch=1 n=63 v=84
172800 Off ch=1 n=63 v=64
172800 On ch=1 n=47 v=80
173040 Off ch=1 n=47 v=64
173040 On ch=1 n=54 v=67
173280 Off ch=1 n=54 v=64
173280 On ch=1 n=58 v=73
173760 Off ch=1 n=58 v=64
173760 On ch=1 n=49 v=83
174000 Off ch=1 n=49 v=64
174000 On ch=1 n=56 v=68
174240 Off ch=1 n=56 v=64
174240 On ch=1 n=58 v=76
174720 Off ch=1 n=58 v=64
174720 On ch=1 n=39 v=84
174960 Off ch=1 n=39 v=64
174960 On ch=1 n=46 v=67
175200 Off ch=1 n=46 v=64
175200 On ch=1 n=51 v=75
175440 Off ch=1 n=51 v=64
175440 On ch=1 n=46 v=80
175440 On ch=1 n=53 v=80
175440 On ch=1 n=56 v=80
176160 Off ch=1 n=46 v=64
176160 Off ch=1 n=53 v=64
176160 Off ch=1 n=56 v=64
176160 On ch=1 n=58 v=80
176640 Off ch=1 n=58 v=64
176640 On ch=1 n=47 v=82
176880 Off ch=1 n=47 v=64
176880 On ch=1 n=54 v=70
177120 Off ch=1 n=54 v=64
177120 On ch=1 n=58 v=76
177360 Off ch=1 n=58 v=64
177360 On ch=1 n=49 v=82
177360 On ch=1 n=56 v=82
178080 Off ch=1 n=49 v=64
178080 Off ch=1 n=56 v=64
178080 On ch=1 n=61 v=82
178560 Off ch=1 n=61 v=64
178560 On ch=1 n=39 v=79
178560 On ch=1 n=51 v=79
178920 Off ch=1 n=39 v=64
178920 Off ch=1 n=51 v=64
178920 On ch=1 n=54 v=67
178920 On ch=1 n=58 v=67
179280 Off ch=1 n=54 v=64
179280 Off ch=1 n=58 v=64
179280 On ch=1 n=51 v=74
179520 Off ch=1 n=51 v=64
179520 On ch=1 n=34 v=81
179520 On ch=1 n=46 v=81
179880 Off ch=1 n=34 v=64
179880 Off ch=1 n=46 v=64
179880 On ch=1 n=53 v=71
179880 On ch=1 n=56 v=71
180240 Off ch=1 n=53 v=64
180240 Off ch=1 n=56 v=64
180240 On ch=1 n=46 v=76
180480 Off ch=1 n=46 v=64
180480 On ch=1 n=47 v=84
180840 Off ch=1 n=47 v=64
180840 On ch=1 n=54 v=67
180840 On ch=1 n=58 v=67
181200 Off ch=1 n=54 v=64
181200 Off ch=1 n=58 v=64
181200 On ch=1 n=47 v=77
181440 Off ch=1 n=47 v=64
181440 On ch=1 n=37 v=85
181440 On ch=1 n=49 v=85
181800 Off ch=1 n=37 v=64
181800 Off ch=1 n=49 v=64
181800 On ch=1 n=53 v=65
181800 On ch=1 n=56 v=65
182160 Off ch=1 n=53 v=64
182160 Off ch=1 n=56 v=64
182160 On ch=1 n=49 v=76
182400 Off ch=1 n=49 v=64
182400 On ch=1 n=39 v=89
182400 On ch=1 n=51 v=89
182760 Off ch=1 n=39 v=64
182760 Off ch=1 n=51 v=64
182760 On ch=1 n=54 v=75
182760 On ch=1 n=58 v=75
183120 Off ch=1 n=54 v=64
183120 Off ch=1 n=58 v=64
183120 On ch=1 n=51 v=82
183360 Off ch=1 n=51 v=64
183360 On ch=1 n=34 v=92
183360 On ch=1 n=46 v=92
183720 Off ch=1 n=34 v=64
183720 Off ch=1 n=46 v=64
183720 On ch=1 n=53 v=70
183720 On ch=1 n=56 v=70
184080 Off ch=1 n=53 v=64
184080 Off ch=1 n=56 v=64
184080 On ch=1 n=46 v=80
184320 Off ch=1 n=46 v=64
184320 On ch=1 n=47 v=89
184680 Off ch=1 n=47 v=64
184680 On ch=1 n=54 v=72
184680 On ch=1 n=58 v=72
185040 Off ch=1 n=54 v=64
185040 Off ch=1 n=58 v=64
185040 On ch=1 n=47 v=77
185280 Off ch=1 n=47 v=64
185280 On ch=1 n=37 v=89
185280 On ch=1 n=49 v=89
185520 Off ch=1 n=37 v=64
185520 Off ch=1 n=49 v=64
185760 On ch=1 n=37 v=73
185760 On ch=1 n=49 v=73
186000 Off ch=1 n=37 v=64
186000 Off ch=1 n=49 v=64
186240 On ch=1 n=39 v=83
186240 On ch=1 n=51 v=83
186600 Off ch=1 n=39 v=64
186600 Off ch=1 n=51 v=64
186600 On ch=1 n=54 v=68
186600 On ch=1 n=58 v=68
186960 Off ch=1 n=54 v=64
186960 Off ch=1 n=58 v=64
186960 On ch=1 n=51 v=74
187200 Off ch=1 n=51 v=64
187200 On ch=1 n=34 v=82
187200 On ch=1 n=46 v=82
187560 Off ch=1 n=34 v=64
187560 Off ch=1 n=46 v=64
187560 On ch=1 n=53 v=70
187560 On ch=1 n=56 v=70
187920 Off ch=1 n=53 v=64
187920 Off ch=1 n=56 v=64
187920 On ch=1 n=46 v=77
188160 Off ch=1 n=46 v=64
188160 On ch=1 n=47 v=85
188520 Off ch=1 n=47 v=64
188520 On ch=1 n=54 v=68
188520 On ch=1 n=58 v=68
188880 Off ch=1 n=54 v=64
188880 Off ch=1 n=58 v=64
188880 On ch=1 n=47 v=76
189120 Off ch=1 n=47 v=64
189120 On ch=1 n=37 v=87
189120 On ch=1 n=49 v=87
189480 Off ch=1 n=37 v=64
189480 Off ch=1 n=49 v=64
189480 On ch=1 n=53 v=70
189480 On ch=1 n=56 v=70
189840 Off ch=1 n=53 v=64
189840 Off ch=1 n=56 v=64
189840 On ch=1 n=49 v=76
190080 Off ch=1 n=49 v=64
190080 On ch=1 n=39 v=87
190080 On ch=1 n=51 v=87
190440 Off ch=1 n=39 v=64
190440 Off ch=1 n=51 v=64
190440 On ch=1 n=54 v=69
190440 On ch=1 n=58 v=69
190800 Off ch=1 n=54 v=64
190800 Off ch=1 n=58 v=64
190800 On ch=1 n=51 v=77
191040 Off ch=1 n=51 v=64
191040 On ch=1 n=34 v=85
191040 On ch=1 n=46 v=85
191400 Off ch=1 n=34 v=64
191400 Off ch=1 n=46 v=64
191400 On ch=1 n=53 v=67
191400 On ch=1 n=56 v=67
191760 Off ch=1 n=53 v=64
191760 Off ch=1 n=56 v=64
191760 On ch=1 n=46 v=74
192000 Off ch=1 n=46 v=64
192000 On ch=1 n=47 v=82
192360 Off ch=1 n=47 v=64
192360 On ch=1 n=54 v=65
192360 On ch=1 n=58 v=65
192720 Off ch=1 n=54 v=64
192720 Off ch=1 n=58 v=64
192720 On ch=1 n=47 v=71
192960 Off ch=1 n=47 v=64
192960 On ch=1 n=37 v=81
192960 On ch=1 n=49 v=81
193320 Off ch=1 n=37 v=64
193320 Off ch=1 n=49 v=64
193320 On ch=1 n=49 v=71
193680 Off ch=1 n=49 v=64
193680 On ch=1 n=37 v=77
193920 Off ch=1 n=37 v=64
193920 On ch=1 n=39 v=83
193920 On ch=1 n=51 v=83
194280 Off ch=1 n=39 v=64
194280 Off ch=1 n=51 v=64
194280 On ch=1 n=54 v=67
194280 On ch=1 n=58 v=67
194640 Off ch=1 n=54 v=64
194640 Off ch=1 n=58 v=64
194640 On ch=1 n=51 v=83
194880 Off ch=1 n=51 v=64
194880 On ch=1 n=34 v=81
194880 On ch=1 n=46 v=81
195240 Off ch=1 n=34 v=64
195240 Off ch=1 n=46 v=64
195240 On ch=1 n=53 v=64
195240 On ch=1 n=56 v=64
195600 Off ch=1 n=53 v=64
195600 Off ch=1 n=56 v=64
195600 On ch=1 n=46 v=80
195840 Off ch=1 n=46 v=64
195840 On ch=1 n=47 v=91
196200 Off ch=1 n=47 v=64
196200 On ch=1 n=54 v=74
196200 On ch=1 n=58 v=74
196560 Off ch=1 n=54 v=64
196560 Off ch=1 n=58 v=64
196560 On ch=1 n=47 v=89
196800 Off ch=1 n=47 v=64
196800 On ch=1 n=37 v=95
196800 On ch=1 n=49 v=95
197160 Off ch=1 n=37 v=64
197160 Off ch=1 n=49 v=64
197160 On ch=1 n=53 v=74
197160 On ch=1 n=56 v=74
197520 Off ch=1 n=53 v=64
197520 Off ch=1 n=56 v=64
197520 On ch=1 n=49 v=82
197760 Off ch=1 n=49 v=64
197760 On ch=1 n=39 v=92
197760 On ch=1 n=51 v=92
198120 Off ch=1 n=39 v=64
198120 Off ch=1 n=51 v=64
198120 On ch=1 n=54 v=68
198120 On ch=1 n=58 v=68
198480 Off ch=1 n=54 v=64
198480 Off ch=1 n=58 v=64
198480 On ch=1 n=51 v=80
198720 Off ch=1 n=51 v=64
198720 On ch=1 n=34 v=91
198720 On ch=1 n=46 v=91
199080 Off ch=1 n=34 v=64
199080 Off ch=1 n=46 v=64
199080 On ch=1 n=53 v=67
199080 On ch=1 n=56 v=67
199440 Off ch=1 n=53 v=64
199440 Off ch=1 n=56 v=64
199440 On ch=1 n=46 v=89
199680 Off ch=1 n=46 v=64
199680 On ch=1 n=47 v=88
200040 Off ch=1 n=47 v=64
200040 On ch=1 n=54 v=71
200040 On ch=1 n=58 v=71
200400 Off ch=1 n=54 v=64
200400 Off ch=1 n=58 v=64
200400 On ch=1 n=47 v=89
200640 Off ch=1 n=47 v=64
200640 On ch=1 n=37 v=83
200640 On ch=1 n=49 v=83
200880 Off ch=1 n=37 v=64
200880 Off ch=1 n=49 v=64
201120 On ch=1 n=37 v=71
201120 On ch=1 n=49 v=71
201360 Off ch=1 n=37 v=64
201360 Off ch=1 n=49 v=64
201600 On ch=1 n=39 v=82
201600 On ch=1 n=51 v=82
201960 Off ch=1 n=39 v=64
201960 Off ch=1 n=51 v=64
201960 On ch=1 n=54 v=73
201960 On ch=1 n=58 v=73
202320 Off ch=1 n=54 v=64
202320 Off ch=1 n=58 v=64
202320 On ch=1 n=51 v=78
202560 Off ch=1 n=51 v=64
202560 On ch=1 n=34 v=93
202560 On ch=1 n=46 v=93
202920 Off ch=1 n=34 v=64
202920 Off ch=1 n=46 v=64
202920 On ch=1 n=53 v=72
202920 On ch=1 n=56 v=72
203280 Off ch=1 n=53 v=64
203280 Off ch=1 n=56 v=64
203280 On ch=1 n=46 v=80
203520 Off ch=1 n=46 v=64
203520 On ch=1 n=47 v=85
203880 Off ch=1 n=47 v=64
203880 On ch=1 n=54 v=72
203880 On ch=1 n=58 v=72
204240 Off ch=1 n=54 v=64
204240 Off ch=1 n=58 v=64
204240 On ch=1 n=47 v=78
204480 Off ch=1 n=47 v=64
204480 On ch=1 n=37 v=94
204480 On ch=1 n=49 v=94
204840 Off ch=1 n=37 v=64
204840 Off ch=1 n=49 v=64
204840 On ch=1 n=53 v=77
204840 On ch=1 n=56 v=77
205200 Off ch=1 n=53 v=64
205200 Off ch=1 n=56 v=64
205200 On ch=1 n=49 v=81
205440 Off ch=1 n=49 v=64
205440 On ch=1 n=39 v=90
205440 On ch=1 n=51 v=90
205800 Off ch=1 n=39 v=64
205800 Off ch=1 n=51 v=64
205800 On ch=1 n=54 v=76
205800 On ch=1 n=58 v=76
206160 Off ch=1 n=54 v=64
206160 Off ch=1 n=58 v=64
206160 On ch=1 n=51 v=82
206400 Off ch=1 n=51 v=64
206400 On ch=1 n=34 v=90
206400 On ch=1 n=46 v=90
206760 Off ch=1 n=34 v=64
206760 Off ch=1 n=46 v=64
206760 On ch=1 n=53 v=75
206760 On ch=1 n=56 v=75
207120 Off ch=1 n=53 v=64
207120 Off ch=1 n=56 v=64
207120 On ch=1 n=46 v=81
207360 Off ch=1 n=46 v=64
207360 On ch=1 n=47 v=85
207720 Off ch=1 n=47 v=64
207720 On ch=1 n=54 v=69
207720 On ch=1 n=58 v=69
208080 Off ch=1 n=54 v=64
208080 Off ch=1 n=58 v=64
208080 On ch=1 n=47 v=77
208320 Off ch=1 n=47 v=64
208320 On ch=1 n=37 v=74
208320 On ch=1 n=49 v=74
208680 Off ch=1 n=37 v=64
208680 Off ch=1 n=49 v=64
208680 On ch=1 n=37 v=60
208800 Off ch=1 n=37 v=64
208800 On ch=1 n=49 v=74
209280 Off ch=1 n=49 v=64
209280 Meta TrkEnd
TrkEnd
MTrk
0 Meta TrkName "\xffffffb1\xffffffea\xffffffbc\xffffffc7"
0 Meta TrkEnd
TrkEnd
