MFile 1 2 480
MTrk
0 TimeSig 4/4 24 8
0 KeySig 2 major
0 Tempo 375000
0 Par ch=1 c=121 v=0
0 PrCh ch=1 p=0
0 Par ch=1 c=7 v=100
0 Par ch=1 c=10 v=64
0 Par ch=1 c=91 v=0
0 Par ch=1 c=93 v=0
0 Meta 0x21 00
1080 On ch=1 n=62 v=96
1193 On ch=1 n=62 v=0
1200 On ch=1 n=66 v=96
1313 On ch=1 n=66 v=0
1320 On ch=1 n=71 v=96
1433 On ch=1 n=71 v=0
1440 On ch=1 n=74 v=96
1553 On ch=1 n=74 v=0
1560 On ch=1 n=73 v=96
1673 On ch=1 n=73 v=0
1680 On ch=1 n=71 v=96
1793 On ch=1 n=71 v=0
1800 On ch=1 n=70 v=96
1913 On ch=1 n=70 v=0
1920 On ch=1 n=71 v=96
3743 On ch=1 n=71 v=0
3840 Tempo 461538
3840 On ch=1 n=62 v=96
3903 On ch=1 n=66 v=96
3967 On ch=1 n=71 v=96
4318 On ch=1 n=66 v=0
4318 On ch=1 n=71 v=0
4319 On ch=1 n=62 v=0
4320 On ch=1 n=73 v=96
4775 On ch=1 n=73 v=0
4800 On ch=1 n=74 v=96
5255 On ch=1 n=74 v=0
5280 On ch=1 n=76 v=96
5735 On ch=1 n=76 v=0
5760 On ch=1 n=78 v=96
6215 On ch=1 n=78 v=0
6240 On ch=1 n=74 v=96
6695 On ch=1 n=74 v=0
6720 On ch=1 n=78 v=96
7175 On ch=1 n=78 v=0
7200 On ch=1 n=74 v=96
7655 On ch=1 n=74 v=0
7680 On ch=1 n=78 v=96
9275 On ch=1 n=78 v=0
9360 On ch=1 n=64 v=96
9473 On ch=1 n=64 v=0
9480 On ch=1 n=66 v=96
9593 On ch=1 n=66 v=0
9600 Tempo 337078
9600 On ch=1 n=74 v=96
10283 On ch=1 n=74 v=0
10320 On ch=1 n=66 v=96
10547 On ch=1 n=66 v=0
10560 On ch=1 n=73 v=96
11243 On ch=1 n=73 v=0
11280 On ch=1 n=66 v=96
11507 On ch=1 n=66 v=0
11520 On ch=1 n=62 v=96
11520 On ch=1 n=71 v=96
12431 On ch=1 n=62 v=0
12431 On ch=1 n=71 v=0
12480 On ch=1 n=71 v=96
12707 On ch=1 n=71 v=0
12720 On ch=1 n=71 v=96
12947 On ch=1 n=71 v=0
12960 On ch=1 n=71 v=96
13187 On ch=1 n=71 v=0
13200 On ch=1 n=71 v=96
13655 On ch=1 n=71 v=0
13680 On ch=1 n=71 v=96
13907 On ch=1 n=71 v=0
13920 On ch=1 n=71 v=96
14147 On ch=1 n=71 v=0
14160 On ch=1 n=73 v=96
14387 On ch=1 n=73 v=0
14400 On ch=1 n=74 v=96
14627 On ch=1 n=74 v=0
14640 On ch=1 n=73 v=96
14867 On ch=1 n=73 v=0
14880 On ch=1 n=71 v=96
16019 On ch=1 n=71 v=0
16080 On ch=1 n=62 v=96
16307 On ch=1 n=62 v=0
16320 On ch=1 n=71 v=96
16547 On ch=1 n=71 v=0
16560 On ch=1 n=71 v=96
16787 On ch=1 n=71 v=0
16800 On ch=1 n=71 v=96
17027 On ch=1 n=71 v=0
17040 On ch=1 n=62 v=96
17040 On ch=1 n=71 v=96
17723 On ch=1 n=62 v=0
17723 On ch=1 n=71 v=0
17760 On ch=1 n=71 v=96
17987 On ch=1 n=71 v=0
18000 On ch=1 n=73 v=96
18227 On ch=1 n=73 v=0
18240 On ch=1 n=74 v=96
18467 On ch=1 n=74 v=0
18480 On ch=1 n=73 v=96
18707 On ch=1 n=73 v=0
18720 On ch=1 n=71 v=96
18947 On ch=1 n=71 v=0
18960 On ch=1 n=69 v=96
19187 On ch=1 n=69 v=0
19200 On ch=1 n=66 v=96
19200 On ch=1 n=69 v=96
19883 On ch=1 n=66 v=0
19883 On ch=1 n=69 v=0
19920 On ch=1 n=69 v=96
20147 On ch=1 n=69 v=0
20160 On ch=1 n=69 v=96
20387 On ch=1 n=69 v=0
20400 On ch=1 n=69 v=96
20627 On ch=1 n=69 v=0
20640 On ch=1 n=74 v=96
20867 On ch=1 n=74 v=0
20880 On ch=1 n=74 v=96
21107 On ch=1 n=74 v=0
21120 On ch=1 n=76 v=96
21347 On ch=1 n=76 v=0
21360 On ch=1 n=78 v=96
21587 On ch=1 n=78 v=0
21600 On ch=1 n=76 v=96
21827 On ch=1 n=76 v=0
21840 On ch=1 n=74 v=96
22067 On ch=1 n=74 v=0
22080 On ch=1 n=76 v=96
22307 On ch=1 n=76 v=0
22320 On ch=1 n=74 v=96
22547 On ch=1 n=74 v=0
22560 On ch=1 n=73 v=96
22787 On ch=1 n=73 v=0
22800 On ch=1 n=71 v=96
23027 On ch=1 n=71 v=0
23040 On ch=1 n=71 v=96
23191 On ch=1 n=71 v=0
23200 On ch=1 n=73 v=96
23351 On ch=1 n=73 v=0
23360 On ch=1 n=71 v=96
23511 On ch=1 n=71 v=0
23520 On ch=1 n=69 v=96
24431 On ch=1 n=69 v=0
24480 On ch=1 n=69 v=96
24631 On ch=1 n=69 v=0
24640 On ch=1 n=71 v=96
24791 On ch=1 n=71 v=0
24800 On ch=1 n=73 v=96
24951 On ch=1 n=73 v=0
24960 On ch=1 n=69 v=96
24960 On ch=1 n=73 v=96
25187 On ch=1 n=69 v=0
25187 On ch=1 n=73 v=0
25200 On ch=1 n=76 v=96
25883 On ch=1 n=76 v=0
25920 On ch=1 n=69 v=96
26375 On ch=1 n=69 v=0
26400 On ch=1 n=71 v=96
26627 On ch=1 n=71 v=0
26640 On ch=1 n=69 v=96
26867 On ch=1 n=69 v=0
26880 On ch=1 n=66 v=96
27791 On ch=1 n=66 v=0
28080 On ch=1 n=74 v=96
28421 On ch=1 n=74 v=0
28440 On ch=1 n=74 v=96
28781 On ch=1 n=74 v=0
28800 On ch=1 n=74 v=96
29141 On ch=1 n=74 v=0
29160 On ch=1 n=71 v=96
29501 On ch=1 n=71 v=0
29520 On ch=1 n=69 v=96
29747 On ch=1 n=69 v=0
29760 On ch=1 n=78 v=96
30443 On ch=1 n=78 v=0
30480 On ch=1 n=76 v=96
30707 On ch=1 n=76 v=0
30720 On ch=1 n=71 v=96
30720 On ch=1 n=76 v=96
31631 On ch=1 n=71 v=0
31631 On ch=1 n=76 v=0
31920 On ch=1 n=76 v=96
32261 On ch=1 n=76 v=0
32280 On ch=1 n=78 v=96
32621 On ch=1 n=78 v=0
32640 On ch=1 n=76 v=96
32867 On ch=1 n=76 v=0
32880 On ch=1 n=74 v=96
33107 On ch=1 n=74 v=0
33120 On ch=1 n=71 v=96
33575 On ch=1 n=71 v=0
33600 On ch=1 n=78 v=96
34055 On ch=1 n=78 v=0
34080 On ch=1 n=74 v=96
34307 On ch=1 n=74 v=0
34320 On ch=1 n=74 v=96
34547 On ch=1 n=74 v=0
34560 On ch=1 n=71 v=96
34673 On ch=1 n=71 v=0
34680 On ch=1 n=69 v=96
35477 On ch=1 n=69 v=0
35520 On ch=1 n=76 v=96
35747 On ch=1 n=76 v=0
35760 On ch=1 n=76 v=96
35987 On ch=1 n=76 v=0
36000 On ch=1 n=76 v=96
36227 On ch=1 n=76 v=0
36240 On ch=1 n=78 v=96
36467 On ch=1 n=78 v=0
36480 On ch=1 n=76 v=96
36707 On ch=1 n=76 v=0
36720 On ch=1 n=74 v=96
36947 On ch=1 n=74 v=0
36960 On ch=1 n=71 v=96
37187 On ch=1 n=71 v=0
37200 On ch=1 n=69 v=96
37427 On ch=1 n=69 v=0
37440 On ch=1 n=71 v=96
37895 On ch=1 n=71 v=0
37920 On ch=1 n=74 v=96
38147 On ch=1 n=74 v=0
38160 On ch=1 n=83 v=96
38615 On ch=1 n=83 v=0
38640 On ch=1 n=78 v=96
39323 On ch=1 n=78 v=0
39360 On ch=1 n=78 v=96
39815 On ch=1 n=78 v=0
39840 On ch=1 n=79 v=96
40067 On ch=1 n=79 v=0
40080 On ch=1 n=78 v=96
40307 On ch=1 n=78 v=0
40320 On ch=1 n=76 v=96
40547 On ch=1 n=76 v=0
40560 On ch=1 n=74 v=96
40787 On ch=1 n=74 v=0
40800 On ch=1 n=76 v=96
41483 On ch=1 n=76 v=0
41520 On ch=1 n=74 v=96
42203 On ch=1 n=74 v=0
42960 On ch=1 n=66 v=96
43187 On ch=1 n=66 v=0
43200 On ch=1 n=71 v=96
43427 On ch=1 n=71 v=0
43440 On ch=1 n=71 v=96
43667 On ch=1 n=71 v=0
43680 On ch=1 n=71 v=96
43907 On ch=1 n=71 v=0
43920 On ch=1 n=71 v=96
44147 On ch=1 n=71 v=0
44160 On ch=1 n=71 v=96
44387 On ch=1 n=71 v=0
44400 On ch=1 n=71 v=96
44627 On ch=1 n=71 v=0
44640 On ch=1 n=74 v=96
44867 On ch=1 n=74 v=0
44880 On ch=1 n=74 v=96
45107 On ch=1 n=74 v=0
45120 On ch=1 n=71 v=96
45120 On ch=1 n=76 v=96
45347 On ch=1 n=71 v=0
45347 On ch=1 n=76 v=0
45360 On ch=1 n=78 v=96
45587 On ch=1 n=78 v=0
45600 On ch=1 n=76 v=96
45827 On ch=1 n=76 v=0
45840 On ch=1 n=74 v=96
46979 On ch=1 n=74 v=0
47040 On ch=1 n=71 v=96
47267 On ch=1 n=71 v=0
47280 On ch=1 n=71 v=96
47507 On ch=1 n=71 v=0
47520 On ch=1 n=71 v=96
47747 On ch=1 n=71 v=0
47760 On ch=1 n=71 v=96
47987 On ch=1 n=71 v=0
48000 On ch=1 n=71 v=96
48227 On ch=1 n=71 v=0
48240 On ch=1 n=71 v=96
48467 On ch=1 n=71 v=0
48480 On ch=1 n=74 v=96
48707 On ch=1 n=74 v=0
48720 On ch=1 n=74 v=96
48947 On ch=1 n=74 v=0
48960 On ch=1 n=71 v=96
48960 On ch=1 n=76 v=96
49187 On ch=1 n=71 v=0
49187 On ch=1 n=76 v=0
49200 On ch=1 n=78 v=96
49427 On ch=1 n=78 v=0
49440 On ch=1 n=76 v=96
49667 On ch=1 n=76 v=0
49680 On ch=1 n=74 v=96
50135 On ch=1 n=74 v=0
50160 On ch=1 n=69 v=96
50387 On ch=1 n=69 v=0
50400 On ch=1 n=69 v=96
50627 On ch=1 n=69 v=0
50640 On ch=1 n=69 v=96
50867 On ch=1 n=69 v=0
50880 On ch=1 n=74 v=96
51107 On ch=1 n=74 v=0
51120 On ch=1 n=74 v=96
51347 On ch=1 n=74 v=0
51360 On ch=1 n=74 v=96
51587 On ch=1 n=74 v=0
51600 On ch=1 n=74 v=96
51827 On ch=1 n=74 v=0
51840 On ch=1 n=76 v=96
52067 On ch=1 n=76 v=0
52080 On ch=1 n=78 v=96
52307 On ch=1 n=78 v=0
52320 On ch=1 n=76 v=96
52547 On ch=1 n=76 v=0
52560 On ch=1 n=74 v=96
52787 On ch=1 n=74 v=0
52800 On ch=1 n=76 v=96
53027 On ch=1 n=76 v=0
53040 On ch=1 n=76 v=96
53267 On ch=1 n=76 v=0
53280 On ch=1 n=76 v=96
53507 On ch=1 n=76 v=0
53520 On ch=1 n=76 v=96
53747 On ch=1 n=76 v=0
53760 On ch=1 n=69 v=96
53760 On ch=1 n=78 v=96
54671 On ch=1 n=69 v=0
54671 On ch=1 n=78 v=0
54720 On ch=1 n=76 v=96
54947 On ch=1 n=76 v=0
54960 On ch=1 n=76 v=96
55187 On ch=1 n=76 v=0
55200 On ch=1 n=76 v=96
55427 On ch=1 n=76 v=0
55440 On ch=1 n=76 v=96
55667 On ch=1 n=76 v=0
55680 On ch=1 n=76 v=96
55907 On ch=1 n=76 v=0
55920 On ch=1 n=78 v=96
56147 On ch=1 n=78 v=0
56160 On ch=1 n=76 v=96
56387 On ch=1 n=76 v=0
56400 On ch=1 n=74 v=96
56627 On ch=1 n=74 v=0
56640 On ch=1 n=69 v=96
56640 On ch=1 n=78 v=96
57095 On ch=1 n=69 v=0
57095 On ch=1 n=78 v=0
57120 On ch=1 n=76 v=96
57347 On ch=1 n=76 v=0
57360 On ch=1 n=74 v=96
57587 On ch=1 n=74 v=0
57600 On ch=1 n=62 v=96
57600 On ch=1 n=71 v=96
58511 On ch=1 n=62 v=0
58511 On ch=1 n=71 v=0
58560 On ch=1 n=71 v=96
58787 On ch=1 n=71 v=0
58800 On ch=1 n=71 v=96
59027 On ch=1 n=71 v=0
59040 On ch=1 n=71 v=96
59267 On ch=1 n=71 v=0
59280 On ch=1 n=73 v=96
59507 On ch=1 n=73 v=0
59520 On ch=1 n=66 v=96
59520 On ch=1 n=74 v=96
59747 On ch=1 n=66 v=0
59747 On ch=1 n=74 v=0
59760 On ch=1 n=73 v=96
59987 On ch=1 n=73 v=0
60000 On ch=1 n=74 v=96
60455 On ch=1 n=74 v=0
60480 On ch=1 n=73 v=96
60821 On ch=1 n=73 v=0
60840 On ch=1 n=74 v=96
61181 On ch=1 n=74 v=0
61200 On ch=1 n=73 v=96
61427 On ch=1 n=73 v=0
61440 On ch=1 n=62 v=96
61440 On ch=1 n=71 v=96
62351 On ch=1 n=62 v=0
62351 On ch=1 n=71 v=0
62400 On ch=1 n=71 v=96
62627 On ch=1 n=71 v=0
62640 On ch=1 n=71 v=96
62867 On ch=1 n=71 v=0
62880 On ch=1 n=71 v=96
63107 On ch=1 n=71 v=0
63120 On ch=1 n=73 v=96
63347 On ch=1 n=73 v=0
63360 On ch=1 n=71 v=96
63360 On ch=1 n=74 v=96
63587 On ch=1 n=71 v=0
63587 On ch=1 n=74 v=0
63600 On ch=1 n=73 v=96
63827 On ch=1 n=73 v=0
63840 On ch=1 n=74 v=96
64067 On ch=1 n=74 v=0
64080 On ch=1 n=73 v=96
64307 On ch=1 n=73 v=0
64320 On ch=1 n=74 v=96
64547 On ch=1 n=74 v=0
64560 On ch=1 n=67 v=96
64560 On ch=1 n=76 v=96
65243 On ch=1 n=67 v=0
65243 On ch=1 n=76 v=0
65280 On ch=1 n=66 v=96
65280 On ch=1 n=69 v=96
66191 On ch=1 n=66 v=0
66191 On ch=1 n=69 v=0
66240 On ch=1 n=69 v=96
66467 On ch=1 n=69 v=0
66480 On ch=1 n=69 v=96
66707 On ch=1 n=69 v=0
66720 On ch=1 n=69 v=96
66947 On ch=1 n=69 v=0
66960 On ch=1 n=69 v=96
67187 On ch=1 n=69 v=0
67200 On ch=1 n=66 v=96
67200 On ch=1 n=74 v=96
67427 On ch=1 n=66 v=0
67427 On ch=1 n=74 v=0
67440 On ch=1 n=69 v=96
67895 On ch=1 n=69 v=0
67920 On ch=1 n=74 v=96
68147 On ch=1 n=74 v=0
68160 On ch=1 n=66 v=96
68160 On ch=1 n=69 v=96
68501 On ch=1 n=66 v=0
68501 On ch=1 n=69 v=0
68520 On ch=1 n=74 v=96
68633 On ch=1 n=74 v=0
68640 On ch=1 n=76 v=96
68867 On ch=1 n=76 v=0
68880 On ch=1 n=69 v=96
68880 On ch=1 n=76 v=96
69335 On ch=1 n=69 v=0
69335 On ch=1 n=76 v=0
69360 On ch=1 n=69 v=96
69360 On ch=1 n=73 v=96
70271 On ch=1 n=69 v=0
70271 On ch=1 n=73 v=0
71520 On ch=1 n=64 v=96
71520 On ch=1 n=71 v=96
71975 On ch=1 n=64 v=0
71975 On ch=1 n=71 v=0
72000 On ch=1 n=64 v=96
72000 On ch=1 n=71 v=96
72911 On ch=1 n=64 v=0
72911 On ch=1 n=71 v=0
72960 On ch=1 n=62 v=96
72960 On ch=1 n=71 v=96
73871 On ch=1 n=62 v=0
73871 On ch=1 n=71 v=0
73920 On ch=1 n=71 v=96
74147 On ch=1 n=71 v=0
74160 On ch=1 n=71 v=96
74387 On ch=1 n=71 v=0
74400 On ch=1 n=71 v=96
74627 On ch=1 n=71 v=0
74640 On ch=1 n=73 v=96
74867 On ch=1 n=73 v=0
74880 On ch=1 n=66 v=96
74880 On ch=1 n=74 v=96
75107 On ch=1 n=66 v=0
75107 On ch=1 n=74 v=0
75120 On ch=1 n=73 v=96
75347 On ch=1 n=73 v=0
75360 On ch=1 n=74 v=96
75587 On ch=1 n=74 v=0
75600 On ch=1 n=73 v=96
76055 On ch=1 n=73 v=0
76080 On ch=1 n=74 v=96
76307 On ch=1 n=74 v=0
76320 On ch=1 n=73 v=96
76775 On ch=1 n=73 v=0
76800 On ch=1 n=62 v=96
76800 On ch=1 n=71 v=96
77711 On ch=1 n=62 v=0
77711 On ch=1 n=71 v=0
77760 On ch=1 n=71 v=96
77987 On ch=1 n=71 v=0
78000 On ch=1 n=71 v=96
78227 On ch=1 n=71 v=0
78240 On ch=1 n=71 v=96
78467 On ch=1 n=71 v=0
78480 On ch=1 n=73 v=96
78707 On ch=1 n=73 v=0
78720 On ch=1 n=67 v=96
78720 On ch=1 n=74 v=96
78947 On ch=1 n=67 v=0
78947 On ch=1 n=74 v=0
78960 On ch=1 n=73 v=96
79187 On ch=1 n=73 v=0
79200 On ch=1 n=74 v=96
79427 On ch=1 n=74 v=0
79440 On ch=1 n=73 v=96
79667 On ch=1 n=73 v=0
79680 On ch=1 n=74 v=96
80135 On ch=1 n=74 v=0
80160 On ch=1 n=76 v=96
80387 On ch=1 n=76 v=0
80400 On ch=1 n=66 v=96
80400 On ch=1 n=69 v=96
81539 On ch=1 n=66 v=0
81539 On ch=1 n=69 v=0
81600 On ch=1 n=69 v=96
81827 On ch=1 n=69 v=0
81840 On ch=1 n=69 v=96
82067 On ch=1 n=69 v=0
82080 On ch=1 n=69 v=96
82307 On ch=1 n=69 v=0
82320 On ch=1 n=69 v=96
82547 On ch=1 n=69 v=0
82560 On ch=1 n=66 v=96
82560 On ch=1 n=74 v=96
82787 On ch=1 n=66 v=0
82787 On ch=1 n=74 v=0
82800 On ch=1 n=73 v=96
83027 On ch=1 n=73 v=0
83040 On ch=1 n=74 v=96
83267 On ch=1 n=74 v=0
83280 On ch=1 n=73 v=96
83507 On ch=1 n=73 v=0
83520 On ch=1 n=66 v=96
83520 On ch=1 n=74 v=96
83975 On ch=1 n=66 v=0
83975 On ch=1 n=74 v=0
84000 On ch=1 n=76 v=96
84227 On ch=1 n=76 v=0
84240 On ch=1 n=69 v=96
84240 On ch=1 n=76 v=96
84695 On ch=1 n=69 v=0
84695 On ch=1 n=76 v=0
84720 On ch=1 n=69 v=96
84720 On ch=1 n=73 v=96
86315 On ch=1 n=69 v=0
86315 On ch=1 n=73 v=0
86400 On ch=1 n=64 v=96
86400 On ch=1 n=74 v=96
87311 On ch=1 n=64 v=0
87311 On ch=1 n=74 v=0
87360 On ch=1 n=64 v=96
87360 On ch=1 n=73 v=96
88271 On ch=1 n=64 v=0
88271 On ch=1 n=73 v=0
88320 On ch=1 n=62 v=96
88320 On ch=1 n=71 v=96
88775 On ch=1 n=62 v=0
88775 On ch=1 n=71 v=0
88800 On ch=1 n=62 v=96
88800 On ch=1 n=66 v=96
89255 On ch=1 n=62 v=0
89255 On ch=1 n=66 v=0
89280 On ch=1 n=66 v=96
89507 On ch=1 n=66 v=0
89520 On ch=1 n=66 v=96
89747 On ch=1 n=66 v=0
89760 On ch=1 n=66 v=96
89987 On ch=1 n=66 v=0
90000 On ch=1 n=66 v=96
90227 On ch=1 n=66 v=0
90240 On ch=1 n=62 v=96
90240 On ch=1 n=71 v=96
90467 On ch=1 n=62 v=0
90467 On ch=1 n=71 v=0
90480 On ch=1 n=62 v=96
90480 On ch=1 n=71 v=96
90707 On ch=1 n=62 v=0
90707 On ch=1 n=71 v=0
90720 On ch=1 n=62 v=96
90720 On ch=1 n=71 v=96
90947 On ch=1 n=62 v=0
90947 On ch=1 n=71 v=0
90960 On ch=1 n=62 v=96
90960 On ch=1 n=71 v=96
91187 On ch=1 n=62 v=0
91187 On ch=1 n=71 v=0
91200 On ch=1 n=62 v=96
91200 On ch=1 n=71 v=96
91655 On ch=1 n=62 v=0
91655 On ch=1 n=71 v=0
91680 On ch=1 n=69 v=96
91907 On ch=1 n=69 v=0
91920 On ch=1 n=62 v=96
91920 On ch=1 n=71 v=96
92375 On ch=1 n=62 v=0
92375 On ch=1 n=71 v=0
92400 On ch=1 n=62 v=96
92400 On ch=1 n=67 v=96
93083 On ch=1 n=62 v=0
93083 On ch=1 n=67 v=0
93120 On ch=1 n=62 v=96
93120 On ch=1 n=67 v=96
93347 On ch=1 n=62 v=0
93347 On ch=1 n=67 v=0
93360 On ch=1 n=62 v=96
93360 On ch=1 n=67 v=96
93587 On ch=1 n=62 v=0
93587 On ch=1 n=67 v=0
93600 On ch=1 n=62 v=96
93600 On ch=1 n=67 v=96
93827 On ch=1 n=62 v=0
93827 On ch=1 n=67 v=0
93840 On ch=1 n=62 v=96
93840 On ch=1 n=67 v=96
94067 On ch=1 n=62 v=0
94067 On ch=1 n=67 v=0
94080 On ch=1 n=62 v=96
94080 On ch=1 n=71 v=96
94307 On ch=1 n=62 v=0
94307 On ch=1 n=71 v=0
94320 On ch=1 n=62 v=96
94320 On ch=1 n=71 v=96
94547 On ch=1 n=62 v=0
94547 On ch=1 n=71 v=0
94560 On ch=1 n=62 v=96
94560 On ch=1 n=71 v=96
94787 On ch=1 n=62 v=0
94787 On ch=1 n=71 v=0
94800 On ch=1 n=62 v=96
94800 On ch=1 n=71 v=96
95027 On ch=1 n=62 v=0
95027 On ch=1 n=71 v=0
95040 On ch=1 n=62 v=96
95040 On ch=1 n=71 v=96
95495 On ch=1 n=62 v=0
95495 On ch=1 n=71 v=0
95520 On ch=1 n=73 v=96
95747 On ch=1 n=73 v=0
95760 On ch=1 n=66 v=96
95760 On ch=1 n=74 v=96
96215 On ch=1 n=66 v=0
96215 On ch=1 n=74 v=0
96240 On ch=1 n=66 v=96
96240 On ch=1 n=69 v=96
96923 On ch=1 n=66 v=0
96923 On ch=1 n=69 v=0
96960 On ch=1 n=66 v=96
96960 On ch=1 n=69 v=96
97187 On ch=1 n=66 v=0
97187 On ch=1 n=69 v=0
97200 On ch=1 n=69 v=96
97427 On ch=1 n=69 v=0
97440 On ch=1 n=69 v=96
97667 On ch=1 n=69 v=0
97680 On ch=1 n=69 v=96
97907 On ch=1 n=69 v=0
97920 On ch=1 n=66 v=96
97920 On ch=1 n=69 v=96
98147 On ch=1 n=66 v=0
98147 On ch=1 n=69 v=0
98160 On ch=1 n=74 v=96
98387 On ch=1 n=74 v=0
98400 On ch=1 n=66 v=96
98400 On ch=1 n=74 v=96
98627 On ch=1 n=66 v=0
98627 On ch=1 n=74 v=0
98640 On ch=1 n=66 v=96
98640 On ch=1 n=74 v=96
98867 On ch=1 n=66 v=0
98867 On ch=1 n=74 v=0
98880 On ch=1 n=66 v=96
98880 On ch=1 n=74 v=96
99107 On ch=1 n=66 v=0
99107 On ch=1 n=74 v=0
99120 On ch=1 n=66 v=96
99120 On ch=1 n=76 v=96
99575 On ch=1 n=66 v=0
99575 On ch=1 n=76 v=0
99600 On ch=1 n=69 v=96
99600 On ch=1 n=76 v=96
100055 On ch=1 n=69 v=0
100055 On ch=1 n=76 v=0
100080 On ch=1 n=69 v=96
100080 On ch=1 n=73 v=96
100307 On ch=1 n=69 v=0
100307 On ch=1 n=73 v=0
100320 On ch=1 n=69 v=96
100320 On ch=1 n=76 v=96
100547 On ch=1 n=69 v=0
100547 On ch=1 n=76 v=0
100560 On ch=1 n=73 v=96
100787 On ch=1 n=73 v=0
100800 On ch=1 n=69 v=96
100800 On ch=1 n=76 v=96
101027 On ch=1 n=69 v=0
101027 On ch=1 n=76 v=0
101040 On ch=1 n=73 v=96
101267 On ch=1 n=73 v=0
101280 On ch=1 n=69 v=96
101280 On ch=1 n=76 v=96
101507 On ch=1 n=69 v=0
101507 On ch=1 n=76 v=0
101520 On ch=1 n=73 v=96
101747 On ch=1 n=73 v=0
101760 On ch=1 n=69 v=96
101760 On ch=1 n=76 v=96
101987 On ch=1 n=69 v=0
101987 On ch=1 n=76 v=0
102000 On ch=1 n=73 v=96
102227 On ch=1 n=73 v=0
102240 On ch=1 n=69 v=96
102240 On ch=1 n=76 v=96
102467 On ch=1 n=69 v=0
102467 On ch=1 n=76 v=0
102480 On ch=1 n=73 v=96
102707 On ch=1 n=73 v=0
102720 On ch=1 n=66 v=96
102720 On ch=1 n=69 v=96
102720 On ch=1 n=78 v=96
103631 On ch=1 n=66 v=0
103631 On ch=1 n=69 v=0
103631 On ch=1 n=78 v=0
103680 On ch=1 n=66 v=112
103680 On ch=1 n=74 v=112
103680 On ch=1 n=78 v=112
103907 On ch=1 n=66 v=0
103907 On ch=1 n=74 v=0
103907 On ch=1 n=78 v=0
103920 On ch=1 n=64 v=112
103920 On ch=1 n=76 v=112
104147 On ch=1 n=64 v=0
104147 On ch=1 n=76 v=0
104160 On ch=1 n=66 v=112
104160 On ch=1 n=78 v=112
104387 On ch=1 n=66 v=0
104387 On ch=1 n=78 v=0
104400 On ch=1 n=64 v=112
104400 On ch=1 n=76 v=112
104627 On ch=1 n=64 v=0
104627 On ch=1 n=76 v=0
104640 On ch=1 n=66 v=112
104640 On ch=1 n=74 v=112
104640 On ch=1 n=78 v=112
105095 On ch=1 n=66 v=0
105095 On ch=1 n=74 v=0
105095 On ch=1 n=78 v=0
105120 On ch=1 n=64 v=112
105120 On ch=1 n=76 v=112
105461 On ch=1 n=64 v=0
105461 On ch=1 n=76 v=0
105480 On ch=1 n=66 v=112
105480 On ch=1 n=74 v=112
105480 On ch=1 n=78 v=112
105821 On ch=1 n=66 v=0
105821 On ch=1 n=74 v=0
105821 On ch=1 n=78 v=0
105840 On ch=1 n=64 v=112
105840 On ch=1 n=76 v=112
106067 On ch=1 n=64 v=0
106067 On ch=1 n=76 v=0
106080 On ch=1 n=66 v=112
106080 On ch=1 n=78 v=112
106307 On ch=1 n=66 v=0
106307 On ch=1 n=78 v=0
106320 On ch=1 n=64 v=112
106320 On ch=1 n=76 v=112
106547 On ch=1 n=64 v=0
106547 On ch=1 n=76 v=0
106560 On ch=1 n=66 v=112
106560 On ch=1 n=74 v=112
106560 On ch=1 n=78 v=112
107015 On ch=1 n=66 v=0
107015 On ch=1 n=74 v=0
107015 On ch=1 n=78 v=0
107040 On ch=1 n=67 v=112
107040 On ch=1 n=79 v=112
107267 On ch=1 n=67 v=0
107267 On ch=1 n=79 v=0
107280 On ch=1 n=67 v=112
107280 On ch=1 n=74 v=112
107280 On ch=1 n=79 v=112
107735 On ch=1 n=67 v=0
107735 On ch=1 n=74 v=0
107735 On ch=1 n=79 v=0
107760 On ch=1 n=62 v=112
107760 On ch=1 n=71 v=112
107760 On ch=1 n=74 v=112
109127 On ch=1 n=62 v=0
109127 On ch=1 n=71 v=0
109127 On ch=1 n=74 v=0
109200 On ch=1 n=67 v=112
109200 On ch=1 n=71 v=112
109200 On ch=1 n=79 v=112
109655 On ch=1 n=67 v=0
109655 On ch=1 n=71 v=0
109655 On ch=1 n=79 v=0
109680 On ch=1 n=67 v=112
109680 On ch=1 n=79 v=112
109907 On ch=1 n=67 v=0
109907 On ch=1 n=79 v=0
109920 On ch=1 n=67 v=112
109920 On ch=1 n=79 v=112
110147 On ch=1 n=67 v=0
110147 On ch=1 n=79 v=0
110160 On ch=1 n=67 v=112
110160 On ch=1 n=71 v=112
110160 On ch=1 n=79 v=112
110615 On ch=1 n=67 v=0
110615 On ch=1 n=71 v=0
110615 On ch=1 n=79 v=0
110640 On ch=1 n=67 v=112
110640 On ch=1 n=79 v=112
110867 On ch=1 n=67 v=0
110867 On ch=1 n=79 v=0
110880 On ch=1 n=69 v=112
110880 On ch=1 n=81 v=112
111107 On ch=1 n=69 v=0
111107 On ch=1 n=81 v=0
111120 On ch=1 n=67 v=112
111120 On ch=1 n=74 v=112
111120 On ch=1 n=79 v=112
111575 On ch=1 n=67 v=0
111575 On ch=1 n=74 v=0
111575 On ch=1 n=79 v=0
111600 On ch=1 n=66 v=112
111600 On ch=1 n=74 v=112
111600 On ch=1 n=78 v=112
113195 On ch=1 n=66 v=0
113195 On ch=1 n=74 v=0
113195 On ch=1 n=78 v=0
113280 On ch=1 n=66 v=112
113280 On ch=1 n=74 v=112
113280 On ch=1 n=78 v=112
113507 On ch=1 n=66 v=0
113507 On ch=1 n=74 v=0
113507 On ch=1 n=78 v=0
113520 On ch=1 n=66 v=112
113520 On ch=1 n=78 v=112
113747 On ch=1 n=66 v=0
113747 On ch=1 n=78 v=0
113760 On ch=1 n=66 v=112
113760 On ch=1 n=78 v=112
113987 On ch=1 n=66 v=0
113987 On ch=1 n=78 v=0
114000 On ch=1 n=66 v=112
114000 On ch=1 n=74 v=112
114000 On ch=1 n=78 v=112
114455 On ch=1 n=66 v=0
114455 On ch=1 n=74 v=0
114455 On ch=1 n=78 v=0
114480 On ch=1 n=69 v=112
114480 On ch=1 n=81 v=112
114707 On ch=1 n=69 v=0
114707 On ch=1 n=81 v=0
114720 On ch=1 n=67 v=112
114720 On ch=1 n=79 v=112
114947 On ch=1 n=67 v=0
114947 On ch=1 n=79 v=0
114960 On ch=1 n=66 v=112
114960 On ch=1 n=78 v=112
115187 On ch=1 n=66 v=0
115187 On ch=1 n=78 v=0
115200 On ch=1 n=64 v=112
115200 On ch=1 n=73 v=112
115200 On ch=1 n=76 v=112
116111 On ch=1 n=64 v=0
116111 On ch=1 n=73 v=0
116111 On ch=1 n=76 v=0
116160 On ch=1 n=64 v=112
116160 On ch=1 n=76 v=112
116387 On ch=1 n=64 v=0
116387 On ch=1 n=76 v=0
116400 On ch=1 n=61 v=112
116400 On ch=1 n=73 v=112
116627 On ch=1 n=61 v=0
116627 On ch=1 n=73 v=0
116640 On ch=1 n=64 v=112
116640 On ch=1 n=76 v=112
116867 On ch=1 n=64 v=0
116867 On ch=1 n=76 v=0
116880 On ch=1 n=64 v=112
116880 On ch=1 n=76 v=112
117107 On ch=1 n=64 v=0
117107 On ch=1 n=76 v=0
117120 On ch=1 n=64 v=112
117120 On ch=1 n=73 v=112
117120 On ch=1 n=76 v=112
117347 On ch=1 n=64 v=0
117347 On ch=1 n=73 v=0
117347 On ch=1 n=76 v=0
117360 On ch=1 n=64 v=112
117360 On ch=1 n=76 v=112
117587 On ch=1 n=64 v=0
117587 On ch=1 n=76 v=0
117600 On ch=1 n=64 v=112
117600 On ch=1 n=76 v=112
117827 On ch=1 n=64 v=0
117827 On ch=1 n=76 v=0
117840 On ch=1 n=64 v=112
117840 On ch=1 n=76 v=112
118067 On ch=1 n=64 v=0
118067 On ch=1 n=76 v=0
118080 On ch=1 n=61 v=112
118080 On ch=1 n=64 v=112
118080 On ch=1 n=73 v=112
118535 On ch=1 n=61 v=0
118535 On ch=1 n=64 v=0
118535 On ch=1 n=73 v=0
118560 On ch=1 n=62 v=112
118560 On ch=1 n=74 v=112
118787 On ch=1 n=62 v=0
118787 On ch=1 n=74 v=0
118800 On ch=1 n=66 v=112
118800 On ch=1 n=74 v=112
118800 On ch=1 n=78 v=112
119255 On ch=1 n=66 v=0
119255 On ch=1 n=74 v=0
119255 On ch=1 n=78 v=0
119280 On ch=1 n=64 v=112
119280 On ch=1 n=76 v=112
119507 On ch=1 n=64 v=0
119507 On ch=1 n=76 v=0
119520 On ch=1 n=66 v=112
119520 On ch=1 n=78 v=112
119747 On ch=1 n=66 v=0
119747 On ch=1 n=78 v=0
119760 On ch=1 n=64 v=112
119760 On ch=1 n=76 v=112
119987 On ch=1 n=64 v=0
119987 On ch=1 n=76 v=0
120000 On ch=1 n=66 v=112
120000 On ch=1 n=78 v=112
120227 On ch=1 n=66 v=0
120227 On ch=1 n=78 v=0
120240 On ch=1 n=64 v=112
120240 On ch=1 n=76 v=112
120467 On ch=1 n=64 v=0
120467 On ch=1 n=76 v=0
120480 On ch=1 n=66 v=112
120480 On ch=1 n=74 v=112
120480 On ch=1 n=78 v=112
121163 On ch=1 n=66 v=0
121163 On ch=1 n=74 v=0
121163 On ch=1 n=78 v=0
121200 On ch=1 n=64 v=112
121200 On ch=1 n=76 v=112
121427 On ch=1 n=64 v=0
121427 On ch=1 n=76 v=0
121440 On ch=1 n=66 v=112
121440 On ch=1 n=74 v=112
121440 On ch=1 n=78 v=112
121781 On ch=1 n=66 v=0
121781 On ch=1 n=74 v=0
121781 On ch=1 n=78 v=0
121800 On ch=1 n=64 v=112
121800 On ch=1 n=71 v=112
121800 On ch=1 n=76 v=112
122141 On ch=1 n=64 v=0
122141 On ch=1 n=71 v=0
122141 On ch=1 n=76 v=0
122160 On ch=1 n=66 v=112
122160 On ch=1 n=74 v=112
122160 On ch=1 n=78 v=112
122501 On ch=1 n=66 v=0
122501 On ch=1 n=74 v=0
122501 On ch=1 n=78 v=0
122520 On ch=1 n=67 v=112
122520 On ch=1 n=74 v=112
122520 On ch=1 n=79 v=112
122861 On ch=1 n=67 v=0
122861 On ch=1 n=74 v=0
122861 On ch=1 n=79 v=0
122880 On ch=1 n=67 v=112
122880 On ch=1 n=74 v=112
122880 On ch=1 n=79 v=112
123221 On ch=1 n=67 v=0
123221 On ch=1 n=74 v=0
123221 On ch=1 n=79 v=0
123240 On ch=1 n=62 v=112
123240 On ch=1 n=67 v=112
123240 On ch=1 n=74 v=112
124379 On ch=1 n=62 v=0
124379 On ch=1 n=67 v=0
124379 On ch=1 n=74 v=0
124560 On ch=1 n=67 v=112
124560 On ch=1 n=74 v=112
124560 On ch=1 n=79 v=112
125015 On ch=1 n=67 v=0
125015 On ch=1 n=74 v=0
125015 On ch=1 n=79 v=0
125040 On ch=1 n=67 v=112
125040 On ch=1 n=79 v=112
125267 On ch=1 n=67 v=0
125267 On ch=1 n=79 v=0
125280 On ch=1 n=67 v=112
125280 On ch=1 n=79 v=112
125507 On ch=1 n=67 v=0
125507 On ch=1 n=79 v=0
125520 On ch=1 n=67 v=112
125520 On ch=1 n=79 v=112
125861 On ch=1 n=67 v=0
125861 On ch=1 n=79 v=0
125880 On ch=1 n=69 v=112
125880 On ch=1 n=76 v=112
125880 On ch=1 n=81 v=112
126221 On ch=1 n=69 v=0
126221 On ch=1 n=76 v=0
126221 On ch=1 n=81 v=0
126240 On ch=1 n=67 v=112
126240 On ch=1 n=74 v=112
126240 On ch=1 n=79 v=112
126923 On ch=1 n=67 v=0
126923 On ch=1 n=74 v=0
126923 On ch=1 n=79 v=0
126960 On ch=1 n=66 v=112
126960 On ch=1 n=74 v=112
126960 On ch=1 n=78 v=112
128555 On ch=1 n=66 v=0
128555 On ch=1 n=74 v=0
128555 On ch=1 n=78 v=0
128640 On ch=1 n=66 v=112
128640 On ch=1 n=74 v=112
128640 On ch=1 n=78 v=112
128867 On ch=1 n=66 v=0
128867 On ch=1 n=74 v=0
128867 On ch=1 n=78 v=0
128880 On ch=1 n=66 v=112
128880 On ch=1 n=78 v=112
129107 On ch=1 n=66 v=0
129107 On ch=1 n=78 v=0
129120 On ch=1 n=66 v=112
129120 On ch=1 n=78 v=112
129347 On ch=1 n=66 v=0
129347 On ch=1 n=78 v=0
129360 On ch=1 n=66 v=112
129360 On ch=1 n=74 v=112
129360 On ch=1 n=78 v=112
129815 On ch=1 n=66 v=0
129815 On ch=1 n=74 v=0
129815 On ch=1 n=78 v=0
129840 On ch=1 n=69 v=112
129840 On ch=1 n=81 v=112
130067 On ch=1 n=69 v=0
130067 On ch=1 n=81 v=0
130080 On ch=1 n=67 v=112
130080 On ch=1 n=79 v=112
130307 On ch=1 n=67 v=0
130307 On ch=1 n=79 v=0
130320 On ch=1 n=66 v=112
130320 On ch=1 n=74 v=112
130320 On ch=1 n=78 v=112
130775 On ch=1 n=66 v=0
130775 On ch=1 n=74 v=0
130775 On ch=1 n=78 v=0
130800 On ch=1 n=64 v=112
130800 On ch=1 n=73 v=112
130800 On ch=1 n=76 v=112
132395 On ch=1 n=64 v=0
132395 On ch=1 n=73 v=0
132395 On ch=1 n=76 v=0
132720 On ch=1 n=62 v=64
132720 On ch=1 n=74 v=64
132947 On ch=1 n=62 v=0
132947 On ch=1 n=74 v=0
132960 On ch=1 n=62 v=69
132960 On ch=1 n=74 v=69
133187 On ch=1 n=62 v=0
133187 On ch=1 n=74 v=0
133200 On ch=1 n=62 v=74
133200 On ch=1 n=74 v=74
133427 On ch=1 n=62 v=0
133427 On ch=1 n=74 v=0
133440 On ch=1 n=62 v=80
133440 On ch=1 n=74 v=80
133667 On ch=1 n=62 v=0
133667 On ch=1 n=74 v=0
133680 On ch=1 n=62 v=85
133680 On ch=1 n=74 v=85
133907 On ch=1 n=62 v=0
133907 On ch=1 n=74 v=0
133920 On ch=1 n=62 v=90
133920 On ch=1 n=74 v=90
134147 On ch=1 n=62 v=0
134147 On ch=1 n=74 v=0
134160 On ch=1 n=71 v=96
134387 On ch=1 n=71 v=0
134400 On ch=1 n=66 v=96
134400 On ch=1 n=74 v=96
134627 On ch=1 n=66 v=0
134627 On ch=1 n=74 v=0
134640 On ch=1 n=71 v=96
134753 On ch=1 n=71 v=0
134760 On ch=1 n=71 v=96
135101 On ch=1 n=71 v=0
135120 On ch=1 n=71 v=96
135347 On ch=1 n=71 v=0
135360 On ch=1 n=66 v=96
135360 On ch=1 n=73 v=96
135587 On ch=1 n=66 v=0
135587 On ch=1 n=73 v=0
135600 On ch=1 n=74 v=96
135827 On ch=1 n=74 v=0
135840 On ch=1 n=74 v=96
136067 On ch=1 n=74 v=0
136080 On ch=1 n=73 v=96
136307 On ch=1 n=73 v=0
136320 On ch=1 n=66 v=96
136320 On ch=1 n=74 v=96
136547 On ch=1 n=66 v=0
136547 On ch=1 n=74 v=0
136560 On ch=1 n=71 v=96
136673 On ch=1 n=71 v=0
136680 On ch=1 n=71 v=96
137021 On ch=1 n=71 v=0
137040 On ch=1 n=71 v=96
137267 On ch=1 n=71 v=0
137280 On ch=1 n=66 v=96
137280 On ch=1 n=74 v=96
137507 On ch=1 n=66 v=0
137507 On ch=1 n=74 v=0
137520 On ch=1 n=74 v=96
137747 On ch=1 n=74 v=0
137760 On ch=1 n=74 v=96
137987 On ch=1 n=74 v=0
138000 On ch=1 n=73 v=96
138227 On ch=1 n=73 v=0
138240 On ch=1 n=67 v=96
138240 On ch=1 n=74 v=96
138467 On ch=1 n=67 v=0
138467 On ch=1 n=74 v=0
138480 On ch=1 n=71 v=96
138593 On ch=1 n=71 v=0
138600 On ch=1 n=71 v=96
138941 On ch=1 n=71 v=0
138960 On ch=1 n=71 v=96
139187 On ch=1 n=71 v=0
139200 On ch=1 n=67 v=96
139200 On ch=1 n=74 v=96
139427 On ch=1 n=67 v=0
139427 On ch=1 n=74 v=0
139440 On ch=1 n=74 v=96
139667 On ch=1 n=74 v=0
139680 On ch=1 n=74 v=96
139907 On ch=1 n=74 v=0
139920 On ch=1 n=71 v=96
140147 On ch=1 n=71 v=0
140160 On ch=1 n=67 v=96
140160 On ch=1 n=74 v=96
140387 On ch=1 n=67 v=0
140387 On ch=1 n=74 v=0
140400 On ch=1 n=71 v=96
140513 On ch=1 n=71 v=0
140520 On ch=1 n=71 v=96
140861 On ch=1 n=71 v=0
140880 On ch=1 n=71 v=96
141107 On ch=1 n=71 v=0
141120 On ch=1 n=67 v=96
141120 On ch=1 n=76 v=96
141347 On ch=1 n=67 v=0
141347 On ch=1 n=76 v=0
141360 On ch=1 n=67 v=96
141360 On ch=1 n=76 v=96
141587 On ch=1 n=67 v=0
141587 On ch=1 n=76 v=0
141600 On ch=1 n=67 v=96
141600 On ch=1 n=76 v=96
141827 On ch=1 n=67 v=0
141827 On ch=1 n=76 v=0
141840 On ch=1 n=74 v=96
142067 On ch=1 n=74 v=0
142080 On ch=1 n=69 v=96
142080 On ch=1 n=76 v=96
142307 On ch=1 n=69 v=0
142307 On ch=1 n=76 v=0
142320 On ch=1 n=76 v=96
142547 On ch=1 n=76 v=0
142560 On ch=1 n=76 v=96
142787 On ch=1 n=76 v=0
142800 On ch=1 n=76 v=96
143027 On ch=1 n=76 v=0
143040 On ch=1 n=69 v=96
143040 On ch=1 n=76 v=96
143267 On ch=1 n=69 v=0
143267 On ch=1 n=76 v=0
143280 On ch=1 n=78 v=96
143507 On ch=1 n=78 v=0
143520 On ch=1 n=74 v=96
143747 On ch=1 n=74 v=0
143760 On ch=1 n=74 v=96
143987 On ch=1 n=74 v=0
144000 On ch=1 n=66 v=96
144000 On ch=1 n=74 v=96
144455 On ch=1 n=66 v=0
144455 On ch=1 n=74 v=0
144480 On ch=1 n=66 v=96
144480 On ch=1 n=74 v=96
144935 On ch=1 n=66 v=0
144935 On ch=1 n=74 v=0
144960 On ch=1 n=76 v=96
145187 On ch=1 n=76 v=0
145200 On ch=1 n=76 v=96
145427 On ch=1 n=76 v=0
145440 On ch=1 n=76 v=96
145667 On ch=1 n=76 v=0
145680 On ch=1 n=74 v=96
145907 On ch=1 n=74 v=0
145920 On ch=1 n=69 v=96
145920 On ch=1 n=76 v=96
146147 On ch=1 n=69 v=0
146147 On ch=1 n=76 v=0
146160 On ch=1 n=76 v=96
146387 On ch=1 n=76 v=0
146400 On ch=1 n=76 v=96
146627 On ch=1 n=76 v=0
146640 On ch=1 n=76 v=96
146867 On ch=1 n=76 v=0
146880 On ch=1 n=69 v=96
146880 On ch=1 n=76 v=96
147107 On ch=1 n=69 v=0
147107 On ch=1 n=76 v=0
147120 On ch=1 n=78 v=96
147347 On ch=1 n=78 v=0
147360 On ch=1 n=74 v=96
147587 On ch=1 n=74 v=0
147600 On ch=1 n=74 v=96
147827 On ch=1 n=74 v=0
147840 On ch=1 n=64 v=96
147840 On ch=1 n=74 v=96
148295 On ch=1 n=64 v=0
148295 On ch=1 n=74 v=0
148320 On ch=1 n=64 v=96
148320 On ch=1 n=74 v=96
148547 On ch=1 n=64 v=0
148547 On ch=1 n=74 v=0
148560 On ch=1 n=69 v=96
148787 On ch=1 n=69 v=0
148800 On ch=1 n=74 v=96
149027 On ch=1 n=74 v=0
149040 On ch=1 n=74 v=96
149267 On ch=1 n=74 v=0
149280 On ch=1 n=74 v=96
149507 On ch=1 n=74 v=0
149520 On ch=1 n=71 v=96
149747 On ch=1 n=71 v=0
149760 On ch=1 n=66 v=96
149760 On ch=1 n=74 v=96
149987 On ch=1 n=66 v=0
149987 On ch=1 n=74 v=0
150000 On ch=1 n=74 v=96
150227 On ch=1 n=74 v=0
150240 On ch=1 n=74 v=96
150467 On ch=1 n=74 v=0
150480 On ch=1 n=74 v=96
150707 On ch=1 n=74 v=0
150720 On ch=1 n=66 v=96
150720 On ch=1 n=74 v=96
150947 On ch=1 n=66 v=0
150947 On ch=1 n=74 v=0
150960 On ch=1 n=74 v=96
151187 On ch=1 n=74 v=0
151200 On ch=1 n=74 v=96
151427 On ch=1 n=74 v=0
151440 On ch=1 n=71 v=96
151667 On ch=1 n=71 v=0
151680 On ch=1 n=69 v=96
151680 On ch=1 n=76 v=96
152135 On ch=1 n=69 v=0
152135 On ch=1 n=76 v=0
152160 On ch=1 n=69 v=96
152160 On ch=1 n=74 v=96
152615 On ch=1 n=69 v=0
152615 On ch=1 n=74 v=0
152640 On ch=1 n=74 v=96
152753 On ch=1 n=74 v=0
152760 On ch=1 n=74 v=96
152987 On ch=1 n=74 v=0
153000 On ch=1 n=74 v=96
153113 On ch=1 n=74 v=0
153120 On ch=1 n=74 v=96
153347 On ch=1 n=74 v=0
153360 On ch=1 n=74 v=96
153473 On ch=1 n=74 v=0
153480 On ch=1 n=74 v=96
153593 On ch=1 n=74 v=0
153600 On ch=1 n=67 v=96
153600 On ch=1 n=74 v=96
153827 On ch=1 n=67 v=0
153827 On ch=1 n=74 v=0
153840 On ch=1 n=74 v=96
154067 On ch=1 n=74 v=0
154080 On ch=1 n=74 v=96
154307 On ch=1 n=74 v=0
154320 On ch=1 n=74 v=96
154547 On ch=1 n=74 v=0
154560 On ch=1 n=67 v=96
154560 On ch=1 n=74 v=96
154787 On ch=1 n=67 v=0
154787 On ch=1 n=74 v=0
154800 On ch=1 n=74 v=96
155027 On ch=1 n=74 v=0
155040 On ch=1 n=74 v=96
155267 On ch=1 n=74 v=0
155280 On ch=1 n=71 v=96
155507 On ch=1 n=71 v=0
155520 On ch=1 n=67 v=96
155520 On ch=1 n=76 v=96
155975 On ch=1 n=67 v=0
155975 On ch=1 n=76 v=0
156000 On ch=1 n=67 v=96
156000 On ch=1 n=74 v=96
156455 On ch=1 n=67 v=0
156455 On ch=1 n=74 v=0
156480 On ch=1 n=71 v=96
156707 On ch=1 n=71 v=0
156720 On ch=1 n=74 v=96
156947 On ch=1 n=74 v=0
156960 On ch=1 n=74 v=96
157187 On ch=1 n=74 v=0
157200 On ch=1 n=74 v=96
157427 On ch=1 n=74 v=0
157440 On ch=1 n=66 v=96
157440 On ch=1 n=74 v=96
157667 On ch=1 n=66 v=0
157667 On ch=1 n=74 v=0
157680 On ch=1 n=78 v=96
157907 On ch=1 n=78 v=0
157920 On ch=1 n=78 v=96
158147 On ch=1 n=78 v=0
158160 On ch=1 n=78 v=96
158387 On ch=1 n=78 v=0
158400 On ch=1 n=74 v=96
158400 On ch=1 n=81 v=96
158627 On ch=1 n=74 v=0
158627 On ch=1 n=81 v=0
158640 On ch=1 n=81 v=96
158867 On ch=1 n=81 v=0
158880 On ch=1 n=74 v=96
159107 On ch=1 n=74 v=0
159120 On ch=1 n=74 v=96
159347 On ch=1 n=74 v=0
159360 On ch=1 n=66 v=96
159360 On ch=1 n=74 v=96
159815 On ch=1 n=66 v=0
159815 On ch=1 n=74 v=0
159840 On ch=1 n=66 v=96
159840 On ch=1 n=74 v=96
160295 On ch=1 n=66 v=0
160295 On ch=1 n=74 v=0
160320 On ch=1 n=78 v=96
160547 On ch=1 n=78 v=0
160560 On ch=1 n=78 v=96
160787 On ch=1 n=78 v=0
160800 On ch=1 n=78 v=96
161027 On ch=1 n=78 v=0
161040 On ch=1 n=78 v=96
161267 On ch=1 n=78 v=0
161280 On ch=1 n=69 v=96
161280 On ch=1 n=76 v=96
161735 On ch=1 n=69 v=0
161735 On ch=1 n=76 v=0
161760 On ch=1 n=76 v=96
161987 On ch=1 n=76 v=0
162000 On ch=1 n=69 v=96
162000 On ch=1 n=76 v=96
162455 On ch=1 n=69 v=0
162455 On ch=1 n=76 v=0
162480 On ch=1 n=76 v=96
162707 On ch=1 n=76 v=0
162720 On ch=1 n=69 v=96
162720 On ch=1 n=74 v=96
163175 On ch=1 n=69 v=0
163175 On ch=1 n=74 v=0
163200 On ch=1 n=69 v=96
163200 On ch=1 n=76 v=96
163655 On ch=1 n=69 v=0
163655 On ch=1 n=76 v=0
163680 On ch=1 n=74 v=96
163907 On ch=1 n=74 v=0
163920 On ch=1 n=69 v=96
164147 On ch=1 n=69 v=0
164160 On ch=1 n=74 v=96
164615 On ch=1 n=74 v=0
164640 On ch=1 n=74 v=96
164867 On ch=1 n=74 v=0
164880 On ch=1 n=73 v=96
165107 On ch=1 n=73 v=0
165120 On ch=1 n=66 v=96
165120 On ch=1 n=71 v=96
165575 On ch=1 n=66 v=0
165575 On ch=1 n=71 v=0
165600 On ch=1 n=66 v=96
165600 On ch=1 n=71 v=96
166055 On ch=1 n=66 v=0
166055 On ch=1 n=71 v=0
166080 On ch=1 n=74 v=96
166307 On ch=1 n=74 v=0
166320 On ch=1 n=73 v=96
166547 On ch=1 n=73 v=0
166560 On ch=1 n=74 v=96
166787 On ch=1 n=74 v=0
166800 On ch=1 n=73 v=96
167027 On ch=1 n=73 v=0
167040 On ch=1 n=66 v=96
167040 On ch=1 n=71 v=96
167495 On ch=1 n=66 v=0
167495 On ch=1 n=71 v=0
167520 On ch=1 n=66 v=96
167520 On ch=1 n=71 v=96
167975 On ch=1 n=66 v=0
167975 On ch=1 n=71 v=0
168000 On ch=1 n=74 v=96
168227 On ch=1 n=74 v=0
168240 On ch=1 n=74 v=96
168467 On ch=1 n=74 v=0
168480 On ch=1 n=74 v=96
168707 On ch=1 n=74 v=0
168720 On ch=1 n=73 v=96
168947 On ch=1 n=73 v=0
168960 On ch=1 n=67 v=96
168960 On ch=1 n=71 v=96
169415 On ch=1 n=67 v=0
169415 On ch=1 n=71 v=0
169440 On ch=1 n=67 v=96
169440 On ch=1 n=71 v=96
169667 On ch=1 n=67 v=0
169667 On ch=1 n=71 v=0
169680 On ch=1 n=67 v=96
169907 On ch=1 n=67 v=0
169920 On ch=1 n=74 v=96
170375 On ch=1 n=74 v=0
170400 On ch=1 n=74 v=96
170627 On ch=1 n=74 v=0
170640 On ch=1 n=73 v=96
170867 On ch=1 n=73 v=0
170880 On ch=1 n=67 v=96
170880 On ch=1 n=71 v=96
171335 On ch=1 n=67 v=0
171335 On ch=1 n=71 v=0
171360 On ch=1 n=67 v=96
171360 On ch=1 n=71 v=96
171815 On ch=1 n=67 v=0
171815 On ch=1 n=71 v=0
171840 On ch=1 n=76 v=96
172067 On ch=1 n=76 v=0
172080 On ch=1 n=76 v=96
172307 On ch=1 n=76 v=0
172320 On ch=1 n=76 v=96
172547 On ch=1 n=76 v=0
172560 On ch=1 n=74 v=96
172787 On ch=1 n=74 v=0
172800 On ch=1 n=69 v=96
172800 On ch=1 n=76 v=96
173255 On ch=1 n=69 v=0
173255 On ch=1 n=76 v=0
173280 On ch=1 n=69 v=96
173280 On ch=1 n=74 v=96
173735 On ch=1 n=69 v=0
173735 On ch=1 n=74 v=0
173760 On ch=1 n=76 v=96
173987 On ch=1 n=76 v=0
174000 On ch=1 n=76 v=96
174227 On ch=1 n=76 v=0
174240 On ch=1 n=76 v=96
174467 On ch=1 n=76 v=0
174480 On ch=1 n=74 v=96
174707 On ch=1 n=74 v=0
174720 On ch=1 n=69 v=96
174720 On ch=1 n=76 v=96
175175 On ch=1 n=69 v=0
175175 On ch=1 n=76 v=0
175200 On ch=1 n=69 v=96
175200 On ch=1 n=74 v=96
175655 On ch=1 n=69 v=0
175655 On ch=1 n=74 v=0
175680 On ch=1 n=74 v=96
175907 On ch=1 n=74 v=0
175920 On ch=1 n=74 v=96
176147 On ch=1 n=74 v=0
176160 On ch=1 n=74 v=96
176387 On ch=1 n=74 v=0
176400 On ch=1 n=74 v=96
176627 On ch=1 n=74 v=0
176640 On ch=1 n=69 v=96
176640 On ch=1 n=73 v=96
177095 On ch=1 n=69 v=0
177095 On ch=1 n=73 v=0
177120 On ch=1 n=73 v=96
177347 On ch=1 n=73 v=0
177360 On ch=1 n=69 v=96
177360 On ch=1 n=73 v=96
177815 On ch=1 n=69 v=0
177815 On ch=1 n=73 v=0
177840 On ch=1 n=73 v=96
178067 On ch=1 n=73 v=0
178080 On ch=1 n=73 v=96
178307 On ch=1 n=73 v=0
178320 On ch=1 n=71 v=96
178547 On ch=1 n=71 v=0
178560 On ch=1 n=69 v=96
178560 On ch=1 n=74 v=96
179015 On ch=1 n=69 v=0
179015 On ch=1 n=74 v=0
179040 On ch=1 n=71 v=96
179267 On ch=1 n=71 v=0
179280 On ch=1 n=66 v=96
179507 On ch=1 n=66 v=0
179520 On ch=1 n=74 v=96
179975 On ch=1 n=74 v=0
180000 On ch=1 n=74 v=96
180227 On ch=1 n=74 v=0
180240 On ch=1 n=73 v=96
180467 On ch=1 n=73 v=0
180480 On ch=1 n=66 v=96
180480 On ch=1 n=71 v=96
180935 On ch=1 n=66 v=0
180935 On ch=1 n=71 v=0
180960 On ch=1 n=66 v=96
180960 On ch=1 n=71 v=96
181415 On ch=1 n=66 v=0
181415 On ch=1 n=71 v=0
181440 On ch=1 n=74 v=96
181667 On ch=1 n=74 v=0
181680 On ch=1 n=73 v=96
181907 On ch=1 n=73 v=0
181920 On ch=1 n=74 v=96
182147 On ch=1 n=74 v=0
182160 On ch=1 n=73 v=96
182387 On ch=1 n=73 v=0
182400 On ch=1 n=66 v=96
182400 On ch=1 n=71 v=96
182855 On ch=1 n=66 v=0
182855 On ch=1 n=71 v=0
182880 On ch=1 n=66 v=96
182880 On ch=1 n=71 v=96
183335 On ch=1 n=66 v=0
183335 On ch=1 n=71 v=0
183360 On ch=1 n=74 v=96
183587 On ch=1 n=74 v=0
183600 On ch=1 n=74 v=96
183827 On ch=1 n=74 v=0
183840 On ch=1 n=74 v=96
184067 On ch=1 n=74 v=0
184080 On ch=1 n=73 v=96
184307 On ch=1 n=73 v=0
184320 On ch=1 n=67 v=96
184320 On ch=1 n=71 v=96
184775 On ch=1 n=67 v=0
184775 On ch=1 n=71 v=0
184800 On ch=1 n=67 v=96
184800 On ch=1 n=71 v=96
185027 On ch=1 n=67 v=0
185027 On ch=1 n=71 v=0
185040 On ch=1 n=67 v=96
185267 On ch=1 n=67 v=0
185280 On ch=1 n=74 v=96
185735 On ch=1 n=74 v=0
185760 On ch=1 n=74 v=96
185987 On ch=1 n=74 v=0
186000 On ch=1 n=73 v=96
186227 On ch=1 n=73 v=0
186240 On ch=1 n=67 v=96
186240 On ch=1 n=71 v=96
186695 On ch=1 n=67 v=0
186695 On ch=1 n=71 v=0
186720 On ch=1 n=67 v=96
186720 On ch=1 n=71 v=96
187175 On ch=1 n=67 v=0
187175 On ch=1 n=71 v=0
187200 On ch=1 n=76 v=96
187427 On ch=1 n=76 v=0
187440 On ch=1 n=76 v=96
187667 On ch=1 n=76 v=0
187680 On ch=1 n=76 v=96
187907 On ch=1 n=76 v=0
187920 On ch=1 n=74 v=96
188147 On ch=1 n=74 v=0
188160 On ch=1 n=69 v=96
188160 On ch=1 n=76 v=96
188615 On ch=1 n=69 v=0
188615 On ch=1 n=76 v=0
188640 On ch=1 n=74 v=96
188867 On ch=1 n=74 v=0
188880 On ch=1 n=69 v=96
188880 On ch=1 n=76 v=96
189335 On ch=1 n=69 v=0
189335 On ch=1 n=76 v=0
189360 On ch=1 n=76 v=96
189587 On ch=1 n=76 v=0
189600 On ch=1 n=76 v=96
189827 On ch=1 n=76 v=0
189840 On ch=1 n=74 v=96
190067 On ch=1 n=74 v=0
190080 On ch=1 n=69 v=96
190080 On ch=1 n=76 v=96
190535 On ch=1 n=69 v=0
190535 On ch=1 n=76 v=0
190560 On ch=1 n=69 v=96
190560 On ch=1 n=74 v=96
191015 On ch=1 n=69 v=0
191015 On ch=1 n=74 v=0
191040 On ch=1 n=74 v=96
191267 On ch=1 n=74 v=0
191280 On ch=1 n=74 v=96
191507 On ch=1 n=74 v=0
191520 On ch=1 n=74 v=96
191747 On ch=1 n=74 v=0
191760 On ch=1 n=74 v=96
191987 On ch=1 n=74 v=0
192000 On ch=1 n=69 v=96
192000 On ch=1 n=73 v=96
192455 On ch=1 n=69 v=0
192455 On ch=1 n=73 v=0
192480 On ch=1 n=73 v=96
192707 On ch=1 n=73 v=0
192720 On ch=1 n=69 v=96
192720 On ch=1 n=73 v=96
193175 On ch=1 n=69 v=0
193175 On ch=1 n=73 v=0
193200 On ch=1 n=73 v=96
193427 On ch=1 n=73 v=0
193440 On ch=1 n=73 v=96
193667 On ch=1 n=73 v=0
193680 On ch=1 n=71 v=96
193907 On ch=1 n=71 v=0
193920 On ch=1 n=69 v=96
193920 On ch=1 n=74 v=96
194375 On ch=1 n=69 v=0
194375 On ch=1 n=74 v=0
194400 On ch=1 n=73 v=96
194855 On ch=1 n=73 v=0
194880 On ch=1 n=71 v=96
195335 On ch=1 n=71 v=0
195360 On ch=1 n=66 v=96
195360 On ch=1 n=71 v=96
195815 On ch=1 n=66 v=0
195815 On ch=1 n=71 v=0
195840 On ch=1 n=66 v=96
195840 On ch=1 n=74 v=96
196295 On ch=1 n=66 v=0
196295 On ch=1 n=74 v=0
196320 On ch=1 n=66 v=96
196320 On ch=1 n=73 v=96
196775 On ch=1 n=66 v=0
196775 On ch=1 n=73 v=0
196800 On ch=1 n=66 v=96
196800 On ch=1 n=73 v=96
197255 On ch=1 n=66 v=0
197255 On ch=1 n=73 v=0
197280 On ch=1 n=66 v=96
197280 On ch=1 n=71 v=96
197735 On ch=1 n=66 v=0
197735 On ch=1 n=71 v=0
197760 On ch=1 n=62 v=96
197760 On ch=1 n=71 v=96
198215 On ch=1 n=62 v=0
198215 On ch=1 n=71 v=0
198240 On ch=1 n=62 v=96
198240 On ch=1 n=66 v=96
198695 On ch=1 n=62 v=0
198695 On ch=1 n=66 v=0
198720 On ch=1 n=66 v=96
198947 On ch=1 n=66 v=0
198960 On ch=1 n=66 v=96
199187 On ch=1 n=66 v=0
199200 On ch=1 n=66 v=96
199427 On ch=1 n=66 v=0
199440 On ch=1 n=66 v=96
199667 On ch=1 n=66 v=0
199680 On ch=1 n=62 v=96
199680 On ch=1 n=71 v=96
199907 On ch=1 n=62 v=0
199907 On ch=1 n=71 v=0
199920 On ch=1 n=62 v=96
199920 On ch=1 n=71 v=96
200147 On ch=1 n=62 v=0
200147 On ch=1 n=71 v=0
200160 On ch=1 n=62 v=96
200160 On ch=1 n=71 v=96
200387 On ch=1 n=62 v=0
200387 On ch=1 n=71 v=0
200400 On ch=1 n=62 v=96
200400 On ch=1 n=71 v=96
200627 On ch=1 n=62 v=0
200627 On ch=1 n=71 v=0
200640 On ch=1 n=62 v=96
200640 On ch=1 n=71 v=96
201095 On ch=1 n=62 v=0
201095 On ch=1 n=71 v=0
201120 On ch=1 n=69 v=96
201347 On ch=1 n=69 v=0
201360 On ch=1 n=62 v=96
201360 On ch=1 n=71 v=96
201815 On ch=1 n=62 v=0
201815 On ch=1 n=71 v=0
201840 On ch=1 n=62 v=96
201840 On ch=1 n=67 v=96
202523 On ch=1 n=62 v=0
202523 On ch=1 n=67 v=0
202560 On ch=1 n=62 v=96
202560 On ch=1 n=67 v=96
202787 On ch=1 n=62 v=0
202787 On ch=1 n=67 v=0
202800 On ch=1 n=62 v=96
202800 On ch=1 n=67 v=96
203027 On ch=1 n=62 v=0
203027 On ch=1 n=67 v=0
203040 On ch=1 n=62 v=96
203040 On ch=1 n=67 v=96
203267 On ch=1 n=62 v=0
203267 On ch=1 n=67 v=0
203280 On ch=1 n=62 v=96
203280 On ch=1 n=67 v=96
203507 On ch=1 n=62 v=0
203507 On ch=1 n=67 v=0
203520 On ch=1 n=62 v=96
203520 On ch=1 n=71 v=96
203747 On ch=1 n=62 v=0
203747 On ch=1 n=71 v=0
203760 On ch=1 n=62 v=96
203760 On ch=1 n=71 v=96
203987 On ch=1 n=62 v=0
203987 On ch=1 n=71 v=0
204000 On ch=1 n=62 v=96
204000 On ch=1 n=71 v=96
204227 On ch=1 n=62 v=0
204227 On ch=1 n=71 v=0
204240 On ch=1 n=62 v=96
204240 On ch=1 n=71 v=96
204467 On ch=1 n=62 v=0
204467 On ch=1 n=71 v=0
204480 On ch=1 n=62 v=96
204480 On ch=1 n=71 v=96
204935 On ch=1 n=62 v=0
204935 On ch=1 n=71 v=0
204960 On ch=1 n=73 v=96
205187 On ch=1 n=73 v=0
205200 On ch=1 n=66 v=96
205200 On ch=1 n=74 v=96
205655 On ch=1 n=66 v=0
205655 On ch=1 n=74 v=0
205680 On ch=1 n=66 v=96
205680 On ch=1 n=69 v=96
206363 On ch=1 n=66 v=0
206363 On ch=1 n=69 v=0
206400 On ch=1 n=66 v=96
206400 On ch=1 n=69 v=96
206627 On ch=1 n=66 v=0
206627 On ch=1 n=69 v=0
206640 On ch=1 n=69 v=96
206867 On ch=1 n=69 v=0
206880 On ch=1 n=69 v=96
207107 On ch=1 n=69 v=0
207120 On ch=1 n=69 v=96
207347 On ch=1 n=69 v=0
207360 On ch=1 n=66 v=96
207360 On ch=1 n=69 v=96
207587 On ch=1 n=66 v=0
207587 On ch=1 n=69 v=0
207600 On ch=1 n=74 v=96
207827 On ch=1 n=74 v=0
207840 On ch=1 n=66 v=96
207840 On ch=1 n=74 v=96
208067 On ch=1 n=66 v=0
208067 On ch=1 n=74 v=0
208080 On ch=1 n=66 v=96
208080 On ch=1 n=74 v=96
208307 On ch=1 n=66 v=0
208307 On ch=1 n=74 v=0
208320 On ch=1 n=66 v=96
208320 On ch=1 n=74 v=96
208775 On ch=1 n=66 v=0
208775 On ch=1 n=74 v=0
208800 On ch=1 n=76 v=96
209027 On ch=1 n=76 v=0
209040 On ch=1 n=69 v=96
209040 On ch=1 n=76 v=96
209495 On ch=1 n=69 v=0
209495 On ch=1 n=76 v=0
209520 On ch=1 n=69 v=96
209520 On ch=1 n=73 v=96
211115 On ch=1 n=69 v=0
211115 On ch=1 n=73 v=0
211200 On ch=1 n=66 v=96
211200 On ch=1 n=74 v=96
212111 On ch=1 n=66 v=0
212111 On ch=1 n=74 v=0
212160 On ch=1 n=66 v=96
212160 On ch=1 n=73 v=96
212615 On ch=1 n=66 v=0
212615 On ch=1 n=73 v=0
212640 On ch=1 n=66 v=96
212640 On ch=1 n=71 v=96
213095 On ch=1 n=66 v=0
213095 On ch=1 n=71 v=0
213120 On ch=1 n=62 v=96
213120 On ch=1 n=71 v=96
213575 On ch=1 n=62 v=0
213575 On ch=1 n=71 v=0
213600 On ch=1 n=62 v=96
213600 On ch=1 n=66 v=96
214055 On ch=1 n=62 v=0
214055 On ch=1 n=66 v=0
214080 On ch=1 n=66 v=96
214307 On ch=1 n=66 v=0
214320 On ch=1 n=66 v=96
214547 On ch=1 n=66 v=0
214560 On ch=1 n=66 v=96
214787 On ch=1 n=66 v=0
214800 On ch=1 n=66 v=96
215027 On ch=1 n=66 v=0
215040 On ch=1 n=62 v=96
215040 On ch=1 n=71 v=96
215267 On ch=1 n=62 v=0
215267 On ch=1 n=71 v=0
215280 On ch=1 n=62 v=96
215280 On ch=1 n=71 v=96
215507 On ch=1 n=62 v=0
215507 On ch=1 n=71 v=0
215520 On ch=1 n=62 v=96
215520 On ch=1 n=71 v=96
215747 On ch=1 n=62 v=0
215747 On ch=1 n=71 v=0
215760 On ch=1 n=62 v=96
215760 On ch=1 n=71 v=96
215987 On ch=1 n=62 v=0
215987 On ch=1 n=71 v=0
216000 On ch=1 n=62 v=96
216000 On ch=1 n=71 v=96
216455 On ch=1 n=62 v=0
216455 On ch=1 n=71 v=0
216480 On ch=1 n=69 v=96
216707 On ch=1 n=69 v=0
216720 On ch=1 n=62 v=96
216720 On ch=1 n=71 v=96
217175 On ch=1 n=62 v=0
217175 On ch=1 n=71 v=0
217200 On ch=1 n=62 v=96
217200 On ch=1 n=67 v=96
217883 On ch=1 n=62 v=0
217883 On ch=1 n=67 v=0
217920 On ch=1 n=62 v=96
217920 On ch=1 n=67 v=96
218147 On ch=1 n=62 v=0
218147 On ch=1 n=67 v=0
218160 On ch=1 n=62 v=96
218160 On ch=1 n=67 v=96
218387 On ch=1 n=62 v=0
218387 On ch=1 n=67 v=0
218400 On ch=1 n=62 v=96
218400 On ch=1 n=67 v=96
218627 On ch=1 n=62 v=0
218627 On ch=1 n=67 v=0
218640 On ch=1 n=62 v=96
218640 On ch=1 n=67 v=96
218867 On ch=1 n=62 v=0
218867 On ch=1 n=67 v=0
218880 On ch=1 n=62 v=96
218880 On ch=1 n=71 v=96
219107 On ch=1 n=62 v=0
219107 On ch=1 n=71 v=0
219120 On ch=1 n=62 v=96
219120 On ch=1 n=71 v=96
219347 On ch=1 n=62 v=0
219347 On ch=1 n=71 v=0
219360 On ch=1 n=62 v=96
219360 On ch=1 n=71 v=96
219587 On ch=1 n=62 v=0
219587 On ch=1 n=71 v=0
219600 On ch=1 n=62 v=96
219600 On ch=1 n=71 v=96
219827 On ch=1 n=62 v=0
219827 On ch=1 n=71 v=0
219840 On ch=1 n=62 v=96
219840 On ch=1 n=71 v=96
220295 On ch=1 n=62 v=0
220295 On ch=1 n=71 v=0
220320 On ch=1 n=73 v=96
220547 On ch=1 n=73 v=0
220560 On ch=1 n=66 v=96
220560 On ch=1 n=74 v=96
221015 On ch=1 n=66 v=0
221015 On ch=1 n=74 v=0
221040 On ch=1 n=66 v=96
221040 On ch=1 n=69 v=96
221723 On ch=1 n=66 v=0
221723 On ch=1 n=69 v=0
221760 On ch=1 n=66 v=96
221760 On ch=1 n=69 v=96
221987 On ch=1 n=66 v=0
221987 On ch=1 n=69 v=0
222000 On ch=1 n=69 v=96
222227 On ch=1 n=69 v=0
222240 On ch=1 n=69 v=96
222467 On ch=1 n=69 v=0
222480 On ch=1 n=69 v=96
222707 On ch=1 n=69 v=0
222720 On ch=1 n=66 v=96
222720 On ch=1 n=69 v=96
222947 On ch=1 n=66 v=0
222947 On ch=1 n=69 v=0
222960 On ch=1 n=74 v=96
223187 On ch=1 n=74 v=0
223200 On ch=1 n=66 v=96
223200 On ch=1 n=74 v=96
223427 On ch=1 n=66 v=0
223427 On ch=1 n=74 v=0
223440 On ch=1 n=66 v=96
223440 On ch=1 n=74 v=96
223667 On ch=1 n=66 v=0
223667 On ch=1 n=74 v=0
223680 On ch=1 n=66 v=96
223680 On ch=1 n=74 v=96
223907 On ch=1 n=66 v=0
223907 On ch=1 n=74 v=0
223920 On ch=1 n=66 v=96
223920 On ch=1 n=76 v=96
224375 On ch=1 n=66 v=0
224375 On ch=1 n=76 v=0
224400 On ch=1 n=64 v=96
224400 On ch=1 n=69 v=96
224400 On ch=1 n=76 v=96
224855 On ch=1 n=64 v=0
224855 On ch=1 n=69 v=0
224855 On ch=1 n=76 v=0
224880 On ch=1 n=69 v=96
224880 On ch=1 n=73 v=96
225107 On ch=1 n=69 v=0
225107 On ch=1 n=73 v=0
225120 On ch=1 n=69 v=96
225120 On ch=1 n=76 v=96
225347 On ch=1 n=69 v=0
225347 On ch=1 n=76 v=0
225360 On ch=1 n=73 v=96
225587 On ch=1 n=73 v=0
225600 On ch=1 n=69 v=96
225600 On ch=1 n=76 v=96
225827 On ch=1 n=69 v=0
225827 On ch=1 n=76 v=0
225840 On ch=1 n=73 v=96
226067 On ch=1 n=73 v=0
226080 On ch=1 n=69 v=96
226080 On ch=1 n=76 v=96
226307 On ch=1 n=69 v=0
226307 On ch=1 n=76 v=0
226320 On ch=1 n=73 v=96
226547 On ch=1 n=73 v=0
226560 On ch=1 n=69 v=96
226560 On ch=1 n=76 v=96
226787 On ch=1 n=69 v=0
226787 On ch=1 n=76 v=0
226800 On ch=1 n=73 v=96
227027 On ch=1 n=73 v=0
227040 On ch=1 n=69 v=96
227040 On ch=1 n=76 v=96
227267 On ch=1 n=69 v=0
227267 On ch=1 n=76 v=0
227280 On ch=1 n=73 v=96
227507 On ch=1 n=73 v=0
227520 On ch=1 n=66 v=96
227520 On ch=1 n=69 v=96
227520 On ch=1 n=78 v=96
228431 On ch=1 n=66 v=0
228431 On ch=1 n=69 v=0
228431 On ch=1 n=78 v=0
228480 On ch=1 n=66 v=112
228480 On ch=1 n=74 v=112
228480 On ch=1 n=78 v=112
228707 On ch=1 n=66 v=0
228707 On ch=1 n=74 v=0
228707 On ch=1 n=78 v=0
228720 On ch=1 n=64 v=112
228720 On ch=1 n=76 v=112
228947 On ch=1 n=64 v=0
228947 On ch=1 n=76 v=0
228960 On ch=1 n=66 v=112
228960 On ch=1 n=78 v=112
229187 On ch=1 n=66 v=0
229187 On ch=1 n=78 v=0
229200 On ch=1 n=64 v=112
229200 On ch=1 n=76 v=112
229427 On ch=1 n=64 v=0
229427 On ch=1 n=76 v=0
229440 On ch=1 n=66 v=112
229440 On ch=1 n=74 v=112
229440 On ch=1 n=78 v=112
229895 On ch=1 n=66 v=0
229895 On ch=1 n=74 v=0
229895 On ch=1 n=78 v=0
229920 On ch=1 n=64 v=112
229920 On ch=1 n=76 v=112
230261 On ch=1 n=64 v=0
230261 On ch=1 n=76 v=0
230280 On ch=1 n=66 v=112
230280 On ch=1 n=74 v=112
230280 On ch=1 n=78 v=112
230621 On ch=1 n=66 v=0
230621 On ch=1 n=74 v=0
230621 On ch=1 n=78 v=0
230640 On ch=1 n=64 v=112
230640 On ch=1 n=76 v=112
230867 On ch=1 n=64 v=0
230867 On ch=1 n=76 v=0
230880 On ch=1 n=66 v=112
230880 On ch=1 n=78 v=112
231107 On ch=1 n=66 v=0
231107 On ch=1 n=78 v=0
231120 On ch=1 n=64 v=112
231120 On ch=1 n=76 v=112
231347 On ch=1 n=64 v=0
231347 On ch=1 n=76 v=0
231360 On ch=1 n=66 v=112
231360 On ch=1 n=74 v=112
231360 On ch=1 n=78 v=112
231815 On ch=1 n=66 v=0
231815 On ch=1 n=74 v=0
231815 On ch=1 n=78 v=0
231840 On ch=1 n=67 v=112
231840 On ch=1 n=79 v=112
232067 On ch=1 n=67 v=0
232067 On ch=1 n=79 v=0
232080 On ch=1 n=67 v=112
232080 On ch=1 n=74 v=112
232080 On ch=1 n=79 v=112
232535 On ch=1 n=67 v=0
232535 On ch=1 n=74 v=0
232535 On ch=1 n=79 v=0
232560 On ch=1 n=62 v=112
232560 On ch=1 n=71 v=112
232560 On ch=1 n=74 v=112
233927 On ch=1 n=62 v=0
233927 On ch=1 n=71 v=0
233927 On ch=1 n=74 v=0
234000 On ch=1 n=67 v=112
234000 On ch=1 n=71 v=112
234000 On ch=1 n=79 v=112
234455 On ch=1 n=67 v=0
234455 On ch=1 n=71 v=0
234455 On ch=1 n=79 v=0
234480 On ch=1 n=67 v=112
234480 On ch=1 n=79 v=112
234707 On ch=1 n=67 v=0
234707 On ch=1 n=79 v=0
234720 On ch=1 n=67 v=112
234720 On ch=1 n=79 v=112
234947 On ch=1 n=67 v=0
234947 On ch=1 n=79 v=0
234960 On ch=1 n=67 v=112
234960 On ch=1 n=71 v=112
234960 On ch=1 n=79 v=112
235415 On ch=1 n=67 v=0
235415 On ch=1 n=71 v=0
235415 On ch=1 n=79 v=0
235440 On ch=1 n=67 v=112
235440 On ch=1 n=79 v=112
235667 On ch=1 n=67 v=0
235667 On ch=1 n=79 v=0
235680 On ch=1 n=69 v=112
235680 On ch=1 n=81 v=112
235907 On ch=1 n=69 v=0
235907 On ch=1 n=81 v=0
235920 On ch=1 n=67 v=112
235920 On ch=1 n=74 v=112
235920 On ch=1 n=79 v=112
236375 On ch=1 n=67 v=0
236375 On ch=1 n=74 v=0
236375 On ch=1 n=79 v=0
236400 On ch=1 n=66 v=112
236400 On ch=1 n=74 v=112
236400 On ch=1 n=78 v=112
237995 On ch=1 n=66 v=0
237995 On ch=1 n=74 v=0
237995 On ch=1 n=78 v=0
238080 On ch=1 n=66 v=112
238080 On ch=1 n=74 v=112
238080 On ch=1 n=78 v=112
238307 On ch=1 n=66 v=0
238307 On ch=1 n=74 v=0
238307 On ch=1 n=78 v=0
238320 On ch=1 n=66 v=112
238320 On ch=1 n=78 v=112
238547 On ch=1 n=66 v=0
238547 On ch=1 n=78 v=0
238560 On ch=1 n=66 v=112
238560 On ch=1 n=78 v=112
238787 On ch=1 n=66 v=0
238787 On ch=1 n=78 v=0
238800 On ch=1 n=66 v=112
238800 On ch=1 n=74 v=112
238800 On ch=1 n=78 v=112
239255 On ch=1 n=66 v=0
239255 On ch=1 n=74 v=0
239255 On ch=1 n=78 v=0
239280 On ch=1 n=69 v=112
239280 On ch=1 n=81 v=112
239507 On ch=1 n=69 v=0
239507 On ch=1 n=81 v=0
239520 On ch=1 n=67 v=112
239520 On ch=1 n=79 v=112
239747 On ch=1 n=67 v=0
239747 On ch=1 n=79 v=0
239760 On ch=1 n=66 v=112
239760 On ch=1 n=78 v=112
239987 On ch=1 n=66 v=0
239987 On ch=1 n=78 v=0
240000 On ch=1 n=64 v=112
240000 On ch=1 n=73 v=112
240000 On ch=1 n=76 v=112
240911 On ch=1 n=64 v=0
240911 On ch=1 n=73 v=0
240911 On ch=1 n=76 v=0
240960 On ch=1 n=64 v=112
240960 On ch=1 n=76 v=112
241187 On ch=1 n=64 v=0
241187 On ch=1 n=76 v=0
241200 On ch=1 n=61 v=112
241200 On ch=1 n=73 v=112
241427 On ch=1 n=61 v=0
241427 On ch=1 n=73 v=0
241440 On ch=1 n=64 v=112
241440 On ch=1 n=76 v=112
241667 On ch=1 n=64 v=0
241667 On ch=1 n=76 v=0
241680 On ch=1 n=64 v=112
241680 On ch=1 n=76 v=112
241907 On ch=1 n=64 v=0
241907 On ch=1 n=76 v=0
241920 On ch=1 n=64 v=112
241920 On ch=1 n=73 v=112
241920 On ch=1 n=76 v=112
242147 On ch=1 n=64 v=0
242147 On ch=1 n=73 v=0
242147 On ch=1 n=76 v=0
242160 On ch=1 n=64 v=112
242160 On ch=1 n=76 v=112
242387 On ch=1 n=64 v=0
242387 On ch=1 n=76 v=0
242400 On ch=1 n=64 v=112
242400 On ch=1 n=76 v=112
242627 On ch=1 n=64 v=0
242627 On ch=1 n=76 v=0
242640 On ch=1 n=64 v=112
242640 On ch=1 n=76 v=112
242867 On ch=1 n=64 v=0
242867 On ch=1 n=76 v=0
242880 On ch=1 n=61 v=112
242880 On ch=1 n=64 v=112
242880 On ch=1 n=73 v=112
243335 On ch=1 n=61 v=0
243335 On ch=1 n=64 v=0
243335 On ch=1 n=73 v=0
243360 On ch=1 n=62 v=112
243360 On ch=1 n=74 v=112
243587 On ch=1 n=62 v=0
243587 On ch=1 n=74 v=0
243600 On ch=1 n=66 v=112
243600 On ch=1 n=74 v=112
243600 On ch=1 n=78 v=112
244055 On ch=1 n=66 v=0
244055 On ch=1 n=74 v=0
244055 On ch=1 n=78 v=0
244080 On ch=1 n=64 v=112
244080 On ch=1 n=76 v=112
244307 On ch=1 n=64 v=0
244307 On ch=1 n=76 v=0
244320 On ch=1 n=66 v=112
244320 On ch=1 n=78 v=112
244547 On ch=1 n=66 v=0
244547 On ch=1 n=78 v=0
244560 On ch=1 n=64 v=112
244560 On ch=1 n=76 v=112
244787 On ch=1 n=64 v=0
244787 On ch=1 n=76 v=0
244800 On ch=1 n=66 v=112
244800 On ch=1 n=78 v=112
245027 On ch=1 n=66 v=0
245027 On ch=1 n=78 v=0
245040 On ch=1 n=64 v=112
245040 On ch=1 n=76 v=112
245267 On ch=1 n=64 v=0
245267 On ch=1 n=76 v=0
245280 On ch=1 n=66 v=112
245280 On ch=1 n=74 v=112
245280 On ch=1 n=78 v=112
245963 On ch=1 n=66 v=0
245963 On ch=1 n=74 v=0
245963 On ch=1 n=78 v=0
246000 On ch=1 n=64 v=112
246000 On ch=1 n=76 v=112
246227 On ch=1 n=64 v=0
246227 On ch=1 n=76 v=0
246240 On ch=1 n=66 v=112
246240 On ch=1 n=74 v=112
246240 On ch=1 n=78 v=112
246581 On ch=1 n=66 v=0
246581 On ch=1 n=74 v=0
246581 On ch=1 n=78 v=0
246600 On ch=1 n=64 v=112
246600 On ch=1 n=71 v=112
246600 On ch=1 n=76 v=112
246941 On ch=1 n=64 v=0
246941 On ch=1 n=71 v=0
246941 On ch=1 n=76 v=0
246960 On ch=1 n=66 v=112
246960 On ch=1 n=74 v=112
246960 On ch=1 n=78 v=112
247301 On ch=1 n=66 v=0
247301 On ch=1 n=74 v=0
247301 On ch=1 n=78 v=0
247320 On ch=1 n=67 v=112
247320 On ch=1 n=74 v=112
247320 On ch=1 n=79 v=112
247661 On ch=1 n=67 v=0
247661 On ch=1 n=74 v=0
247661 On ch=1 n=79 v=0
247680 On ch=1 n=67 v=112
247680 On ch=1 n=74 v=112
247680 On ch=1 n=79 v=112
248021 On ch=1 n=67 v=0
248021 On ch=1 n=74 v=0
248021 On ch=1 n=79 v=0
248040 On ch=1 n=62 v=112
248040 On ch=1 n=67 v=112
248040 On ch=1 n=74 v=112
249179 On ch=1 n=62 v=0
249179 On ch=1 n=67 v=0
249179 On ch=1 n=74 v=0
249360 On ch=1 n=67 v=112
249360 On ch=1 n=74 v=112
249360 On ch=1 n=79 v=112
249815 On ch=1 n=67 v=0
249815 On ch=1 n=74 v=0
249815 On ch=1 n=79 v=0
249840 On ch=1 n=67 v=112
249840 On ch=1 n=79 v=112
250067 On ch=1 n=67 v=0
250067 On ch=1 n=79 v=0
250080 On ch=1 n=67 v=112
250080 On ch=1 n=79 v=112
250307 On ch=1 n=67 v=0
250307 On ch=1 n=79 v=0
250320 On ch=1 n=67 v=112
250320 On ch=1 n=79 v=112
250661 On ch=1 n=67 v=0
250661 On ch=1 n=79 v=0
250680 On ch=1 n=69 v=112
250680 On ch=1 n=76 v=112
250680 On ch=1 n=81 v=112
251021 On ch=1 n=69 v=0
251021 On ch=1 n=76 v=0
251021 On ch=1 n=81 v=0
251040 On ch=1 n=67 v=112
251040 On ch=1 n=74 v=112
251040 On ch=1 n=79 v=112
251723 On ch=1 n=67 v=0
251723 On ch=1 n=74 v=0
251723 On ch=1 n=79 v=0
251760 On ch=1 n=66 v=112
251760 On ch=1 n=74 v=112
251760 On ch=1 n=78 v=112
253355 On ch=1 n=66 v=0
253355 On ch=1 n=74 v=0
253355 On ch=1 n=78 v=0
253440 On ch=1 n=66 v=112
253440 On ch=1 n=74 v=112
253440 On ch=1 n=78 v=112
253667 On ch=1 n=66 v=0
253667 On ch=1 n=74 v=0
253667 On ch=1 n=78 v=0
253680 On ch=1 n=66 v=112
253680 On ch=1 n=78 v=112
253907 On ch=1 n=66 v=0
253907 On ch=1 n=78 v=0
253920 On ch=1 n=66 v=112
253920 On ch=1 n=78 v=112
254147 On ch=1 n=66 v=0
254147 On ch=1 n=78 v=0
254160 On ch=1 n=66 v=112
254160 On ch=1 n=74 v=112
254160 On ch=1 n=78 v=112
254615 On ch=1 n=66 v=0
254615 On ch=1 n=74 v=0
254615 On ch=1 n=78 v=0
254640 On ch=1 n=69 v=112
254640 On ch=1 n=81 v=112
254867 On ch=1 n=69 v=0
254867 On ch=1 n=81 v=0
254880 On ch=1 n=67 v=112
254880 On ch=1 n=79 v=112
255107 On ch=1 n=67 v=0
255107 On ch=1 n=79 v=0
255120 On ch=1 n=66 v=112
255120 On ch=1 n=74 v=112
255120 On ch=1 n=78 v=112
255575 On ch=1 n=66 v=0
255575 On ch=1 n=74 v=0
255575 On ch=1 n=78 v=0
255600 On ch=1 n=64 v=112
255600 On ch=1 n=73 v=112
255600 On ch=1 n=76 v=112
257195 On ch=1 n=64 v=0
257195 On ch=1 n=73 v=0
257195 On ch=1 n=76 v=0
257280 On ch=1 n=74 v=96
257760 On ch=1 n=64 v=96
257760 On ch=1 n=69 v=96
258191 On ch=1 n=74 v=0
258215 On ch=1 n=64 v=0
258215 On ch=1 n=69 v=0
258240 On ch=1 n=73 v=96
258720 On ch=1 n=64 v=96
258720 On ch=1 n=69 v=96
259151 On ch=1 n=73 v=0
259175 On ch=1 n=64 v=0
259175 On ch=1 n=69 v=0
259200 On ch=1 n=71 v=96
259655 On ch=1 n=71 v=0
259680 On ch=1 n=66 v=96
260135 On ch=1 n=66 v=0
260160 On ch=1 n=66 v=96
260387 On ch=1 n=66 v=0
260400 On ch=1 n=66 v=96
260627 On ch=1 n=66 v=0
260640 On ch=1 n=66 v=96
260867 On ch=1 n=66 v=0
260880 On ch=1 n=66 v=96
261107 On ch=1 n=66 v=0
261120 On ch=1 n=66 v=96
261347 On ch=1 n=66 v=0
261360 On ch=1 n=71 v=96
261587 On ch=1 n=71 v=0
261600 On ch=1 n=71 v=96
261827 On ch=1 n=71 v=0
261840 On ch=1 n=71 v=96
262067 On ch=1 n=71 v=0
262080 On ch=1 n=71 v=96
262535 On ch=1 n=71 v=0
262560 On ch=1 n=69 v=96
262787 On ch=1 n=69 v=0
262800 On ch=1 n=71 v=96
263255 On ch=1 n=71 v=0
263280 On ch=1 n=67 v=96
263963 On ch=1 n=67 v=0
264000 On ch=1 n=67 v=96
264227 On ch=1 n=67 v=0
264240 On ch=1 n=67 v=96
264467 On ch=1 n=67 v=0
264480 On ch=1 n=67 v=96
264707 On ch=1 n=67 v=0
264720 On ch=1 n=67 v=96
264947 On ch=1 n=67 v=0
264960 On ch=1 n=67 v=96
265187 On ch=1 n=67 v=0
265200 On ch=1 n=71 v=96
265427 On ch=1 n=71 v=0
265440 On ch=1 n=71 v=96
265781 On ch=1 n=71 v=0
265800 On ch=1 n=71 v=96
266141 On ch=1 n=71 v=0
266160 On ch=1 n=71 v=96
266501 On ch=1 n=71 v=0
266520 On ch=1 n=73 v=96
266861 On ch=1 n=73 v=0
266880 On ch=1 n=74 v=96
267335 On ch=1 n=74 v=0
267360 On ch=1 n=69 v=96
267815 On ch=1 n=69 v=0
267840 On ch=1 n=69 v=96
268067 On ch=1 n=69 v=0
268080 On ch=1 n=69 v=96
268307 On ch=1 n=69 v=0
268320 On ch=1 n=69 v=96
268547 On ch=1 n=69 v=0
268560 On ch=1 n=69 v=96
268787 On ch=1 n=69 v=0
268800 On ch=1 n=69 v=96
269027 On ch=1 n=69 v=0
269040 On ch=1 n=74 v=96
269267 On ch=1 n=74 v=0
269280 On ch=1 n=74 v=96
269507 On ch=1 n=74 v=0
269520 On ch=1 n=74 v=96
269747 On ch=1 n=74 v=0
269760 On ch=1 n=74 v=96
269987 On ch=1 n=74 v=0
270000 On ch=1 n=76 v=96
270455 On ch=1 n=76 v=0
270480 On ch=1 n=76 v=96
270935 On ch=1 n=76 v=0
270960 On ch=1 n=73 v=96
273011 On ch=1 n=73 v=0
273360 On ch=1 n=66 v=107
273360 On ch=1 n=78 v=107
273587 On ch=1 n=66 v=0
273587 On ch=1 n=78 v=0
273600 On ch=1 n=74 v=111
273600 On ch=1 n=86 v=111
274055 On ch=1 n=74 v=0
274055 On ch=1 n=86 v=0
274080 On ch=1 n=74 v=118
274080 On ch=1 n=86 v=118
274307 On ch=1 n=74 v=0
274307 On ch=1 n=86 v=0
274320 On ch=1 n=73 v=122
274320 On ch=1 n=85 v=122
274547 On ch=1 n=73 v=0
274547 On ch=1 n=85 v=0
274560 On ch=1 n=71 v=126
274560 On ch=1 n=78 v=126
274560 On ch=1 n=83 v=126
275015 On ch=1 n=71 v=0
275015 On ch=1 n=78 v=0
275015 On ch=1 n=83 v=0
275040 On ch=1 n=71 v=126
275040 On ch=1 n=78 v=126
275040 On ch=1 n=83 v=126
275495 On ch=1 n=71 v=0
275495 On ch=1 n=78 v=0
275495 On ch=1 n=83 v=0
275520 On ch=1 n=74 v=126
275520 On ch=1 n=86 v=126
275747 On ch=1 n=74 v=0
275747 On ch=1 n=86 v=0
275760 On ch=1 n=73 v=126
275760 On ch=1 n=85 v=126
275987 On ch=1 n=73 v=0
275987 On ch=1 n=85 v=0
276000 On ch=1 n=74 v=126
276000 On ch=1 n=86 v=126
276227 On ch=1 n=74 v=0
276227 On ch=1 n=86 v=0
276240 On ch=1 n=73 v=126
276240 On ch=1 n=85 v=126
276467 On ch=1 n=73 v=0
276467 On ch=1 n=85 v=0
276480 On ch=1 n=71 v=126
276480 On ch=1 n=78 v=126
276480 On ch=1 n=83 v=126
276935 On ch=1 n=71 v=0
276935 On ch=1 n=78 v=0
276935 On ch=1 n=83 v=0
276960 On ch=1 n=71 v=126
276960 On ch=1 n=78 v=126
276960 On ch=1 n=83 v=126
277415 On ch=1 n=71 v=0
277415 On ch=1 n=78 v=0
277415 On ch=1 n=83 v=0
277440 On ch=1 n=74 v=126
277440 On ch=1 n=86 v=126
277667 On ch=1 n=74 v=0
277667 On ch=1 n=86 v=0
277680 On ch=1 n=74 v=126
277680 On ch=1 n=86 v=126
277907 On ch=1 n=74 v=0
277907 On ch=1 n=86 v=0
277920 On ch=1 n=74 v=126
277920 On ch=1 n=86 v=126
278147 On ch=1 n=74 v=0
278147 On ch=1 n=86 v=0
278160 On ch=1 n=73 v=126
278160 On ch=1 n=85 v=126
278387 On ch=1 n=73 v=0
278387 On ch=1 n=85 v=0
278400 On ch=1 n=71 v=126
278400 On ch=1 n=78 v=126
278400 On ch=1 n=83 v=126
278855 On ch=1 n=71 v=0
278855 On ch=1 n=78 v=0
278855 On ch=1 n=83 v=0
278880 On ch=1 n=71 v=126
278880 On ch=1 n=78 v=126
278880 On ch=1 n=83 v=126
279107 On ch=1 n=71 v=0
279107 On ch=1 n=78 v=0
279107 On ch=1 n=83 v=0
279120 On ch=1 n=71 v=126
279120 On ch=1 n=78 v=126
279347 On ch=1 n=71 v=0
279347 On ch=1 n=78 v=0
279360 On ch=1 n=74 v=126
279360 On ch=1 n=79 v=126
279360 On ch=1 n=86 v=126
279815 On ch=1 n=74 v=0
279815 On ch=1 n=79 v=0
279815 On ch=1 n=86 v=0
279840 On ch=1 n=74 v=126
279840 On ch=1 n=79 v=126
279840 On ch=1 n=86 v=126
280067 On ch=1 n=74 v=0
280067 On ch=1 n=79 v=0
280067 On ch=1 n=86 v=0
280080 On ch=1 n=85 v=126
280307 On ch=1 n=85 v=0
280320 On ch=1 n=79 v=126
280320 On ch=1 n=86 v=126
280320 On ch=1 n=91 v=126
280547 On ch=1 n=79 v=0
280547 On ch=1 n=86 v=0
280547 On ch=1 n=91 v=0
280560 On ch=1 n=79 v=126
280560 On ch=1 n=86 v=126
280560 On ch=1 n=91 v=126
280787 On ch=1 n=79 v=0
280787 On ch=1 n=86 v=0
280787 On ch=1 n=91 v=0
280800 On ch=1 n=79 v=126
280800 On ch=1 n=86 v=126
280800 On ch=1 n=91 v=126
281027 On ch=1 n=79 v=0
281027 On ch=1 n=86 v=0
281027 On ch=1 n=91 v=0
281040 On ch=1 n=79 v=126
281040 On ch=1 n=86 v=126
281040 On ch=1 n=91 v=126
281495 On ch=1 n=79 v=0
281495 On ch=1 n=86 v=0
281495 On ch=1 n=91 v=0
281520 On ch=1 n=79 v=126
281520 On ch=1 n=86 v=126
281520 On ch=1 n=91 v=126
281747 On ch=1 n=79 v=0
281747 On ch=1 n=86 v=0
281747 On ch=1 n=91 v=0
281760 On ch=1 n=81 v=126
281760 On ch=1 n=88 v=126
281760 On ch=1 n=93 v=126
281987 On ch=1 n=81 v=0
281987 On ch=1 n=88 v=0
281987 On ch=1 n=93 v=0
282000 On ch=1 n=79 v=126
282000 On ch=1 n=86 v=126
282000 On ch=1 n=91 v=126
282455 On ch=1 n=79 v=0
282455 On ch=1 n=86 v=0
282455 On ch=1 n=91 v=0
282480 On ch=1 n=78 v=126
282480 On ch=1 n=85 v=126
282480 On ch=1 n=90 v=126
284075 On ch=1 n=78 v=0
284075 On ch=1 n=85 v=0
284075 On ch=1 n=90 v=0
284160 On ch=1 n=78 v=126
284160 On ch=1 n=85 v=126
284160 On ch=1 n=90 v=126
284387 On ch=1 n=78 v=0
284387 On ch=1 n=85 v=0
284387 On ch=1 n=90 v=0
284400 On ch=1 n=78 v=126
284400 On ch=1 n=85 v=126
284400 On ch=1 n=90 v=126
284627 On ch=1 n=78 v=0
284627 On ch=1 n=85 v=0
284627 On ch=1 n=90 v=0
284640 On ch=1 n=78 v=126
284640 On ch=1 n=85 v=126
284640 On ch=1 n=90 v=126
284867 On ch=1 n=78 v=0
284867 On ch=1 n=85 v=0
284867 On ch=1 n=90 v=0
284880 On ch=1 n=78 v=126
284880 On ch=1 n=85 v=126
284880 On ch=1 n=90 v=126
285335 On ch=1 n=78 v=0
285335 On ch=1 n=85 v=0
285335 On ch=1 n=90 v=0
285360 On ch=1 n=81 v=126
285360 On ch=1 n=93 v=126
285587 On ch=1 n=81 v=0
285587 On ch=1 n=93 v=0
285600 On ch=1 n=79 v=126
285600 On ch=1 n=91 v=126
285827 On ch=1 n=79 v=0
285827 On ch=1 n=91 v=0
285840 On ch=1 n=78 v=126
285840 On ch=1 n=85 v=126
285840 On ch=1 n=90 v=126
286295 On ch=1 n=78 v=0
286295 On ch=1 n=85 v=0
286295 On ch=1 n=90 v=0
286320 On ch=1 n=76 v=126
286320 On ch=1 n=85 v=126
286320 On ch=1 n=88 v=126
287003 On ch=1 n=76 v=0
287003 On ch=1 n=85 v=0
287003 On ch=1 n=88 v=0
287040 On ch=1 n=76 v=126
287040 On ch=1 n=85 v=126
287040 On ch=1 n=88 v=126
287267 On ch=1 n=76 v=0
287267 On ch=1 n=85 v=0
287267 On ch=1 n=88 v=0
287280 On ch=1 n=76 v=126
287280 On ch=1 n=85 v=126
287280 On ch=1 n=88 v=126
287507 On ch=1 n=76 v=0
287507 On ch=1 n=85 v=0
287507 On ch=1 n=88 v=0
287520 On ch=1 n=76 v=126
287520 On ch=1 n=85 v=126
287520 On ch=1 n=88 v=126
287747 On ch=1 n=76 v=0
287747 On ch=1 n=85 v=0
287747 On ch=1 n=88 v=0
287760 On ch=1 n=76 v=126
287760 On ch=1 n=85 v=126
287760 On ch=1 n=88 v=126
287987 On ch=1 n=76 v=0
287987 On ch=1 n=85 v=0
287987 On ch=1 n=88 v=0
288000 On ch=1 n=76 v=126
288000 On ch=1 n=85 v=126
288000 On ch=1 n=88 v=126
288227 On ch=1 n=76 v=0
288227 On ch=1 n=85 v=0
288227 On ch=1 n=88 v=0
288240 On ch=1 n=76 v=126
288240 On ch=1 n=85 v=126
288240 On ch=1 n=88 v=126
288467 On ch=1 n=76 v=0
288467 On ch=1 n=85 v=0
288467 On ch=1 n=88 v=0
288480 On ch=1 n=76 v=126
288480 On ch=1 n=85 v=126
288480 On ch=1 n=88 v=126
288707 On ch=1 n=76 v=0
288707 On ch=1 n=85 v=0
288707 On ch=1 n=88 v=0
288720 On ch=1 n=74 v=126
288720 On ch=1 n=78 v=126
288947 On ch=1 n=74 v=0
288947 On ch=1 n=78 v=0
288960 On ch=1 n=74 v=126
288960 On ch=1 n=78 v=126
288960 On ch=1 n=86 v=126
289415 On ch=1 n=74 v=0
289415 On ch=1 n=78 v=0
289415 On ch=1 n=86 v=0
289440 On ch=1 n=74 v=126
289440 On ch=1 n=78 v=126
289440 On ch=1 n=86 v=126
289667 On ch=1 n=74 v=0
289667 On ch=1 n=78 v=0
289667 On ch=1 n=86 v=0
289680 On ch=1 n=73 v=126
289680 On ch=1 n=78 v=126
289680 On ch=1 n=85 v=126
289907 On ch=1 n=73 v=0
289907 On ch=1 n=78 v=0
289907 On ch=1 n=85 v=0
289920 On ch=1 n=71 v=126
289920 On ch=1 n=78 v=126
289920 On ch=1 n=83 v=126
290375 On ch=1 n=71 v=0
290375 On ch=1 n=78 v=0
290375 On ch=1 n=83 v=0
290400 On ch=1 n=71 v=126
290400 On ch=1 n=78 v=126
290400 On ch=1 n=83 v=126
290855 On ch=1 n=71 v=0
290855 On ch=1 n=78 v=0
290855 On ch=1 n=83 v=0
290880 On ch=1 n=74 v=126
290880 On ch=1 n=86 v=126
291107 On ch=1 n=74 v=0
291107 On ch=1 n=86 v=0
291120 On ch=1 n=73 v=126
291120 On ch=1 n=85 v=126
291347 On ch=1 n=73 v=0
291347 On ch=1 n=85 v=0
291360 On ch=1 n=74 v=126
291360 On ch=1 n=86 v=126
291587 On ch=1 n=74 v=0
291587 On ch=1 n=86 v=0
291600 On ch=1 n=73 v=126
291600 On ch=1 n=85 v=126
291827 On ch=1 n=73 v=0
291827 On ch=1 n=85 v=0
291840 On ch=1 n=71 v=126
291840 On ch=1 n=78 v=126
291840 On ch=1 n=83 v=126
292295 On ch=1 n=71 v=0
292295 On ch=1 n=78 v=0
292295 On ch=1 n=83 v=0
292320 On ch=1 n=71 v=126
292320 On ch=1 n=78 v=126
292320 On ch=1 n=83 v=126
292775 On ch=1 n=71 v=0
292775 On ch=1 n=78 v=0
292775 On ch=1 n=83 v=0
292800 On ch=1 n=74 v=126
292800 On ch=1 n=86 v=126
293027 On ch=1 n=74 v=0
293027 On ch=1 n=86 v=0
293040 On ch=1 n=74 v=126
293040 On ch=1 n=86 v=126
293267 On ch=1 n=74 v=0
293267 On ch=1 n=86 v=0
293280 On ch=1 n=74 v=126
293280 On ch=1 n=86 v=126
293507 On ch=1 n=74 v=0
293507 On ch=1 n=86 v=0
293520 On ch=1 n=73 v=126
293520 On ch=1 n=85 v=126
293747 On ch=1 n=73 v=0
293747 On ch=1 n=85 v=0
293760 On ch=1 n=71 v=126
293760 On ch=1 n=78 v=126
293760 On ch=1 n=83 v=126
294215 On ch=1 n=71 v=0
294215 On ch=1 n=78 v=0
294215 On ch=1 n=83 v=0
294240 On ch=1 n=71 v=126
294240 On ch=1 n=78 v=126
294240 On ch=1 n=83 v=126
294467 On ch=1 n=71 v=0
294467 On ch=1 n=78 v=0
294467 On ch=1 n=83 v=0
294480 On ch=1 n=71 v=126
294480 On ch=1 n=78 v=126
294707 On ch=1 n=71 v=0
294707 On ch=1 n=78 v=0
294720 On ch=1 n=74 v=126
294720 On ch=1 n=79 v=126
294720 On ch=1 n=86 v=126
295175 On ch=1 n=74 v=0
295175 On ch=1 n=79 v=0
295175 On ch=1 n=86 v=0
295200 On ch=1 n=74 v=126
295200 On ch=1 n=79 v=126
295200 On ch=1 n=86 v=126
295427 On ch=1 n=74 v=0
295427 On ch=1 n=79 v=0
295427 On ch=1 n=86 v=0
295440 On ch=1 n=85 v=126
295667 On ch=1 n=85 v=0
295680 On ch=1 n=79 v=126
295680 On ch=1 n=86 v=126
295680 On ch=1 n=91 v=126
295907 On ch=1 n=79 v=0
295907 On ch=1 n=86 v=0
295907 On ch=1 n=91 v=0
295920 On ch=1 n=79 v=126
295920 On ch=1 n=86 v=126
295920 On ch=1 n=91 v=126
296147 On ch=1 n=79 v=0
296147 On ch=1 n=86 v=0
296147 On ch=1 n=91 v=0
296160 On ch=1 n=79 v=126
296160 On ch=1 n=86 v=126
296160 On ch=1 n=91 v=126
296387 On ch=1 n=79 v=0
296387 On ch=1 n=86 v=0
296387 On ch=1 n=91 v=0
296400 On ch=1 n=79 v=126
296400 On ch=1 n=86 v=126
296400 On ch=1 n=91 v=126
296627 On ch=1 n=79 v=0
296627 On ch=1 n=86 v=0
296627 On ch=1 n=91 v=0
296640 On ch=1 n=79 v=126
296640 On ch=1 n=86 v=126
296640 On ch=1 n=91 v=126
296981 On ch=1 n=79 v=0
296981 On ch=1 n=86 v=0
296981 On ch=1 n=91 v=0
297000 On ch=1 n=81 v=126
297000 On ch=1 n=88 v=126
297000 On ch=1 n=93 v=126
297341 On ch=1 n=81 v=0
297341 On ch=1 n=88 v=0
297341 On ch=1 n=93 v=0
297360 On ch=1 n=79 v=126
297360 On ch=1 n=86 v=126
297360 On ch=1 n=91 v=126
297815 On ch=1 n=79 v=0
297815 On ch=1 n=86 v=0
297815 On ch=1 n=91 v=0
297840 On ch=1 n=78 v=126
297840 On ch=1 n=85 v=126
297840 On ch=1 n=90 v=126
299435 On ch=1 n=78 v=0
299435 On ch=1 n=85 v=0
299435 On ch=1 n=90 v=0
299520 On ch=1 n=78 v=126
299520 On ch=1 n=85 v=126
299520 On ch=1 n=90 v=126
299747 On ch=1 n=78 v=0
299747 On ch=1 n=85 v=0
299747 On ch=1 n=90 v=0
299760 On ch=1 n=78 v=126
299760 On ch=1 n=85 v=126
299760 On ch=1 n=90 v=126
299987 On ch=1 n=78 v=0
299987 On ch=1 n=85 v=0
299987 On ch=1 n=90 v=0
300000 On ch=1 n=78 v=126
300000 On ch=1 n=85 v=126
300000 On ch=1 n=90 v=126
300227 On ch=1 n=78 v=0
300227 On ch=1 n=85 v=0
300227 On ch=1 n=90 v=0
300240 On ch=1 n=78 v=126
300240 On ch=1 n=85 v=126
300240 On ch=1 n=90 v=126
300695 On ch=1 n=78 v=0
300695 On ch=1 n=85 v=0
300695 On ch=1 n=90 v=0
300720 On ch=1 n=81 v=126
300720 On ch=1 n=93 v=126
300947 On ch=1 n=81 v=0
300947 On ch=1 n=93 v=0
300960 On ch=1 n=79 v=126
300960 On ch=1 n=91 v=126
301187 On ch=1 n=79 v=0
301187 On ch=1 n=91 v=0
301200 On ch=1 n=78 v=126
301200 On ch=1 n=90 v=126
301655 On ch=1 n=78 v=0
301655 On ch=1 n=90 v=0
301680 On ch=1 n=76 v=126
301680 On ch=1 n=85 v=126
301680 On ch=1 n=88 v=126
303275 On ch=1 n=76 v=0
303275 On ch=1 n=85 v=0
303275 On ch=1 n=88 v=0
303360 On ch=1 n=74 v=126
303360 On ch=1 n=86 v=126
303815 On ch=1 n=74 v=0
303815 On ch=1 n=86 v=0
303840 On ch=1 n=73 v=126
303840 On ch=1 n=85 v=126
304295 On ch=1 n=73 v=0
304295 On ch=1 n=85 v=0
304320 On ch=1 n=73 v=126
304320 On ch=1 n=85 v=126
304775 On ch=1 n=73 v=0
304775 On ch=1 n=85 v=0
304800 On ch=1 n=71 v=126
304800 On ch=1 n=83 v=126
305255 On ch=1 n=71 v=0
305255 On ch=1 n=83 v=0
305280 On ch=1 n=71 v=126
305280 On ch=1 n=83 v=126
305735 On ch=1 n=71 v=0
305735 On ch=1 n=83 v=0
305760 On ch=1 n=78 v=126
308951 On ch=1 n=78 v=0
308952 Meta TrkEnd
TrkEnd
MTrk
0 KeySig 2 major
0 Meta 0x21 00
11520 On ch=1 n=47 v=96
11975 On ch=1 n=47 v=0
12000 On ch=1 n=54 v=96
12000 On ch=1 n=59 v=96
12911 On ch=1 n=54 v=0
12911 On ch=1 n=59 v=0
12960 On ch=1 n=54 v=96
12960 On ch=1 n=59 v=96
13415 On ch=1 n=54 v=0
13415 On ch=1 n=59 v=0
13440 On ch=1 n=47 v=96
13895 On ch=1 n=47 v=0
13920 On ch=1 n=54 v=96
13920 On ch=1 n=59 v=96
14831 On ch=1 n=54 v=0
14831 On ch=1 n=59 v=0
14880 On ch=1 n=54 v=96
14880 On ch=1 n=59 v=96
15335 On ch=1 n=54 v=0
15335 On ch=1 n=59 v=0
15360 On ch=1 n=43 v=96
15360 On ch=1 n=55 v=96
15815 On ch=1 n=43 v=0
15815 On ch=1 n=55 v=0
15840 On ch=1 n=50 v=96
15840 On ch=1 n=55 v=96
16751 On ch=1 n=50 v=0
16751 On ch=1 n=55 v=0
16800 On ch=1 n=50 v=96
16800 On ch=1 n=55 v=96
17255 On ch=1 n=50 v=0
17255 On ch=1 n=55 v=0
17280 On ch=1 n=43 v=96
17735 On ch=1 n=43 v=0
17760 On ch=1 n=50 v=96
17760 On ch=1 n=55 v=96
18671 On ch=1 n=50 v=0
18671 On ch=1 n=55 v=0
18720 On ch=1 n=50 v=96
18720 On ch=1 n=55 v=96
19175 On ch=1 n=50 v=0
19175 On ch=1 n=55 v=0
19200 On ch=1 n=50 v=96
19655 On ch=1 n=50 v=0
19680 On ch=1 n=57 v=96
19680 On ch=1 n=62 v=96
20591 On ch=1 n=57 v=0
20591 On ch=1 n=62 v=0
20640 On ch=1 n=57 v=96
20640 On ch=1 n=62 v=96
21095 On ch=1 n=57 v=0
21095 On ch=1 n=62 v=0
21120 On ch=1 n=50 v=96
21575 On ch=1 n=50 v=0
21600 On ch=1 n=57 v=96
21600 On ch=1 n=62 v=96
22511 On ch=1 n=57 v=0
22511 On ch=1 n=62 v=0
22560 On ch=1 n=57 v=96
22560 On ch=1 n=62 v=96
23015 On ch=1 n=57 v=0
23015 On ch=1 n=62 v=0
23040 On ch=1 n=45 v=96
23495 On ch=1 n=45 v=0
23520 On ch=1 n=52 v=96
23520 On ch=1 n=57 v=96
24431 On ch=1 n=52 v=0
24431 On ch=1 n=57 v=0
24480 On ch=1 n=52 v=96
24480 On ch=1 n=57 v=96
24935 On ch=1 n=52 v=0
24935 On ch=1 n=57 v=0
24960 On ch=1 n=45 v=96
25871 On ch=1 n=45 v=0
25920 On ch=1 n=61 v=96
26831 On ch=1 n=61 v=0
26880 On ch=1 n=59 v=96
27360 On ch=1 n=54 v=96
27360 On ch=1 n=62 v=96
27815 On ch=1 n=54 v=0
27815 On ch=1 n=62 v=0
28320 On ch=1 n=54 v=96
28320 On ch=1 n=62 v=96
28775 On ch=1 n=54 v=0
28775 On ch=1 n=62 v=0
29280 On ch=1 n=54 v=96
29280 On ch=1 n=62 v=96
29735 On ch=1 n=54 v=0
29735 On ch=1 n=62 v=0
30240 On ch=1 n=54 v=96
30240 On ch=1 n=62 v=96
30527 On ch=1 n=59 v=0
30695 On ch=1 n=54 v=0
30695 On ch=1 n=62 v=0
30720 On ch=1 n=55 v=96
31200 On ch=1 n=59 v=96
31200 On ch=1 n=62 v=96
31655 On ch=1 n=59 v=0
31655 On ch=1 n=62 v=0
32160 On ch=1 n=59 v=96
32160 On ch=1 n=62 v=96
32615 On ch=1 n=59 v=0
32615 On ch=1 n=62 v=0
33120 On ch=1 n=59 v=96
33120 On ch=1 n=62 v=96
33575 On ch=1 n=59 v=0
33575 On ch=1 n=62 v=0
34080 On ch=1 n=59 v=96
34080 On ch=1 n=62 v=96
34367 On ch=1 n=55 v=0
34535 On ch=1 n=59 v=0
34535 On ch=1 n=62 v=0
34560 On ch=1 n=62 v=96
35040 On ch=1 n=57 v=96
35040 On ch=1 n=66 v=96
35495 On ch=1 n=57 v=0
35495 On ch=1 n=66 v=0
36000 On ch=1 n=57 v=96
36000 On ch=1 n=66 v=96
36455 On ch=1 n=57 v=0
36455 On ch=1 n=66 v=0
36960 On ch=1 n=57 v=96
36960 On ch=1 n=66 v=96
37415 On ch=1 n=57 v=0
37415 On ch=1 n=66 v=0
37920 On ch=1 n=57 v=96
37920 On ch=1 n=66 v=96
38207 On ch=1 n=62 v=0
38375 On ch=1 n=57 v=0
38375 On ch=1 n=66 v=0
38400 On ch=1 n=57 v=96
38880 On ch=1 n=61 v=96
38880 On ch=1 n=64 v=96
39335 On ch=1 n=61 v=0
39335 On ch=1 n=64 v=0
39840 On ch=1 n=61 v=96
39840 On ch=1 n=64 v=96
40295 On ch=1 n=61 v=0
40295 On ch=1 n=64 v=0
40800 On ch=1 n=61 v=96
40800 On ch=1 n=64 v=96
41255 On ch=1 n=61 v=0
41255 On ch=1 n=64 v=0
41760 On ch=1 n=61 v=96
41760 On ch=1 n=64 v=96
42047 On ch=1 n=57 v=0
42215 On ch=1 n=61 v=0
42215 On ch=1 n=64 v=0
42240 On ch=1 n=47 v=96
42467 On ch=1 n=47 v=0
42480 On ch=1 n=54 v=96
42707 On ch=1 n=54 v=0
42720 On ch=1 n=59 v=96
42947 On ch=1 n=59 v=0
42960 On ch=1 n=61 v=96
43187 On ch=1 n=61 v=0
43200 On ch=1 n=62 v=96
44111 On ch=1 n=62 v=0
44160 On ch=1 n=47 v=96
44387 On ch=1 n=47 v=0
44400 On ch=1 n=54 v=96
44627 On ch=1 n=54 v=0
44640 On ch=1 n=59 v=96
44867 On ch=1 n=59 v=0
44880 On ch=1 n=61 v=96
45107 On ch=1 n=61 v=0
45120 On ch=1 n=62 v=96
46031 On ch=1 n=62 v=0
46080 On ch=1 n=43 v=96
46307 On ch=1 n=43 v=0
46320 On ch=1 n=50 v=96
46547 On ch=1 n=50 v=0
46560 On ch=1 n=55 v=96
46787 On ch=1 n=55 v=0
46800 On ch=1 n=57 v=96
47027 On ch=1 n=57 v=0
47040 On ch=1 n=59 v=96
47951 On ch=1 n=59 v=0
48000 On ch=1 n=43 v=96
48227 On ch=1 n=43 v=0
48240 On ch=1 n=50 v=96
48467 On ch=1 n=50 v=0
48480 On ch=1 n=55 v=96
48707 On ch=1 n=55 v=0
48720 On ch=1 n=57 v=96
48947 On ch=1 n=57 v=0
48960 On ch=1 n=59 v=96
49871 On ch=1 n=59 v=0
49920 On ch=1 n=50 v=96
50147 On ch=1 n=50 v=0
50160 On ch=1 n=57 v=96
50387 On ch=1 n=57 v=0
50400 On ch=1 n=62 v=96
50627 On ch=1 n=62 v=0
50640 On ch=1 n=64 v=96
50867 On ch=1 n=64 v=0
50880 On ch=1 n=66 v=96
51791 On ch=1 n=66 v=0
51840 On ch=1 n=50 v=96
52067 On ch=1 n=50 v=0
52080 On ch=1 n=57 v=96
52307 On ch=1 n=57 v=0
52320 On ch=1 n=62 v=96
52547 On ch=1 n=62 v=0
52560 On ch=1 n=64 v=96
52787 On ch=1 n=64 v=0
52800 On ch=1 n=66 v=96
53711 On ch=1 n=66 v=0
53760 On ch=1 n=45 v=96
53987 On ch=1 n=45 v=0
54000 On ch=1 n=52 v=96
54227 On ch=1 n=52 v=0
54240 On ch=1 n=57 v=96
54467 On ch=1 n=57 v=0
54480 On ch=1 n=59 v=96
54707 On ch=1 n=59 v=0
54720 On ch=1 n=61 v=96
55631 On ch=1 n=61 v=0
55680 On ch=1 n=45 v=96
55907 On ch=1 n=45 v=0
55920 On ch=1 n=52 v=96
56147 On ch=1 n=52 v=0
56160 On ch=1 n=57 v=96
56387 On ch=1 n=57 v=0
56400 On ch=1 n=59 v=96
56627 On ch=1 n=59 v=0
56640 On ch=1 n=61 v=96
57551 On ch=1 n=61 v=0
57600 On ch=1 n=47 v=96
58055 On ch=1 n=47 v=0
58080 On ch=1 n=59 v=96
58535 On ch=1 n=59 v=0
58560 On ch=1 n=50 v=96
59015 On ch=1 n=50 v=0
59040 On ch=1 n=54 v=96
59495 On ch=1 n=54 v=0
59520 On ch=1 n=47 v=96
59975 On ch=1 n=47 v=0
60000 On ch=1 n=59 v=96
60455 On ch=1 n=59 v=0
60480 On ch=1 n=50 v=96
60935 On ch=1 n=50 v=0
60960 On ch=1 n=54 v=96
61415 On ch=1 n=54 v=0
61440 On ch=1 n=43 v=96
61895 On ch=1 n=43 v=0
61920 On ch=1 n=55 v=96
62375 On ch=1 n=55 v=0
62400 On ch=1 n=47 v=96
62855 On ch=1 n=47 v=0
62880 On ch=1 n=50 v=96
63335 On ch=1 n=50 v=0
63360 On ch=1 n=43 v=96
63815 On ch=1 n=43 v=0
63840 On ch=1 n=55 v=96
64295 On ch=1 n=55 v=0
64320 On ch=1 n=47 v=96
64775 On ch=1 n=47 v=0
64800 On ch=1 n=50 v=96
65255 On ch=1 n=50 v=0
65280 On ch=1 n=50 v=96
65735 On ch=1 n=50 v=0
65760 On ch=1 n=62 v=96
66215 On ch=1 n=62 v=0
66240 On ch=1 n=54 v=96
66695 On ch=1 n=54 v=0
66720 On ch=1 n=57 v=96
67175 On ch=1 n=57 v=0
67200 On ch=1 n=50 v=96
67655 On ch=1 n=50 v=0
67680 On ch=1 n=62 v=96
68135 On ch=1 n=62 v=0
68160 On ch=1 n=54 v=96
68615 On ch=1 n=54 v=0
68640 On ch=1 n=57 v=96
69095 On ch=1 n=57 v=0
69120 On ch=1 n=45 v=96
69575 On ch=1 n=45 v=0
69600 On ch=1 n=57 v=96
70055 On ch=1 n=57 v=0
70080 On ch=1 n=49 v=96
70535 On ch=1 n=49 v=0
70560 On ch=1 n=52 v=96
71015 On ch=1 n=52 v=0
71040 On ch=1 n=45 v=96
71495 On ch=1 n=45 v=0
71520 On ch=1 n=57 v=96
71975 On ch=1 n=57 v=0
72000 On ch=1 n=49 v=96
72455 On ch=1 n=49 v=0
72480 On ch=1 n=52 v=96
72935 On ch=1 n=52 v=0
72960 On ch=1 n=47 v=96
73415 On ch=1 n=47 v=0
73440 On ch=1 n=54 v=96
73440 On ch=1 n=59 v=96
74351 On ch=1 n=54 v=0
74351 On ch=1 n=59 v=0
74400 On ch=1 n=54 v=96
74400 On ch=1 n=59 v=96
74855 On ch=1 n=54 v=0
74855 On ch=1 n=59 v=0
74880 On ch=1 n=47 v=96
75335 On ch=1 n=47 v=0
75360 On ch=1 n=54 v=96
75360 On ch=1 n=59 v=96
76271 On ch=1 n=54 v=0
76271 On ch=1 n=59 v=0
76320 On ch=1 n=54 v=96
76320 On ch=1 n=59 v=96
76775 On ch=1 n=54 v=0
76775 On ch=1 n=59 v=0
76800 On ch=1 n=43 v=96
77255 On ch=1 n=43 v=0
77280 On ch=1 n=50 v=96
77280 On ch=1 n=55 v=96
78191 On ch=1 n=50 v=0
78191 On ch=1 n=55 v=0
78240 On ch=1 n=50 v=96
78240 On ch=1 n=55 v=96
78695 On ch=1 n=50 v=0
78695 On ch=1 n=55 v=0
78720 On ch=1 n=43 v=96
79175 On ch=1 n=43 v=0
79200 On ch=1 n=50 v=96
79200 On ch=1 n=55 v=96
80111 On ch=1 n=50 v=0
80111 On ch=1 n=55 v=0
80160 On ch=1 n=50 v=96
80160 On ch=1 n=55 v=96
80615 On ch=1 n=50 v=0
80615 On ch=1 n=55 v=0
80640 On ch=1 n=50 v=96
81095 On ch=1 n=50 v=0
81120 On ch=1 n=57 v=96
81120 On ch=1 n=62 v=96
82031 On ch=1 n=57 v=0
82031 On ch=1 n=62 v=0
82080 On ch=1 n=57 v=96
82080 On ch=1 n=62 v=96
82535 On ch=1 n=57 v=0
82535 On ch=1 n=62 v=0
82560 On ch=1 n=50 v=96
83015 On ch=1 n=50 v=0
83040 On ch=1 n=57 v=96
83040 On ch=1 n=62 v=96
83951 On ch=1 n=57 v=0
83951 On ch=1 n=62 v=0
84000 On ch=1 n=57 v=96
84000 On ch=1 n=62 v=96
84455 On ch=1 n=57 v=0
84455 On ch=1 n=62 v=0
84480 On ch=1 n=45 v=96
84935 On ch=1 n=45 v=0
84960 On ch=1 n=52 v=96
84960 On ch=1 n=57 v=96
85871 On ch=1 n=52 v=0
85871 On ch=1 n=57 v=0
85920 On ch=1 n=52 v=96
85920 On ch=1 n=57 v=96
86400 On ch=1 n=45 v=96
88199 On ch=1 n=52 v=0
88199 On ch=1 n=57 v=0
88223 On ch=1 n=45 v=0
88320 On ch=1 n=47 v=96
88775 On ch=1 n=47 v=0
88800 On ch=1 n=54 v=96
88800 On ch=1 n=59 v=96
89255 On ch=1 n=54 v=0
89255 On ch=1 n=59 v=0
89280 On ch=1 n=50 v=96
89735 On ch=1 n=50 v=0
89760 On ch=1 n=54 v=96
89760 On ch=1 n=59 v=96
90215 On ch=1 n=54 v=0
90215 On ch=1 n=59 v=0
90240 On ch=1 n=47 v=96
90695 On ch=1 n=47 v=0
90720 On ch=1 n=54 v=96
90720 On ch=1 n=59 v=96
91175 On ch=1 n=54 v=0
91175 On ch=1 n=59 v=0
91200 On ch=1 n=50 v=96
91655 On ch=1 n=50 v=0
91680 On ch=1 n=54 v=96
91680 On ch=1 n=59 v=96
92135 On ch=1 n=54 v=0
92135 On ch=1 n=59 v=0
92160 On ch=1 n=43 v=96
92615 On ch=1 n=43 v=0
92640 On ch=1 n=50 v=96
92640 On ch=1 n=55 v=96
93095 On ch=1 n=50 v=0
93095 On ch=1 n=55 v=0
93120 On ch=1 n=47 v=96
93575 On ch=1 n=47 v=0
93600 On ch=1 n=50 v=96
93600 On ch=1 n=55 v=96
94055 On ch=1 n=50 v=0
94055 On ch=1 n=55 v=0
94080 On ch=1 n=43 v=96
94535 On ch=1 n=43 v=0
94560 On ch=1 n=50 v=96
94560 On ch=1 n=55 v=96
95015 On ch=1 n=50 v=0
95015 On ch=1 n=55 v=0
95040 On ch=1 n=47 v=96
95495 On ch=1 n=47 v=0
95520 On ch=1 n=50 v=96
95520 On ch=1 n=55 v=96
95975 On ch=1 n=50 v=0
95975 On ch=1 n=55 v=0
96000 On ch=1 n=38 v=96
96455 On ch=1 n=38 v=0
96480 On ch=1 n=50 v=96
96480 On ch=1 n=57 v=96
96935 On ch=1 n=50 v=0
96935 On ch=1 n=57 v=0
96960 On ch=1 n=54 v=96
97415 On ch=1 n=54 v=0
97440 On ch=1 n=54 v=96
97440 On ch=1 n=57 v=96
97895 On ch=1 n=54 v=0
97895 On ch=1 n=57 v=0
97920 On ch=1 n=38 v=96
98375 On ch=1 n=38 v=0
98400 On ch=1 n=50 v=96
98400 On ch=1 n=57 v=96
98855 On ch=1 n=50 v=0
98855 On ch=1 n=57 v=0
98880 On ch=1 n=54 v=96
99335 On ch=1 n=54 v=0
99360 On ch=1 n=54 v=96
99360 On ch=1 n=57 v=96
99815 On ch=1 n=54 v=0
99815 On ch=1 n=57 v=0
99840 On ch=1 n=45 v=96
100295 On ch=1 n=45 v=0
100320 On ch=1 n=52 v=96
100320 On ch=1 n=57 v=96
100775 On ch=1 n=52 v=0
100775 On ch=1 n=57 v=0
100800 On ch=1 n=49 v=96
101255 On ch=1 n=49 v=0
101280 On ch=1 n=52 v=96
101280 On ch=1 n=57 v=96
101735 On ch=1 n=52 v=0
101735 On ch=1 n=57 v=0
101760 On ch=1 n=45 v=96
102215 On ch=1 n=45 v=0
102240 On ch=1 n=52 v=96
102240 On ch=1 n=57 v=96
102695 On ch=1 n=52 v=0
102695 On ch=1 n=57 v=0
102720 On ch=1 n=45 v=96
102720 On ch=1 n=57 v=96
103631 On ch=1 n=45 v=0
103631 On ch=1 n=57 v=0
103680 On ch=1 n=35 v=112
103680 On ch=1 n=47 v=112
104135 On ch=1 n=35 v=0
104135 On ch=1 n=47 v=0
104160 On ch=1 n=54 v=112
104160 On ch=1 n=59 v=112
104615 On ch=1 n=54 v=0
104615 On ch=1 n=59 v=0
104640 On ch=1 n=54 v=112
104867 On ch=1 n=54 v=0
104880 On ch=1 n=47 v=112
105107 On ch=1 n=47 v=0
105120 On ch=1 n=54 v=112
105120 On ch=1 n=59 v=112
105575 On ch=1 n=54 v=0
105575 On ch=1 n=59 v=0
105600 On ch=1 n=35 v=112
105600 On ch=1 n=47 v=112
106055 On ch=1 n=35 v=0
106055 On ch=1 n=47 v=0
106080 On ch=1 n=54 v=112
106080 On ch=1 n=59 v=112
106535 On ch=1 n=54 v=0
106535 On ch=1 n=59 v=0
106560 On ch=1 n=54 v=112
106787 On ch=1 n=54 v=0
106800 On ch=1 n=47 v=112
107027 On ch=1 n=47 v=0
107040 On ch=1 n=54 v=112
107040 On ch=1 n=59 v=112
107495 On ch=1 n=54 v=0
107495 On ch=1 n=59 v=0
107520 On ch=1 n=31 v=112
107520 On ch=1 n=43 v=112
107975 On ch=1 n=31 v=0
107975 On ch=1 n=43 v=0
108000 On ch=1 n=50 v=112
108000 On ch=1 n=59 v=112
108455 On ch=1 n=50 v=0
108455 On ch=1 n=59 v=0
108480 On ch=1 n=55 v=112
108707 On ch=1 n=55 v=0
108720 On ch=1 n=50 v=112
108947 On ch=1 n=50 v=0
108960 On ch=1 n=50 v=112
108960 On ch=1 n=59 v=112
109415 On ch=1 n=50 v=0
109415 On ch=1 n=59 v=0
109440 On ch=1 n=31 v=112
109440 On ch=1 n=43 v=112
109895 On ch=1 n=31 v=0
109895 On ch=1 n=43 v=0
109920 On ch=1 n=50 v=112
109920 On ch=1 n=59 v=112
110375 On ch=1 n=50 v=0
110375 On ch=1 n=59 v=0
110400 On ch=1 n=55 v=112
110627 On ch=1 n=55 v=0
110640 On ch=1 n=50 v=112
110867 On ch=1 n=50 v=0
110880 On ch=1 n=50 v=112
110880 On ch=1 n=59 v=112
111335 On ch=1 n=50 v=0
111335 On ch=1 n=59 v=0
111360 On ch=1 n=38 v=112
111360 On ch=1 n=50 v=112
111815 On ch=1 n=38 v=0
111815 On ch=1 n=50 v=0
111840 On ch=1 n=57 v=112
111840 On ch=1 n=62 v=112
112295 On ch=1 n=57 v=0
112295 On ch=1 n=62 v=0
112320 On ch=1 n=57 v=112
112547 On ch=1 n=57 v=0
112560 On ch=1 n=50 v=112
112787 On ch=1 n=50 v=0
112800 On ch=1 n=57 v=112
112800 On ch=1 n=62 v=112
113255 On ch=1 n=57 v=0
113255 On ch=1 n=62 v=0
113280 On ch=1 n=38 v=112
113280 On ch=1 n=50 v=112
113735 On ch=1 n=38 v=0
113735 On ch=1 n=50 v=0
113760 On ch=1 n=57 v=112
113760 On ch=1 n=62 v=112
114215 On ch=1 n=57 v=0
114215 On ch=1 n=62 v=0
114240 On ch=1 n=57 v=112
114467 On ch=1 n=57 v=0
114480 On ch=1 n=50 v=112
114707 On ch=1 n=50 v=0
114720 On ch=1 n=57 v=112
114720 On ch=1 n=62 v=112
115175 On ch=1 n=57 v=0
115175 On ch=1 n=62 v=0
115200 On ch=1 n=33 v=112
115200 On ch=1 n=45 v=112
115655 On ch=1 n=33 v=0
115655 On ch=1 n=45 v=0
115680 On ch=1 n=52 v=112
115680 On ch=1 n=57 v=112
116135 On ch=1 n=52 v=0
116135 On ch=1 n=57 v=0
116160 On ch=1 n=52 v=112
116387 On ch=1 n=52 v=0
116400 On ch=1 n=45 v=112
116627 On ch=1 n=45 v=0
116640 On ch=1 n=52 v=112
116640 On ch=1 n=57 v=112
117095 On ch=1 n=52 v=0
117095 On ch=1 n=57 v=0
117120 On ch=1 n=33 v=112
117120 On ch=1 n=45 v=112
117575 On ch=1 n=33 v=0
117575 On ch=1 n=45 v=0
117600 On ch=1 n=52 v=112
117600 On ch=1 n=57 v=112
118055 On ch=1 n=52 v=0
118055 On ch=1 n=57 v=0
118080 On ch=1 n=52 v=112
118307 On ch=1 n=52 v=0
118320 On ch=1 n=45 v=112
118547 On ch=1 n=45 v=0
118560 On ch=1 n=52 v=112
118560 On ch=1 n=57 v=112
119015 On ch=1 n=52 v=0
119015 On ch=1 n=57 v=0
119040 On ch=1 n=35 v=112
119040 On ch=1 n=47 v=112
119495 On ch=1 n=35 v=0
119495 On ch=1 n=47 v=0
119520 On ch=1 n=54 v=112
119520 On ch=1 n=59 v=112
119975 On ch=1 n=54 v=0
119975 On ch=1 n=59 v=0
120000 On ch=1 n=54 v=112
120227 On ch=1 n=54 v=0
120240 On ch=1 n=47 v=112
120467 On ch=1 n=47 v=0
120480 On ch=1 n=54 v=112
120480 On ch=1 n=59 v=112
120935 On ch=1 n=54 v=0
120935 On ch=1 n=59 v=0
120960 On ch=1 n=35 v=112
120960 On ch=1 n=47 v=112
121415 On ch=1 n=35 v=0
121415 On ch=1 n=47 v=0
121440 On ch=1 n=54 v=112
121440 On ch=1 n=59 v=112
121895 On ch=1 n=54 v=0
121895 On ch=1 n=59 v=0
121920 On ch=1 n=54 v=112
122147 On ch=1 n=54 v=0
122160 On ch=1 n=47 v=112
122387 On ch=1 n=47 v=0
122400 On ch=1 n=54 v=112
122400 On ch=1 n=59 v=112
122855 On ch=1 n=54 v=0
122855 On ch=1 n=59 v=0
122880 On ch=1 n=31 v=112
122880 On ch=1 n=43 v=112
123335 On ch=1 n=31 v=0
123335 On ch=1 n=43 v=0
123360 On ch=1 n=50 v=112
123360 On ch=1 n=59 v=112
123815 On ch=1 n=50 v=0
123815 On ch=1 n=59 v=0
123840 On ch=1 n=55 v=112
124067 On ch=1 n=55 v=0
124080 On ch=1 n=50 v=112
124307 On ch=1 n=50 v=0
124320 On ch=1 n=50 v=112
124320 On ch=1 n=59 v=112
124775 On ch=1 n=50 v=0
124775 On ch=1 n=59 v=0
124800 On ch=1 n=31 v=112
124800 On ch=1 n=43 v=112
125255 On ch=1 n=31 v=0
125255 On ch=1 n=43 v=0
125280 On ch=1 n=50 v=112
125280 On ch=1 n=59 v=112
125735 On ch=1 n=50 v=0
125735 On ch=1 n=59 v=0
125760 On ch=1 n=55 v=112
125987 On ch=1 n=55 v=0
126000 On ch=1 n=50 v=112
126227 On ch=1 n=50 v=0
126240 On ch=1 n=50 v=112
126240 On ch=1 n=59 v=112
126695 On ch=1 n=50 v=0
126695 On ch=1 n=59 v=0
126720 On ch=1 n=38 v=112
126720 On ch=1 n=50 v=112
127175 On ch=1 n=38 v=0
127175 On ch=1 n=50 v=0
127200 On ch=1 n=57 v=112
127200 On ch=1 n=62 v=112
127655 On ch=1 n=57 v=0
127655 On ch=1 n=62 v=0
127680 On ch=1 n=57 v=112
127907 On ch=1 n=57 v=0
127920 On ch=1 n=50 v=112
128147 On ch=1 n=50 v=0
128160 On ch=1 n=57 v=112
128160 On ch=1 n=62 v=112
128615 On ch=1 n=57 v=0
128615 On ch=1 n=62 v=0
128640 On ch=1 n=38 v=112
128640 On ch=1 n=50 v=112
129095 On ch=1 n=38 v=0
129095 On ch=1 n=50 v=0
129120 On ch=1 n=57 v=112
129120 On ch=1 n=62 v=112
129575 On ch=1 n=57 v=0
129575 On ch=1 n=62 v=0
129600 On ch=1 n=57 v=112
129827 On ch=1 n=57 v=0
129840 On ch=1 n=50 v=112
130067 On ch=1 n=50 v=0
130080 On ch=1 n=57 v=112
130080 On ch=1 n=62 v=112
130535 On ch=1 n=57 v=0
130535 On ch=1 n=62 v=0
130560 On ch=1 n=33 v=112
130560 On ch=1 n=45 v=112
131015 On ch=1 n=33 v=0
131015 On ch=1 n=45 v=0
131040 On ch=1 n=52 v=112
131040 On ch=1 n=57 v=112
131495 On ch=1 n=52 v=0
131495 On ch=1 n=57 v=0
131520 On ch=1 n=52 v=112
131747 On ch=1 n=52 v=0
131760 On ch=1 n=45 v=112
131987 On ch=1 n=45 v=0
132000 On ch=1 n=52 v=112
132000 On ch=1 n=57 v=112
132455 On ch=1 n=52 v=0
132455 On ch=1 n=57 v=0
132480 On ch=1 n=33 v=112
132480 On ch=1 n=45 v=112
134303 On ch=1 n=33 v=0
134303 On ch=1 n=45 v=0
134400 On ch=1 n=47 v=96
134855 On ch=1 n=47 v=0
134880 On ch=1 n=59 v=96
135335 On ch=1 n=59 v=0
135360 On ch=1 n=50 v=96
135815 On ch=1 n=50 v=0
135840 On ch=1 n=54 v=96
136295 On ch=1 n=54 v=0
136320 On ch=1 n=47 v=96
136775 On ch=1 n=47 v=0
136800 On ch=1 n=59 v=96
137255 On ch=1 n=59 v=0
137280 On ch=1 n=50 v=96
137735 On ch=1 n=50 v=0
137760 On ch=1 n=54 v=96
138215 On ch=1 n=54 v=0
138240 On ch=1 n=43 v=96
138695 On ch=1 n=43 v=0
138720 On ch=1 n=55 v=96
139175 On ch=1 n=55 v=0
139200 On ch=1 n=47 v=96
139655 On ch=1 n=47 v=0
139680 On ch=1 n=50 v=96
140135 On ch=1 n=50 v=0
140160 On ch=1 n=43 v=96
140615 On ch=1 n=43 v=0
140640 On ch=1 n=55 v=96
141095 On ch=1 n=55 v=0
141120 On ch=1 n=47 v=96
141575 On ch=1 n=47 v=0
141600 On ch=1 n=50 v=96
142055 On ch=1 n=50 v=0
142080 On ch=1 n=50 v=96
142535 On ch=1 n=50 v=0
142560 On ch=1 n=62 v=96
143015 On ch=1 n=62 v=0
143040 On ch=1 n=54 v=96
143495 On ch=1 n=54 v=0
143520 On ch=1 n=57 v=96
143975 On ch=1 n=57 v=0
144000 On ch=1 n=50 v=96
144455 On ch=1 n=50 v=0
144480 On ch=1 n=50 v=96
145391 On ch=1 n=50 v=0
145440 On ch=1 n=62 v=96
145895 On ch=1 n=62 v=0
145920 On ch=1 n=45 v=96
146375 On ch=1 n=45 v=0
146400 On ch=1 n=57 v=96
146855 On ch=1 n=57 v=0
146880 On ch=1 n=49 v=96
147335 On ch=1 n=49 v=0
147360 On ch=1 n=52 v=96
147815 On ch=1 n=52 v=0
147840 On ch=1 n=45 v=96
148295 On ch=1 n=45 v=0
148320 On ch=1 n=45 v=96
149687 On ch=1 n=45 v=0
149760 On ch=1 n=47 v=96
150215 On ch=1 n=47 v=0
150240 On ch=1 n=59 v=96
150695 On ch=1 n=59 v=0
150720 On ch=1 n=50 v=96
151175 On ch=1 n=50 v=0
151200 On ch=1 n=54 v=96
151655 On ch=1 n=54 v=0
151680 On ch=1 n=47 v=96
152135 On ch=1 n=47 v=0
152160 On ch=1 n=59 v=96
152615 On ch=1 n=59 v=0
152640 On ch=1 n=50 v=96
153095 On ch=1 n=50 v=0
153120 On ch=1 n=54 v=96
153575 On ch=1 n=54 v=0
153600 On ch=1 n=43 v=96
154055 On ch=1 n=43 v=0
154080 On ch=1 n=55 v=96
154535 On ch=1 n=55 v=0
154560 On ch=1 n=47 v=96
155015 On ch=1 n=47 v=0
155040 On ch=1 n=50 v=96
155495 On ch=1 n=50 v=0
155520 On ch=1 n=43 v=96
155975 On ch=1 n=43 v=0
156000 On ch=1 n=55 v=96
156455 On ch=1 n=55 v=0
156480 On ch=1 n=47 v=96
156935 On ch=1 n=47 v=0
156960 On ch=1 n=50 v=96
157415 On ch=1 n=50 v=0
157440 On ch=1 n=50 v=96
157895 On ch=1 n=50 v=0
157920 On ch=1 n=62 v=96
158375 On ch=1 n=62 v=0
158400 On ch=1 n=54 v=96
158855 On ch=1 n=54 v=0
158880 On ch=1 n=57 v=96
159335 On ch=1 n=57 v=0
159360 On ch=1 n=50 v=96
159815 On ch=1 n=50 v=0
159840 On ch=1 n=62 v=96
160295 On ch=1 n=62 v=0
160320 On ch=1 n=54 v=96
160775 On ch=1 n=54 v=0
160800 On ch=1 n=57 v=96
161255 On ch=1 n=57 v=0
161280 On ch=1 n=45 v=96
161735 On ch=1 n=45 v=0
161760 On ch=1 n=57 v=96
162215 On ch=1 n=57 v=0
162240 On ch=1 n=49 v=96
162695 On ch=1 n=49 v=0
162720 On ch=1 n=52 v=96
163175 On ch=1 n=52 v=0
163200 On ch=1 n=45 v=96
165023 On ch=1 n=45 v=0
165120 On ch=1 n=47 v=96
165347 On ch=1 n=47 v=0
165360 On ch=1 n=54 v=96
165587 On ch=1 n=54 v=0
165600 On ch=1 n=59 v=96
165827 On ch=1 n=59 v=0
165840 On ch=1 n=61 v=96
166067 On ch=1 n=61 v=0
166080 On ch=1 n=62 v=96
166991 On ch=1 n=62 v=0
167040 On ch=1 n=47 v=96
167267 On ch=1 n=47 v=0
167280 On ch=1 n=54 v=96
167507 On ch=1 n=54 v=0
167520 On ch=1 n=59 v=96
167747 On ch=1 n=59 v=0
167760 On ch=1 n=61 v=96
167987 On ch=1 n=61 v=0
168000 On ch=1 n=62 v=96
168911 On ch=1 n=62 v=0
168960 On ch=1 n=43 v=96
169187 On ch=1 n=43 v=0
169200 On ch=1 n=50 v=96
169427 On ch=1 n=50 v=0
169440 On ch=1 n=55 v=96
169667 On ch=1 n=55 v=0
169680 On ch=1 n=57 v=96
169907 On ch=1 n=57 v=0
169920 On ch=1 n=59 v=96
170831 On ch=1 n=59 v=0
170880 On ch=1 n=43 v=96
171107 On ch=1 n=43 v=0
171120 On ch=1 n=50 v=96
171347 On ch=1 n=50 v=0
171360 On ch=1 n=55 v=96
171587 On ch=1 n=55 v=0
171600 On ch=1 n=57 v=96
171827 On ch=1 n=57 v=0
171840 On ch=1 n=59 v=96
172751 On ch=1 n=59 v=0
172800 On ch=1 n=50 v=96
173027 On ch=1 n=50 v=0
173040 On ch=1 n=57 v=96
173267 On ch=1 n=57 v=0
173280 On ch=1 n=62 v=96
173507 On ch=1 n=62 v=0
173520 On ch=1 n=64 v=96
173747 On ch=1 n=64 v=0
173760 On ch=1 n=66 v=96
174671 On ch=1 n=66 v=0
174720 On ch=1 n=50 v=96
174947 On ch=1 n=50 v=0
174960 On ch=1 n=57 v=96
175187 On ch=1 n=57 v=0
175200 On ch=1 n=62 v=96
175427 On ch=1 n=62 v=0
175440 On ch=1 n=64 v=96
175667 On ch=1 n=64 v=0
175680 On ch=1 n=66 v=96
176591 On ch=1 n=66 v=0
176640 On ch=1 n=45 v=96
176867 On ch=1 n=45 v=0
176880 On ch=1 n=52 v=96
177107 On ch=1 n=52 v=0
177120 On ch=1 n=57 v=96
177347 On ch=1 n=57 v=0
177360 On ch=1 n=59 v=96
177587 On ch=1 n=59 v=0
177600 On ch=1 n=61 v=96
178511 On ch=1 n=61 v=0
178560 On ch=1 n=45 v=96
178787 On ch=1 n=45 v=0
178800 On ch=1 n=52 v=96
179027 On ch=1 n=52 v=0
179040 On ch=1 n=57 v=96
179267 On ch=1 n=57 v=0
179280 On ch=1 n=59 v=96
180419 On ch=1 n=59 v=0
180480 On ch=1 n=47 v=96
180707 On ch=1 n=47 v=0
180720 On ch=1 n=54 v=96
180947 On ch=1 n=54 v=0
180960 On ch=1 n=59 v=96
181187 On ch=1 n=59 v=0
181200 On ch=1 n=61 v=96
181427 On ch=1 n=61 v=0
181440 On ch=1 n=62 v=96
181667 On ch=1 n=62 v=0
181680 On ch=1 n=61 v=96
181907 On ch=1 n=61 v=0
181920 On ch=1 n=62 v=96
182375 On ch=1 n=62 v=0
182400 On ch=1 n=47 v=96
182627 On ch=1 n=47 v=0
182640 On ch=1 n=54 v=96
182867 On ch=1 n=54 v=0
182880 On ch=1 n=59 v=96
183107 On ch=1 n=59 v=0
183120 On ch=1 n=61 v=96
183347 On ch=1 n=61 v=0
183360 On ch=1 n=62 v=96
183587 On ch=1 n=62 v=0
183600 On ch=1 n=61 v=96
183827 On ch=1 n=61 v=0
183840 On ch=1 n=62 v=96
184295 On ch=1 n=62 v=0
184320 On ch=1 n=43 v=96
184547 On ch=1 n=43 v=0
184560 On ch=1 n=50 v=96
184787 On ch=1 n=50 v=0
184800 On ch=1 n=55 v=96
185027 On ch=1 n=55 v=0
185040 On ch=1 n=57 v=96
185267 On ch=1 n=57 v=0
185280 On ch=1 n=59 v=96
185507 On ch=1 n=59 v=0
185520 On ch=1 n=57 v=96
185747 On ch=1 n=57 v=0
185760 On ch=1 n=59 v=96
186215 On ch=1 n=59 v=0
186240 On ch=1 n=43 v=96
186467 On ch=1 n=43 v=0
186480 On ch=1 n=50 v=96
186707 On ch=1 n=50 v=0
186720 On ch=1 n=55 v=96
186947 On ch=1 n=55 v=0
186960 On ch=1 n=57 v=96
187187 On ch=1 n=57 v=0
187200 On ch=1 n=59 v=96
187427 On ch=1 n=59 v=0
187440 On ch=1 n=57 v=96
187667 On ch=1 n=57 v=0
187680 On ch=1 n=59 v=96
188135 On ch=1 n=59 v=0
188160 On ch=1 n=50 v=96
188387 On ch=1 n=50 v=0
188400 On ch=1 n=57 v=96
188627 On ch=1 n=57 v=0
188640 On ch=1 n=62 v=96
188867 On ch=1 n=62 v=0
188880 On ch=1 n=64 v=96
189107 On ch=1 n=64 v=0
189120 On ch=1 n=66 v=96
189347 On ch=1 n=66 v=0
189360 On ch=1 n=64 v=96
189587 On ch=1 n=64 v=0
189600 On ch=1 n=66 v=96
190055 On ch=1 n=66 v=0
190080 On ch=1 n=50 v=96
190307 On ch=1 n=50 v=0
190320 On ch=1 n=57 v=96
190547 On ch=1 n=57 v=0
190560 On ch=1 n=62 v=96
190787 On ch=1 n=62 v=0
190800 On ch=1 n=64 v=96
191027 On ch=1 n=64 v=0
191040 On ch=1 n=66 v=96
191267 On ch=1 n=66 v=0
191280 On ch=1 n=64 v=96
191507 On ch=1 n=64 v=0
191520 On ch=1 n=66 v=96
191975 On ch=1 n=66 v=0
192000 On ch=1 n=45 v=96
192227 On ch=1 n=45 v=0
192240 On ch=1 n=52 v=96
192467 On ch=1 n=52 v=0
192480 On ch=1 n=57 v=96
192707 On ch=1 n=57 v=0
192720 On ch=1 n=59 v=96
192947 On ch=1 n=59 v=0
192960 On ch=1 n=61 v=96
193187 On ch=1 n=61 v=0
193200 On ch=1 n=59 v=96
193427 On ch=1 n=59 v=0
193440 On ch=1 n=61 v=96
193895 On ch=1 n=61 v=0
193920 On ch=1 n=45 v=96
194147 On ch=1 n=45 v=0
194160 On ch=1 n=52 v=96
194387 On ch=1 n=52 v=0
194400 On ch=1 n=57 v=96
194627 On ch=1 n=57 v=0
194640 On ch=1 n=59 v=96
194867 On ch=1 n=59 v=0
194880 On ch=1 n=61 v=96
197615 On ch=1 n=61 v=0
197760 On ch=1 n=47 v=96
198215 On ch=1 n=47 v=0
198240 On ch=1 n=54 v=96
198240 On ch=1 n=59 v=96
198695 On ch=1 n=54 v=0
198695 On ch=1 n=59 v=0
198720 On ch=1 n=50 v=96
199175 On ch=1 n=50 v=0
199200 On ch=1 n=54 v=96
199200 On ch=1 n=59 v=96
199655 On ch=1 n=54 v=0
199655 On ch=1 n=59 v=0
199680 On ch=1 n=47 v=96
200135 On ch=1 n=47 v=0
200160 On ch=1 n=54 v=96
200160 On ch=1 n=59 v=96
200615 On ch=1 n=54 v=0
200615 On ch=1 n=59 v=0
200640 On ch=1 n=50 v=96
201095 On ch=1 n=50 v=0
201120 On ch=1 n=54 v=96
201120 On ch=1 n=59 v=96
201575 On ch=1 n=54 v=0
201575 On ch=1 n=59 v=0
201600 On ch=1 n=43 v=96
202055 On ch=1 n=43 v=0
202080 On ch=1 n=50 v=96
202080 On ch=1 n=55 v=96
202535 On ch=1 n=50 v=0
202535 On ch=1 n=55 v=0
202560 On ch=1 n=47 v=96
203015 On ch=1 n=47 v=0
203040 On ch=1 n=50 v=96
203040 On ch=1 n=55 v=96
203495 On ch=1 n=50 v=0
203495 On ch=1 n=55 v=0
203520 On ch=1 n=43 v=96
203975 On ch=1 n=43 v=0
204000 On ch=1 n=50 v=96
204000 On ch=1 n=55 v=96
204455 On ch=1 n=50 v=0
204455 On ch=1 n=55 v=0
204480 On ch=1 n=47 v=96
204935 On ch=1 n=47 v=0
204960 On ch=1 n=50 v=96
204960 On ch=1 n=55 v=96
205415 On ch=1 n=50 v=0
205415 On ch=1 n=55 v=0
205440 On ch=1 n=38 v=96
205895 On ch=1 n=38 v=0
205920 On ch=1 n=50 v=96
205920 On ch=1 n=57 v=96
206375 On ch=1 n=50 v=0
206375 On ch=1 n=57 v=0
206400 On ch=1 n=54 v=96
206855 On ch=1 n=54 v=0
206880 On ch=1 n=54 v=96
206880 On ch=1 n=57 v=96
207335 On ch=1 n=54 v=0
207335 On ch=1 n=57 v=0
207360 On ch=1 n=38 v=96
207815 On ch=1 n=38 v=0
207840 On ch=1 n=50 v=96
207840 On ch=1 n=57 v=96
208295 On ch=1 n=50 v=0
208295 On ch=1 n=57 v=0
208320 On ch=1 n=54 v=96
208775 On ch=1 n=54 v=0
208800 On ch=1 n=54 v=96
208800 On ch=1 n=57 v=96
209255 On ch=1 n=54 v=0
209255 On ch=1 n=57 v=0
209280 On ch=1 n=45 v=96
209735 On ch=1 n=45 v=0
209760 On ch=1 n=52 v=96
209760 On ch=1 n=57 v=96
210215 On ch=1 n=52 v=0
210215 On ch=1 n=57 v=0
210240 On ch=1 n=49 v=96
210695 On ch=1 n=49 v=0
210720 On ch=1 n=52 v=96
210720 On ch=1 n=57 v=96
211175 On ch=1 n=52 v=0
211175 On ch=1 n=57 v=0
211200 On ch=1 n=45 v=96
211655 On ch=1 n=45 v=0
211680 On ch=1 n=52 v=96
211680 On ch=1 n=57 v=96
212135 On ch=1 n=52 v=0
212135 On ch=1 n=57 v=0
212160 On ch=1 n=49 v=96
212615 On ch=1 n=49 v=0
212640 On ch=1 n=52 v=96
212640 On ch=1 n=57 v=96
213095 On ch=1 n=52 v=0
213095 On ch=1 n=57 v=0
213120 On ch=1 n=47 v=96
213575 On ch=1 n=47 v=0
213600 On ch=1 n=54 v=96
213600 On ch=1 n=59 v=96
214055 On ch=1 n=54 v=0
214055 On ch=1 n=59 v=0
214080 On ch=1 n=50 v=96
214535 On ch=1 n=50 v=0
214560 On ch=1 n=54 v=96
214560 On ch=1 n=59 v=96
215015 On ch=1 n=54 v=0
215015 On ch=1 n=59 v=0
215040 On ch=1 n=47 v=96
215495 On ch=1 n=47 v=0
215520 On ch=1 n=54 v=96
215520 On ch=1 n=59 v=96
215975 On ch=1 n=54 v=0
215975 On ch=1 n=59 v=0
216000 On ch=1 n=50 v=96
216455 On ch=1 n=50 v=0
216480 On ch=1 n=54 v=96
216480 On ch=1 n=59 v=96
216935 On ch=1 n=54 v=0
216935 On ch=1 n=59 v=0
216960 On ch=1 n=43 v=96
217415 On ch=1 n=43 v=0
217440 On ch=1 n=50 v=96
217440 On ch=1 n=55 v=96
217895 On ch=1 n=50 v=0
217895 On ch=1 n=55 v=0
217920 On ch=1 n=47 v=96
218375 On ch=1 n=47 v=0
218400 On ch=1 n=50 v=96
218400 On ch=1 n=55 v=96
218855 On ch=1 n=50 v=0
218855 On ch=1 n=55 v=0
218880 On ch=1 n=43 v=96
219335 On ch=1 n=43 v=0
219360 On ch=1 n=50 v=96
219360 On ch=1 n=55 v=96
219815 On ch=1 n=50 v=0
219815 On ch=1 n=55 v=0
219840 On ch=1 n=47 v=96
220295 On ch=1 n=47 v=0
220320 On ch=1 n=50 v=96
220320 On ch=1 n=55 v=96
220775 On ch=1 n=50 v=0
220775 On ch=1 n=55 v=0
220800 On ch=1 n=38 v=96
221255 On ch=1 n=38 v=0
221280 On ch=1 n=50 v=96
221280 On ch=1 n=57 v=96
221735 On ch=1 n=50 v=0
221735 On ch=1 n=57 v=0
221760 On ch=1 n=54 v=96
222215 On ch=1 n=54 v=0
222240 On ch=1 n=54 v=96
222240 On ch=1 n=57 v=96
222695 On ch=1 n=54 v=0
222695 On ch=1 n=57 v=0
222720 On ch=1 n=38 v=96
223175 On ch=1 n=38 v=0
223200 On ch=1 n=50 v=96
223200 On ch=1 n=57 v=96
223655 On ch=1 n=50 v=0
223655 On ch=1 n=57 v=0
223680 On ch=1 n=54 v=96
224135 On ch=1 n=54 v=0
224160 On ch=1 n=54 v=96
224160 On ch=1 n=57 v=96
224615 On ch=1 n=54 v=0
224615 On ch=1 n=57 v=0
224640 On ch=1 n=45 v=96
225095 On ch=1 n=45 v=0
225120 On ch=1 n=52 v=96
225120 On ch=1 n=57 v=96
225575 On ch=1 n=52 v=0
225575 On ch=1 n=57 v=0
225600 On ch=1 n=49 v=96
226055 On ch=1 n=49 v=0
226080 On ch=1 n=52 v=96
226080 On ch=1 n=57 v=96
226535 On ch=1 n=52 v=0
226535 On ch=1 n=57 v=0
226560 On ch=1 n=45 v=96
227015 On ch=1 n=45 v=0
227040 On ch=1 n=52 v=96
227040 On ch=1 n=57 v=96
227495 On ch=1 n=52 v=0
227495 On ch=1 n=57 v=0
227520 On ch=1 n=45 v=96
227520 On ch=1 n=57 v=96
228431 On ch=1 n=45 v=0
228431 On ch=1 n=57 v=0
228480 On ch=1 n=35 v=112
228480 On ch=1 n=47 v=112
228935 On ch=1 n=35 v=0
228935 On ch=1 n=47 v=0
228960 On ch=1 n=54 v=112
228960 On ch=1 n=59 v=112
229415 On ch=1 n=54 v=0
229415 On ch=1 n=59 v=0
229440 On ch=1 n=54 v=112
229667 On ch=1 n=54 v=0
229680 On ch=1 n=47 v=112
229907 On ch=1 n=47 v=0
229920 On ch=1 n=54 v=112
229920 On ch=1 n=59 v=112
230375 On ch=1 n=54 v=0
230375 On ch=1 n=59 v=0
230400 On ch=1 n=35 v=112
230400 On ch=1 n=47 v=112
230855 On ch=1 n=35 v=0
230855 On ch=1 n=47 v=0
230880 On ch=1 n=54 v=112
230880 On ch=1 n=59 v=112
231335 On ch=1 n=54 v=0
231335 On ch=1 n=59 v=0
231360 On ch=1 n=54 v=112
231587 On ch=1 n=54 v=0
231600 On ch=1 n=47 v=112
231827 On ch=1 n=47 v=0
231840 On ch=1 n=54 v=112
231840 On ch=1 n=59 v=112
232295 On ch=1 n=54 v=0
232295 On ch=1 n=59 v=0
232320 On ch=1 n=31 v=112
232320 On ch=1 n=43 v=112
232775 On ch=1 n=31 v=0
232775 On ch=1 n=43 v=0
232800 On ch=1 n=50 v=112
232800 On ch=1 n=59 v=112
233255 On ch=1 n=50 v=0
233255 On ch=1 n=59 v=0
233280 On ch=1 n=55 v=112
233507 On ch=1 n=55 v=0
233520 On ch=1 n=50 v=112
233747 On ch=1 n=50 v=0
233760 On ch=1 n=50 v=112
233760 On ch=1 n=59 v=112
234215 On ch=1 n=50 v=0
234215 On ch=1 n=59 v=0
234240 On ch=1 n=31 v=112
234240 On ch=1 n=43 v=112
234695 On ch=1 n=31 v=0
234695 On ch=1 n=43 v=0
234720 On ch=1 n=50 v=112
234720 On ch=1 n=59 v=112
235175 On ch=1 n=50 v=0
235175 On ch=1 n=59 v=0
235200 On ch=1 n=55 v=112
235427 On ch=1 n=55 v=0
235440 On ch=1 n=50 v=112
235667 On ch=1 n=50 v=0
235680 On ch=1 n=50 v=112
235680 On ch=1 n=59 v=112
236135 On ch=1 n=50 v=0
236135 On ch=1 n=59 v=0
236160 On ch=1 n=38 v=112
236160 On ch=1 n=50 v=112
236615 On ch=1 n=38 v=0
236615 On ch=1 n=50 v=0
236640 On ch=1 n=57 v=112
236640 On ch=1 n=62 v=112
237095 On ch=1 n=57 v=0
237095 On ch=1 n=62 v=0
237120 On ch=1 n=57 v=112
237347 On ch=1 n=57 v=0
237360 On ch=1 n=50 v=112
237587 On ch=1 n=50 v=0
237600 On ch=1 n=57 v=112
237600 On ch=1 n=62 v=112
238055 On ch=1 n=57 v=0
238055 On ch=1 n=62 v=0
238080 On ch=1 n=38 v=112
238080 On ch=1 n=50 v=112
238535 On ch=1 n=38 v=0
238535 On ch=1 n=50 v=0
238560 On ch=1 n=57 v=112
238560 On ch=1 n=62 v=112
239015 On ch=1 n=57 v=0
239015 On ch=1 n=62 v=0
239040 On ch=1 n=57 v=112
239267 On ch=1 n=57 v=0
239280 On ch=1 n=50 v=112
239507 On ch=1 n=50 v=0
239520 On ch=1 n=57 v=112
239520 On ch=1 n=62 v=112
239975 On ch=1 n=57 v=0
239975 On ch=1 n=62 v=0
240000 On ch=1 n=33 v=112
240000 On ch=1 n=45 v=112
240455 On ch=1 n=33 v=0
240455 On ch=1 n=45 v=0
240480 On ch=1 n=52 v=112
240480 On ch=1 n=57 v=112
240935 On ch=1 n=52 v=0
240935 On ch=1 n=57 v=0
240960 On ch=1 n=52 v=112
241187 On ch=1 n=52 v=0
241200 On ch=1 n=45 v=112
241427 On ch=1 n=45 v=0
241440 On ch=1 n=52 v=112
241440 On ch=1 n=57 v=112
241895 On ch=1 n=52 v=0
241895 On ch=1 n=57 v=0
241920 On ch=1 n=33 v=112
241920 On ch=1 n=45 v=112
242375 On ch=1 n=33 v=0
242375 On ch=1 n=45 v=0
242400 On ch=1 n=52 v=112
242400 On ch=1 n=57 v=112
242855 On ch=1 n=52 v=0
242855 On ch=1 n=57 v=0
242880 On ch=1 n=52 v=112
243107 On ch=1 n=52 v=0
243120 On ch=1 n=45 v=112
243347 On ch=1 n=45 v=0
243360 On ch=1 n=52 v=112
243360 On ch=1 n=57 v=112
243815 On ch=1 n=52 v=0
243815 On ch=1 n=57 v=0
243840 On ch=1 n=35 v=112
243840 On ch=1 n=47 v=112
244295 On ch=1 n=35 v=0
244295 On ch=1 n=47 v=0
244320 On ch=1 n=54 v=112
244320 On ch=1 n=59 v=112
244775 On ch=1 n=54 v=0
244775 On ch=1 n=59 v=0
244800 On ch=1 n=54 v=112
245027 On ch=1 n=54 v=0
245040 On ch=1 n=47 v=112
245267 On ch=1 n=47 v=0
245280 On ch=1 n=54 v=112
245280 On ch=1 n=59 v=112
245735 On ch=1 n=54 v=0
245735 On ch=1 n=59 v=0
245760 On ch=1 n=35 v=112
245760 On ch=1 n=47 v=112
246215 On ch=1 n=35 v=0
246215 On ch=1 n=47 v=0
246240 On ch=1 n=54 v=112
246240 On ch=1 n=59 v=112
246695 On ch=1 n=54 v=0
246695 On ch=1 n=59 v=0
246720 On ch=1 n=54 v=112
246947 On ch=1 n=54 v=0
246960 On ch=1 n=47 v=112
247187 On ch=1 n=47 v=0
247200 On ch=1 n=54 v=112
247200 On ch=1 n=59 v=112
247655 On ch=1 n=54 v=0
247655 On ch=1 n=59 v=0
247680 On ch=1 n=31 v=112
247680 On ch=1 n=43 v=112
248135 On ch=1 n=31 v=0
248135 On ch=1 n=43 v=0
248160 On ch=1 n=50 v=112
248160 On ch=1 n=59 v=112
248615 On ch=1 n=50 v=0
248615 On ch=1 n=59 v=0
248640 On ch=1 n=55 v=112
248867 On ch=1 n=55 v=0
248880 On ch=1 n=50 v=112
249107 On ch=1 n=50 v=0
249120 On ch=1 n=50 v=112
249120 On ch=1 n=59 v=112
249575 On ch=1 n=50 v=0
249575 On ch=1 n=59 v=0
249600 On ch=1 n=31 v=112
249600 On ch=1 n=43 v=112
250055 On ch=1 n=31 v=0
250055 On ch=1 n=43 v=0
250080 On ch=1 n=50 v=112
250080 On ch=1 n=59 v=112
250535 On ch=1 n=50 v=0
250535 On ch=1 n=59 v=0
250560 On ch=1 n=55 v=112
250787 On ch=1 n=55 v=0
250800 On ch=1 n=50 v=112
251027 On ch=1 n=50 v=0
251040 On ch=1 n=50 v=112
251040 On ch=1 n=59 v=112
251495 On ch=1 n=50 v=0
251495 On ch=1 n=59 v=0
251520 On ch=1 n=38 v=112
251520 On ch=1 n=50 v=112
251975 On ch=1 n=38 v=0
251975 On ch=1 n=50 v=0
252000 On ch=1 n=57 v=112
252000 On ch=1 n=62 v=112
252455 On ch=1 n=57 v=0
252455 On ch=1 n=62 v=0
252480 On ch=1 n=57 v=112
252707 On ch=1 n=57 v=0
252720 On ch=1 n=50 v=112
252947 On ch=1 n=50 v=0
252960 On ch=1 n=57 v=112
252960 On ch=1 n=62 v=112
253415 On ch=1 n=57 v=0
253415 On ch=1 n=62 v=0
253440 On ch=1 n=38 v=112
253440 On ch=1 n=50 v=112
253895 On ch=1 n=38 v=0
253895 On ch=1 n=50 v=0
253920 On ch=1 n=57 v=112
253920 On ch=1 n=62 v=112
254375 On ch=1 n=57 v=0
254375 On ch=1 n=62 v=0
254400 On ch=1 n=57 v=112
254627 On ch=1 n=57 v=0
254640 On ch=1 n=50 v=112
254867 On ch=1 n=50 v=0
254880 On ch=1 n=57 v=112
254880 On ch=1 n=62 v=112
255335 On ch=1 n=57 v=0
255335 On ch=1 n=62 v=0
255360 On ch=1 n=33 v=112
255360 On ch=1 n=45 v=112
255815 On ch=1 n=33 v=0
255815 On ch=1 n=45 v=0
255840 On ch=1 n=52 v=112
255840 On ch=1 n=57 v=112
256295 On ch=1 n=52 v=0
256295 On ch=1 n=57 v=0
256320 On ch=1 n=52 v=112
256547 On ch=1 n=52 v=0
256560 On ch=1 n=45 v=112
256787 On ch=1 n=45 v=0
256800 On ch=1 n=52 v=112
256800 On ch=1 n=57 v=112
259079 On ch=1 n=52 v=0
259079 On ch=1 n=57 v=0
259200 On ch=1 n=59 v=96
259680 On ch=1 n=54 v=96
259680 On ch=1 n=62 v=96
260135 On ch=1 n=54 v=0
260135 On ch=1 n=62 v=0
260640 On ch=1 n=54 v=96
260640 On ch=1 n=62 v=96
261095 On ch=1 n=54 v=0
261095 On ch=1 n=62 v=0
261600 On ch=1 n=54 v=96
261600 On ch=1 n=62 v=96
262055 On ch=1 n=54 v=0
262055 On ch=1 n=62 v=0
262560 On ch=1 n=54 v=96
262560 On ch=1 n=62 v=96
262847 On ch=1 n=59 v=0
263015 On ch=1 n=54 v=0
263015 On ch=1 n=62 v=0
263040 On ch=1 n=55 v=96
263520 On ch=1 n=59 v=96
263520 On ch=1 n=62 v=96
263975 On ch=1 n=59 v=0
263975 On ch=1 n=62 v=0
264480 On ch=1 n=59 v=96
264480 On ch=1 n=62 v=96
264935 On ch=1 n=59 v=0
264935 On ch=1 n=62 v=0
265440 On ch=1 n=59 v=96
265440 On ch=1 n=62 v=96
265895 On ch=1 n=59 v=0
265895 On ch=1 n=62 v=0
266400 On ch=1 n=59 v=96
266400 On ch=1 n=62 v=96
266687 On ch=1 n=55 v=0
266855 On ch=1 n=59 v=0
266855 On ch=1 n=62 v=0
266880 On ch=1 n=62 v=96
267360 On ch=1 n=57 v=96
267360 On ch=1 n=66 v=96
267815 On ch=1 n=57 v=0
267815 On ch=1 n=66 v=0
268320 On ch=1 n=57 v=96
268320 On ch=1 n=66 v=96
268775 On ch=1 n=57 v=0
268775 On ch=1 n=66 v=0
269280 On ch=1 n=57 v=96
269280 On ch=1 n=66 v=96
269735 On ch=1 n=57 v=0
269735 On ch=1 n=66 v=0
270240 On ch=1 n=57 v=96
270240 On ch=1 n=66 v=96
270527 On ch=1 n=62 v=0
270695 On ch=1 n=57 v=0
270695 On ch=1 n=66 v=0
270720 On ch=1 n=57 v=96
271200 On ch=1 n=61 v=96
271200 On ch=1 n=64 v=96
271655 On ch=1 n=61 v=0
271655 On ch=1 n=64 v=0
272160 On ch=1 n=61 v=96
272160 On ch=1 n=64 v=96
272543 On ch=1 n=57 v=0
272615 On ch=1 n=61 v=0
272615 On ch=1 n=64 v=0
272640 On ch=1 n=45 v=96
272640 On ch=1 n=57 v=96
273095 On ch=1 n=45 v=0
273095 On ch=1 n=57 v=0
273120 On ch=1 n=45 v=103
273120 On ch=1 n=57 v=103
273575 On ch=1 n=45 v=0
273575 On ch=1 n=57 v=0
273600 On ch=1 n=45 v=111
273600 On ch=1 n=57 v=111
273827 On ch=1 n=45 v=0
273827 On ch=1 n=57 v=0
273840 On ch=1 n=45 v=114
273840 On ch=1 n=57 v=114
274067 On ch=1 n=45 v=0
274067 On ch=1 n=57 v=0
274080 On ch=1 n=45 v=118
274080 On ch=1 n=57 v=118
274307 On ch=1 n=45 v=0
274307 On ch=1 n=57 v=0
274320 On ch=1 n=45 v=122
274320 On ch=1 n=57 v=122
274547 On ch=1 n=45 v=0
274547 On ch=1 n=57 v=0
274560 On ch=1 n=35 v=126
274560 On ch=1 n=47 v=126
275015 On ch=1 n=35 v=0
275015 On ch=1 n=47 v=0
275040 On ch=1 n=54 v=126
275040 On ch=1 n=59 v=126
275267 On ch=1 n=54 v=0
275267 On ch=1 n=59 v=0
275280 On ch=1 n=47 v=126
275507 On ch=1 n=47 v=0
275520 On ch=1 n=54 v=126
275747 On ch=1 n=54 v=0
275760 On ch=1 n=47 v=126
275987 On ch=1 n=47 v=0
276000 On ch=1 n=54 v=126
276000 On ch=1 n=59 v=126
276455 On ch=1 n=54 v=0
276455 On ch=1 n=59 v=0
276480 On ch=1 n=35 v=126
276480 On ch=1 n=47 v=126
276935 On ch=1 n=35 v=0
276935 On ch=1 n=47 v=0
276960 On ch=1 n=54 v=126
276960 On ch=1 n=59 v=126
277187 On ch=1 n=54 v=0
277187 On ch=1 n=59 v=0
277200 On ch=1 n=47 v=126
277427 On ch=1 n=47 v=0
277440 On ch=1 n=54 v=126
277667 On ch=1 n=54 v=0
277680 On ch=1 n=47 v=126
277907 On ch=1 n=47 v=0
277920 On ch=1 n=54 v=126
277920 On ch=1 n=59 v=126
278375 On ch=1 n=54 v=0
278375 On ch=1 n=59 v=0
278400 On ch=1 n=31 v=126
278400 On ch=1 n=43 v=126
278855 On ch=1 n=31 v=0
278855 On ch=1 n=43 v=0
278880 On ch=1 n=50 v=126
278880 On ch=1 n=59 v=126
279107 On ch=1 n=50 v=0
279107 On ch=1 n=59 v=0
279120 On ch=1 n=50 v=126
279347 On ch=1 n=50 v=0
279360 On ch=1 n=55 v=126
279587 On ch=1 n=55 v=0
279600 On ch=1 n=50 v=126
279827 On ch=1 n=50 v=0
279840 On ch=1 n=50 v=126
279840 On ch=1 n=59 v=126
280295 On ch=1 n=50 v=0
280295 On ch=1 n=59 v=0
280320 On ch=1 n=31 v=126
280320 On ch=1 n=43 v=126
280775 On ch=1 n=31 v=0
280775 On ch=1 n=43 v=0
280800 On ch=1 n=50 v=126
280800 On ch=1 n=59 v=126
281027 On ch=1 n=50 v=0
281027 On ch=1 n=59 v=0
281040 On ch=1 n=50 v=126
281267 On ch=1 n=50 v=0
281280 On ch=1 n=55 v=126
281507 On ch=1 n=55 v=0
281520 On ch=1 n=50 v=126
281747 On ch=1 n=50 v=0
281760 On ch=1 n=50 v=126
281760 On ch=1 n=59 v=126
282215 On ch=1 n=50 v=0
282215 On ch=1 n=59 v=0
282240 On ch=1 n=38 v=126
282240 On ch=1 n=50 v=126
282695 On ch=1 n=38 v=0
282695 On ch=1 n=50 v=0
282720 On ch=1 n=57 v=126
282720 On ch=1 n=62 v=126
282947 On ch=1 n=57 v=0
282947 On ch=1 n=62 v=0
282960 On ch=1 n=50 v=126
283187 On ch=1 n=50 v=0
283200 On ch=1 n=57 v=126
283427 On ch=1 n=57 v=0
283440 On ch=1 n=50 v=126
283667 On ch=1 n=50 v=0
283680 On ch=1 n=57 v=126
283680 On ch=1 n=62 v=126
284135 On ch=1 n=57 v=0
284135 On ch=1 n=62 v=0
284160 On ch=1 n=38 v=126
284160 On ch=1 n=50 v=126
284615 On ch=1 n=38 v=0
284615 On ch=1 n=50 v=0
284640 On ch=1 n=57 v=126
284640 On ch=1 n=62 v=126
284867 On ch=1 n=57 v=0
284867 On ch=1 n=62 v=0
284880 On ch=1 n=50 v=126
285107 On ch=1 n=50 v=0
285120 On ch=1 n=57 v=126
285347 On ch=1 n=57 v=0
285360 On ch=1 n=50 v=126
285587 On ch=1 n=50 v=0
285600 On ch=1 n=57 v=126
285600 On ch=1 n=62 v=126
286055 On ch=1 n=57 v=0
286055 On ch=1 n=62 v=0
286080 On ch=1 n=33 v=126
286080 On ch=1 n=45 v=126
286535 On ch=1 n=33 v=0
286535 On ch=1 n=45 v=0
286560 On ch=1 n=52 v=126
286560 On ch=1 n=57 v=126
286787 On ch=1 n=52 v=0
286787 On ch=1 n=57 v=0
286800 On ch=1 n=45 v=126
287027 On ch=1 n=45 v=0
287040 On ch=1 n=52 v=126
287267 On ch=1 n=52 v=0
287280 On ch=1 n=45 v=126
287507 On ch=1 n=45 v=0
287520 On ch=1 n=52 v=126
287520 On ch=1 n=57 v=126
287975 On ch=1 n=52 v=0
287975 On ch=1 n=57 v=0
288000 On ch=1 n=33 v=126
288000 On ch=1 n=45 v=126
288455 On ch=1 n=33 v=0
288455 On ch=1 n=45 v=0
288480 On ch=1 n=52 v=126
288480 On ch=1 n=57 v=126
288707 On ch=1 n=52 v=0
288707 On ch=1 n=57 v=0
288720 On ch=1 n=45 v=126
288947 On ch=1 n=45 v=0
288960 On ch=1 n=52 v=126
289187 On ch=1 n=52 v=0
289200 On ch=1 n=45 v=126
289427 On ch=1 n=45 v=0
289440 On ch=1 n=52 v=126
289440 On ch=1 n=57 v=126
289895 On ch=1 n=52 v=0
289895 On ch=1 n=57 v=0
289920 On ch=1 n=35 v=126
289920 On ch=1 n=47 v=126
290375 On ch=1 n=35 v=0
290375 On ch=1 n=47 v=0
290400 On ch=1 n=54 v=126
290400 On ch=1 n=59 v=126
291311 On ch=1 n=54 v=0
291311 On ch=1 n=59 v=0
291360 On ch=1 n=54 v=126
291360 On ch=1 n=59 v=126
291815 On ch=1 n=54 v=0
291815 On ch=1 n=59 v=0
291840 On ch=1 n=35 v=126
291840 On ch=1 n=47 v=126
292295 On ch=1 n=35 v=0
292295 On ch=1 n=47 v=0
292320 On ch=1 n=54 v=126
292320 On ch=1 n=59 v=126
293231 On ch=1 n=54 v=0
293231 On ch=1 n=59 v=0
293280 On ch=1 n=54 v=126
293280 On ch=1 n=59 v=126
293735 On ch=1 n=54 v=0
293735 On ch=1 n=59 v=0
293760 On ch=1 n=31 v=126
293760 On ch=1 n=43 v=126
294215 On ch=1 n=31 v=0
294215 On ch=1 n=43 v=0
294240 On ch=1 n=50 v=126
294240 On ch=1 n=59 v=126
295151 On ch=1 n=50 v=0
295151 On ch=1 n=59 v=0
295200 On ch=1 n=50 v=126
295200 On ch=1 n=59 v=126
295655 On ch=1 n=50 v=0
295655 On ch=1 n=59 v=0
295680 On ch=1 n=31 v=126
295680 On ch=1 n=43 v=126
296135 On ch=1 n=31 v=0
296135 On ch=1 n=43 v=0
296160 On ch=1 n=50 v=126
296160 On ch=1 n=59 v=126
297071 On ch=1 n=50 v=0
297071 On ch=1 n=59 v=0
297120 On ch=1 n=50 v=126
297120 On ch=1 n=59 v=126
297575 On ch=1 n=50 v=0
297575 On ch=1 n=59 v=0
297600 On ch=1 n=38 v=126
297600 On ch=1 n=50 v=126
298055 On ch=1 n=38 v=0
298055 On ch=1 n=50 v=0
298080 On ch=1 n=57 v=126
298080 On ch=1 n=62 v=126
298991 On ch=1 n=57 v=0
298991 On ch=1 n=62 v=0
299040 On ch=1 n=57 v=126
299040 On ch=1 n=62 v=126
299495 On ch=1 n=57 v=0
299495 On ch=1 n=62 v=0
299520 On ch=1 n=38 v=126
299520 On ch=1 n=50 v=126
299975 On ch=1 n=38 v=0
299975 On ch=1 n=50 v=0
300000 On ch=1 n=57 v=126
300000 On ch=1 n=62 v=126
300911 On ch=1 n=57 v=0
300911 On ch=1 n=62 v=0
300960 On ch=1 n=57 v=126
300960 On ch=1 n=62 v=126
301415 On ch=1 n=57 v=0
301415 On ch=1 n=62 v=0
301440 On ch=1 n=33 v=126
301440 On ch=1 n=45 v=126
301667 On ch=1 n=33 v=0
301667 On ch=1 n=45 v=0
301680 On ch=1 n=49 v=126
301907 On ch=1 n=49 v=0
301920 On ch=1 n=52 v=126
302147 On ch=1 n=52 v=0
302160 On ch=1 n=57 v=126
302387 On ch=1 n=57 v=0
302400 On ch=1 n=61 v=126
302627 On ch=1 n=61 v=0
302640 On ch=1 n=64 v=126
302867 On ch=1 n=64 v=0
302880 On ch=1 n=69 v=126
303107 On ch=1 n=69 v=0
303120 On ch=1 n=73 v=126
303347 On ch=1 n=73 v=0
305280 On ch=1 n=35 v=126
305280 On ch=1 n=47 v=126
308927 On ch=1 n=35 v=0
308927 On ch=1 n=47 v=0
308928 Meta TrkEnd
TrkEnd
