MFile 1 3 480
MTrk
0 Meta SeqName "\xffffffb8\xffffffe6\xffffffb0\xffffffd7\xffffffc6\xfffffff8\xffffffc7\xfffffff2"
0 TimeSig 4/4 24 8
0 Tempo 664450
148080 Meta TrkEnd
TrkEnd
MTrk
0 Meta TrkName "Piano"
0 Meta InstrName "Microsoft GS Wavetable Synth"
0 KeySig 5 major
0 PrCh ch=1 p=0
0 Par ch=1 c=10 v=64
720 On ch=1 n=78 v=70
936 Off ch=1 n=78 v=64
960 On ch=1 n=83 v=70
1176 Off ch=1 n=83 v=64
1200 On ch=1 n=82 v=70
1416 Off ch=1 n=82 v=64
1440 On ch=1 n=78 v=70
1656 Off ch=1 n=78 v=64
1680 On ch=1 n=71 v=70
2400 Off ch=1 n=71 v=64
2400 On ch=1 n=78 v=70
2616 Off ch=1 n=78 v=64
2640 On ch=1 n=73 v=70
3120 Off ch=1 n=73 v=64
3120 On ch=1 n=75 v=70
3336 Off ch=1 n=75 v=64
3360 On ch=1 n=76 v=70
3576 Off ch=1 n=76 v=64
3600 On ch=1 n=75 v=70
3816 Off ch=1 n=75 v=64
4560 On ch=1 n=71 v=80
4710 On ch=1 n=75 v=80
4740 On ch=1 n=78 v=80
4770 On ch=1 n=83 v=80
4776 Off ch=1 n=71 v=64
5016 Off ch=1 n=75 v=64
5016 Off ch=1 n=78 v=64
5016 Off ch=1 n=83 v=64
5040 On ch=1 n=82 v=80
5040 On ch=1 n=73 v=80
5256 Off ch=1 n=82 v=64
5256 Off ch=1 n=73 v=64
5280 On ch=1 n=78 v=80
5280 On ch=1 n=75 v=80
5280 On ch=1 n=71 v=80
5496 Off ch=1 n=78 v=64
5496 Off ch=1 n=75 v=64
5496 Off ch=1 n=71 v=64
5520 On ch=1 n=71 v=80
5520 On ch=1 n=66 v=80
5736 Off ch=1 n=71 v=64
5736 Off ch=1 n=66 v=64
6240 On ch=1 n=78 v=80
6456 Off ch=1 n=78 v=64
6480 On ch=1 n=73 v=80
6696 Off ch=1 n=73 v=64
6960 On ch=1 n=75 v=80
7176 Off ch=1 n=75 v=64
7200 On ch=1 n=76 v=80
7416 Off ch=1 n=76 v=64
7440 On ch=1 n=75 v=80
7656 Off ch=1 n=75 v=64
8310 On ch=1 n=76 v=80
8355 On ch=1 n=78 v=80
8616 Off ch=1 n=76 v=64
8616 Off ch=1 n=78 v=64
8640 On ch=1 n=85 v=80
8856 Off ch=1 n=85 v=64
8880 On ch=1 n=83 v=80
9096 Off ch=1 n=83 v=64
9120 On ch=1 n=82 v=80
9336 Off ch=1 n=82 v=64
9360 On ch=1 n=83 v=80
9840 Off ch=1 n=83 v=64
10080 On ch=1 n=85 v=100
10296 Off ch=1 n=85 v=64
10320 On ch=1 n=87 v=100
10800 Off ch=1 n=87 v=64
10800 On ch=1 n=83 v=100
11190 On ch=1 n=80 v=100
11235 On ch=1 n=83 v=100
11280 Off ch=1 n=83 v=64
12000 Off ch=1 n=80 v=64
12000 Off ch=1 n=83 v=64
12000 On ch=1 n=82 v=100
12216 Off ch=1 n=82 v=64
12240 On ch=1 n=83 v=100
12720 Off ch=1 n=83 v=64
12720 On ch=1 n=78 v=100
12720 On ch=1 n=75 v=100
12720 On ch=1 n=70 v=100
13368 Off ch=1 n=78 v=64
13368 Off ch=1 n=75 v=64
13368 Off ch=1 n=70 v=64
13440 On ch=1 n=78 v=100
13656 Off ch=1 n=78 v=64
13680 On ch=1 n=76 v=100
13896 Off ch=1 n=76 v=64
13920 On ch=1 n=75 v=100
14136 Off ch=1 n=75 v=64
14160 On ch=1 n=73 v=100
14640 Off ch=1 n=73 v=64
14640 On ch=1 n=71 v=100
15288 Off ch=1 n=71 v=64
15360 On ch=1 n=64 v=80
15360 On ch=1 n=68 v=80
15360 On ch=1 n=71 v=80
16008 Off ch=1 n=64 v=64
16008 Off ch=1 n=68 v=64
16008 Off ch=1 n=71 v=64
16080 On ch=1 n=73 v=80
16080 On ch=1 n=66 v=80
16080 On ch=1 n=63 v=80
17376 Off ch=1 n=73 v=64
17376 Off ch=1 n=66 v=64
17376 Off ch=1 n=63 v=64
17640 On ch=1 n=59 v=80
17760 Off ch=1 n=59 v=64
17760 On ch=1 n=59 v=80
17880 Off ch=1 n=59 v=64
17880 On ch=1 n=58 v=80
18000 Off ch=1 n=58 v=64
18000 On ch=1 n=59 v=80
18216 Off ch=1 n=59 v=64
18360 On ch=1 n=59 v=80
18480 Off ch=1 n=59 v=64
18480 On ch=1 n=59 v=80
18600 Off ch=1 n=59 v=64
18600 On ch=1 n=58 v=80
18720 Off ch=1 n=58 v=64
18720 On ch=1 n=59 v=80
18960 Off ch=1 n=59 v=64
19200 On ch=1 n=61 v=80
19440 Off ch=1 n=61 v=64
19560 On ch=1 n=58 v=80
19680 Off ch=1 n=58 v=64
19680 On ch=1 n=58 v=80
19800 Off ch=1 n=58 v=64
19800 On ch=1 n=57 v=80
19920 Off ch=1 n=57 v=64
19920 On ch=1 n=58 v=80
20160 Off ch=1 n=58 v=64
20280 On ch=1 n=58 v=80
20400 Off ch=1 n=58 v=64
20400 On ch=1 n=58 v=80
20520 Off ch=1 n=58 v=64
20520 On ch=1 n=57 v=80
20640 Off ch=1 n=57 v=64
20640 On ch=1 n=58 v=80
20880 Off ch=1 n=58 v=64
21120 On ch=1 n=59 v=80
21360 Off ch=1 n=59 v=64
21840 On ch=1 n=56 v=80
22080 Off ch=1 n=56 v=64
22080 On ch=1 n=59 v=80
22320 Off ch=1 n=59 v=64
22320 On ch=1 n=63 v=80
22560 Off ch=1 n=63 v=64
22560 On ch=1 n=61 v=80
22800 Off ch=1 n=61 v=64
22800 On ch=1 n=59 v=80
23040 Off ch=1 n=59 v=64
23040 On ch=1 n=63 v=80
23520 Off ch=1 n=63 v=64
23520 On ch=1 n=64 v=80
23640 Off ch=1 n=64 v=64
23640 On ch=1 n=63 v=80
23760 Off ch=1 n=63 v=64
24240 On ch=1 n=66 v=80
24456 Off ch=1 n=66 v=64
24480 On ch=1 n=59 v=80
24480 On ch=1 n=64 v=80
24696 Off ch=1 n=59 v=64
24720 On ch=1 n=63 v=80
24960 Off ch=1 n=64 v=64
24960 On ch=1 n=54 v=80
24960 On ch=1 n=61 v=80
25176 Off ch=1 n=54 v=64
25200 Off ch=1 n=63 v=64
25200 On ch=1 n=59 v=80
25320 Off ch=1 n=61 v=64
25320 Off ch=1 n=59 v=64
25320 On ch=1 n=59 v=80
25560 Off ch=1 n=59 v=64
25560 On ch=1 n=58 v=80
25680 Off ch=1 n=58 v=64
25680 On ch=1 n=59 v=80
25920 Off ch=1 n=59 v=64
26040 On ch=1 n=59 v=80
26280 Off ch=1 n=59 v=64
26280 On ch=1 n=58 v=80
26400 Off ch=1 n=58 v=64
26400 On ch=1 n=59 v=80
26640 Off ch=1 n=59 v=64
26880 On ch=1 n=61 v=80
27120 Off ch=1 n=61 v=64
27240 On ch=1 n=58 v=80
27480 Off ch=1 n=58 v=64
27480 On ch=1 n=56 v=80
27600 Off ch=1 n=56 v=64
27600 On ch=1 n=58 v=80
27840 Off ch=1 n=58 v=64
27960 On ch=1 n=58 v=80
28200 Off ch=1 n=58 v=64
28200 On ch=1 n=56 v=80
28320 Off ch=1 n=56 v=64
28320 On ch=1 n=58 v=80
28560 Off ch=1 n=58 v=64
28800 On ch=1 n=59 v=80
29040 Off ch=1 n=59 v=64
29520 On ch=1 n=56 v=80
29760 Off ch=1 n=56 v=64
29760 On ch=1 n=59 v=80
30000 Off ch=1 n=59 v=64
30000 On ch=1 n=63 v=80
30240 Off ch=1 n=63 v=64
30240 On ch=1 n=61 v=80
30480 Off ch=1 n=61 v=64
30480 On ch=1 n=59 v=80
30720 Off ch=1 n=59 v=64
30720 On ch=1 n=59 v=80
30960 Off ch=1 n=59 v=64
32355 On ch=1 n=63 v=80
32400 On ch=1 n=68 v=80
32616 Off ch=1 n=63 v=64
32640 Off ch=1 n=68 v=64
32640 On ch=1 n=70 v=80
32856 Off ch=1 n=70 v=64
32880 On ch=1 n=71 v=80
33120 Off ch=1 n=71 v=64
33120 On ch=1 n=71 v=80
33360 Off ch=1 n=71 v=64
33360 On ch=1 n=71 v=80
33600 Off ch=1 n=71 v=64
33600 On ch=1 n=71 v=80
33840 Off ch=1 n=71 v=64
33840 On ch=1 n=71 v=80
34080 Off ch=1 n=71 v=64
34320 On ch=1 n=68 v=80
34560 Off ch=1 n=68 v=64
34560 On ch=1 n=70 v=80
34800 Off ch=1 n=70 v=64
34800 On ch=1 n=71 v=80
35040 Off ch=1 n=71 v=64
35040 On ch=1 n=71 v=80
35280 Off ch=1 n=71 v=64
35280 On ch=1 n=71 v=80
35520 Off ch=1 n=71 v=64
35520 On ch=1 n=73 v=80
35760 Off ch=1 n=73 v=64
35760 On ch=1 n=73 v=80
36000 Off ch=1 n=73 v=64
36240 On ch=1 n=66 v=80
36480 Off ch=1 n=66 v=64
36480 On ch=1 n=68 v=80
36720 Off ch=1 n=68 v=64
36720 On ch=1 n=70 v=80
36960 Off ch=1 n=70 v=64
36960 On ch=1 n=70 v=80
37200 Off ch=1 n=70 v=64
37200 On ch=1 n=70 v=80
37440 Off ch=1 n=70 v=64
37440 On ch=1 n=70 v=80
37680 Off ch=1 n=70 v=64
37680 On ch=1 n=70 v=80
37920 Off ch=1 n=70 v=64
38160 On ch=1 n=66 v=80
38400 Off ch=1 n=66 v=64
38400 On ch=1 n=68 v=80
38640 Off ch=1 n=68 v=64
38640 On ch=1 n=70 v=80
38880 Off ch=1 n=70 v=64
38880 On ch=1 n=70 v=80
39120 Off ch=1 n=70 v=64
39120 On ch=1 n=70 v=80
39360 Off ch=1 n=70 v=64
39360 On ch=1 n=71 v=80
39600 Off ch=1 n=71 v=64
39600 On ch=1 n=71 v=80
39840 Off ch=1 n=71 v=64
40080 On ch=1 n=71 v=80
40320 Off ch=1 n=71 v=64
40320 On ch=1 n=73 v=80
40560 Off ch=1 n=73 v=64
40560 On ch=1 n=75 v=80
40560 On ch=1 n=70 v=80
40776 Off ch=1 n=70 v=64
40800 Off ch=1 n=75 v=64
40800 On ch=1 n=75 v=80
41040 Off ch=1 n=75 v=64
41040 On ch=1 n=75 v=80
41280 Off ch=1 n=75 v=64
41280 On ch=1 n=71 v=80
41280 On ch=1 n=66 v=80
41496 Off ch=1 n=66 v=64
41520 Off ch=1 n=71 v=64
41520 On ch=1 n=71 v=80
41760 Off ch=1 n=71 v=64
42000 On ch=1 n=71 v=80
42240 Off ch=1 n=71 v=64
42240 On ch=1 n=73 v=80
42480 Off ch=1 n=73 v=64
42480 On ch=1 n=75 v=80
42480 On ch=1 n=71 v=80
42480 On ch=1 n=68 v=80
42696 Off ch=1 n=71 v=64
42696 Off ch=1 n=68 v=64
42720 Off ch=1 n=75 v=64
42720 On ch=1 n=75 v=80
42960 Off ch=1 n=75 v=64
42960 On ch=1 n=75 v=80
43200 Off ch=1 n=75 v=64
43200 On ch=1 n=71 v=80
43200 On ch=1 n=68 v=80
43416 Off ch=1 n=68 v=64
43440 Off ch=1 n=71 v=64
43440 On ch=1 n=71 v=80
43680 Off ch=1 n=71 v=64
43920 On ch=1 n=71 v=80
44160 Off ch=1 n=71 v=64
44160 On ch=1 n=73 v=80
44400 Off ch=1 n=73 v=64
44400 On ch=1 n=75 v=80
44640 Off ch=1 n=75 v=64
44640 On ch=1 n=75 v=80
44880 Off ch=1 n=75 v=64
44880 On ch=1 n=75 v=80
45120 Off ch=1 n=75 v=64
45120 On ch=1 n=75 v=80
45360 Off ch=1 n=75 v=64
45600 On ch=1 n=71 v=80
45840 Off ch=1 n=71 v=64
45840 On ch=1 n=73 v=80
46080 Off ch=1 n=73 v=64
46080 On ch=1 n=73 v=80
46560 Off ch=1 n=73 v=64
46560 On ch=1 n=75 v=80
46560 On ch=1 n=71 v=80
46560 On ch=1 n=66 v=80
46992 Off ch=1 n=71 v=64
46992 Off ch=1 n=66 v=64
47040 Off ch=1 n=75 v=64
47520 On ch=1 n=59 v=80
47520 On ch=1 n=66 v=80
47520 On ch=1 n=71 v=80
47736 Off ch=1 n=59 v=64
47736 Off ch=1 n=66 v=64
47760 Off ch=1 n=71 v=64
47760 On ch=1 n=64 v=80
47760 On ch=1 n=71 v=80
47760 On ch=1 n=76 v=80
47976 Off ch=1 n=64 v=64
47976 Off ch=1 n=71 v=64
48000 Off ch=1 n=76 v=64
48000 On ch=1 n=63 v=80
48000 On ch=1 n=75 v=80
48720 Off ch=1 n=63 v=64
48720 Off ch=1 n=75 v=64
48720 On ch=1 n=64 v=80
48720 On ch=1 n=71 v=80
48720 On ch=1 n=76 v=80
48936 Off ch=1 n=64 v=64
48936 Off ch=1 n=71 v=64
48960 Off ch=1 n=76 v=64
48960 On ch=1 n=63 v=80
48960 On ch=1 n=70 v=80
48960 On ch=1 n=75 v=80
49440 Off ch=1 n=63 v=64
49440 Off ch=1 n=70 v=64
49440 Off ch=1 n=75 v=64
49440 On ch=1 n=61 v=80
49440 On ch=1 n=68 v=80
49440 On ch=1 n=73 v=80
49872 Off ch=1 n=61 v=64
49872 Off ch=1 n=68 v=64
49920 Off ch=1 n=73 v=64
49920 On ch=1 n=59 v=80
49920 On ch=1 n=71 v=80
50640 Off ch=1 n=59 v=64
50640 Off ch=1 n=71 v=64
50640 On ch=1 n=61 v=80
50640 On ch=1 n=68 v=80
50640 On ch=1 n=73 v=80
50856 Off ch=1 n=61 v=64
50856 Off ch=1 n=68 v=64
50880 Off ch=1 n=73 v=64
50880 On ch=1 n=63 v=80
50880 On ch=1 n=71 v=80
50880 On ch=1 n=75 v=80
51096 Off ch=1 n=71 v=64
51360 Off ch=1 n=63 v=64
51360 Off ch=1 n=75 v=64
51360 On ch=1 n=59 v=80
51360 On ch=1 n=71 v=80
51792 Off ch=1 n=59 v=64
51840 Off ch=1 n=71 v=64
52080 On ch=1 n=56 v=80
52080 On ch=1 n=68 v=80
52512 Off ch=1 n=56 v=64
52560 Off ch=1 n=68 v=64
52560 On ch=1 n=59 v=80
52560 On ch=1 n=66 v=80
52560 On ch=1 n=71 v=80
52776 Off ch=1 n=59 v=64
52776 Off ch=1 n=66 v=64
52800 Off ch=1 n=71 v=64
52800 On ch=1 n=66 v=80
52800 On ch=1 n=78 v=80
53280 Off ch=1 n=66 v=64
53280 Off ch=1 n=78 v=64
53280 On ch=1 n=59 v=80
53280 On ch=1 n=66 v=80
53280 On ch=1 n=71 v=80
53496 Off ch=1 n=59 v=64
53496 Off ch=1 n=66 v=64
53520 Off ch=1 n=71 v=64
53520 On ch=1 n=63 v=80
53520 On ch=1 n=71 v=80
53520 On ch=1 n=75 v=80
53736 Off ch=1 n=63 v=64
53736 Off ch=1 n=71 v=64
53760 Off ch=1 n=75 v=64
53760 On ch=1 n=63 v=80
53760 On ch=1 n=75 v=80
53976 Off ch=1 n=63 v=64
54000 Off ch=1 n=75 v=64
55200 On ch=1 n=59 v=80
55200 On ch=1 n=66 v=80
55200 On ch=1 n=71 v=80
55416 Off ch=1 n=59 v=64
55416 Off ch=1 n=66 v=64
55440 Off ch=1 n=71 v=64
55440 On ch=1 n=64 v=80
55440 On ch=1 n=73 v=80
55440 On ch=1 n=76 v=80
55656 Off ch=1 n=64 v=64
55656 Off ch=1 n=73 v=64
55680 Off ch=1 n=76 v=64
55680 On ch=1 n=63 v=80
55680 On ch=1 n=71 v=80
55680 On ch=1 n=75 v=80
55896 Off ch=1 n=71 v=64
56400 Off ch=1 n=63 v=64
56400 Off ch=1 n=75 v=64
56400 On ch=1 n=64 v=80
56400 On ch=1 n=73 v=80
56400 On ch=1 n=76 v=80
56616 Off ch=1 n=64 v=64
56616 Off ch=1 n=73 v=64
56640 Off ch=1 n=76 v=64
56640 On ch=1 n=63 v=80
56640 On ch=1 n=66 v=80
56640 On ch=1 n=75 v=80
57120 Off ch=1 n=63 v=64
57120 Off ch=1 n=66 v=64
57120 Off ch=1 n=75 v=64
57120 On ch=1 n=61 v=80
57120 On ch=1 n=70 v=80
57120 On ch=1 n=73 v=80
57552 Off ch=1 n=61 v=64
57552 Off ch=1 n=70 v=64
57600 Off ch=1 n=73 v=64
57600 On ch=1 n=59 v=80
57600 On ch=1 n=71 v=80
58320 Off ch=1 n=59 v=64
58320 Off ch=1 n=71 v=64
58320 On ch=1 n=61 v=80
58320 On ch=1 n=70 v=80
58320 On ch=1 n=73 v=80
58536 Off ch=1 n=61 v=64
58536 Off ch=1 n=70 v=64
58560 Off ch=1 n=73 v=64
58560 On ch=1 n=63 v=80
58560 On ch=1 n=66 v=80
58560 On ch=1 n=75 v=80
58776 Off ch=1 n=66 v=64
59040 Off ch=1 n=63 v=64
59040 Off ch=1 n=75 v=64
59040 On ch=1 n=80 v=80
59040 On ch=1 n=75 v=80
59040 On ch=1 n=71 v=80
59040 On ch=1 n=68 v=80
59472 Off ch=1 n=75 v=64
59472 Off ch=1 n=71 v=64
59472 Off ch=1 n=68 v=64
59520 Off ch=1 n=80 v=64
59760 On ch=1 n=75 v=80
59760 On ch=1 n=63 v=80
60192 Off ch=1 n=63 v=64
60240 Off ch=1 n=75 v=64
60240 On ch=1 n=56 v=80
60240 On ch=1 n=68 v=80
60456 Off ch=1 n=56 v=64
60480 Off ch=1 n=68 v=64
60480 On ch=1 n=59 v=80
60480 On ch=1 n=71 v=80
60960 Off ch=1 n=59 v=64
60960 Off ch=1 n=71 v=64
60960 On ch=1 n=73 v=80
60960 On ch=1 n=61 v=80
61392 Off ch=1 n=61 v=64
61440 Off ch=1 n=73 v=64
61440 On ch=1 n=59 v=80
61440 On ch=1 n=71 v=80
61656 Off ch=1 n=59 v=64
61680 Off ch=1 n=71 v=64
62880 On ch=1 n=66 v=80
63120 Off ch=1 n=66 v=64
63120 On ch=1 n=71 v=80
63360 Off ch=1 n=71 v=64
63360 On ch=1 n=73 v=80
63600 Off ch=1 n=73 v=64
63600 On ch=1 n=75 v=80
64080 Off ch=1 n=75 v=64
64080 On ch=1 n=78 v=80
64560 Off ch=1 n=78 v=64
64560 On ch=1 n=73 v=80
65040 Off ch=1 n=73 v=64
65280 On ch=1 n=66 v=80
65520 Off ch=1 n=66 v=64
65520 On ch=1 n=71 v=80
66000 Off ch=1 n=71 v=64
66000 On ch=1 n=78 v=80
66000 On ch=1 n=75 v=80
66480 Off ch=1 n=78 v=64
66480 Off ch=1 n=75 v=64
66480 On ch=1 n=70 v=80
66960 Off ch=1 n=70 v=64
67200 On ch=1 n=70 v=80
67308 Off ch=1 n=70 v=64
67320 On ch=1 n=71 v=80
67374 Off ch=1 n=71 v=64
67380 On ch=1 n=70 v=80
67434 Off ch=1 n=70 v=64
67440 On ch=1 n=68 v=80
67920 Off ch=1 n=68 v=64
67920 On ch=1 n=70 v=80
68400 Off ch=1 n=70 v=64
68400 On ch=1 n=68 v=80
68400 On ch=1 n=71 v=80
69120 Off ch=1 n=68 v=64
69120 Off ch=1 n=71 v=64
69120 On ch=1 n=73 v=80
69270 On ch=1 n=66 v=80
69300 On ch=1 n=71 v=80
69330 On ch=1 n=75 v=80
69360 Off ch=1 n=73 v=64
70320 Off ch=1 n=66 v=64
70320 Off ch=1 n=71 v=64
70320 Off ch=1 n=75 v=64
70560 On ch=1 n=66 v=80
70800 Off ch=1 n=66 v=64
70800 On ch=1 n=71 v=80
71040 Off ch=1 n=71 v=64
71040 On ch=1 n=73 v=80
71280 Off ch=1 n=73 v=64
71280 On ch=1 n=75 v=80
71280 On ch=1 n=71 v=80
71280 On ch=1 n=66 v=80
71760 Off ch=1 n=75 v=64
71760 Off ch=1 n=71 v=64
71760 Off ch=1 n=66 v=64
71760 On ch=1 n=78 v=80
72180 On ch=1 n=66 v=80
72210 On ch=1 n=70 v=80
72240 Off ch=1 n=78 v=64
72240 On ch=1 n=73 v=80
72960 Off ch=1 n=66 v=64
72960 Off ch=1 n=70 v=64
72960 Off ch=1 n=73 v=64
72960 On ch=1 n=66 v=80
73200 Off ch=1 n=66 v=64
73200 On ch=1 n=71 v=80
73680 Off ch=1 n=71 v=64
73680 On ch=1 n=78 v=80
73680 On ch=1 n=75 v=80
73680 On ch=1 n=66 v=80
74160 Off ch=1 n=78 v=64
74160 Off ch=1 n=75 v=64
74160 Off ch=1 n=66 v=64
74160 On ch=1 n=70 v=80
74640 Off ch=1 n=70 v=64
74880 On ch=1 n=70 v=80
74988 Off ch=1 n=70 v=64
75000 On ch=1 n=71 v=80
75054 Off ch=1 n=71 v=64
75060 On ch=1 n=70 v=80
75114 Off ch=1 n=70 v=64
75120 On ch=1 n=68 v=80
75600 Off ch=1 n=68 v=64
75600 On ch=1 n=70 v=80
76035 On ch=1 n=68 v=80
76080 Off ch=1 n=70 v=64
76080 On ch=1 n=71 v=80
76800 Off ch=1 n=68 v=64
76800 Off ch=1 n=71 v=64
76800 On ch=1 n=73 v=80
76950 On ch=1 n=66 v=80
76980 On ch=1 n=71 v=80
77010 On ch=1 n=75 v=80
77040 Off ch=1 n=73 v=64
78000 Off ch=1 n=66 v=64
78000 Off ch=1 n=71 v=64
78000 Off ch=1 n=75 v=64
79080 On ch=1 n=59 v=80
79200 Off ch=1 n=59 v=64
79200 On ch=1 n=59 v=80
79320 Off ch=1 n=59 v=64
79320 On ch=1 n=58 v=80
79440 Off ch=1 n=58 v=64
79440 On ch=1 n=59 v=80
79680 Off ch=1 n=59 v=64
79800 On ch=1 n=59 v=80
79920 Off ch=1 n=59 v=64
79920 On ch=1 n=59 v=80
80040 Off ch=1 n=59 v=64
80040 On ch=1 n=58 v=80
80160 Off ch=1 n=58 v=64
80160 On ch=1 n=59 v=80
80400 Off ch=1 n=59 v=64
80640 On ch=1 n=61 v=80
80880 Off ch=1 n=61 v=64
81000 On ch=1 n=58 v=80
81120 Off ch=1 n=58 v=64
81120 On ch=1 n=58 v=80
81240 Off ch=1 n=58 v=64
81240 On ch=1 n=57 v=80
81360 Off ch=1 n=57 v=64
81360 On ch=1 n=58 v=80
81600 Off ch=1 n=58 v=64
81720 On ch=1 n=58 v=80
81840 Off ch=1 n=58 v=64
81840 On ch=1 n=58 v=80
81960 Off ch=1 n=58 v=64
81960 On ch=1 n=57 v=80
82080 Off ch=1 n=57 v=64
82080 On ch=1 n=58 v=80
82200 Off ch=1 n=58 v=64
82560 On ch=1 n=59 v=80
83040 Off ch=1 n=59 v=64
83280 On ch=1 n=56 v=80
83520 Off ch=1 n=56 v=64
83520 On ch=1 n=59 v=80
83760 Off ch=1 n=59 v=64
83760 On ch=1 n=63 v=80
84000 Off ch=1 n=63 v=64
84000 On ch=1 n=61 v=80
84240 Off ch=1 n=61 v=64
84240 On ch=1 n=59 v=80
84480 Off ch=1 n=59 v=64
84480 On ch=1 n=63 v=80
84720 Off ch=1 n=63 v=64
84960 On ch=1 n=64 v=80
85080 Off ch=1 n=64 v=64
85080 On ch=1 n=63 v=80
85320 Off ch=1 n=63 v=64
85920 On ch=1 n=64 v=80
86160 On ch=1 n=63 v=80
86400 Off ch=1 n=64 v=64
86400 On ch=1 n=61 v=80
86640 Off ch=1 n=63 v=64
86760 Off ch=1 n=61 v=64
86760 On ch=1 n=59 v=80
87000 Off ch=1 n=59 v=64
87000 On ch=1 n=58 v=80
87120 Off ch=1 n=58 v=64
87120 On ch=1 n=59 v=80
87360 Off ch=1 n=59 v=64
87480 On ch=1 n=59 v=80
87720 Off ch=1 n=59 v=64
87720 On ch=1 n=58 v=80
87840 Off ch=1 n=58 v=64
87840 On ch=1 n=59 v=80
88080 Off ch=1 n=59 v=64
88080 On ch=1 n=68 v=80
88320 Off ch=1 n=68 v=64
88320 On ch=1 n=66 v=80
88560 Off ch=1 n=66 v=64
88680 On ch=1 n=58 v=80
88920 Off ch=1 n=58 v=64
88920 On ch=1 n=56 v=80
89040 Off ch=1 n=56 v=64
89040 On ch=1 n=58 v=80
89280 Off ch=1 n=58 v=64
89400 On ch=1 n=58 v=80
89640 Off ch=1 n=58 v=64
89640 On ch=1 n=56 v=80
89760 Off ch=1 n=56 v=64
89760 On ch=1 n=58 v=80
90000 Off ch=1 n=58 v=64
90000 On ch=1 n=68 v=80
90240 Off ch=1 n=68 v=64
90240 On ch=1 n=66 v=80
90480 Off ch=1 n=66 v=64
90960 On ch=1 n=56 v=80
91200 Off ch=1 n=56 v=64
91200 On ch=1 n=59 v=80
91440 Off ch=1 n=59 v=64
91440 On ch=1 n=63 v=80
91680 Off ch=1 n=63 v=64
91680 On ch=1 n=61 v=80
91920 Off ch=1 n=61 v=64
91920 On ch=1 n=59 v=80
92160 Off ch=1 n=59 v=64
92160 On ch=1 n=59 v=80
92640 Off ch=1 n=59 v=64
93600 On ch=1 n=54 v=80
93840 Off ch=1 n=54 v=64
93840 On ch=1 n=56 v=80
94080 Off ch=1 n=56 v=64
94080 On ch=1 n=58 v=80
94320 Off ch=1 n=58 v=64
94320 On ch=1 n=59 v=80
94560 Off ch=1 n=59 v=64
94560 On ch=1 n=59 v=80
94800 Off ch=1 n=59 v=64
94800 On ch=1 n=59 v=80
94800 On ch=1 n=63 v=80
94800 On ch=1 n=66 v=80
95040 Off ch=1 n=59 v=64
95040 Off ch=1 n=63 v=64
95040 Off ch=1 n=66 v=64
95040 On ch=1 n=59 v=80
95280 Off ch=1 n=59 v=64
95280 On ch=1 n=59 v=80
95520 Off ch=1 n=59 v=64
95760 On ch=1 n=56 v=80
95760 On ch=1 n=63 v=80
95760 On ch=1 n=66 v=80
96000 Off ch=1 n=56 v=64
96000 Off ch=1 n=63 v=64
96000 Off ch=1 n=66 v=64
96000 On ch=1 n=58 v=80
96240 Off ch=1 n=58 v=64
96240 On ch=1 n=59 v=80
96480 Off ch=1 n=59 v=64
96480 On ch=1 n=59 v=80
96720 Off ch=1 n=59 v=64
96720 On ch=1 n=59 v=80
96720 On ch=1 n=66 v=80
96960 Off ch=1 n=59 v=64
96960 Off ch=1 n=66 v=64
96960 On ch=1 n=61 v=80
97200 Off ch=1 n=61 v=64
97200 On ch=1 n=61 v=80
97440 Off ch=1 n=61 v=64
97680 On ch=1 n=54 v=80
97680 On ch=1 n=61 v=80
97680 On ch=1 n=66 v=80
97920 Off ch=1 n=54 v=64
97920 Off ch=1 n=61 v=64
97920 Off ch=1 n=66 v=64
97920 On ch=1 n=56 v=80
98160 Off ch=1 n=56 v=64
98160 On ch=1 n=58 v=80
98400 Off ch=1 n=58 v=64
98400 On ch=1 n=58 v=80
98640 Off ch=1 n=58 v=64
98640 On ch=1 n=58 v=80
98640 On ch=1 n=63 v=80
98640 On ch=1 n=66 v=80
98880 Off ch=1 n=58 v=64
98880 Off ch=1 n=63 v=64
98880 Off ch=1 n=66 v=64
98880 On ch=1 n=58 v=80
99120 Off ch=1 n=58 v=64
99120 On ch=1 n=58 v=80
99360 Off ch=1 n=58 v=64
99600 On ch=1 n=54 v=80
99600 On ch=1 n=63 v=80
99600 On ch=1 n=66 v=80
99840 Off ch=1 n=54 v=64
99840 Off ch=1 n=63 v=64
99840 Off ch=1 n=66 v=64
99840 On ch=1 n=56 v=80
99840 On ch=1 n=68 v=80
100055 Off ch=1 n=68 v=64
100080 Off ch=1 n=56 v=64
100080 On ch=1 n=70 v=80
100080 On ch=1 n=64 v=80
100296 Off ch=1 n=70 v=64
100296 Off ch=1 n=64 v=64
100320 On ch=1 n=70 v=80
100536 Off ch=1 n=70 v=64
100560 On ch=1 n=73 v=80
100560 On ch=1 n=70 v=80
100776 Off ch=1 n=73 v=64
100776 Off ch=1 n=70 v=64
100800 On ch=1 n=71 v=80
100800 On ch=1 n=66 v=80
101016 Off ch=1 n=71 v=64
101016 Off ch=1 n=66 v=64
101040 On ch=1 n=71 v=80
101256 Off ch=1 n=71 v=64
101520 On ch=1 n=59 v=80
101736 Off ch=1 n=59 v=64
101760 On ch=1 n=61 v=80
101976 Off ch=1 n=61 v=64
102000 On ch=1 n=56 v=80
102000 On ch=1 n=63 v=80
102216 Off ch=1 n=56 v=64
102240 Off ch=1 n=63 v=64
102240 On ch=1 n=63 v=80
102480 Off ch=1 n=63 v=64
102480 On ch=1 n=63 v=80
102720 Off ch=1 n=63 v=64
102720 On ch=1 n=56 v=80
102720 On ch=1 n=59 v=80
102936 Off ch=1 n=56 v=64
102960 Off ch=1 n=59 v=64
102960 On ch=1 n=59 v=80
103200 Off ch=1 n=59 v=64
103440 On ch=1 n=56 v=80
103440 On ch=1 n=59 v=80
103656 Off ch=1 n=56 v=64
103680 Off ch=1 n=59 v=64
103680 On ch=1 n=61 v=80
103920 Off ch=1 n=61 v=64
103920 On ch=1 n=63 v=80
104160 Off ch=1 n=63 v=64
104160 On ch=1 n=63 v=80
104400 Off ch=1 n=63 v=64
104400 On ch=1 n=63 v=80
104640 Off ch=1 n=63 v=64
104640 On ch=1 n=54 v=80
104640 On ch=1 n=59 v=80
104856 Off ch=1 n=54 v=64
104880 Off ch=1 n=59 v=64
104880 On ch=1 n=59 v=80
105120 Off ch=1 n=59 v=64
105360 On ch=1 n=54 v=80
105360 On ch=1 n=59 v=80
105576 Off ch=1 n=54 v=64
105600 Off ch=1 n=59 v=64
105600 On ch=1 n=61 v=80
105840 Off ch=1 n=61 v=64
105840 On ch=1 n=63 v=80
106080 Off ch=1 n=63 v=64
106080 On ch=1 n=63 v=80
106320 Off ch=1 n=63 v=64
106320 On ch=1 n=63 v=80
106560 Off ch=1 n=63 v=64
106560 On ch=1 n=64 v=80
106800 Off ch=1 n=64 v=64
107040 On ch=1 n=59 v=80
107280 Off ch=1 n=59 v=64
107280 On ch=1 n=61 v=80
107520 Off ch=1 n=61 v=64
107520 On ch=1 n=61 v=80
108000 Off ch=1 n=61 v=64
108000 On ch=1 n=63 v=80
108480 Off ch=1 n=63 v=64
108960 On ch=1 n=59 v=80
109200 Off ch=1 n=59 v=64
109200 On ch=1 n=64 v=80
109440 Off ch=1 n=64 v=64
109440 On ch=1 n=63 v=80
109680 Off ch=1 n=63 v=64
110160 On ch=1 n=64 v=80
110400 Off ch=1 n=64 v=64
110400 On ch=1 n=63 v=80
110640 Off ch=1 n=63 v=64
110880 On ch=1 n=61 v=80
111120 Off ch=1 n=61 v=64
111360 On ch=1 n=59 v=80
111600 Off ch=1 n=59 v=64
112080 On ch=1 n=61 v=80
112320 Off ch=1 n=61 v=64
112320 On ch=1 n=63 v=80
112560 Off ch=1 n=63 v=64
112800 On ch=1 n=59 v=80
113040 Off ch=1 n=59 v=64
113520 On ch=1 n=56 v=80
113760 Off ch=1 n=56 v=64
114000 On ch=1 n=59 v=80
114240 Off ch=1 n=59 v=64
114240 On ch=1 n=66 v=80
114480 Off ch=1 n=66 v=64
114720 On ch=1 n=59 v=80
114960 Off ch=1 n=59 v=64
114960 On ch=1 n=63 v=80
115200 Off ch=1 n=63 v=64
115200 On ch=1 n=63 v=80
115440 Off ch=1 n=63 v=64
116640 On ch=1 n=59 v=80
116880 Off ch=1 n=59 v=64
116880 On ch=1 n=64 v=80
117120 Off ch=1 n=64 v=64
117120 On ch=1 n=63 v=80
117360 Off ch=1 n=63 v=64
117840 On ch=1 n=64 v=80
118080 Off ch=1 n=64 v=64
118080 On ch=1 n=63 v=80
118320 Off ch=1 n=63 v=64
118560 On ch=1 n=61 v=80
118800 Off ch=1 n=61 v=64
119040 On ch=1 n=59 v=80
119280 Off ch=1 n=59 v=64
119760 On ch=1 n=61 v=80
120000 Off ch=1 n=61 v=64
120000 On ch=1 n=63 v=80
120240 Off ch=1 n=63 v=64
120480 On ch=1 n=68 v=80
120720 Off ch=1 n=68 v=64
121200 On ch=1 n=63 v=80
121440 Off ch=1 n=63 v=64
121680 On ch=1 n=56 v=80
121920 Off ch=1 n=56 v=64
121920 On ch=1 n=59 v=80
122160 Off ch=1 n=59 v=64
122400 On ch=1 n=61 v=80
122640 Off ch=1 n=61 v=64
122880 On ch=1 n=59 v=80
123120 Off ch=1 n=59 v=64
124320 On ch=1 n=66 v=80
124560 Off ch=1 n=66 v=64
124560 On ch=1 n=76 v=80
124800 Off ch=1 n=76 v=64
124800 On ch=1 n=75 v=80
125040 Off ch=1 n=75 v=64
125430 On ch=1 n=66 v=80
125460 On ch=1 n=71 v=80
125490 On ch=1 n=76 v=80
125736 Off ch=1 n=66 v=64
125736 Off ch=1 n=71 v=64
125760 Off ch=1 n=76 v=64
125760 On ch=1 n=75 v=80
126240 Off ch=1 n=75 v=64
126240 On ch=1 n=73 v=80
126720 Off ch=1 n=73 v=64
126720 On ch=1 n=71 v=80
127440 Off ch=1 n=71 v=64
127440 On ch=1 n=73 v=80
127680 Off ch=1 n=73 v=64
127680 On ch=1 n=75 v=80
127680 On ch=1 n=71 v=80
128160 Off ch=1 n=75 v=64
128160 Off ch=1 n=71 v=64
128160 On ch=1 n=68 v=80
128160 On ch=1 n=71 v=80
128808 Off ch=1 n=68 v=64
128880 Off ch=1 n=71 v=64
128880 On ch=1 n=68 v=80
129360 Off ch=1 n=68 v=64
129360 On ch=1 n=71 v=80
129510 On ch=1 n=68 v=80
129532 On ch=1 n=71 v=80
129555 On ch=1 n=76 v=80
129577 On ch=1 n=78 v=80
129600 Off ch=1 n=71 v=64
130080 Off ch=1 n=68 v=64
130080 Off ch=1 n=71 v=64
130080 Off ch=1 n=76 v=64
130080 Off ch=1 n=78 v=64
130080 On ch=1 n=71 v=80
130320 Off ch=1 n=71 v=64
130320 On ch=1 n=75 v=80
130560 Off ch=1 n=75 v=64
130560 On ch=1 n=75 v=80
131040 Off ch=1 n=75 v=64
132000 On ch=1 n=66 v=80
132240 Off ch=1 n=66 v=64
132240 On ch=1 n=76 v=80
132480 Off ch=1 n=76 v=64
132480 On ch=1 n=75 v=80
133200 Off ch=1 n=75 v=64
133200 On ch=1 n=76 v=80
133440 Off ch=1 n=76 v=64
133440 On ch=1 n=75 v=80
133920 Off ch=1 n=75 v=64
133920 On ch=1 n=73 v=80
134400 Off ch=1 n=73 v=64
134400 On ch=1 n=71 v=80
134640 Off ch=1 n=71 v=64
135120 On ch=1 n=73 v=80
135360 Off ch=1 n=73 v=64
135360 On ch=1 n=75 v=80
135840 Off ch=1 n=75 v=64
135840 On ch=1 n=80 v=80
135840 On ch=1 n=76 v=80
135960 Off ch=1 n=76 v=64
135960 On ch=1 n=75 v=80
136080 Off ch=1 n=75 v=64
136200 On ch=1 n=68 v=80
136320 Off ch=1 n=80 v=64
136320 Off ch=1 n=68 v=64
136440 On ch=1 n=63 v=80
136560 Off ch=1 n=63 v=64
136560 On ch=1 n=75 v=80
137040 Off ch=1 n=75 v=64
137040 On ch=1 n=68 v=80
137280 Off ch=1 n=68 v=64
137280 On ch=1 n=71 v=80
137760 Off ch=1 n=71 v=64
137760 On ch=1 n=73 v=90
138240 Off ch=1 n=73 v=64
138240 On ch=1 n=73 v=69
138480 Off ch=1 n=73 v=64
138480 On ch=1 n=71 v=54
138960 Off ch=1 n=71 v=64
139680 On ch=1 n=66 v=89
139920 Off ch=1 n=66 v=64
139920 On ch=1 n=76 v=99
140160 Off ch=1 n=76 v=64
140160 On ch=1 n=75 v=108
140400 Off ch=1 n=75 v=64
140880 On ch=1 n=76 v=80
141120 Off ch=1 n=76 v=64
141120 On ch=1 n=75 v=80
141600 Off ch=1 n=75 v=64
141600 On ch=1 n=73 v=80
142080 Off ch=1 n=73 v=64
142080 On ch=1 n=71 v=80
142320 Off ch=1 n=71 v=64
142800 On ch=1 n=73 v=98
143040 Off ch=1 n=73 v=64
143040 On ch=1 n=75 v=97
143520 Off ch=1 n=75 v=64
143520 On ch=1 n=80 v=94
144240 Off ch=1 n=80 v=64
145680 On ch=1 n=75 v=83
146160 On ch=1 n=68 v=77
146520 Off ch=1 n=68 v=64
146520 On ch=1 n=71 v=72
147120 Off ch=1 n=75 v=64
147120 Off ch=1 n=71 v=64
147120 On ch=1 n=73 v=59
147720 Off ch=1 n=73 v=64
147720 On ch=1 n=73 v=54
148080 Off ch=1 n=73 v=64
148080 On ch=1 n=71 v=50
149040 Off ch=1 n=71 v=64
150360 Meta TrkEnd
TrkEnd
MTrk
0 Meta TrkName "\xffffffc9\xfffffff9\xffffffd2\xfffffff4 2"
0 Meta InstrName "Microsoft GS Wavetable Synth"
0 KeySig 5 major
0 PrCh ch=1 p=0
0 Par ch=1 c=10 v=64
1920 Par ch=1 c=64 v=64
1920 On ch=1 n=52 v=70
2160 On ch=1 n=59 v=70
2400 On ch=1 n=68 v=70
2616 Off ch=1 n=68 v=64
2621 Off ch=1 n=59 v=64
2650 Off ch=1 n=52 v=64
2880 Par ch=1 c=64 v=64
2880 On ch=1 n=54 v=70
3120 On ch=1 n=61 v=70
3360 On ch=1 n=70 v=70
3792 Off ch=1 n=70 v=64
3830 Off ch=1 n=61 v=64
3840 Off ch=1 n=54 v=64
3840 Par ch=1 c=64 v=0
3840 Par ch=1 c=64 v=64
3840 On ch=1 n=47 v=51
4080 On ch=1 n=54 v=64
4320 On ch=1 n=61 v=57
4536 Off ch=1 n=61 v=64
4560 On ch=1 n=59 v=80
4800 On ch=1 n=63 v=80
5030 Off ch=1 n=54 v=64
5040 On ch=1 n=54 v=80
5280 On ch=1 n=59 v=80
5290 Off ch=1 n=59 v=64
5760 Off ch=1 n=54 v=64
5760 Off ch=1 n=59 v=64
5760 Par ch=1 c=64 v=0
5760 Par ch=1 c=64 v=64
5760 On ch=1 n=52 v=80
5770 Off ch=1 n=47 v=64
5770 Off ch=1 n=63 v=64
6000 On ch=1 n=59 v=80
6240 On ch=1 n=68 v=80
6456 Off ch=1 n=68 v=64
6480 On ch=1 n=66 v=80
6696 Off ch=1 n=66 v=64
6720 Off ch=1 n=52 v=64
6720 Off ch=1 n=59 v=64
6720 On ch=1 n=54 v=80
6960 On ch=1 n=66 v=80
7176 Off ch=1 n=66 v=64
7200 On ch=1 n=68 v=80
7416 Off ch=1 n=68 v=64
7440 On ch=1 n=66 v=80
7656 Off ch=1 n=66 v=64
7680 Off ch=1 n=54 v=64
7680 Par ch=1 c=64 v=0
7680 Par ch=1 c=64 v=64
7680 On ch=1 n=47 v=80
7920 On ch=1 n=54 v=80
8136 Off ch=1 n=54 v=64
8160 On ch=1 n=61 v=80
8400 On ch=1 n=54 v=80
8861 Off ch=1 n=47 v=64
8861 Off ch=1 n=61 v=64
8880 Off ch=1 n=54 v=64
9120 Par ch=1 c=64 v=0
9120 Par ch=1 c=64 v=70
9120 On ch=1 n=61 v=80
9120 On ch=1 n=58 v=80
9120 On ch=1 n=55 v=80
9120 On ch=1 n=51 v=80
9552 Off ch=1 n=61 v=64
9552 Off ch=1 n=58 v=64
9552 Off ch=1 n=55 v=64
9552 Off ch=1 n=51 v=64
9600 On ch=1 n=47 v=100
9840 On ch=1 n=54 v=100
10056 Off ch=1 n=54 v=64
10080 On ch=1 n=59 v=100
10296 Off ch=1 n=59 v=64
10320 On ch=1 n=66 v=100
10536 Off ch=1 n=66 v=64
10550 Off ch=1 n=47 v=64
10560 On ch=1 n=42 v=100
10800 On ch=1 n=47 v=100
11016 Off ch=1 n=47 v=64
11040 On ch=1 n=54 v=100
11256 Off ch=1 n=54 v=64
11280 On ch=1 n=66 v=100
11496 Off ch=1 n=66 v=64
11510 Off ch=1 n=42 v=64
11520 Par ch=1 c=64 v=0
11520 On ch=1 n=40 v=100
11760 On ch=1 n=47 v=100
11976 Off ch=1 n=47 v=64
12000 On ch=1 n=54 v=100
12216 Off ch=1 n=54 v=64
12240 On ch=1 n=64 v=100
12240 On ch=1 n=52 v=100
12456 Off ch=1 n=64 v=64
12456 Off ch=1 n=52 v=64
12480 On ch=1 n=39 v=100
12490 Off ch=1 n=40 v=64
12720 On ch=1 n=63 v=100
12720 On ch=1 n=51 v=100
12936 Off ch=1 n=63 v=64
12936 Off ch=1 n=51 v=64
12960 On ch=1 n=58 v=100
12960 On ch=1 n=49 v=100
13176 Off ch=1 n=58 v=64
13176 Off ch=1 n=49 v=64
13200 Par ch=1 c=64 v=0
13200 On ch=1 n=59 v=100
13200 On ch=1 n=47 v=100
13416 Off ch=1 n=59 v=64
13416 Off ch=1 n=47 v=64
13421 Off ch=1 n=39 v=64
13440 Par ch=1 c=64 v=64
13440 On ch=1 n=37 v=100
13680 On ch=1 n=44 v=100
13920 On ch=1 n=49 v=100
14160 On ch=1 n=56 v=100
14640 Off ch=1 n=56 v=64
14640 On ch=1 n=64 v=100
15288 Off ch=1 n=64 v=64
15341 Off ch=1 n=49 v=64
15360 Off ch=1 n=37 v=64
15360 Off ch=1 n=44 v=64
15360 Par ch=1 c=64 v=0
15360 Par ch=1 c=64 v=64
15360 On ch=1 n=61 v=80
15360 On ch=1 n=59 v=80
15360 On ch=1 n=54 v=80
15360 On ch=1 n=47 v=80
16008 Off ch=1 n=61 v=64
16008 Off ch=1 n=59 v=64
16008 Off ch=1 n=54 v=64
16008 Off ch=1 n=47 v=64
16080 On ch=1 n=61 v=80
16080 On ch=1 n=54 v=80
16080 On ch=1 n=47 v=80
16800 Par ch=1 c=64 v=0
17376 Off ch=1 n=61 v=64
17376 Off ch=1 n=54 v=64
17376 Off ch=1 n=47 v=64
17520 On ch=1 n=44 v=80
17760 On ch=1 n=54 v=80
17976 Off ch=1 n=54 v=64
18000 On ch=1 n=59 v=80
18216 Off ch=1 n=59 v=64
18240 On ch=1 n=54 v=80
18720 Off ch=1 n=54 v=64
18720 On ch=1 n=51 v=80
18936 Off ch=1 n=51 v=64
18960 On ch=1 n=54 v=80
19176 Off ch=1 n=54 v=64
19200 On ch=1 n=52 v=80
19416 Off ch=1 n=52 v=64
19430 Off ch=1 n=44 v=64
19440 On ch=1 n=39 v=80
19680 On ch=1 n=51 v=80
19920 Off ch=1 n=51 v=64
19920 On ch=1 n=54 v=80
20160 Off ch=1 n=54 v=64
20160 On ch=1 n=58 v=80
20880 Off ch=1 n=58 v=64
20880 On ch=1 n=54 v=80
21120 Off ch=1 n=54 v=64
21120 On ch=1 n=51 v=80
21360 Off ch=1 n=39 v=64
21360 Off ch=1 n=51 v=64
21360 On ch=1 n=40 v=80
21600 On ch=1 n=52 v=80
22560 Off ch=1 n=52 v=64
22560 On ch=1 n=56 v=80
22800 Off ch=1 n=56 v=64
22800 On ch=1 n=52 v=80
23040 Off ch=1 n=52 v=64
23040 On ch=1 n=51 v=80
23280 Off ch=1 n=40 v=64
23280 Off ch=1 n=51 v=64
23280 On ch=1 n=47 v=80
23520 On ch=1 n=54 v=80
23760 Off ch=1 n=54 v=64
23760 On ch=1 n=59 v=80
24000 Off ch=1 n=59 v=64
24000 On ch=1 n=61 v=80
25200 Off ch=1 n=47 v=64
25200 Off ch=1 n=61 v=64
25200 On ch=1 n=44 v=80
25440 On ch=1 n=54 v=80
25680 Off ch=1 n=44 v=64
25680 Off ch=1 n=54 v=64
25920 On ch=1 n=44 v=80
26400 Off ch=1 n=44 v=64
26400 On ch=1 n=51 v=80
26400 On ch=1 n=54 v=80
26640 Off ch=1 n=51 v=64
26640 Off ch=1 n=54 v=64
26880 On ch=1 n=51 v=80
27120 Off ch=1 n=51 v=64
27120 On ch=1 n=39 v=80
27360 On ch=1 n=51 v=80
27360 On ch=1 n=54 v=80
27600 Off ch=1 n=51 v=64
27600 Off ch=1 n=54 v=64
27840 On ch=1 n=54 v=80
28320 Off ch=1 n=54 v=64
28320 On ch=1 n=54 v=80
28320 On ch=1 n=51 v=80
28536 Off ch=1 n=54 v=64
28560 Off ch=1 n=51 v=64
28800 On ch=1 n=51 v=80
29040 Off ch=1 n=39 v=64
29040 Off ch=1 n=51 v=64
29040 On ch=1 n=40 v=80
29280 On ch=1 n=54 v=80
29760 Off ch=1 n=54 v=64
29760 On ch=1 n=56 v=80
29760 On ch=1 n=52 v=80
30000 Off ch=1 n=56 v=64
30000 Off ch=1 n=52 v=64
30000 On ch=1 n=56 v=80
30000 On ch=1 n=52 v=80
30240 Off ch=1 n=56 v=64
30240 Off ch=1 n=52 v=64
30240 On ch=1 n=56 v=80
30240 On ch=1 n=52 v=80
30480 Off ch=1 n=56 v=64
30480 Off ch=1 n=52 v=64
30480 On ch=1 n=56 v=80
30480 On ch=1 n=52 v=80
30720 Off ch=1 n=56 v=64
30720 Off ch=1 n=52 v=64
30720 On ch=1 n=51 v=80
30960 Off ch=1 n=40 v=64
30960 Off ch=1 n=51 v=64
30960 On ch=1 n=47 v=80
31200 On ch=1 n=59 v=80
31200 On ch=1 n=66 v=80
31440 Off ch=1 n=47 v=64
31440 Off ch=1 n=59 v=64
31440 Off ch=1 n=66 v=64
31680 On ch=1 n=47 v=52
31680 On ch=1 n=59 v=52
31680 On ch=1 n=61 v=52
31920 Off ch=1 n=59 v=64
31920 Off ch=1 n=61 v=64
32160 Off ch=1 n=47 v=64
32160 On ch=1 n=59 v=80
32400 Off ch=1 n=59 v=64
32400 On ch=1 n=61 v=80
32832 Off ch=1 n=61 v=64
32880 On ch=1 n=47 v=80
33120 On ch=1 n=54 v=80
33360 On ch=1 n=59 v=80
33600 Off ch=1 n=54 v=64
33600 On ch=1 n=63 v=80
33840 Off ch=1 n=59 v=64
34080 Off ch=1 n=63 v=64
34080 On ch=1 n=54 v=80
34320 Off ch=1 n=47 v=64
34320 On ch=1 n=59 v=80
34320 On ch=1 n=47 v=80
34560 Off ch=1 n=54 v=64
34800 Off ch=1 n=59 v=64
34800 Off ch=1 n=47 v=64
34800 On ch=1 n=52 v=80
34800 On ch=1 n=40 v=80
35040 On ch=1 n=61 v=80
35280 Off ch=1 n=52 v=64
35520 Off ch=1 n=61 v=64
35520 On ch=1 n=66 v=80
35520 On ch=1 n=61 v=80
35520 On ch=1 n=52 v=80
36000 Off ch=1 n=66 v=64
36000 Off ch=1 n=61 v=64
36000 Off ch=1 n=52 v=64
36000 On ch=1 n=58 v=80
36240 Off ch=1 n=58 v=64
36240 On ch=1 n=61 v=80
36240 On ch=1 n=52 v=80
36480 On ch=1 n=59 v=80
36720 Off ch=1 n=40 v=64
36720 Off ch=1 n=61 v=64
36720 Off ch=1 n=52 v=64
36720 Off ch=1 n=59 v=64
36720 On ch=1 n=51 v=80
36720 On ch=1 n=39 v=80
36960 On ch=1 n=58 v=80
37200 Off ch=1 n=51 v=64
37200 On ch=1 n=66 v=80
37200 On ch=1 n=63 v=80
37440 Off ch=1 n=58 v=64
37440 On ch=1 n=61 v=80
37440 On ch=1 n=51 v=80
37680 Off ch=1 n=66 v=64
37680 Off ch=1 n=63 v=64
37920 Off ch=1 n=61 v=64
37920 Off ch=1 n=51 v=64
37920 On ch=1 n=59 v=80
38160 On ch=1 n=58 v=80
38160 On ch=1 n=51 v=80
38400 Off ch=1 n=59 v=64
38400 On ch=1 n=59 v=80
38640 Off ch=1 n=39 v=64
38640 Off ch=1 n=58 v=64
38640 Off ch=1 n=51 v=64
38640 Off ch=1 n=59 v=64
38640 On ch=1 n=46 v=80
38880 On ch=1 n=56 v=80
39360 Off ch=1 n=56 v=64
39360 On ch=1 n=66 v=80
39360 On ch=1 n=63 v=80
39360 On ch=1 n=59 v=80
39840 Off ch=1 n=66 v=64
39840 Off ch=1 n=63 v=64
39840 Off ch=1 n=59 v=64
39840 On ch=1 n=61 v=80
40080 Off ch=1 n=61 v=64
40080 On ch=1 n=66 v=80
40080 On ch=1 n=63 v=80
40080 On ch=1 n=59 v=80
40320 On ch=1 n=56 v=80
40560 Off ch=1 n=46 v=64
40560 Off ch=1 n=66 v=64
40560 Off ch=1 n=63 v=64
40560 Off ch=1 n=59 v=64
40560 Off ch=1 n=56 v=64
40560 On ch=1 n=49 v=80
40560 On ch=1 n=37 v=80
40800 On ch=1 n=56 v=80
41040 Off ch=1 n=49 v=64
41040 Off ch=1 n=56 v=64
41040 On ch=1 n=58 v=80
41280 Off ch=1 n=58 v=64
41280 On ch=1 n=63 v=80
41280 On ch=1 n=59 v=80
41280 On ch=1 n=49 v=80
41760 Off ch=1 n=63 v=64
41760 Off ch=1 n=59 v=64
41760 Off ch=1 n=49 v=64
41760 On ch=1 n=65 v=80
41760 On ch=1 n=61 v=80
41760 On ch=1 n=56 v=80
42000 Off ch=1 n=65 v=64
42000 Off ch=1 n=61 v=64
42000 Off ch=1 n=56 v=64
42000 On ch=1 n=61 v=80
42000 On ch=1 n=58 v=80
42000 On ch=1 n=49 v=80
42240 On ch=1 n=54 v=80
42480 Off ch=1 n=37 v=64
42480 Off ch=1 n=61 v=64
42480 Off ch=1 n=58 v=64
42480 Off ch=1 n=49 v=64
42480 Off ch=1 n=54 v=64
42480 On ch=1 n=52 v=80
42480 On ch=1 n=40 v=80
42720 On ch=1 n=56 v=80
42960 Off ch=1 n=52 v=64
42960 Off ch=1 n=56 v=64
42960 On ch=1 n=58 v=80
43200 Off ch=1 n=58 v=64
43200 On ch=1 n=63 v=80
43200 On ch=1 n=59 v=80
43200 On ch=1 n=56 v=80
43200 On ch=1 n=52 v=80
43680 Off ch=1 n=63 v=64
43680 Off ch=1 n=59 v=64
43680 Off ch=1 n=56 v=64
43680 Off ch=1 n=52 v=64
43680 On ch=1 n=65 v=80
43680 On ch=1 n=61 v=80
43680 On ch=1 n=58 v=80
43920 Off ch=1 n=65 v=64
43920 Off ch=1 n=61 v=64
43920 Off ch=1 n=58 v=64
43920 On ch=1 n=61 v=80
43920 On ch=1 n=52 v=80
44160 Off ch=1 n=61 v=64
44160 On ch=1 n=54 v=80
44400 Off ch=1 n=40 v=64
44400 Off ch=1 n=52 v=64
44400 Off ch=1 n=54 v=64
44400 On ch=1 n=54 v=80
44400 On ch=1 n=42 v=80
44640 On ch=1 n=59 v=80
44880 Off ch=1 n=54 v=64
44880 Off ch=1 n=59 v=64
44880 On ch=1 n=63 v=80
45120 Off ch=1 n=63 v=64
45120 On ch=1 n=64 v=80
45120 On ch=1 n=61 v=80
45120 On ch=1 n=58 v=80
45120 On ch=1 n=54 v=80
45600 Off ch=1 n=64 v=64
45600 Off ch=1 n=61 v=64
45600 Off ch=1 n=58 v=64
45600 Off ch=1 n=54 v=64
45600 On ch=1 n=63 v=80
45840 Off ch=1 n=63 v=64
45840 On ch=1 n=61 v=80
45840 On ch=1 n=54 v=80
46080 Off ch=1 n=61 v=64
46080 On ch=1 n=66 v=80
46080 On ch=1 n=63 v=80
46320 Off ch=1 n=42 v=64
46320 Off ch=1 n=54 v=64
46320 Off ch=1 n=66 v=64
46320 Off ch=1 n=63 v=64
46320 On ch=1 n=54 v=80
46320 On ch=1 n=42 v=80
46560 Off ch=1 n=54 v=64
46560 On ch=1 n=63 v=80
46560 On ch=1 n=61 v=80
46560 On ch=1 n=58 v=80
46560 On ch=1 n=54 v=80
46800 Off ch=1 n=63 v=64
46800 Off ch=1 n=61 v=64
46800 Off ch=1 n=58 v=64
46800 Off ch=1 n=54 v=64
46800 On ch=1 n=63 v=80
46800 On ch=1 n=61 v=80
46800 On ch=1 n=58 v=80
46800 On ch=1 n=54 v=80
47040 Off ch=1 n=63 v=64
47040 Off ch=1 n=61 v=64
47040 Off ch=1 n=58 v=64
47040 Off ch=1 n=54 v=64
47040 On ch=1 n=63 v=80
47040 On ch=1 n=61 v=80
47040 On ch=1 n=58 v=80
47040 On ch=1 n=54 v=80
47280 Off ch=1 n=42 v=64
47280 Off ch=1 n=63 v=64
47280 Off ch=1 n=61 v=64
47280 Off ch=1 n=58 v=64
47280 Off ch=1 n=54 v=64
47280 On ch=1 n=63 v=80
47280 On ch=1 n=61 v=80
47280 On ch=1 n=58 v=80
47280 On ch=1 n=54 v=80
47400 On ch=1 n=39 v=80
47455 Off ch=1 n=39 v=64
47456 On ch=1 n=40 v=80
47511 Off ch=1 n=40 v=64
47512 On ch=1 n=42 v=80
47567 Off ch=1 n=42 v=64
47568 On ch=1 n=44 v=80
47623 Off ch=1 n=44 v=64
47624 On ch=1 n=46 v=80
47679 Off ch=1 n=46 v=64
47680 On ch=1 n=47 v=80
47735 Off ch=1 n=47 v=64
47736 On ch=1 n=49 v=80
47760 Off ch=1 n=63 v=64
47760 Off ch=1 n=61 v=64
47760 Off ch=1 n=58 v=64
47760 Off ch=1 n=54 v=64
47791 Off ch=1 n=49 v=64
47792 On ch=1 n=51 v=80
47847 Off ch=1 n=51 v=64
47848 On ch=1 n=52 v=80
47903 Off ch=1 n=52 v=64
47904 On ch=1 n=54 v=80
47959 Off ch=1 n=54 v=64
47960 On ch=1 n=56 v=80
48015 Off ch=1 n=56 v=64
48016 On ch=1 n=58 v=80
48071 Off ch=1 n=58 v=64
48072 On ch=1 n=59 v=80
48120 On ch=1 n=63 v=80
48127 Off ch=1 n=59 v=64
48128 On ch=1 n=61 v=80
48183 Off ch=1 n=61 v=64
48184 On ch=1 n=63 v=80
48239 Off ch=1 n=63 v=64
48240 Off ch=1 n=63 v=64
48240 Par ch=1 c=64 v=64
48240 On ch=1 n=47 v=80
48480 On ch=1 n=54 v=80
48720 Off ch=1 n=54 v=64
48720 On ch=1 n=61 v=80
48960 Off ch=1 n=61 v=64
48960 On ch=1 n=54 v=80
49200 Off ch=1 n=47 v=64
49200 Off ch=1 n=54 v=64
49200 On ch=1 n=46 v=80
49440 On ch=1 n=54 v=80
49680 Off ch=1 n=54 v=64
49680 On ch=1 n=58 v=80
49920 On ch=1 n=54 v=80
50160 Off ch=1 n=46 v=64
50160 Off ch=1 n=58 v=64
50160 Off ch=1 n=54 v=64
50160 Par ch=1 c=64 v=0
50160 Par ch=1 c=64 v=64
50160 On ch=1 n=44 v=80
50400 On ch=1 n=54 v=80
50640 Off ch=1 n=54 v=64
50640 On ch=1 n=59 v=80
50880 Off ch=1 n=59 v=64
50880 On ch=1 n=54 v=80
51120 Off ch=1 n=44 v=64
51120 Off ch=1 n=54 v=64
51120 On ch=1 n=42 v=80
51360 On ch=1 n=51 v=80
51600 Off ch=1 n=51 v=64
51600 On ch=1 n=59 v=80
51840 Off ch=1 n=59 v=64
51840 Par ch=1 c=64 v=0
51840 On ch=1 n=54 v=80
52080 Off ch=1 n=42 v=64
52080 Off ch=1 n=54 v=64
52080 Par ch=1 c=64 v=64
52080 On ch=1 n=40 v=80
52320 On ch=1 n=52 v=80
52560 Off ch=1 n=52 v=64
52560 On ch=1 n=59 v=80
52800 Off ch=1 n=59 v=64
52800 On ch=1 n=52 v=80
53040 Off ch=1 n=40 v=64
53040 Off ch=1 n=52 v=64
53040 On ch=1 n=42 v=80
53280 On ch=1 n=51 v=80
53520 Off ch=1 n=51 v=64
53520 On ch=1 n=59 v=80
53760 Off ch=1 n=59 v=64
53760 On ch=1 n=52 v=80
54000 Off ch=1 n=42 v=64
54000 Off ch=1 n=52 v=64
54000 Par ch=1 c=64 v=0
54000 Par ch=1 c=64 v=64
54000 On ch=1 n=47 v=80
54240 On ch=1 n=51 v=80
54380 Off ch=1 n=51 v=64
54480 On ch=1 n=54 v=80
54720 On ch=1 n=59 v=80
54960 Off ch=1 n=54 v=64
55200 Off ch=1 n=59 v=64
55200 On ch=1 n=54 v=80
55440 Off ch=1 n=54 v=64
55440 On ch=1 n=52 v=80
55680 Off ch=1 n=52 v=64
55680 Par ch=1 c=64 v=0
55680 On ch=1 n=51 v=80
55920 Off ch=1 n=47 v=64
55920 Off ch=1 n=51 v=64
55920 Par ch=1 c=64 v=64
55920 On ch=1 n=47 v=80
56160 On ch=1 n=54 v=80
56400 Off ch=1 n=54 v=64
56400 On ch=1 n=61 v=80
56640 On ch=1 n=54 v=80
56880 Off ch=1 n=47 v=64
56880 Off ch=1 n=61 v=64
56880 Off ch=1 n=54 v=64
56880 On ch=1 n=46 v=80
57120 On ch=1 n=54 v=80
57360 Off ch=1 n=54 v=64
57360 On ch=1 n=59 v=80
57600 Par ch=1 c=64 v=0
57600 On ch=1 n=54 v=80
57840 Off ch=1 n=46 v=64
57840 Off ch=1 n=59 v=64
57840 Off ch=1 n=54 v=64
57840 Par ch=1 c=64 v=64
57840 On ch=1 n=44 v=80
58080 On ch=1 n=51 v=80
58320 Off ch=1 n=51 v=64
58320 On ch=1 n=59 v=80
58560 On ch=1 n=51 v=80
58800 Off ch=1 n=44 v=64
58800 Off ch=1 n=59 v=64
58800 Off ch=1 n=51 v=64
58800 Par ch=1 c=64 v=0
58800 On ch=1 n=57 v=80
58800 On ch=1 n=54 v=80
58800 On ch=1 n=51 v=80
58800 On ch=1 n=47 v=80
58800 On ch=1 n=42 v=80
59280 Off ch=1 n=57 v=64
59280 Off ch=1 n=54 v=64
59280 Off ch=1 n=51 v=64
59280 Off ch=1 n=47 v=64
59280 On ch=1 n=52 v=80
59520 Off ch=1 n=52 v=64
59520 On ch=1 n=51 v=80
59760 Off ch=1 n=42 v=64
59760 Off ch=1 n=51 v=64
59760 Par ch=1 c=64 v=64
59760 On ch=1 n=40 v=80
60000 On ch=1 n=52 v=80
60240 Off ch=1 n=52 v=64
60240 On ch=1 n=59 v=80
60480 On ch=1 n=52 v=80
60720 Off ch=1 n=40 v=64
60720 Off ch=1 n=59 v=64
60720 Off ch=1 n=52 v=64
60720 On ch=1 n=42 v=80
60960 On ch=1 n=54 v=80
61200 Off ch=1 n=54 v=64
61200 On ch=1 n=61 v=80
61440 Off ch=1 n=61 v=64
61440 On ch=1 n=54 v=80
61680 Off ch=1 n=42 v=64
61680 Off ch=1 n=54 v=64
61680 On ch=1 n=47 v=80
61920 On ch=1 n=54 v=80
62160 On ch=1 n=59 v=80
62400 Off ch=1 n=54 v=64
62400 On ch=1 n=61 v=80
62640 Off ch=1 n=59 v=64
62640 On ch=1 n=63 v=80
62880 Off ch=1 n=61 v=64
63120 Off ch=1 n=63 v=64
63120 Par ch=1 c=64 v=0
63600 Off ch=1 n=47 v=64
63600 Par ch=1 c=64 v=64
63600 On ch=1 n=59 v=80
63600 On ch=1 n=47 v=80
63840 On ch=1 n=54 v=80
64080 Off ch=1 n=54 v=64
64080 On ch=1 n=66 v=80
64080 On ch=1 n=63 v=80
64320 On ch=1 n=54 v=80
64470 On ch=1 n=58 v=80
64500 On ch=1 n=61 v=80
64530 On ch=1 n=66 v=80
64560 Off ch=1 n=59 v=64
64560 Off ch=1 n=47 v=64
64560 Off ch=1 n=66 v=64
64560 Off ch=1 n=63 v=64
64560 Off ch=1 n=54 v=64
65280 Par ch=1 c=64 v=0
65280 On ch=1 n=54 v=80
65520 Off ch=1 n=58 v=64
65520 Off ch=1 n=61 v=64
65520 Off ch=1 n=66 v=64
65520 Off ch=1 n=54 v=64
65520 Par ch=1 c=64 v=64
65520 On ch=1 n=56 v=80
65520 On ch=1 n=44 v=80
65760 On ch=1 n=51 v=80
66000 Off ch=1 n=51 v=64
66000 On ch=1 n=63 v=80
66000 On ch=1 n=59 v=80
66240 On ch=1 n=51 v=80
66390 On ch=1 n=54 v=80
66420 On ch=1 n=58 v=80
66450 On ch=1 n=61 v=80
66480 Off ch=1 n=56 v=64
66480 Off ch=1 n=44 v=64
66480 Off ch=1 n=63 v=64
66480 Off ch=1 n=59 v=64
66480 Off ch=1 n=51 v=64
67200 Par ch=1 c=64 v=0
67200 On ch=1 n=49 v=80
67440 Off ch=1 n=54 v=64
67440 Off ch=1 n=58 v=64
67440 Off ch=1 n=61 v=64
67440 Off ch=1 n=49 v=64
67440 Par ch=1 c=64 v=64
67440 On ch=1 n=40 v=80
67440 On ch=1 n=52 v=80
67680 On ch=1 n=47 v=80
67920 Off ch=1 n=47 v=64
67920 On ch=1 n=56 v=80
67920 On ch=1 n=59 v=80
68160 On ch=1 n=47 v=80
68400 Off ch=1 n=40 v=64
68400 Off ch=1 n=52 v=64
68400 Off ch=1 n=56 v=64
68400 Off ch=1 n=59 v=64
68400 Off ch=1 n=47 v=64
68400 On ch=1 n=42 v=80
68400 On ch=1 n=54 v=80
68640 On ch=1 n=49 v=80
68880 Off ch=1 n=49 v=64
68880 On ch=1 n=58 v=80
68880 On ch=1 n=61 v=80
69120 Par ch=1 c=64 v=0
69120 On ch=1 n=49 v=80
69360 Off ch=1 n=42 v=64
69360 Off ch=1 n=54 v=64
69360 Off ch=1 n=58 v=64
69360 Off ch=1 n=61 v=64
69360 Off ch=1 n=49 v=64
69360 Par ch=1 c=64 v=64
69360 On ch=1 n=47 v=80
69600 On ch=1 n=54 v=80
69840 On ch=1 n=59 v=80
70080 On ch=1 n=61 v=80
70320 On ch=1 n=63 v=80
70560 On ch=1 n=54 v=80
70800 Off ch=1 n=54 v=64
70800 On ch=1 n=59 v=80
71040 Off ch=1 n=59 v=64
71040 Par ch=1 c=64 v=0
71040 On ch=1 n=61 v=80
71280 Off ch=1 n=47 v=64
71280 Off ch=1 n=59 v=64
71280 Off ch=1 n=61 v=64
71280 Off ch=1 n=63 v=64
71280 Off ch=1 n=54 v=64
71280 Off ch=1 n=61 v=64
71280 Par ch=1 c=64 v=64
71280 On ch=1 n=59 v=80
71280 On ch=1 n=47 v=80
71520 On ch=1 n=54 v=80
71760 Off ch=1 n=54 v=64
71760 On ch=1 n=66 v=80
71760 On ch=1 n=63 v=80
72000 On ch=1 n=54 v=80
72240 Off ch=1 n=59 v=64
72240 Off ch=1 n=47 v=64
72240 Off ch=1 n=66 v=64
72240 Off ch=1 n=63 v=64
72240 Off ch=1 n=54 v=64
72240 On ch=1 n=58 v=80
72240 On ch=1 n=54 v=80
72240 On ch=1 n=46 v=80
72960 Par ch=1 c=64 v=0
72960 On ch=1 n=54 v=80
73200 Off ch=1 n=58 v=64
73200 Off ch=1 n=54 v=64
73200 Off ch=1 n=46 v=64
73200 Off ch=1 n=54 v=64
73200 Par ch=1 c=64 v=64
73200 On ch=1 n=56 v=80
73200 On ch=1 n=44 v=80
73440 On ch=1 n=51 v=80
73680 Off ch=1 n=51 v=64
73680 On ch=1 n=63 v=80
73680 On ch=1 n=59 v=80
73920 On ch=1 n=51 v=80
74160 Off ch=1 n=56 v=64
74160 Off ch=1 n=44 v=64
74160 Off ch=1 n=63 v=64
74160 Off ch=1 n=59 v=64
74160 Off ch=1 n=51 v=64
74160 On ch=1 n=61 v=80
74160 On ch=1 n=58 v=80
74160 On ch=1 n=54 v=80
74880 Par ch=1 c=64 v=0
74880 On ch=1 n=49 v=80
75120 Off ch=1 n=61 v=64
75120 Off ch=1 n=58 v=64
75120 Off ch=1 n=54 v=64
75120 Off ch=1 n=49 v=64
75120 Par ch=1 c=64 v=64
75120 On ch=1 n=40 v=80
75120 On ch=1 n=52 v=80
75360 On ch=1 n=47 v=80
75600 Off ch=1 n=47 v=64
75600 On ch=1 n=56 v=80
75600 On ch=1 n=59 v=80
75840 On ch=1 n=47 v=80
76080 Off ch=1 n=40 v=64
76080 Off ch=1 n=52 v=64
76080 Off ch=1 n=56 v=64
76080 Off ch=1 n=59 v=64
76080 Off ch=1 n=47 v=64
76080 On ch=1 n=42 v=80
76080 On ch=1 n=54 v=80
76320 On ch=1 n=49 v=80
76560 Off ch=1 n=49 v=64
76560 On ch=1 n=58 v=80
76560 On ch=1 n=61 v=80
76800 Par ch=1 c=64 v=0
76800 On ch=1 n=49 v=80
77040 Off ch=1 n=42 v=64
77040 Off ch=1 n=54 v=64
77040 Off ch=1 n=58 v=64
77040 Off ch=1 n=61 v=64
77040 Off ch=1 n=49 v=64
77040 Par ch=1 c=64 v=64
77040 On ch=1 n=47 v=80
77280 On ch=1 n=54 v=80
77520 On ch=1 n=59 v=80
77760 On ch=1 n=61 v=80
78000 On ch=1 n=63 v=80
78480 Off ch=1 n=47 v=64
78480 On ch=1 n=47 v=80
78960 Off ch=1 n=54 v=64
78960 Off ch=1 n=59 v=64
78960 Off ch=1 n=61 v=64
78960 Off ch=1 n=63 v=64
78960 Off ch=1 n=47 v=64
78960 Par ch=1 c=64 v=0
78960 On ch=1 n=44 v=80
79200 On ch=1 n=59 v=80
79200 On ch=1 n=54 v=80
79440 Off ch=1 n=44 v=64
79440 Off ch=1 n=59 v=64
79440 Off ch=1 n=54 v=64
79680 On ch=1 n=59 v=80
79680 On ch=1 n=54 v=80
79680 On ch=1 n=44 v=80
79920 Off ch=1 n=59 v=64
79920 Off ch=1 n=54 v=64
80160 Off ch=1 n=44 v=64
80160 On ch=1 n=51 v=80
80400 Off ch=1 n=51 v=64
80640 On ch=1 n=51 v=80
80880 Off ch=1 n=51 v=64
80880 On ch=1 n=39 v=80
81120 On ch=1 n=51 v=80
81120 On ch=1 n=54 v=80
81360 Off ch=1 n=39 v=64
81360 Off ch=1 n=51 v=64
81360 Off ch=1 n=54 v=64
81600 On ch=1 n=58 v=80
81600 On ch=1 n=54 v=80
81600 On ch=1 n=39 v=80
82080 Off ch=1 n=58 v=64
82080 Off ch=1 n=54 v=64
82080 Off ch=1 n=39 v=64
82080 On ch=1 n=51 v=80
82320 Off ch=1 n=51 v=64
82560 On ch=1 n=51 v=80
82800 Off ch=1 n=51 v=64
82800 On ch=1 n=40 v=80
83040 On ch=1 n=52 v=80
83040 On ch=1 n=56 v=80
83040 On ch=1 n=59 v=80
83280 Off ch=1 n=40 v=64
83280 Off ch=1 n=52 v=64
83280 Off ch=1 n=56 v=64
83280 Off ch=1 n=59 v=64
83520 On ch=1 n=52 v=80
83520 On ch=1 n=40 v=80
84000 Off ch=1 n=52 v=64
84000 Off ch=1 n=40 v=64
84000 On ch=1 n=59 v=80
84240 Off ch=1 n=59 v=64
84240 On ch=1 n=52 v=80
84480 Off ch=1 n=52 v=64
84480 On ch=1 n=51 v=80
84720 Off ch=1 n=51 v=64
84720 On ch=1 n=47 v=80
84960 On ch=1 n=63 v=80
84960 On ch=1 n=59 v=80
84960 On ch=1 n=54 v=80
85200 Off ch=1 n=47 v=64
85200 Off ch=1 n=63 v=64
85200 Off ch=1 n=59 v=64
85200 Off ch=1 n=54 v=64
85440 On ch=1 n=59 v=80
85440 On ch=1 n=54 v=80
85440 On ch=1 n=47 v=80
85920 Off ch=1 n=59 v=64
85920 Off ch=1 n=54 v=64
85920 Off ch=1 n=47 v=64
85920 On ch=1 n=54 v=80
86160 Off ch=1 n=54 v=64
86160 On ch=1 n=63 v=80
86160 On ch=1 n=59 v=80
86400 Off ch=1 n=63 v=64
86400 Off ch=1 n=59 v=64
86400 On ch=1 n=54 v=80
86640 Off ch=1 n=54 v=64
86640 On ch=1 n=44 v=80
86880 On ch=1 n=59 v=80
86880 On ch=1 n=54 v=80
87120 Off ch=1 n=44 v=64
87120 Off ch=1 n=59 v=64
87120 Off ch=1 n=54 v=64
87360 On ch=1 n=59 v=80
87360 On ch=1 n=54 v=80
87360 On ch=1 n=44 v=80
87600 Off ch=1 n=59 v=64
87600 Off ch=1 n=54 v=64
87840 Off ch=1 n=44 v=64
87840 On ch=1 n=51 v=80
88080 Off ch=1 n=51 v=64
88080 On ch=1 n=59 v=80
88320 Off ch=1 n=59 v=64
88320 On ch=1 n=51 v=80
88560 Off ch=1 n=51 v=64
88560 On ch=1 n=39 v=80
88800 On ch=1 n=51 v=80
88800 On ch=1 n=54 v=80
89040 Off ch=1 n=39 v=64
89040 Off ch=1 n=51 v=64
89040 Off ch=1 n=54 v=64
89280 On ch=1 n=54 v=80
89280 On ch=1 n=39 v=80
89760 Off ch=1 n=54 v=64
89760 Off ch=1 n=39 v=64
89760 On ch=1 n=51 v=80
90000 Off ch=1 n=51 v=64
90000 On ch=1 n=59 v=80
90240 Off ch=1 n=59 v=64
90240 On ch=1 n=51 v=80
90480 Off ch=1 n=51 v=64
90480 On ch=1 n=40 v=80
90720 On ch=1 n=52 v=80
90720 On ch=1 n=56 v=80
90960 Off ch=1 n=40 v=64
90960 Off ch=1 n=52 v=64
90960 Off ch=1 n=56 v=64
91200 On ch=1 n=52 v=80
91200 On ch=1 n=40 v=80
91440 Off ch=1 n=52 v=64
91440 Off ch=1 n=40 v=64
91440 On ch=1 n=56 v=80
91440 On ch=1 n=52 v=80
91440 On ch=1 n=47 v=80
91680 Off ch=1 n=56 v=64
91680 Off ch=1 n=52 v=64
91680 Off ch=1 n=47 v=64
91680 On ch=1 n=56 v=80
91680 On ch=1 n=52 v=80
91920 Off ch=1 n=56 v=64
91920 Off ch=1 n=52 v=64
91920 On ch=1 n=56 v=80
91920 On ch=1 n=52 v=80
92160 Off ch=1 n=56 v=64
92160 Off ch=1 n=52 v=64
92400 On ch=1 n=47 v=80
92640 On ch=1 n=61 v=80
92640 On ch=1 n=59 v=80
92640 On ch=1 n=54 v=80
92856 Off ch=1 n=54 v=64
92880 Off ch=1 n=47 v=64
92880 Off ch=1 n=61 v=64
92880 Off ch=1 n=59 v=64
93120 On ch=1 n=61 v=80
93120 On ch=1 n=59 v=80
93120 On ch=1 n=54 v=80
93120 On ch=1 n=47 v=80
93360 Par ch=1 c=64 v=64
93840 Par ch=1 c=64 v=0
94320 Off ch=1 n=61 v=64
94320 Off ch=1 n=59 v=64
94320 Off ch=1 n=54 v=64
94320 Off ch=1 n=47 v=64
94320 Par ch=1 c=64 v=64
94320 On ch=1 n=47 v=80
94560 On ch=1 n=54 v=80
94752 Off ch=1 n=47 v=64
94776 Off ch=1 n=54 v=64
95040 On ch=1 n=47 v=80
95280 On ch=1 n=54 v=80
95472 Off ch=1 n=47 v=64
95496 Off ch=1 n=54 v=64
95520 On ch=1 n=47 v=80
96168 Off ch=1 n=47 v=64
96240 Par ch=1 c=64 v=0
96240 Par ch=1 c=64 v=64
96240 On ch=1 n=49 v=80
96480 On ch=1 n=54 v=80
96672 Off ch=1 n=49 v=64
96696 Off ch=1 n=54 v=64
96960 On ch=1 n=49 v=80
97200 On ch=1 n=54 v=80
97392 Off ch=1 n=49 v=64
97416 Off ch=1 n=54 v=64
97440 On ch=1 n=49 v=80
98088 Off ch=1 n=49 v=64
98160 Par ch=1 c=64 v=0
98160 Par ch=1 c=64 v=64
98160 On ch=1 n=46 v=80
98400 On ch=1 n=54 v=80
98592 Off ch=1 n=46 v=64
98616 Off ch=1 n=54 v=64
98880 On ch=1 n=49 v=80
99120 On ch=1 n=54 v=80
99312 Off ch=1 n=49 v=64
99336 Off ch=1 n=54 v=64
99360 On ch=1 n=47 v=80
99600 Off ch=1 n=47 v=64
99600 On ch=1 n=46 v=80
99840 Off ch=1 n=46 v=64
99840 Par ch=1 c=64 v=0
99840 On ch=1 n=47 v=80
100080 Off ch=1 n=47 v=64
100080 Par ch=1 c=64 v=64
100080 On ch=1 n=46 v=80
100320 Off ch=1 n=46 v=64
100320 On ch=1 n=46 v=80
100560 Off ch=1 n=46 v=64
100560 On ch=1 n=46 v=80
100800 Off ch=1 n=46 v=64
100800 On ch=1 n=47 v=80
101040 Off ch=1 n=47 v=64
101040 On ch=1 n=59 v=80
101280 Off ch=1 n=59 v=64
101280 On ch=1 n=61 v=80
101520 Off ch=1 n=61 v=64
101520 On ch=1 n=47 v=80
101760 Par ch=1 c=64 v=0
101760 On ch=1 n=56 v=80
102000 Off ch=1 n=47 v=64
102000 Off ch=1 n=56 v=64
102000 Par ch=1 c=64 v=64
102000 On ch=1 n=49 v=80
102240 On ch=1 n=56 v=80
102480 Off ch=1 n=49 v=64
102480 On ch=1 n=58 v=80
102720 Off ch=1 n=56 v=64
102720 Off ch=1 n=58 v=64
102720 On ch=1 n=49 v=80
103200 Off ch=1 n=49 v=64
103200 On ch=1 n=56 v=80
103440 Off ch=1 n=56 v=64
103440 On ch=1 n=49 v=80
103920 Off ch=1 n=49 v=64
103920 Par ch=1 c=64 v=0
103920 On ch=1 n=51 v=80
104160 On ch=1 n=56 v=80
104400 Off ch=1 n=51 v=64
104640 Off ch=1 n=56 v=64
104640 On ch=1 n=51 v=80
105360 Off ch=1 n=51 v=64
105360 On ch=1 n=51 v=80
105840 Off ch=1 n=51 v=64
105840 Par ch=1 c=64 v=64
105840 On ch=1 n=54 v=80
106080 On ch=1 n=59 v=80
106320 Off ch=1 n=54 v=64
106320 Off ch=1 n=59 v=64
106320 On ch=1 n=63 v=80
106560 Off ch=1 n=63 v=64
106560 On ch=1 n=61 v=80
106560 On ch=1 n=58 v=80
106560 On ch=1 n=54 v=80
107040 Off ch=1 n=61 v=64
107040 Off ch=1 n=58 v=64
107040 Off ch=1 n=54 v=64
107040 On ch=1 n=49 v=80
107280 Off ch=1 n=49 v=64
107280 On ch=1 n=54 v=80
107520 Par ch=1 c=64 v=0
107520 On ch=1 n=59 v=80
107760 Off ch=1 n=54 v=64
107760 Off ch=1 n=59 v=64
107760 Par ch=1 c=64 v=64
107760 On ch=1 n=54 v=80
107760 On ch=1 n=42 v=80
108000 Off ch=1 n=54 v=64
108000 On ch=1 n=54 v=80
108240 Off ch=1 n=54 v=64
108240 On ch=1 n=63 v=80
108240 On ch=1 n=61 v=80
108240 On ch=1 n=58 v=80
108240 On ch=1 n=54 v=80
108480 Off ch=1 n=63 v=64
108480 Off ch=1 n=61 v=64
108480 Off ch=1 n=58 v=64
108480 Off ch=1 n=54 v=64
108480 On ch=1 n=63 v=80
108480 On ch=1 n=61 v=80
108480 On ch=1 n=58 v=80
108480 On ch=1 n=54 v=80
108720 Off ch=1 n=63 v=64
108720 Off ch=1 n=61 v=64
108720 Off ch=1 n=58 v=64
108720 Off ch=1 n=54 v=64
108720 On ch=1 n=63 v=80
108720 On ch=1 n=61 v=80
108720 On ch=1 n=58 v=80
108720 On ch=1 n=54 v=80
109200 Off ch=1 n=42 v=64
109200 Off ch=1 n=63 v=64
109200 Off ch=1 n=61 v=64
109200 Off ch=1 n=58 v=64
109200 Off ch=1 n=54 v=64
109200 Par ch=1 c=64 v=0
109680 Par ch=1 c=64 v=64
109680 On ch=1 n=47 v=80
109920 On ch=1 n=54 v=80
110160 Off ch=1 n=47 v=64
110160 On ch=1 n=61 v=80
110400 Off ch=1 n=54 v=64
110400 On ch=1 n=54 v=80
110640 Off ch=1 n=61 v=64
110640 On ch=1 n=46 v=80
110880 Off ch=1 n=54 v=64
110880 On ch=1 n=54 v=80
111120 Off ch=1 n=46 v=64
111120 On ch=1 n=59 v=80
111360 Off ch=1 n=54 v=64
111360 Par ch=1 c=64 v=0
111360 On ch=1 n=54 v=80
111600 Off ch=1 n=59 v=64
111600 Par ch=1 c=64 v=64
111600 On ch=1 n=46 v=80
111840 Off ch=1 n=54 v=64
111840 On ch=1 n=54 v=80
112080 Off ch=1 n=46 v=64
112080 On ch=1 n=58 v=80
112320 Off ch=1 n=54 v=64
112320 On ch=1 n=54 v=80
112560 Off ch=1 n=58 v=64
112560 On ch=1 n=44 v=80
112800 Off ch=1 n=54 v=64
112800 On ch=1 n=51 v=80
113040 Off ch=1 n=44 v=64
113040 On ch=1 n=59 v=80
113280 Off ch=1 n=51 v=64
113280 Par ch=1 c=64 v=0
113280 On ch=1 n=54 v=80
113520 Off ch=1 n=59 v=64
113520 Par ch=1 c=64 v=64
113520 On ch=1 n=44 v=80
113760 Off ch=1 n=54 v=64
113760 On ch=1 n=52 v=80
114000 Off ch=1 n=44 v=64
114000 On ch=1 n=59 v=80
114240 Off ch=1 n=52 v=64
114240 On ch=1 n=54 v=80
114240 On ch=1 n=47 v=80
114480 Off ch=1 n=59 v=64
114720 Off ch=1 n=54 v=64
114720 Off ch=1 n=47 v=64
114720 On ch=1 n=51 v=80
114960 Off ch=1 n=51 v=64
114960 On ch=1 n=56 v=80
114960 On ch=1 n=47 v=80
115200 Par ch=1 c=64 v=0
115200 On ch=1 n=54 v=80
115440 Off ch=1 n=56 v=64
115440 Off ch=1 n=47 v=64
115440 Off ch=1 n=54 v=64
115440 Par ch=1 c=64 v=64
115440 On ch=1 n=42 v=80
115680 On ch=1 n=52 v=80
115920 Off ch=1 n=52 v=64
115920 On ch=1 n=54 v=80
116160 On ch=1 n=59 v=80
116400 Off ch=1 n=54 v=64
116640 Off ch=1 n=59 v=64
116640 On ch=1 n=54 v=80
116880 Off ch=1 n=54 v=64
116880 On ch=1 n=52 v=80
117120 Off ch=1 n=52 v=64
117120 Par ch=1 c=64 v=0
117120 On ch=1 n=51 v=80
117360 Off ch=1 n=42 v=64
117360 Off ch=1 n=51 v=64
117360 Par ch=1 c=64 v=64
117360 On ch=1 n=47 v=80
117600 On ch=1 n=54 v=80
117840 Off ch=1 n=47 v=64
117840 Off ch=1 n=54 v=64
117840 On ch=1 n=61 v=80
118080 On ch=1 n=54 v=80
118320 Off ch=1 n=61 v=64
118320 Off ch=1 n=54 v=64
118320 On ch=1 n=46 v=80
118560 On ch=1 n=54 v=80
118800 Off ch=1 n=54 v=64
119040 Par ch=1 c=64 v=0
119040 On ch=1 n=54 v=80
119280 Off ch=1 n=46 v=64
119280 Off ch=1 n=54 v=64
119280 Par ch=1 c=64 v=64
119280 On ch=1 n=46 v=80
119520 On ch=1 n=51 v=80
119760 On ch=1 n=59 v=80
120000 Off ch=1 n=51 v=64
120000 On ch=1 n=51 v=80
120240 Off ch=1 n=46 v=64
120240 Off ch=1 n=59 v=64
120240 Off ch=1 n=51 v=64
120240 On ch=1 n=57 v=80
120240 On ch=1 n=54 v=80
120240 On ch=1 n=51 v=80
120240 On ch=1 n=47 v=80
120720 Off ch=1 n=57 v=64
120720 Off ch=1 n=54 v=64
120720 Off ch=1 n=51 v=64
120720 Off ch=1 n=47 v=64
120720 On ch=1 n=52 v=80
120960 Off ch=1 n=52 v=64
120960 On ch=1 n=51 v=80
121200 Off ch=1 n=51 v=64
121200 Par ch=1 c=64 v=0
121200 Par ch=1 c=64 v=64
121200 On ch=1 n=44 v=80
121440 On ch=1 n=52 v=80
121680 Off ch=1 n=44 v=64
121680 Off ch=1 n=52 v=64
121680 On ch=1 n=59 v=80
121920 On ch=1 n=52 v=80
122160 Off ch=1 n=59 v=64
122160 Off ch=1 n=52 v=64
122160 On ch=1 n=49 v=80
122400 On ch=1 n=56 v=80
122640 Off ch=1 n=49 v=64
122640 On ch=1 n=63 v=80
122880 Off ch=1 n=56 v=64
122880 Off ch=1 n=63 v=64
122880 Par ch=1 c=64 v=0
122880 On ch=1 n=47 v=80
123360 Off ch=1 n=47 v=64
123360 Par ch=1 c=64 v=64
123360 On ch=1 n=54 v=80
123600 On ch=1 n=59 v=80
123840 Off ch=1 n=54 v=64
123840 On ch=1 n=61 v=80
124080 Off ch=1 n=59 v=64
124080 On ch=1 n=63 v=80
124320 Off ch=1 n=61 v=64
124560 Off ch=1 n=63 v=64
125040 On ch=1 n=59 v=80
125040 On ch=1 n=47 v=80
125280 Off ch=1 n=59 v=64
125280 On ch=1 n=63 v=80
125760 Off ch=1 n=63 v=64
125760 On ch=1 n=66 v=80
125760 On ch=1 n=63 v=80
125760 On ch=1 n=61 v=80
126000 Off ch=1 n=47 v=64
126000 Off ch=1 n=66 v=64
126000 Off ch=1 n=63 v=64
126000 Off ch=1 n=61 v=64
126000 On ch=1 n=58 v=80
126000 On ch=1 n=46 v=80
126480 Off ch=1 n=58 v=64
126480 On ch=1 n=58 v=80
126720 Off ch=1 n=58 v=64
126720 On ch=1 n=66 v=80
126720 On ch=1 n=61 v=80
126720 On ch=1 n=57 v=80
126960 Off ch=1 n=46 v=64
126960 Off ch=1 n=66 v=64
126960 Off ch=1 n=61 v=64
126960 Off ch=1 n=57 v=64
126960 On ch=1 n=56 v=80
126960 On ch=1 n=44 v=80
127200 Off ch=1 n=56 v=64
127200 On ch=1 n=59 v=80
127680 Off ch=1 n=59 v=64
127680 On ch=1 n=63 v=80
127680 On ch=1 n=59 v=80
127680 On ch=1 n=56 v=80
127920 Off ch=1 n=44 v=64
127920 Off ch=1 n=63 v=64
127920 Off ch=1 n=59 v=64
127920 Off ch=1 n=56 v=64
127920 On ch=1 n=66 v=80
127920 On ch=1 n=63 v=80
127920 On ch=1 n=59 v=80
127920 On ch=1 n=57 v=80
127920 On ch=1 n=54 v=80
128640 Off ch=1 n=57 v=64
128760 On ch=1 n=54 v=80
128880 Off ch=1 n=66 v=64
128880 Off ch=1 n=63 v=64
128880 Off ch=1 n=59 v=64
128880 Off ch=1 n=54 v=64
128880 Off ch=1 n=54 v=64
128880 On ch=1 n=52 v=80
128880 On ch=1 n=40 v=80
129120 Off ch=1 n=52 v=64
129120 On ch=1 n=56 v=80
129600 Off ch=1 n=56 v=64
129600 On ch=1 n=59 v=80
129600 On ch=1 n=56 v=80
129600 On ch=1 n=52 v=80
129840 Off ch=1 n=40 v=64
129840 Off ch=1 n=59 v=64
129840 Off ch=1 n=56 v=64
129840 Off ch=1 n=52 v=64
129840 On ch=1 n=42 v=80
130080 On ch=1 n=54 v=80
130320 On ch=1 n=58 v=80
130560 On ch=1 n=61 v=80
130800 Off ch=1 n=42 v=64
130800 Off ch=1 n=54 v=64
130800 Off ch=1 n=58 v=64
130800 Off ch=1 n=61 v=64
130800 On ch=1 n=47 v=80
131040 On ch=1 n=54 v=80
131280 Off ch=1 n=54 v=64
131280 On ch=1 n=59 v=80
131520 Off ch=1 n=59 v=64
131520 On ch=1 n=63 v=80
132000 Off ch=1 n=63 v=64
132000 On ch=1 n=59 v=80
132240 On ch=1 n=54 v=80
132480 Off ch=1 n=59 v=64
132480 On ch=1 n=51 v=80
132720 Off ch=1 n=47 v=64
132720 Off ch=1 n=54 v=64
132720 Off ch=1 n=51 v=64
132720 On ch=1 n=59 v=80
132720 On ch=1 n=47 v=80
132960 Off ch=1 n=59 v=64
132960 On ch=1 n=63 v=80
133440 Off ch=1 n=63 v=64
133440 On ch=1 n=66 v=80
133440 On ch=1 n=63 v=80
133440 On ch=1 n=61 v=80
133680 Off ch=1 n=47 v=64
133680 Off ch=1 n=66 v=64
133680 Off ch=1 n=63 v=64
133680 Off ch=1 n=61 v=64
133680 On ch=1 n=58 v=80
133680 On ch=1 n=46 v=80
134160 Off ch=1 n=58 v=64
134160 On ch=1 n=58 v=80
134400 Off ch=1 n=58 v=64
134400 On ch=1 n=66 v=80
134400 On ch=1 n=61 v=80
134400 On ch=1 n=57 v=80
134640 Off ch=1 n=46 v=64
134640 Off ch=1 n=66 v=64
134640 Off ch=1 n=61 v=64
134640 Off ch=1 n=57 v=64
134640 On ch=1 n=56 v=80
134640 On ch=1 n=44 v=80
134880 Off ch=1 n=56 v=64
134880 On ch=1 n=59 v=80
135360 Off ch=1 n=59 v=64
135360 On ch=1 n=63 v=80
135360 On ch=1 n=59 v=80
135360 On ch=1 n=56 v=80
135600 Off ch=1 n=44 v=64
135600 Off ch=1 n=63 v=64
135600 Off ch=1 n=59 v=64
135600 Off ch=1 n=56 v=64
135840 On ch=1 n=66 v=80
135840 On ch=1 n=63 v=80
135840 On ch=1 n=59 v=80
135840 On ch=1 n=57 v=80
135840 On ch=1 n=55 v=80
136272 Off ch=1 n=55 v=64
136320 Off ch=1 n=57 v=64
136320 On ch=1 n=57 v=80
136440 On ch=1 n=54 v=80
136560 Off ch=1 n=66 v=64
136560 Off ch=1 n=63 v=64
136560 Off ch=1 n=59 v=64
136560 Off ch=1 n=57 v=64
136560 Off ch=1 n=54 v=64
136560 On ch=1 n=52 v=80
136560 On ch=1 n=40 v=80
136800 Off ch=1 n=52 v=64
136800 On ch=1 n=56 v=80
137280 Off ch=1 n=56 v=64
137280 On ch=1 n=59 v=58
137280 On ch=1 n=56 v=58
137280 On ch=1 n=52 v=58
137520 Off ch=1 n=40 v=64
137520 Off ch=1 n=59 v=64
137520 Off ch=1 n=56 v=64
137520 Off ch=1 n=52 v=64
137520 On ch=1 n=54 v=96
137520 On ch=1 n=42 v=96
137760 On ch=1 n=64 v=96
137760 On ch=1 n=61 v=96
137760 On ch=1 n=58 v=96
138240 Off ch=1 n=64 v=64
138240 On ch=1 n=63 v=96
138480 Off ch=1 n=54 v=64
138480 Off ch=1 n=42 v=64
138480 Off ch=1 n=61 v=64
138480 Off ch=1 n=58 v=64
138480 Off ch=1 n=63 v=64
138480 On ch=1 n=47 v=53
138720 On ch=1 n=54 v=53
138960 Off ch=1 n=54 v=64
138960 On ch=1 n=59 v=53
139200 Off ch=1 n=59 v=64
139200 On ch=1 n=63 v=57
139680 Off ch=1 n=63 v=64
139680 On ch=1 n=59 v=70
139920 On ch=1 n=54 v=70
140160 Off ch=1 n=59 v=64
140160 On ch=1 n=51 v=70
140340 On ch=1 n=47 v=70
140370 On ch=1 n=54 v=70
140400 Off ch=1 n=47 v=64
140400 Off ch=1 n=54 v=64
140400 Off ch=1 n=51 v=64
140400 On ch=1 n=63 v=70
141264 Off ch=1 n=47 v=64
141264 Off ch=1 n=54 v=64
141264 Off ch=1 n=63 v=64
141270 On ch=1 n=39 v=61
141292 On ch=1 n=46 v=61
141315 On ch=1 n=51 v=61
141337 On ch=1 n=55 v=61
142224 Off ch=1 n=39 v=64
142224 Off ch=1 n=46 v=64
142224 Off ch=1 n=51 v=64
142224 Off ch=1 n=55 v=64
142230 On ch=1 n=47 v=56
142260 On ch=1 n=59 v=56
142290 On ch=1 n=61 v=60
142560 On ch=1 n=51 v=53
142800 Off ch=1 n=59 v=64
142800 Off ch=1 n=61 v=64
142800 On ch=1 n=59 v=98
143040 Off ch=1 n=51 v=64
143040 On ch=1 n=51 v=98
143190 On ch=1 n=61 v=98
143235 On ch=1 n=63 v=98
143256 Off ch=1 n=51 v=64
143280 Off ch=1 n=59 v=64
143670 On ch=1 n=61 v=98
143700 On ch=1 n=66 v=98
143730 On ch=1 n=68 v=98
143760 Off ch=1 n=61 v=64
143760 Off ch=1 n=63 v=64
145680 Off ch=1 n=47 v=64
145680 Off ch=1 n=61 v=64
145680 Off ch=1 n=66 v=64
145680 Off ch=1 n=68 v=64
145680 On ch=1 n=40 v=98
146760 Off ch=1 n=40 v=64
146760 On ch=1 n=42 v=98
148080 Off ch=1 n=42 v=64
148080 Par ch=1 c=64 v=64
148080 On ch=1 n=47 v=98
148320 On ch=1 n=54 v=98
148440 On ch=1 n=59 v=98
148800 Off ch=1 n=59 v=64
148800 On ch=1 n=61 v=98
149400 Off ch=1 n=61 v=64
149400 On ch=1 n=66 v=59
149410 Par ch=1 c=64 v=0
150270 Off ch=1 n=54 v=64
150360 Off ch=1 n=47 v=0
150360 Off ch=1 n=66 v=0
150360 Meta TrkEnd
TrkEnd
