MFile 0 1 960
MTrk
0 Meta SeqName "Good Time"
0 Meta Copyright "TheYtram 2012"
0 Meta Text "PsmPlayer V5.0"
0 SysEx f0 7e 7f 09 01 f7
0 Tempo 600000
0 PrCh ch=1 p=1
0 Par ch=1 c=7 v=100
0 TimeSig 4/4 24 8
0 KeySig -3 major
0 Par ch=1 c=121 v=0
0 Par ch=1 c=91 v=48
0 Par ch=1 c=10 v=51
0 Par ch=1 c=121 v=0
0 Par ch=1 c=91 v=48
0 On ch=1 n=44 v=71
0 On ch=1 n=56 v=71
480 Off ch=1 n=44 v=0
480 Off ch=1 n=56 v=0
480 Tempo 480000
480 On ch=1 n=44 v=78
480 On ch=1 n=56 v=78
960 Off ch=1 n=44 v=0
960 Off ch=1 n=56 v=0
960 On ch=1 n=44 v=79
960 On ch=1 n=56 v=79
1440 Off ch=1 n=44 v=0
1440 Off ch=1 n=56 v=0
1440 On ch=1 n=44 v=80
1440 On ch=1 n=56 v=80
1920 Off ch=1 n=44 v=0
1920 Off ch=1 n=56 v=0
1920 On ch=1 n=39 v=68
1920 On ch=1 n=51 v=68
2400 Off ch=1 n=39 v=0
2400 Off ch=1 n=51 v=0
2400 On ch=1 n=39 v=76
2400 On ch=1 n=51 v=76
2880 Off ch=1 n=39 v=0
2880 Off ch=1 n=51 v=0
2880 On ch=1 n=39 v=79
2880 On ch=1 n=51 v=79
3360 Off ch=1 n=39 v=0
3360 Off ch=1 n=51 v=0
3360 On ch=1 n=70 v=65
3360 On ch=1 n=82 v=65
3360 On ch=1 n=39 v=83
3360 On ch=1 n=51 v=83
3840 Off ch=1 n=39 v=0
3840 Off ch=1 n=51 v=0
3840 On ch=1 n=46 v=84
3840 On ch=1 n=58 v=84
4320 Off ch=1 n=70 v=0
4320 Off ch=1 n=82 v=0
4320 Off ch=1 n=46 v=0
4320 Off ch=1 n=58 v=0
4320 On ch=1 n=67 v=70
4320 On ch=1 n=79 v=70
4320 On ch=1 n=46 v=76
4320 On ch=1 n=58 v=76
4800 Off ch=1 n=46 v=0
4800 Off ch=1 n=58 v=0
4800 On ch=1 n=46 v=78
4800 On ch=1 n=58 v=78
5280 Off ch=1 n=67 v=0
5280 Off ch=1 n=79 v=0
5280 Off ch=1 n=46 v=0
5280 Off ch=1 n=58 v=0
5280 On ch=1 n=63 v=67
5280 On ch=1 n=75 v=67
5280 On ch=1 n=46 v=77
5280 On ch=1 n=58 v=77
5760 Off ch=1 n=46 v=0
5760 Off ch=1 n=58 v=0
5760 On ch=1 n=48 v=79
5760 On ch=1 n=60 v=79
6240 Off ch=1 n=48 v=0
6240 Off ch=1 n=60 v=0
6240 On ch=1 n=48 v=78
6240 On ch=1 n=60 v=78
6720 Off ch=1 n=63 v=0
6720 Off ch=1 n=75 v=0
6720 Off ch=1 n=48 v=0
6720 Off ch=1 n=60 v=0
6720 On ch=1 n=48 v=80
6720 On ch=1 n=60 v=80
7200 Off ch=1 n=48 v=0
7200 Off ch=1 n=60 v=0
7200 On ch=1 n=48 v=78
7200 On ch=1 n=60 v=78
7680 Off ch=1 n=48 v=0
7680 Off ch=1 n=60 v=0
7680 On ch=1 n=44 v=71
7680 On ch=1 n=56 v=71
8160 Off ch=1 n=44 v=0
8160 Off ch=1 n=56 v=0
8160 On ch=1 n=70 v=66
8160 On ch=1 n=82 v=66
8160 On ch=1 n=44 v=73
8160 On ch=1 n=56 v=73
8640 Off ch=1 n=70 v=0
8640 Off ch=1 n=82 v=0
8640 Off ch=1 n=44 v=0
8640 Off ch=1 n=56 v=0
8640 On ch=1 n=67 v=71
8640 On ch=1 n=79 v=71
8640 On ch=1 n=44 v=73
8640 On ch=1 n=56 v=73
9120 Off ch=1 n=67 v=0
9120 Off ch=1 n=79 v=0
9120 Off ch=1 n=44 v=0
9120 Off ch=1 n=56 v=0
9120 On ch=1 n=70 v=83
9120 On ch=1 n=82 v=83
9120 On ch=1 n=44 v=80
9120 On ch=1 n=56 v=80
9600 Off ch=1 n=70 v=0
9600 Off ch=1 n=82 v=0
9600 Off ch=1 n=44 v=0
9600 Off ch=1 n=56 v=0
9600 On ch=1 n=67 v=71
9600 On ch=1 n=79 v=71
9600 On ch=1 n=39 v=69
9600 On ch=1 n=51 v=69
10080 Off ch=1 n=39 v=0
10080 Off ch=1 n=51 v=0
10080 On ch=1 n=39 v=77
10080 On ch=1 n=51 v=77
10560 Off ch=1 n=67 v=0
10560 Off ch=1 n=79 v=0
10560 Off ch=1 n=39 v=0
10560 Off ch=1 n=51 v=0
10560 On ch=1 n=65 v=72
10560 On ch=1 n=77 v=72
10560 On ch=1 n=39 v=73
10560 On ch=1 n=51 v=73
11040 Off ch=1 n=39 v=0
11040 Off ch=1 n=51 v=0
11040 On ch=1 n=39 v=79
11040 On ch=1 n=51 v=79
11520 Off ch=1 n=65 v=0
11520 Off ch=1 n=77 v=0
11520 Off ch=1 n=39 v=0
11520 Off ch=1 n=51 v=0
11520 On ch=1 n=65 v=74
11520 On ch=1 n=77 v=74
11520 On ch=1 n=46 v=83
11520 On ch=1 n=58 v=83
12000 Off ch=1 n=65 v=0
12000 Off ch=1 n=77 v=0
12000 Off ch=1 n=46 v=0
12000 Off ch=1 n=58 v=0
12000 On ch=1 n=65 v=76
12000 On ch=1 n=77 v=76
12000 On ch=1 n=46 v=76
12000 On ch=1 n=58 v=76
12480 Off ch=1 n=65 v=0
12480 Off ch=1 n=77 v=0
12480 Off ch=1 n=46 v=0
12480 Off ch=1 n=58 v=0
12480 On ch=1 n=65 v=77
12480 On ch=1 n=77 v=77
12480 On ch=1 n=46 v=78
12480 On ch=1 n=58 v=78
12960 Off ch=1 n=65 v=0
12960 Off ch=1 n=77 v=0
12960 Off ch=1 n=46 v=0
12960 Off ch=1 n=58 v=0
12960 On ch=1 n=63 v=72
12960 On ch=1 n=75 v=72
12960 On ch=1 n=46 v=77
12960 On ch=1 n=58 v=77
13440 Off ch=1 n=63 v=0
13440 Off ch=1 n=75 v=0
13440 Off ch=1 n=46 v=0
13440 Off ch=1 n=58 v=0
13440 On ch=1 n=67 v=83
13440 On ch=1 n=79 v=83
13440 On ch=1 n=48 v=84
13440 On ch=1 n=60 v=84
13920 Off ch=1 n=48 v=0
13920 Off ch=1 n=60 v=0
13920 On ch=1 n=48 v=78
13920 On ch=1 n=60 v=78
14400 Off ch=1 n=67 v=0
14400 Off ch=1 n=79 v=0
14400 Off ch=1 n=48 v=0
14400 Off ch=1 n=60 v=0
14400 On ch=1 n=72 v=66
14400 On ch=1 n=48 v=77
14400 On ch=1 n=60 v=77
14880 Off ch=1 n=72 v=0
14880 Off ch=1 n=48 v=0
14880 Off ch=1 n=60 v=0
14880 On ch=1 n=58 v=67
14880 On ch=1 n=70 v=67
14880 On ch=1 n=48 v=77
14880 On ch=1 n=60 v=77
15360 Off ch=1 n=58 v=0
15360 Off ch=1 n=70 v=0
15360 Off ch=1 n=48 v=0
15360 Off ch=1 n=60 v=0
15360 On ch=1 n=44 v=73
15360 On ch=1 n=56 v=73
15840 Off ch=1 n=44 v=0
15840 Off ch=1 n=56 v=0
15840 On ch=1 n=70 v=64
15840 On ch=1 n=82 v=64
15840 On ch=1 n=44 v=75
15840 On ch=1 n=56 v=75
16320 Off ch=1 n=70 v=0
16320 Off ch=1 n=82 v=0
16320 Off ch=1 n=44 v=0
16320 Off ch=1 n=56 v=0
16320 On ch=1 n=67 v=62
16320 On ch=1 n=79 v=62
16320 On ch=1 n=44 v=77
16320 On ch=1 n=56 v=77
16800 Off ch=1 n=67 v=0
16800 Off ch=1 n=79 v=0
16800 Off ch=1 n=44 v=0
16800 Off ch=1 n=56 v=0
16800 On ch=1 n=70 v=77
16800 On ch=1 n=82 v=77
16800 On ch=1 n=44 v=79
16800 On ch=1 n=56 v=79
17280 Off ch=1 n=70 v=0
17280 Off ch=1 n=82 v=0
17280 Off ch=1 n=44 v=0
17280 Off ch=1 n=56 v=0
17280 On ch=1 n=67 v=75
17280 On ch=1 n=79 v=75
17280 On ch=1 n=39 v=74
17280 On ch=1 n=51 v=74
17760 Off ch=1 n=39 v=0
17760 Off ch=1 n=51 v=0
17760 On ch=1 n=39 v=74
17760 On ch=1 n=51 v=74
18240 Off ch=1 n=67 v=0
18240 Off ch=1 n=79 v=0
18240 Off ch=1 n=39 v=0
18240 Off ch=1 n=51 v=0
18240 On ch=1 n=65 v=76
18240 On ch=1 n=77 v=76
18240 On ch=1 n=39 v=78
18240 On ch=1 n=51 v=78
18720 Off ch=1 n=39 v=0
18720 Off ch=1 n=51 v=0
18720 On ch=1 n=39 v=79
18720 On ch=1 n=51 v=79
19200 Off ch=1 n=65 v=0
19200 Off ch=1 n=77 v=0
19200 Off ch=1 n=39 v=0
19200 Off ch=1 n=51 v=0
19200 On ch=1 n=65 v=74
19200 On ch=1 n=77 v=74
19200 On ch=1 n=46 v=81
19200 On ch=1 n=58 v=81
19680 Off ch=1 n=65 v=0
19680 Off ch=1 n=77 v=0
19680 Off ch=1 n=46 v=0
19680 Off ch=1 n=58 v=0
19680 On ch=1 n=65 v=71
19680 On ch=1 n=77 v=71
19680 On ch=1 n=46 v=81
19680 On ch=1 n=58 v=81
20160 Off ch=1 n=65 v=0
20160 Off ch=1 n=77 v=0
20160 Off ch=1 n=46 v=0
20160 Off ch=1 n=58 v=0
20160 On ch=1 n=65 v=77
20160 On ch=1 n=77 v=77
20160 On ch=1 n=46 v=77
20160 On ch=1 n=58 v=77
20640 Off ch=1 n=65 v=0
20640 Off ch=1 n=77 v=0
20640 Off ch=1 n=46 v=0
20640 Off ch=1 n=58 v=0
20640 On ch=1 n=63 v=72
20640 On ch=1 n=75 v=72
20640 On ch=1 n=46 v=74
20640 On ch=1 n=58 v=74
21120 Off ch=1 n=63 v=0
21120 Off ch=1 n=75 v=0
21120 Off ch=1 n=46 v=0
21120 Off ch=1 n=58 v=0
21120 On ch=1 n=67 v=86
21120 On ch=1 n=79 v=86
21120 On ch=1 n=48 v=81
21120 On ch=1 n=60 v=81
21600 Off ch=1 n=48 v=0
21600 Off ch=1 n=60 v=0
21600 On ch=1 n=48 v=77
21600 On ch=1 n=60 v=77
22080 Off ch=1 n=67 v=0
22080 Off ch=1 n=79 v=0
22080 Off ch=1 n=48 v=0
22080 Off ch=1 n=60 v=0
22080 On ch=1 n=58 v=61
22080 On ch=1 n=70 v=61
22080 On ch=1 n=48 v=74
22080 On ch=1 n=60 v=74
22560 Off ch=1 n=58 v=0
22560 Off ch=1 n=70 v=0
22560 Off ch=1 n=48 v=0
22560 Off ch=1 n=60 v=0
22560 On ch=1 n=63 v=84
22560 On ch=1 n=75 v=84
22560 On ch=1 n=48 v=73
22560 On ch=1 n=60 v=73
23040 Off ch=1 n=63 v=0
23040 Off ch=1 n=75 v=0
23040 Off ch=1 n=48 v=0
23040 Off ch=1 n=60 v=0
23040 On ch=1 n=68 v=88
23040 On ch=1 n=80 v=88
23040 On ch=1 n=44 v=71
23040 On ch=1 n=56 v=71
23520 Off ch=1 n=68 v=0
23520 Off ch=1 n=80 v=0
23520 Off ch=1 n=44 v=0
23520 Off ch=1 n=56 v=0
23520 On ch=1 n=67 v=74
23520 On ch=1 n=79 v=74
23520 On ch=1 n=44 v=79
23520 On ch=1 n=56 v=79
24000 Off ch=1 n=67 v=0
24000 Off ch=1 n=79 v=0
24000 Off ch=1 n=44 v=0
24000 Off ch=1 n=56 v=0
24000 On ch=1 n=65 v=70
24000 On ch=1 n=77 v=70
24000 On ch=1 n=44 v=76
24000 On ch=1 n=56 v=76
24480 Off ch=1 n=65 v=0
24480 Off ch=1 n=77 v=0
24480 Off ch=1 n=44 v=0
24480 Off ch=1 n=56 v=0
24480 On ch=1 n=63 v=75
24480 On ch=1 n=75 v=75
24480 On ch=1 n=44 v=75
24480 On ch=1 n=56 v=75
24960 Off ch=1 n=63 v=0
24960 Off ch=1 n=75 v=0
24960 Off ch=1 n=44 v=0
24960 Off ch=1 n=56 v=0
24960 On ch=1 n=58 v=64
24960 On ch=1 n=70 v=64
24960 On ch=1 n=39 v=70
24960 On ch=1 n=51 v=70
25440 Off ch=1 n=58 v=0
25440 Off ch=1 n=70 v=0
25440 Off ch=1 n=39 v=0
25440 Off ch=1 n=51 v=0
25440 On ch=1 n=67 v=87
25440 On ch=1 n=79 v=87
25440 On ch=1 n=39 v=76
25440 On ch=1 n=51 v=76
25920 Off ch=1 n=67 v=0
25920 Off ch=1 n=79 v=0
25920 Off ch=1 n=39 v=0
25920 Off ch=1 n=51 v=0
25920 On ch=1 n=65 v=74
25920 On ch=1 n=77 v=74
25920 On ch=1 n=39 v=79
25920 On ch=1 n=51 v=79
26400 Off ch=1 n=65 v=0
26400 Off ch=1 n=77 v=0
26400 Off ch=1 n=39 v=0
26400 Off ch=1 n=51 v=0
26400 On ch=1 n=39 v=75
26400 On ch=1 n=51 v=75
26880 Off ch=1 n=39 v=0
26880 Off ch=1 n=51 v=0
26880 On ch=1 n=46 v=82
26880 On ch=1 n=58 v=82
27360 Off ch=1 n=46 v=0
27360 Off ch=1 n=58 v=0
27360 On ch=1 n=46 v=75
27360 On ch=1 n=58 v=75
27840 Off ch=1 n=46 v=0
27840 Off ch=1 n=58 v=0
27840 On ch=1 n=46 v=76
27840 On ch=1 n=58 v=76
28320 Off ch=1 n=46 v=0
28320 Off ch=1 n=58 v=0
28320 On ch=1 n=46 v=75
28320 On ch=1 n=58 v=75
28800 Off ch=1 n=46 v=0
28800 Off ch=1 n=58 v=0
28800 On ch=1 n=48 v=78
28800 On ch=1 n=60 v=78
29280 Off ch=1 n=48 v=0
29280 Off ch=1 n=60 v=0
29280 On ch=1 n=48 v=79
29280 On ch=1 n=60 v=79
29760 Off ch=1 n=48 v=0
29760 Off ch=1 n=60 v=0
29760 On ch=1 n=48 v=74
29760 On ch=1 n=60 v=74
30240 Off ch=1 n=48 v=0
30240 Off ch=1 n=60 v=0
30240 On ch=1 n=48 v=71
30240 On ch=1 n=60 v=71
30720 Off ch=1 n=48 v=0
30720 Off ch=1 n=60 v=0
30720 On ch=1 n=44 v=70
30720 On ch=1 n=56 v=70
31200 Off ch=1 n=44 v=0
31200 Off ch=1 n=56 v=0
31200 On ch=1 n=44 v=74
31200 On ch=1 n=56 v=74
31680 Off ch=1 n=44 v=0
31680 Off ch=1 n=56 v=0
31680 On ch=1 n=72 v=67
31680 On ch=1 n=44 v=72
31680 On ch=1 n=56 v=72
32160 Off ch=1 n=44 v=0
32160 Off ch=1 n=56 v=0
32160 On ch=1 n=44 v=78
32160 On ch=1 n=56 v=78
32640 Off ch=1 n=72 v=0
32640 Off ch=1 n=44 v=0
32640 Off ch=1 n=56 v=0
32640 On ch=1 n=70 v=70
32640 On ch=1 n=39 v=76
32640 On ch=1 n=51 v=76
33120 Off ch=1 n=39 v=0
33120 Off ch=1 n=51 v=0
33120 On ch=1 n=39 v=71
33120 On ch=1 n=51 v=71
33600 Off ch=1 n=70 v=0
33600 Off ch=1 n=39 v=0
33600 Off ch=1 n=51 v=0
33600 On ch=1 n=67 v=66
33600 On ch=1 n=39 v=72
33600 On ch=1 n=51 v=72
34080 Off ch=1 n=67 v=0
34080 Off ch=1 n=39 v=0
34080 Off ch=1 n=51 v=0
34080 On ch=1 n=63 v=72
34080 On ch=1 n=39 v=79
34080 On ch=1 n=51 v=79
34560 Off ch=1 n=63 v=0
34560 Off ch=1 n=39 v=0
34560 Off ch=1 n=51 v=0
34560 On ch=1 n=65 v=79
34560 On ch=1 n=46 v=81
34560 On ch=1 n=58 v=81
35040 Off ch=1 n=46 v=0
35040 Off ch=1 n=58 v=0
35040 On ch=1 n=46 v=86
35040 On ch=1 n=58 v=86
35520 Off ch=1 n=65 v=0
35520 Off ch=1 n=46 v=0
35520 Off ch=1 n=58 v=0
35520 On ch=1 n=65 v=79
35520 On ch=1 n=46 v=81
35520 On ch=1 n=58 v=81
36000 Off ch=1 n=46 v=0
36000 Off ch=1 n=58 v=0
36000 On ch=1 n=46 v=71
36000 On ch=1 n=58 v=71
36480 Off ch=1 n=65 v=0
36480 Off ch=1 n=46 v=0
36480 Off ch=1 n=58 v=0
36480 On ch=1 n=67 v=85
36480 On ch=1 n=48 v=81
36480 On ch=1 n=60 v=81
36960 Off ch=1 n=67 v=0
36960 Off ch=1 n=48 v=0
36960 Off ch=1 n=60 v=0
36960 On ch=1 n=63 v=69
36960 On ch=1 n=48 v=80
36960 On ch=1 n=60 v=80
37440 Off ch=1 n=63 v=0
37440 Off ch=1 n=48 v=0
37440 Off ch=1 n=60 v=0
37440 On ch=1 n=48 v=77
37440 On ch=1 n=60 v=77
37920 Off ch=1 n=48 v=0
37920 Off ch=1 n=60 v=0
37920 On ch=1 n=48 v=73
37920 On ch=1 n=60 v=73
38400 Off ch=1 n=48 v=0
38400 Off ch=1 n=60 v=0
38400 On ch=1 n=44 v=74
38400 On ch=1 n=56 v=74
38880 Off ch=1 n=44 v=0
38880 Off ch=1 n=56 v=0
38880 On ch=1 n=44 v=76
38880 On ch=1 n=56 v=76
39360 Off ch=1 n=44 v=0
39360 Off ch=1 n=56 v=0
39360 On ch=1 n=72 v=68
39360 On ch=1 n=44 v=78
39360 On ch=1 n=56 v=78
39840 Off ch=1 n=44 v=0
39840 Off ch=1 n=56 v=0
39840 On ch=1 n=44 v=73
39840 On ch=1 n=56 v=73
40320 Off ch=1 n=72 v=0
40320 Off ch=1 n=44 v=0
40320 Off ch=1 n=56 v=0
40320 On ch=1 n=70 v=71
40320 On ch=1 n=39 v=71
40320 On ch=1 n=51 v=71
40800 Off ch=1 n=39 v=0
40800 Off ch=1 n=51 v=0
40800 On ch=1 n=39 v=77
40800 On ch=1 n=51 v=77
41280 Off ch=1 n=70 v=0
41280 Off ch=1 n=39 v=0
41280 Off ch=1 n=51 v=0
41280 On ch=1 n=67 v=70
41280 On ch=1 n=39 v=76
41280 On ch=1 n=51 v=76
41760 Off ch=1 n=67 v=0
41760 Off ch=1 n=39 v=0
41760 Off ch=1 n=51 v=0
41760 On ch=1 n=63 v=67
41760 On ch=1 n=39 v=73
41760 On ch=1 n=51 v=73
42240 Off ch=1 n=63 v=0
42240 Off ch=1 n=39 v=0
42240 Off ch=1 n=51 v=0
42240 On ch=1 n=65 v=78
42240 On ch=1 n=46 v=84
42240 On ch=1 n=58 v=84
42720 Off ch=1 n=46 v=0
42720 Off ch=1 n=58 v=0
42720 On ch=1 n=46 v=84
42720 On ch=1 n=58 v=84
43200 Off ch=1 n=65 v=0
43200 Off ch=1 n=46 v=0
43200 Off ch=1 n=58 v=0
43200 On ch=1 n=65 v=79
43200 On ch=1 n=46 v=79
43200 On ch=1 n=58 v=79
43680 Off ch=1 n=65 v=0
43680 Off ch=1 n=46 v=0
43680 Off ch=1 n=58 v=0
43680 On ch=1 n=63 v=71
43680 On ch=1 n=46 v=74
43680 On ch=1 n=58 v=74
44160 Off ch=1 n=63 v=0
44160 Off ch=1 n=46 v=0
44160 Off ch=1 n=58 v=0
44160 On ch=1 n=67 v=79
44160 On ch=1 n=48 v=80
44160 On ch=1 n=60 v=80
44640 Off ch=1 n=67 v=0
44640 Off ch=1 n=48 v=0
44640 Off ch=1 n=60 v=0
44640 On ch=1 n=70 v=82
44640 On ch=1 n=48 v=80
44640 On ch=1 n=60 v=80
45120 Off ch=1 n=70 v=0
45120 Off ch=1 n=48 v=0
45120 Off ch=1 n=60 v=0
45120 On ch=1 n=67 v=71
45120 On ch=1 n=48 v=77
45120 On ch=1 n=60 v=77
45600 Off ch=1 n=48 v=0
45600 Off ch=1 n=60 v=0
45600 On ch=1 n=48 v=73
45600 On ch=1 n=60 v=73
46080 Off ch=1 n=67 v=0
46080 Off ch=1 n=48 v=0
46080 Off ch=1 n=60 v=0
46080 On ch=1 n=44 v=69
46080 On ch=1 n=56 v=69
46560 Off ch=1 n=44 v=0
46560 Off ch=1 n=56 v=0
46560 On ch=1 n=44 v=79
46560 On ch=1 n=56 v=79
47040 Off ch=1 n=44 v=0
47040 Off ch=1 n=56 v=0
47040 On ch=1 n=72 v=72
47040 On ch=1 n=44 v=75
47040 On ch=1 n=56 v=75
47520 Off ch=1 n=44 v=0
47520 Off ch=1 n=56 v=0
47520 On ch=1 n=44 v=73
47520 On ch=1 n=56 v=73
48000 Off ch=1 n=72 v=0
48000 Off ch=1 n=44 v=0
48000 Off ch=1 n=56 v=0
48000 On ch=1 n=70 v=67
48000 On ch=1 n=39 v=75
48000 On ch=1 n=51 v=75
48480 Off ch=1 n=39 v=0
48480 Off ch=1 n=51 v=0
48480 On ch=1 n=39 v=76
48480 On ch=1 n=51 v=76
48960 Off ch=1 n=70 v=0
48960 Off ch=1 n=39 v=0
48960 Off ch=1 n=51 v=0
48960 On ch=1 n=67 v=70
48960 On ch=1 n=39 v=77
48960 On ch=1 n=51 v=77
49440 Off ch=1 n=67 v=0
49440 Off ch=1 n=39 v=0
49440 Off ch=1 n=51 v=0
49440 On ch=1 n=63 v=64
49440 On ch=1 n=39 v=78
49440 On ch=1 n=51 v=78
49920 Off ch=1 n=63 v=0
49920 Off ch=1 n=39 v=0
49920 Off ch=1 n=51 v=0
49920 On ch=1 n=65 v=83
49920 On ch=1 n=46 v=82
49920 On ch=1 n=58 v=82
50400 Off ch=1 n=46 v=0
50400 Off ch=1 n=58 v=0
50400 On ch=1 n=46 v=72
50400 On ch=1 n=58 v=72
50880 Off ch=1 n=65 v=0
50880 Off ch=1 n=46 v=0
50880 Off ch=1 n=58 v=0
50880 On ch=1 n=65 v=76
50880 On ch=1 n=46 v=76
50880 On ch=1 n=58 v=76
51360 Off ch=1 n=65 v=0
51360 Off ch=1 n=46 v=0
51360 Off ch=1 n=58 v=0
51360 On ch=1 n=63 v=72
51360 On ch=1 n=46 v=78
51360 On ch=1 n=58 v=78
51840 Off ch=1 n=63 v=0
51840 Off ch=1 n=46 v=0
51840 Off ch=1 n=58 v=0
51840 On ch=1 n=67 v=85
51840 On ch=1 n=48 v=80
51840 On ch=1 n=60 v=80
52320 Off ch=1 n=67 v=0
52320 Off ch=1 n=48 v=0
52320 Off ch=1 n=60 v=0
52320 On ch=1 n=58 v=72
52320 On ch=1 n=48 v=75
52320 On ch=1 n=60 v=75
52800 Off ch=1 n=58 v=0
52800 Off ch=1 n=48 v=0
52800 Off ch=1 n=60 v=0
52800 On ch=1 n=63 v=86
52800 On ch=1 n=48 v=75
52800 On ch=1 n=60 v=75
53280 Off ch=1 n=63 v=0
53280 Off ch=1 n=48 v=0
53280 Off ch=1 n=60 v=0
53280 On ch=1 n=70 v=89
53280 On ch=1 n=48 v=76
53280 On ch=1 n=60 v=76
53760 Off ch=1 n=48 v=0
53760 Off ch=1 n=60 v=0
53760 On ch=1 n=44 v=74
53760 On ch=1 n=56 v=74
54240 Off ch=1 n=70 v=0
54240 Off ch=1 n=44 v=0
54240 Off ch=1 n=56 v=0
54240 On ch=1 n=67 v=69
54240 On ch=1 n=44 v=79
54240 On ch=1 n=56 v=79
54720 Off ch=1 n=44 v=0
54720 Off ch=1 n=56 v=0
54720 On ch=1 n=44 v=73
54720 On ch=1 n=56 v=73
55200 Off ch=1 n=67 v=0
55200 Off ch=1 n=44 v=0
55200 Off ch=1 n=56 v=0
55200 On ch=1 n=63 v=66
55200 On ch=1 n=44 v=72
55200 On ch=1 n=56 v=72
55680 Off ch=1 n=44 v=0
55680 Off ch=1 n=56 v=0
55680 On ch=1 n=39 v=67
55680 On ch=1 n=51 v=67
56160 Off ch=1 n=39 v=0
56160 Off ch=1 n=51 v=0
56160 On ch=1 n=39 v=71
56160 On ch=1 n=51 v=71
56640 Off ch=1 n=63 v=0
56640 Off ch=1 n=39 v=0
56640 Off ch=1 n=51 v=0
56640 On ch=1 n=39 v=77
56640 On ch=1 n=51 v=77
57120 Off ch=1 n=39 v=0
57120 Off ch=1 n=51 v=0
57120 On ch=1 n=63 v=69
57120 On ch=1 n=39 v=75
57120 On ch=1 n=51 v=75
57600 Off ch=1 n=63 v=0
57600 Off ch=1 n=39 v=0
57600 Off ch=1 n=51 v=0
57600 On ch=1 n=65 v=84
57600 On ch=1 n=46 v=84
57600 On ch=1 n=58 v=84
58080 Off ch=1 n=65 v=0
58080 Off ch=1 n=46 v=0
58080 Off ch=1 n=58 v=0
58080 On ch=1 n=65 v=76
58080 On ch=1 n=46 v=80
58080 On ch=1 n=58 v=80
58560 Off ch=1 n=65 v=0
58560 Off ch=1 n=46 v=0
58560 Off ch=1 n=58 v=0
58560 On ch=1 n=65 v=77
58560 On ch=1 n=46 v=74
58560 On ch=1 n=58 v=74
59040 Off ch=1 n=65 v=0
59040 Off ch=1 n=46 v=0
59040 Off ch=1 n=58 v=0
59040 On ch=1 n=63 v=70
59040 On ch=1 n=46 v=79
59040 On ch=1 n=58 v=79
59520 Off ch=1 n=63 v=0
59520 Off ch=1 n=46 v=0
59520 Off ch=1 n=58 v=0
59520 On ch=1 n=67 v=85
59520 On ch=1 n=48 v=80
59520 On ch=1 n=60 v=80
60000 Off ch=1 n=48 v=0
60000 On ch=1 n=48 v=80
60480 Off ch=1 n=67 v=0
60480 Off ch=1 n=60 v=0
60480 Off ch=1 n=48 v=0
60480 On ch=1 n=48 v=75
60480 On ch=1 n=60 v=75
60960 Off ch=1 n=48 v=0
60960 Off ch=1 n=60 v=0
60960 On ch=1 n=58 v=71
60960 On ch=1 n=48 v=77
60960 On ch=1 n=60 v=77
61440 Off ch=1 n=58 v=0
61440 Off ch=1 n=48 v=0
61440 Off ch=1 n=60 v=0
61440 On ch=1 n=44 v=77
61440 On ch=1 n=56 v=77
61920 Off ch=1 n=44 v=0
61920 Off ch=1 n=56 v=0
61920 On ch=1 n=44 v=75
61920 On ch=1 n=56 v=75
62400 Off ch=1 n=44 v=0
62400 Off ch=1 n=56 v=0
62400 On ch=1 n=72 v=65
62400 On ch=1 n=44 v=73
62400 On ch=1 n=56 v=73
62880 Off ch=1 n=44 v=0
62880 Off ch=1 n=56 v=0
62880 On ch=1 n=44 v=73
62880 On ch=1 n=56 v=73
63360 Off ch=1 n=72 v=0
63360 Off ch=1 n=44 v=0
63360 Off ch=1 n=56 v=0
63360 On ch=1 n=70 v=72
63360 On ch=1 n=39 v=72
63360 On ch=1 n=51 v=72
63840 Off ch=1 n=39 v=0
63840 Off ch=1 n=51 v=0
63840 On ch=1 n=39 v=78
63840 On ch=1 n=51 v=78
64320 Off ch=1 n=70 v=0
64320 Off ch=1 n=39 v=0
64320 Off ch=1 n=51 v=0
64320 On ch=1 n=67 v=71
64320 On ch=1 n=39 v=79
64320 On ch=1 n=51 v=79
64800 Off ch=1 n=67 v=0
64800 Off ch=1 n=39 v=0
64800 Off ch=1 n=51 v=0
64800 On ch=1 n=63 v=64
64800 On ch=1 n=39 v=77
64800 On ch=1 n=51 v=77
65280 Off ch=1 n=63 v=0
65280 Off ch=1 n=39 v=0
65280 Off ch=1 n=51 v=0
65280 On ch=1 n=65 v=80
65280 On ch=1 n=46 v=83
65280 On ch=1 n=58 v=83
65760 Off ch=1 n=46 v=0
65760 Off ch=1 n=58 v=0
65760 On ch=1 n=46 v=78
65760 On ch=1 n=58 v=78
66240 Off ch=1 n=65 v=0
66240 Off ch=1 n=46 v=0
66240 Off ch=1 n=58 v=0
66240 On ch=1 n=65 v=75
66240 On ch=1 n=46 v=76
66240 On ch=1 n=58 v=76
66720 Off ch=1 n=46 v=0
66720 Off ch=1 n=58 v=0
66720 On ch=1 n=46 v=76
66720 On ch=1 n=58 v=76
67200 Off ch=1 n=65 v=0
67200 Off ch=1 n=46 v=0
67200 Off ch=1 n=58 v=0
67200 On ch=1 n=67 v=78
67200 On ch=1 n=48 v=86
67200 On ch=1 n=60 v=86
67680 Off ch=1 n=67 v=0
67680 Off ch=1 n=48 v=0
67680 Off ch=1 n=60 v=0
67680 On ch=1 n=63 v=70
67680 On ch=1 n=48 v=77
67680 On ch=1 n=60 v=77
68160 Off ch=1 n=63 v=0
68160 Off ch=1 n=48 v=0
68160 Off ch=1 n=60 v=0
68160 On ch=1 n=48 v=79
68160 On ch=1 n=60 v=79
68640 Off ch=1 n=48 v=0
68640 Off ch=1 n=60 v=0
68640 On ch=1 n=48 v=74
68640 On ch=1 n=60 v=74
69120 Off ch=1 n=48 v=0
69120 Off ch=1 n=60 v=0
69120 On ch=1 n=44 v=69
69120 On ch=1 n=56 v=69
69600 Off ch=1 n=44 v=0
69600 Off ch=1 n=56 v=0
69600 On ch=1 n=44 v=69
69600 On ch=1 n=56 v=69
70080 Off ch=1 n=44 v=0
70080 Off ch=1 n=56 v=0
70080 On ch=1 n=72 v=71
70080 On ch=1 n=44 v=78
70080 On ch=1 n=56 v=78
70560 Off ch=1 n=44 v=0
70560 Off ch=1 n=56 v=0
70560 On ch=1 n=44 v=77
70560 On ch=1 n=56 v=77
71040 Off ch=1 n=72 v=0
71040 Off ch=1 n=44 v=0
71040 Off ch=1 n=56 v=0
71040 On ch=1 n=70 v=72
71040 On ch=1 n=39 v=74
71040 On ch=1 n=51 v=74
71520 Off ch=1 n=39 v=0
71520 Off ch=1 n=51 v=0
71520 On ch=1 n=39 v=72
71520 On ch=1 n=51 v=72
72000 Off ch=1 n=70 v=0
72000 Off ch=1 n=39 v=0
72000 Off ch=1 n=51 v=0
72000 On ch=1 n=67 v=68
72000 On ch=1 n=39 v=73
72000 On ch=1 n=51 v=73
72480 Off ch=1 n=67 v=0
72480 Off ch=1 n=39 v=0
72480 Off ch=1 n=51 v=0
72480 On ch=1 n=63 v=67
72480 On ch=1 n=39 v=76
72480 On ch=1 n=51 v=76
72960 Off ch=1 n=63 v=0
72960 Off ch=1 n=39 v=0
72960 Off ch=1 n=51 v=0
72960 On ch=1 n=65 v=78
72960 On ch=1 n=46 v=88
72960 On ch=1 n=58 v=88
73440 Off ch=1 n=46 v=0
73440 Off ch=1 n=58 v=0
73440 On ch=1 n=46 v=78
73440 On ch=1 n=58 v=78
73920 Off ch=1 n=65 v=0
73920 Off ch=1 n=46 v=0
73920 Off ch=1 n=58 v=0
73920 On ch=1 n=65 v=77
73920 On ch=1 n=46 v=74
73920 On ch=1 n=58 v=74
74400 Off ch=1 n=65 v=0
74400 Off ch=1 n=46 v=0
74400 Off ch=1 n=58 v=0
74400 On ch=1 n=63 v=71
74400 On ch=1 n=46 v=79
74400 On ch=1 n=58 v=79
74880 Off ch=1 n=63 v=0
74880 Off ch=1 n=46 v=0
74880 Off ch=1 n=58 v=0
74880 On ch=1 n=67 v=81
74880 On ch=1 n=48 v=84
74880 On ch=1 n=60 v=84
75360 Off ch=1 n=67 v=0
75360 Off ch=1 n=48 v=0
75360 Off ch=1 n=60 v=0
75360 On ch=1 n=70 v=81
75360 On ch=1 n=48 v=82
75360 On ch=1 n=60 v=82
75840 Off ch=1 n=70 v=0
75840 Off ch=1 n=48 v=0
75840 Off ch=1 n=60 v=0
75840 On ch=1 n=67 v=68
75840 On ch=1 n=48 v=76
75840 On ch=1 n=60 v=76
76320 Off ch=1 n=48 v=0
76320 Off ch=1 n=60 v=0
76320 On ch=1 n=48 v=78
76320 On ch=1 n=60 v=78
76800 Off ch=1 n=67 v=0
76800 Off ch=1 n=48 v=0
76800 Off ch=1 n=60 v=0
76800 On ch=1 n=44 v=72
76800 On ch=1 n=56 v=72
77280 Off ch=1 n=44 v=0
77280 Off ch=1 n=56 v=0
77280 On ch=1 n=44 v=77
77280 On ch=1 n=56 v=77
77760 Off ch=1 n=44 v=0
77760 Off ch=1 n=56 v=0
77760 On ch=1 n=72 v=70
77760 On ch=1 n=44 v=79
77760 On ch=1 n=56 v=79
78240 Off ch=1 n=44 v=0
78240 Off ch=1 n=56 v=0
78240 On ch=1 n=44 v=75
78240 On ch=1 n=56 v=75
78720 Off ch=1 n=72 v=0
78720 Off ch=1 n=44 v=0
78720 Off ch=1 n=56 v=0
78720 On ch=1 n=70 v=73
78720 On ch=1 n=39 v=75
78720 On ch=1 n=51 v=75
79200 Off ch=1 n=39 v=0
79200 Off ch=1 n=51 v=0
79200 On ch=1 n=39 v=74
79200 On ch=1 n=51 v=74
79680 Off ch=1 n=70 v=0
79680 Off ch=1 n=39 v=0
79680 Off ch=1 n=51 v=0
79680 On ch=1 n=67 v=70
79680 On ch=1 n=39 v=77
79680 On ch=1 n=51 v=77
80160 Off ch=1 n=67 v=0
80160 Off ch=1 n=39 v=0
80160 Off ch=1 n=51 v=0
80160 On ch=1 n=63 v=64
80160 On ch=1 n=39 v=75
80160 On ch=1 n=51 v=75
80640 Off ch=1 n=63 v=0
80640 Off ch=1 n=39 v=0
80640 Off ch=1 n=51 v=0
80640 On ch=1 n=65 v=79
80640 On ch=1 n=46 v=83
80640 On ch=1 n=58 v=83
81120 Off ch=1 n=46 v=0
81120 Off ch=1 n=58 v=0
81120 On ch=1 n=46 v=83
81120 On ch=1 n=58 v=83
81600 Off ch=1 n=65 v=0
81600 Off ch=1 n=46 v=0
81600 Off ch=1 n=58 v=0
81600 On ch=1 n=65 v=78
81600 On ch=1 n=46 v=77
81600 On ch=1 n=58 v=77
82080 Off ch=1 n=65 v=0
82080 Off ch=1 n=46 v=0
82080 Off ch=1 n=58 v=0
82080 On ch=1 n=63 v=73
82080 On ch=1 n=46 v=76
82080 On ch=1 n=58 v=76
82560 Off ch=1 n=63 v=0
82560 Off ch=1 n=46 v=0
82560 Off ch=1 n=58 v=0
82560 On ch=1 n=67 v=86
82560 On ch=1 n=48 v=77
82560 On ch=1 n=60 v=77
83040 Off ch=1 n=67 v=0
83040 Off ch=1 n=48 v=0
83040 Off ch=1 n=60 v=0
83040 On ch=1 n=58 v=68
83040 On ch=1 n=48 v=74
83040 On ch=1 n=60 v=74
83520 Off ch=1 n=58 v=0
83520 Off ch=1 n=48 v=0
83520 Off ch=1 n=60 v=0
83520 On ch=1 n=63 v=81
83520 On ch=1 n=48 v=78
83520 On ch=1 n=60 v=78
84000 Off ch=1 n=48 v=0
84000 Off ch=1 n=60 v=0
84000 On ch=1 n=48 v=72
84000 On ch=1 n=60 v=72
84480 Off ch=1 n=63 v=0
84480 Off ch=1 n=48 v=0
84480 Off ch=1 n=60 v=0
84480 On ch=1 n=68 v=89
84480 On ch=1 n=44 v=74
84480 On ch=1 n=56 v=74
84960 Off ch=1 n=68 v=0
84960 Off ch=1 n=44 v=0
84960 Off ch=1 n=56 v=0
84960 On ch=1 n=67 v=76
84960 On ch=1 n=44 v=74
84960 On ch=1 n=56 v=74
85440 Off ch=1 n=67 v=0
85440 Off ch=1 n=44 v=0
85440 Off ch=1 n=56 v=0
85440 On ch=1 n=65 v=70
85440 On ch=1 n=44 v=76
85440 On ch=1 n=56 v=76
85920 Off ch=1 n=65 v=0
85920 Off ch=1 n=44 v=0
85920 Off ch=1 n=56 v=0
85920 On ch=1 n=63 v=76
85920 On ch=1 n=44 v=74
85920 On ch=1 n=56 v=74
86400 Off ch=1 n=63 v=0
86400 Off ch=1 n=44 v=0
86400 Off ch=1 n=56 v=0
86400 On ch=1 n=58 v=77
86400 On ch=1 n=39 v=74
86400 On ch=1 n=51 v=74
86880 Off ch=1 n=58 v=0
86880 Off ch=1 n=39 v=0
86880 Off ch=1 n=51 v=0
86880 On ch=1 n=67 v=92
86880 On ch=1 n=39 v=74
86880 On ch=1 n=51 v=74
87360 Off ch=1 n=67 v=0
87360 Off ch=1 n=39 v=0
87360 Off ch=1 n=51 v=0
87360 On ch=1 n=65 v=74
87360 On ch=1 n=39 v=75
87360 On ch=1 n=51 v=75
87840 Off ch=1 n=65 v=0
87840 Off ch=1 n=39 v=0
87840 Off ch=1 n=51 v=0
87840 On ch=1 n=63 v=70
87840 On ch=1 n=39 v=75
87840 On ch=1 n=51 v=75
88320 Off ch=1 n=63 v=0
88320 Off ch=1 n=39 v=0
88320 Off ch=1 n=51 v=0
88320 On ch=1 n=65 v=78
88320 On ch=1 n=46 v=83
88320 On ch=1 n=58 v=83
88800 Off ch=1 n=65 v=0
88800 Off ch=1 n=46 v=0
88800 Off ch=1 n=58 v=0
88800 On ch=1 n=65 v=77
88800 On ch=1 n=46 v=75
88800 On ch=1 n=58 v=75
89280 Off ch=1 n=65 v=0
89280 Off ch=1 n=46 v=0
89280 Off ch=1 n=58 v=0
89280 On ch=1 n=65 v=73
89280 On ch=1 n=46 v=77
89280 On ch=1 n=58 v=77
89760 Off ch=1 n=65 v=0
89760 Off ch=1 n=46 v=0
89760 Off ch=1 n=58 v=0
89760 On ch=1 n=63 v=67
89760 On ch=1 n=46 v=76
89760 On ch=1 n=58 v=76
90240 Off ch=1 n=63 v=0
90240 Off ch=1 n=46 v=0
90240 Off ch=1 n=58 v=0
90240 On ch=1 n=67 v=82
90240 On ch=1 n=48 v=81
90240 On ch=1 n=60 v=81
90720 Off ch=1 n=48 v=0
90720 Off ch=1 n=60 v=0
90720 On ch=1 n=48 v=77
90720 On ch=1 n=60 v=77
91200 Off ch=1 n=67 v=0
91200 Off ch=1 n=48 v=0
91200 Off ch=1 n=60 v=0
91200 On ch=1 n=48 v=77
91200 On ch=1 n=60 v=77
91680 Off ch=1 n=48 v=0
91680 Off ch=1 n=60 v=0
91680 On ch=1 n=58 v=70
91680 On ch=1 n=48 v=77
91680 On ch=1 n=60 v=77
92160 Off ch=1 n=58 v=0
92160 Off ch=1 n=48 v=0
92160 Off ch=1 n=60 v=0
92160 On ch=1 n=44 v=73
92160 On ch=1 n=56 v=73
92640 Off ch=1 n=44 v=0
92640 Off ch=1 n=56 v=0
92640 On ch=1 n=44 v=79
92640 On ch=1 n=56 v=79
93120 Off ch=1 n=44 v=0
93120 Off ch=1 n=56 v=0
93120 On ch=1 n=44 v=72
93120 On ch=1 n=56 v=72
93600 Off ch=1 n=44 v=0
93600 Off ch=1 n=56 v=0
93600 On ch=1 n=58 v=71
93600 On ch=1 n=44 v=79
93600 On ch=1 n=56 v=79
94080 Off ch=1 n=58 v=0
94080 Off ch=1 n=44 v=0
94080 Off ch=1 n=56 v=0
94080 On ch=1 n=58 v=75
94080 On ch=1 n=44 v=72
94080 On ch=1 n=56 v=72
94560 Off ch=1 n=58 v=0
94560 Off ch=1 n=44 v=0
94560 Off ch=1 n=56 v=0
94560 On ch=1 n=58 v=78
94560 On ch=1 n=44 v=75
94560 On ch=1 n=56 v=75
95040 Off ch=1 n=58 v=0
95040 Off ch=1 n=44 v=0
95040 Off ch=1 n=56 v=0
95040 On ch=1 n=58 v=78
95040 On ch=1 n=44 v=75
95040 On ch=1 n=56 v=75
95520 Off ch=1 n=58 v=0
95520 Off ch=1 n=44 v=0
95520 Off ch=1 n=56 v=0
95520 On ch=1 n=62 v=85
95520 On ch=1 n=44 v=76
95520 On ch=1 n=56 v=76
96000 Off ch=1 n=44 v=0
96000 Off ch=1 n=56 v=0
96000 On ch=1 n=39 v=73
96000 On ch=1 n=51 v=73
96480 Off ch=1 n=39 v=0
96480 Off ch=1 n=51 v=0
96480 On ch=1 n=39 v=78
96480 On ch=1 n=51 v=78
96960 Off ch=1 n=39 v=0
96960 Off ch=1 n=51 v=0
96960 On ch=1 n=39 v=76
96960 On ch=1 n=51 v=76
97440 Off ch=1 n=62 v=0
97440 Off ch=1 n=39 v=0
97440 Off ch=1 n=51 v=0
97440 On ch=1 n=63 v=78
97440 On ch=1 n=39 v=78
97440 On ch=1 n=51 v=78
97920 Off ch=1 n=39 v=0
97920 Off ch=1 n=51 v=0
97920 On ch=1 n=39 v=78
97920 On ch=1 n=51 v=78
98400 Off ch=1 n=39 v=0
98400 Off ch=1 n=51 v=0
98400 On ch=1 n=39 v=76
98400 On ch=1 n=51 v=76
98880 Off ch=1 n=39 v=0
98880 Off ch=1 n=51 v=0
98880 On ch=1 n=39 v=77
98880 On ch=1 n=51 v=77
99360 Off ch=1 n=63 v=0
99360 Off ch=1 n=39 v=0
99360 Off ch=1 n=51 v=0
99360 On ch=1 n=39 v=74
99360 On ch=1 n=51 v=74
99840 Off ch=1 n=39 v=0
99840 Off ch=1 n=51 v=0
99840 On ch=1 n=46 v=85
99840 On ch=1 n=58 v=85
100320 Off ch=1 n=46 v=0
100320 Off ch=1 n=58 v=0
100320 On ch=1 n=46 v=81
100320 On ch=1 n=58 v=81
100800 Off ch=1 n=46 v=0
100800 Off ch=1 n=58 v=0
100800 On ch=1 n=46 v=74
100800 On ch=1 n=58 v=74
101280 Off ch=1 n=46 v=0
101280 Off ch=1 n=58 v=0
101280 On ch=1 n=46 v=80
101280 On ch=1 n=58 v=80
101760 Off ch=1 n=46 v=0
101760 Off ch=1 n=58 v=0
101760 On ch=1 n=46 v=80
101760 On ch=1 n=58 v=80
102240 Off ch=1 n=46 v=0
102240 Off ch=1 n=58 v=0
102240 On ch=1 n=46 v=73
102240 On ch=1 n=58 v=73
102720 Off ch=1 n=46 v=0
102720 Off ch=1 n=58 v=0
102720 On ch=1 n=46 v=74
102720 On ch=1 n=58 v=74
103200 Off ch=1 n=46 v=0
103200 Off ch=1 n=58 v=0
103200 On ch=1 n=65 v=92
103200 On ch=1 n=46 v=75
103200 On ch=1 n=58 v=75
103680 Off ch=1 n=46 v=0
103680 Off ch=1 n=58 v=0
103680 On ch=1 n=48 v=79
103680 On ch=1 n=60 v=79
104160 Off ch=1 n=48 v=0
104160 Off ch=1 n=60 v=0
104160 On ch=1 n=48 v=75
104160 On ch=1 n=60 v=75
104640 Off ch=1 n=48 v=0
104640 Off ch=1 n=60 v=0
104640 On ch=1 n=48 v=79
104640 On ch=1 n=60 v=79
105120 Off ch=1 n=65 v=0
105120 Off ch=1 n=48 v=0
105120 Off ch=1 n=60 v=0
105120 On ch=1 n=63 v=72
105120 On ch=1 n=48 v=83
105120 On ch=1 n=60 v=83
105600 Off ch=1 n=48 v=0
105600 Off ch=1 n=60 v=0
105600 On ch=1 n=48 v=80
105600 On ch=1 n=60 v=80
106080 Off ch=1 n=48 v=0
106080 Off ch=1 n=60 v=0
106080 On ch=1 n=48 v=75
106080 On ch=1 n=60 v=75
106560 Off ch=1 n=48 v=0
106560 Off ch=1 n=60 v=0
106560 On ch=1 n=48 v=81
106560 On ch=1 n=60 v=81
107040 Off ch=1 n=63 v=0
107040 Off ch=1 n=48 v=0
107040 Off ch=1 n=60 v=0
107040 On ch=1 n=48 v=77
107040 On ch=1 n=60 v=77
107520 Off ch=1 n=48 v=0
107520 Off ch=1 n=60 v=0
107520 On ch=1 n=44 v=72
107520 On ch=1 n=56 v=72
108000 Off ch=1 n=44 v=0
108000 Off ch=1 n=56 v=0
108000 On ch=1 n=44 v=74
108000 On ch=1 n=56 v=74
108480 Off ch=1 n=44 v=0
108480 Off ch=1 n=56 v=0
108480 On ch=1 n=44 v=78
108480 On ch=1 n=56 v=78
108960 Off ch=1 n=44 v=0
108960 Off ch=1 n=56 v=0
108960 On ch=1 n=58 v=72
108960 On ch=1 n=44 v=72
108960 On ch=1 n=56 v=72
109440 Off ch=1 n=58 v=0
109440 Off ch=1 n=44 v=0
109440 Off ch=1 n=56 v=0
109440 On ch=1 n=58 v=80
109440 On ch=1 n=44 v=78
109440 On ch=1 n=56 v=78
109920 Off ch=1 n=58 v=0
109920 Off ch=1 n=44 v=0
109920 Off ch=1 n=56 v=0
109920 On ch=1 n=58 v=75
109920 On ch=1 n=44 v=75
109920 On ch=1 n=56 v=75
110400 Off ch=1 n=58 v=0
110400 Off ch=1 n=44 v=0
110400 Off ch=1 n=56 v=0
110400 On ch=1 n=58 v=79
110400 On ch=1 n=44 v=76
110400 On ch=1 n=56 v=76
110880 Off ch=1 n=58 v=0
110880 Off ch=1 n=44 v=0
110880 Off ch=1 n=56 v=0
110880 On ch=1 n=62 v=88
110880 On ch=1 n=44 v=75
110880 On ch=1 n=56 v=75
111360 Off ch=1 n=44 v=0
111360 Off ch=1 n=56 v=0
111360 On ch=1 n=39 v=75
111360 On ch=1 n=51 v=75
111840 Off ch=1 n=39 v=0
111840 Off ch=1 n=51 v=0
111840 On ch=1 n=39 v=75
111840 On ch=1 n=51 v=75
112320 Off ch=1 n=39 v=0
112320 Off ch=1 n=51 v=0
112320 On ch=1 n=39 v=76
112320 On ch=1 n=51 v=76
112800 Off ch=1 n=62 v=0
112800 Off ch=1 n=39 v=0
112800 Off ch=1 n=51 v=0
112800 On ch=1 n=63 v=79
112800 On ch=1 n=39 v=77
112800 On ch=1 n=51 v=77
113280 Off ch=1 n=39 v=0
113280 Off ch=1 n=51 v=0
113280 On ch=1 n=39 v=80
113280 On ch=1 n=51 v=80
113760 Off ch=1 n=39 v=0
113760 Off ch=1 n=51 v=0
113760 On ch=1 n=39 v=79
113760 On ch=1 n=51 v=79
114240 Off ch=1 n=39 v=0
114240 Off ch=1 n=51 v=0
114240 On ch=1 n=39 v=74
114240 On ch=1 n=51 v=74
114720 Off ch=1 n=63 v=0
114720 Off ch=1 n=39 v=0
114720 Off ch=1 n=51 v=0
114720 On ch=1 n=39 v=78
114720 On ch=1 n=51 v=78
115200 Off ch=1 n=39 v=0
115200 Off ch=1 n=51 v=0
115200 On ch=1 n=68 v=64
115200 On ch=1 n=46 v=77
115200 On ch=1 n=58 v=77
115680 Off ch=1 n=68 v=0
115680 Off ch=1 n=46 v=0
115680 Off ch=1 n=58 v=0
115680 On ch=1 n=67 v=72
115680 On ch=1 n=46 v=77
115680 On ch=1 n=58 v=77
116160 Off ch=1 n=67 v=0
116160 Off ch=1 n=46 v=0
116160 Off ch=1 n=58 v=0
116160 On ch=1 n=65 v=76
116160 On ch=1 n=46 v=78
116160 On ch=1 n=58 v=78
116640 Off ch=1 n=65 v=0
116640 Off ch=1 n=46 v=0
116640 Off ch=1 n=58 v=0
116640 On ch=1 n=63 v=75
116640 On ch=1 n=46 v=73
116640 On ch=1 n=58 v=73
117120 Off ch=1 n=63 v=0
117120 Off ch=1 n=46 v=0
117120 Off ch=1 n=58 v=0
117120 On ch=1 n=46 v=73
117120 On ch=1 n=58 v=73
117600 Off ch=1 n=46 v=0
117600 Off ch=1 n=58 v=0
117600 On ch=1 n=67 v=93
117600 On ch=1 n=46 v=80
117600 On ch=1 n=58 v=80
118080 Off ch=1 n=67 v=0
118080 Off ch=1 n=46 v=0
118080 Off ch=1 n=58 v=0
118080 On ch=1 n=65 v=73
118080 On ch=1 n=46 v=76
118080 On ch=1 n=58 v=76
118560 Off ch=1 n=46 v=0
118560 Off ch=1 n=58 v=0
118560 On ch=1 n=46 v=76
118560 On ch=1 n=58 v=76
119040 Off ch=1 n=65 v=0
119040 Off ch=1 n=46 v=0
119040 Off ch=1 n=58 v=0
119040 On ch=1 n=65 v=75
119040 On ch=1 n=48 v=82
119040 On ch=1 n=60 v=82
119520 Off ch=1 n=65 v=0
119520 Off ch=1 n=48 v=0
119520 Off ch=1 n=60 v=0
119520 On ch=1 n=65 v=78
119520 On ch=1 n=48 v=77
119520 On ch=1 n=60 v=77
120000 Off ch=1 n=65 v=0
120000 Off ch=1 n=48 v=0
120000 Off ch=1 n=60 v=0
120000 On ch=1 n=65 v=77
120000 On ch=1 n=48 v=77
120000 On ch=1 n=60 v=77
120480 Off ch=1 n=65 v=0
120480 Off ch=1 n=48 v=0
120480 Off ch=1 n=60 v=0
120480 On ch=1 n=63 v=70
120480 On ch=1 n=48 v=77
120480 On ch=1 n=60 v=77
120960 Off ch=1 n=63 v=0
120960 Off ch=1 n=48 v=0
120960 Off ch=1 n=60 v=0
120960 On ch=1 n=67 v=82
120960 On ch=1 n=48 v=78
120960 On ch=1 n=60 v=78
121440 Off ch=1 n=48 v=0
121440 Off ch=1 n=60 v=0
121440 On ch=1 n=48 v=73
121440 On ch=1 n=60 v=73
121920 Off ch=1 n=67 v=0
121920 Off ch=1 n=48 v=0
121920 Off ch=1 n=60 v=0
121920 On ch=1 n=48 v=81
121920 On ch=1 n=60 v=81
122400 Off ch=1 n=48 v=0
122400 Off ch=1 n=60 v=0
122400 On ch=1 n=58 v=75
122400 On ch=1 n=48 v=78
122400 On ch=1 n=60 v=78
122880 Off ch=1 n=58 v=0
122880 Off ch=1 n=48 v=0
122880 Off ch=1 n=60 v=0
122880 On ch=1 n=44 v=73
122880 On ch=1 n=56 v=73
123360 Off ch=1 n=44 v=0
123360 Off ch=1 n=56 v=0
123360 On ch=1 n=70 v=70
123360 On ch=1 n=82 v=70
123360 On ch=1 n=44 v=74
123360 On ch=1 n=56 v=74
123840 Off ch=1 n=70 v=0
123840 Off ch=1 n=82 v=0
123840 Off ch=1 n=44 v=0
123840 Off ch=1 n=56 v=0
123840 On ch=1 n=67 v=67
123840 On ch=1 n=79 v=67
123840 On ch=1 n=44 v=78
123840 On ch=1 n=56 v=78
124320 Off ch=1 n=67 v=0
124320 Off ch=1 n=79 v=0
124320 Off ch=1 n=44 v=0
124320 Off ch=1 n=56 v=0
124320 On ch=1 n=70 v=78
124320 On ch=1 n=82 v=78
124320 On ch=1 n=44 v=77
124320 On ch=1 n=56 v=77
124800 Off ch=1 n=70 v=0
124800 Off ch=1 n=82 v=0
124800 Off ch=1 n=44 v=0
124800 Off ch=1 n=56 v=0
124800 On ch=1 n=67 v=70
124800 On ch=1 n=79 v=70
124800 On ch=1 n=39 v=72
124800 On ch=1 n=51 v=72
125280 Off ch=1 n=39 v=0
125280 Off ch=1 n=51 v=0
125280 On ch=1 n=39 v=76
125280 On ch=1 n=51 v=76
125760 Off ch=1 n=67 v=0
125760 Off ch=1 n=79 v=0
125760 Off ch=1 n=39 v=0
125760 Off ch=1 n=51 v=0
125760 On ch=1 n=65 v=71
125760 On ch=1 n=77 v=71
125760 On ch=1 n=39 v=75
125760 On ch=1 n=51 v=75
126240 Off ch=1 n=39 v=0
126240 Off ch=1 n=51 v=0
126240 On ch=1 n=39 v=70
126240 On ch=1 n=51 v=70
126720 Off ch=1 n=65 v=0
126720 Off ch=1 n=77 v=0
126720 Off ch=1 n=39 v=0
126720 Off ch=1 n=51 v=0
126720 On ch=1 n=70 v=64
126720 On ch=1 n=46 v=86
126720 On ch=1 n=58 v=86
127200 Off ch=1 n=46 v=0
127200 Off ch=1 n=58 v=0
127200 On ch=1 n=46 v=78
127200 On ch=1 n=58 v=78
127680 Off ch=1 n=70 v=0
127680 Off ch=1 n=46 v=0
127680 Off ch=1 n=58 v=0
127680 On ch=1 n=65 v=86
127680 On ch=1 n=77 v=86
127680 On ch=1 n=46 v=77
127680 On ch=1 n=58 v=77
128160 Off ch=1 n=46 v=0
128160 Off ch=1 n=58 v=0
128160 On ch=1 n=46 v=82
128160 On ch=1 n=58 v=82
128640 Off ch=1 n=65 v=0
128640 Off ch=1 n=77 v=0
128640 Off ch=1 n=46 v=0
128640 Off ch=1 n=58 v=0
128640 On ch=1 n=63 v=75
128640 On ch=1 n=75 v=75
128640 On ch=1 n=48 v=81
128640 On ch=1 n=60 v=81
129120 Off ch=1 n=48 v=0
129120 Off ch=1 n=60 v=0
129120 On ch=1 n=48 v=76
129120 On ch=1 n=60 v=76
129600 Off ch=1 n=48 v=0
129600 Off ch=1 n=60 v=0
129600 On ch=1 n=48 v=72
129600 On ch=1 n=60 v=72
130080 Off ch=1 n=48 v=0
130080 Off ch=1 n=60 v=0
130080 On ch=1 n=48 v=76
130080 On ch=1 n=60 v=76
130560 Off ch=1 n=63 v=0
130560 Off ch=1 n=75 v=0
130560 Off ch=1 n=48 v=0
130560 Off ch=1 n=60 v=0
130560 On ch=1 n=44 v=71
130560 On ch=1 n=56 v=71
131040 Off ch=1 n=44 v=0
131040 Off ch=1 n=56 v=0
131040 On ch=1 n=70 v=70
131040 On ch=1 n=82 v=70
131040 On ch=1 n=44 v=74
131040 On ch=1 n=56 v=74
131520 Off ch=1 n=70 v=0
131520 Off ch=1 n=82 v=0
131520 Off ch=1 n=44 v=0
131520 Off ch=1 n=56 v=0
131520 On ch=1 n=67 v=67
131520 On ch=1 n=79 v=67
131520 On ch=1 n=44 v=79
131520 On ch=1 n=56 v=79
132000 Off ch=1 n=67 v=0
132000 Off ch=1 n=79 v=0
132000 Off ch=1 n=44 v=0
132000 Off ch=1 n=56 v=0
132000 On ch=1 n=70 v=83
132000 On ch=1 n=82 v=83
132000 On ch=1 n=44 v=75
132000 On ch=1 n=56 v=75
132480 Off ch=1 n=70 v=0
132480 Off ch=1 n=82 v=0
132480 Off ch=1 n=44 v=0
132480 Off ch=1 n=56 v=0
132480 On ch=1 n=67 v=72
132480 On ch=1 n=79 v=72
132480 On ch=1 n=39 v=70
132480 On ch=1 n=51 v=70
132960 Off ch=1 n=39 v=0
132960 Off ch=1 n=51 v=0
132960 On ch=1 n=39 v=75
132960 On ch=1 n=51 v=75
133440 Off ch=1 n=67 v=0
133440 Off ch=1 n=79 v=0
133440 Off ch=1 n=39 v=0
133440 Off ch=1 n=51 v=0
133440 On ch=1 n=65 v=73
133440 On ch=1 n=77 v=73
133440 On ch=1 n=39 v=81
133440 On ch=1 n=51 v=81
133920 Off ch=1 n=39 v=0
133920 Off ch=1 n=51 v=0
133920 On ch=1 n=39 v=73
133920 On ch=1 n=51 v=73
134400 Off ch=1 n=65 v=0
134400 Off ch=1 n=77 v=0
134400 Off ch=1 n=39 v=0
134400 Off ch=1 n=51 v=0
134400 On ch=1 n=65 v=77
134400 On ch=1 n=77 v=77
134400 On ch=1 n=46 v=81
134400 On ch=1 n=58 v=81
134880 Off ch=1 n=65 v=0
134880 Off ch=1 n=77 v=0
134880 Off ch=1 n=46 v=0
134880 Off ch=1 n=58 v=0
134880 On ch=1 n=65 v=77
134880 On ch=1 n=77 v=77
134880 On ch=1 n=46 v=78
134880 On ch=1 n=58 v=78
135360 Off ch=1 n=65 v=0
135360 Off ch=1 n=77 v=0
135360 Off ch=1 n=46 v=0
135360 Off ch=1 n=58 v=0
135360 On ch=1 n=65 v=77
135360 On ch=1 n=77 v=77
135360 On ch=1 n=46 v=74
135360 On ch=1 n=58 v=74
135840 Off ch=1 n=65 v=0
135840 Off ch=1 n=77 v=0
135840 Off ch=1 n=46 v=0
135840 Off ch=1 n=58 v=0
135840 On ch=1 n=63 v=66
135840 On ch=1 n=75 v=66
135840 On ch=1 n=46 v=75
135840 On ch=1 n=58 v=75
136320 Off ch=1 n=63 v=0
136320 Off ch=1 n=75 v=0
136320 Off ch=1 n=46 v=0
136320 Off ch=1 n=58 v=0
136320 On ch=1 n=67 v=81
136320 On ch=1 n=79 v=81
136320 On ch=1 n=48 v=81
136320 On ch=1 n=60 v=81
136800 Off ch=1 n=48 v=0
136800 Off ch=1 n=60 v=0
136800 On ch=1 n=48 v=76
136800 On ch=1 n=60 v=76
137280 Off ch=1 n=67 v=0
137280 Off ch=1 n=79 v=0
137280 Off ch=1 n=48 v=0
137280 Off ch=1 n=60 v=0
137280 On ch=1 n=72 v=66
137280 On ch=1 n=48 v=78
137280 On ch=1 n=60 v=78
137760 Off ch=1 n=72 v=0
137760 Off ch=1 n=48 v=0
137760 Off ch=1 n=60 v=0
137760 On ch=1 n=58 v=69
137760 On ch=1 n=70 v=69
137760 On ch=1 n=48 v=77
137760 On ch=1 n=60 v=77
138240 Off ch=1 n=58 v=0
138240 Off ch=1 n=70 v=0
138240 Off ch=1 n=48 v=0
138240 Off ch=1 n=60 v=0
138240 On ch=1 n=44 v=72
138240 On ch=1 n=56 v=72
138720 Off ch=1 n=44 v=0
138720 Off ch=1 n=56 v=0
138720 On ch=1 n=70 v=66
138720 On ch=1 n=82 v=66
138720 On ch=1 n=44 v=73
138720 On ch=1 n=56 v=73
139200 Off ch=1 n=70 v=0
139200 Off ch=1 n=82 v=0
139200 Off ch=1 n=44 v=0
139200 Off ch=1 n=56 v=0
139200 On ch=1 n=67 v=67
139200 On ch=1 n=79 v=67
139200 On ch=1 n=44 v=76
139200 On ch=1 n=56 v=76
139680 Off ch=1 n=67 v=0
139680 Off ch=1 n=79 v=0
139680 Off ch=1 n=44 v=0
139680 Off ch=1 n=56 v=0
139680 On ch=1 n=70 v=85
139680 On ch=1 n=82 v=85
139680 On ch=1 n=44 v=76
139680 On ch=1 n=56 v=76
140160 Off ch=1 n=70 v=0
140160 Off ch=1 n=82 v=0
140160 Off ch=1 n=44 v=0
140160 Off ch=1 n=56 v=0
140160 On ch=1 n=67 v=70
140160 On ch=1 n=79 v=70
140160 On ch=1 n=39 v=74
140160 On ch=1 n=51 v=74
140640 Off ch=1 n=39 v=0
140640 Off ch=1 n=51 v=0
140640 On ch=1 n=39 v=73
140640 On ch=1 n=51 v=73
141120 Off ch=1 n=67 v=0
141120 Off ch=1 n=79 v=0
141120 Off ch=1 n=39 v=0
141120 Off ch=1 n=51 v=0
141120 On ch=1 n=65 v=71
141120 On ch=1 n=77 v=71
141120 On ch=1 n=39 v=77
141120 On ch=1 n=51 v=77
141600 Off ch=1 n=39 v=0
141600 Off ch=1 n=51 v=0
141600 On ch=1 n=39 v=75
141600 On ch=1 n=51 v=75
142080 Off ch=1 n=65 v=0
142080 Off ch=1 n=77 v=0
142080 Off ch=1 n=39 v=0
142080 Off ch=1 n=51 v=0
142080 On ch=1 n=70 v=66
142080 On ch=1 n=46 v=82
142080 On ch=1 n=58 v=82
142560 Off ch=1 n=46 v=0
142560 Off ch=1 n=58 v=0
142560 On ch=1 n=46 v=78
142560 On ch=1 n=58 v=78
143040 Off ch=1 n=70 v=0
143040 Off ch=1 n=46 v=0
143040 Off ch=1 n=58 v=0
143040 On ch=1 n=65 v=89
143040 On ch=1 n=77 v=89
143040 On ch=1 n=46 v=76
143040 On ch=1 n=58 v=76
143520 Off ch=1 n=46 v=0
143520 Off ch=1 n=58 v=0
143520 On ch=1 n=46 v=81
143520 On ch=1 n=58 v=81
144000 Off ch=1 n=65 v=0
144000 Off ch=1 n=77 v=0
144000 Off ch=1 n=46 v=0
144000 Off ch=1 n=58 v=0
144000 On ch=1 n=63 v=74
144000 On ch=1 n=75 v=74
144000 On ch=1 n=48 v=82
144000 On ch=1 n=60 v=82
144480 Off ch=1 n=48 v=0
144480 Off ch=1 n=60 v=0
144480 On ch=1 n=48 v=78
144480 On ch=1 n=60 v=78
144960 Off ch=1 n=48 v=0
144960 Off ch=1 n=60 v=0
144960 On ch=1 n=48 v=79
144960 On ch=1 n=60 v=79
145440 Off ch=1 n=48 v=0
145440 Off ch=1 n=60 v=0
145440 On ch=1 n=48 v=72
145440 On ch=1 n=60 v=72
145920 Off ch=1 n=63 v=0
145920 Off ch=1 n=75 v=0
145920 Off ch=1 n=48 v=0
145920 Off ch=1 n=60 v=0
145920 On ch=1 n=68 v=92
145920 On ch=1 n=80 v=92
145920 On ch=1 n=44 v=70
145920 On ch=1 n=56 v=70
146400 Off ch=1 n=68 v=0
146400 Off ch=1 n=80 v=0
146400 Off ch=1 n=44 v=0
146400 Off ch=1 n=56 v=0
146400 On ch=1 n=67 v=76
146400 On ch=1 n=79 v=76
146400 On ch=1 n=44 v=75
146400 On ch=1 n=56 v=75
146880 Off ch=1 n=67 v=0
146880 Off ch=1 n=79 v=0
146880 Off ch=1 n=44 v=0
146880 Off ch=1 n=56 v=0
146880 On ch=1 n=65 v=75
146880 On ch=1 n=77 v=75
146880 On ch=1 n=44 v=77
146880 On ch=1 n=56 v=77
147360 Off ch=1 n=65 v=0
147360 Off ch=1 n=77 v=0
147360 Off ch=1 n=44 v=0
147360 Off ch=1 n=56 v=0
147360 On ch=1 n=63 v=70
147360 On ch=1 n=75 v=70
147360 On ch=1 n=44 v=79
147360 On ch=1 n=56 v=79
147840 Off ch=1 n=63 v=0
147840 Off ch=1 n=75 v=0
147840 Off ch=1 n=44 v=0
147840 Off ch=1 n=56 v=0
147840 On ch=1 n=58 v=67
147840 On ch=1 n=70 v=67
147840 On ch=1 n=39 v=72
147840 On ch=1 n=51 v=72
148320 Off ch=1 n=58 v=0
148320 Off ch=1 n=70 v=0
148320 Off ch=1 n=39 v=0
148320 Off ch=1 n=51 v=0
148320 On ch=1 n=67 v=93
148320 On ch=1 n=79 v=93
148320 On ch=1 n=39 v=77
148320 On ch=1 n=51 v=77
148800 Off ch=1 n=67 v=0
148800 Off ch=1 n=79 v=0
148800 Off ch=1 n=39 v=0
148800 Off ch=1 n=51 v=0
148800 On ch=1 n=65 v=70
148800 On ch=1 n=77 v=70
148800 On ch=1 n=39 v=81
148800 On ch=1 n=51 v=81
149280 Off ch=1 n=39 v=0
149280 Off ch=1 n=51 v=0
149280 On ch=1 n=39 v=76
149280 On ch=1 n=51 v=76
149760 Off ch=1 n=65 v=0
149760 Off ch=1 n=77 v=0
149760 Off ch=1 n=39 v=0
149760 Off ch=1 n=51 v=0
149760 On ch=1 n=65 v=76
149760 On ch=1 n=77 v=76
149760 On ch=1 n=46 v=83
149760 On ch=1 n=58 v=83
150240 Off ch=1 n=65 v=0
150240 Off ch=1 n=77 v=0
150240 Off ch=1 n=46 v=0
150240 Off ch=1 n=58 v=0
150240 On ch=1 n=65 v=77
150240 On ch=1 n=77 v=77
150240 On ch=1 n=46 v=77
150240 On ch=1 n=58 v=77
150720 Off ch=1 n=65 v=0
150720 Off ch=1 n=77 v=0
150720 Off ch=1 n=46 v=0
150720 Off ch=1 n=58 v=0
150720 On ch=1 n=65 v=76
150720 On ch=1 n=77 v=76
150720 On ch=1 n=46 v=78
150720 On ch=1 n=58 v=78
151200 Off ch=1 n=65 v=0
151200 Off ch=1 n=77 v=0
151200 Off ch=1 n=46 v=0
151200 Off ch=1 n=58 v=0
151200 On ch=1 n=63 v=69
151200 On ch=1 n=75 v=69
151200 On ch=1 n=46 v=76
151200 On ch=1 n=58 v=76
151680 Off ch=1 n=63 v=0
151680 Off ch=1 n=75 v=0
151680 Off ch=1 n=46 v=0
151680 Off ch=1 n=58 v=0
151680 On ch=1 n=67 v=87
151680 On ch=1 n=79 v=87
151680 On ch=1 n=48 v=80
151680 On ch=1 n=60 v=80
152160 Off ch=1 n=48 v=0
152160 On ch=1 n=48 v=84
152640 Off ch=1 n=67 v=0
152640 Off ch=1 n=79 v=0
152640 Off ch=1 n=60 v=0
152640 Off ch=1 n=48 v=0
152640 On ch=1 n=72 v=64
152640 On ch=1 n=48 v=77
152640 On ch=1 n=60 v=77
153120 Off ch=1 n=72 v=0
153120 Off ch=1 n=48 v=0
153120 Off ch=1 n=60 v=0
153120 On ch=1 n=58 v=72
153120 On ch=1 n=70 v=72
153120 On ch=1 n=48 v=80
153120 On ch=1 n=60 v=80
153600 Off ch=1 n=58 v=0
153600 Off ch=1 n=70 v=0
153600 Off ch=1 n=48 v=0
153600 Off ch=1 n=60 v=0
153600 On ch=1 n=44 v=75
153600 On ch=1 n=56 v=75
154080 Off ch=1 n=44 v=0
154080 Off ch=1 n=56 v=0
154080 On ch=1 n=44 v=77
154080 On ch=1 n=56 v=77
154560 Off ch=1 n=44 v=0
154560 Off ch=1 n=56 v=0
154560 On ch=1 n=44 v=77
154560 On ch=1 n=56 v=77
155040 Off ch=1 n=44 v=0
155040 Off ch=1 n=56 v=0
155040 On ch=1 n=44 v=77
155040 On ch=1 n=56 v=77
155520 Off ch=1 n=44 v=0
155520 Off ch=1 n=56 v=0
155520 On ch=1 n=39 v=71
155520 On ch=1 n=51 v=71
156000 Off ch=1 n=39 v=0
156000 Off ch=1 n=51 v=0
156000 On ch=1 n=39 v=76
156000 On ch=1 n=51 v=76
156480 Off ch=1 n=39 v=0
156480 Off ch=1 n=51 v=0
156480 On ch=1 n=39 v=72
156480 On ch=1 n=51 v=72
156960 Off ch=1 n=39 v=0
156960 Off ch=1 n=51 v=0
156960 On ch=1 n=39 v=77
156960 On ch=1 n=51 v=77
157440 Off ch=1 n=39 v=0
157440 Off ch=1 n=51 v=0
157440 On ch=1 n=65 v=88
157440 On ch=1 n=77 v=88
157440 On ch=1 n=46 v=80
157440 On ch=1 n=58 v=80
157920 Off ch=1 n=65 v=0
157920 Off ch=1 n=77 v=0
157920 Off ch=1 n=46 v=0
157920 Off ch=1 n=58 v=0
157920 On ch=1 n=65 v=80
157920 On ch=1 n=77 v=80
157920 On ch=1 n=46 v=81
157920 On ch=1 n=58 v=81
158400 Off ch=1 n=65 v=0
158400 Off ch=1 n=77 v=0
158400 Off ch=1 n=46 v=0
158400 Off ch=1 n=58 v=0
158400 On ch=1 n=65 v=72
158400 On ch=1 n=77 v=72
158400 On ch=1 n=46 v=76
158400 On ch=1 n=58 v=76
158880 Off ch=1 n=65 v=0
158880 Off ch=1 n=77 v=0
158880 Off ch=1 n=46 v=0
158880 Off ch=1 n=58 v=0
158880 On ch=1 n=63 v=68
158880 On ch=1 n=75 v=68
158880 On ch=1 n=46 v=80
158880 On ch=1 n=58 v=80
159360 Off ch=1 n=63 v=0
159360 Off ch=1 n=75 v=0
159360 Off ch=1 n=46 v=0
159360 Off ch=1 n=58 v=0
159360 On ch=1 n=67 v=86
159360 On ch=1 n=79 v=86
159360 On ch=1 n=48 v=82
159360 On ch=1 n=60 v=82
159840 Off ch=1 n=48 v=0
159840 Off ch=1 n=60 v=0
159840 On ch=1 n=48 v=79
159840 On ch=1 n=60 v=79
160320 Off ch=1 n=67 v=0
160320 Off ch=1 n=79 v=0
160320 Off ch=1 n=48 v=0
160320 Off ch=1 n=60 v=0
160320 On ch=1 n=58 v=60
160320 On ch=1 n=70 v=60
160320 On ch=1 n=48 v=75
160320 On ch=1 n=60 v=75
160800 Off ch=1 n=58 v=0
160800 Off ch=1 n=70 v=0
160800 Off ch=1 n=48 v=0
160800 Off ch=1 n=60 v=0
160800 On ch=1 n=63 v=85
160800 On ch=1 n=75 v=85
160800 On ch=1 n=48 v=76
160800 On ch=1 n=60 v=76
161280 Off ch=1 n=63 v=0
161280 Off ch=1 n=75 v=0
161280 Off ch=1 n=48 v=0
161280 Off ch=1 n=60 v=0
161280 On ch=1 n=44 v=73
161280 On ch=1 n=56 v=73
161760 Off ch=1 n=44 v=0
161760 Off ch=1 n=56 v=0
161760 On ch=1 n=70 v=68
161760 On ch=1 n=82 v=68
161760 On ch=1 n=44 v=73
161760 On ch=1 n=56 v=73
162240 Off ch=1 n=70 v=0
162240 Off ch=1 n=82 v=0
162240 Off ch=1 n=44 v=0
162240 Off ch=1 n=56 v=0
162240 On ch=1 n=67 v=69
162240 On ch=1 n=79 v=69
162240 On ch=1 n=44 v=80
162240 On ch=1 n=56 v=80
162720 Off ch=1 n=67 v=0
162720 Off ch=1 n=79 v=0
162720 Off ch=1 n=44 v=0
162720 Off ch=1 n=56 v=0
162720 On ch=1 n=70 v=80
162720 On ch=1 n=82 v=80
162720 On ch=1 n=44 v=75
162720 On ch=1 n=56 v=75
163200 Off ch=1 n=70 v=0
163200 Off ch=1 n=82 v=0
163200 Off ch=1 n=44 v=0
163200 Off ch=1 n=56 v=0
163200 On ch=1 n=67 v=68
163200 On ch=1 n=79 v=68
163200 On ch=1 n=39 v=66
163200 On ch=1 n=51 v=66
163680 Off ch=1 n=39 v=0
163680 Off ch=1 n=51 v=0
163680 On ch=1 n=39 v=72
163680 On ch=1 n=51 v=72
164160 Off ch=1 n=67 v=0
164160 Off ch=1 n=79 v=0
164160 Off ch=1 n=39 v=0
164160 Off ch=1 n=51 v=0
164160 On ch=1 n=65 v=68
164160 On ch=1 n=77 v=68
164160 On ch=1 n=39 v=75
164160 On ch=1 n=51 v=75
164640 Off ch=1 n=39 v=0
164640 Off ch=1 n=51 v=0
164640 On ch=1 n=39 v=76
164640 On ch=1 n=51 v=76
165120 Off ch=1 n=65 v=0
165120 Off ch=1 n=77 v=0
165120 Off ch=1 n=39 v=0
165120 Off ch=1 n=51 v=0
165120 On ch=1 n=46 v=81
165120 On ch=1 n=58 v=81
165600 Off ch=1 n=46 v=0
165600 Off ch=1 n=58 v=0
165600 On ch=1 n=46 v=82
165600 On ch=1 n=58 v=82
166080 Off ch=1 n=46 v=0
166080 Off ch=1 n=58 v=0
166080 On ch=1 n=46 v=75
166080 On ch=1 n=58 v=75
166560 Off ch=1 n=46 v=0
166560 Off ch=1 n=58 v=0
166560 On ch=1 n=46 v=71
166560 On ch=1 n=58 v=71
167040 Off ch=1 n=46 v=0
167040 Off ch=1 n=58 v=0
167040 On ch=1 n=48 v=78
167040 On ch=1 n=60 v=78
168960 Off ch=1 n=48 v=0
168960 Off ch=1 n=60 v=0
168960 On ch=1 n=44 v=73
168960 On ch=1 n=56 v=73
169440 Off ch=1 n=44 v=0
169440 Off ch=1 n=56 v=0
169440 On ch=1 n=44 v=80
169440 On ch=1 n=56 v=80
169920 Off ch=1 n=44 v=0
169920 Off ch=1 n=56 v=0
169920 On ch=1 n=72 v=68
169920 On ch=1 n=44 v=78
169920 On ch=1 n=56 v=78
170400 Off ch=1 n=44 v=0
170400 Off ch=1 n=56 v=0
170400 On ch=1 n=44 v=71
170400 On ch=1 n=56 v=71
170880 Off ch=1 n=72 v=0
170880 Off ch=1 n=44 v=0
170880 Off ch=1 n=56 v=0
170880 On ch=1 n=70 v=70
170880 On ch=1 n=39 v=72
170880 On ch=1 n=51 v=72
171360 Off ch=1 n=39 v=0
171360 Off ch=1 n=51 v=0
171360 On ch=1 n=39 v=75
171360 On ch=1 n=51 v=75
171840 Off ch=1 n=70 v=0
171840 Off ch=1 n=39 v=0
171840 Off ch=1 n=51 v=0
171840 On ch=1 n=67 v=68
171840 On ch=1 n=39 v=71
171840 On ch=1 n=51 v=71
172320 Off ch=1 n=67 v=0
172320 Off ch=1 n=39 v=0
172320 Off ch=1 n=51 v=0
172320 On ch=1 n=63 v=69
172320 On ch=1 n=39 v=76
172320 On ch=1 n=51 v=76
172800 Off ch=1 n=63 v=0
172800 Off ch=1 n=39 v=0
172800 Off ch=1 n=51 v=0
172800 On ch=1 n=65 v=81
172800 On ch=1 n=46 v=86
172800 On ch=1 n=58 v=86
173280 Off ch=1 n=46 v=0
173280 Off ch=1 n=58 v=0
173280 On ch=1 n=46 v=74
173280 On ch=1 n=58 v=74
173760 Off ch=1 n=65 v=0
173760 Off ch=1 n=46 v=0
173760 Off ch=1 n=58 v=0
173760 On ch=1 n=65 v=74
173760 On ch=1 n=46 v=81
173760 On ch=1 n=58 v=81
174240 Off ch=1 n=65 v=0
174240 Off ch=1 n=46 v=0
174240 Off ch=1 n=58 v=0
174240 On ch=1 n=63 v=68
174240 On ch=1 n=46 v=74
174240 On ch=1 n=58 v=74
174720 Off ch=1 n=63 v=0
174720 Off ch=1 n=46 v=0
174720 Off ch=1 n=58 v=0
174720 On ch=1 n=67 v=81
174720 On ch=1 n=48 v=79
174720 On ch=1 n=60 v=79
175200 Off ch=1 n=67 v=0
175200 Off ch=1 n=48 v=0
175200 Off ch=1 n=60 v=0
175200 On ch=1 n=63 v=69
175200 On ch=1 n=48 v=74
175200 On ch=1 n=60 v=74
175680 Off ch=1 n=63 v=0
175680 Off ch=1 n=48 v=0
175680 Off ch=1 n=60 v=0
175680 On ch=1 n=48 v=77
175680 On ch=1 n=60 v=77
176160 Off ch=1 n=48 v=0
176160 Off ch=1 n=60 v=0
176160 On ch=1 n=48 v=74
176160 On ch=1 n=60 v=74
176640 Off ch=1 n=48 v=0
176640 Off ch=1 n=60 v=0
176640 On ch=1 n=44 v=73
176640 On ch=1 n=56 v=73
177120 Off ch=1 n=44 v=0
177120 Off ch=1 n=56 v=0
177120 On ch=1 n=44 v=74
177120 On ch=1 n=56 v=74
177600 Off ch=1 n=44 v=0
177600 Off ch=1 n=56 v=0
177600 On ch=1 n=72 v=71
177600 On ch=1 n=44 v=74
177600 On ch=1 n=56 v=74
178080 Off ch=1 n=44 v=0
178080 Off ch=1 n=56 v=0
178080 On ch=1 n=44 v=76
178080 On ch=1 n=56 v=76
178560 Off ch=1 n=72 v=0
178560 Off ch=1 n=44 v=0
178560 Off ch=1 n=56 v=0
178560 On ch=1 n=70 v=71
178560 On ch=1 n=39 v=74
178560 On ch=1 n=51 v=74
179040 Off ch=1 n=39 v=0
179040 Off ch=1 n=51 v=0
179040 On ch=1 n=39 v=78
179040 On ch=1 n=51 v=78
179520 Off ch=1 n=70 v=0
179520 Off ch=1 n=39 v=0
179520 Off ch=1 n=51 v=0
179520 On ch=1 n=67 v=74
179520 On ch=1 n=39 v=72
179520 On ch=1 n=51 v=72
180000 Off ch=1 n=67 v=0
180000 Off ch=1 n=39 v=0
180000 Off ch=1 n=51 v=0
180000 On ch=1 n=63 v=63
180000 On ch=1 n=39 v=76
180000 On ch=1 n=51 v=76
180480 Off ch=1 n=63 v=0
180480 Off ch=1 n=39 v=0
180480 Off ch=1 n=51 v=0
180480 On ch=1 n=65 v=80
180480 On ch=1 n=46 v=82
180480 On ch=1 n=58 v=82
180960 Off ch=1 n=46 v=0
180960 Off ch=1 n=58 v=0
180960 On ch=1 n=46 v=79
180960 On ch=1 n=58 v=79
181440 Off ch=1 n=65 v=0
181440 Off ch=1 n=46 v=0
181440 Off ch=1 n=58 v=0
181440 On ch=1 n=65 v=74
181440 On ch=1 n=46 v=73
181440 On ch=1 n=58 v=73
181920 Off ch=1 n=65 v=0
181920 Off ch=1 n=46 v=0
181920 Off ch=1 n=58 v=0
181920 On ch=1 n=63 v=74
181920 On ch=1 n=46 v=77
181920 On ch=1 n=58 v=77
182400 Off ch=1 n=63 v=0
182400 Off ch=1 n=46 v=0
182400 Off ch=1 n=58 v=0
182400 On ch=1 n=67 v=81
182400 On ch=1 n=48 v=77
182400 On ch=1 n=60 v=77
182880 Off ch=1 n=67 v=0
182880 Off ch=1 n=48 v=0
182880 Off ch=1 n=60 v=0
182880 On ch=1 n=70 v=85
182880 On ch=1 n=48 v=75
182880 On ch=1 n=60 v=75
183360 Off ch=1 n=70 v=0
183360 Off ch=1 n=48 v=0
183360 Off ch=1 n=60 v=0
183360 On ch=1 n=67 v=74
183360 On ch=1 n=48 v=74
183360 On ch=1 n=60 v=74
183840 Off ch=1 n=48 v=0
183840 Off ch=1 n=60 v=0
183840 On ch=1 n=48 v=77
183840 On ch=1 n=60 v=77
184320 Off ch=1 n=67 v=0
184320 Off ch=1 n=48 v=0
184320 Off ch=1 n=60 v=0
184320 On ch=1 n=44 v=69
184320 On ch=1 n=56 v=69
184800 Off ch=1 n=44 v=0
184800 Off ch=1 n=56 v=0
184800 On ch=1 n=63 v=69
184800 On ch=1 n=44 v=77
184800 On ch=1 n=56 v=77
185280 Off ch=1 n=63 v=0
185280 Off ch=1 n=44 v=0
185280 Off ch=1 n=56 v=0
185280 On ch=1 n=72 v=93
185280 On ch=1 n=44 v=77
185280 On ch=1 n=56 v=77
185760 Off ch=1 n=72 v=0
185760 Off ch=1 n=44 v=0
185760 Off ch=1 n=56 v=0
185760 On ch=1 n=70 v=72
185760 On ch=1 n=44 v=80
185760 On ch=1 n=56 v=80
186240 Off ch=1 n=44 v=0
186240 Off ch=1 n=56 v=0
186240 On ch=1 n=39 v=74
186240 On ch=1 n=51 v=74
186720 Off ch=1 n=70 v=0
186720 Off ch=1 n=39 v=0
186720 Off ch=1 n=51 v=0
186720 On ch=1 n=67 v=71
186720 On ch=1 n=39 v=78
186720 On ch=1 n=51 v=78
187200 Off ch=1 n=67 v=0
187200 Off ch=1 n=39 v=0
187200 Off ch=1 n=51 v=0
187200 On ch=1 n=63 v=67
187200 On ch=1 n=39 v=72
187200 On ch=1 n=51 v=72
187680 Off ch=1 n=63 v=0
187680 Off ch=1 n=39 v=0
187680 Off ch=1 n=51 v=0
187680 On ch=1 n=39 v=75
187680 On ch=1 n=51 v=75
188160 Off ch=1 n=39 v=0
188160 Off ch=1 n=51 v=0
188160 On ch=1 n=65 v=71
188160 On ch=1 n=46 v=82
188160 On ch=1 n=58 v=82
188640 Off ch=1 n=46 v=0
188640 Off ch=1 n=58 v=0
188640 On ch=1 n=46 v=83
188640 On ch=1 n=58 v=83
189120 Off ch=1 n=65 v=0
189120 Off ch=1 n=46 v=0
189120 Off ch=1 n=58 v=0
189120 On ch=1 n=65 v=77
189120 On ch=1 n=46 v=77
189120 On ch=1 n=58 v=77
189600 Off ch=1 n=65 v=0
189600 Off ch=1 n=46 v=0
189600 Off ch=1 n=58 v=0
189600 On ch=1 n=63 v=70
189600 On ch=1 n=46 v=77
189600 On ch=1 n=58 v=77
190080 Off ch=1 n=63 v=0
190080 Off ch=1 n=46 v=0
190080 Off ch=1 n=58 v=0
190080 On ch=1 n=67 v=82
190080 On ch=1 n=48 v=82
190080 On ch=1 n=60 v=82
190560 Off ch=1 n=67 v=0
190560 Off ch=1 n=48 v=0
190560 Off ch=1 n=60 v=0
190560 On ch=1 n=58 v=73
190560 On ch=1 n=48 v=80
190560 On ch=1 n=60 v=80
191040 Off ch=1 n=58 v=0
191040 Off ch=1 n=48 v=0
191040 Off ch=1 n=60 v=0
191040 On ch=1 n=63 v=86
191040 On ch=1 n=48 v=74
191040 On ch=1 n=60 v=74
191520 Off ch=1 n=48 v=0
191520 Off ch=1 n=60 v=0
191520 On ch=1 n=48 v=79
191520 On ch=1 n=60 v=79
192000 Off ch=1 n=63 v=0
192000 Off ch=1 n=48 v=0
192000 Off ch=1 n=60 v=0
192000 On ch=1 n=68 v=86
192000 On ch=1 n=44 v=71
192000 On ch=1 n=56 v=71
192480 Off ch=1 n=68 v=0
192480 Off ch=1 n=44 v=0
192480 Off ch=1 n=56 v=0
192480 On ch=1 n=67 v=73
192480 On ch=1 n=44 v=79
192480 On ch=1 n=56 v=79
192960 Off ch=1 n=67 v=0
192960 Off ch=1 n=44 v=0
192960 Off ch=1 n=56 v=0
192960 On ch=1 n=65 v=70
192960 On ch=1 n=44 v=76
192960 On ch=1 n=56 v=76
193440 Off ch=1 n=65 v=0
193440 Off ch=1 n=44 v=0
193440 Off ch=1 n=56 v=0
193440 On ch=1 n=63 v=70
193440 On ch=1 n=44 v=76
193440 On ch=1 n=56 v=76
193920 Off ch=1 n=63 v=0
193920 Off ch=1 n=44 v=0
193920 Off ch=1 n=56 v=0
193920 On ch=1 n=58 v=70
193920 On ch=1 n=39 v=74
193920 On ch=1 n=51 v=74
194400 Off ch=1 n=58 v=0
194400 Off ch=1 n=39 v=0
194400 Off ch=1 n=51 v=0
194400 On ch=1 n=67 v=93
194400 On ch=1 n=39 v=78
194400 On ch=1 n=51 v=78
194880 Off ch=1 n=67 v=0
194880 Off ch=1 n=39 v=0
194880 Off ch=1 n=51 v=0
194880 On ch=1 n=65 v=74
194880 On ch=1 n=39 v=72
194880 On ch=1 n=51 v=72
195360 Off ch=1 n=65 v=0
195360 Off ch=1 n=39 v=0
195360 Off ch=1 n=51 v=0
195360 On ch=1 n=63 v=73
195360 On ch=1 n=39 v=78
195360 On ch=1 n=51 v=78
195840 Off ch=1 n=63 v=0
195840 Off ch=1 n=39 v=0
195840 Off ch=1 n=51 v=0
195840 On ch=1 n=65 v=78
195840 On ch=1 n=46 v=82
195840 On ch=1 n=58 v=82
196320 Off ch=1 n=65 v=0
196320 Off ch=1 n=46 v=0
196320 Off ch=1 n=58 v=0
196320 On ch=1 n=65 v=83
196320 On ch=1 n=46 v=74
196320 On ch=1 n=58 v=74
196800 Off ch=1 n=65 v=0
196800 Off ch=1 n=46 v=0
196800 Off ch=1 n=58 v=0
196800 On ch=1 n=65 v=77
196800 On ch=1 n=46 v=77
196800 On ch=1 n=58 v=77
197280 Off ch=1 n=65 v=0
197280 Off ch=1 n=46 v=0
197280 Off ch=1 n=58 v=0
197280 On ch=1 n=63 v=69
197280 On ch=1 n=46 v=75
197280 On ch=1 n=58 v=75
197760 Off ch=1 n=63 v=0
197760 Off ch=1 n=46 v=0
197760 Off ch=1 n=58 v=0
197760 On ch=1 n=67 v=88
197760 On ch=1 n=48 v=75
197760 On ch=1 n=60 v=75
198240 Off ch=1 n=48 v=0
198240 Off ch=1 n=60 v=0
198240 On ch=1 n=48 v=75
198240 On ch=1 n=60 v=75
198720 Off ch=1 n=67 v=0
198720 Off ch=1 n=48 v=0
198720 Off ch=1 n=60 v=0
198720 On ch=1 n=48 v=78
198720 On ch=1 n=60 v=78
199200 Off ch=1 n=48 v=0
199200 Off ch=1 n=60 v=0
199200 On ch=1 n=58 v=73
199200 On ch=1 n=48 v=79
199200 On ch=1 n=60 v=79
199680 Off ch=1 n=58 v=0
199680 Off ch=1 n=48 v=0
199680 Off ch=1 n=60 v=0
199680 On ch=1 n=44 v=74
199680 On ch=1 n=56 v=74
200160 Off ch=1 n=44 v=0
200160 Off ch=1 n=56 v=0
200160 On ch=1 n=44 v=74
200160 On ch=1 n=56 v=74
200640 Off ch=1 n=44 v=0
200640 Off ch=1 n=56 v=0
200640 On ch=1 n=44 v=74
200640 On ch=1 n=56 v=74
201120 Off ch=1 n=44 v=0
201120 Off ch=1 n=56 v=0
201120 On ch=1 n=58 v=66
201120 On ch=1 n=44 v=83
201120 On ch=1 n=56 v=83
201600 Off ch=1 n=58 v=0
201600 Off ch=1 n=44 v=0
201600 Off ch=1 n=56 v=0
201600 On ch=1 n=58 v=75
201600 On ch=1 n=44 v=73
201600 On ch=1 n=56 v=73
202080 Off ch=1 n=58 v=0
202080 Off ch=1 n=44 v=0
202080 Off ch=1 n=56 v=0
202080 On ch=1 n=58 v=80
202080 On ch=1 n=44 v=77
202080 On ch=1 n=56 v=77
202560 Off ch=1 n=58 v=0
202560 Off ch=1 n=44 v=0
202560 Off ch=1 n=56 v=0
202560 On ch=1 n=58 v=75
202560 On ch=1 n=44 v=77
202560 On ch=1 n=56 v=77
203040 Off ch=1 n=58 v=0
203040 Off ch=1 n=44 v=0
203040 Off ch=1 n=56 v=0
203040 On ch=1 n=62 v=83
203040 On ch=1 n=44 v=74
203040 On ch=1 n=56 v=74
203520 Off ch=1 n=44 v=0
203520 Off ch=1 n=56 v=0
203520 On ch=1 n=39 v=72
203520 On ch=1 n=51 v=72
204000 Off ch=1 n=39 v=0
204000 Off ch=1 n=51 v=0
204000 On ch=1 n=39 v=79
204000 On ch=1 n=51 v=79
204480 Off ch=1 n=39 v=0
204480 Off ch=1 n=51 v=0
204480 On ch=1 n=39 v=76
204480 On ch=1 n=51 v=76
204960 Off ch=1 n=62 v=0
204960 Off ch=1 n=39 v=0
204960 Off ch=1 n=51 v=0
204960 On ch=1 n=63 v=79
204960 On ch=1 n=39 v=77
204960 On ch=1 n=51 v=77
205440 Off ch=1 n=39 v=0
205440 Off ch=1 n=51 v=0
205440 On ch=1 n=39 v=74
205440 On ch=1 n=51 v=74
205920 Off ch=1 n=39 v=0
205920 Off ch=1 n=51 v=0
205920 On ch=1 n=39 v=75
205920 On ch=1 n=51 v=75
206400 Off ch=1 n=39 v=0
206400 Off ch=1 n=51 v=0
206400 On ch=1 n=39 v=75
206400 On ch=1 n=51 v=75
206880 Off ch=1 n=63 v=0
206880 Off ch=1 n=39 v=0
206880 Off ch=1 n=51 v=0
206880 On ch=1 n=39 v=80
206880 On ch=1 n=51 v=80
207360 Off ch=1 n=39 v=0
207360 Off ch=1 n=51 v=0
207360 On ch=1 n=46 v=85
207360 On ch=1 n=58 v=85
207840 Off ch=1 n=46 v=0
207840 Off ch=1 n=58 v=0
207840 On ch=1 n=46 v=82
207840 On ch=1 n=58 v=82
208320 Off ch=1 n=46 v=0
208320 Off ch=1 n=58 v=0
208320 On ch=1 n=46 v=75
208320 On ch=1 n=58 v=75
208800 Off ch=1 n=46 v=0
208800 Off ch=1 n=58 v=0
208800 On ch=1 n=46 v=71
208800 On ch=1 n=58 v=71
209280 Off ch=1 n=46 v=0
209280 Off ch=1 n=58 v=0
209280 On ch=1 n=46 v=80
209280 On ch=1 n=58 v=80
209760 Off ch=1 n=46 v=0
209760 Off ch=1 n=58 v=0
209760 On ch=1 n=46 v=71
209760 On ch=1 n=58 v=71
210240 Off ch=1 n=46 v=0
210240 Off ch=1 n=58 v=0
210240 On ch=1 n=46 v=77
210240 On ch=1 n=58 v=77
210720 Off ch=1 n=46 v=0
210720 Off ch=1 n=58 v=0
210720 On ch=1 n=65 v=89
210720 On ch=1 n=46 v=75
210720 On ch=1 n=58 v=75
211200 Off ch=1 n=46 v=0
211200 Off ch=1 n=58 v=0
211200 On ch=1 n=48 v=83
211200 On ch=1 n=60 v=83
211680 Off ch=1 n=48 v=0
211680 Off ch=1 n=60 v=0
211680 On ch=1 n=48 v=72
211680 On ch=1 n=60 v=72
212160 Off ch=1 n=48 v=0
212160 Off ch=1 n=60 v=0
212160 On ch=1 n=48 v=75
212160 On ch=1 n=60 v=75
212640 Off ch=1 n=65 v=0
212640 Off ch=1 n=48 v=0
212640 Off ch=1 n=60 v=0
212640 On ch=1 n=63 v=72
212640 On ch=1 n=48 v=73
212640 On ch=1 n=60 v=73
213120 Off ch=1 n=48 v=0
213120 Off ch=1 n=60 v=0
213120 On ch=1 n=48 v=76
213120 On ch=1 n=60 v=76
213600 Off ch=1 n=48 v=0
213600 Off ch=1 n=60 v=0
213600 On ch=1 n=48 v=78
213600 On ch=1 n=60 v=78
214080 Off ch=1 n=48 v=0
214080 Off ch=1 n=60 v=0
214080 On ch=1 n=48 v=78
214080 On ch=1 n=60 v=78
214560 Off ch=1 n=63 v=0
214560 Off ch=1 n=48 v=0
214560 Off ch=1 n=60 v=0
214560 On ch=1 n=48 v=71
214560 On ch=1 n=60 v=71
215040 Off ch=1 n=48 v=0
215040 Off ch=1 n=60 v=0
215040 On ch=1 n=44 v=75
215040 On ch=1 n=56 v=75
215520 Off ch=1 n=44 v=0
215520 Off ch=1 n=56 v=0
215520 On ch=1 n=44 v=78
215520 On ch=1 n=56 v=78
216000 Off ch=1 n=44 v=0
216000 Off ch=1 n=56 v=0
216000 On ch=1 n=44 v=73
216000 On ch=1 n=56 v=73
216480 Off ch=1 n=44 v=0
216480 Off ch=1 n=56 v=0
216480 On ch=1 n=58 v=70
216480 On ch=1 n=44 v=82
216480 On ch=1 n=56 v=82
216960 Off ch=1 n=58 v=0
216960 Off ch=1 n=44 v=0
216960 Off ch=1 n=56 v=0
216960 On ch=1 n=58 v=71
216960 On ch=1 n=44 v=73
216960 On ch=1 n=56 v=73
217440 Off ch=1 n=58 v=0
217440 Off ch=1 n=44 v=0
217440 Off ch=1 n=56 v=0
217440 On ch=1 n=58 v=77
217440 On ch=1 n=44 v=83
217440 On ch=1 n=56 v=83
217920 Off ch=1 n=58 v=0
217920 Off ch=1 n=44 v=0
217920 Off ch=1 n=56 v=0
217920 On ch=1 n=58 v=77
217920 On ch=1 n=44 v=76
217920 On ch=1 n=56 v=76
218400 Off ch=1 n=58 v=0
218400 Off ch=1 n=44 v=0
218400 Off ch=1 n=56 v=0
218400 On ch=1 n=62 v=81
218400 On ch=1 n=44 v=75
218400 On ch=1 n=56 v=75
218880 Off ch=1 n=44 v=0
218880 Off ch=1 n=56 v=0
218880 On ch=1 n=39 v=73
218880 On ch=1 n=51 v=73
219360 Off ch=1 n=39 v=0
219360 Off ch=1 n=51 v=0
219360 On ch=1 n=39 v=77
219360 On ch=1 n=51 v=77
219840 Off ch=1 n=39 v=0
219840 Off ch=1 n=51 v=0
219840 On ch=1 n=39 v=75
219840 On ch=1 n=51 v=75
220320 Off ch=1 n=62 v=0
220320 Off ch=1 n=39 v=0
220320 Off ch=1 n=51 v=0
220320 On ch=1 n=63 v=83
220320 On ch=1 n=39 v=74
220320 On ch=1 n=51 v=74
220800 Off ch=1 n=39 v=0
220800 Off ch=1 n=51 v=0
220800 On ch=1 n=39 v=77
220800 On ch=1 n=51 v=77
221280 Off ch=1 n=39 v=0
221280 Off ch=1 n=51 v=0
221280 On ch=1 n=39 v=77
221280 On ch=1 n=51 v=77
221760 Off ch=1 n=39 v=0
221760 Off ch=1 n=51 v=0
221760 On ch=1 n=39 v=80
221760 On ch=1 n=51 v=80
222240 Off ch=1 n=63 v=0
222240 Off ch=1 n=39 v=0
222240 Off ch=1 n=51 v=0
222240 On ch=1 n=39 v=78
222240 On ch=1 n=51 v=78
222720 Off ch=1 n=39 v=0
222720 Off ch=1 n=51 v=0
222720 On ch=1 n=68 v=66
222720 On ch=1 n=46 v=81
222720 On ch=1 n=58 v=81
223200 Off ch=1 n=68 v=0
223200 Off ch=1 n=46 v=0
223200 Off ch=1 n=58 v=0
223200 On ch=1 n=67 v=75
223200 On ch=1 n=46 v=78
223200 On ch=1 n=58 v=78
223680 Off ch=1 n=67 v=0
223680 Off ch=1 n=46 v=0
223680 Off ch=1 n=58 v=0
223680 On ch=1 n=65 v=67
223680 On ch=1 n=46 v=76
223680 On ch=1 n=58 v=76
224160 Off ch=1 n=65 v=0
224160 Off ch=1 n=46 v=0
224160 Off ch=1 n=58 v=0
224160 On ch=1 n=63 v=71
224160 On ch=1 n=46 v=80
224160 On ch=1 n=58 v=80
224640 Off ch=1 n=63 v=0
224640 Off ch=1 n=46 v=0
224640 Off ch=1 n=58 v=0
224640 On ch=1 n=46 v=77
224640 On ch=1 n=58 v=77
225120 Off ch=1 n=46 v=0
225120 Off ch=1 n=58 v=0
225120 On ch=1 n=67 v=90
225120 On ch=1 n=46 v=76
225120 On ch=1 n=58 v=76
225600 Off ch=1 n=67 v=0
225600 Off ch=1 n=46 v=0
225600 Off ch=1 n=58 v=0
225600 On ch=1 n=65 v=76
225600 On ch=1 n=46 v=76
225600 On ch=1 n=58 v=76
226080 Off ch=1 n=46 v=0
226080 Off ch=1 n=58 v=0
226080 On ch=1 n=46 v=76
226080 On ch=1 n=58 v=76
226560 Off ch=1 n=65 v=0
226560 Off ch=1 n=46 v=0
226560 Off ch=1 n=58 v=0
226560 On ch=1 n=65 v=78
226560 On ch=1 n=48 v=81
226560 On ch=1 n=60 v=81
227040 Off ch=1 n=65 v=0
227040 Off ch=1 n=48 v=0
227040 Off ch=1 n=60 v=0
227040 On ch=1 n=65 v=79
227040 On ch=1 n=48 v=78
227040 On ch=1 n=60 v=78
227520 Off ch=1 n=65 v=0
227520 Off ch=1 n=48 v=0
227520 Off ch=1 n=60 v=0
227520 On ch=1 n=65 v=76
227520 On ch=1 n=48 v=79
227520 On ch=1 n=60 v=79
228000 Off ch=1 n=65 v=0
228000 Off ch=1 n=48 v=0
228000 Off ch=1 n=60 v=0
228000 On ch=1 n=63 v=72
228000 On ch=1 n=48 v=74
228000 On ch=1 n=60 v=74
228480 Off ch=1 n=63 v=0
228480 Off ch=1 n=48 v=0
228480 Off ch=1 n=60 v=0
228480 On ch=1 n=67 v=84
228480 On ch=1 n=48 v=78
228480 On ch=1 n=60 v=78
228960 Off ch=1 n=48 v=0
228960 Off ch=1 n=60 v=0
228960 On ch=1 n=48 v=79
228960 On ch=1 n=60 v=79
229440 Off ch=1 n=67 v=0
229440 Off ch=1 n=48 v=0
229440 Off ch=1 n=60 v=0
229440 On ch=1 n=48 v=71
229440 On ch=1 n=60 v=71
229920 Off ch=1 n=48 v=0
229920 Off ch=1 n=60 v=0
229920 On ch=1 n=58 v=73
229920 On ch=1 n=48 v=80
229920 On ch=1 n=60 v=80
230400 Off ch=1 n=58 v=0
230400 Off ch=1 n=48 v=0
230400 Off ch=1 n=60 v=0
230400 On ch=1 n=44 v=72
230400 On ch=1 n=56 v=72
230880 Off ch=1 n=44 v=0
230880 Off ch=1 n=56 v=0
230880 On ch=1 n=70 v=67
230880 On ch=1 n=82 v=67
230880 On ch=1 n=44 v=77
230880 On ch=1 n=56 v=77
231360 Off ch=1 n=70 v=0
231360 Off ch=1 n=82 v=0
231360 Off ch=1 n=44 v=0
231360 Off ch=1 n=56 v=0
231360 On ch=1 n=67 v=67
231360 On ch=1 n=79 v=67
231360 On ch=1 n=44 v=72
231360 On ch=1 n=56 v=72
231840 Off ch=1 n=67 v=0
231840 Off ch=1 n=79 v=0
231840 Off ch=1 n=44 v=0
231840 Off ch=1 n=56 v=0
231840 On ch=1 n=70 v=82
231840 On ch=1 n=82 v=82
231840 On ch=1 n=44 v=72
231840 On ch=1 n=56 v=72
232320 Off ch=1 n=70 v=0
232320 Off ch=1 n=82 v=0
232320 Off ch=1 n=44 v=0
232320 Off ch=1 n=56 v=0
232320 On ch=1 n=67 v=73
232320 On ch=1 n=79 v=73
232320 On ch=1 n=39 v=70
232320 On ch=1 n=51 v=70
232800 Off ch=1 n=39 v=0
232800 Off ch=1 n=51 v=0
232800 On ch=1 n=39 v=76
232800 On ch=1 n=51 v=76
233280 Off ch=1 n=67 v=0
233280 Off ch=1 n=79 v=0
233280 Off ch=1 n=39 v=0
233280 Off ch=1 n=51 v=0
233280 On ch=1 n=65 v=74
233280 On ch=1 n=77 v=74
233280 On ch=1 n=39 v=74
233280 On ch=1 n=51 v=74
233760 Off ch=1 n=39 v=0
233760 Off ch=1 n=51 v=0
233760 On ch=1 n=39 v=75
233760 On ch=1 n=51 v=75
234240 Off ch=1 n=65 v=0
234240 Off ch=1 n=77 v=0
234240 Off ch=1 n=39 v=0
234240 Off ch=1 n=51 v=0
234240 On ch=1 n=70 v=60
234240 On ch=1 n=46 v=84
234240 On ch=1 n=58 v=84
234720 Off ch=1 n=46 v=0
234720 Off ch=1 n=58 v=0
234720 On ch=1 n=46 v=78
234720 On ch=1 n=58 v=78
235200 Off ch=1 n=70 v=0
235200 Off ch=1 n=46 v=0
235200 Off ch=1 n=58 v=0
235200 On ch=1 n=65 v=92
235200 On ch=1 n=77 v=92
235200 On ch=1 n=46 v=78
235200 On ch=1 n=58 v=78
235680 Off ch=1 n=46 v=0
235680 Off ch=1 n=58 v=0
235680 On ch=1 n=46 v=73
235680 On ch=1 n=58 v=73
236160 Off ch=1 n=65 v=0
236160 Off ch=1 n=77 v=0
236160 Off ch=1 n=46 v=0
236160 Off ch=1 n=58 v=0
236160 On ch=1 n=63 v=73
236160 On ch=1 n=75 v=73
236160 On ch=1 n=48 v=78
236160 On ch=1 n=60 v=78
236640 Off ch=1 n=48 v=0
236640 Off ch=1 n=60 v=0
236640 On ch=1 n=48 v=75
236640 On ch=1 n=60 v=75
237120 Off ch=1 n=48 v=0
237120 Off ch=1 n=60 v=0
237120 On ch=1 n=48 v=77
237120 On ch=1 n=60 v=77
237600 Off ch=1 n=48 v=0
237600 Off ch=1 n=60 v=0
237600 On ch=1 n=48 v=74
237600 On ch=1 n=60 v=74
238080 Off ch=1 n=63 v=0
238080 Off ch=1 n=75 v=0
238080 Off ch=1 n=48 v=0
238080 Off ch=1 n=60 v=0
238080 On ch=1 n=44 v=75
238080 On ch=1 n=56 v=75
238560 Off ch=1 n=44 v=0
238560 Off ch=1 n=56 v=0
238560 On ch=1 n=70 v=70
238560 On ch=1 n=82 v=70
238560 On ch=1 n=44 v=69
238560 On ch=1 n=56 v=69
239040 Off ch=1 n=70 v=0
239040 Off ch=1 n=82 v=0
239040 Off ch=1 n=44 v=0
239040 Off ch=1 n=56 v=0
239040 On ch=1 n=67 v=62
239040 On ch=1 n=79 v=62
239040 On ch=1 n=44 v=74
239040 On ch=1 n=56 v=74
239520 Off ch=1 n=67 v=0
239520 Off ch=1 n=79 v=0
239520 Off ch=1 n=44 v=0
239520 Off ch=1 n=56 v=0
239520 On ch=1 n=70 v=85
239520 On ch=1 n=82 v=85
239520 On ch=1 n=44 v=73
239520 On ch=1 n=56 v=73
240000 Off ch=1 n=70 v=0
240000 Off ch=1 n=82 v=0
240000 Off ch=1 n=44 v=0
240000 Off ch=1 n=56 v=0
240000 On ch=1 n=67 v=68
240000 On ch=1 n=79 v=68
240000 On ch=1 n=39 v=72
240000 On ch=1 n=51 v=72
240480 Off ch=1 n=39 v=0
240480 Off ch=1 n=51 v=0
240480 On ch=1 n=39 v=74
240480 On ch=1 n=51 v=74
240960 Off ch=1 n=67 v=0
240960 Off ch=1 n=79 v=0
240960 Off ch=1 n=39 v=0
240960 Off ch=1 n=51 v=0
240960 On ch=1 n=65 v=72
240960 On ch=1 n=77 v=72
240960 On ch=1 n=39 v=74
240960 On ch=1 n=51 v=74
241440 Off ch=1 n=39 v=0
241440 Off ch=1 n=51 v=0
241440 On ch=1 n=39 v=79
241440 On ch=1 n=51 v=79
241920 Off ch=1 n=65 v=0
241920 Off ch=1 n=77 v=0
241920 Off ch=1 n=39 v=0
241920 Off ch=1 n=51 v=0
241920 On ch=1 n=65 v=76
241920 On ch=1 n=77 v=76
241920 On ch=1 n=46 v=83
241920 On ch=1 n=58 v=83
242400 Off ch=1 n=65 v=0
242400 Off ch=1 n=77 v=0
242400 Off ch=1 n=46 v=0
242400 Off ch=1 n=58 v=0
242400 On ch=1 n=65 v=78
242400 On ch=1 n=77 v=78
242400 On ch=1 n=46 v=80
242400 On ch=1 n=58 v=80
242880 Off ch=1 n=65 v=0
242880 Off ch=1 n=77 v=0
242880 Off ch=1 n=46 v=0
242880 Off ch=1 n=58 v=0
242880 On ch=1 n=65 v=77
242880 On ch=1 n=77 v=77
242880 On ch=1 n=46 v=74
242880 On ch=1 n=58 v=74
243360 Off ch=1 n=65 v=0
243360 Off ch=1 n=77 v=0
243360 Off ch=1 n=46 v=0
243360 Off ch=1 n=58 v=0
243360 On ch=1 n=63 v=72
243360 On ch=1 n=75 v=72
243360 On ch=1 n=46 v=72
243360 On ch=1 n=58 v=72
243840 Off ch=1 n=63 v=0
243840 Off ch=1 n=75 v=0
243840 Off ch=1 n=46 v=0
243840 Off ch=1 n=58 v=0
243840 On ch=1 n=67 v=85
243840 On ch=1 n=79 v=85
243840 On ch=1 n=48 v=79
243840 On ch=1 n=60 v=79
244320 Off ch=1 n=48 v=0
244320 Off ch=1 n=60 v=0
244320 On ch=1 n=48 v=77
244320 On ch=1 n=60 v=77
244800 Off ch=1 n=67 v=0
244800 Off ch=1 n=79 v=0
244800 Off ch=1 n=48 v=0
244800 Off ch=1 n=60 v=0
244800 On ch=1 n=72 v=61
244800 On ch=1 n=48 v=75
244800 On ch=1 n=60 v=75
245280 Off ch=1 n=72 v=0
245280 Off ch=1 n=48 v=0
245280 Off ch=1 n=60 v=0
245280 On ch=1 n=58 v=72
245280 On ch=1 n=70 v=72
245280 On ch=1 n=48 v=73
245280 On ch=1 n=60 v=73
245760 Off ch=1 n=58 v=0
245760 Off ch=1 n=70 v=0
245760 Off ch=1 n=48 v=0
245760 Off ch=1 n=60 v=0
245760 On ch=1 n=44 v=73
245760 On ch=1 n=56 v=73
246240 Off ch=1 n=44 v=0
246240 Off ch=1 n=56 v=0
246240 On ch=1 n=70 v=70
246240 On ch=1 n=82 v=70
246240 On ch=1 n=44 v=77
246240 On ch=1 n=56 v=77
246720 Off ch=1 n=70 v=0
246720 Off ch=1 n=82 v=0
246720 Off ch=1 n=44 v=0
246720 Off ch=1 n=56 v=0
246720 On ch=1 n=67 v=70
246720 On ch=1 n=79 v=70
246720 On ch=1 n=44 v=76
246720 On ch=1 n=56 v=76
247200 Off ch=1 n=67 v=0
247200 Off ch=1 n=79 v=0
247200 Off ch=1 n=44 v=0
247200 Off ch=1 n=56 v=0
247200 On ch=1 n=70 v=84
247200 On ch=1 n=82 v=84
247200 On ch=1 n=44 v=73
247200 On ch=1 n=56 v=73
247680 Off ch=1 n=70 v=0
247680 Off ch=1 n=82 v=0
247680 Off ch=1 n=44 v=0
247680 Off ch=1 n=56 v=0
247680 On ch=1 n=67 v=68
247680 On ch=1 n=79 v=68
247680 On ch=1 n=39 v=72
247680 On ch=1 n=51 v=72
248160 Off ch=1 n=39 v=0
248160 Off ch=1 n=51 v=0
248160 On ch=1 n=39 v=73
248160 On ch=1 n=51 v=73
248640 Off ch=1 n=67 v=0
248640 Off ch=1 n=79 v=0
248640 Off ch=1 n=39 v=0
248640 Off ch=1 n=51 v=0
248640 On ch=1 n=65 v=65
248640 On ch=1 n=77 v=65
248640 On ch=1 n=39 v=77
248640 On ch=1 n=51 v=77
249120 Off ch=1 n=39 v=0
249120 Off ch=1 n=51 v=0
249120 On ch=1 n=39 v=79
249120 On ch=1 n=51 v=79
249600 Off ch=1 n=65 v=0
249600 Off ch=1 n=77 v=0
249600 Off ch=1 n=39 v=0
249600 Off ch=1 n=51 v=0
249600 On ch=1 n=70 v=64
249600 On ch=1 n=46 v=87
249600 On ch=1 n=58 v=87
250080 Off ch=1 n=46 v=0
250080 Off ch=1 n=58 v=0
250080 On ch=1 n=46 v=78
250080 On ch=1 n=58 v=78
250560 Off ch=1 n=70 v=0
250560 Off ch=1 n=46 v=0
250560 Off ch=1 n=58 v=0
250560 On ch=1 n=65 v=85
250560 On ch=1 n=77 v=85
250560 On ch=1 n=46 v=75
250560 On ch=1 n=58 v=75
251040 Off ch=1 n=46 v=0
251040 Off ch=1 n=58 v=0
251040 On ch=1 n=46 v=74
251040 On ch=1 n=58 v=74
251520 Off ch=1 n=65 v=0
251520 Off ch=1 n=77 v=0
251520 Off ch=1 n=46 v=0
251520 Off ch=1 n=58 v=0
251520 On ch=1 n=63 v=71
251520 On ch=1 n=75 v=71
251520 On ch=1 n=48 v=84
251520 On ch=1 n=60 v=84
252000 Off ch=1 n=48 v=0
252000 Off ch=1 n=60 v=0
252000 On ch=1 n=48 v=76
252000 On ch=1 n=60 v=76
252480 Off ch=1 n=48 v=0
252480 Off ch=1 n=60 v=0
252480 On ch=1 n=48 v=78
252480 On ch=1 n=60 v=78
252960 Off ch=1 n=48 v=0
252960 Off ch=1 n=60 v=0
252960 On ch=1 n=48 v=76
252960 On ch=1 n=60 v=76
253440 Off ch=1 n=63 v=0
253440 Off ch=1 n=75 v=0
253440 Off ch=1 n=48 v=0
253440 Off ch=1 n=60 v=0
253440 On ch=1 n=68 v=85
253440 On ch=1 n=80 v=85
253440 On ch=1 n=44 v=75
253440 On ch=1 n=56 v=75
253920 Off ch=1 n=68 v=0
253920 Off ch=1 n=80 v=0
253920 Off ch=1 n=44 v=0
253920 Off ch=1 n=56 v=0
253920 On ch=1 n=67 v=78
253920 On ch=1 n=79 v=78
253920 On ch=1 n=44 v=79
253920 On ch=1 n=56 v=79
254400 Off ch=1 n=67 v=0
254400 Off ch=1 n=79 v=0
254400 Off ch=1 n=44 v=0
254400 Off ch=1 n=56 v=0
254400 On ch=1 n=65 v=69
254400 On ch=1 n=77 v=69
254400 On ch=1 n=44 v=79
254400 On ch=1 n=56 v=79
254880 Off ch=1 n=65 v=0
254880 Off ch=1 n=77 v=0
254880 Off ch=1 n=44 v=0
254880 Off ch=1 n=56 v=0
254880 On ch=1 n=63 v=70
254880 On ch=1 n=75 v=70
254880 On ch=1 n=44 v=78
254880 On ch=1 n=56 v=78
255360 Off ch=1 n=63 v=0
255360 Off ch=1 n=75 v=0
255360 Off ch=1 n=44 v=0
255360 Off ch=1 n=56 v=0
255360 On ch=1 n=58 v=69
255360 On ch=1 n=70 v=69
255360 On ch=1 n=39 v=76
255360 On ch=1 n=51 v=76
255840 Off ch=1 n=58 v=0
255840 Off ch=1 n=70 v=0
255840 Off ch=1 n=39 v=0
255840 Off ch=1 n=51 v=0
255840 On ch=1 n=67 v=92
255840 On ch=1 n=79 v=92
255840 On ch=1 n=39 v=75
255840 On ch=1 n=51 v=75
256320 Off ch=1 n=67 v=0
256320 Off ch=1 n=79 v=0
256320 Off ch=1 n=39 v=0
256320 Off ch=1 n=51 v=0
256320 On ch=1 n=65 v=72
256320 On ch=1 n=77 v=72
256320 On ch=1 n=39 v=82
256320 On ch=1 n=51 v=82
256800 Off ch=1 n=39 v=0
256800 Off ch=1 n=51 v=0
256800 On ch=1 n=39 v=76
256800 On ch=1 n=51 v=76
257280 Off ch=1 n=65 v=0
257280 Off ch=1 n=77 v=0
257280 Off ch=1 n=39 v=0
257280 Off ch=1 n=51 v=0
257280 On ch=1 n=65 v=82
257280 On ch=1 n=77 v=82
257280 On ch=1 n=46 v=80
257280 On ch=1 n=58 v=80
257760 Off ch=1 n=65 v=0
257760 Off ch=1 n=77 v=0
257760 Off ch=1 n=46 v=0
257760 Off ch=1 n=58 v=0
257760 On ch=1 n=65 v=72
257760 On ch=1 n=77 v=72
257760 On ch=1 n=46 v=79
257760 On ch=1 n=58 v=79
258240 Off ch=1 n=65 v=0
258240 Off ch=1 n=77 v=0
258240 Off ch=1 n=46 v=0
258240 Off ch=1 n=58 v=0
258240 On ch=1 n=65 v=77
258240 On ch=1 n=77 v=77
258240 On ch=1 n=46 v=81
258240 On ch=1 n=58 v=81
258720 Off ch=1 n=65 v=0
258720 Off ch=1 n=77 v=0
258720 Off ch=1 n=46 v=0
258720 Off ch=1 n=58 v=0
258720 On ch=1 n=63 v=75
258720 On ch=1 n=75 v=75
258720 On ch=1 n=46 v=73
258720 On ch=1 n=58 v=73
259200 Off ch=1 n=63 v=0
259200 Off ch=1 n=75 v=0
259200 Off ch=1 n=46 v=0
259200 Off ch=1 n=58 v=0
259200 On ch=1 n=67 v=84
259200 On ch=1 n=79 v=84
259200 On ch=1 n=48 v=79
259200 On ch=1 n=60 v=79
259680 Off ch=1 n=48 v=0
259680 Off ch=1 n=60 v=0
259680 On ch=1 n=48 v=79
259680 On ch=1 n=60 v=79
260160 Off ch=1 n=67 v=0
260160 Off ch=1 n=79 v=0
260160 Off ch=1 n=48 v=0
260160 Off ch=1 n=60 v=0
260160 On ch=1 n=72 v=59
260160 On ch=1 n=48 v=77
260160 On ch=1 n=60 v=77
260640 Off ch=1 n=72 v=0
260640 Off ch=1 n=48 v=0
260640 Off ch=1 n=60 v=0
260640 On ch=1 n=58 v=69
260640 On ch=1 n=70 v=69
260640 On ch=1 n=48 v=77
260640 On ch=1 n=60 v=77
261120 Off ch=1 n=58 v=0
261120 Off ch=1 n=70 v=0
261120 Off ch=1 n=48 v=0
261120 Off ch=1 n=60 v=0
261120 On ch=1 n=44 v=72
261120 On ch=1 n=56 v=72
261600 Off ch=1 n=44 v=0
261600 Off ch=1 n=56 v=0
261600 On ch=1 n=70 v=67
261600 On ch=1 n=82 v=67
261600 On ch=1 n=44 v=75
261600 On ch=1 n=56 v=75
262080 Off ch=1 n=70 v=0
262080 Off ch=1 n=82 v=0
262080 Off ch=1 n=44 v=0
262080 Off ch=1 n=56 v=0
262080 On ch=1 n=67 v=68
262080 On ch=1 n=79 v=68
262080 On ch=1 n=44 v=76
262080 On ch=1 n=56 v=76
262560 Off ch=1 n=67 v=0
262560 Off ch=1 n=79 v=0
262560 Off ch=1 n=44 v=0
262560 Off ch=1 n=56 v=0
262560 On ch=1 n=70 v=81
262560 On ch=1 n=82 v=81
262560 On ch=1 n=44 v=75
262560 On ch=1 n=56 v=75
263040 Off ch=1 n=70 v=0
263040 Off ch=1 n=82 v=0
263040 Off ch=1 n=44 v=0
263040 Off ch=1 n=56 v=0
263040 On ch=1 n=67 v=75
263040 On ch=1 n=79 v=75
263040 On ch=1 n=39 v=71
263040 On ch=1 n=51 v=71
263520 Off ch=1 n=39 v=0
263520 Off ch=1 n=51 v=0
263520 On ch=1 n=39 v=76
263520 On ch=1 n=51 v=76
264000 Off ch=1 n=67 v=0
264000 Off ch=1 n=79 v=0
264000 Off ch=1 n=39 v=0
264000 Off ch=1 n=51 v=0
264000 On ch=1 n=65 v=70
264000 On ch=1 n=77 v=70
264000 On ch=1 n=39 v=78
264000 On ch=1 n=51 v=78
264480 Off ch=1 n=39 v=0
264480 Off ch=1 n=51 v=0
264480 On ch=1 n=39 v=74
264480 On ch=1 n=51 v=74
264960 Off ch=1 n=65 v=0
264960 Off ch=1 n=77 v=0
264960 Off ch=1 n=39 v=0
264960 Off ch=1 n=51 v=0
264960 On ch=1 n=70 v=61
264960 On ch=1 n=46 v=80
264960 On ch=1 n=58 v=80
265440 Off ch=1 n=46 v=0
265440 Off ch=1 n=58 v=0
265440 On ch=1 n=46 v=78
265440 On ch=1 n=58 v=78
265920 Off ch=1 n=70 v=0
265920 Off ch=1 n=46 v=0
265920 Off ch=1 n=58 v=0
265920 On ch=1 n=65 v=85
265920 On ch=1 n=77 v=85
265920 On ch=1 n=46 v=75
265920 On ch=1 n=58 v=75
266400 Off ch=1 n=46 v=0
266400 Off ch=1 n=58 v=0
266400 On ch=1 n=46 v=75
266400 On ch=1 n=58 v=75
266880 Off ch=1 n=65 v=0
266880 Off ch=1 n=77 v=0
266880 Off ch=1 n=46 v=0
266880 Off ch=1 n=58 v=0
266880 On ch=1 n=63 v=75
266880 On ch=1 n=75 v=75
266880 On ch=1 n=48 v=77
266880 On ch=1 n=60 v=77
267360 Off ch=1 n=48 v=0
267360 Off ch=1 n=60 v=0
267360 On ch=1 n=48 v=79
267360 On ch=1 n=60 v=79
267840 Off ch=1 n=48 v=0
267840 Off ch=1 n=60 v=0
267840 On ch=1 n=48 v=76
267840 On ch=1 n=60 v=76
268320 Off ch=1 n=48 v=0
268320 Off ch=1 n=60 v=0
268320 On ch=1 n=48 v=76
268320 On ch=1 n=60 v=76
268800 Off ch=1 n=63 v=0
268800 Off ch=1 n=75 v=0
268800 Off ch=1 n=48 v=0
268800 Off ch=1 n=60 v=0
268800 On ch=1 n=44 v=76
268800 On ch=1 n=56 v=76
269280 Off ch=1 n=44 v=0
269280 Off ch=1 n=56 v=0
269280 On ch=1 n=70 v=68
269280 On ch=1 n=82 v=68
269280 On ch=1 n=44 v=77
269280 On ch=1 n=56 v=77
269760 Off ch=1 n=70 v=0
269760 Off ch=1 n=82 v=0
269760 Off ch=1 n=44 v=0
269760 Off ch=1 n=56 v=0
269760 On ch=1 n=67 v=67
269760 On ch=1 n=79 v=67
269760 On ch=1 n=44 v=77
269760 On ch=1 n=56 v=77
270240 Off ch=1 n=67 v=0
270240 Off ch=1 n=79 v=0
270240 Off ch=1 n=44 v=0
270240 Off ch=1 n=56 v=0
270240 On ch=1 n=70 v=79
270240 On ch=1 n=82 v=79
270240 On ch=1 n=44 v=82
270240 On ch=1 n=56 v=82
270720 Off ch=1 n=70 v=0
270720 Off ch=1 n=82 v=0
270720 Off ch=1 n=44 v=0
270720 Off ch=1 n=56 v=0
270720 On ch=1 n=67 v=70
270720 On ch=1 n=79 v=70
270720 On ch=1 n=39 v=69
270720 On ch=1 n=51 v=69
271200 Off ch=1 n=39 v=0
271200 Off ch=1 n=51 v=0
271200 On ch=1 n=39 v=77
271200 On ch=1 n=51 v=77
271680 Off ch=1 n=67 v=0
271680 Off ch=1 n=79 v=0
271680 Off ch=1 n=39 v=0
271680 Off ch=1 n=51 v=0
271680 On ch=1 n=65 v=74
271680 On ch=1 n=77 v=74
271680 On ch=1 n=39 v=72
271680 On ch=1 n=51 v=72
272160 Off ch=1 n=39 v=0
272160 Off ch=1 n=51 v=0
272160 On ch=1 n=39 v=78
272160 On ch=1 n=51 v=78
272640 Off ch=1 n=65 v=0
272640 Off ch=1 n=77 v=0
272640 Off ch=1 n=39 v=0
272640 Off ch=1 n=51 v=0
272640 On ch=1 n=65 v=80
272640 On ch=1 n=77 v=80
272640 On ch=1 n=46 v=78
272640 On ch=1 n=58 v=78
273120 Off ch=1 n=65 v=0
273120 Off ch=1 n=77 v=0
273120 Off ch=1 n=46 v=0
273120 Off ch=1 n=58 v=0
273120 On ch=1 n=65 v=77
273120 On ch=1 n=77 v=77
273120 On ch=1 n=46 v=79
273120 On ch=1 n=58 v=79
273600 Off ch=1 n=65 v=0
273600 Off ch=1 n=77 v=0
273600 Off ch=1 n=46 v=0
273600 Off ch=1 n=58 v=0
273600 On ch=1 n=65 v=82
273600 On ch=1 n=77 v=82
273600 On ch=1 n=46 v=73
273600 On ch=1 n=58 v=73
274080 Off ch=1 n=65 v=0
274080 Off ch=1 n=77 v=0
274080 Off ch=1 n=46 v=0
274080 Off ch=1 n=58 v=0
274080 On ch=1 n=63 v=73
274080 On ch=1 n=75 v=73
274080 On ch=1 n=46 v=74
274080 On ch=1 n=58 v=74
274560 Off ch=1 n=63 v=0
274560 Off ch=1 n=75 v=0
274560 Off ch=1 n=46 v=0
274560 Off ch=1 n=58 v=0
274560 On ch=1 n=67 v=85
274560 On ch=1 n=79 v=85
274560 On ch=1 n=48 v=78
274560 On ch=1 n=60 v=78
275040 Off ch=1 n=48 v=0
275040 Off ch=1 n=60 v=0
275040 On ch=1 n=48 v=78
275040 On ch=1 n=60 v=78
275520 Off ch=1 n=67 v=0
275520 Off ch=1 n=79 v=0
275520 Off ch=1 n=48 v=0
275520 Off ch=1 n=60 v=0
275520 On ch=1 n=72 v=67
275520 On ch=1 n=48 v=74
275520 On ch=1 n=60 v=74
276000 Off ch=1 n=72 v=0
276000 Off ch=1 n=48 v=0
276000 Off ch=1 n=60 v=0
276000 On ch=1 n=58 v=66
276000 On ch=1 n=70 v=66
276000 On ch=1 n=48 v=81
276000 On ch=1 n=60 v=81
276480 Off ch=1 n=58 v=0
276480 Off ch=1 n=70 v=0
276480 Off ch=1 n=48 v=0
276480 Off ch=1 n=60 v=0
276480 On ch=1 n=44 v=75
276480 On ch=1 n=56 v=75
276960 Off ch=1 n=44 v=0
276960 Off ch=1 n=56 v=0
276960 On ch=1 n=70 v=66
276960 On ch=1 n=82 v=66
276960 On ch=1 n=44 v=74
276960 On ch=1 n=56 v=74
277440 Off ch=1 n=70 v=0
277440 Off ch=1 n=82 v=0
277440 Off ch=1 n=44 v=0
277440 Off ch=1 n=56 v=0
277440 On ch=1 n=67 v=70
277440 On ch=1 n=79 v=70
277440 On ch=1 n=44 v=80
277440 On ch=1 n=56 v=80
277920 Off ch=1 n=67 v=0
277920 Off ch=1 n=79 v=0
277920 Off ch=1 n=44 v=0
277920 Off ch=1 n=56 v=0
277920 On ch=1 n=70 v=81
277920 On ch=1 n=82 v=81
277920 On ch=1 n=44 v=78
277920 On ch=1 n=56 v=78
278400 Off ch=1 n=70 v=0
278400 Off ch=1 n=82 v=0
278400 Off ch=1 n=44 v=0
278400 Off ch=1 n=56 v=0
278400 On ch=1 n=67 v=73
278400 On ch=1 n=79 v=73
278400 On ch=1 n=39 v=69
278400 On ch=1 n=51 v=69
278880 Off ch=1 n=39 v=0
278880 Off ch=1 n=51 v=0
278880 On ch=1 n=39 v=76
278880 On ch=1 n=51 v=76
279360 Off ch=1 n=67 v=0
279360 Off ch=1 n=79 v=0
279360 Off ch=1 n=39 v=0
279360 Off ch=1 n=51 v=0
279360 On ch=1 n=65 v=71
279360 On ch=1 n=77 v=71
279360 On ch=1 n=39 v=76
279360 On ch=1 n=51 v=76
279840 Off ch=1 n=39 v=0
279840 Off ch=1 n=51 v=0
279840 On ch=1 n=39 v=80
279840 On ch=1 n=51 v=80
280320 Off ch=1 n=65 v=0
280320 Off ch=1 n=77 v=0
280320 Off ch=1 n=39 v=0
280320 Off ch=1 n=51 v=0
280320 On ch=1 n=70 v=64
280320 On ch=1 n=46 v=85
280320 On ch=1 n=58 v=85
280800 Off ch=1 n=46 v=0
280800 Off ch=1 n=58 v=0
280800 On ch=1 n=46 v=73
280800 On ch=1 n=58 v=73
281280 Off ch=1 n=70 v=0
281280 Off ch=1 n=46 v=0
281280 Off ch=1 n=58 v=0
281280 On ch=1 n=65 v=89
281280 On ch=1 n=77 v=89
281280 On ch=1 n=46 v=73
281280 On ch=1 n=58 v=73
281760 Off ch=1 n=46 v=0
281760 Off ch=1 n=58 v=0
281760 On ch=1 n=46 v=73
281760 On ch=1 n=58 v=73
282240 Off ch=1 n=65 v=0
282240 Off ch=1 n=77 v=0
282240 Off ch=1 n=46 v=0
282240 Off ch=1 n=58 v=0
282240 On ch=1 n=63 v=71
282240 On ch=1 n=75 v=71
282240 On ch=1 n=48 v=83
282240 On ch=1 n=60 v=83
282720 Off ch=1 n=48 v=0
282720 Off ch=1 n=60 v=0
282720 On ch=1 n=48 v=82
282720 On ch=1 n=60 v=82
283200 Off ch=1 n=48 v=0
283200 Off ch=1 n=60 v=0
283200 On ch=1 n=48 v=76
283200 On ch=1 n=60 v=76
283680 Off ch=1 n=48 v=0
283680 Off ch=1 n=60 v=0
283680 On ch=1 n=48 v=77
283680 On ch=1 n=60 v=77
284160 Off ch=1 n=63 v=0
284160 Off ch=1 n=75 v=0
284160 Off ch=1 n=48 v=0
284160 Off ch=1 n=60 v=0
284160 On ch=1 n=68 v=88
284160 On ch=1 n=80 v=88
284160 On ch=1 n=44 v=69
284160 On ch=1 n=56 v=69
284640 Off ch=1 n=68 v=0
284640 Off ch=1 n=80 v=0
284640 Off ch=1 n=44 v=0
284640 Off ch=1 n=56 v=0
284640 On ch=1 n=67 v=73
284640 On ch=1 n=79 v=73
284640 On ch=1 n=44 v=78
284640 On ch=1 n=56 v=78
285120 Off ch=1 n=67 v=0
285120 Off ch=1 n=79 v=0
285120 Off ch=1 n=44 v=0
285120 Off ch=1 n=56 v=0
285120 On ch=1 n=65 v=69
285120 On ch=1 n=77 v=69
285120 On ch=1 n=44 v=75
285120 On ch=1 n=56 v=75
285600 Off ch=1 n=65 v=0
285600 Off ch=1 n=77 v=0
285600 Off ch=1 n=44 v=0
285600 Off ch=1 n=56 v=0
285600 On ch=1 n=63 v=70
285600 On ch=1 n=75 v=70
285600 On ch=1 n=44 v=75
285600 On ch=1 n=56 v=75
286080 Off ch=1 n=63 v=0
286080 Off ch=1 n=75 v=0
286080 Off ch=1 n=44 v=0
286080 Off ch=1 n=56 v=0
286080 On ch=1 n=58 v=65
286080 On ch=1 n=70 v=65
286080 On ch=1 n=39 v=71
286080 On ch=1 n=51 v=71
286560 Off ch=1 n=58 v=0
286560 Off ch=1 n=70 v=0
286560 Off ch=1 n=39 v=0
286560 Off ch=1 n=51 v=0
286560 On ch=1 n=67 v=95
286560 On ch=1 n=79 v=95
286560 On ch=1 n=39 v=75
286560 On ch=1 n=51 v=75
287040 Off ch=1 n=67 v=0
287040 Off ch=1 n=79 v=0
287040 Off ch=1 n=39 v=0
287040 Off ch=1 n=51 v=0
287040 On ch=1 n=65 v=75
287040 On ch=1 n=77 v=75
287040 On ch=1 n=39 v=74
287040 On ch=1 n=51 v=74
287520 Off ch=1 n=39 v=0
287520 Off ch=1 n=51 v=0
287520 On ch=1 n=39 v=74
287520 On ch=1 n=51 v=74
288000 Off ch=1 n=65 v=0
288000 Off ch=1 n=77 v=0
288000 Off ch=1 n=39 v=0
288000 Off ch=1 n=51 v=0
288000 On ch=1 n=65 v=78
288000 On ch=1 n=77 v=78
288000 On ch=1 n=46 v=81
288000 On ch=1 n=58 v=81
288480 Off ch=1 n=65 v=0
288480 Off ch=1 n=77 v=0
288480 Off ch=1 n=46 v=0
288480 Off ch=1 n=58 v=0
288480 On ch=1 n=65 v=76
288480 On ch=1 n=77 v=76
288480 On ch=1 n=46 v=80
288480 On ch=1 n=58 v=80
288960 Off ch=1 n=65 v=0
288960 Off ch=1 n=77 v=0
288960 Off ch=1 n=46 v=0
288960 Off ch=1 n=58 v=0
288960 On ch=1 n=65 v=76
288960 On ch=1 n=77 v=76
288960 On ch=1 n=46 v=75
288960 On ch=1 n=58 v=75
289440 Off ch=1 n=65 v=0
289440 Off ch=1 n=77 v=0
289440 Off ch=1 n=46 v=0
289440 Off ch=1 n=58 v=0
289440 On ch=1 n=63 v=72
289440 On ch=1 n=75 v=72
289440 On ch=1 n=46 v=76
289440 On ch=1 n=58 v=76
289920 Off ch=1 n=63 v=0
289920 Off ch=1 n=75 v=0
289920 Off ch=1 n=46 v=0
289920 Off ch=1 n=58 v=0
289920 On ch=1 n=67 v=84
289920 On ch=1 n=79 v=84
289920 On ch=1 n=48 v=84
289920 On ch=1 n=60 v=84
290400 Off ch=1 n=48 v=0
290400 Off ch=1 n=60 v=0
290400 On ch=1 n=48 v=76
290400 On ch=1 n=60 v=76
290880 Off ch=1 n=67 v=0
290880 Off ch=1 n=79 v=0
290880 Off ch=1 n=48 v=0
290880 Off ch=1 n=60 v=0
290880 On ch=1 n=72 v=66
290880 On ch=1 n=48 v=75
290880 On ch=1 n=60 v=75
291360 Off ch=1 n=72 v=0
291360 Off ch=1 n=48 v=0
291360 Off ch=1 n=60 v=0
291360 On ch=1 n=58 v=73
291360 On ch=1 n=70 v=73
291360 On ch=1 n=48 v=76
291360 On ch=1 n=60 v=76
291840 Off ch=1 n=58 v=0
291840 Off ch=1 n=70 v=0
291840 Off ch=1 n=48 v=0
291840 Off ch=1 n=60 v=0
291840 On ch=1 n=68 v=92
291840 On ch=1 n=80 v=92
291840 On ch=1 n=44 v=72
291840 On ch=1 n=56 v=72
292320 Off ch=1 n=68 v=0
292320 Off ch=1 n=80 v=0
292320 Off ch=1 n=44 v=0
292320 Off ch=1 n=56 v=0
292320 On ch=1 n=68 v=80
292320 On ch=1 n=80 v=80
292320 On ch=1 n=44 v=77
292320 On ch=1 n=56 v=77
292800 Off ch=1 n=68 v=0
292800 Off ch=1 n=80 v=0
292800 Off ch=1 n=44 v=0
292800 Off ch=1 n=56 v=0
292800 On ch=1 n=68 v=78
292800 On ch=1 n=80 v=78
292800 On ch=1 n=44 v=76
292800 On ch=1 n=56 v=76
293280 Off ch=1 n=68 v=0
293280 Off ch=1 n=80 v=0
293280 Off ch=1 n=44 v=0
293280 Off ch=1 n=56 v=0
293280 On ch=1 n=68 v=78
293280 On ch=1 n=80 v=78
293280 On ch=1 n=44 v=76
293280 On ch=1 n=56 v=76
293760 Off ch=1 n=68 v=0
293760 Off ch=1 n=80 v=0
293760 Off ch=1 n=44 v=0
293760 Off ch=1 n=56 v=0
293760 On ch=1 n=67 v=76
293760 On ch=1 n=79 v=76
293760 On ch=1 n=39 v=74
293760 On ch=1 n=51 v=74
294240 Off ch=1 n=39 v=0
294240 Off ch=1 n=51 v=0
294240 On ch=1 n=39 v=73
294240 On ch=1 n=51 v=73
294720 Off ch=1 n=67 v=0
294720 Off ch=1 n=79 v=0
294720 Off ch=1 n=39 v=0
294720 Off ch=1 n=51 v=0
294720 On ch=1 n=39 v=75
294720 On ch=1 n=51 v=75
295200 Off ch=1 n=39 v=0
295200 Off ch=1 n=51 v=0
295200 On ch=1 n=39 v=78
295200 On ch=1 n=51 v=78
295680 Off ch=1 n=39 v=0
295680 Off ch=1 n=51 v=0
295680 On ch=1 n=65 v=66
295680 On ch=1 n=77 v=66
295680 On ch=1 n=46 v=85
295680 On ch=1 n=58 v=85
296160 Off ch=1 n=65 v=0
296160 Off ch=1 n=77 v=0
296160 Off ch=1 n=46 v=0
296160 Off ch=1 n=58 v=0
296160 On ch=1 n=65 v=76
296160 On ch=1 n=77 v=76
296160 On ch=1 n=46 v=78
296160 On ch=1 n=58 v=78
296640 Off ch=1 n=65 v=0
296640 Off ch=1 n=77 v=0
296640 Off ch=1 n=46 v=0
296640 Off ch=1 n=58 v=0
296640 On ch=1 n=65 v=81
296640 On ch=1 n=77 v=81
296640 On ch=1 n=46 v=74
296640 On ch=1 n=58 v=74
297120 Off ch=1 n=65 v=0
297120 Off ch=1 n=77 v=0
297120 Off ch=1 n=46 v=0
297120 Off ch=1 n=58 v=0
297120 On ch=1 n=63 v=69
297120 On ch=1 n=75 v=69
297120 On ch=1 n=46 v=80
297120 On ch=1 n=58 v=80
297600 Off ch=1 n=63 v=0
297600 Off ch=1 n=75 v=0
297600 Off ch=1 n=46 v=0
297600 Off ch=1 n=58 v=0
297600 On ch=1 n=67 v=84
297600 On ch=1 n=79 v=84
297600 On ch=1 n=48 v=85
297600 On ch=1 n=60 v=85
298080 Off ch=1 n=48 v=0
298080 Off ch=1 n=60 v=0
298080 On ch=1 n=48 v=80
298080 On ch=1 n=60 v=80
298560 Off ch=1 n=67 v=0
298560 Off ch=1 n=79 v=0
298560 Off ch=1 n=48 v=0
298560 Off ch=1 n=60 v=0
298560 On ch=1 n=58 v=59
298560 On ch=1 n=70 v=59
298560 On ch=1 n=48 v=74
298560 On ch=1 n=60 v=74
299040 Off ch=1 n=58 v=0
299040 Off ch=1 n=70 v=0
299040 Off ch=1 n=48 v=0
299040 Off ch=1 n=60 v=0
299040 On ch=1 n=63 v=83
299040 On ch=1 n=75 v=83
299040 On ch=1 n=48 v=75
299040 On ch=1 n=60 v=75
299520 Off ch=1 n=63 v=0
299520 Off ch=1 n=75 v=0
299520 Off ch=1 n=48 v=0
299520 Off ch=1 n=60 v=0
299520 On ch=1 n=68 v=90
299520 On ch=1 n=80 v=90
299520 On ch=1 n=44 v=70
299520 On ch=1 n=56 v=70
300000 Off ch=1 n=68 v=0
300000 Off ch=1 n=80 v=0
300000 Off ch=1 n=44 v=0
300000 Off ch=1 n=56 v=0
300000 On ch=1 n=68 v=85
300000 On ch=1 n=80 v=85
300000 On ch=1 n=44 v=76
300000 On ch=1 n=56 v=76
300480 Off ch=1 n=68 v=0
300480 Off ch=1 n=80 v=0
300480 Off ch=1 n=44 v=0
300480 Off ch=1 n=56 v=0
300480 On ch=1 n=68 v=72
300480 On ch=1 n=80 v=72
300480 On ch=1 n=44 v=80
300480 On ch=1 n=56 v=80
300960 Off ch=1 n=68 v=0
300960 Off ch=1 n=80 v=0
300960 Off ch=1 n=44 v=0
300960 Off ch=1 n=56 v=0
300960 On ch=1 n=68 v=75
300960 On ch=1 n=80 v=75
300960 On ch=1 n=44 v=78
300960 On ch=1 n=56 v=78
301440 Off ch=1 n=68 v=0
301440 Off ch=1 n=80 v=0
301440 Off ch=1 n=44 v=0
301440 Off ch=1 n=56 v=0
301440 On ch=1 n=67 v=75
301440 On ch=1 n=79 v=75
301440 On ch=1 n=39 v=73
301440 On ch=1 n=51 v=73
301920 Off ch=1 n=39 v=0
301920 Off ch=1 n=51 v=0
301920 On ch=1 n=39 v=77
301920 On ch=1 n=51 v=77
302400 Off ch=1 n=67 v=0
302400 Off ch=1 n=79 v=0
302400 Off ch=1 n=39 v=0
302400 Off ch=1 n=51 v=0
302400 On ch=1 n=39 v=75
302400 On ch=1 n=51 v=75
302880 Off ch=1 n=39 v=0
302880 Off ch=1 n=51 v=0
302880 On ch=1 n=39 v=77
302880 On ch=1 n=51 v=77
303360 Off ch=1 n=39 v=0
303360 Off ch=1 n=51 v=0
303360 On ch=1 n=65 v=70
303360 On ch=1 n=77 v=70
303360 On ch=1 n=46 v=84
303360 On ch=1 n=58 v=84
303840 Off ch=1 n=65 v=0
303840 Off ch=1 n=77 v=0
303840 Off ch=1 n=46 v=0
303840 Off ch=1 n=58 v=0
303840 On ch=1 n=65 v=73
303840 On ch=1 n=77 v=73
303840 On ch=1 n=46 v=83
303840 On ch=1 n=58 v=83
304320 Off ch=1 n=65 v=0
304320 Off ch=1 n=77 v=0
304320 Off ch=1 n=46 v=0
304320 Off ch=1 n=58 v=0
304320 On ch=1 n=65 v=76
304320 On ch=1 n=77 v=76
304320 On ch=1 n=46 v=74
304320 On ch=1 n=58 v=74
304800 Off ch=1 n=65 v=0
304800 Off ch=1 n=77 v=0
304800 Off ch=1 n=46 v=0
304800 Off ch=1 n=58 v=0
304800 On ch=1 n=63 v=75
304800 On ch=1 n=75 v=75
304800 On ch=1 n=46 v=77
304800 On ch=1 n=58 v=77
305280 Off ch=1 n=63 v=0
305280 Off ch=1 n=75 v=0
305280 Off ch=1 n=46 v=0
305280 Off ch=1 n=58 v=0
305280 On ch=1 n=67 v=79
305280 On ch=1 n=79 v=79
305280 On ch=1 n=48 v=83
305280 On ch=1 n=60 v=83
305760 Off ch=1 n=48 v=0
305760 Off ch=1 n=60 v=0
305760 On ch=1 n=48 v=73
305760 On ch=1 n=60 v=73
306240 Off ch=1 n=67 v=0
306240 Off ch=1 n=79 v=0
306240 Off ch=1 n=48 v=0
306240 Off ch=1 n=60 v=0
306240 On ch=1 n=58 v=57
306240 On ch=1 n=70 v=57
306240 On ch=1 n=48 v=76
306240 On ch=1 n=60 v=76
306720 Off ch=1 n=58 v=0
306720 Off ch=1 n=70 v=0
306720 Off ch=1 n=48 v=0
306720 Off ch=1 n=60 v=0
306720 On ch=1 n=63 v=82
306720 On ch=1 n=75 v=82
306720 On ch=1 n=48 v=78
306720 On ch=1 n=60 v=78
307200 Off ch=1 n=63 v=0
307200 Off ch=1 n=75 v=0
307200 Off ch=1 n=48 v=0
307200 Off ch=1 n=60 v=0
307200 On ch=1 n=68 v=88
307200 On ch=1 n=80 v=88
307200 On ch=1 n=44 v=71
307200 On ch=1 n=56 v=71
307680 Off ch=1 n=68 v=0
307680 Off ch=1 n=80 v=0
307680 Off ch=1 n=44 v=0
307680 Off ch=1 n=56 v=0
307680 On ch=1 n=68 v=82
307680 On ch=1 n=80 v=82
307680 On ch=1 n=44 v=74
307680 On ch=1 n=56 v=74
308160 Off ch=1 n=68 v=0
308160 Off ch=1 n=80 v=0
308160 Off ch=1 n=44 v=0
308160 Off ch=1 n=56 v=0
308160 On ch=1 n=68 v=79
308160 On ch=1 n=80 v=79
308160 On ch=1 n=44 v=73
308160 On ch=1 n=56 v=73
308640 Off ch=1 n=68 v=0
308640 Off ch=1 n=80 v=0
308640 Off ch=1 n=44 v=0
308640 Off ch=1 n=56 v=0
308640 On ch=1 n=68 v=79
308640 On ch=1 n=80 v=79
308640 On ch=1 n=44 v=76
308640 On ch=1 n=56 v=76
309120 Off ch=1 n=68 v=0
309120 Off ch=1 n=80 v=0
309120 Off ch=1 n=44 v=0
309120 Off ch=1 n=56 v=0
309120 On ch=1 n=67 v=69
309120 On ch=1 n=79 v=69
309120 On ch=1 n=39 v=68
309120 On ch=1 n=51 v=68
309600 Off ch=1 n=39 v=0
309600 Off ch=1 n=51 v=0
309600 On ch=1 n=39 v=74
309600 On ch=1 n=51 v=74
310080 Off ch=1 n=67 v=0
310080 Off ch=1 n=79 v=0
310080 Off ch=1 n=39 v=0
310080 Off ch=1 n=51 v=0
310080 On ch=1 n=39 v=74
310080 On ch=1 n=51 v=74
310560 Off ch=1 n=39 v=0
310560 Off ch=1 n=51 v=0
310560 On ch=1 n=39 v=74
310560 On ch=1 n=51 v=74
311040 Off ch=1 n=39 v=0
311040 Off ch=1 n=51 v=0
311040 On ch=1 n=65 v=69
311040 On ch=1 n=77 v=69
311040 On ch=1 n=46 v=84
311040 On ch=1 n=58 v=84
311520 Off ch=1 n=65 v=0
311520 Off ch=1 n=77 v=0
311520 Off ch=1 n=46 v=0
311520 Off ch=1 n=58 v=0
311520 On ch=1 n=65 v=79
311520 On ch=1 n=77 v=79
311520 On ch=1 n=46 v=73
311520 On ch=1 n=58 v=73
312000 Off ch=1 n=65 v=0
312000 Off ch=1 n=77 v=0
312000 Off ch=1 n=46 v=0
312000 Off ch=1 n=58 v=0
312000 On ch=1 n=65 v=75
312000 On ch=1 n=77 v=75
312000 On ch=1 n=46 v=76
312000 On ch=1 n=58 v=76
312480 Off ch=1 n=65 v=0
312480 Off ch=1 n=77 v=0
312480 Off ch=1 n=46 v=0
312480 Off ch=1 n=58 v=0
312480 On ch=1 n=63 v=73
312480 On ch=1 n=75 v=73
312480 On ch=1 n=46 v=77
312480 On ch=1 n=58 v=77
312960 Off ch=1 n=63 v=0
312960 Off ch=1 n=75 v=0
312960 Off ch=1 n=46 v=0
312960 Off ch=1 n=58 v=0
312960 On ch=1 n=67 v=83
312960 On ch=1 n=79 v=83
312960 On ch=1 n=48 v=79
312960 On ch=1 n=60 v=79
313440 Off ch=1 n=48 v=0
313440 Off ch=1 n=60 v=0
313440 On ch=1 n=48 v=82
313440 On ch=1 n=60 v=82
313920 Off ch=1 n=67 v=0
313920 Off ch=1 n=79 v=0
313920 Off ch=1 n=48 v=0
313920 Off ch=1 n=60 v=0
313920 On ch=1 n=58 v=57
313920 On ch=1 n=70 v=57
313920 On ch=1 n=48 v=77
313920 On ch=1 n=60 v=77
314400 Off ch=1 n=58 v=0
314400 Off ch=1 n=70 v=0
314400 Off ch=1 n=48 v=0
314400 Off ch=1 n=60 v=0
314400 On ch=1 n=63 v=82
314400 On ch=1 n=75 v=82
314400 On ch=1 n=48 v=74
314400 On ch=1 n=60 v=74
314880 Off ch=1 n=63 v=0
314880 Off ch=1 n=75 v=0
314880 Off ch=1 n=48 v=0
314880 Off ch=1 n=60 v=0
314880 On ch=1 n=68 v=88
314880 On ch=1 n=80 v=88
314880 On ch=1 n=44 v=72
314880 On ch=1 n=56 v=72
315360 Off ch=1 n=68 v=0
315360 Off ch=1 n=80 v=0
315360 Off ch=1 n=44 v=0
315360 Off ch=1 n=56 v=0
315360 On ch=1 n=67 v=82
315360 On ch=1 n=79 v=82
315360 On ch=1 n=44 v=72
315360 On ch=1 n=56 v=72
315840 Off ch=1 n=67 v=0
315840 Off ch=1 n=79 v=0
315840 Off ch=1 n=44 v=0
315840 Off ch=1 n=56 v=0
315840 On ch=1 n=65 v=73
315840 On ch=1 n=77 v=73
315840 On ch=1 n=44 v=76
315840 On ch=1 n=56 v=76
316320 Off ch=1 n=65 v=0
316320 Off ch=1 n=77 v=0
316320 Off ch=1 n=44 v=0
316320 Off ch=1 n=56 v=0
316320 On ch=1 n=63 v=73
316320 On ch=1 n=75 v=73
316320 On ch=1 n=44 v=76
316320 On ch=1 n=56 v=76
316800 Off ch=1 n=63 v=0
316800 Off ch=1 n=75 v=0
316800 Off ch=1 n=44 v=0
316800 Off ch=1 n=56 v=0
316800 On ch=1 n=58 v=64
316800 On ch=1 n=70 v=64
316800 On ch=1 n=39 v=71
316800 On ch=1 n=51 v=71
317280 Off ch=1 n=58 v=0
317280 Off ch=1 n=70 v=0
317280 Off ch=1 n=39 v=0
317280 Off ch=1 n=51 v=0
317280 On ch=1 n=67 v=90
317280 On ch=1 n=79 v=90
317280 On ch=1 n=39 v=73
317280 On ch=1 n=51 v=73
317760 Off ch=1 n=67 v=0
317760 Off ch=1 n=79 v=0
317760 Off ch=1 n=39 v=0
317760 Off ch=1 n=51 v=0
317760 On ch=1 n=65 v=76
317760 On ch=1 n=77 v=76
317760 On ch=1 n=39 v=74
317760 On ch=1 n=51 v=74
318240 Off ch=1 n=39 v=0
318240 Off ch=1 n=51 v=0
318240 On ch=1 n=39 v=77
318240 On ch=1 n=51 v=77
318720 Off ch=1 n=65 v=0
318720 Off ch=1 n=77 v=0
318720 Off ch=1 n=39 v=0
318720 Off ch=1 n=51 v=0
318720 On ch=1 n=65 v=76
318720 On ch=1 n=77 v=76
318720 On ch=1 n=46 v=81
318720 On ch=1 n=58 v=81
319200 Off ch=1 n=65 v=0
319200 Off ch=1 n=77 v=0
319200 Off ch=1 n=46 v=0
319200 Off ch=1 n=58 v=0
319200 On ch=1 n=65 v=74
319200 On ch=1 n=77 v=74
319200 On ch=1 n=46 v=80
319200 On ch=1 n=58 v=80
319680 Off ch=1 n=65 v=0
319680 Off ch=1 n=77 v=0
319680 Off ch=1 n=46 v=0
319680 Off ch=1 n=58 v=0
319680 On ch=1 n=65 v=76
319680 On ch=1 n=77 v=76
319680 On ch=1 n=46 v=76
319680 On ch=1 n=58 v=76
320160 Off ch=1 n=65 v=0
320160 Off ch=1 n=77 v=0
320160 Off ch=1 n=46 v=0
320160 Off ch=1 n=58 v=0
320160 On ch=1 n=63 v=72
320160 On ch=1 n=75 v=72
320160 On ch=1 n=46 v=74
320160 On ch=1 n=58 v=74
320640 Off ch=1 n=63 v=0
320640 Off ch=1 n=75 v=0
320640 Off ch=1 n=46 v=0
320640 Off ch=1 n=58 v=0
320640 On ch=1 n=67 v=87
320640 On ch=1 n=79 v=87
320640 On ch=1 n=48 v=77
320640 On ch=1 n=60 v=77
321120 Off ch=1 n=48 v=0
321120 Off ch=1 n=60 v=0
321120 On ch=1 n=48 v=78
321120 On ch=1 n=60 v=78
321600 Off ch=1 n=67 v=0
321600 Off ch=1 n=79 v=0
321600 Off ch=1 n=48 v=0
321600 Off ch=1 n=60 v=0
321600 On ch=1 n=72 v=66
321600 On ch=1 n=48 v=82
321600 On ch=1 n=60 v=82
322080 Off ch=1 n=48 v=0
322080 Off ch=1 n=60 v=0
322080 On ch=1 n=48 v=75
322080 On ch=1 n=60 v=75
322560 Off ch=1 n=72 v=0
322560 Off ch=1 n=48 v=0
322560 Off ch=1 n=60 v=0
322560 On ch=1 n=44 v=73
322560 On ch=1 n=56 v=73
323040 Off ch=1 n=44 v=0
323040 Off ch=1 n=56 v=0
323040 On ch=1 n=70 v=72
323040 On ch=1 n=82 v=72
323040 On ch=1 n=44 v=73
323040 On ch=1 n=56 v=73
323520 Off ch=1 n=70 v=0
323520 Off ch=1 n=82 v=0
323520 Off ch=1 n=44 v=0
323520 Off ch=1 n=56 v=0
323520 On ch=1 n=67 v=69
323520 On ch=1 n=79 v=69
323520 On ch=1 n=44 v=76
323520 On ch=1 n=56 v=76
324000 Off ch=1 n=67 v=0
324000 Off ch=1 n=79 v=0
324000 Off ch=1 n=44 v=0
324000 Off ch=1 n=56 v=0
324000 On ch=1 n=70 v=80
324000 On ch=1 n=82 v=80
324000 On ch=1 n=44 v=82
324000 On ch=1 n=56 v=82
324480 Off ch=1 n=70 v=0
324480 Off ch=1 n=82 v=0
324480 Off ch=1 n=44 v=0
324480 Off ch=1 n=56 v=0
324480 On ch=1 n=67 v=73
324480 On ch=1 n=79 v=73
324480 On ch=1 n=39 v=70
324480 On ch=1 n=51 v=70
324960 Off ch=1 n=39 v=0
324960 Off ch=1 n=51 v=0
324960 On ch=1 n=39 v=77
324960 On ch=1 n=51 v=77
325440 Off ch=1 n=67 v=0
325440 Off ch=1 n=79 v=0
325440 Off ch=1 n=39 v=0
325440 Off ch=1 n=51 v=0
325440 On ch=1 n=65 v=72
325440 On ch=1 n=77 v=72
325440 On ch=1 n=39 v=77
325440 On ch=1 n=51 v=77
325920 Off ch=1 n=39 v=0
325920 Off ch=1 n=51 v=0
325920 On ch=1 n=39 v=78
325920 On ch=1 n=51 v=78
326400 Off ch=1 n=65 v=0
326400 Off ch=1 n=77 v=0
326400 Off ch=1 n=39 v=0
326400 Off ch=1 n=51 v=0
326400 On ch=1 n=70 v=65
326400 On ch=1 n=46 v=84
326400 On ch=1 n=58 v=84
326880 Off ch=1 n=46 v=0
326880 Off ch=1 n=58 v=0
326880 On ch=1 n=46 v=77
326880 On ch=1 n=58 v=77
327360 Off ch=1 n=70 v=0
327360 Off ch=1 n=46 v=0
327360 Off ch=1 n=58 v=0
327360 On ch=1 n=65 v=85
327360 On ch=1 n=77 v=85
327360 On ch=1 n=46 v=77
327360 On ch=1 n=58 v=77
327840 Off ch=1 n=46 v=0
327840 Off ch=1 n=58 v=0
327840 On ch=1 n=46 v=77
327840 On ch=1 n=58 v=77
328320 Off ch=1 n=65 v=0
328320 Off ch=1 n=77 v=0
328320 Off ch=1 n=46 v=0
328320 Off ch=1 n=58 v=0
328320 On ch=1 n=63 v=70
328320 On ch=1 n=75 v=70
328320 On ch=1 n=48 v=82
328320 On ch=1 n=60 v=82
328800 Off ch=1 n=48 v=0
328800 Off ch=1 n=60 v=0
328800 On ch=1 n=48 v=74
328800 On ch=1 n=60 v=74
329280 Off ch=1 n=48 v=0
329280 Off ch=1 n=60 v=0
329280 On ch=1 n=48 v=78
329280 On ch=1 n=60 v=78
329760 Off ch=1 n=48 v=0
329760 Off ch=1 n=60 v=0
329760 On ch=1 n=48 v=77
329760 On ch=1 n=60 v=77
330240 Off ch=1 n=63 v=0
330240 Off ch=1 n=75 v=0
330240 Off ch=1 n=48 v=0
330240 Off ch=1 n=60 v=0
330240 On ch=1 n=44 v=75
330240 On ch=1 n=56 v=75
330720 Off ch=1 n=44 v=0
330720 Off ch=1 n=56 v=0
330720 On ch=1 n=70 v=65
330720 On ch=1 n=82 v=65
330720 On ch=1 n=44 v=77
330720 On ch=1 n=56 v=77
331200 Off ch=1 n=70 v=0
331200 Off ch=1 n=82 v=0
331200 Off ch=1 n=44 v=0
331200 Off ch=1 n=56 v=0
331200 On ch=1 n=67 v=69
331200 On ch=1 n=79 v=69
331200 On ch=1 n=44 v=80
331200 On ch=1 n=56 v=80
331680 Off ch=1 n=67 v=0
331680 Off ch=1 n=79 v=0
331680 Off ch=1 n=44 v=0
331680 Off ch=1 n=56 v=0
331680 On ch=1 n=70 v=81
331680 On ch=1 n=82 v=81
331680 On ch=1 n=44 v=77
331680 On ch=1 n=56 v=77
332160 Off ch=1 n=70 v=0
332160 Off ch=1 n=82 v=0
332160 Off ch=1 n=44 v=0
332160 Off ch=1 n=56 v=0
332160 On ch=1 n=67 v=72
332160 On ch=1 n=79 v=72
332160 On ch=1 n=39 v=69
332160 On ch=1 n=51 v=69
332640 Off ch=1 n=39 v=0
332640 Off ch=1 n=51 v=0
332640 On ch=1 n=39 v=76
332640 On ch=1 n=51 v=76
333120 Off ch=1 n=67 v=0
333120 Off ch=1 n=79 v=0
333120 Off ch=1 n=39 v=0
333120 Off ch=1 n=51 v=0
333120 On ch=1 n=65 v=72
333120 On ch=1 n=77 v=72
333120 On ch=1 n=39 v=79
333120 On ch=1 n=51 v=79
333600 Off ch=1 n=39 v=0
333600 Off ch=1 n=51 v=0
333600 On ch=1 n=39 v=76
333600 On ch=1 n=51 v=76
334080 Off ch=1 n=65 v=0
334080 Off ch=1 n=77 v=0
334080 Off ch=1 n=39 v=0
334080 Off ch=1 n=51 v=0
334080 On ch=1 n=65 v=75
334080 On ch=1 n=77 v=75
334080 On ch=1 n=46 v=80
334080 On ch=1 n=58 v=80
334560 Off ch=1 n=65 v=0
334560 Off ch=1 n=77 v=0
334560 Off ch=1 n=46 v=0
334560 Off ch=1 n=58 v=0
334560 On ch=1 n=65 v=75
334560 On ch=1 n=77 v=75
334560 On ch=1 n=46 v=77
334560 On ch=1 n=58 v=77
335040 Off ch=1 n=65 v=0
335040 Off ch=1 n=77 v=0
335040 Off ch=1 n=46 v=0
335040 Off ch=1 n=58 v=0
335040 On ch=1 n=65 v=76
335040 On ch=1 n=77 v=76
335040 On ch=1 n=46 v=71
335040 On ch=1 n=58 v=71
335520 Off ch=1 n=65 v=0
335520 Off ch=1 n=77 v=0
335520 Off ch=1 n=46 v=0
335520 Off ch=1 n=58 v=0
335520 On ch=1 n=63 v=68
335520 On ch=1 n=75 v=68
335520 On ch=1 n=46 v=76
335520 On ch=1 n=58 v=76
336000 Off ch=1 n=63 v=0
336000 Off ch=1 n=75 v=0
336000 Off ch=1 n=46 v=0
336000 Off ch=1 n=58 v=0
336000 On ch=1 n=67 v=86
336000 On ch=1 n=79 v=86
336000 On ch=1 n=48 v=83
336000 On ch=1 n=60 v=83
336480 Off ch=1 n=48 v=0
336480 Off ch=1 n=60 v=0
336480 On ch=1 n=48 v=77
336480 On ch=1 n=60 v=77
336960 Off ch=1 n=67 v=0
336960 Off ch=1 n=79 v=0
336960 Off ch=1 n=48 v=0
336960 Off ch=1 n=60 v=0
336960 On ch=1 n=72 v=65
336960 On ch=1 n=48 v=74
336960 On ch=1 n=60 v=74
337440 Off ch=1 n=72 v=0
337440 Off ch=1 n=48 v=0
337440 Off ch=1 n=60 v=0
337440 On ch=1 n=58 v=69
337440 On ch=1 n=70 v=69
337440 On ch=1 n=48 v=74
337440 On ch=1 n=60 v=74
337920 Off ch=1 n=58 v=0
337920 Off ch=1 n=70 v=0
337920 Off ch=1 n=48 v=0
337920 Off ch=1 n=60 v=0
337920 On ch=1 n=44 v=73
337920 On ch=1 n=56 v=73
338400 Off ch=1 n=44 v=0
338400 Off ch=1 n=56 v=0
338400 On ch=1 n=70 v=63
338400 On ch=1 n=82 v=63
338400 On ch=1 n=44 v=73
338400 On ch=1 n=56 v=73
338880 Off ch=1 n=70 v=0
338880 Off ch=1 n=82 v=0
338880 Off ch=1 n=44 v=0
338880 Off ch=1 n=56 v=0
338880 On ch=1 n=67 v=71
338880 On ch=1 n=79 v=71
338880 On ch=1 n=44 v=78
338880 On ch=1 n=56 v=78
339360 Off ch=1 n=67 v=0
339360 Off ch=1 n=79 v=0
339360 Off ch=1 n=44 v=0
339360 Off ch=1 n=56 v=0
339360 On ch=1 n=70 v=78
339360 On ch=1 n=82 v=78
339360 On ch=1 n=44 v=70
339360 On ch=1 n=56 v=70
339840 Off ch=1 n=70 v=0
339840 Off ch=1 n=82 v=0
339840 Off ch=1 n=44 v=0
339840 Off ch=1 n=56 v=0
339840 On ch=1 n=67 v=74
339840 On ch=1 n=79 v=74
339840 On ch=1 n=39 v=73
339840 On ch=1 n=51 v=73
340320 Off ch=1 n=39 v=0
340320 Off ch=1 n=51 v=0
340320 On ch=1 n=39 v=76
340320 On ch=1 n=51 v=76
340800 Off ch=1 n=67 v=0
340800 Off ch=1 n=79 v=0
340800 Off ch=1 n=39 v=0
340800 Off ch=1 n=51 v=0
340800 On ch=1 n=65 v=70
340800 On ch=1 n=77 v=70
340800 On ch=1 n=39 v=81
340800 On ch=1 n=51 v=81
341280 Off ch=1 n=39 v=0
341280 Off ch=1 n=51 v=0
341280 On ch=1 n=39 v=78
341280 On ch=1 n=51 v=78
341760 Off ch=1 n=65 v=0
341760 Off ch=1 n=77 v=0
341760 Off ch=1 n=39 v=0
341760 Off ch=1 n=51 v=0
341760 On ch=1 n=70 v=62
341760 On ch=1 n=46 v=79
341760 On ch=1 n=58 v=79
342240 Off ch=1 n=46 v=0
342240 Off ch=1 n=58 v=0
342240 On ch=1 n=46 v=78
342240 On ch=1 n=58 v=78
342720 Off ch=1 n=70 v=0
342720 Off ch=1 n=46 v=0
342720 Off ch=1 n=58 v=0
342720 On ch=1 n=65 v=91
342720 On ch=1 n=77 v=91
342720 On ch=1 n=46 v=72
342720 On ch=1 n=58 v=72
343200 Off ch=1 n=46 v=0
343200 Off ch=1 n=58 v=0
343200 On ch=1 n=46 v=79
343200 On ch=1 n=58 v=79
343680 Off ch=1 n=65 v=0
343680 Off ch=1 n=77 v=0
343680 Off ch=1 n=46 v=0
343680 Off ch=1 n=58 v=0
343680 On ch=1 n=63 v=73
343680 On ch=1 n=75 v=73
343680 On ch=1 n=48 v=81
343680 On ch=1 n=60 v=81
344160 Off ch=1 n=48 v=0
344160 Off ch=1 n=60 v=0
344160 On ch=1 n=48 v=80
344160 On ch=1 n=60 v=80
344640 Off ch=1 n=48 v=0
344640 Off ch=1 n=60 v=0
344640 On ch=1 n=48 v=80
344640 On ch=1 n=60 v=80
345120 Off ch=1 n=48 v=0
345120 Off ch=1 n=60 v=0
345120 On ch=1 n=48 v=75
345120 On ch=1 n=60 v=75
345600 Off ch=1 n=63 v=0
345600 Off ch=1 n=75 v=0
345600 Off ch=1 n=48 v=0
345600 Off ch=1 n=60 v=0
345600 On ch=1 n=68 v=91
345600 On ch=1 n=80 v=91
345600 On ch=1 n=44 v=72
345600 On ch=1 n=56 v=72
346080 Off ch=1 n=68 v=0
346080 Off ch=1 n=80 v=0
346080 Off ch=1 n=44 v=0
346080 Off ch=1 n=56 v=0
346080 On ch=1 n=67 v=77
346080 On ch=1 n=79 v=77
346080 On ch=1 n=44 v=75
346080 On ch=1 n=56 v=75
346560 Off ch=1 n=67 v=0
346560 Off ch=1 n=79 v=0
346560 Off ch=1 n=44 v=0
346560 Off ch=1 n=56 v=0
346560 On ch=1 n=65 v=72
346560 On ch=1 n=77 v=72
346560 On ch=1 n=44 v=74
346560 On ch=1 n=56 v=74
347040 Off ch=1 n=65 v=0
347040 Off ch=1 n=77 v=0
347040 Off ch=1 n=44 v=0
347040 Off ch=1 n=56 v=0
347040 On ch=1 n=63 v=73
347040 On ch=1 n=75 v=73
347040 On ch=1 n=44 v=76
347040 On ch=1 n=56 v=76
347520 Off ch=1 n=63 v=0
347520 Off ch=1 n=75 v=0
347520 Off ch=1 n=44 v=0
347520 Off ch=1 n=56 v=0
347520 On ch=1 n=58 v=65
347520 On ch=1 n=70 v=65
347520 On ch=1 n=39 v=69
347520 On ch=1 n=51 v=69
348000 Off ch=1 n=58 v=0
348000 Off ch=1 n=70 v=0
348000 Off ch=1 n=39 v=0
348000 Off ch=1 n=51 v=0
348000 On ch=1 n=67 v=92
348000 On ch=1 n=79 v=92
348000 On ch=1 n=39 v=82
348000 On ch=1 n=51 v=82
348480 Off ch=1 n=67 v=0
348480 Off ch=1 n=79 v=0
348480 Off ch=1 n=39 v=0
348480 Off ch=1 n=51 v=0
348480 On ch=1 n=65 v=70
348480 On ch=1 n=77 v=70
348480 On ch=1 n=39 v=76
348480 On ch=1 n=51 v=76
348960 Off ch=1 n=39 v=0
348960 Off ch=1 n=51 v=0
348960 On ch=1 n=39 v=73
348960 On ch=1 n=51 v=73
349440 Off ch=1 n=65 v=0
349440 Off ch=1 n=77 v=0
349440 Off ch=1 n=39 v=0
349440 Off ch=1 n=51 v=0
349440 On ch=1 n=65 v=77
349440 On ch=1 n=77 v=77
349440 On ch=1 n=46 v=79
349440 On ch=1 n=58 v=79
349920 Off ch=1 n=65 v=0
349920 Off ch=1 n=77 v=0
349920 Off ch=1 n=46 v=0
349920 Off ch=1 n=58 v=0
349920 On ch=1 n=65 v=74
349920 On ch=1 n=77 v=74
349920 On ch=1 n=46 v=79
349920 On ch=1 n=58 v=79
350400 Off ch=1 n=65 v=0
350400 Off ch=1 n=77 v=0
350400 Off ch=1 n=46 v=0
350400 Off ch=1 n=58 v=0
350400 On ch=1 n=65 v=76
350400 On ch=1 n=77 v=76
350400 On ch=1 n=46 v=77
350400 On ch=1 n=58 v=77
350880 Off ch=1 n=65 v=0
350880 Off ch=1 n=77 v=0
350880 Off ch=1 n=46 v=0
350880 Off ch=1 n=58 v=0
350880 On ch=1 n=63 v=68
350880 On ch=1 n=75 v=68
350880 On ch=1 n=46 v=78
350880 On ch=1 n=58 v=78
351360 Off ch=1 n=63 v=0
351360 Off ch=1 n=75 v=0
351360 Off ch=1 n=46 v=0
351360 Off ch=1 n=58 v=0
351360 On ch=1 n=67 v=80
351360 On ch=1 n=79 v=80
351360 On ch=1 n=48 v=86
351360 On ch=1 n=60 v=86
351840 Off ch=1 n=48 v=0
351840 Off ch=1 n=60 v=0
351840 On ch=1 n=48 v=77
351840 On ch=1 n=60 v=77
352320 Off ch=1 n=67 v=0
352320 Off ch=1 n=79 v=0
352320 Off ch=1 n=48 v=0
352320 Off ch=1 n=60 v=0
352320 On ch=1 n=72 v=66
352320 On ch=1 n=48 v=78
352320 On ch=1 n=60 v=78
352800 Off ch=1 n=72 v=0
352800 Off ch=1 n=48 v=0
352800 Off ch=1 n=60 v=0
352800 On ch=1 n=58 v=65
352800 On ch=1 n=70 v=65
352800 On ch=1 n=48 v=74
352800 On ch=1 n=60 v=74
353280 Off ch=1 n=58 v=0
353280 Off ch=1 n=70 v=0
353280 Off ch=1 n=48 v=0
353280 Off ch=1 n=60 v=0
353280 On ch=1 n=44 v=70
353280 On ch=1 n=56 v=70
353760 Off ch=1 n=44 v=0
353760 Off ch=1 n=56 v=0
353760 On ch=1 n=70 v=69
353760 On ch=1 n=82 v=69
353760 On ch=1 n=44 v=71
353760 On ch=1 n=56 v=71
354240 Off ch=1 n=70 v=0
354240 Off ch=1 n=82 v=0
354240 Off ch=1 n=44 v=0
354240 Off ch=1 n=56 v=0
354240 On ch=1 n=67 v=67
354240 On ch=1 n=79 v=67
354240 On ch=1 n=44 v=82
354240 On ch=1 n=56 v=82
354720 Off ch=1 n=67 v=0
354720 Off ch=1 n=79 v=0
354720 Off ch=1 n=44 v=0
354720 Off ch=1 n=56 v=0
354720 On ch=1 n=70 v=79
354720 On ch=1 n=82 v=79
354720 On ch=1 n=44 v=74
354720 On ch=1 n=56 v=74
355200 Off ch=1 n=70 v=0
355200 Off ch=1 n=82 v=0
355200 Off ch=1 n=44 v=0
355200 Off ch=1 n=56 v=0
355200 On ch=1 n=67 v=68
355200 On ch=1 n=79 v=68
355200 On ch=1 n=39 v=71
355200 On ch=1 n=51 v=71
355680 Off ch=1 n=39 v=0
355680 Off ch=1 n=51 v=0
355680 On ch=1 n=39 v=78
355680 On ch=1 n=51 v=78
356160 Off ch=1 n=67 v=0
356160 Off ch=1 n=79 v=0
356160 Off ch=1 n=39 v=0
356160 Off ch=1 n=51 v=0
356160 On ch=1 n=65 v=69
356160 On ch=1 n=77 v=69
356160 On ch=1 n=39 v=76
356160 On ch=1 n=51 v=76
356640 Off ch=1 n=39 v=0
356640 Off ch=1 n=51 v=0
356640 On ch=1 n=39 v=76
356640 On ch=1 n=51 v=76
357120 Off ch=1 n=65 v=0
357120 Off ch=1 n=77 v=0
357120 Off ch=1 n=39 v=0
357120 Off ch=1 n=51 v=0
357120 On ch=1 n=70 v=65
357120 On ch=1 n=46 v=81
357120 On ch=1 n=58 v=81
357600 Off ch=1 n=46 v=0
357600 Off ch=1 n=58 v=0
357600 On ch=1 n=46 v=75
357600 On ch=1 n=58 v=75
358080 Off ch=1 n=70 v=0
358080 Off ch=1 n=46 v=0
358080 Off ch=1 n=58 v=0
358080 On ch=1 n=65 v=84
358080 On ch=1 n=77 v=84
358080 On ch=1 n=46 v=74
358080 On ch=1 n=58 v=74
358560 Off ch=1 n=46 v=0
358560 Off ch=1 n=58 v=0
358560 On ch=1 n=46 v=73
358560 On ch=1 n=58 v=73
359040 Off ch=1 n=65 v=0
359040 Off ch=1 n=77 v=0
359040 Off ch=1 n=46 v=0
359040 Off ch=1 n=58 v=0
359040 On ch=1 n=63 v=72
359040 On ch=1 n=75 v=72
359040 On ch=1 n=48 v=81
359040 On ch=1 n=60 v=81
359520 Off ch=1 n=48 v=0
359520 Off ch=1 n=60 v=0
359520 On ch=1 n=48 v=80
359520 On ch=1 n=60 v=80
360000 Off ch=1 n=48 v=0
360000 Off ch=1 n=60 v=0
360000 On ch=1 n=48 v=75
360000 On ch=1 n=60 v=75
360480 Off ch=1 n=48 v=0
360480 Off ch=1 n=60 v=0
360480 On ch=1 n=48 v=75
360480 On ch=1 n=60 v=75
360960 Off ch=1 n=63 v=0
360960 Off ch=1 n=75 v=0
360960 Off ch=1 n=48 v=0
360960 Off ch=1 n=60 v=0
360960 On ch=1 n=44 v=68
360960 On ch=1 n=56 v=68
361440 Off ch=1 n=44 v=0
361440 Off ch=1 n=56 v=0
361440 On ch=1 n=70 v=73
361440 On ch=1 n=82 v=73
361440 On ch=1 n=44 v=73
361440 On ch=1 n=56 v=73
361920 Off ch=1 n=70 v=0
361920 Off ch=1 n=82 v=0
361920 Off ch=1 n=44 v=0
361920 Off ch=1 n=56 v=0
361920 On ch=1 n=67 v=69
361920 On ch=1 n=79 v=69
361920 On ch=1 n=44 v=80
361920 On ch=1 n=56 v=80
362400 Off ch=1 n=67 v=0
362400 Off ch=1 n=79 v=0
362400 Off ch=1 n=44 v=0
362400 Off ch=1 n=56 v=0
362400 On ch=1 n=70 v=79
362400 On ch=1 n=82 v=79
362400 On ch=1 n=44 v=73
362400 On ch=1 n=56 v=73
362880 Off ch=1 n=70 v=0
362880 Off ch=1 n=82 v=0
362880 Off ch=1 n=44 v=0
362880 Off ch=1 n=56 v=0
362880 On ch=1 n=67 v=70
362880 On ch=1 n=79 v=70
362880 On ch=1 n=39 v=75
362880 On ch=1 n=51 v=75
363360 Off ch=1 n=39 v=0
363360 Off ch=1 n=51 v=0
363360 On ch=1 n=39 v=77
363360 On ch=1 n=51 v=77
363840 Off ch=1 n=67 v=0
363840 Off ch=1 n=79 v=0
363840 Off ch=1 n=39 v=0
363840 Off ch=1 n=51 v=0
363840 On ch=1 n=65 v=71
363840 On ch=1 n=77 v=71
363840 On ch=1 n=39 v=77
363840 On ch=1 n=51 v=77
364320 Off ch=1 n=39 v=0
364320 Off ch=1 n=51 v=0
364320 On ch=1 n=39 v=76
364320 On ch=1 n=51 v=76
364800 Off ch=1 n=65 v=0
364800 Off ch=1 n=77 v=0
364800 Off ch=1 n=39 v=0
364800 Off ch=1 n=51 v=0
364800 On ch=1 n=65 v=71
364800 On ch=1 n=77 v=71
364800 On ch=1 n=46 v=79
364800 On ch=1 n=58 v=79
365280 Off ch=1 n=65 v=0
365280 Off ch=1 n=77 v=0
365280 Off ch=1 n=46 v=0
365280 Off ch=1 n=58 v=0
365280 On ch=1 n=65 v=77
365280 On ch=1 n=77 v=77
365280 On ch=1 n=46 v=76
365280 On ch=1 n=58 v=76
365760 Off ch=1 n=65 v=0
365760 Off ch=1 n=77 v=0
365760 Off ch=1 n=46 v=0
365760 Off ch=1 n=58 v=0
365760 On ch=1 n=65 v=75
365760 On ch=1 n=77 v=75
365760 On ch=1 n=46 v=75
365760 On ch=1 n=58 v=75
366240 Off ch=1 n=65 v=0
366240 Off ch=1 n=77 v=0
366240 Off ch=1 n=46 v=0
366240 Off ch=1 n=58 v=0
366240 On ch=1 n=63 v=72
366240 On ch=1 n=75 v=72
366240 On ch=1 n=46 v=76
366240 On ch=1 n=58 v=76
366720 Off ch=1 n=63 v=0
366720 Off ch=1 n=75 v=0
366720 Off ch=1 n=46 v=0
366720 Off ch=1 n=58 v=0
366720 On ch=1 n=67 v=81
366720 On ch=1 n=79 v=81
366720 On ch=1 n=48 v=81
366720 On ch=1 n=60 v=81
367200 Off ch=1 n=48 v=0
367200 Off ch=1 n=60 v=0
367200 On ch=1 n=48 v=76
367200 On ch=1 n=60 v=76
367680 Off ch=1 n=67 v=0
367680 Off ch=1 n=79 v=0
367680 Off ch=1 n=48 v=0
367680 Off ch=1 n=60 v=0
367680 On ch=1 n=72 v=63
367680 On ch=1 n=48 v=77
367680 On ch=1 n=60 v=77
368160 Off ch=1 n=72 v=0
368160 Off ch=1 n=48 v=0
368160 Off ch=1 n=60 v=0
368160 On ch=1 n=58 v=71
368160 On ch=1 n=70 v=71
368160 On ch=1 n=48 v=73
368160 On ch=1 n=60 v=73
368640 Off ch=1 n=58 v=0
368640 Off ch=1 n=70 v=0
368640 Off ch=1 n=48 v=0
368640 Off ch=1 n=60 v=0
368640 On ch=1 n=44 v=77
368640 On ch=1 n=56 v=77
369120 Off ch=1 n=44 v=0
369120 Off ch=1 n=56 v=0
369120 On ch=1 n=70 v=69
369120 On ch=1 n=82 v=69
369120 On ch=1 n=44 v=75
369120 On ch=1 n=56 v=75
369600 Off ch=1 n=70 v=0
369600 Off ch=1 n=82 v=0
369600 Off ch=1 n=44 v=0
369600 Off ch=1 n=56 v=0
369600 On ch=1 n=67 v=72
369600 On ch=1 n=79 v=72
369600 On ch=1 n=44 v=74
369600 On ch=1 n=56 v=74
370080 Off ch=1 n=67 v=0
370080 Off ch=1 n=79 v=0
370080 Off ch=1 n=44 v=0
370080 Off ch=1 n=56 v=0
370080 On ch=1 n=70 v=79
370080 On ch=1 n=82 v=79
370080 On ch=1 n=44 v=77
370080 On ch=1 n=56 v=77
370560 Off ch=1 n=70 v=0
370560 Off ch=1 n=82 v=0
370560 Off ch=1 n=44 v=0
370560 Off ch=1 n=56 v=0
370560 On ch=1 n=67 v=67
370560 On ch=1 n=79 v=67
370560 On ch=1 n=39 v=73
370560 On ch=1 n=51 v=73
371040 Off ch=1 n=39 v=0
371040 Off ch=1 n=51 v=0
371040 On ch=1 n=39 v=74
371040 On ch=1 n=51 v=74
371520 Off ch=1 n=67 v=0
371520 Off ch=1 n=79 v=0
371520 Off ch=1 n=39 v=0
371520 Off ch=1 n=51 v=0
371520 On ch=1 n=65 v=72
371520 On ch=1 n=77 v=72
371520 On ch=1 n=39 v=77
371520 On ch=1 n=51 v=77
372000 Off ch=1 n=39 v=0
372000 Off ch=1 n=51 v=0
372000 On ch=1 n=39 v=74
372000 On ch=1 n=51 v=74
372480 Off ch=1 n=65 v=0
372480 Off ch=1 n=77 v=0
372480 Off ch=1 n=39 v=0
372480 Off ch=1 n=51 v=0
372480 On ch=1 n=70 v=64
372480 On ch=1 n=46 v=81
372480 On ch=1 n=58 v=81
372960 Off ch=1 n=46 v=0
372960 Off ch=1 n=58 v=0
372960 On ch=1 n=46 v=80
372960 On ch=1 n=58 v=80
373440 Off ch=1 n=70 v=0
373440 Off ch=1 n=46 v=0
373440 Off ch=1 n=58 v=0
373440 On ch=1 n=65 v=88
373440 On ch=1 n=77 v=88
373440 On ch=1 n=46 v=78
373440 On ch=1 n=58 v=78
373920 Off ch=1 n=46 v=0
373920 Off ch=1 n=58 v=0
373920 On ch=1 n=46 v=77
373920 On ch=1 n=58 v=77
374400 Off ch=1 n=65 v=0
374400 Off ch=1 n=77 v=0
374400 Off ch=1 n=46 v=0
374400 Off ch=1 n=58 v=0
374400 On ch=1 n=63 v=71
374400 On ch=1 n=75 v=71
374400 On ch=1 n=48 v=82
374400 On ch=1 n=60 v=82
374880 Off ch=1 n=48 v=0
374880 Off ch=1 n=60 v=0
374880 On ch=1 n=48 v=78
374880 On ch=1 n=60 v=78
375360 Off ch=1 n=48 v=0
375360 Off ch=1 n=60 v=0
375360 On ch=1 n=48 v=74
375360 On ch=1 n=60 v=74
375840 Off ch=1 n=48 v=0
375840 Off ch=1 n=60 v=0
375840 On ch=1 n=48 v=73
375840 On ch=1 n=60 v=73
376320 Off ch=1 n=63 v=0
376320 Off ch=1 n=75 v=0
376320 Off ch=1 n=48 v=0
376320 Off ch=1 n=60 v=0
376320 On ch=1 n=44 v=73
376320 On ch=1 n=56 v=73
376800 Off ch=1 n=44 v=0
376800 Off ch=1 n=56 v=0
376800 On ch=1 n=70 v=66
376800 On ch=1 n=82 v=66
376800 On ch=1 n=44 v=77
376800 On ch=1 n=56 v=77
377280 Off ch=1 n=70 v=0
377280 Off ch=1 n=82 v=0
377280 Off ch=1 n=44 v=0
377280 Off ch=1 n=56 v=0
377280 On ch=1 n=67 v=71
377280 On ch=1 n=79 v=71
377280 On ch=1 n=44 v=80
377280 On ch=1 n=56 v=80
377760 Off ch=1 n=67 v=0
377760 Off ch=1 n=79 v=0
377760 Off ch=1 n=44 v=0
377760 Off ch=1 n=56 v=0
377760 On ch=1 n=70 v=82
377760 On ch=1 n=82 v=82
377760 On ch=1 n=44 v=80
377760 On ch=1 n=56 v=80
378240 Off ch=1 n=70 v=0
378240 Off ch=1 n=82 v=0
378240 Off ch=1 n=44 v=0
378240 Off ch=1 n=56 v=0
378240 On ch=1 n=67 v=71
378240 On ch=1 n=79 v=71
378240 On ch=1 n=39 v=71
378240 On ch=1 n=51 v=71
378720 Off ch=1 n=39 v=0
378720 Off ch=1 n=51 v=0
378720 On ch=1 n=39 v=75
378720 On ch=1 n=51 v=75
379200 Off ch=1 n=67 v=0
379200 Off ch=1 n=79 v=0
379200 Off ch=1 n=39 v=0
379200 Off ch=1 n=51 v=0
379200 On ch=1 n=65 v=70
379200 On ch=1 n=77 v=70
379200 On ch=1 n=39 v=80
379200 On ch=1 n=51 v=80
379680 Off ch=1 n=39 v=0
379680 Off ch=1 n=51 v=0
379680 On ch=1 n=39 v=71
379680 On ch=1 n=51 v=71
380160 Off ch=1 n=65 v=0
380160 Off ch=1 n=77 v=0
380160 Off ch=1 n=39 v=0
380160 Off ch=1 n=51 v=0
380160 On ch=1 n=65 v=75
380160 On ch=1 n=77 v=75
380160 On ch=1 n=46 v=83
380160 On ch=1 n=58 v=83
380640 Off ch=1 n=65 v=0
380640 Off ch=1 n=77 v=0
380640 Off ch=1 n=46 v=0
380640 Off ch=1 n=58 v=0
380640 On ch=1 n=65 v=72
380640 On ch=1 n=77 v=72
380640 On ch=1 n=46 v=74
380640 On ch=1 n=58 v=74
381120 Off ch=1 n=65 v=0
381120 Off ch=1 n=77 v=0
381120 Off ch=1 n=46 v=0
381120 Off ch=1 n=58 v=0
381120 On ch=1 n=65 v=76
381120 On ch=1 n=77 v=76
381120 On ch=1 n=46 v=77
381120 On ch=1 n=58 v=77
381600 Off ch=1 n=65 v=0
381600 Off ch=1 n=77 v=0
381600 Off ch=1 n=46 v=0
381600 Off ch=1 n=58 v=0
381600 On ch=1 n=63 v=73
381600 On ch=1 n=75 v=73
381600 On ch=1 n=46 v=75
381600 On ch=1 n=58 v=75
382080 Off ch=1 n=63 v=0
382080 Off ch=1 n=75 v=0
382080 Off ch=1 n=46 v=0
382080 Off ch=1 n=58 v=0
382080 On ch=1 n=67 v=81
382080 On ch=1 n=79 v=81
382080 On ch=1 n=48 v=81
382080 On ch=1 n=60 v=81
382560 Off ch=1 n=48 v=0
382560 Off ch=1 n=60 v=0
382560 On ch=1 n=48 v=78
382560 On ch=1 n=60 v=78
383040 Off ch=1 n=67 v=0
383040 Off ch=1 n=79 v=0
383040 Off ch=1 n=48 v=0
383040 Off ch=1 n=60 v=0
383040 On ch=1 n=72 v=64
383040 On ch=1 n=48 v=78
383040 On ch=1 n=60 v=78
383520 Off ch=1 n=72 v=0
383520 Off ch=1 n=48 v=0
383520 Off ch=1 n=60 v=0
383520 On ch=1 n=63 v=79
383520 On ch=1 n=75 v=79
383520 On ch=1 n=48 v=80
383520 On ch=1 n=60 v=80
384000 Off ch=1 n=63 v=0
384000 Off ch=1 n=75 v=0
384000 Off ch=1 n=48 v=0
384000 Off ch=1 n=60 v=0
384000 On ch=1 n=44 v=77
384000 On ch=1 n=56 v=77
384480 On ch=1 n=70 v=66
384480 On ch=1 n=82 v=66
384960 Off ch=1 n=70 v=0
384960 Off ch=1 n=82 v=0
384960 On ch=1 n=67 v=68
384960 On ch=1 n=79 v=68
385440 Off ch=1 n=67 v=0
385440 Off ch=1 n=79 v=0
385440 On ch=1 n=70 v=79
385440 On ch=1 n=82 v=79
385920 Off ch=1 n=44 v=0
385920 Off ch=1 n=56 v=0
385920 Off ch=1 n=70 v=0
385920 Off ch=1 n=82 v=0
385920 On ch=1 n=67 v=71
385920 On ch=1 n=79 v=71
385920 On ch=1 n=39 v=71
385920 On ch=1 n=51 v=71
386880 Off ch=1 n=67 v=0
386880 Off ch=1 n=79 v=0
386880 On ch=1 n=65 v=69
386880 On ch=1 n=77 v=69
387840 Off ch=1 n=39 v=0
387840 Off ch=1 n=51 v=0
387840 Off ch=1 n=65 v=0
387840 Off ch=1 n=77 v=0
387840 On ch=1 n=70 v=62
387840 On ch=1 n=46 v=84
387840 On ch=1 n=58 v=84
388800 Off ch=1 n=70 v=0
388800 Off ch=1 n=58 v=0
388800 On ch=1 n=65 v=84
388800 On ch=1 n=77 v=84
389760 Off ch=1 n=46 v=0
389760 Off ch=1 n=65 v=0
389760 Off ch=1 n=77 v=0
389760 On ch=1 n=63 v=74
389760 On ch=1 n=75 v=74
389760 On ch=1 n=48 v=81
389760 On ch=1 n=60 v=81
391680 Off ch=1 n=63 v=0
391680 Off ch=1 n=75 v=0
391680 Off ch=1 n=48 v=0
391680 Off ch=1 n=60 v=0
391681 Off ch=1 n=0 v=0
391681 Meta TrkEnd
TrkEnd
