MFile 1 5 480
MTrk
0 Meta SeqName "\xffffffbc\xffffffab\xffffffc0\xffffffd6\xffffffbe\xffffffbb\xffffffcd\xffffffc1"
0 TimeSig 4/4 24 8
0 Tempo 458015
188160 Tempo 229007
226560 Tempo 458015
249600 Meta TrkEnd
TrkEnd
MTrk
0 Meta TrkName "Piano"
0 Meta InstrName "Microsoft GS Wavetable Synth"
0 KeySig 3 major
0 PrCh ch=2 p=0
0 Par ch=2 c=10 v=64
0 Par ch=2 c=7 v=127
1920 Par ch=2 c=64 v=64
1920 On ch=2 n=62 v=80
1920 On ch=2 n=69 v=80
2784 Off ch=2 n=62 v=64
2784 Off ch=2 n=69 v=64
2880 Par ch=2 c=64 v=64
2880 On ch=2 n=64 v=80
2880 On ch=2 n=68 v=80
2880 On ch=2 n=71 v=80
3744 Off ch=2 n=64 v=64
3744 Off ch=2 n=68 v=64
3744 Off ch=2 n=71 v=64
3840 Par ch=2 c=64 v=64
3840 On ch=2 n=73 v=80
3840 On ch=2 n=69 v=80
4704 Off ch=2 n=73 v=64
4704 Off ch=2 n=69 v=64
4800 Par ch=2 c=64 v=64
4800 On ch=2 n=64 v=80
4800 On ch=2 n=69 v=80
4800 On ch=2 n=73 v=80
5664 Off ch=2 n=64 v=64
5664 Off ch=2 n=69 v=64
5664 Off ch=2 n=73 v=64
5760 Par ch=2 c=64 v=64
5760 On ch=2 n=62 v=80
5760 On ch=2 n=69 v=80
6624 Off ch=2 n=62 v=64
6624 Off ch=2 n=69 v=64
6720 Par ch=2 c=64 v=64
6720 On ch=2 n=64 v=80
6720 On ch=2 n=68 v=80
6720 On ch=2 n=71 v=80
7584 Off ch=2 n=64 v=64
7584 Off ch=2 n=68 v=64
7584 Off ch=2 n=71 v=64
7680 Par ch=2 c=64 v=64
7680 On ch=2 n=73 v=80
7680 On ch=2 n=69 v=80
8544 Off ch=2 n=73 v=64
8544 Off ch=2 n=69 v=64
8640 On ch=2 n=64 v=80
8640 On ch=2 n=69 v=80
8640 On ch=2 n=73 v=80
9504 Off ch=2 n=64 v=64
9504 Off ch=2 n=69 v=64
9504 Off ch=2 n=73 v=64
9600 Par ch=2 c=64 v=64
9600 Par ch=2 c=64 v=64
9600 On ch=2 n=62 v=80
9600 On ch=2 n=66 v=80
9600 On ch=2 n=69 v=80
11328 Off ch=2 n=62 v=64
11328 Off ch=2 n=66 v=64
11328 Off ch=2 n=69 v=64
11520 Par ch=2 c=64 v=64
11520 On ch=2 n=64 v=80
11520 On ch=2 n=68 v=80
11520 On ch=2 n=71 v=80
13248 Off ch=2 n=64 v=64
13248 Off ch=2 n=68 v=64
13248 Off ch=2 n=71 v=64
13440 Par ch=2 c=64 v=64
13440 On ch=2 n=66 v=80
13440 On ch=2 n=69 v=80
13440 On ch=2 n=73 v=80
15168 Off ch=2 n=66 v=64
15168 Off ch=2 n=69 v=64
15168 Off ch=2 n=73 v=64
15360 Par ch=2 c=64 v=64
15360 On ch=2 n=66 v=80
15360 On ch=2 n=69 v=80
15360 On ch=2 n=73 v=80
17088 Off ch=2 n=66 v=64
17088 Off ch=2 n=69 v=64
17088 Off ch=2 n=73 v=64
20640 Par ch=2 c=64 v=0
24000 Par ch=2 c=64 v=64
24000 On ch=2 n=49 v=80
24000 On ch=2 n=53 v=80
24000 On ch=2 n=56 v=80
24216 Off ch=2 n=49 v=64
24216 Off ch=2 n=53 v=64
24864 Off ch=2 n=56 v=64
38400 Par ch=2 c=64 v=0
38640 On ch=2 n=95 v=60
38640 On ch=2 n=92 v=60
38640 On ch=2 n=88 v=60
38856 Off ch=2 n=95 v=64
38856 Off ch=2 n=92 v=64
38856 Off ch=2 n=88 v=64
39000 On ch=2 n=95 v=60
39000 On ch=2 n=92 v=60
39000 On ch=2 n=88 v=60
39216 Off ch=2 n=95 v=64
39216 Off ch=2 n=92 v=64
39216 Off ch=2 n=88 v=64
39360 On ch=2 n=88 v=60
39468 Off ch=2 n=88 v=64
39480 On ch=2 n=90 v=60
39588 Off ch=2 n=90 v=64
39600 On ch=2 n=92 v=60
39708 Off ch=2 n=92 v=64
39720 On ch=2 n=93 v=60
39828 Off ch=2 n=93 v=64
39840 On ch=2 n=97 v=60
39948 Off ch=2 n=97 v=64
39960 On ch=2 n=95 v=60
40068 Off ch=2 n=95 v=64
40080 On ch=2 n=93 v=60
40188 Off ch=2 n=93 v=64
40200 On ch=2 n=92 v=60
42048 Off ch=2 n=92 v=64
44160 Par ch=2 c=64 v=0
44160 On ch=2 n=74 v=80
44160 On ch=2 n=62 v=80
44592 Off ch=2 n=74 v=64
44592 Off ch=2 n=62 v=64
45120 On ch=2 n=76 v=80
45120 On ch=2 n=64 v=80
45552 Off ch=2 n=76 v=64
45552 Off ch=2 n=64 v=64
46080 Par ch=2 c=64 v=64
46080 On ch=2 n=63 v=80
47808 Off ch=2 n=63 v=64
54960 Par ch=2 c=64 v=0
54960 On ch=2 n=73 v=80
54960 On ch=2 n=69 v=80
55176 Off ch=2 n=73 v=64
55176 Off ch=2 n=69 v=64
55200 On ch=2 n=73 v=80
55200 On ch=2 n=69 v=80
55416 Off ch=2 n=73 v=64
55416 Off ch=2 n=69 v=64
55440 On ch=2 n=76 v=80
55440 On ch=2 n=71 v=80
55656 Off ch=2 n=76 v=64
55656 Off ch=2 n=71 v=64
67200 On ch=2 n=74 v=60
67308 Off ch=2 n=74 v=64
67320 On ch=2 n=78 v=60
67428 Off ch=2 n=78 v=64
67440 On ch=2 n=81 v=60
67548 Off ch=2 n=81 v=64
67560 On ch=2 n=86 v=60
67668 Off ch=2 n=86 v=64
67680 On ch=2 n=90 v=60
67788 Off ch=2 n=90 v=64
67800 On ch=2 n=81 v=60
67908 Off ch=2 n=81 v=64
67920 On ch=2 n=86 v=60
68028 Off ch=2 n=86 v=64
68040 On ch=2 n=90 v=60
68148 Off ch=2 n=90 v=64
68160 On ch=2 n=76 v=60
68268 Off ch=2 n=76 v=64
68280 On ch=2 n=80 v=60
68388 Off ch=2 n=80 v=64
68400 On ch=2 n=83 v=60
68508 Off ch=2 n=83 v=64
68520 On ch=2 n=88 v=60
68628 Off ch=2 n=88 v=64
68640 On ch=2 n=92 v=60
68748 Off ch=2 n=92 v=64
68760 On ch=2 n=83 v=60
68868 Off ch=2 n=83 v=64
68880 On ch=2 n=88 v=60
68988 Off ch=2 n=88 v=64
69000 On ch=2 n=92 v=60
69108 Off ch=2 n=92 v=64
69120 On ch=2 n=78 v=60
69228 Off ch=2 n=78 v=64
69240 On ch=2 n=81 v=60
69348 Off ch=2 n=81 v=64
69360 On ch=2 n=85 v=60
69468 Off ch=2 n=85 v=64
69480 On ch=2 n=90 v=60
69588 Off ch=2 n=90 v=64
69600 On ch=2 n=93 v=60
69708 Off ch=2 n=93 v=64
69720 On ch=2 n=85 v=60
69828 Off ch=2 n=85 v=64
69840 On ch=2 n=90 v=60
69948 Off ch=2 n=90 v=64
69960 On ch=2 n=93 v=60
70068 Off ch=2 n=93 v=64
70080 On ch=2 n=76 v=60
70188 Off ch=2 n=76 v=64
70200 On ch=2 n=80 v=60
70308 Off ch=2 n=80 v=64
70320 On ch=2 n=83 v=60
70428 Off ch=2 n=83 v=64
70440 On ch=2 n=88 v=60
70548 Off ch=2 n=88 v=64
70560 On ch=2 n=92 v=60
70668 Off ch=2 n=92 v=64
70680 On ch=2 n=83 v=60
70788 Off ch=2 n=83 v=64
70800 On ch=2 n=88 v=60
70908 Off ch=2 n=88 v=64
70920 On ch=2 n=92 v=60
71028 Off ch=2 n=92 v=64
72960 On ch=2 n=78 v=60
73068 Off ch=2 n=78 v=64
73080 On ch=2 n=81 v=60
73188 Off ch=2 n=81 v=64
73200 On ch=2 n=85 v=60
73308 Off ch=2 n=85 v=64
73320 On ch=2 n=90 v=60
73428 Off ch=2 n=90 v=64
73440 On ch=2 n=93 v=60
73548 Off ch=2 n=93 v=64
73560 On ch=2 n=85 v=60
73668 Off ch=2 n=85 v=64
73680 On ch=2 n=90 v=60
73788 Off ch=2 n=90 v=64
73800 On ch=2 n=93 v=60
73908 Off ch=2 n=93 v=64
73920 On ch=2 n=76 v=60
74028 Off ch=2 n=76 v=64
74040 On ch=2 n=81 v=60
74148 Off ch=2 n=81 v=64
74160 On ch=2 n=85 v=60
74268 Off ch=2 n=85 v=64
74280 On ch=2 n=88 v=60
74388 Off ch=2 n=88 v=64
74400 On ch=2 n=93 v=60
74508 Off ch=2 n=93 v=64
74520 On ch=2 n=85 v=60
74628 Off ch=2 n=85 v=64
74640 On ch=2 n=88 v=60
74748 Off ch=2 n=88 v=64
74760 On ch=2 n=93 v=60
74868 Off ch=2 n=93 v=64
76800 On ch=2 n=78 v=60
76908 Off ch=2 n=78 v=64
76920 On ch=2 n=81 v=60
77028 Off ch=2 n=81 v=64
77040 On ch=2 n=85 v=60
77148 Off ch=2 n=85 v=64
77160 On ch=2 n=90 v=60
77268 Off ch=2 n=90 v=64
77280 On ch=2 n=93 v=60
77388 Off ch=2 n=93 v=64
77400 On ch=2 n=85 v=60
77508 Off ch=2 n=85 v=64
77520 On ch=2 n=90 v=60
77628 Off ch=2 n=90 v=64
77640 On ch=2 n=93 v=60
77748 Off ch=2 n=93 v=64
77760 On ch=2 n=97 v=60
77868 Off ch=2 n=97 v=64
77880 On ch=2 n=93 v=60
77988 Off ch=2 n=93 v=64
78000 On ch=2 n=90 v=60
78108 Off ch=2 n=90 v=64
78120 On ch=2 n=85 v=60
78228 Off ch=2 n=85 v=64
78240 On ch=2 n=90 v=60
78348 Off ch=2 n=90 v=64
78360 On ch=2 n=85 v=60
78468 Off ch=2 n=85 v=64
78480 On ch=2 n=81 v=60
78588 Off ch=2 n=81 v=64
78600 On ch=2 n=78 v=60
78708 Off ch=2 n=78 v=64
85440 Par ch=2 c=64 v=64
85440 On ch=2 n=49 v=80
85440 On ch=2 n=53 v=80
85440 On ch=2 n=56 v=80
85656 Off ch=2 n=49 v=64
85656 Off ch=2 n=53 v=64
86304 Off ch=2 n=56 v=64
105600 Par ch=2 c=64 v=0
105600 On ch=2 n=74 v=80
105600 On ch=2 n=62 v=80
106032 Off ch=2 n=74 v=64
106032 Off ch=2 n=62 v=64
106560 On ch=2 n=76 v=80
106560 On ch=2 n=64 v=80
106992 Off ch=2 n=76 v=64
106992 Off ch=2 n=64 v=64
107520 Par ch=2 c=64 v=64
107520 On ch=2 n=63 v=80
109248 Off ch=2 n=63 v=64
116400 Par ch=2 c=64 v=0
116400 On ch=2 n=73 v=80
116400 On ch=2 n=69 v=80
116616 Off ch=2 n=73 v=64
116616 Off ch=2 n=69 v=64
116640 On ch=2 n=73 v=80
116640 On ch=2 n=69 v=80
116856 Off ch=2 n=73 v=64
116856 Off ch=2 n=69 v=64
116880 On ch=2 n=76 v=80
116880 On ch=2 n=71 v=80
117096 Off ch=2 n=76 v=64
117096 Off ch=2 n=71 v=64
130560 On ch=2 n=61 v=80
130560 On ch=2 n=66 v=80
130908 Off ch=2 n=61 v=64
130908 Off ch=2 n=66 v=64
130920 On ch=2 n=61 v=80
130920 On ch=2 n=66 v=80
131256 Off ch=2 n=61 v=64
131256 Off ch=2 n=66 v=64
131280 On ch=2 n=66 v=80
131280 On ch=2 n=69 v=80
131496 Off ch=2 n=66 v=64
131496 Off ch=2 n=69 v=64
131520 On ch=2 n=68 v=80
131520 On ch=2 n=71 v=80
132384 Off ch=2 n=68 v=64
132384 Off ch=2 n=71 v=64
132480 On ch=2 n=61 v=80
132480 On ch=2 n=66 v=80
132696 Off ch=2 n=61 v=64
132696 Off ch=2 n=66 v=64
132720 On ch=2 n=61 v=80
132720 On ch=2 n=66 v=80
132828 Off ch=2 n=61 v=64
132828 Off ch=2 n=66 v=64
132840 On ch=2 n=61 v=80
132840 On ch=2 n=66 v=80
133176 Off ch=2 n=61 v=64
133176 Off ch=2 n=66 v=64
133200 On ch=2 n=59 v=80
133200 On ch=2 n=64 v=80
133308 Off ch=2 n=59 v=64
133308 Off ch=2 n=64 v=64
133320 On ch=2 n=59 v=80
133320 On ch=2 n=64 v=80
133428 Off ch=2 n=59 v=64
133428 Off ch=2 n=64 v=64
133440 On ch=2 n=61 v=80
133440 On ch=2 n=66 v=80
133656 Off ch=2 n=61 v=64
133656 Off ch=2 n=66 v=64
133680 On ch=2 n=73 v=80
133680 On ch=2 n=69 v=80
134112 Off ch=2 n=73 v=64
134112 Off ch=2 n=69 v=64
134160 On ch=2 n=66 v=80
134160 On ch=2 n=69 v=80
134376 Off ch=2 n=66 v=64
134376 Off ch=2 n=69 v=64
134400 On ch=2 n=68 v=80
134400 On ch=2 n=71 v=80
134616 Off ch=2 n=68 v=64
134616 Off ch=2 n=71 v=64
134640 On ch=2 n=66 v=80
134640 On ch=2 n=69 v=80
134748 Off ch=2 n=66 v=64
134748 Off ch=2 n=69 v=64
134760 On ch=2 n=68 v=80
134760 On ch=2 n=71 v=80
135096 Off ch=2 n=68 v=64
135096 Off ch=2 n=71 v=64
135120 On ch=2 n=69 v=80
135120 On ch=2 n=73 v=80
135336 Off ch=2 n=69 v=64
135336 Off ch=2 n=73 v=64
135360 On ch=2 n=73 v=80
135360 On ch=2 n=69 v=80
136056 Off ch=2 n=73 v=64
136056 Off ch=2 n=69 v=64
136080 On ch=2 n=59 v=80
136080 On ch=2 n=64 v=80
136188 Off ch=2 n=59 v=64
136188 Off ch=2 n=64 v=64
136200 On ch=2 n=59 v=80
136200 On ch=2 n=64 v=80
136308 Off ch=2 n=59 v=64
136308 Off ch=2 n=64 v=64
136320 On ch=2 n=61 v=80
136320 On ch=2 n=66 v=80
136536 Off ch=2 n=61 v=64
136536 Off ch=2 n=66 v=64
136560 On ch=2 n=66 v=80
136560 On ch=2 n=69 v=80
137016 Off ch=2 n=66 v=64
137016 Off ch=2 n=69 v=64
137040 On ch=2 n=59 v=80
137040 On ch=2 n=64 v=80
137148 Off ch=2 n=59 v=64
137148 Off ch=2 n=64 v=64
137160 On ch=2 n=59 v=80
137160 On ch=2 n=64 v=80
137268 Off ch=2 n=59 v=64
137268 Off ch=2 n=64 v=64
137280 On ch=2 n=61 v=80
137280 On ch=2 n=66 v=80
137496 Off ch=2 n=61 v=64
137496 Off ch=2 n=66 v=64
137520 On ch=2 n=73 v=80
137520 On ch=2 n=69 v=80
137952 Off ch=2 n=73 v=64
137952 Off ch=2 n=69 v=64
138000 On ch=2 n=69 v=80
138000 On ch=2 n=73 v=80
138108 Off ch=2 n=69 v=64
138108 Off ch=2 n=73 v=64
138120 On ch=2 n=68 v=80
138120 On ch=2 n=71 v=80
138228 Off ch=2 n=68 v=64
138228 Off ch=2 n=71 v=64
138240 On ch=2 n=78 v=80
138348 Off ch=2 n=78 v=64
138360 On ch=2 n=81 v=80
138468 Off ch=2 n=81 v=64
138480 On ch=2 n=85 v=80
138588 Off ch=2 n=85 v=64
138600 On ch=2 n=90 v=80
138708 Off ch=2 n=90 v=64
138720 On ch=2 n=93 v=80
138828 Off ch=2 n=93 v=64
138840 On ch=2 n=85 v=80
138948 Off ch=2 n=85 v=64
138960 On ch=2 n=90 v=80
139068 Off ch=2 n=90 v=64
139080 On ch=2 n=93 v=80
139308 Off ch=2 n=93 v=64
139320 On ch=2 n=93 v=80
139428 Off ch=2 n=93 v=64
139440 On ch=2 n=90 v=80
139548 Off ch=2 n=90 v=64
139560 On ch=2 n=85 v=80
139668 Off ch=2 n=85 v=64
139680 On ch=2 n=90 v=80
139788 Off ch=2 n=90 v=64
139800 On ch=2 n=85 v=80
139908 Off ch=2 n=85 v=64
139920 On ch=2 n=81 v=80
140028 Off ch=2 n=81 v=64
140040 On ch=2 n=78 v=80
140148 Off ch=2 n=78 v=64
140160 On ch=2 n=78 v=80
140268 Off ch=2 n=78 v=64
140280 On ch=2 n=90 v=80
140388 Off ch=2 n=90 v=64
140400 On ch=2 n=78 v=80
140400 On ch=2 n=76 v=80
140508 Off ch=2 n=78 v=64
140508 Off ch=2 n=76 v=64
140520 On ch=2 n=90 v=80
140520 On ch=2 n=88 v=80
140628 Off ch=2 n=90 v=64
140628 Off ch=2 n=88 v=64
140640 On ch=2 n=76 v=80
140640 On ch=2 n=73 v=80
140748 Off ch=2 n=76 v=64
140748 Off ch=2 n=73 v=64
140760 On ch=2 n=88 v=80
140760 On ch=2 n=85 v=80
140868 Off ch=2 n=88 v=64
140868 Off ch=2 n=85 v=64
140880 On ch=2 n=73 v=80
140880 On ch=2 n=71 v=80
140988 Off ch=2 n=73 v=64
140988 Off ch=2 n=71 v=64
141000 On ch=2 n=85 v=80
141000 On ch=2 n=83 v=80
141108 Off ch=2 n=85 v=64
141108 Off ch=2 n=83 v=64
141120 On ch=2 n=73 v=80
141120 On ch=2 n=71 v=80
141228 Off ch=2 n=73 v=64
141228 Off ch=2 n=71 v=64
141240 On ch=2 n=85 v=80
141240 On ch=2 n=83 v=80
141348 Off ch=2 n=85 v=64
141348 Off ch=2 n=83 v=64
141360 On ch=2 n=73 v=80
141360 On ch=2 n=69 v=80
141468 Off ch=2 n=73 v=64
141468 Off ch=2 n=69 v=64
141480 On ch=2 n=85 v=80
141480 On ch=2 n=81 v=80
141588 Off ch=2 n=85 v=64
141588 Off ch=2 n=81 v=64
141600 On ch=2 n=69 v=80
141600 On ch=2 n=64 v=80
141708 Off ch=2 n=69 v=64
141708 Off ch=2 n=64 v=64
141720 On ch=2 n=81 v=80
141720 On ch=2 n=76 v=80
142056 Off ch=2 n=81 v=64
142080 Par ch=2 c=64 v=64
142188 Off ch=2 n=76 v=64
142200 On ch=2 n=76 v=80
142536 Off ch=2 n=76 v=64
142560 On ch=2 n=78 v=80
142722 Off ch=2 n=78 v=64
142740 On ch=2 n=81 v=80
142767 Off ch=2 n=81 v=64
142770 On ch=2 n=88 v=80
142770 On ch=2 n=85 v=80
142797 Off ch=2 n=88 v=64
142797 Off ch=2 n=85 v=64
142800 On ch=2 n=90 v=80
142962 Off ch=2 n=90 v=64
142980 On ch=2 n=88 v=80
143007 Off ch=2 n=88 v=64
143010 On ch=2 n=85 v=80
143010 On ch=2 n=81 v=80
143037 Off ch=2 n=85 v=64
143037 Off ch=2 n=81 v=64
143040 On ch=2 n=78 v=80
145176 Off ch=2 n=78 v=64
145200 On ch=2 n=81 v=80
145227 Off ch=2 n=81 v=64
145230 On ch=2 n=88 v=80
145257 Off ch=2 n=88 v=64
145260 On ch=2 n=90 v=80
145314 Off ch=2 n=90 v=64
145320 On ch=2 n=81 v=80
145347 Off ch=2 n=81 v=64
145350 On ch=2 n=88 v=80
145377 Off ch=2 n=88 v=64
145380 On ch=2 n=90 v=80
145656 Off ch=2 n=90 v=64
145680 On ch=2 n=81 v=80
145707 Off ch=2 n=81 v=64
145710 On ch=2 n=88 v=80
145737 Off ch=2 n=88 v=64
145740 On ch=2 n=90 v=80
145794 Off ch=2 n=90 v=64
145800 On ch=2 n=81 v=80
145827 Off ch=2 n=81 v=64
145830 On ch=2 n=88 v=80
145857 Off ch=2 n=88 v=64
145860 On ch=2 n=90 v=80
146352 Off ch=2 n=90 v=64
146400 On ch=2 n=78 v=80
146562 Off ch=2 n=78 v=64
146580 On ch=2 n=81 v=80
146607 Off ch=2 n=81 v=64
146610 On ch=2 n=88 v=80
146610 On ch=2 n=85 v=80
146637 Off ch=2 n=88 v=64
146637 Off ch=2 n=85 v=64
146640 On ch=2 n=90 v=80
146802 Off ch=2 n=90 v=64
146820 On ch=2 n=88 v=80
146847 Off ch=2 n=88 v=64
146850 On ch=2 n=85 v=80
146850 On ch=2 n=81 v=80
146877 Off ch=2 n=85 v=64
146877 Off ch=2 n=81 v=64
146880 On ch=2 n=78 v=80
147042 Off ch=2 n=78 v=64
147060 On ch=2 n=76 v=80
147087 Off ch=2 n=76 v=64
147090 On ch=2 n=73 v=80
147117 Off ch=2 n=73 v=64
147120 On ch=2 n=64 v=80
147336 Off ch=2 n=64 v=64
147360 On ch=2 n=66 v=80
148056 Off ch=2 n=66 v=64
148080 On ch=2 n=78 v=80
148188 Off ch=2 n=78 v=64
148200 On ch=2 n=90 v=80
148308 Off ch=2 n=90 v=64
148320 On ch=2 n=78 v=80
148320 On ch=2 n=76 v=80
148320 On ch=2 n=68 v=80
148428 Off ch=2 n=78 v=64
148428 Off ch=2 n=76 v=64
148428 Off ch=2 n=68 v=64
148440 On ch=2 n=90 v=80
148440 On ch=2 n=88 v=80
148548 Off ch=2 n=90 v=64
148548 Off ch=2 n=88 v=64
148560 On ch=2 n=76 v=80
148560 On ch=2 n=73 v=80
148668 Off ch=2 n=76 v=64
148668 Off ch=2 n=73 v=64
148680 On ch=2 n=88 v=80
148680 On ch=2 n=85 v=80
148788 Off ch=2 n=88 v=64
148788 Off ch=2 n=85 v=64
148800 On ch=2 n=73 v=80
148800 On ch=2 n=71 v=80
148908 Off ch=2 n=73 v=64
148908 Off ch=2 n=71 v=64
148920 On ch=2 n=85 v=80
148920 On ch=2 n=83 v=80
149028 Off ch=2 n=85 v=64
149028 Off ch=2 n=83 v=64
149040 On ch=2 n=73 v=80
149040 On ch=2 n=71 v=80
149148 Off ch=2 n=73 v=64
149148 Off ch=2 n=71 v=64
149160 On ch=2 n=85 v=80
149160 On ch=2 n=83 v=80
149268 Off ch=2 n=85 v=64
149268 Off ch=2 n=83 v=64
149280 On ch=2 n=73 v=80
149280 On ch=2 n=69 v=80
149388 Off ch=2 n=73 v=64
149388 Off ch=2 n=69 v=64
149400 On ch=2 n=85 v=80
149400 On ch=2 n=81 v=80
149508 Off ch=2 n=85 v=64
149508 Off ch=2 n=81 v=64
149520 On ch=2 n=69 v=80
149520 On ch=2 n=64 v=80
149628 Off ch=2 n=69 v=64
149628 Off ch=2 n=64 v=64
149640 On ch=2 n=81 v=80
149640 On ch=2 n=76 v=80
149748 Off ch=2 n=81 v=64
149868 Off ch=2 n=76 v=64
149880 On ch=2 n=76 v=80
150240 Off ch=2 n=76 v=64
150240 On ch=2 n=78 v=80
150402 Off ch=2 n=78 v=64
150420 On ch=2 n=81 v=80
150447 Off ch=2 n=81 v=64
150450 On ch=2 n=88 v=80
150450 On ch=2 n=85 v=80
150477 Off ch=2 n=88 v=64
150477 Off ch=2 n=85 v=64
150480 On ch=2 n=90 v=80
150642 Off ch=2 n=90 v=64
150660 On ch=2 n=88 v=80
150687 Off ch=2 n=88 v=64
150690 On ch=2 n=85 v=80
150690 On ch=2 n=81 v=80
150717 Off ch=2 n=85 v=64
150717 Off ch=2 n=81 v=64
150720 On ch=2 n=78 v=80
152856 Off ch=2 n=78 v=64
152880 On ch=2 n=81 v=80
152907 Off ch=2 n=81 v=64
152910 On ch=2 n=88 v=80
152937 Off ch=2 n=88 v=64
152940 On ch=2 n=90 v=80
152994 Off ch=2 n=90 v=64
153000 On ch=2 n=81 v=80
153027 Off ch=2 n=81 v=64
153030 On ch=2 n=88 v=80
153057 Off ch=2 n=88 v=64
153060 On ch=2 n=90 v=80
153336 Off ch=2 n=90 v=64
153360 On ch=2 n=81 v=80
153387 Off ch=2 n=81 v=64
153390 On ch=2 n=88 v=80
153417 Off ch=2 n=88 v=64
153420 On ch=2 n=90 v=80
153474 Off ch=2 n=90 v=64
153480 On ch=2 n=81 v=80
153507 Off ch=2 n=81 v=64
153510 On ch=2 n=88 v=80
153537 Off ch=2 n=88 v=64
153540 On ch=2 n=90 v=80
154032 Off ch=2 n=90 v=64
154080 On ch=2 n=78 v=80
154242 Off ch=2 n=78 v=64
154260 On ch=2 n=81 v=80
154287 Off ch=2 n=81 v=64
154290 On ch=2 n=88 v=80
154290 On ch=2 n=85 v=80
154317 Off ch=2 n=88 v=64
154317 Off ch=2 n=85 v=64
154320 On ch=2 n=90 v=80
154482 Off ch=2 n=90 v=64
154500 On ch=2 n=88 v=80
154527 Off ch=2 n=88 v=64
154530 On ch=2 n=85 v=80
154530 On ch=2 n=81 v=80
154557 Off ch=2 n=85 v=64
154557 Off ch=2 n=81 v=64
154560 On ch=2 n=78 v=80
154722 Off ch=2 n=78 v=64
154740 On ch=2 n=76 v=80
154767 Off ch=2 n=76 v=64
154770 On ch=2 n=69 v=80
154770 On ch=2 n=73 v=80
154797 Off ch=2 n=69 v=64
154797 Off ch=2 n=73 v=64
154800 On ch=2 n=66 v=80
154854 Off ch=2 n=66 v=64
154860 On ch=2 n=66 v=80
154914 Off ch=2 n=66 v=64
154920 On ch=2 n=66 v=80
154974 Off ch=2 n=66 v=64
154980 On ch=2 n=66 v=80
155034 Off ch=2 n=66 v=64
155040 On ch=2 n=66 v=80
155094 Off ch=2 n=66 v=64
155100 On ch=2 n=66 v=80
155154 Off ch=2 n=66 v=64
155160 On ch=2 n=66 v=80
155214 Off ch=2 n=66 v=64
155220 On ch=2 n=66 v=80
155274 Off ch=2 n=66 v=64
155280 On ch=2 n=66 v=80
155334 Off ch=2 n=66 v=64
155340 On ch=2 n=66 v=80
155394 Off ch=2 n=66 v=64
155400 On ch=2 n=66 v=80
155454 Off ch=2 n=66 v=64
155460 On ch=2 n=66 v=80
155514 Off ch=2 n=66 v=64
155520 On ch=2 n=68 v=80
156384 Off ch=2 n=68 v=64
156480 On ch=2 n=90 v=80
156480 On ch=2 n=85 v=80
156480 On ch=2 n=78 v=80
156552 Off ch=2 n=90 v=64
156552 Off ch=2 n=85 v=64
156552 Off ch=2 n=78 v=64
156560 On ch=2 n=88 v=80
156560 On ch=2 n=83 v=80
156560 On ch=2 n=76 v=80
156632 Off ch=2 n=88 v=64
156632 Off ch=2 n=83 v=64
156632 Off ch=2 n=76 v=64
156640 On ch=2 n=85 v=80
156640 On ch=2 n=80 v=80
156640 On ch=2 n=73 v=80
156712 Off ch=2 n=85 v=64
156712 Off ch=2 n=80 v=64
156712 Off ch=2 n=73 v=64
156720 On ch=2 n=83 v=80
156720 On ch=2 n=78 v=80
156720 On ch=2 n=71 v=80
156792 Off ch=2 n=83 v=64
156792 Off ch=2 n=78 v=64
156792 Off ch=2 n=71 v=64
156800 On ch=2 n=81 v=80
156800 On ch=2 n=76 v=80
156800 On ch=2 n=69 v=80
156872 Off ch=2 n=81 v=64
156872 Off ch=2 n=76 v=64
156872 Off ch=2 n=69 v=64
156880 On ch=2 n=78 v=80
156880 On ch=2 n=73 v=80
156880 On ch=2 n=66 v=80
156952 Off ch=2 n=78 v=64
156952 Off ch=2 n=73 v=64
156952 Off ch=2 n=66 v=64
156960 On ch=2 n=90 v=80
156960 On ch=2 n=85 v=80
156960 On ch=2 n=78 v=80
157032 Off ch=2 n=90 v=64
157032 Off ch=2 n=85 v=64
157032 Off ch=2 n=78 v=64
157040 On ch=2 n=88 v=80
157040 On ch=2 n=83 v=80
157040 On ch=2 n=76 v=80
157112 Off ch=2 n=88 v=64
157112 Off ch=2 n=83 v=64
157112 Off ch=2 n=76 v=64
157120 On ch=2 n=85 v=80
157120 On ch=2 n=80 v=80
157120 On ch=2 n=73 v=80
157192 Off ch=2 n=85 v=64
157192 Off ch=2 n=80 v=64
157192 Off ch=2 n=73 v=64
157200 On ch=2 n=83 v=80
157200 On ch=2 n=78 v=80
157200 On ch=2 n=71 v=80
157272 Off ch=2 n=83 v=64
157272 Off ch=2 n=78 v=64
157272 Off ch=2 n=71 v=64
157280 On ch=2 n=81 v=80
157280 On ch=2 n=76 v=80
157280 On ch=2 n=69 v=80
157352 Off ch=2 n=81 v=64
157352 Off ch=2 n=76 v=64
157352 Off ch=2 n=69 v=64
157360 On ch=2 n=78 v=80
157360 On ch=2 n=73 v=80
157360 On ch=2 n=66 v=80
157432 Off ch=2 n=78 v=64
157432 Off ch=2 n=73 v=64
157432 Off ch=2 n=66 v=64
157440 On ch=2 n=85 v=80
157440 On ch=2 n=80 v=80
157440 On ch=2 n=73 v=80
157512 Off ch=2 n=85 v=64
157512 Off ch=2 n=80 v=64
157512 Off ch=2 n=73 v=64
157520 On ch=2 n=83 v=80
157520 On ch=2 n=78 v=80
157520 On ch=2 n=71 v=80
157592 Off ch=2 n=83 v=64
157592 Off ch=2 n=78 v=64
157592 Off ch=2 n=71 v=64
157600 On ch=2 n=81 v=80
157600 On ch=2 n=76 v=80
157600 On ch=2 n=69 v=80
157672 Off ch=2 n=81 v=64
157672 Off ch=2 n=76 v=64
157672 Off ch=2 n=69 v=64
157680 On ch=2 n=78 v=80
157680 On ch=2 n=73 v=80
157680 On ch=2 n=66 v=80
157752 Off ch=2 n=78 v=64
157752 Off ch=2 n=73 v=64
157752 Off ch=2 n=66 v=64
157760 On ch=2 n=76 v=80
157760 On ch=2 n=71 v=80
157760 On ch=2 n=64 v=80
157832 Off ch=2 n=76 v=64
157832 Off ch=2 n=71 v=64
157832 Off ch=2 n=64 v=64
157840 On ch=2 n=73 v=80
157840 On ch=2 n=68 v=80
157840 On ch=2 n=61 v=80
157912 Off ch=2 n=73 v=64
157912 Off ch=2 n=68 v=64
157912 Off ch=2 n=61 v=64
157920 On ch=2 n=78 v=80
158136 Off ch=2 n=78 v=64
158160 On ch=2 n=85 v=80
158232 Off ch=2 n=85 v=64
158240 On ch=2 n=88 v=80
158312 Off ch=2 n=88 v=64
158320 On ch=2 n=80 v=80
158392 Off ch=2 n=80 v=64
158400 On ch=2 n=81 v=80
158616 Off ch=2 n=81 v=64
158640 On ch=2 n=73 v=80
158856 Off ch=2 n=73 v=64
158880 On ch=2 n=78 v=80
159096 Off ch=2 n=78 v=64
159120 On ch=2 n=73 v=80
159192 Off ch=2 n=73 v=64
159200 On ch=2 n=76 v=80
159272 Off ch=2 n=76 v=64
159280 On ch=2 n=73 v=80
159352 Off ch=2 n=73 v=64
159360 On ch=2 n=76 v=80
159576 Off ch=2 n=76 v=64
159600 On ch=2 n=73 v=80
159816 Off ch=2 n=73 v=64
159840 On ch=2 n=71 v=80
160056 Off ch=2 n=71 v=64
160080 On ch=2 n=69 v=80
160296 Off ch=2 n=69 v=64
160320 On ch=2 n=73 v=80
160536 Off ch=2 n=73 v=64
160560 On ch=2 n=76 v=80
160776 Off ch=2 n=76 v=64
160800 On ch=2 n=69 v=80
160908 Off ch=2 n=69 v=64
160920 On ch=2 n=78 v=80
161028 Off ch=2 n=78 v=64
161040 On ch=2 n=76 v=80
161148 Off ch=2 n=76 v=64
161160 On ch=2 n=73 v=80
161268 Off ch=2 n=73 v=64
161280 On ch=2 n=76 v=80
161496 Off ch=2 n=76 v=64
161520 On ch=2 n=71 v=80
161574 Off ch=2 n=71 v=64
161580 On ch=2 n=73 v=80
161634 Off ch=2 n=73 v=64
161640 On ch=2 n=71 v=80
161694 Off ch=2 n=71 v=64
161700 On ch=2 n=73 v=80
161754 Off ch=2 n=73 v=64
161760 On ch=2 n=71 v=80
161814 Off ch=2 n=71 v=64
161820 On ch=2 n=73 v=80
161874 Off ch=2 n=73 v=64
161880 On ch=2 n=71 v=80
161934 Off ch=2 n=71 v=64
161940 On ch=2 n=73 v=80
161994 Off ch=2 n=73 v=64
162000 On ch=2 n=71 v=80
162054 Off ch=2 n=71 v=64
162060 On ch=2 n=73 v=80
162114 Off ch=2 n=73 v=64
162120 On ch=2 n=71 v=80
162174 Off ch=2 n=71 v=64
162180 On ch=2 n=73 v=80
162234 Off ch=2 n=73 v=64
162240 On ch=2 n=71 v=80
162348 Off ch=2 n=71 v=64
162360 On ch=2 n=69 v=80
162468 Off ch=2 n=69 v=64
162480 On ch=2 n=68 v=80
162588 Off ch=2 n=68 v=64
162600 On ch=2 n=66 v=80
162708 Off ch=2 n=66 v=64
162720 On ch=2 n=64 v=80
162828 Off ch=2 n=64 v=64
162840 On ch=2 n=61 v=80
162948 Off ch=2 n=61 v=64
162960 On ch=2 n=59 v=80
163068 Off ch=2 n=59 v=64
163080 On ch=2 n=56 v=80
163188 Off ch=2 n=56 v=64
163200 On ch=2 n=57 v=80
163308 Off ch=2 n=57 v=64
163320 On ch=2 n=61 v=80
163428 Off ch=2 n=61 v=64
163440 On ch=2 n=64 v=80
163548 Off ch=2 n=64 v=64
163560 On ch=2 n=66 v=80
163668 Off ch=2 n=66 v=64
163680 On ch=2 n=64 v=80
163788 Off ch=2 n=64 v=64
163800 On ch=2 n=66 v=80
163908 Off ch=2 n=66 v=64
163920 On ch=2 n=69 v=80
164028 Off ch=2 n=69 v=64
164040 On ch=2 n=71 v=80
164148 Off ch=2 n=71 v=64
164160 On ch=2 n=69 v=80
164268 Off ch=2 n=69 v=64
164280 On ch=2 n=71 v=80
164388 Off ch=2 n=71 v=64
164400 On ch=2 n=73 v=80
164508 Off ch=2 n=73 v=64
164520 On ch=2 n=76 v=80
164628 Off ch=2 n=76 v=64
164640 On ch=2 n=78 v=80
164748 Off ch=2 n=78 v=64
164760 On ch=2 n=80 v=80
164868 Off ch=2 n=80 v=64
164880 On ch=2 n=81 v=80
164988 Off ch=2 n=81 v=64
165000 On ch=2 n=83 v=80
166512 Off ch=2 n=83 v=64
166560 On ch=2 n=85 v=80
166776 Off ch=2 n=85 v=64
166800 On ch=2 n=88 v=80
167016 Off ch=2 n=88 v=64
167040 On ch=2 n=81 v=80
167256 Off ch=2 n=81 v=64
167280 On ch=2 n=83 v=80
167712 Off ch=2 n=83 v=64
167760 On ch=2 n=85 v=80
167976 Off ch=2 n=85 v=64
168000 On ch=2 n=80 v=80
168432 Off ch=2 n=80 v=64
168480 On ch=2 n=76 v=80
168696 Off ch=2 n=76 v=64
168720 On ch=2 n=73 v=80
168936 Off ch=2 n=73 v=64
168960 On ch=2 n=88 v=80
169134 Off ch=2 n=88 v=64
169140 On ch=2 n=85 v=80
169194 Off ch=2 n=85 v=64
169200 On ch=2 n=88 v=80
169632 Off ch=2 n=88 v=64
169680 On ch=2 n=86 v=80
169788 Off ch=2 n=86 v=64
169800 On ch=2 n=85 v=80
169908 Off ch=2 n=85 v=64
169920 On ch=2 n=83 v=80
170028 Off ch=2 n=83 v=64
170040 On ch=2 n=81 v=80
170148 Off ch=2 n=81 v=64
170160 On ch=2 n=80 v=80
170268 Off ch=2 n=80 v=64
170280 On ch=2 n=78 v=80
170388 Off ch=2 n=78 v=64
170400 On ch=2 n=76 v=80
170508 Off ch=2 n=76 v=64
170520 On ch=2 n=74 v=80
170628 Off ch=2 n=74 v=64
170640 On ch=2 n=73 v=80
170748 Off ch=2 n=73 v=64
170760 On ch=2 n=71 v=80
170847 Off ch=2 n=71 v=64
170850 On ch=2 n=76 v=80
170877 Off ch=2 n=76 v=64
170880 On ch=2 n=78 v=80
171087 Off ch=2 n=78 v=64
171090 On ch=2 n=76 v=80
171117 Off ch=2 n=76 v=64
171120 On ch=2 n=78 v=80
171327 Off ch=2 n=78 v=64
171330 On ch=2 n=76 v=80
171357 Off ch=2 n=76 v=64
171360 On ch=2 n=78 v=80
171567 Off ch=2 n=78 v=64
171570 On ch=2 n=76 v=80
171597 Off ch=2 n=76 v=64
171600 On ch=2 n=78 v=80
171807 Off ch=2 n=78 v=64
171810 On ch=2 n=88 v=80
171810 On ch=2 n=85 v=80
171837 Off ch=2 n=88 v=64
171837 Off ch=2 n=85 v=64
171840 On ch=2 n=93 v=80
171840 On ch=2 n=90 v=80
172704 Off ch=2 n=93 v=64
172704 Off ch=2 n=90 v=64
178560 On ch=2 n=92 v=80
178992 Off ch=2 n=92 v=64
179040 On ch=2 n=90 v=80
179256 Off ch=2 n=90 v=64
179280 On ch=2 n=88 v=80
179496 Off ch=2 n=88 v=64
179520 On ch=2 n=90 v=80
179574 Off ch=2 n=90 v=64
179580 On ch=2 n=88 v=80
179634 Off ch=2 n=88 v=64
179640 On ch=2 n=90 v=80
179694 Off ch=2 n=90 v=64
179700 On ch=2 n=88 v=80
179754 Off ch=2 n=88 v=64
179760 On ch=2 n=90 v=80
180480 Off ch=2 n=90 v=64
180480 On ch=2 n=90 v=80
180588 Off ch=2 n=90 v=64
180600 On ch=2 n=85 v=80
180708 Off ch=2 n=85 v=64
180720 On ch=2 n=92 v=80
180828 Off ch=2 n=92 v=64
180840 On ch=2 n=85 v=80
180948 Off ch=2 n=85 v=64
180960 On ch=2 n=93 v=80
181068 Off ch=2 n=93 v=64
181080 On ch=2 n=85 v=80
181188 Off ch=2 n=85 v=64
181200 On ch=2 n=92 v=80
181308 Off ch=2 n=92 v=64
181320 On ch=2 n=85 v=80
181428 Off ch=2 n=85 v=64
181440 On ch=2 n=93 v=80
181548 Off ch=2 n=93 v=64
181560 On ch=2 n=85 v=80
181668 Off ch=2 n=85 v=64
181680 On ch=2 n=92 v=80
181788 Off ch=2 n=92 v=64
181800 On ch=2 n=85 v=80
181908 Off ch=2 n=85 v=64
181920 On ch=2 n=93 v=80
182028 Off ch=2 n=93 v=64
182040 On ch=2 n=85 v=80
182148 Off ch=2 n=85 v=64
182160 On ch=2 n=95 v=80
182268 Off ch=2 n=95 v=64
182280 On ch=2 n=85 v=80
182388 Off ch=2 n=85 v=64
184320 Par ch=2 c=64 v=0
184560 On ch=2 n=71 v=80
184560 On ch=2 n=68 v=80
184776 Off ch=2 n=71 v=64
184776 Off ch=2 n=68 v=64
184800 On ch=2 n=71 v=80
184800 On ch=2 n=68 v=80
185016 Off ch=2 n=71 v=64
185016 Off ch=2 n=68 v=64
185040 On ch=2 n=70 v=80
185040 On ch=2 n=66 v=80
185256 Off ch=2 n=70 v=64
185256 Off ch=2 n=66 v=64
185280 On ch=2 n=68 v=80
185280 On ch=2 n=71 v=80
185496 Off ch=2 n=68 v=64
185496 Off ch=2 n=71 v=64
185520 On ch=2 n=64 v=80
185520 On ch=2 n=69 v=80
185640 On ch=2 n=61 v=80
185640 On ch=2 n=66 v=80
185736 Off ch=2 n=64 v=64
185736 Off ch=2 n=69 v=64
185976 Off ch=2 n=61 v=64
185976 Off ch=2 n=66 v=64
186000 On ch=2 n=59 v=80
186000 On ch=2 n=64 v=80
186108 Off ch=2 n=59 v=64
186108 Off ch=2 n=64 v=64
186120 On ch=2 n=59 v=80
186120 On ch=2 n=64 v=80
186228 Off ch=2 n=59 v=64
186228 Off ch=2 n=64 v=64
188160 Par ch=2 c=64 v=64
188160 On ch=2 n=90 v=80
188160 On ch=2 n=86 v=80
188160 On ch=2 n=78 v=80
188160 On ch=2 n=74 v=80
188592 Off ch=2 n=90 v=64
188592 Off ch=2 n=86 v=64
188592 Off ch=2 n=78 v=64
188592 Off ch=2 n=74 v=64
188640 On ch=2 n=90 v=80
188640 On ch=2 n=86 v=80
188640 On ch=2 n=78 v=80
188640 On ch=2 n=74 v=80
188856 Off ch=2 n=90 v=64
188880 On ch=2 n=90 v=80
188880 On ch=2 n=86 v=80
188880 On ch=2 n=78 v=80
188880 On ch=2 n=74 v=80
189072 Off ch=2 n=86 v=64
189072 Off ch=2 n=78 v=64
189072 Off ch=2 n=74 v=64
189552 Off ch=2 n=90 v=64
189552 Off ch=2 n=86 v=64
189552 Off ch=2 n=78 v=64
189552 Off ch=2 n=74 v=64
189600 On ch=2 n=97 v=80
189600 On ch=2 n=93 v=80
189600 On ch=2 n=85 v=80
189600 On ch=2 n=81 v=80
190032 Off ch=2 n=97 v=64
190032 Off ch=2 n=93 v=64
190032 Off ch=2 n=85 v=64
190032 Off ch=2 n=81 v=64
190080 On ch=2 n=97 v=80
190080 On ch=2 n=93 v=80
190080 On ch=2 n=85 v=80
190080 On ch=2 n=81 v=80
191472 Off ch=2 n=97 v=64
191520 On ch=2 n=93 v=80
191520 On ch=2 n=81 v=80
191736 Off ch=2 n=93 v=64
191736 Off ch=2 n=81 v=64
191760 On ch=2 n=93 v=80
191760 On ch=2 n=81 v=80
191904 Off ch=2 n=93 v=64
191904 Off ch=2 n=85 v=64
191904 Off ch=2 n=81 v=64
191976 Off ch=2 n=93 v=64
191976 Off ch=2 n=81 v=64
192000 On ch=2 n=95 v=80
192000 On ch=2 n=92 v=80
192000 On ch=2 n=83 v=80
192000 On ch=2 n=80 v=80
192432 Off ch=2 n=95 v=64
192432 Off ch=2 n=92 v=64
192432 Off ch=2 n=83 v=64
192432 Off ch=2 n=80 v=64
192480 On ch=2 n=93 v=80
192480 On ch=2 n=90 v=80
192480 On ch=2 n=81 v=80
192480 On ch=2 n=78 v=80
192696 Off ch=2 n=93 v=64
192696 Off ch=2 n=90 v=64
192696 Off ch=2 n=81 v=64
192696 Off ch=2 n=78 v=64
192720 On ch=2 n=95 v=80
192720 On ch=2 n=92 v=80
192720 On ch=2 n=83 v=80
192720 On ch=2 n=80 v=80
193392 Off ch=2 n=95 v=64
193392 Off ch=2 n=92 v=64
193392 Off ch=2 n=83 v=64
193392 Off ch=2 n=80 v=64
193440 On ch=2 n=97 v=80
193440 On ch=2 n=93 v=80
193440 On ch=2 n=85 v=80
193440 On ch=2 n=81 v=80
193872 Off ch=2 n=97 v=64
193872 Off ch=2 n=93 v=64
193872 Off ch=2 n=85 v=64
193872 Off ch=2 n=81 v=64
193920 On ch=2 n=90 v=80
193920 On ch=2 n=85 v=80
193920 On ch=2 n=78 v=80
195360 Off ch=2 n=90 v=64
195360 Off ch=2 n=85 v=64
195360 Off ch=2 n=78 v=64
195360 On ch=2 n=88 v=80
195360 On ch=2 n=76 v=80
195576 Off ch=2 n=88 v=64
195576 Off ch=2 n=76 v=64
195600 On ch=2 n=88 v=80
195600 On ch=2 n=76 v=80
195816 Off ch=2 n=88 v=64
195816 Off ch=2 n=76 v=64
195840 Par ch=2 c=64 v=0
195840 On ch=2 n=90 v=80
195840 On ch=2 n=86 v=80
195840 On ch=2 n=78 v=80
196704 Off ch=2 n=90 v=64
196704 Off ch=2 n=86 v=64
196704 Off ch=2 n=78 v=64
196800 On ch=2 n=97 v=80
196800 On ch=2 n=93 v=80
196800 On ch=2 n=85 v=80
197496 Off ch=2 n=97 v=64
197496 Off ch=2 n=93 v=64
197496 Off ch=2 n=85 v=64
197520 On ch=2 n=97 v=80
197520 On ch=2 n=93 v=80
197520 On ch=2 n=85 v=80
197736 Off ch=2 n=97 v=64
197736 Off ch=2 n=93 v=64
197736 Off ch=2 n=85 v=64
197760 On ch=2 n=95 v=80
197760 On ch=2 n=92 v=80
198192 Off ch=2 n=95 v=64
198192 Off ch=2 n=92 v=64
198240 On ch=2 n=93 v=80
198240 On ch=2 n=88 v=80
198672 Off ch=2 n=93 v=64
198672 Off ch=2 n=88 v=64
198720 On ch=2 n=90 v=80
198720 On ch=2 n=85 v=80
199152 Off ch=2 n=90 v=64
199152 Off ch=2 n=85 v=64
199200 On ch=2 n=88 v=80
199200 On ch=2 n=83 v=80
199632 Off ch=2 n=88 v=64
199632 Off ch=2 n=83 v=64
199680 On ch=2 n=90 v=80
199680 On ch=2 n=85 v=80
199680 On ch=2 n=78 v=80
199680 On ch=2 n=73 v=80
200376 Off ch=2 n=90 v=64
200376 Off ch=2 n=85 v=64
200376 Off ch=2 n=78 v=64
200376 Off ch=2 n=73 v=64
200400 On ch=2 n=90 v=80
200400 On ch=2 n=85 v=80
200400 On ch=2 n=78 v=80
200400 On ch=2 n=73 v=80
201072 Off ch=2 n=90 v=64
201072 Off ch=2 n=85 v=64
201072 Off ch=2 n=78 v=64
201072 Off ch=2 n=73 v=64
201120 On ch=2 n=93 v=80
201120 On ch=2 n=90 v=80
201120 On ch=2 n=81 v=80
201120 On ch=2 n=78 v=80
201552 Off ch=2 n=93 v=64
201552 Off ch=2 n=90 v=64
201552 Off ch=2 n=81 v=64
201552 Off ch=2 n=78 v=64
201600 On ch=2 n=95 v=80
201600 On ch=2 n=92 v=80
203328 Off ch=2 n=95 v=64
203328 Off ch=2 n=92 v=64
205920 On ch=2 n=97 v=80
205920 On ch=2 n=93 v=80
206784 Off ch=2 n=97 v=64
206784 Off ch=2 n=93 v=64
206880 On ch=2 n=93 v=80
206880 On ch=2 n=90 v=80
207312 Off ch=2 n=93 v=64
207312 Off ch=2 n=90 v=64
207360 On ch=2 n=83 v=80
207360 On ch=2 n=80 v=80
207792 Off ch=2 n=83 v=64
207792 Off ch=2 n=80 v=64
207840 On ch=2 n=81 v=80
207840 On ch=2 n=78 v=80
208056 Off ch=2 n=81 v=64
208056 Off ch=2 n=78 v=64
208080 On ch=2 n=83 v=80
208080 On ch=2 n=80 v=80
208752 Off ch=2 n=83 v=64
208752 Off ch=2 n=80 v=64
208800 On ch=2 n=85 v=80
208800 On ch=2 n=81 v=80
209232 Off ch=2 n=85 v=64
209232 Off ch=2 n=81 v=64
209280 On ch=2 n=85 v=80
209280 On ch=2 n=81 v=80
210720 Off ch=2 n=85 v=64
210720 Off ch=2 n=81 v=64
211200 Par ch=2 c=64 v=64
211680 On ch=2 n=93 v=80
211680 On ch=2 n=90 v=80
212544 Off ch=2 n=93 v=64
212544 Off ch=2 n=90 v=64
213120 On ch=2 n=90 v=80
213120 On ch=2 n=85 v=80
213552 Off ch=2 n=90 v=64
213552 Off ch=2 n=85 v=64
213600 On ch=2 n=97 v=80
213600 On ch=2 n=93 v=80
214464 Off ch=2 n=97 v=64
214464 Off ch=2 n=93 v=64
214560 On ch=2 n=97 v=80
214560 On ch=2 n=93 v=80
214776 Off ch=2 n=97 v=64
214776 Off ch=2 n=93 v=64
214800 On ch=2 n=95 v=80
214800 On ch=2 n=92 v=80
215016 Off ch=2 n=95 v=64
215016 Off ch=2 n=92 v=64
215040 Par ch=2 c=64 v=0
215040 On ch=2 n=93 v=80
215040 On ch=2 n=90 v=80
215472 Off ch=2 n=93 v=64
215472 Off ch=2 n=90 v=64
215520 On ch=2 n=92 v=80
215520 On ch=2 n=88 v=80
215952 Off ch=2 n=92 v=64
215952 Off ch=2 n=88 v=64
216000 On ch=2 n=90 v=80
216000 On ch=2 n=85 v=80
216432 Off ch=2 n=90 v=64
216432 Off ch=2 n=85 v=64
216480 On ch=2 n=88 v=80
216480 On ch=2 n=83 v=80
216912 Off ch=2 n=88 v=64
216912 Off ch=2 n=83 v=64
216960 On ch=2 n=90 v=80
216960 On ch=2 n=85 v=80
218400 Off ch=2 n=90 v=64
218400 Off ch=2 n=85 v=64
218400 On ch=2 n=88 v=80
218400 On ch=2 n=83 v=80
218400 On ch=2 n=76 v=80
218616 Off ch=2 n=88 v=64
218616 Off ch=2 n=83 v=64
218616 Off ch=2 n=76 v=64
218640 On ch=2 n=88 v=80
218640 On ch=2 n=83 v=80
218640 On ch=2 n=76 v=80
218856 Off ch=2 n=88 v=64
218856 Off ch=2 n=83 v=64
218856 Off ch=2 n=76 v=64
219360 On ch=2 n=93 v=80
219360 On ch=2 n=90 v=80
220224 Off ch=2 n=93 v=64
220224 Off ch=2 n=90 v=64
220800 On ch=2 n=90 v=80
220800 On ch=2 n=85 v=80
221232 Off ch=2 n=90 v=64
221232 Off ch=2 n=85 v=64
221280 On ch=2 n=100 v=80
221280 On ch=2 n=97 v=80
221280 On ch=2 n=93 v=80
222144 Off ch=2 n=100 v=64
222144 Off ch=2 n=97 v=64
222144 Off ch=2 n=93 v=64
222240 On ch=2 n=100 v=80
222240 On ch=2 n=97 v=80
222240 On ch=2 n=93 v=80
222240 On ch=2 n=88 v=80
222240 On ch=2 n=85 v=80
222456 Off ch=2 n=100 v=64
222456 Off ch=2 n=97 v=64
222456 Off ch=2 n=93 v=64
222456 Off ch=2 n=88 v=64
222456 Off ch=2 n=85 v=64
222480 On ch=2 n=97 v=80
222480 On ch=2 n=93 v=80
222480 On ch=2 n=90 v=80
222480 On ch=2 n=85 v=80
222480 On ch=2 n=81 v=80
222696 Off ch=2 n=97 v=64
222696 Off ch=2 n=93 v=64
222696 Off ch=2 n=90 v=64
222696 Off ch=2 n=85 v=64
222696 Off ch=2 n=81 v=64
222720 On ch=2 n=95 v=80
222720 On ch=2 n=92 v=80
222720 On ch=2 n=83 v=80
222720 On ch=2 n=80 v=80
223152 Off ch=2 n=95 v=64
223152 Off ch=2 n=92 v=64
223152 Off ch=2 n=83 v=64
223152 Off ch=2 n=80 v=64
223200 On ch=2 n=95 v=80
223200 On ch=2 n=92 v=80
223200 On ch=2 n=83 v=80
223200 On ch=2 n=80 v=80
223632 Off ch=2 n=95 v=64
223632 Off ch=2 n=92 v=64
223632 Off ch=2 n=83 v=64
223632 Off ch=2 n=80 v=64
223680 On ch=2 n=97 v=80
223680 On ch=2 n=93 v=80
223680 On ch=2 n=85 v=80
223680 On ch=2 n=81 v=80
224112 Off ch=2 n=97 v=64
224112 Off ch=2 n=93 v=64
224112 Off ch=2 n=85 v=64
224112 Off ch=2 n=81 v=64
224160 On ch=2 n=100 v=80
224160 On ch=2 n=95 v=80
224160 On ch=2 n=88 v=80
224160 On ch=2 n=83 v=80
224592 Off ch=2 n=100 v=64
224592 Off ch=2 n=95 v=64
224592 Off ch=2 n=88 v=64
224592 Off ch=2 n=83 v=64
224640 On ch=2 n=102 v=80
224640 On ch=2 n=97 v=80
224640 On ch=2 n=90 v=80
224640 On ch=2 n=85 v=80
225072 Off ch=2 n=102 v=64
225504 Off ch=2 n=90 v=64
225600 On ch=2 n=102 v=80
225643 Off ch=2 n=102 v=64
225643 On ch=2 n=100 v=80
225686 Off ch=2 n=100 v=64
225687 On ch=2 n=98 v=80
225730 Off ch=2 n=98 v=64
225730 On ch=2 n=97 v=80
225773 Off ch=2 n=97 v=64
225774 On ch=2 n=95 v=80
225817 Off ch=2 n=95 v=64
225818 On ch=2 n=93 v=80
225861 Off ch=2 n=93 v=64
225861 On ch=2 n=92 v=80
225904 Off ch=2 n=92 v=64
225905 On ch=2 n=90 v=80
225936 Off ch=2 n=97 v=64
225948 Off ch=2 n=90 v=64
225949 On ch=2 n=88 v=80
225992 Off ch=2 n=88 v=64
225992 On ch=2 n=86 v=80
226035 Off ch=2 n=86 v=64
226036 On ch=2 n=85 v=80
226079 Off ch=2 n=85 v=64
226080 Off ch=2 n=85 v=64
226080 On ch=2 n=83 v=80
226123 Off ch=2 n=83 v=64
226123 On ch=2 n=81 v=80
226166 Off ch=2 n=81 v=64
226167 On ch=2 n=80 v=80
226210 Off ch=2 n=80 v=64
226210 On ch=2 n=78 v=80
226253 Off ch=2 n=78 v=64
226254 On ch=2 n=76 v=80
226297 Off ch=2 n=76 v=64
226298 On ch=2 n=74 v=80
226341 Off ch=2 n=74 v=64
226341 On ch=2 n=73 v=80
226384 Off ch=2 n=73 v=64
226385 On ch=2 n=71 v=80
226428 Off ch=2 n=71 v=64
226429 On ch=2 n=69 v=80
226472 Off ch=2 n=69 v=64
226472 On ch=2 n=68 v=80
226515 Off ch=2 n=68 v=64
226516 On ch=2 n=66 v=80
226559 Off ch=2 n=66 v=64
236160 On ch=2 n=78 v=80
236160 On ch=2 n=66 v=80
237888 Off ch=2 n=78 v=64
237888 Off ch=2 n=66 v=64
238080 On ch=2 n=78 v=80
238080 On ch=2 n=73 v=80
238080 On ch=2 n=66 v=80
239808 Off ch=2 n=78 v=64
239808 Off ch=2 n=73 v=64
239808 Off ch=2 n=66 v=64
240000 On ch=2 n=78 v=80
240000 On ch=2 n=73 v=80
240000 On ch=2 n=66 v=80
241728 Off ch=2 n=78 v=64
241728 Off ch=2 n=73 v=64
241728 Off ch=2 n=66 v=64
241920 On ch=2 n=90 v=80
241920 On ch=2 n=85 v=80
241920 On ch=2 n=78 v=80
245568 Off ch=2 n=90 v=64
245568 Off ch=2 n=85 v=64
245568 Off ch=2 n=78 v=64
245760 On ch=2 n=88 v=80
245760 On ch=2 n=83 v=80
245760 On ch=2 n=76 v=80
249408 Off ch=2 n=88 v=64
249408 Off ch=2 n=83 v=64
249408 Off ch=2 n=76 v=64
249600 KeySig 0 major
249600 On ch=2 n=53 v=3
249600 On ch=2 n=55 v=3
249600 On ch=2 n=57 v=3
249600 On ch=2 n=65 v=3
249600 On ch=2 n=89 v=3
249600 On ch=2 n=84 v=3
249600 On ch=2 n=96 v=3
249654 Off ch=2 n=53 v=64
249654 Off ch=2 n=55 v=64
249654 Off ch=2 n=57 v=64
249654 Off ch=2 n=65 v=64
249654 Off ch=2 n=89 v=64
249654 Off ch=2 n=84 v=64
249654 Off ch=2 n=96 v=64
249660 On ch=2 n=52 v=3
249660 On ch=2 n=59 v=3
249660 On ch=2 n=65 v=3
249660 On ch=2 n=88 v=3
249660 On ch=2 n=86 v=3
249660 On ch=2 n=83 v=3
249660 On ch=2 n=96 v=3
249660 On ch=2 n=101 v=3
249714 Off ch=2 n=52 v=64
249714 Off ch=2 n=59 v=64
249714 Off ch=2 n=65 v=64
249714 Off ch=2 n=88 v=64
249714 Off ch=2 n=86 v=64
249714 Off ch=2 n=83 v=64
249714 Off ch=2 n=96 v=64
249714 Off ch=2 n=101 v=64
249720 On ch=2 n=52 v=3
249720 On ch=2 n=65 v=3
249720 On ch=2 n=88 v=3
249720 On ch=2 n=81 v=3
249720 On ch=2 n=96 v=3
249720 On ch=2 n=100 v=3
249774 Off ch=2 n=52 v=64
249774 Off ch=2 n=65 v=64
249774 Off ch=2 n=88 v=64
249774 Off ch=2 n=81 v=64
249774 Off ch=2 n=96 v=64
249774 Off ch=2 n=100 v=64
249780 On ch=2 n=52 v=3
249780 On ch=2 n=53 v=3
249780 On ch=2 n=55 v=3
249780 On ch=2 n=57 v=3
249780 On ch=2 n=59 v=3
249780 On ch=2 n=65 v=3
249780 On ch=2 n=88 v=3
249780 On ch=2 n=81 v=3
249780 On ch=2 n=96 v=3
249780 On ch=2 n=98 v=3
249834 Off ch=2 n=52 v=64
249834 Off ch=2 n=53 v=64
249834 Off ch=2 n=55 v=64
249834 Off ch=2 n=57 v=64
249834 Off ch=2 n=59 v=64
249834 Off ch=2 n=65 v=64
249834 Off ch=2 n=88 v=64
249834 Off ch=2 n=81 v=64
249834 Off ch=2 n=96 v=64
249834 Off ch=2 n=98 v=64
249840 On ch=2 n=52 v=3
249840 On ch=2 n=59 v=3
249840 On ch=2 n=65 v=3
249840 On ch=2 n=88 v=3
249840 On ch=2 n=81 v=3
249840 On ch=2 n=96 v=3
249840 On ch=2 n=98 v=3
249894 Off ch=2 n=52 v=64
249894 Off ch=2 n=59 v=64
249894 Off ch=2 n=65 v=64
249894 Off ch=2 n=88 v=64
249894 Off ch=2 n=81 v=64
249894 Off ch=2 n=96 v=64
249894 Off ch=2 n=98 v=64
249900 On ch=2 n=52 v=3
249900 On ch=2 n=59 v=3
249900 On ch=2 n=65 v=3
249900 On ch=2 n=67 v=3
249900 On ch=2 n=88 v=3
249900 On ch=2 n=81 v=3
249900 On ch=2 n=96 v=3
249900 On ch=2 n=100 v=3
249954 Off ch=2 n=52 v=64
249954 Off ch=2 n=59 v=64
249954 Off ch=2 n=65 v=64
249954 Off ch=2 n=67 v=64
249954 Off ch=2 n=88 v=64
249954 Off ch=2 n=81 v=64
249954 Off ch=2 n=96 v=64
249954 Off ch=2 n=100 v=64
249960 On ch=2 n=53 v=3
249960 On ch=2 n=57 v=3
249960 On ch=2 n=65 v=3
249960 On ch=2 n=69 v=3
249960 On ch=2 n=76 v=3
249960 On ch=2 n=86 v=3
249960 On ch=2 n=83 v=3
249960 On ch=2 n=96 v=3
249960 On ch=2 n=101 v=3
250014 Off ch=2 n=53 v=64
250014 Off ch=2 n=57 v=64
250014 Off ch=2 n=65 v=64
250014 Off ch=2 n=69 v=64
250014 Off ch=2 n=76 v=64
250014 Off ch=2 n=86 v=64
250014 Off ch=2 n=83 v=64
250014 Off ch=2 n=96 v=64
250014 Off ch=2 n=101 v=64
250020 On ch=2 n=55 v=3
250020 On ch=2 n=65 v=3
250020 On ch=2 n=71 v=3
250020 On ch=2 n=72 v=3
250020 On ch=2 n=74 v=3
250020 On ch=2 n=84 v=3
250020 On ch=2 n=96 v=3
250074 Off ch=2 n=55 v=64
250074 Off ch=2 n=65 v=64
250074 Off ch=2 n=71 v=64
250074 Off ch=2 n=72 v=64
250074 Off ch=2 n=74 v=64
250074 Off ch=2 n=84 v=64
250074 Off ch=2 n=96 v=64
251520 Meta TrkEnd
TrkEnd
MTrk
0 Meta TrkName "Sound 2"
0 Meta InstrName "Microsoft GS Wavetable Synth"
0 KeySig 3 major
0 PrCh ch=2 p=0
0 Par ch=2 c=10 v=64
0 Par ch=2 c=7 v=127
17280 On ch=2 n=42 v=80
19008 Off ch=2 n=42 v=64
23040 Par ch=2 c=64 v=0
23040 On ch=2 n=38 v=80
24768 Off ch=2 n=38 v=64
24960 Par ch=2 c=64 v=0
24960 On ch=2 n=42 v=80
26688 Off ch=2 n=42 v=64
30720 On ch=2 n=42 v=80
32448 Off ch=2 n=42 v=64
71520 On ch=2 n=45 v=80
71736 Off ch=2 n=45 v=64
71760 On ch=2 n=38 v=80
71976 Off ch=2 n=38 v=64
75360 On ch=2 n=45 v=80
75576 Off ch=2 n=45 v=64
75600 On ch=2 n=38 v=80
75816 Off ch=2 n=38 v=64
78720 Par ch=2 c=64 v=0
78720 On ch=2 n=42 v=80
80448 Off ch=2 n=42 v=64
84480 Par ch=2 c=64 v=0
84480 On ch=2 n=38 v=80
86208 Off ch=2 n=38 v=64
86400 On ch=2 n=42 v=80
88128 Off ch=2 n=42 v=64
92160 On ch=2 n=42 v=80
93888 Off ch=2 n=42 v=64
136800 On ch=2 n=45 v=80
137016 Off ch=2 n=45 v=64
137040 On ch=2 n=38 v=80
137256 Off ch=2 n=38 v=64
140160 On ch=2 n=38 v=110
141888 Off ch=2 n=38 v=64
159360 On ch=2 n=52 v=80
159468 Off ch=2 n=52 v=64
159480 On ch=2 n=64 v=80
159696 Off ch=2 n=64 v=64
159720 On ch=2 n=52 v=80
159828 Off ch=2 n=52 v=64
159840 On ch=2 n=64 v=80
160056 Off ch=2 n=64 v=64
160080 On ch=2 n=52 v=80
160188 Off ch=2 n=52 v=64
160200 On ch=2 n=64 v=80
160308 Off ch=2 n=64 v=64
160320 On ch=2 n=64 v=80
160908 Off ch=2 n=64 v=64
160920 On ch=2 n=52 v=80
161028 Off ch=2 n=52 v=64
161040 On ch=2 n=64 v=80
161256 Off ch=2 n=64 v=64
161280 On ch=2 n=54 v=80
161388 Off ch=2 n=54 v=64
161400 On ch=2 n=66 v=80
161616 Off ch=2 n=66 v=64
161640 On ch=2 n=54 v=80
161748 Off ch=2 n=54 v=64
161760 On ch=2 n=66 v=80
161976 Off ch=2 n=66 v=64
162000 On ch=2 n=54 v=80
162108 Off ch=2 n=54 v=64
162120 On ch=2 n=66 v=80
162228 Off ch=2 n=66 v=64
162240 On ch=2 n=66 v=80
162828 Off ch=2 n=66 v=64
162840 On ch=2 n=54 v=80
162948 Off ch=2 n=54 v=64
162960 On ch=2 n=66 v=80
163176 Off ch=2 n=66 v=64
184320 Par ch=2 c=64 v=0
186240 On ch=2 n=28 v=80
186240 On ch=2 n=40 v=80
186267 Off ch=2 n=28 v=64
186267 Off ch=2 n=40 v=64
186270 On ch=2 n=35 v=80
186297 Off ch=2 n=35 v=64
186300 On ch=2 n=32 v=80
186300 On ch=2 n=44 v=80
186327 Off ch=2 n=32 v=64
186327 Off ch=2 n=44 v=64
186330 On ch=2 n=40 v=80
186357 Off ch=2 n=40 v=64
186360 On ch=2 n=35 v=80
186360 On ch=2 n=47 v=80
186387 Off ch=2 n=35 v=64
186387 Off ch=2 n=47 v=64
186390 On ch=2 n=44 v=80
186417 Off ch=2 n=44 v=64
186420 On ch=2 n=40 v=80
186420 On ch=2 n=52 v=80
186447 Off ch=2 n=40 v=64
186447 Off ch=2 n=52 v=64
186450 On ch=2 n=47 v=80
186477 Off ch=2 n=47 v=64
186480 On ch=2 n=44 v=80
186480 On ch=2 n=56 v=80
186507 Off ch=2 n=44 v=64
186507 Off ch=2 n=56 v=64
186510 On ch=2 n=52 v=80
186537 Off ch=2 n=52 v=64
186540 On ch=2 n=47 v=80
186540 On ch=2 n=59 v=80
186567 Off ch=2 n=47 v=64
186567 Off ch=2 n=59 v=64
186570 On ch=2 n=56 v=80
186597 Off ch=2 n=56 v=64
186600 On ch=2 n=64 v=80
186600 On ch=2 n=52 v=80
186627 Off ch=2 n=64 v=64
186627 Off ch=2 n=52 v=64
186630 On ch=2 n=59 v=80
186657 Off ch=2 n=59 v=64
186660 On ch=2 n=68 v=80
186660 On ch=2 n=56 v=80
186687 Off ch=2 n=68 v=64
186687 Off ch=2 n=56 v=64
186690 On ch=2 n=64 v=80
186717 Off ch=2 n=64 v=64
186720 On ch=2 n=71 v=80
186720 On ch=2 n=59 v=80
186747 Off ch=2 n=71 v=64
186747 Off ch=2 n=59 v=64
186750 On ch=2 n=68 v=80
186777 Off ch=2 n=68 v=64
186780 On ch=2 n=76 v=80
186780 On ch=2 n=64 v=80
186807 Off ch=2 n=76 v=64
186807 Off ch=2 n=64 v=64
186810 On ch=2 n=71 v=80
186837 Off ch=2 n=71 v=64
186840 On ch=2 n=80 v=80
186840 On ch=2 n=68 v=80
186867 Off ch=2 n=80 v=64
186867 Off ch=2 n=68 v=64
186870 On ch=2 n=76 v=80
186897 Off ch=2 n=76 v=64
186900 On ch=2 n=83 v=80
186900 On ch=2 n=71 v=80
186927 Off ch=2 n=83 v=64
186927 Off ch=2 n=71 v=64
186930 On ch=2 n=80 v=80
186957 Off ch=2 n=80 v=64
186960 On ch=2 n=88 v=80
186960 On ch=2 n=76 v=80
186987 Off ch=2 n=88 v=64
186987 Off ch=2 n=76 v=64
186990 On ch=2 n=83 v=80
187017 Off ch=2 n=83 v=64
187020 On ch=2 n=92 v=80
187020 On ch=2 n=80 v=80
187047 Off ch=2 n=92 v=64
187047 Off ch=2 n=80 v=64
187050 On ch=2 n=88 v=80
187077 Off ch=2 n=88 v=64
187080 On ch=2 n=95 v=80
187080 On ch=2 n=83 v=80
187107 Off ch=2 n=95 v=64
187107 Off ch=2 n=83 v=64
187110 On ch=2 n=92 v=80
187137 Off ch=2 n=92 v=64
187140 On ch=2 n=100 v=80
187140 On ch=2 n=88 v=80
187167 Off ch=2 n=100 v=64
187167 Off ch=2 n=88 v=64
187170 On ch=2 n=95 v=80
187197 Off ch=2 n=95 v=64
187200 On ch=2 n=100 v=80
187200 On ch=2 n=95 v=80
187200 On ch=2 n=92 v=80
187227 Off ch=2 n=100 v=64
187227 Off ch=2 n=95 v=64
187227 Off ch=2 n=92 v=64
187230 On ch=2 n=98 v=80
187230 On ch=2 n=92 v=80
187230 On ch=2 n=88 v=80
187257 Off ch=2 n=98 v=64
187257 Off ch=2 n=92 v=64
187257 Off ch=2 n=88 v=64
187260 On ch=2 n=92 v=80
187260 On ch=2 n=88 v=80
187260 On ch=2 n=83 v=80
187287 Off ch=2 n=92 v=64
187287 Off ch=2 n=88 v=64
187287 Off ch=2 n=83 v=64
187290 On ch=2 n=88 v=80
187290 On ch=2 n=83 v=80
187290 On ch=2 n=80 v=80
187317 Off ch=2 n=88 v=64
187317 Off ch=2 n=83 v=64
187317 Off ch=2 n=80 v=64
187320 On ch=2 n=86 v=80
187320 On ch=2 n=80 v=80
187320 On ch=2 n=76 v=80
187347 Off ch=2 n=86 v=64
187347 Off ch=2 n=80 v=64
187347 Off ch=2 n=76 v=64
187350 On ch=2 n=80 v=80
187350 On ch=2 n=76 v=80
187350 On ch=2 n=71 v=80
187377 Off ch=2 n=80 v=64
187377 Off ch=2 n=76 v=64
187377 Off ch=2 n=71 v=64
187380 On ch=2 n=76 v=80
187380 On ch=2 n=71 v=80
187380 On ch=2 n=68 v=80
187407 Off ch=2 n=76 v=64
187407 Off ch=2 n=71 v=64
187407 Off ch=2 n=68 v=64
187410 On ch=2 n=74 v=80
187410 On ch=2 n=68 v=80
187410 On ch=2 n=64 v=80
187437 Off ch=2 n=74 v=64
187437 Off ch=2 n=68 v=64
187437 Off ch=2 n=64 v=64
187440 On ch=2 n=68 v=80
187440 On ch=2 n=64 v=80
187440 On ch=2 n=59 v=80
187467 Off ch=2 n=68 v=64
187467 Off ch=2 n=64 v=64
187467 Off ch=2 n=59 v=64
187470 On ch=2 n=64 v=80
187470 On ch=2 n=59 v=80
187470 On ch=2 n=56 v=80
187497 Off ch=2 n=64 v=64
187497 Off ch=2 n=59 v=64
187497 Off ch=2 n=56 v=64
187500 On ch=2 n=52 v=80
187500 On ch=2 n=56 v=80
187500 On ch=2 n=62 v=80
187527 Off ch=2 n=52 v=64
187527 Off ch=2 n=56 v=64
187527 Off ch=2 n=62 v=64
187530 On ch=2 n=47 v=80
187530 On ch=2 n=52 v=80
187530 On ch=2 n=56 v=80
187557 Off ch=2 n=47 v=64
187557 Off ch=2 n=52 v=64
187557 Off ch=2 n=56 v=64
187560 On ch=2 n=44 v=80
187560 On ch=2 n=47 v=80
187560 On ch=2 n=52 v=80
187560 On ch=2 n=56 v=80
187587 Off ch=2 n=44 v=64
187587 Off ch=2 n=47 v=64
187587 Off ch=2 n=52 v=64
187587 Off ch=2 n=56 v=64
187590 On ch=2 n=40 v=80
187590 On ch=2 n=44 v=80
187590 On ch=2 n=50 v=80
187617 Off ch=2 n=40 v=64
187617 Off ch=2 n=44 v=64
187617 Off ch=2 n=50 v=64
187620 On ch=2 n=35 v=80
187620 On ch=2 n=40 v=80
187620 On ch=2 n=44 v=80
187647 Off ch=2 n=35 v=64
187647 Off ch=2 n=40 v=64
187647 Off ch=2 n=44 v=64
187650 On ch=2 n=32 v=80
187650 On ch=2 n=35 v=80
187650 On ch=2 n=41 v=80
187677 Off ch=2 n=32 v=64
187677 Off ch=2 n=35 v=64
187677 Off ch=2 n=41 v=64
187680 On ch=2 n=28 v=80
187680 On ch=2 n=33 v=80
187680 On ch=2 n=37 v=80
187680 On ch=2 n=41 v=80
187707 Off ch=2 n=28 v=64
187707 Off ch=2 n=33 v=64
187707 Off ch=2 n=37 v=64
187707 Off ch=2 n=41 v=64
187710 On ch=2 n=29 v=80
187710 On ch=2 n=33 v=80
187710 On ch=2 n=39 v=80
187710 On ch=2 n=41 v=80
187737 Off ch=2 n=29 v=64
187737 Off ch=2 n=33 v=64
187737 Off ch=2 n=39 v=64
187737 Off ch=2 n=41 v=64
187740 On ch=2 n=25 v=80
187740 On ch=2 n=28 v=80
187740 On ch=2 n=32 v=80
187740 On ch=2 n=35 v=80
187740 On ch=2 n=44 v=80
187767 Off ch=2 n=25 v=64
187767 Off ch=2 n=28 v=64
187767 Off ch=2 n=32 v=64
187767 Off ch=2 n=35 v=64
187767 Off ch=2 n=44 v=64
187770 On ch=2 n=21 v=80
187770 On ch=2 n=25 v=80
187770 On ch=2 n=28 v=80
187770 On ch=2 n=33 v=80
187770 On ch=2 n=40 v=80
187797 Off ch=2 n=21 v=64
187797 Off ch=2 n=25 v=64
187797 Off ch=2 n=28 v=64
187797 Off ch=2 n=33 v=64
187797 Off ch=2 n=40 v=64
187800 On ch=2 n=17 v=80
187800 On ch=2 n=21 v=80
187800 On ch=2 n=27 v=80
187800 On ch=2 n=39 v=80
187800 On ch=2 n=47 v=80
187827 Off ch=2 n=17 v=64
187827 Off ch=2 n=21 v=64
187827 Off ch=2 n=27 v=64
187827 Off ch=2 n=39 v=64
187827 Off ch=2 n=47 v=64
187830 On ch=2 n=34 v=80
187830 On ch=2 n=39 v=80
187830 On ch=2 n=43 v=80
187857 Off ch=2 n=34 v=64
187857 Off ch=2 n=39 v=64
187857 Off ch=2 n=43 v=64
187860 On ch=2 n=32 v=80
187860 On ch=2 n=33 v=80
187860 On ch=2 n=39 v=80
187860 On ch=2 n=40 v=80
187860 On ch=2 n=43 v=80
187860 On ch=2 n=52 v=80
187887 Off ch=2 n=32 v=64
187887 Off ch=2 n=33 v=64
187887 Off ch=2 n=39 v=64
187887 Off ch=2 n=40 v=64
187887 Off ch=2 n=43 v=64
187887 Off ch=2 n=52 v=64
187890 On ch=2 n=26 v=80
187890 On ch=2 n=32 v=80
187890 On ch=2 n=37 v=80
187890 On ch=2 n=47 v=80
187917 Off ch=2 n=26 v=64
187917 Off ch=2 n=32 v=64
187917 Off ch=2 n=37 v=64
187917 Off ch=2 n=47 v=64
187920 On ch=2 n=26 v=80
187920 On ch=2 n=32 v=80
187920 On ch=2 n=39 v=80
187920 On ch=2 n=44 v=80
187920 On ch=2 n=56 v=80
187947 Off ch=2 n=26 v=64
187947 Off ch=2 n=32 v=64
187947 Off ch=2 n=39 v=64
187947 Off ch=2 n=44 v=64
187947 Off ch=2 n=56 v=64
187950 On ch=2 n=38 v=80
187950 On ch=2 n=44 v=80
187950 On ch=2 n=52 v=80
187977 Off ch=2 n=38 v=64
187977 Off ch=2 n=44 v=64
187977 Off ch=2 n=52 v=64
187980 On ch=2 n=44 v=80
187980 On ch=2 n=45 v=80
187980 On ch=2 n=47 v=80
187980 On ch=2 n=59 v=80
188007 Off ch=2 n=44 v=64
188007 Off ch=2 n=45 v=64
188007 Off ch=2 n=47 v=64
188007 Off ch=2 n=59 v=64
188010 On ch=2 n=44 v=80
188010 On ch=2 n=44 v=80
188010 On ch=2 n=56 v=80
188037 Off ch=2 n=44 v=64
188037 Off ch=2 n=44 v=64
188037 Off ch=2 n=56 v=64
188040 On ch=2 n=44 v=80
188040 On ch=2 n=44 v=80
188040 On ch=2 n=52 v=80
188040 On ch=2 n=64 v=80
188067 Off ch=2 n=44 v=64
188067 Off ch=2 n=44 v=64
188067 Off ch=2 n=52 v=64
188067 Off ch=2 n=64 v=64
188070 On ch=2 n=44 v=80
188070 On ch=2 n=44 v=80
188070 On ch=2 n=59 v=80
188097 Off ch=2 n=44 v=64
188097 Off ch=2 n=44 v=64
188097 Off ch=2 n=59 v=64
188100 On ch=2 n=44 v=80
188100 On ch=2 n=44 v=80
188100 On ch=2 n=56 v=80
188100 On ch=2 n=68 v=80
188127 Off ch=2 n=44 v=64
188127 Off ch=2 n=44 v=64
188127 Off ch=2 n=56 v=64
188127 Off ch=2 n=68 v=64
188130 On ch=2 n=44 v=80
188130 On ch=2 n=44 v=80
188130 On ch=2 n=64 v=80
188157 Off ch=2 n=44 v=64
188157 Off ch=2 n=44 v=64
188157 Off ch=2 n=64 v=64
188160 Par ch=2 c=64 v=64
188160 On ch=2 n=38 v=80
188160 On ch=2 n=42 v=80
188160 On ch=2 n=45 v=80
188160 On ch=2 n=50 v=80
188160 On ch=2 n=54 v=80
189888 Off ch=2 n=38 v=64
189888 Off ch=2 n=42 v=64
189888 Off ch=2 n=45 v=64
189888 Off ch=2 n=50 v=64
189888 Off ch=2 n=54 v=64
190080 On ch=2 n=40 v=80
190296 Off ch=2 n=40 v=64
190320 On ch=2 n=56 v=80
190320 On ch=2 n=59 v=80
190536 Off ch=2 n=56 v=64
190536 Off ch=2 n=59 v=64
190560 On ch=2 n=40 v=80
190776 Off ch=2 n=40 v=64
190800 On ch=2 n=56 v=80
190800 On ch=2 n=59 v=80
191016 Off ch=2 n=56 v=64
191016 Off ch=2 n=59 v=64
191040 On ch=2 n=40 v=80
191256 Off ch=2 n=40 v=64
191280 On ch=2 n=56 v=80
191280 On ch=2 n=59 v=80
191496 Off ch=2 n=56 v=64
191496 Off ch=2 n=59 v=64
191520 On ch=2 n=40 v=80
191736 Off ch=2 n=40 v=64
191760 On ch=2 n=56 v=80
191760 On ch=2 n=59 v=80
191976 Off ch=2 n=56 v=64
191976 Off ch=2 n=59 v=64
192000 On ch=2 n=66 v=80
192000 On ch=2 n=61 v=80
192000 On ch=2 n=54 v=80
192000 On ch=2 n=49 v=80
192432 Off ch=2 n=66 v=64
192432 Off ch=2 n=61 v=64
192432 Off ch=2 n=54 v=64
192432 Off ch=2 n=49 v=64
192480 On ch=2 n=66 v=80
192480 On ch=2 n=61 v=80
192480 On ch=2 n=54 v=80
192480 On ch=2 n=49 v=80
192696 Off ch=2 n=66 v=64
192696 Off ch=2 n=61 v=64
192696 Off ch=2 n=54 v=64
192696 Off ch=2 n=49 v=64
192720 On ch=2 n=66 v=80
192720 On ch=2 n=61 v=80
192720 On ch=2 n=54 v=80
192720 On ch=2 n=49 v=80
193152 Off ch=2 n=66 v=64
193152 Off ch=2 n=61 v=64
193152 Off ch=2 n=54 v=64
193152 Off ch=2 n=49 v=64
193200 On ch=2 n=66 v=80
193200 On ch=2 n=61 v=80
193200 On ch=2 n=54 v=80
193200 On ch=2 n=49 v=80
193416 Off ch=2 n=66 v=64
193416 Off ch=2 n=61 v=64
193416 Off ch=2 n=54 v=64
193416 Off ch=2 n=49 v=64
193440 On ch=2 n=66 v=80
193440 On ch=2 n=61 v=80
193440 On ch=2 n=54 v=80
193440 On ch=2 n=49 v=80
193872 Off ch=2 n=66 v=64
193872 Off ch=2 n=61 v=64
193872 Off ch=2 n=54 v=64
193872 Off ch=2 n=49 v=64
193920 On ch=2 n=64 v=80
193920 On ch=2 n=61 v=80
193920 On ch=2 n=52 v=80
193920 On ch=2 n=49 v=80
194136 Off ch=2 n=64 v=64
194136 Off ch=2 n=61 v=64
194136 Off ch=2 n=52 v=64
194136 Off ch=2 n=49 v=64
194160 On ch=2 n=64 v=80
194160 On ch=2 n=61 v=80
194160 On ch=2 n=52 v=80
194160 On ch=2 n=49 v=80
194376 Off ch=2 n=61 v=64
194376 Off ch=2 n=52 v=64
194376 Off ch=2 n=49 v=64
194592 Off ch=2 n=64 v=64
194640 On ch=2 n=64 v=80
194640 On ch=2 n=61 v=80
194640 On ch=2 n=52 v=80
194640 On ch=2 n=49 v=80
194856 Off ch=2 n=64 v=64
194856 Off ch=2 n=61 v=64
194856 Off ch=2 n=52 v=64
194856 Off ch=2 n=49 v=64
194880 On ch=2 n=64 v=80
194880 On ch=2 n=61 v=80
194880 On ch=2 n=52 v=80
194880 On ch=2 n=49 v=80
195096 Off ch=2 n=61 v=64
195096 Off ch=2 n=52 v=64
195096 Off ch=2 n=49 v=64
195312 Off ch=2 n=64 v=64
195360 On ch=2 n=64 v=80
195360 On ch=2 n=61 v=80
195360 On ch=2 n=52 v=80
195360 On ch=2 n=49 v=80
195576 Off ch=2 n=64 v=64
195576 Off ch=2 n=61 v=64
195576 Off ch=2 n=52 v=64
195576 Off ch=2 n=49 v=64
195600 On ch=2 n=64 v=80
195600 On ch=2 n=61 v=80
195600 On ch=2 n=52 v=80
195600 On ch=2 n=49 v=80
195816 Off ch=2 n=64 v=64
195816 Off ch=2 n=61 v=64
195816 Off ch=2 n=52 v=64
195816 Off ch=2 n=49 v=64
195840 Par ch=2 c=64 v=0
195840 On ch=2 n=69 v=80
195840 On ch=2 n=66 v=80
195840 On ch=2 n=62 v=80
197568 Off ch=2 n=69 v=64
197568 Off ch=2 n=66 v=64
197568 Off ch=2 n=62 v=64
197760 On ch=2 n=28 v=80
197760 On ch=2 n=35 v=80
197760 On ch=2 n=40 v=80
199488 Off ch=2 n=28 v=64
199488 Off ch=2 n=35 v=64
199488 Off ch=2 n=40 v=64
199680 On ch=2 n=30 v=80
199680 On ch=2 n=37 v=80
199680 On ch=2 n=42 v=80
201408 Off ch=2 n=30 v=64
201408 Off ch=2 n=37 v=64
201408 Off ch=2 n=42 v=64
201600 On ch=2 n=28 v=80
201600 On ch=2 n=35 v=80
201600 On ch=2 n=40 v=80
203328 Off ch=2 n=28 v=64
203328 Off ch=2 n=35 v=64
203328 Off ch=2 n=40 v=64
203520 On ch=2 n=45 v=80
203520 On ch=2 n=50 v=80
205248 Off ch=2 n=45 v=64
205248 Off ch=2 n=50 v=64
205440 On ch=2 n=52 v=80
205440 On ch=2 n=47 v=80
207168 Off ch=2 n=52 v=64
207168 Off ch=2 n=47 v=64
207360 On ch=2 n=54 v=80
207360 On ch=2 n=49 v=80
209088 Off ch=2 n=54 v=64
209088 Off ch=2 n=49 v=64
209280 On ch=2 n=52 v=80
209280 On ch=2 n=45 v=80
211008 Off ch=2 n=52 v=64
211008 Off ch=2 n=45 v=64
211200 On ch=2 n=42 v=80
211200 On ch=2 n=49 v=80
211200 On ch=2 n=54 v=80
212928 Off ch=2 n=42 v=64
212928 Off ch=2 n=49 v=64
212928 Off ch=2 n=54 v=64
213120 On ch=2 n=38 v=80
213120 On ch=2 n=45 v=80
213120 On ch=2 n=50 v=80
214848 Off ch=2 n=38 v=64
214848 Off ch=2 n=45 v=64
214848 Off ch=2 n=50 v=64
215040 Par ch=2 c=64 v=0
215040 On ch=2 n=40 v=80
215040 On ch=2 n=47 v=80
215040 On ch=2 n=52 v=80
216768 Off ch=2 n=40 v=64
216768 Off ch=2 n=47 v=64
216768 Off ch=2 n=52 v=64
216960 On ch=2 n=42 v=80
216960 On ch=2 n=49 v=80
216960 On ch=2 n=54 v=80
218688 Off ch=2 n=42 v=64
218688 Off ch=2 n=49 v=64
218688 Off ch=2 n=54 v=64
218880 On ch=2 n=42 v=80
218880 On ch=2 n=49 v=80
218880 On ch=2 n=54 v=80
220608 Off ch=2 n=42 v=64
220608 Off ch=2 n=49 v=64
220608 Off ch=2 n=54 v=64
220800 On ch=2 n=38 v=80
220800 On ch=2 n=45 v=80
220800 On ch=2 n=50 v=80
222528 Off ch=2 n=38 v=64
222528 Off ch=2 n=45 v=64
222528 Off ch=2 n=50 v=64
222720 On ch=2 n=40 v=80
222720 On ch=2 n=47 v=80
222720 On ch=2 n=52 v=80
224448 Off ch=2 n=40 v=64
224448 Off ch=2 n=47 v=64
224448 Off ch=2 n=52 v=64
224640 On ch=2 n=42 v=80
224640 On ch=2 n=49 v=80
224640 On ch=2 n=54 v=80
226368 Off ch=2 n=42 v=64
226368 Off ch=2 n=49 v=64
226368 Off ch=2 n=54 v=64
240000 On ch=2 n=54 v=80
240000 On ch=2 n=42 v=80
241728 Off ch=2 n=54 v=64
241728 Off ch=2 n=42 v=64
241920 On ch=2 n=69 v=80
241920 On ch=2 n=66 v=80
241920 On ch=2 n=61 v=80
245568 Off ch=2 n=69 v=64
245568 Off ch=2 n=66 v=64
245568 Off ch=2 n=61 v=64
245760 On ch=2 n=64 v=80
245760 On ch=2 n=59 v=80
249408 Off ch=2 n=64 v=64
249408 Off ch=2 n=59 v=64
249600 KeySig 0 major
251520 Meta TrkEnd
TrkEnd
MTrk
0 Meta TrkName "Piano"
0 Meta InstrName "Microsoft GS Wavetable Synth"
0 KeySig 3 major
0 PrCh ch=1 p=0
0 Par ch=1 c=10 v=64
0 Par ch=1 c=7 v=127
0 Par ch=1 c=0 v=126
10 Par ch=1 c=0 v=0
19 Par ch=1 c=0 v=126
29 Par ch=1 c=0 v=0
1440 On ch=1 n=61 v=80
1440 On ch=1 n=73 v=80
1656 Off ch=1 n=61 v=64
1656 Off ch=1 n=73 v=64
1680 On ch=1 n=64 v=80
1680 On ch=1 n=76 v=80
1788 Off ch=1 n=64 v=64
1788 Off ch=1 n=76 v=64
1800 On ch=1 n=61 v=80
1800 On ch=1 n=73 v=80
1854 Off ch=1 n=61 v=64
1854 Off ch=1 n=73 v=64
1860 On ch=1 n=64 v=80
1860 On ch=1 n=76 v=80
1914 Off ch=1 n=64 v=64
1914 Off ch=1 n=76 v=64
1920 On ch=1 n=78 v=80
1920 On ch=1 n=66 v=80
2616 Off ch=1 n=78 v=64
2616 Off ch=1 n=66 v=64
2640 On ch=1 n=76 v=80
2640 On ch=1 n=64 v=80
2856 Off ch=1 n=76 v=64
2856 Off ch=1 n=64 v=64
2880 On ch=1 n=78 v=80
2880 On ch=1 n=66 v=80
3576 Off ch=1 n=78 v=64
3576 Off ch=1 n=66 v=64
3600 On ch=1 n=76 v=80
3600 On ch=1 n=64 v=80
3816 Off ch=1 n=76 v=64
3816 Off ch=1 n=64 v=64
3840 On ch=1 n=78 v=80
3840 On ch=1 n=66 v=80
4056 Off ch=1 n=78 v=64
4056 Off ch=1 n=66 v=64
4080 On ch=1 n=81 v=80
4080 On ch=1 n=69 v=80
4296 Off ch=1 n=81 v=64
4296 Off ch=1 n=69 v=64
4320 On ch=1 n=76 v=80
4320 On ch=1 n=64 v=80
4536 Off ch=1 n=76 v=64
4536 Off ch=1 n=64 v=64
4560 On ch=1 n=78 v=80
4560 On ch=1 n=66 v=80
4776 Off ch=1 n=78 v=64
4776 Off ch=1 n=66 v=64
4800 On ch=1 n=61 v=80
4800 On ch=1 n=73 v=80
5016 Off ch=1 n=61 v=64
5016 Off ch=1 n=73 v=64
5040 On ch=1 n=59 v=80
5040 On ch=1 n=71 v=80
5256 Off ch=1 n=59 v=64
5256 Off ch=1 n=71 v=64
5280 On ch=1 n=61 v=80
5280 On ch=1 n=73 v=80
5496 Off ch=1 n=61 v=64
5496 Off ch=1 n=73 v=64
5520 On ch=1 n=64 v=80
5520 On ch=1 n=76 v=80
5628 Off ch=1 n=64 v=64
5628 Off ch=1 n=76 v=64
5640 On ch=1 n=61 v=80
5640 On ch=1 n=73 v=80
5694 Off ch=1 n=61 v=64
5694 Off ch=1 n=73 v=64
5700 On ch=1 n=64 v=80
5700 On ch=1 n=76 v=80
5754 Off ch=1 n=64 v=64
5754 Off ch=1 n=76 v=64
5760 On ch=1 n=78 v=80
5760 On ch=1 n=66 v=80
6456 Off ch=1 n=78 v=64
6456 Off ch=1 n=66 v=64
6480 On ch=1 n=76 v=80
6480 On ch=1 n=64 v=80
6696 Off ch=1 n=76 v=64
6696 Off ch=1 n=64 v=64
6720 On ch=1 n=78 v=80
6720 On ch=1 n=66 v=80
7416 Off ch=1 n=78 v=64
7416 Off ch=1 n=66 v=64
7440 On ch=1 n=76 v=80
7440 On ch=1 n=64 v=80
7656 Off ch=1 n=76 v=64
7656 Off ch=1 n=64 v=64
7680 On ch=1 n=78 v=80
7680 On ch=1 n=66 v=80
7896 Off ch=1 n=78 v=64
7896 Off ch=1 n=66 v=64
7920 On ch=1 n=85 v=80
7920 On ch=1 n=73 v=80
8136 Off ch=1 n=85 v=64
8136 Off ch=1 n=73 v=64
8160 On ch=1 n=81 v=80
8160 On ch=1 n=69 v=80
8376 Off ch=1 n=81 v=64
8376 Off ch=1 n=69 v=64
8400 On ch=1 n=83 v=80
8400 On ch=1 n=71 v=80
8616 Off ch=1 n=83 v=64
8616 Off ch=1 n=71 v=64
8640 On ch=1 n=78 v=80
8640 On ch=1 n=66 v=80
9072 Off ch=1 n=78 v=64
9072 Off ch=1 n=66 v=64
9120 On ch=1 n=61 v=80
9120 On ch=1 n=73 v=80
9336 Off ch=1 n=61 v=64
9336 Off ch=1 n=73 v=64
9360 On ch=1 n=64 v=80
9360 On ch=1 n=76 v=80
9468 Off ch=1 n=64 v=64
9468 Off ch=1 n=76 v=64
9480 On ch=1 n=61 v=80
9480 On ch=1 n=73 v=80
9534 Off ch=1 n=61 v=64
9534 Off ch=1 n=73 v=64
9540 On ch=1 n=64 v=80
9540 On ch=1 n=76 v=80
9594 Off ch=1 n=64 v=64
9594 Off ch=1 n=76 v=64
9600 On ch=1 n=78 v=80
9600 On ch=1 n=66 v=80
10296 Off ch=1 n=78 v=64
10296 Off ch=1 n=66 v=64
10320 On ch=1 n=76 v=80
10320 On ch=1 n=64 v=80
10536 Off ch=1 n=76 v=64
10536 Off ch=1 n=64 v=64
10560 On ch=1 n=78 v=80
10560 On ch=1 n=66 v=80
11256 Off ch=1 n=78 v=64
11256 Off ch=1 n=66 v=64
11280 On ch=1 n=76 v=80
11280 On ch=1 n=64 v=80
11496 Off ch=1 n=76 v=64
11496 Off ch=1 n=64 v=64
11520 On ch=1 n=78 v=80
11520 On ch=1 n=66 v=80
11736 Off ch=1 n=78 v=64
11736 Off ch=1 n=66 v=64
11760 On ch=1 n=81 v=80
11760 On ch=1 n=69 v=80
11976 Off ch=1 n=81 v=64
11976 Off ch=1 n=69 v=64
12000 On ch=1 n=76 v=80
12000 On ch=1 n=64 v=80
12216 Off ch=1 n=76 v=64
12216 Off ch=1 n=64 v=64
12240 On ch=1 n=78 v=80
12240 On ch=1 n=66 v=80
12456 Off ch=1 n=78 v=64
12456 Off ch=1 n=66 v=64
12480 On ch=1 n=61 v=80
12480 On ch=1 n=73 v=80
12696 Off ch=1 n=61 v=64
12696 Off ch=1 n=73 v=64
12720 On ch=1 n=59 v=80
12720 On ch=1 n=71 v=80
12936 Off ch=1 n=59 v=64
12936 Off ch=1 n=71 v=64
12960 On ch=1 n=57 v=80
12960 On ch=1 n=69 v=80
13176 Off ch=1 n=57 v=64
13176 Off ch=1 n=69 v=64
13200 On ch=1 n=59 v=80
13200 On ch=1 n=71 v=80
13308 Off ch=1 n=59 v=64
13308 Off ch=1 n=71 v=64
13320 On ch=1 n=57 v=80
13320 On ch=1 n=69 v=80
13374 Off ch=1 n=57 v=64
13374 Off ch=1 n=69 v=64
13380 On ch=1 n=59 v=80
13380 On ch=1 n=71 v=80
13434 Off ch=1 n=59 v=64
13434 Off ch=1 n=71 v=64
13440 On ch=1 n=61 v=80
13440 On ch=1 n=73 v=80
13872 Off ch=1 n=61 v=64
13872 Off ch=1 n=73 v=64
13920 On ch=1 n=81 v=80
13920 On ch=1 n=69 v=80
14352 Off ch=1 n=81 v=64
14352 Off ch=1 n=69 v=64
14400 On ch=1 n=78 v=80
14400 On ch=1 n=66 v=80
14832 Off ch=1 n=78 v=64
14832 Off ch=1 n=66 v=64
14880 On ch=1 n=85 v=80
14880 On ch=1 n=73 v=80
15312 Off ch=1 n=85 v=64
15312 Off ch=1 n=73 v=64
15360 On ch=1 n=83 v=80
15360 On ch=1 n=71 v=80
15576 Off ch=1 n=83 v=64
15576 Off ch=1 n=71 v=64
15600 On ch=1 n=85 v=80
15600 On ch=1 n=73 v=80
15816 Off ch=1 n=85 v=64
15816 Off ch=1 n=73 v=64
15840 On ch=1 n=81 v=80
15840 On ch=1 n=69 v=80
16056 Off ch=1 n=81 v=64
16056 Off ch=1 n=69 v=64
16080 On ch=1 n=83 v=80
16080 On ch=1 n=71 v=80
16296 Off ch=1 n=83 v=64
16296 Off ch=1 n=71 v=64
16320 On ch=1 n=78 v=80
16320 On ch=1 n=73 v=80
16320 On ch=1 n=69 v=80
16320 On ch=1 n=66 v=80
17184 Off ch=1 n=78 v=64
17184 Off ch=1 n=73 v=64
17184 Off ch=1 n=69 v=64
17184 Off ch=1 n=66 v=64
17280 Par ch=1 c=64 v=64
17280 Par ch=1 c=64 v=0
17280 On ch=1 n=78 v=80
17280 On ch=1 n=73 v=80
17280 On ch=1 n=66 v=80
17712 Off ch=1 n=78 v=64
17712 Off ch=1 n=73 v=64
17712 Off ch=1 n=66 v=64
17760 On ch=1 n=78 v=80
17760 On ch=1 n=73 v=80
17760 On ch=1 n=66 v=80
18192 Off ch=1 n=78 v=64
18192 Off ch=1 n=73 v=64
18192 Off ch=1 n=66 v=64
18240 On ch=1 n=78 v=80
18240 On ch=1 n=73 v=80
18240 On ch=1 n=66 v=80
18672 Off ch=1 n=78 v=64
18672 Off ch=1 n=73 v=64
18672 Off ch=1 n=66 v=64
18720 On ch=1 n=78 v=80
18720 On ch=1 n=73 v=80
18720 On ch=1 n=66 v=80
18828 Off ch=1 n=78 v=64
18828 Off ch=1 n=73 v=64
18828 Off ch=1 n=66 v=64
18840 On ch=1 n=81 v=80
18840 On ch=1 n=78 v=80
18840 On ch=1 n=69 v=80
18948 Off ch=1 n=81 v=64
18948 Off ch=1 n=78 v=64
18948 Off ch=1 n=69 v=64
18960 On ch=1 n=83 v=80
18960 On ch=1 n=80 v=80
18960 On ch=1 n=71 v=80
19068 Off ch=1 n=83 v=64
19068 Off ch=1 n=80 v=64
19068 Off ch=1 n=71 v=64
19080 On ch=1 n=85 v=80
19080 On ch=1 n=81 v=80
19080 On ch=1 n=73 v=80
19188 Off ch=1 n=85 v=64
19188 Off ch=1 n=81 v=64
19188 Off ch=1 n=73 v=64
19200 Par ch=1 c=64 v=0
19200 On ch=1 n=78 v=80
19200 On ch=1 n=73 v=80
19200 On ch=1 n=66 v=80
19632 Off ch=1 n=78 v=64
19632 Off ch=1 n=73 v=64
19632 Off ch=1 n=66 v=64
19680 On ch=1 n=78 v=80
19680 On ch=1 n=73 v=80
19680 On ch=1 n=66 v=80
20112 Off ch=1 n=78 v=64
20112 Off ch=1 n=73 v=64
20112 Off ch=1 n=66 v=64
20160 On ch=1 n=78 v=80
20160 On ch=1 n=73 v=80
20160 On ch=1 n=66 v=80
20376 Off ch=1 n=78 v=64
20376 Off ch=1 n=73 v=64
20376 Off ch=1 n=66 v=64
20400 On ch=1 n=76 v=80
20400 On ch=1 n=71 v=80
20400 On ch=1 n=64 v=80
20616 Off ch=1 n=76 v=64
20616 Off ch=1 n=71 v=64
20616 Off ch=1 n=64 v=64
20640 On ch=1 n=76 v=80
20640 On ch=1 n=71 v=80
20640 On ch=1 n=64 v=80
20856 Off ch=1 n=76 v=64
20856 Off ch=1 n=71 v=64
20856 Off ch=1 n=64 v=64
20880 On ch=1 n=78 v=80
20880 On ch=1 n=73 v=80
20880 On ch=1 n=66 v=80
21096 Off ch=1 n=78 v=64
21096 Off ch=1 n=73 v=64
21096 Off ch=1 n=66 v=64
21120 On ch=1 n=78 v=80
21120 On ch=1 n=73 v=80
21120 On ch=1 n=66 v=80
21552 Off ch=1 n=78 v=64
21552 Off ch=1 n=73 v=64
21552 Off ch=1 n=66 v=64
21600 On ch=1 n=78 v=80
21600 On ch=1 n=73 v=80
21600 On ch=1 n=66 v=80
22032 Off ch=1 n=78 v=64
22032 Off ch=1 n=73 v=64
22032 Off ch=1 n=66 v=64
22080 On ch=1 n=78 v=80
22080 On ch=1 n=73 v=80
22080 On ch=1 n=66 v=80
22512 Off ch=1 n=78 v=64
22512 Off ch=1 n=73 v=64
22512 Off ch=1 n=66 v=64
22560 On ch=1 n=78 v=80
22560 On ch=1 n=73 v=80
22560 On ch=1 n=66 v=80
22668 Off ch=1 n=78 v=64
22668 Off ch=1 n=73 v=64
22668 Off ch=1 n=66 v=64
22680 On ch=1 n=81 v=80
22680 On ch=1 n=78 v=80
22680 On ch=1 n=69 v=80
22788 Off ch=1 n=81 v=64
22788 Off ch=1 n=78 v=64
22788 Off ch=1 n=69 v=64
22800 On ch=1 n=83 v=80
22800 On ch=1 n=80 v=80
22800 On ch=1 n=71 v=80
22908 Off ch=1 n=83 v=64
22908 Off ch=1 n=80 v=64
22908 Off ch=1 n=71 v=64
22920 On ch=1 n=85 v=80
22920 On ch=1 n=81 v=80
22920 On ch=1 n=73 v=80
23028 Off ch=1 n=85 v=64
23028 Off ch=1 n=81 v=64
23028 Off ch=1 n=73 v=64
23040 On ch=1 n=78 v=80
23040 On ch=1 n=73 v=80
23040 On ch=1 n=66 v=80
23472 Off ch=1 n=78 v=64
23472 Off ch=1 n=73 v=64
23472 Off ch=1 n=66 v=64
23520 On ch=1 n=78 v=80
23520 On ch=1 n=73 v=80
23520 On ch=1 n=66 v=80
23952 Off ch=1 n=78 v=64
23952 Off ch=1 n=73 v=64
23952 Off ch=1 n=66 v=64
24000 On ch=1 n=78 v=80
24000 On ch=1 n=73 v=80
24000 On ch=1 n=66 v=80
24216 Off ch=1 n=78 v=64
24216 Off ch=1 n=73 v=64
24216 Off ch=1 n=66 v=64
24240 On ch=1 n=86 v=80
24240 On ch=1 n=81 v=80
24240 On ch=1 n=74 v=80
24672 Off ch=1 n=86 v=64
24672 Off ch=1 n=81 v=64
24672 Off ch=1 n=74 v=64
24720 On ch=1 n=85 v=80
24720 On ch=1 n=80 v=80
24720 On ch=1 n=73 v=80
24936 Off ch=1 n=85 v=64
24936 Off ch=1 n=80 v=64
24936 Off ch=1 n=73 v=64
24960 On ch=1 n=78 v=80
24960 On ch=1 n=73 v=80
24960 On ch=1 n=66 v=80
25392 Off ch=1 n=78 v=64
25392 Off ch=1 n=73 v=64
25392 Off ch=1 n=66 v=64
25440 On ch=1 n=78 v=80
25440 On ch=1 n=73 v=80
25440 On ch=1 n=66 v=80
25872 Off ch=1 n=78 v=64
25872 Off ch=1 n=73 v=64
25872 Off ch=1 n=66 v=64
25920 On ch=1 n=78 v=80
25920 On ch=1 n=73 v=80
25920 On ch=1 n=66 v=80
26352 Off ch=1 n=78 v=64
26352 Off ch=1 n=73 v=64
26352 Off ch=1 n=66 v=64
26400 On ch=1 n=78 v=80
26400 On ch=1 n=73 v=80
26400 On ch=1 n=66 v=80
26508 Off ch=1 n=78 v=64
26508 Off ch=1 n=73 v=64
26508 Off ch=1 n=66 v=64
26520 On ch=1 n=81 v=80
26520 On ch=1 n=78 v=80
26520 On ch=1 n=69 v=80
26628 Off ch=1 n=81 v=64
26628 Off ch=1 n=78 v=64
26628 Off ch=1 n=69 v=64
26640 On ch=1 n=83 v=80
26640 On ch=1 n=80 v=80
26640 On ch=1 n=71 v=80
26748 Off ch=1 n=83 v=64
26748 Off ch=1 n=80 v=64
26748 Off ch=1 n=71 v=64
26760 On ch=1 n=85 v=80
26760 On ch=1 n=81 v=80
26760 On ch=1 n=73 v=80
26868 Off ch=1 n=85 v=64
26868 Off ch=1 n=81 v=64
26868 Off ch=1 n=73 v=64
26880 On ch=1 n=78 v=80
26880 On ch=1 n=73 v=80
26880 On ch=1 n=66 v=80
27312 Off ch=1 n=78 v=64
27312 Off ch=1 n=73 v=64
27312 Off ch=1 n=66 v=64
27360 On ch=1 n=78 v=80
27360 On ch=1 n=73 v=80
27360 On ch=1 n=66 v=80
27792 Off ch=1 n=78 v=64
27792 Off ch=1 n=73 v=64
27792 Off ch=1 n=66 v=64
27840 On ch=1 n=78 v=80
27840 On ch=1 n=73 v=80
27840 On ch=1 n=66 v=80
28056 Off ch=1 n=78 v=64
28056 Off ch=1 n=73 v=64
28056 Off ch=1 n=66 v=64
28080 On ch=1 n=76 v=80
28080 On ch=1 n=71 v=80
28080 On ch=1 n=64 v=80
28296 Off ch=1 n=76 v=64
28296 Off ch=1 n=71 v=64
28296 Off ch=1 n=64 v=64
28320 On ch=1 n=76 v=80
28320 On ch=1 n=71 v=80
28320 On ch=1 n=64 v=80
28536 Off ch=1 n=76 v=64
28536 Off ch=1 n=71 v=64
28536 Off ch=1 n=64 v=64
28560 On ch=1 n=78 v=80
28560 On ch=1 n=73 v=80
28560 On ch=1 n=66 v=80
28776 Off ch=1 n=78 v=64
28776 Off ch=1 n=73 v=64
28776 Off ch=1 n=66 v=64
28800 On ch=1 n=78 v=80
28800 On ch=1 n=73 v=80
28800 On ch=1 n=66 v=80
29232 Off ch=1 n=78 v=64
29232 Off ch=1 n=73 v=64
29232 Off ch=1 n=66 v=64
29280 On ch=1 n=78 v=80
29280 On ch=1 n=73 v=80
29280 On ch=1 n=66 v=80
29712 Off ch=1 n=78 v=64
29712 Off ch=1 n=73 v=64
29712 Off ch=1 n=66 v=64
29760 On ch=1 n=78 v=80
29760 On ch=1 n=73 v=80
29760 On ch=1 n=66 v=80
30192 Off ch=1 n=78 v=64
30192 Off ch=1 n=73 v=64
30192 Off ch=1 n=66 v=64
30240 On ch=1 n=78 v=80
30240 On ch=1 n=73 v=80
30240 On ch=1 n=66 v=80
30348 Off ch=1 n=78 v=64
30348 Off ch=1 n=73 v=64
30348 Off ch=1 n=66 v=64
30360 On ch=1 n=81 v=80
30360 On ch=1 n=78 v=80
30360 On ch=1 n=69 v=80
30468 Off ch=1 n=81 v=64
30468 Off ch=1 n=78 v=64
30468 Off ch=1 n=69 v=64
30480 On ch=1 n=83 v=80
30480 On ch=1 n=80 v=80
30480 On ch=1 n=71 v=80
30588 Off ch=1 n=83 v=64
30588 Off ch=1 n=80 v=64
30588 Off ch=1 n=71 v=64
30600 On ch=1 n=85 v=80
30600 On ch=1 n=81 v=80
30600 On ch=1 n=73 v=80
30708 Off ch=1 n=85 v=64
30708 Off ch=1 n=81 v=64
30708 Off ch=1 n=73 v=64
30720 On ch=1 n=90 v=80
30720 On ch=1 n=85 v=80
30720 On ch=1 n=78 v=80
30936 Off ch=1 n=90 v=64
30936 Off ch=1 n=85 v=64
30936 Off ch=1 n=78 v=64
30960 On ch=1 n=85 v=80
30960 On ch=1 n=81 v=80
30960 On ch=1 n=73 v=80
31014 Off ch=1 n=85 v=64
31014 Off ch=1 n=81 v=64
31014 Off ch=1 n=73 v=64
31020 On ch=1 n=83 v=80
31020 On ch=1 n=80 v=80
31020 On ch=1 n=71 v=80
31074 Off ch=1 n=83 v=64
31074 Off ch=1 n=80 v=64
31074 Off ch=1 n=71 v=64
31080 On ch=1 n=81 v=80
31080 On ch=1 n=78 v=80
31080 On ch=1 n=69 v=80
31134 Off ch=1 n=81 v=64
31134 Off ch=1 n=78 v=64
31134 Off ch=1 n=69 v=64
31140 On ch=1 n=80 v=80
31140 On ch=1 n=76 v=80
31140 On ch=1 n=68 v=80
31194 Off ch=1 n=80 v=64
31194 Off ch=1 n=76 v=64
31194 Off ch=1 n=68 v=64
31200 On ch=1 n=78 v=80
31200 On ch=1 n=73 v=80
31200 On ch=1 n=66 v=80
31416 Off ch=1 n=78 v=64
31416 Off ch=1 n=73 v=64
31416 Off ch=1 n=66 v=64
31440 On ch=1 n=76 v=80
31440 On ch=1 n=71 v=80
31440 On ch=1 n=64 v=80
31656 Off ch=1 n=76 v=64
31656 Off ch=1 n=71 v=64
31656 Off ch=1 n=64 v=64
31680 On ch=1 n=76 v=80
31680 On ch=1 n=71 v=80
31680 On ch=1 n=64 v=80
31896 Off ch=1 n=76 v=64
31896 Off ch=1 n=71 v=64
31896 Off ch=1 n=64 v=64
31920 On ch=1 n=78 v=80
31920 On ch=1 n=73 v=80
31920 On ch=1 n=66 v=80
32136 Off ch=1 n=78 v=64
32136 Off ch=1 n=73 v=64
32136 Off ch=1 n=66 v=64
32160 On ch=1 n=78 v=80
32160 On ch=1 n=73 v=80
32160 On ch=1 n=66 v=80
32592 Off ch=1 n=78 v=64
32592 Off ch=1 n=73 v=64
32592 Off ch=1 n=66 v=64
32640 Par ch=1 c=64 v=64
33360 On ch=1 n=78 v=80
33576 Off ch=1 n=78 v=64
33600 On ch=1 n=78 v=80
33816 Off ch=1 n=78 v=64
33840 On ch=1 n=76 v=80
33948 Off ch=1 n=76 v=64
33960 On ch=1 n=76 v=80
34296 Off ch=1 n=76 v=64
34320 On ch=1 n=78 v=80
34536 Off ch=1 n=78 v=64
34560 On ch=1 n=76 v=80
34776 Off ch=1 n=76 v=64
34800 On ch=1 n=73 v=80
35016 Off ch=1 n=73 v=64
35040 On ch=1 n=73 v=80
35256 Off ch=1 n=73 v=64
35280 On ch=1 n=76 v=80
35388 Off ch=1 n=76 v=64
35400 On ch=1 n=73 v=80
36384 Off ch=1 n=73 v=64
37200 On ch=1 n=78 v=80
37416 Off ch=1 n=78 v=64
37440 On ch=1 n=78 v=80
37656 Off ch=1 n=78 v=64
37680 On ch=1 n=76 v=80
37896 Off ch=1 n=76 v=64
37920 On ch=1 n=78 v=80
38136 Off ch=1 n=78 v=64
38160 On ch=1 n=80 v=80
38376 Off ch=1 n=80 v=64
38400 On ch=1 n=81 v=80
38832 Off ch=1 n=81 v=64
38880 On ch=1 n=80 v=80
39312 Off ch=1 n=80 v=64
39360 On ch=1 n=78 v=80
39576 Off ch=1 n=78 v=64
39600 On ch=1 n=80 v=80
39708 Off ch=1 n=80 v=64
39720 On ch=1 n=78 v=80
39828 Off ch=1 n=78 v=64
39840 On ch=1 n=76 v=80
40272 Off ch=1 n=76 v=64
41040 On ch=1 n=78 v=80
41256 Off ch=1 n=78 v=64
41280 On ch=1 n=78 v=80
41496 Off ch=1 n=78 v=64
41520 On ch=1 n=76 v=80
41628 Off ch=1 n=76 v=64
41640 On ch=1 n=76 v=80
41976 Off ch=1 n=76 v=64
42000 On ch=1 n=78 v=80
42216 Off ch=1 n=78 v=64
42240 On ch=1 n=76 v=80
42456 Off ch=1 n=76 v=64
42480 On ch=1 n=73 v=80
42696 Off ch=1 n=73 v=64
42720 On ch=1 n=73 v=80
42936 Off ch=1 n=73 v=64
42960 On ch=1 n=76 v=80
43068 Off ch=1 n=76 v=64
43080 On ch=1 n=73 v=80
43896 Off ch=1 n=73 v=64
43920 On ch=1 n=76 v=80
44136 Off ch=1 n=76 v=64
44160 Par ch=1 c=64 v=0
44160 On ch=1 n=86 v=80
44160 On ch=1 n=81 v=80
44160 On ch=1 n=76 v=80
44160 On ch=1 n=74 v=80
44376 Off ch=1 n=86 v=64
44376 Off ch=1 n=81 v=64
44376 Off ch=1 n=76 v=64
44376 Off ch=1 n=74 v=64
44400 On ch=1 n=86 v=80
44400 On ch=1 n=81 v=80
44400 On ch=1 n=78 v=80
44400 On ch=1 n=74 v=80
44616 Off ch=1 n=86 v=64
44616 Off ch=1 n=81 v=64
44616 Off ch=1 n=78 v=64
44616 Off ch=1 n=74 v=64
44880 On ch=1 n=76 v=80
45096 Off ch=1 n=76 v=64
45120 On ch=1 n=88 v=80
45120 On ch=1 n=83 v=80
45120 On ch=1 n=76 v=80
45120 On ch=1 n=76 v=80
45336 Off ch=1 n=88 v=64
45336 Off ch=1 n=83 v=64
45336 Off ch=1 n=76 v=64
45336 Off ch=1 n=76 v=64
45360 On ch=1 n=88 v=80
45360 On ch=1 n=83 v=80
45360 On ch=1 n=78 v=80
45360 On ch=1 n=76 v=80
45576 Off ch=1 n=88 v=64
45576 Off ch=1 n=83 v=64
45576 Off ch=1 n=78 v=64
45576 Off ch=1 n=76 v=64
45840 Par ch=1 c=64 v=64
45840 On ch=1 n=78 v=80
45948 Off ch=1 n=78 v=64
45960 On ch=1 n=80 v=80
46068 Off ch=1 n=80 v=64
46080 Par ch=1 c=64 v=64
46080 On ch=1 n=81 v=80
46080 On ch=1 n=78 v=80
46080 On ch=1 n=75 v=80
46512 Off ch=1 n=81 v=64
46512 Off ch=1 n=78 v=64
46512 Off ch=1 n=75 v=64
46560 On ch=1 n=83 v=80
46560 On ch=1 n=76 v=80
46992 Off ch=1 n=83 v=64
46992 Off ch=1 n=76 v=64
47040 On ch=1 n=78 v=80
47904 Off ch=1 n=78 v=64
48000 Par ch=1 c=64 v=0
48000 On ch=1 n=76 v=80
48000 On ch=1 n=71 v=80
48216 Off ch=1 n=76 v=64
48216 Off ch=1 n=71 v=64
48240 On ch=1 n=78 v=80
48240 On ch=1 n=73 v=80
48672 Off ch=1 n=78 v=64
48672 Off ch=1 n=73 v=64
48720 On ch=1 n=85 v=80
48720 On ch=1 n=81 v=80
48936 Off ch=1 n=85 v=64
48936 Off ch=1 n=81 v=64
48960 On ch=1 n=83 v=80
48960 On ch=1 n=80 v=80
49656 Off ch=1 n=83 v=64
49656 Off ch=1 n=80 v=64
49680 On ch=1 n=78 v=80
49680 On ch=1 n=73 v=80
49896 Off ch=1 n=78 v=64
49896 Off ch=1 n=73 v=64
49920 On ch=1 n=78 v=80
49920 On ch=1 n=73 v=80
50136 Off ch=1 n=78 v=64
50136 Off ch=1 n=73 v=64
50160 On ch=1 n=78 v=80
50160 On ch=1 n=73 v=80
50376 Off ch=1 n=78 v=64
50376 Off ch=1 n=73 v=64
50400 On ch=1 n=78 v=80
50400 On ch=1 n=73 v=80
50616 Off ch=1 n=78 v=64
50616 Off ch=1 n=73 v=64
50640 On ch=1 n=85 v=80
50640 On ch=1 n=81 v=80
50856 Off ch=1 n=85 v=64
50856 Off ch=1 n=81 v=64
50880 On ch=1 n=83 v=80
50880 On ch=1 n=80 v=80
51744 Off ch=1 n=83 v=64
51744 Off ch=1 n=80 v=64
52080 On ch=1 n=83 v=80
52080 On ch=1 n=80 v=80
52296 Off ch=1 n=83 v=64
52296 Off ch=1 n=80 v=64
52320 On ch=1 n=83 v=80
52320 On ch=1 n=80 v=80
52536 Off ch=1 n=83 v=64
52536 Off ch=1 n=80 v=64
52560 On ch=1 n=82 v=80
52560 On ch=1 n=78 v=80
52776 Off ch=1 n=82 v=64
52776 Off ch=1 n=78 v=64
52800 On ch=1 n=83 v=80
52800 On ch=1 n=80 v=80
53016 Off ch=1 n=83 v=64
53016 Off ch=1 n=80 v=64
53040 On ch=1 n=81 v=80
53040 On ch=1 n=76 v=80
53148 Off ch=1 n=81 v=64
53148 Off ch=1 n=76 v=64
53160 On ch=1 n=78 v=80
53160 On ch=1 n=73 v=80
53496 Off ch=1 n=78 v=64
53496 Off ch=1 n=73 v=64
53520 On ch=1 n=76 v=80
53520 On ch=1 n=71 v=80
53976 Off ch=1 n=76 v=64
53976 Off ch=1 n=71 v=64
54000 On ch=1 n=76 v=80
54000 On ch=1 n=71 v=80
54216 Off ch=1 n=76 v=64
54216 Off ch=1 n=71 v=64
54240 On ch=1 n=76 v=80
54240 On ch=1 n=71 v=80
54456 Off ch=1 n=76 v=64
54456 Off ch=1 n=71 v=64
54480 On ch=1 n=78 v=80
54480 On ch=1 n=73 v=80
54696 Off ch=1 n=78 v=64
54696 Off ch=1 n=73 v=64
54720 On ch=1 n=78 v=80
54720 On ch=1 n=73 v=80
55584 Off ch=1 n=78 v=64
55584 Off ch=1 n=73 v=64
55680 On ch=1 n=76 v=80
55680 On ch=1 n=71 v=80
55896 Off ch=1 n=76 v=64
55896 Off ch=1 n=71 v=64
55920 On ch=1 n=78 v=80
55920 On ch=1 n=73 v=80
56352 Off ch=1 n=78 v=64
56352 Off ch=1 n=73 v=64
56400 On ch=1 n=85 v=80
56400 On ch=1 n=81 v=80
56616 Off ch=1 n=85 v=64
56616 Off ch=1 n=81 v=64
56640 On ch=1 n=83 v=80
56640 On ch=1 n=80 v=80
57336 Off ch=1 n=83 v=64
57336 Off ch=1 n=80 v=64
57360 On ch=1 n=78 v=80
57360 On ch=1 n=73 v=80
57816 Off ch=1 n=78 v=64
57816 Off ch=1 n=73 v=64
57840 On ch=1 n=78 v=80
57840 On ch=1 n=73 v=80
58056 Off ch=1 n=78 v=64
58056 Off ch=1 n=73 v=64
58080 On ch=1 n=78 v=80
58080 On ch=1 n=73 v=80
58296 Off ch=1 n=78 v=64
58296 Off ch=1 n=73 v=64
58320 On ch=1 n=85 v=80
58320 On ch=1 n=81 v=80
58536 Off ch=1 n=85 v=64
58536 Off ch=1 n=81 v=64
58560 On ch=1 n=83 v=80
58560 On ch=1 n=80 v=80
59424 Off ch=1 n=83 v=64
59424 Off ch=1 n=80 v=64
59760 On ch=1 n=83 v=80
59760 On ch=1 n=80 v=80
59976 Off ch=1 n=83 v=64
59976 Off ch=1 n=80 v=64
60000 On ch=1 n=83 v=80
60000 On ch=1 n=80 v=80
60216 Off ch=1 n=83 v=64
60216 Off ch=1 n=80 v=64
60240 On ch=1 n=82 v=80
60240 On ch=1 n=78 v=80
60456 Off ch=1 n=82 v=64
60456 Off ch=1 n=78 v=64
60480 On ch=1 n=83 v=80
60480 On ch=1 n=80 v=80
60696 Off ch=1 n=83 v=64
60696 Off ch=1 n=80 v=64
60720 On ch=1 n=81 v=80
60720 On ch=1 n=76 v=80
60828 Off ch=1 n=81 v=64
60828 Off ch=1 n=76 v=64
60840 On ch=1 n=78 v=80
60840 On ch=1 n=73 v=80
61176 Off ch=1 n=78 v=64
61176 Off ch=1 n=73 v=64
61200 On ch=1 n=76 v=80
61200 On ch=1 n=71 v=80
61656 Off ch=1 n=76 v=64
61656 Off ch=1 n=71 v=64
61680 On ch=1 n=78 v=80
61680 On ch=1 n=73 v=80
61896 Off ch=1 n=78 v=64
61896 Off ch=1 n=73 v=64
61920 On ch=1 n=78 v=80
61920 On ch=1 n=73 v=80
62136 Off ch=1 n=78 v=64
62136 Off ch=1 n=73 v=64
62160 On ch=1 n=76 v=80
62160 On ch=1 n=71 v=80
62376 Off ch=1 n=76 v=64
62376 Off ch=1 n=71 v=64
62400 On ch=1 n=78 v=80
62400 On ch=1 n=73 v=80
63096 Off ch=1 n=78 v=64
63096 Off ch=1 n=73 v=64
63120 On ch=1 n=73 v=80
63228 Off ch=1 n=73 v=64
63240 On ch=1 n=76 v=80
63348 Off ch=1 n=76 v=64
63360 On ch=1 n=78 v=80
63360 On ch=1 n=74 v=80
63576 Off ch=1 n=78 v=64
63576 Off ch=1 n=74 v=64
63600 On ch=1 n=78 v=80
63600 On ch=1 n=74 v=80
63708 Off ch=1 n=78 v=64
63708 Off ch=1 n=74 v=64
63720 On ch=1 n=78 v=80
63720 On ch=1 n=74 v=80
63828 Off ch=1 n=78 v=64
63828 Off ch=1 n=74 v=64
63840 On ch=1 n=78 v=80
63840 On ch=1 n=74 v=80
64056 Off ch=1 n=78 v=64
64056 Off ch=1 n=74 v=64
64080 On ch=1 n=85 v=80
64080 On ch=1 n=81 v=80
64296 Off ch=1 n=85 v=64
64296 Off ch=1 n=81 v=64
64320 On ch=1 n=85 v=80
64320 On ch=1 n=81 v=80
65016 Off ch=1 n=85 v=64
65016 Off ch=1 n=81 v=64
65040 On ch=1 n=81 v=80
65148 Off ch=1 n=81 v=64
65160 On ch=1 n=81 v=80
65268 Off ch=1 n=81 v=64
65280 On ch=1 n=83 v=80
65280 On ch=1 n=80 v=80
65496 Off ch=1 n=83 v=64
65496 Off ch=1 n=80 v=64
65520 On ch=1 n=81 v=80
65520 On ch=1 n=78 v=80
65628 Off ch=1 n=81 v=64
65628 Off ch=1 n=78 v=64
65640 On ch=1 n=83 v=80
65640 On ch=1 n=80 v=80
65976 Off ch=1 n=83 v=64
65976 Off ch=1 n=80 v=64
66000 On ch=1 n=85 v=80
66000 On ch=1 n=81 v=80
66216 Off ch=1 n=85 v=64
66216 Off ch=1 n=81 v=64
66240 On ch=1 n=78 v=80
66240 On ch=1 n=73 v=80
66936 Off ch=1 n=78 v=64
66936 Off ch=1 n=73 v=64
66960 On ch=1 n=76 v=80
67068 Off ch=1 n=76 v=64
67080 On ch=1 n=76 v=80
67188 Off ch=1 n=76 v=64
67200 On ch=1 n=78 v=80
67200 On ch=1 n=74 v=80
67632 Off ch=1 n=78 v=64
67632 Off ch=1 n=74 v=64
67680 On ch=1 n=85 v=80
67680 On ch=1 n=81 v=80
68028 Off ch=1 n=85 v=64
68028 Off ch=1 n=81 v=64
68040 On ch=1 n=85 v=80
68040 On ch=1 n=81 v=80
68148 Off ch=1 n=85 v=64
68148 Off ch=1 n=81 v=64
68160 On ch=1 n=83 v=80
68160 On ch=1 n=80 v=80
68160 On ch=1 n=76 v=80
68376 Off ch=1 n=83 v=64
68376 Off ch=1 n=80 v=64
68376 Off ch=1 n=76 v=64
68400 On ch=1 n=81 v=80
68400 On ch=1 n=76 v=80
68616 Off ch=1 n=81 v=64
68616 Off ch=1 n=76 v=64
68640 On ch=1 n=78 v=80
68640 On ch=1 n=73 v=80
68856 Off ch=1 n=78 v=64
68856 Off ch=1 n=73 v=64
68880 On ch=1 n=76 v=80
68880 On ch=1 n=71 v=80
69096 Off ch=1 n=76 v=64
69096 Off ch=1 n=71 v=64
69120 On ch=1 n=78 v=80
69120 On ch=1 n=73 v=80
69468 Off ch=1 n=78 v=64
69468 Off ch=1 n=73 v=64
69480 On ch=1 n=78 v=80
69480 On ch=1 n=73 v=80
69816 Off ch=1 n=78 v=64
69816 Off ch=1 n=73 v=64
69840 On ch=1 n=81 v=80
69840 On ch=1 n=78 v=80
70056 Off ch=1 n=81 v=64
70056 Off ch=1 n=78 v=64
70080 On ch=1 n=83 v=80
70080 On ch=1 n=80 v=80
70944 Off ch=1 n=83 v=64
70944 Off ch=1 n=80 v=64
71040 On ch=1 n=78 v=80
71040 On ch=1 n=73 v=80
71256 Off ch=1 n=78 v=64
71256 Off ch=1 n=73 v=64
71280 On ch=1 n=78 v=80
71280 On ch=1 n=73 v=80
71388 Off ch=1 n=78 v=64
71388 Off ch=1 n=73 v=64
71400 On ch=1 n=78 v=80
71400 On ch=1 n=73 v=80
71736 Off ch=1 n=78 v=64
71736 Off ch=1 n=73 v=64
71760 On ch=1 n=76 v=80
71760 On ch=1 n=71 v=80
71868 Off ch=1 n=76 v=64
71868 Off ch=1 n=71 v=64
71880 On ch=1 n=76 v=80
71880 On ch=1 n=71 v=80
71988 Off ch=1 n=76 v=64
71988 Off ch=1 n=71 v=64
72000 On ch=1 n=78 v=80
72000 On ch=1 n=73 v=80
72216 Off ch=1 n=78 v=64
72216 Off ch=1 n=73 v=64
72240 On ch=1 n=85 v=80
72240 On ch=1 n=81 v=80
72672 Off ch=1 n=85 v=64
72672 Off ch=1 n=81 v=64
72720 On ch=1 n=81 v=80
72720 On ch=1 n=78 v=80
72936 Off ch=1 n=81 v=64
72936 Off ch=1 n=78 v=64
72960 On ch=1 n=83 v=80
72960 On ch=1 n=80 v=80
73176 Off ch=1 n=83 v=64
73176 Off ch=1 n=80 v=64
73200 On ch=1 n=81 v=80
73200 On ch=1 n=78 v=80
73308 Off ch=1 n=81 v=64
73308 Off ch=1 n=78 v=64
73320 On ch=1 n=83 v=80
73320 On ch=1 n=80 v=80
73656 Off ch=1 n=83 v=64
73656 Off ch=1 n=80 v=64
73680 On ch=1 n=85 v=80
73680 On ch=1 n=81 v=80
73896 Off ch=1 n=85 v=64
73896 Off ch=1 n=81 v=64
73920 On ch=1 n=85 v=80
73920 On ch=1 n=81 v=80
74616 Off ch=1 n=85 v=64
74616 Off ch=1 n=81 v=64
74640 On ch=1 n=76 v=80
74640 On ch=1 n=71 v=80
74748 Off ch=1 n=76 v=64
74748 Off ch=1 n=71 v=64
74760 On ch=1 n=76 v=80
74760 On ch=1 n=71 v=80
74868 Off ch=1 n=76 v=64
74868 Off ch=1 n=71 v=64
74880 On ch=1 n=78 v=80
74880 On ch=1 n=73 v=80
75096 Off ch=1 n=78 v=64
75096 Off ch=1 n=73 v=64
75120 On ch=1 n=81 v=80
75120 On ch=1 n=78 v=80
75576 Off ch=1 n=81 v=64
75576 Off ch=1 n=78 v=64
75600 On ch=1 n=76 v=80
75600 On ch=1 n=71 v=80
75708 Off ch=1 n=76 v=64
75708 Off ch=1 n=71 v=64
75720 On ch=1 n=76 v=80
75720 On ch=1 n=71 v=80
75828 Off ch=1 n=76 v=64
75828 Off ch=1 n=71 v=64
75840 On ch=1 n=78 v=80
75840 On ch=1 n=73 v=80
76056 Off ch=1 n=78 v=64
76056 Off ch=1 n=73 v=64
76080 On ch=1 n=85 v=80
76080 On ch=1 n=81 v=80
76512 Off ch=1 n=85 v=64
76512 Off ch=1 n=81 v=64
76560 On ch=1 n=85 v=80
76560 On ch=1 n=81 v=80
76668 Off ch=1 n=85 v=64
76668 Off ch=1 n=81 v=64
76680 On ch=1 n=83 v=80
76680 On ch=1 n=80 v=80
76788 Off ch=1 n=83 v=64
76788 Off ch=1 n=80 v=64
76800 On ch=1 n=81 v=80
76800 On ch=1 n=78 v=80
77016 Off ch=1 n=81 v=64
77016 Off ch=1 n=78 v=64
77040 On ch=1 n=80 v=80
77040 On ch=1 n=76 v=80
77256 Off ch=1 n=80 v=64
77256 Off ch=1 n=76 v=64
77280 On ch=1 n=78 v=80
77280 On ch=1 n=73 v=80
77496 Off ch=1 n=78 v=64
77496 Off ch=1 n=73 v=64
77520 On ch=1 n=76 v=80
77520 On ch=1 n=71 v=80
77736 Off ch=1 n=76 v=64
77736 Off ch=1 n=71 v=64
77760 On ch=1 n=78 v=80
77760 On ch=1 n=73 v=80
78624 Off ch=1 n=78 v=64
78624 Off ch=1 n=73 v=64
78720 On ch=1 n=78 v=80
78720 On ch=1 n=73 v=80
78720 On ch=1 n=66 v=80
79152 Off ch=1 n=78 v=64
79152 Off ch=1 n=73 v=64
79152 Off ch=1 n=66 v=64
79200 On ch=1 n=78 v=80
79200 On ch=1 n=73 v=80
79200 On ch=1 n=66 v=80
79632 Off ch=1 n=78 v=64
79632 Off ch=1 n=73 v=64
79632 Off ch=1 n=66 v=64
79680 On ch=1 n=78 v=80
79680 On ch=1 n=73 v=80
79680 On ch=1 n=66 v=80
80112 Off ch=1 n=78 v=64
80112 Off ch=1 n=73 v=64
80112 Off ch=1 n=66 v=64
80160 On ch=1 n=78 v=80
80160 On ch=1 n=73 v=80
80160 On ch=1 n=66 v=80
80268 Off ch=1 n=78 v=64
80268 Off ch=1 n=73 v=64
80268 Off ch=1 n=66 v=64
80280 On ch=1 n=81 v=80
80280 On ch=1 n=78 v=80
80280 On ch=1 n=69 v=80
80388 Off ch=1 n=81 v=64
80388 Off ch=1 n=78 v=64
80388 Off ch=1 n=69 v=64
80400 On ch=1 n=83 v=80
80400 On ch=1 n=80 v=80
80400 On ch=1 n=71 v=80
80508 Off ch=1 n=83 v=64
80508 Off ch=1 n=80 v=64
80508 Off ch=1 n=71 v=64
80520 On ch=1 n=85 v=80
80520 On ch=1 n=81 v=80
80520 On ch=1 n=73 v=80
80628 Off ch=1 n=85 v=64
80628 Off ch=1 n=81 v=64
80628 Off ch=1 n=73 v=64
80640 On ch=1 n=78 v=80
80640 On ch=1 n=73 v=80
80640 On ch=1 n=66 v=80
81072 Off ch=1 n=78 v=64
81072 Off ch=1 n=73 v=64
81072 Off ch=1 n=66 v=64
81120 On ch=1 n=78 v=80
81120 On ch=1 n=73 v=80
81120 On ch=1 n=66 v=80
81552 Off ch=1 n=78 v=64
81552 Off ch=1 n=73 v=64
81552 Off ch=1 n=66 v=64
81600 On ch=1 n=78 v=80
81600 On ch=1 n=73 v=80
81600 On ch=1 n=66 v=80
81816 Off ch=1 n=78 v=64
81816 Off ch=1 n=73 v=64
81816 Off ch=1 n=66 v=64
81840 On ch=1 n=76 v=80
81840 On ch=1 n=71 v=80
81840 On ch=1 n=64 v=80
82056 Off ch=1 n=76 v=64
82056 Off ch=1 n=71 v=64
82056 Off ch=1 n=64 v=64
82080 On ch=1 n=76 v=80
82080 On ch=1 n=71 v=80
82080 On ch=1 n=64 v=80
82296 Off ch=1 n=76 v=64
82296 Off ch=1 n=71 v=64
82296 Off ch=1 n=64 v=64
82320 On ch=1 n=78 v=80
82320 On ch=1 n=73 v=80
82320 On ch=1 n=66 v=80
82536 Off ch=1 n=78 v=64
82536 Off ch=1 n=73 v=64
82536 Off ch=1 n=66 v=64
82560 On ch=1 n=78 v=80
82560 On ch=1 n=73 v=80
82560 On ch=1 n=66 v=80
82992 Off ch=1 n=78 v=64
82992 Off ch=1 n=73 v=64
82992 Off ch=1 n=66 v=64
83040 On ch=1 n=78 v=80
83040 On ch=1 n=73 v=80
83040 On ch=1 n=66 v=80
83472 Off ch=1 n=78 v=64
83472 Off ch=1 n=73 v=64
83472 Off ch=1 n=66 v=64
83520 On ch=1 n=78 v=80
83520 On ch=1 n=73 v=80
83520 On ch=1 n=66 v=80
83952 Off ch=1 n=78 v=64
83952 Off ch=1 n=73 v=64
83952 Off ch=1 n=66 v=64
84000 On ch=1 n=78 v=80
84000 On ch=1 n=73 v=80
84000 On ch=1 n=66 v=80
84108 Off ch=1 n=78 v=64
84108 Off ch=1 n=73 v=64
84108 Off ch=1 n=66 v=64
84120 On ch=1 n=81 v=80
84120 On ch=1 n=78 v=80
84120 On ch=1 n=69 v=80
84228 Off ch=1 n=81 v=64
84228 Off ch=1 n=78 v=64
84228 Off ch=1 n=69 v=64
84240 On ch=1 n=83 v=80
84240 On ch=1 n=80 v=80
84240 On ch=1 n=71 v=80
84348 Off ch=1 n=83 v=64
84348 Off ch=1 n=80 v=64
84348 Off ch=1 n=71 v=64
84360 On ch=1 n=85 v=80
84360 On ch=1 n=81 v=80
84360 On ch=1 n=73 v=80
84468 Off ch=1 n=85 v=64
84468 Off ch=1 n=81 v=64
84468 Off ch=1 n=73 v=64
84480 On ch=1 n=78 v=80
84480 On ch=1 n=73 v=80
84480 On ch=1 n=66 v=80
84912 Off ch=1 n=78 v=64
84912 Off ch=1 n=73 v=64
84912 Off ch=1 n=66 v=64
84960 On ch=1 n=78 v=80
84960 On ch=1 n=73 v=80
84960 On ch=1 n=66 v=80
85392 Off ch=1 n=78 v=64
85392 Off ch=1 n=73 v=64
85392 Off ch=1 n=66 v=64
85440 On ch=1 n=78 v=80
85440 On ch=1 n=73 v=80
85440 On ch=1 n=66 v=80
85656 Off ch=1 n=78 v=64
85656 Off ch=1 n=73 v=64
85656 Off ch=1 n=66 v=64
85680 On ch=1 n=86 v=80
85680 On ch=1 n=81 v=80
85680 On ch=1 n=74 v=80
86112 Off ch=1 n=86 v=64
86112 Off ch=1 n=81 v=64
86112 Off ch=1 n=74 v=64
86160 On ch=1 n=85 v=80
86160 On ch=1 n=80 v=80
86160 On ch=1 n=73 v=80
86376 Off ch=1 n=85 v=64
86376 Off ch=1 n=80 v=64
86376 Off ch=1 n=73 v=64
86400 On ch=1 n=78 v=80
86400 On ch=1 n=73 v=80
86400 On ch=1 n=66 v=80
86832 Off ch=1 n=78 v=64
86832 Off ch=1 n=73 v=64
86832 Off ch=1 n=66 v=64
86880 On ch=1 n=78 v=80
86880 On ch=1 n=73 v=80
86880 On ch=1 n=66 v=80
87312 Off ch=1 n=78 v=64
87312 Off ch=1 n=73 v=64
87312 Off ch=1 n=66 v=64
87360 On ch=1 n=78 v=80
87360 On ch=1 n=73 v=80
87360 On ch=1 n=66 v=80
87792 Off ch=1 n=78 v=64
87792 Off ch=1 n=73 v=64
87792 Off ch=1 n=66 v=64
87840 On ch=1 n=78 v=80
87840 On ch=1 n=73 v=80
87840 On ch=1 n=66 v=80
87948 Off ch=1 n=78 v=64
87948 Off ch=1 n=73 v=64
87948 Off ch=1 n=66 v=64
87960 On ch=1 n=81 v=80
87960 On ch=1 n=78 v=80
87960 On ch=1 n=69 v=80
88068 Off ch=1 n=81 v=64
88068 Off ch=1 n=78 v=64
88068 Off ch=1 n=69 v=64
88080 On ch=1 n=83 v=80
88080 On ch=1 n=80 v=80
88080 On ch=1 n=71 v=80
88188 Off ch=1 n=83 v=64
88188 Off ch=1 n=80 v=64
88188 Off ch=1 n=71 v=64
88200 On ch=1 n=85 v=80
88200 On ch=1 n=81 v=80
88200 On ch=1 n=73 v=80
88308 Off ch=1 n=85 v=64
88308 Off ch=1 n=81 v=64
88308 Off ch=1 n=73 v=64
88320 On ch=1 n=78 v=80
88320 On ch=1 n=73 v=80
88320 On ch=1 n=66 v=80
88752 Off ch=1 n=78 v=64
88752 Off ch=1 n=73 v=64
88752 Off ch=1 n=66 v=64
88800 On ch=1 n=78 v=80
88800 On ch=1 n=73 v=80
88800 On ch=1 n=66 v=80
89232 Off ch=1 n=78 v=64
89232 Off ch=1 n=73 v=64
89232 Off ch=1 n=66 v=64
89280 On ch=1 n=78 v=80
89280 On ch=1 n=73 v=80
89280 On ch=1 n=66 v=80
89496 Off ch=1 n=78 v=64
89496 Off ch=1 n=73 v=64
89496 Off ch=1 n=66 v=64
89520 On ch=1 n=76 v=80
89520 On ch=1 n=71 v=80
89520 On ch=1 n=64 v=80
89736 Off ch=1 n=76 v=64
89736 Off ch=1 n=71 v=64
89736 Off ch=1 n=64 v=64
89760 On ch=1 n=76 v=80
89760 On ch=1 n=71 v=80
89760 On ch=1 n=64 v=80
89976 Off ch=1 n=76 v=64
89976 Off ch=1 n=71 v=64
89976 Off ch=1 n=64 v=64
90000 On ch=1 n=78 v=80
90000 On ch=1 n=73 v=80
90000 On ch=1 n=66 v=80
90216 Off ch=1 n=78 v=64
90216 Off ch=1 n=73 v=64
90216 Off ch=1 n=66 v=64
90240 On ch=1 n=78 v=80
90240 On ch=1 n=73 v=80
90240 On ch=1 n=66 v=80
90672 Off ch=1 n=78 v=64
90672 Off ch=1 n=73 v=64
90672 Off ch=1 n=66 v=64
90720 On ch=1 n=78 v=80
90720 On ch=1 n=73 v=80
90720 On ch=1 n=66 v=80
91152 Off ch=1 n=78 v=64
91152 Off ch=1 n=73 v=64
91152 Off ch=1 n=66 v=64
91200 On ch=1 n=78 v=80
91200 On ch=1 n=73 v=80
91200 On ch=1 n=66 v=80
91632 Off ch=1 n=78 v=64
91632 Off ch=1 n=73 v=64
91632 Off ch=1 n=66 v=64
91680 On ch=1 n=78 v=80
91680 On ch=1 n=73 v=80
91680 On ch=1 n=66 v=80
91788 Off ch=1 n=78 v=64
91788 Off ch=1 n=73 v=64
91788 Off ch=1 n=66 v=64
91800 On ch=1 n=81 v=80
91800 On ch=1 n=78 v=80
91800 On ch=1 n=69 v=80
91908 Off ch=1 n=81 v=64
91908 Off ch=1 n=78 v=64
91908 Off ch=1 n=69 v=64
91920 On ch=1 n=83 v=80
91920 On ch=1 n=80 v=80
91920 On ch=1 n=71 v=80
92028 Off ch=1 n=83 v=64
92028 Off ch=1 n=80 v=64
92028 Off ch=1 n=71 v=64
92040 On ch=1 n=85 v=80
92040 On ch=1 n=81 v=80
92040 On ch=1 n=73 v=80
92148 Off ch=1 n=85 v=64
92148 Off ch=1 n=81 v=64
92148 Off ch=1 n=73 v=64
92160 On ch=1 n=90 v=80
92160 On ch=1 n=85 v=80
92160 On ch=1 n=78 v=80
92376 Off ch=1 n=90 v=64
92376 Off ch=1 n=85 v=64
92376 Off ch=1 n=78 v=64
92400 On ch=1 n=85 v=80
92400 On ch=1 n=81 v=80
92400 On ch=1 n=73 v=80
92454 Off ch=1 n=85 v=64
92454 Off ch=1 n=81 v=64
92454 Off ch=1 n=73 v=64
92460 On ch=1 n=83 v=80
92460 On ch=1 n=80 v=80
92460 On ch=1 n=71 v=80
92514 Off ch=1 n=83 v=64
92514 Off ch=1 n=80 v=64
92514 Off ch=1 n=71 v=64
92520 On ch=1 n=81 v=80
92520 On ch=1 n=78 v=80
92520 On ch=1 n=69 v=80
92574 Off ch=1 n=81 v=64
92574 Off ch=1 n=78 v=64
92574 Off ch=1 n=69 v=64
92580 On ch=1 n=80 v=80
92580 On ch=1 n=76 v=80
92580 On ch=1 n=68 v=80
92634 Off ch=1 n=80 v=64
92634 Off ch=1 n=76 v=64
92634 Off ch=1 n=68 v=64
92640 On ch=1 n=78 v=80
92640 On ch=1 n=73 v=80
92640 On ch=1 n=66 v=80
92856 Off ch=1 n=78 v=64
92856 Off ch=1 n=73 v=64
92856 Off ch=1 n=66 v=64
92880 On ch=1 n=76 v=80
92880 On ch=1 n=71 v=80
92880 On ch=1 n=64 v=80
93096 Off ch=1 n=76 v=64
93096 Off ch=1 n=71 v=64
93096 Off ch=1 n=64 v=64
93120 On ch=1 n=76 v=80
93120 On ch=1 n=71 v=80
93120 On ch=1 n=64 v=80
93336 Off ch=1 n=76 v=64
93336 Off ch=1 n=71 v=64
93336 Off ch=1 n=64 v=64
93360 On ch=1 n=78 v=80
93360 On ch=1 n=73 v=80
93360 On ch=1 n=66 v=80
93576 Off ch=1 n=78 v=64
93576 Off ch=1 n=73 v=64
93576 Off ch=1 n=66 v=64
93600 On ch=1 n=78 v=80
93600 On ch=1 n=73 v=80
93600 On ch=1 n=66 v=80
94032 Off ch=1 n=78 v=64
94032 Off ch=1 n=73 v=64
94032 Off ch=1 n=66 v=64
94080 Par ch=1 c=64 v=64
94800 On ch=1 n=78 v=80
95016 Off ch=1 n=78 v=64
95040 On ch=1 n=78 v=80
95256 Off ch=1 n=78 v=64
95280 On ch=1 n=76 v=80
95388 Off ch=1 n=76 v=64
95400 On ch=1 n=76 v=80
95736 Off ch=1 n=76 v=64
95760 On ch=1 n=78 v=80
95976 Off ch=1 n=78 v=64
96000 On ch=1 n=76 v=80
96216 Off ch=1 n=76 v=64
96240 On ch=1 n=73 v=80
96456 Off ch=1 n=73 v=64
96480 On ch=1 n=73 v=80
96696 Off ch=1 n=73 v=64
96720 On ch=1 n=76 v=80
96828 Off ch=1 n=76 v=64
96840 On ch=1 n=73 v=80
97824 Off ch=1 n=73 v=64
98640 On ch=1 n=78 v=80
98856 Off ch=1 n=78 v=64
98880 On ch=1 n=78 v=80
99096 Off ch=1 n=78 v=64
99120 On ch=1 n=76 v=80
99336 Off ch=1 n=76 v=64
99360 On ch=1 n=78 v=80
99576 Off ch=1 n=78 v=64
99600 On ch=1 n=80 v=80
99816 Off ch=1 n=80 v=64
99840 Par ch=1 c=64 v=64
99840 On ch=1 n=81 v=80
100272 Off ch=1 n=81 v=64
100320 On ch=1 n=80 v=80
100752 Off ch=1 n=80 v=64
100800 On ch=1 n=78 v=80
101016 Off ch=1 n=78 v=64
101040 On ch=1 n=80 v=80
101148 Off ch=1 n=80 v=64
101160 On ch=1 n=78 v=80
101268 Off ch=1 n=78 v=64
101280 On ch=1 n=76 v=80
101712 Off ch=1 n=76 v=64
101760 Par ch=1 c=64 v=64
102480 On ch=1 n=78 v=80
102696 Off ch=1 n=78 v=64
102720 On ch=1 n=78 v=80
102936 Off ch=1 n=78 v=64
102960 On ch=1 n=76 v=80
103068 Off ch=1 n=76 v=64
103080 On ch=1 n=76 v=80
103416 Off ch=1 n=76 v=64
103440 On ch=1 n=78 v=80
103656 Off ch=1 n=78 v=64
103680 On ch=1 n=76 v=80
103896 Off ch=1 n=76 v=64
103920 On ch=1 n=73 v=80
104136 Off ch=1 n=73 v=64
104160 On ch=1 n=73 v=80
104376 Off ch=1 n=73 v=64
104400 On ch=1 n=76 v=80
104508 Off ch=1 n=76 v=64
104520 On ch=1 n=73 v=80
105336 Off ch=1 n=73 v=64
105360 On ch=1 n=76 v=80
105576 Off ch=1 n=76 v=64
105600 Par ch=1 c=64 v=0
105600 On ch=1 n=86 v=80
105600 On ch=1 n=81 v=80
105600 On ch=1 n=76 v=80
105600 On ch=1 n=74 v=80
105816 Off ch=1 n=86 v=64
105816 Off ch=1 n=81 v=64
105816 Off ch=1 n=76 v=64
105816 Off ch=1 n=74 v=64
105840 On ch=1 n=86 v=80
105840 On ch=1 n=81 v=80
105840 On ch=1 n=78 v=80
105840 On ch=1 n=74 v=80
106056 Off ch=1 n=86 v=64
106056 Off ch=1 n=81 v=64
106056 Off ch=1 n=78 v=64
106056 Off ch=1 n=74 v=64
106320 On ch=1 n=76 v=80
106536 Off ch=1 n=76 v=64
106560 On ch=1 n=88 v=80
106560 On ch=1 n=83 v=80
106560 On ch=1 n=76 v=80
106560 On ch=1 n=76 v=80
106776 Off ch=1 n=88 v=64
106776 Off ch=1 n=83 v=64
106776 Off ch=1 n=76 v=64
106776 Off ch=1 n=76 v=64
106800 On ch=1 n=88 v=80
106800 On ch=1 n=83 v=80
106800 On ch=1 n=78 v=80
106800 On ch=1 n=76 v=80
107016 Off ch=1 n=88 v=64
107016 Off ch=1 n=83 v=64
107016 Off ch=1 n=78 v=64
107016 Off ch=1 n=76 v=64
107280 Par ch=1 c=64 v=64
107280 On ch=1 n=78 v=80
107388 Off ch=1 n=78 v=64
107400 On ch=1 n=80 v=80
107508 Off ch=1 n=80 v=64
107520 Par ch=1 c=64 v=64
107520 On ch=1 n=81 v=80
107520 On ch=1 n=78 v=80
107520 On ch=1 n=75 v=80
107952 Off ch=1 n=81 v=64
107952 Off ch=1 n=78 v=64
107952 Off ch=1 n=75 v=64
108000 On ch=1 n=83 v=80
108000 On ch=1 n=76 v=80
108432 Off ch=1 n=83 v=64
108432 Off ch=1 n=76 v=64
108480 On ch=1 n=78 v=80
109344 Off ch=1 n=78 v=64
109440 Par ch=1 c=64 v=0
109440 On ch=1 n=76 v=80
109440 On ch=1 n=71 v=80
109656 Off ch=1 n=76 v=64
109656 Off ch=1 n=71 v=64
109680 On ch=1 n=78 v=80
109680 On ch=1 n=73 v=80
110112 Off ch=1 n=78 v=64
110112 Off ch=1 n=73 v=64
110160 On ch=1 n=85 v=80
110160 On ch=1 n=81 v=80
110376 Off ch=1 n=85 v=64
110376 Off ch=1 n=81 v=64
110400 On ch=1 n=83 v=80
110400 On ch=1 n=80 v=80
111096 Off ch=1 n=83 v=64
111096 Off ch=1 n=80 v=64
111120 On ch=1 n=78 v=80
111120 On ch=1 n=73 v=80
111576 Off ch=1 n=78 v=64
111576 Off ch=1 n=73 v=64
111600 On ch=1 n=78 v=80
111600 On ch=1 n=73 v=80
111816 Off ch=1 n=78 v=64
111816 Off ch=1 n=73 v=64
111840 On ch=1 n=78 v=80
111840 On ch=1 n=73 v=80
112056 Off ch=1 n=78 v=64
112056 Off ch=1 n=73 v=64
112080 On ch=1 n=85 v=80
112080 On ch=1 n=81 v=80
112296 Off ch=1 n=85 v=64
112296 Off ch=1 n=81 v=64
112320 On ch=1 n=83 v=80
112320 On ch=1 n=80 v=80
113184 Off ch=1 n=83 v=64
113184 Off ch=1 n=80 v=64
113520 On ch=1 n=83 v=80
113520 On ch=1 n=80 v=80
113736 Off ch=1 n=83 v=64
113736 Off ch=1 n=80 v=64
113760 On ch=1 n=83 v=80
113760 On ch=1 n=80 v=80
113976 Off ch=1 n=83 v=64
113976 Off ch=1 n=80 v=64
114000 On ch=1 n=82 v=80
114000 On ch=1 n=78 v=80
114216 Off ch=1 n=82 v=64
114216 Off ch=1 n=78 v=64
114240 On ch=1 n=83 v=80
114240 On ch=1 n=80 v=80
114456 Off ch=1 n=83 v=64
114456 Off ch=1 n=80 v=64
114480 On ch=1 n=81 v=80
114480 On ch=1 n=76 v=80
114588 Off ch=1 n=81 v=64
114588 Off ch=1 n=76 v=64
114600 On ch=1 n=78 v=80
114600 On ch=1 n=73 v=80
114936 Off ch=1 n=78 v=64
114936 Off ch=1 n=73 v=64
114960 On ch=1 n=76 v=80
114960 On ch=1 n=71 v=80
115176 Off ch=1 n=76 v=64
115176 Off ch=1 n=71 v=64
115200 On ch=1 n=76 v=80
115200 On ch=1 n=71 v=80
115416 Off ch=1 n=76 v=64
115416 Off ch=1 n=71 v=64
115440 On ch=1 n=76 v=80
115440 On ch=1 n=71 v=80
115656 Off ch=1 n=76 v=64
115656 Off ch=1 n=71 v=64
115680 On ch=1 n=76 v=80
115680 On ch=1 n=71 v=80
115896 Off ch=1 n=76 v=64
115896 Off ch=1 n=71 v=64
115920 On ch=1 n=78 v=80
115920 On ch=1 n=73 v=80
116136 Off ch=1 n=78 v=64
116136 Off ch=1 n=73 v=64
116160 On ch=1 n=78 v=80
116160 On ch=1 n=73 v=80
117024 Off ch=1 n=78 v=64
117024 Off ch=1 n=73 v=64
117120 On ch=1 n=76 v=80
117120 On ch=1 n=71 v=80
117336 Off ch=1 n=76 v=64
117336 Off ch=1 n=71 v=64
117360 On ch=1 n=78 v=80
117360 On ch=1 n=73 v=80
117792 Off ch=1 n=78 v=64
117792 Off ch=1 n=73 v=64
117840 On ch=1 n=85 v=80
117840 On ch=1 n=81 v=80
118056 Off ch=1 n=85 v=64
118056 Off ch=1 n=81 v=64
118080 On ch=1 n=83 v=80
118080 On ch=1 n=80 v=80
118776 Off ch=1 n=83 v=64
118776 Off ch=1 n=80 v=64
118800 On ch=1 n=78 v=80
118800 On ch=1 n=73 v=80
119256 Off ch=1 n=78 v=64
119256 Off ch=1 n=73 v=64
119280 On ch=1 n=78 v=80
119280 On ch=1 n=73 v=80
119496 Off ch=1 n=78 v=64
119496 Off ch=1 n=73 v=64
119520 On ch=1 n=78 v=80
119520 On ch=1 n=73 v=80
119736 Off ch=1 n=78 v=64
119736 Off ch=1 n=73 v=64
119760 On ch=1 n=85 v=80
119760 On ch=1 n=81 v=80
119976 Off ch=1 n=85 v=64
119976 Off ch=1 n=81 v=64
120000 On ch=1 n=83 v=80
120000 On ch=1 n=80 v=80
120864 Off ch=1 n=83 v=64
120864 Off ch=1 n=80 v=64
121200 On ch=1 n=83 v=80
121200 On ch=1 n=80 v=80
121416 Off ch=1 n=83 v=64
121416 Off ch=1 n=80 v=64
121440 On ch=1 n=83 v=80
121440 On ch=1 n=80 v=80
121656 Off ch=1 n=83 v=64
121656 Off ch=1 n=80 v=64
121680 On ch=1 n=82 v=80
121680 On ch=1 n=78 v=80
121896 Off ch=1 n=82 v=64
121896 Off ch=1 n=78 v=64
121920 On ch=1 n=83 v=80
121920 On ch=1 n=80 v=80
122136 Off ch=1 n=83 v=64
122136 Off ch=1 n=80 v=64
122160 On ch=1 n=81 v=80
122160 On ch=1 n=76 v=80
122268 Off ch=1 n=81 v=64
122268 Off ch=1 n=76 v=64
122280 On ch=1 n=78 v=80
122280 On ch=1 n=73 v=80
122616 Off ch=1 n=78 v=64
122616 Off ch=1 n=73 v=64
122640 On ch=1 n=76 v=80
122640 On ch=1 n=71 v=80
123096 Off ch=1 n=76 v=64
123096 Off ch=1 n=71 v=64
123120 On ch=1 n=78 v=80
123120 On ch=1 n=73 v=80
123336 Off ch=1 n=78 v=64
123336 Off ch=1 n=73 v=64
123360 On ch=1 n=78 v=80
123360 On ch=1 n=73 v=80
123576 Off ch=1 n=78 v=64
123576 Off ch=1 n=73 v=64
123600 On ch=1 n=76 v=80
123600 On ch=1 n=71 v=80
123816 Off ch=1 n=76 v=64
123816 Off ch=1 n=71 v=64
123840 On ch=1 n=78 v=80
123840 On ch=1 n=73 v=80
124536 Off ch=1 n=78 v=64
124536 Off ch=1 n=73 v=64
124560 On ch=1 n=73 v=80
124668 Off ch=1 n=73 v=64
124680 On ch=1 n=76 v=80
124788 Off ch=1 n=76 v=64
124800 On ch=1 n=78 v=80
124800 On ch=1 n=74 v=80
125016 Off ch=1 n=78 v=64
125016 Off ch=1 n=74 v=64
125040 On ch=1 n=78 v=80
125040 On ch=1 n=74 v=80
125148 Off ch=1 n=78 v=64
125148 Off ch=1 n=74 v=64
125160 On ch=1 n=78 v=80
125160 On ch=1 n=74 v=80
125268 Off ch=1 n=78 v=64
125268 Off ch=1 n=74 v=64
125280 On ch=1 n=78 v=80
125280 On ch=1 n=74 v=80
125496 Off ch=1 n=78 v=64
125496 Off ch=1 n=74 v=64
125520 On ch=1 n=85 v=80
125520 On ch=1 n=81 v=80
125736 Off ch=1 n=85 v=64
125736 Off ch=1 n=81 v=64
125760 On ch=1 n=85 v=80
125760 On ch=1 n=81 v=80
126456 Off ch=1 n=85 v=64
126456 Off ch=1 n=81 v=64
126480 On ch=1 n=81 v=80
126588 Off ch=1 n=81 v=64
126600 On ch=1 n=81 v=80
126708 Off ch=1 n=81 v=64
126720 On ch=1 n=83 v=80
126720 On ch=1 n=80 v=80
126936 Off ch=1 n=83 v=64
126936 Off ch=1 n=80 v=64
126960 On ch=1 n=81 v=80
126960 On ch=1 n=78 v=80
127068 Off ch=1 n=81 v=64
127068 Off ch=1 n=78 v=64
127080 On ch=1 n=83 v=80
127080 On ch=1 n=80 v=80
127416 Off ch=1 n=83 v=64
127416 Off ch=1 n=80 v=64
127440 On ch=1 n=85 v=80
127440 On ch=1 n=81 v=80
127656 Off ch=1 n=85 v=64
127656 Off ch=1 n=81 v=64
127680 On ch=1 n=78 v=80
127680 On ch=1 n=73 v=80
128376 Off ch=1 n=78 v=64
128376 Off ch=1 n=73 v=64
128400 On ch=1 n=76 v=80
128508 Off ch=1 n=76 v=64
128520 On ch=1 n=76 v=80
128628 Off ch=1 n=76 v=64
128640 On ch=1 n=78 v=80
128640 On ch=1 n=74 v=80
129072 Off ch=1 n=78 v=64
129072 Off ch=1 n=74 v=64
129120 On ch=1 n=85 v=80
129120 On ch=1 n=81 v=80
129468 Off ch=1 n=85 v=64
129468 Off ch=1 n=81 v=64
129480 On ch=1 n=85 v=80
129480 On ch=1 n=81 v=80
129588 Off ch=1 n=85 v=64
129588 Off ch=1 n=81 v=64
129600 On ch=1 n=83 v=80
129600 On ch=1 n=80 v=80
129816 Off ch=1 n=83 v=64
129816 Off ch=1 n=80 v=64
129840 On ch=1 n=81 v=80
129840 On ch=1 n=76 v=80
130056 Off ch=1 n=81 v=64
130056 Off ch=1 n=76 v=64
130080 On ch=1 n=78 v=80
130080 On ch=1 n=73 v=80
130296 Off ch=1 n=78 v=64
130296 Off ch=1 n=73 v=64
130320 On ch=1 n=76 v=80
130320 On ch=1 n=71 v=80
130536 Off ch=1 n=76 v=64
130536 Off ch=1 n=71 v=64
130560 On ch=1 n=78 v=80
130560 On ch=1 n=73 v=80
130908 Off ch=1 n=78 v=64
130908 Off ch=1 n=73 v=64
130920 On ch=1 n=78 v=80
130920 On ch=1 n=73 v=80
131256 Off ch=1 n=78 v=64
131256 Off ch=1 n=73 v=64
131280 On ch=1 n=81 v=80
131280 On ch=1 n=78 v=80
131496 Off ch=1 n=81 v=64
131496 Off ch=1 n=78 v=64
131520 On ch=1 n=83 v=80
131520 On ch=1 n=80 v=80
132384 Off ch=1 n=83 v=64
132384 Off ch=1 n=80 v=64
132480 On ch=1 n=78 v=80
132480 On ch=1 n=73 v=80
132696 Off ch=1 n=78 v=64
132696 Off ch=1 n=73 v=64
132720 On ch=1 n=78 v=80
132720 On ch=1 n=73 v=80
132828 Off ch=1 n=78 v=64
132828 Off ch=1 n=73 v=64
132840 On ch=1 n=78 v=80
132840 On ch=1 n=73 v=80
133176 Off ch=1 n=78 v=64
133176 Off ch=1 n=73 v=64
133200 On ch=1 n=76 v=80
133200 On ch=1 n=71 v=80
133308 Off ch=1 n=76 v=64
133308 Off ch=1 n=71 v=64
133320 On ch=1 n=76 v=80
133320 On ch=1 n=71 v=80
133428 Off ch=1 n=76 v=64
133428 Off ch=1 n=71 v=64
133440 On ch=1 n=78 v=80
133440 On ch=1 n=73 v=80
133656 Off ch=1 n=78 v=64
133656 Off ch=1 n=73 v=64
133680 On ch=1 n=85 v=80
133680 On ch=1 n=81 v=80
134112 Off ch=1 n=85 v=64
134112 Off ch=1 n=81 v=64
134160 On ch=1 n=81 v=80
134160 On ch=1 n=78 v=80
134376 Off ch=1 n=81 v=64
134376 Off ch=1 n=78 v=64
134400 On ch=1 n=83 v=80
134400 On ch=1 n=80 v=80
134616 Off ch=1 n=83 v=64
134616 Off ch=1 n=80 v=64
134640 On ch=1 n=81 v=80
134640 On ch=1 n=78 v=80
134748 Off ch=1 n=81 v=64
134748 Off ch=1 n=78 v=64
134760 On ch=1 n=83 v=80
134760 On ch=1 n=80 v=80
135096 Off ch=1 n=83 v=64
135096 Off ch=1 n=80 v=64
135120 On ch=1 n=85 v=80
135120 On ch=1 n=81 v=80
135336 Off ch=1 n=85 v=64
135336 Off ch=1 n=81 v=64
135360 On ch=1 n=85 v=80
135360 On ch=1 n=81 v=80
136056 Off ch=1 n=85 v=64
136056 Off ch=1 n=81 v=64
136080 On ch=1 n=76 v=80
136080 On ch=1 n=71 v=80
136188 Off ch=1 n=76 v=64
136188 Off ch=1 n=71 v=64
136200 On ch=1 n=76 v=80
136200 On ch=1 n=71 v=80
136308 Off ch=1 n=76 v=64
136308 Off ch=1 n=71 v=64
136320 On ch=1 n=78 v=80
136320 On ch=1 n=73 v=80
136428 Off ch=1 n=73 v=64
136536 Off ch=1 n=78 v=64
136560 On ch=1 n=81 v=80
136560 On ch=1 n=78 v=80
137016 Off ch=1 n=81 v=64
137016 Off ch=1 n=78 v=64
137040 On ch=1 n=76 v=80
137040 On ch=1 n=71 v=80
137148 Off ch=1 n=76 v=64
137148 Off ch=1 n=71 v=64
137160 On ch=1 n=76 v=80
137160 On ch=1 n=71 v=80
137268 Off ch=1 n=76 v=64
137268 Off ch=1 n=71 v=64
137280 On ch=1 n=78 v=80
137280 On ch=1 n=73 v=80
137496 Off ch=1 n=78 v=64
137496 Off ch=1 n=73 v=64
137520 On ch=1 n=85 v=80
137520 On ch=1 n=81 v=80
137952 Off ch=1 n=85 v=64
137952 Off ch=1 n=81 v=64
138000 On ch=1 n=85 v=80
138000 On ch=1 n=81 v=80
138108 Off ch=1 n=85 v=64
138108 Off ch=1 n=81 v=64
138120 On ch=1 n=83 v=80
138120 On ch=1 n=80 v=80
138228 Off ch=1 n=83 v=64
138228 Off ch=1 n=80 v=64
138240 On ch=1 n=81 v=80
138240 On ch=1 n=78 v=80
138240 On ch=1 n=69 v=80
138240 On ch=1 n=66 v=80
138456 Off ch=1 n=81 v=64
138456 Off ch=1 n=78 v=64
138456 Off ch=1 n=69 v=64
138456 Off ch=1 n=66 v=64
138480 On ch=1 n=80 v=80
138480 On ch=1 n=76 v=80
138480 On ch=1 n=68 v=80
138480 On ch=1 n=64 v=80
138696 Off ch=1 n=80 v=64
138696 Off ch=1 n=76 v=64
138696 Off ch=1 n=68 v=64
138696 Off ch=1 n=64 v=64
138720 On ch=1 n=78 v=80
138720 On ch=1 n=73 v=80
138720 On ch=1 n=66 v=80
138720 On ch=1 n=61 v=80
138936 Off ch=1 n=78 v=64
138936 Off ch=1 n=73 v=64
138936 Off ch=1 n=66 v=64
138936 Off ch=1 n=61 v=64
138960 On ch=1 n=76 v=80
138960 On ch=1 n=71 v=80
138960 On ch=1 n=64 v=80
138960 On ch=1 n=61 v=80
139176 Off ch=1 n=76 v=64
139176 Off ch=1 n=71 v=64
139176 Off ch=1 n=64 v=64
139176 Off ch=1 n=61 v=64
139200 On ch=1 n=61 v=80
139200 On ch=1 n=66 v=80
139200 On ch=1 n=73 v=80
139200 On ch=1 n=78 v=80
140064 Off ch=1 n=61 v=64
140064 Off ch=1 n=66 v=64
140064 Off ch=1 n=73 v=64
140064 Off ch=1 n=78 v=64
142080 Par ch=1 c=64 v=64
142080 On ch=1 n=64 v=80
142512 Off ch=1 n=64 v=64
142560 On ch=1 n=78 v=80
142560 On ch=1 n=66 v=80
143952 Off ch=1 n=78 v=64
143952 Off ch=1 n=66 v=64
149760 On ch=1 n=64 v=80
150192 Off ch=1 n=64 v=64
150240 On ch=1 n=78 v=80
150240 On ch=1 n=66 v=80
151632 Off ch=1 n=78 v=64
151632 Off ch=1 n=66 v=64
156960 On ch=1 n=73 v=80
156960 On ch=1 n=78 v=80
157032 Off ch=1 n=73 v=64
157032 Off ch=1 n=78 v=64
157040 On ch=1 n=71 v=80
157040 On ch=1 n=76 v=80
157112 Off ch=1 n=71 v=64
157112 Off ch=1 n=76 v=64
157120 On ch=1 n=69 v=80
157120 On ch=1 n=73 v=80
157192 Off ch=1 n=69 v=64
157192 Off ch=1 n=73 v=64
157200 On ch=1 n=66 v=80
157200 On ch=1 n=71 v=80
157272 Off ch=1 n=66 v=64
157272 Off ch=1 n=71 v=64
157280 On ch=1 n=64 v=80
157280 On ch=1 n=69 v=80
157352 Off ch=1 n=64 v=64
157352 Off ch=1 n=69 v=64
157360 On ch=1 n=61 v=80
157360 On ch=1 n=66 v=80
157432 Off ch=1 n=61 v=64
157432 Off ch=1 n=66 v=64
159360 On ch=1 n=64 v=80
159360 On ch=1 n=68 v=80
159360 On ch=1 n=71 v=80
161088 Off ch=1 n=64 v=64
161088 Off ch=1 n=68 v=64
161088 Off ch=1 n=71 v=64
161280 On ch=1 n=66 v=80
161280 On ch=1 n=69 v=80
161280 On ch=1 n=73 v=80
163008 Off ch=1 n=66 v=64
163008 Off ch=1 n=69 v=64
163008 Off ch=1 n=73 v=64
171120 On ch=1 n=73 v=80
171120 On ch=1 n=69 v=80
171336 Off ch=1 n=73 v=64
171336 Off ch=1 n=69 v=64
171360 On ch=1 n=73 v=80
171360 On ch=1 n=69 v=80
171576 Off ch=1 n=73 v=64
171576 Off ch=1 n=69 v=64
171600 On ch=1 n=76 v=80
171600 On ch=1 n=71 v=80
171816 Off ch=1 n=76 v=64
171816 Off ch=1 n=71 v=64
171840 On ch=1 n=76 v=80
171840 On ch=1 n=71 v=80
172056 Off ch=1 n=76 v=64
172056 Off ch=1 n=71 v=64
172080 On ch=1 n=78 v=80
172080 On ch=1 n=73 v=80
172512 Off ch=1 n=78 v=64
172512 Off ch=1 n=73 v=64
172560 On ch=1 n=85 v=80
172560 On ch=1 n=81 v=80
172776 Off ch=1 n=85 v=64
172776 Off ch=1 n=81 v=64
172800 On ch=1 n=83 v=80
172800 On ch=1 n=80 v=80
173496 Off ch=1 n=83 v=64
173496 Off ch=1 n=80 v=64
173520 On ch=1 n=78 v=80
173520 On ch=1 n=73 v=80
173976 Off ch=1 n=78 v=64
173976 Off ch=1 n=73 v=64
174000 On ch=1 n=78 v=80
174000 On ch=1 n=73 v=80
174216 Off ch=1 n=78 v=64
174216 Off ch=1 n=73 v=64
174240 On ch=1 n=78 v=80
174240 On ch=1 n=73 v=80
174456 Off ch=1 n=78 v=64
174456 Off ch=1 n=73 v=64
174480 On ch=1 n=85 v=80
174480 On ch=1 n=81 v=80
174696 Off ch=1 n=85 v=64
174696 Off ch=1 n=81 v=64
174720 On ch=1 n=83 v=80
174720 On ch=1 n=80 v=80
176448 Off ch=1 n=83 v=64
176448 Off ch=1 n=80 v=64
176640 On ch=1 n=81 v=80
176856 Off ch=1 n=81 v=64
176880 On ch=1 n=78 v=80
177096 Off ch=1 n=78 v=64
177120 On ch=1 n=81 v=80
177336 Off ch=1 n=81 v=64
177360 On ch=1 n=83 v=80
177576 Off ch=1 n=83 v=64
177600 On ch=1 n=85 v=80
177816 Off ch=1 n=85 v=64
177840 On ch=1 n=88 v=80
178056 Off ch=1 n=88 v=64
178080 On ch=1 n=85 v=80
178296 Off ch=1 n=85 v=64
178320 On ch=1 n=85 v=80
178428 Off ch=1 n=85 v=64
178440 On ch=1 n=88 v=80
178548 Off ch=1 n=88 v=64
179760 On ch=1 n=73 v=80
179760 On ch=1 n=69 v=80
179976 Off ch=1 n=73 v=64
179976 Off ch=1 n=69 v=64
180000 On ch=1 n=73 v=80
180000 On ch=1 n=69 v=80
180216 Off ch=1 n=73 v=64
180216 Off ch=1 n=69 v=64
180240 On ch=1 n=76 v=80
180240 On ch=1 n=71 v=80
180456 Off ch=1 n=76 v=64
180456 Off ch=1 n=71 v=64
180480 On ch=1 n=76 v=80
180480 On ch=1 n=71 v=80
180696 Off ch=1 n=76 v=64
180696 Off ch=1 n=71 v=64
180720 On ch=1 n=78 v=80
180720 On ch=1 n=73 v=80
181152 Off ch=1 n=78 v=64
181152 Off ch=1 n=73 v=64
181200 On ch=1 n=85 v=80
181200 On ch=1 n=81 v=80
181416 Off ch=1 n=85 v=64
181416 Off ch=1 n=81 v=64
181440 On ch=1 n=83 v=80
181440 On ch=1 n=80 v=80
182136 Off ch=1 n=83 v=64
182136 Off ch=1 n=80 v=64
182160 On ch=1 n=78 v=80
182160 On ch=1 n=73 v=80
182376 Off ch=1 n=78 v=64
182376 Off ch=1 n=73 v=64
182400 On ch=1 n=78 v=80
182400 On ch=1 n=73 v=80
182616 Off ch=1 n=78 v=64
182616 Off ch=1 n=73 v=64
182640 On ch=1 n=78 v=80
182640 On ch=1 n=73 v=80
182856 Off ch=1 n=78 v=64
182856 Off ch=1 n=73 v=64
182880 On ch=1 n=78 v=80
182880 On ch=1 n=73 v=80
183096 Off ch=1 n=78 v=64
183096 Off ch=1 n=73 v=64
183120 On ch=1 n=85 v=80
183120 On ch=1 n=81 v=80
183336 Off ch=1 n=85 v=64
183336 Off ch=1 n=81 v=64
183360 On ch=1 n=83 v=80
183360 On ch=1 n=80 v=80
184224 Off ch=1 n=83 v=64
184224 Off ch=1 n=80 v=64
184320 Par ch=1 c=64 v=0
184560 On ch=1 n=83 v=80
184560 On ch=1 n=80 v=80
184776 Off ch=1 n=83 v=64
184776 Off ch=1 n=80 v=64
184800 On ch=1 n=83 v=80
184800 On ch=1 n=80 v=80
185016 Off ch=1 n=83 v=64
185016 Off ch=1 n=80 v=64
185040 On ch=1 n=82 v=80
185040 On ch=1 n=78 v=80
185256 Off ch=1 n=82 v=64
185256 Off ch=1 n=78 v=64
185280 On ch=1 n=83 v=80
185280 On ch=1 n=80 v=80
185496 Off ch=1 n=83 v=64
185496 Off ch=1 n=80 v=64
185520 On ch=1 n=81 v=80
185520 On ch=1 n=76 v=80
185628 Off ch=1 n=81 v=64
185640 On ch=1 n=78 v=80
185640 On ch=1 n=73 v=80
185736 Off ch=1 n=76 v=64
185976 Off ch=1 n=78 v=64
185976 Off ch=1 n=73 v=64
186000 On ch=1 n=76 v=80
186000 On ch=1 n=71 v=80
186108 Off ch=1 n=76 v=64
186108 Off ch=1 n=71 v=64
186120 On ch=1 n=76 v=80
186120 On ch=1 n=71 v=80
186228 Off ch=1 n=76 v=64
186228 Off ch=1 n=71 v=64
186240 On ch=1 n=59 v=80
186240 On ch=1 n=64 v=80
186240 On ch=1 n=71 v=80
186240 On ch=1 n=76 v=80
186456 Off ch=1 n=59 v=64
186456 Off ch=1 n=64 v=64
186456 Off ch=1 n=71 v=64
186456 Off ch=1 n=76 v=64
186480 On ch=1 n=61 v=80
186480 On ch=1 n=66 v=80
186480 On ch=1 n=73 v=80
186480 On ch=1 n=78 v=80
186696 Off ch=1 n=61 v=64
186696 Off ch=1 n=66 v=64
186696 Off ch=1 n=73 v=64
186696 Off ch=1 n=78 v=64
186720 On ch=1 n=61 v=80
186720 On ch=1 n=66 v=80
186720 On ch=1 n=73 v=80
186720 On ch=1 n=78 v=80
186936 Off ch=1 n=61 v=64
186936 Off ch=1 n=66 v=64
186936 Off ch=1 n=73 v=64
186936 Off ch=1 n=78 v=64
186960 On ch=1 n=59 v=80
186960 On ch=1 n=64 v=80
186960 On ch=1 n=71 v=80
186960 On ch=1 n=76 v=80
187176 Off ch=1 n=59 v=64
187176 Off ch=1 n=64 v=64
187176 Off ch=1 n=71 v=64
187176 Off ch=1 n=76 v=64
187200 On ch=1 n=61 v=80
187200 On ch=1 n=66 v=80
187200 On ch=1 n=73 v=80
187200 On ch=1 n=78 v=80
187632 Off ch=1 n=61 v=64
187632 Off ch=1 n=66 v=64
187632 Off ch=1 n=73 v=64
187632 Off ch=1 n=78 v=64
187680 On ch=1 n=78 v=80
187680 On ch=1 n=73 v=80
187680 On ch=1 n=66 v=80
187680 On ch=1 n=61 v=80
187896 Off ch=1 n=78 v=64
187896 Off ch=1 n=73 v=64
187896 Off ch=1 n=66 v=64
187896 Off ch=1 n=61 v=64
187920 On ch=1 n=85 v=80
187920 On ch=1 n=73 v=80
188028 Off ch=1 n=85 v=64
188028 Off ch=1 n=73 v=64
188040 On ch=1 n=88 v=80
188040 On ch=1 n=76 v=80
188148 Off ch=1 n=88 v=64
188148 Off ch=1 n=76 v=64
188160 Par ch=1 c=64 v=64
188640 On ch=1 n=74 v=80
188640 On ch=1 n=69 v=80
189360 Off ch=1 n=74 v=64
189360 Off ch=1 n=69 v=64
189360 On ch=1 n=74 v=80
189360 On ch=1 n=69 v=80
190008 Off ch=1 n=74 v=64
190008 Off ch=1 n=69 v=64
190080 On ch=1 n=73 v=80
190512 Off ch=1 n=73 v=64
190560 On ch=1 n=64 v=80
190560 On ch=1 n=69 v=80
190560 On ch=1 n=76 v=80
190992 Off ch=1 n=64 v=64
190992 Off ch=1 n=69 v=64
190992 Off ch=1 n=76 v=64
191040 On ch=1 n=69 v=80
191256 Off ch=1 n=69 v=64
191280 On ch=1 n=69 v=80
191280 On ch=1 n=76 v=80
191952 Off ch=1 n=69 v=64
191952 Off ch=1 n=76 v=64
192000 On ch=1 n=69 v=80
192432 Off ch=1 n=69 v=64
192480 On ch=1 n=78 v=80
192480 On ch=1 n=73 v=80
192480 On ch=1 n=66 v=80
192912 Off ch=1 n=78 v=64
192912 Off ch=1 n=73 v=64
192912 Off ch=1 n=66 v=64
192960 On ch=1 n=69 v=80
193176 Off ch=1 n=69 v=64
193200 On ch=1 n=78 v=80
193200 On ch=1 n=73 v=80
193200 On ch=1 n=66 v=80
193632 Off ch=1 n=78 v=64
193632 Off ch=1 n=73 v=64
193632 Off ch=1 n=66 v=64
193680 On ch=1 n=69 v=80
193896 Off ch=1 n=69 v=64
193920 On ch=1 n=73 v=80
193920 On ch=1 n=66 v=80
193920 On ch=1 n=61 v=80
195360 Off ch=1 n=73 v=64
195360 Off ch=1 n=66 v=64
195360 Off ch=1 n=61 v=64
195360 On ch=1 n=64 v=80
195576 Off ch=1 n=64 v=64
195600 On ch=1 n=64 v=80
195816 Off ch=1 n=64 v=64
195840 Par ch=1 c=64 v=0
195840 On ch=1 n=62 v=80
195840 On ch=1 n=66 v=80
195840 On ch=1 n=74 v=80
196704 Off ch=1 n=62 v=64
196704 Off ch=1 n=66 v=64
196704 Off ch=1 n=74 v=64
196800 On ch=1 n=81 v=80
196800 On ch=1 n=73 v=80
196800 On ch=1 n=69 v=80
197496 Off ch=1 n=81 v=64
197496 Off ch=1 n=73 v=64
197496 Off ch=1 n=69 v=64
197520 On ch=1 n=81 v=80
197520 On ch=1 n=73 v=80
197520 On ch=1 n=69 v=80
197736 Off ch=1 n=81 v=64
197736 Off ch=1 n=73 v=64
197736 Off ch=1 n=69 v=64
197760 On ch=1 n=83 v=80
197760 On ch=1 n=80 v=80
198192 Off ch=1 n=83 v=64
198192 Off ch=1 n=80 v=64
198240 On ch=1 n=81 v=80
198240 On ch=1 n=76 v=80
198672 Off ch=1 n=81 v=64
198672 Off ch=1 n=76 v=64
198720 On ch=1 n=78 v=80
198720 On ch=1 n=73 v=80
199152 Off ch=1 n=78 v=64
199152 Off ch=1 n=73 v=64
199200 On ch=1 n=76 v=80
199200 On ch=1 n=71 v=80
199632 Off ch=1 n=76 v=64
199632 Off ch=1 n=71 v=64
201600 On ch=1 n=83 v=80
201600 On ch=1 n=80 v=80
203328 Off ch=1 n=83 v=64
203328 Off ch=1 n=80 v=64
203520 On ch=1 n=90 v=80
203520 On ch=1 n=85 v=80
203520 On ch=1 n=78 v=80
203952 Off ch=1 n=90 v=64
203952 Off ch=1 n=85 v=64
203952 Off ch=1 n=78 v=64
204000 On ch=1 n=90 v=80
204000 On ch=1 n=85 v=80
204000 On ch=1 n=78 v=80
204216 Off ch=1 n=90 v=64
204216 Off ch=1 n=85 v=64
204216 Off ch=1 n=78 v=64
204240 On ch=1 n=90 v=80
204240 On ch=1 n=85 v=80
204240 On ch=1 n=78 v=80
204912 Off ch=1 n=90 v=64
204912 Off ch=1 n=85 v=64
204912 Off ch=1 n=78 v=64
204960 On ch=1 n=88 v=80
204960 On ch=1 n=83 v=80
204960 On ch=1 n=76 v=80
205176 Off ch=1 n=88 v=64
205176 Off ch=1 n=83 v=64
205176 Off ch=1 n=76 v=64
205200 On ch=1 n=88 v=80
205200 On ch=1 n=83 v=80
205200 On ch=1 n=76 v=80
205416 Off ch=1 n=88 v=64
205416 Off ch=1 n=83 v=64
205416 Off ch=1 n=76 v=64
205440 On ch=1 n=90 v=80
205440 On ch=1 n=85 v=80
205440 On ch=1 n=78 v=80
205872 Off ch=1 n=90 v=64
205872 Off ch=1 n=85 v=64
205872 Off ch=1 n=78 v=64
205920 On ch=1 n=85 v=80
205920 On ch=1 n=81 v=80
206784 Off ch=1 n=85 v=64
206784 Off ch=1 n=81 v=64
206880 On ch=1 n=81 v=80
206880 On ch=1 n=78 v=80
207312 Off ch=1 n=81 v=64
207312 Off ch=1 n=78 v=64
207360 On ch=1 n=95 v=80
207360 On ch=1 n=92 v=80
207792 Off ch=1 n=95 v=64
207792 Off ch=1 n=92 v=64
207840 On ch=1 n=93 v=80
207840 On ch=1 n=90 v=80
208056 Off ch=1 n=93 v=64
208056 Off ch=1 n=90 v=64
208080 On ch=1 n=95 v=80
208080 On ch=1 n=92 v=80
208752 Off ch=1 n=95 v=64
208752 Off ch=1 n=92 v=64
208800 On ch=1 n=97 v=80
208800 On ch=1 n=93 v=80
209232 Off ch=1 n=97 v=64
209232 Off ch=1 n=93 v=64
209280 On ch=1 n=97 v=80
209280 On ch=1 n=93 v=80
210720 Off ch=1 n=97 v=64
210720 Off ch=1 n=93 v=64
210720 On ch=1 n=88 v=80
210720 On ch=1 n=83 v=80
210720 On ch=1 n=76 v=80
210936 Off ch=1 n=88 v=64
210936 Off ch=1 n=83 v=64
210936 Off ch=1 n=76 v=64
210960 On ch=1 n=88 v=80
210960 On ch=1 n=83 v=80
210960 On ch=1 n=76 v=80
211176 Off ch=1 n=88 v=64
211176 Off ch=1 n=83 v=64
211176 Off ch=1 n=76 v=64
211200 Par ch=1 c=64 v=64
211200 On ch=1 n=90 v=80
211200 On ch=1 n=85 v=80
211200 On ch=1 n=78 v=80
211632 Off ch=1 n=90 v=64
211632 Off ch=1 n=85 v=64
211632 Off ch=1 n=78 v=64
211680 On ch=1 n=81 v=80
211680 On ch=1 n=78 v=80
212544 Off ch=1 n=81 v=64
212544 Off ch=1 n=78 v=64
212640 On ch=1 n=88 v=80
212640 On ch=1 n=83 v=80
212640 On ch=1 n=76 v=80
212856 Off ch=1 n=88 v=64
212856 Off ch=1 n=83 v=64
212856 Off ch=1 n=76 v=64
212880 On ch=1 n=88 v=80
212880 On ch=1 n=83 v=80
212880 On ch=1 n=76 v=80
213096 Off ch=1 n=88 v=64
213096 Off ch=1 n=83 v=64
213096 Off ch=1 n=76 v=64
213120 On ch=1 n=78 v=80
213120 On ch=1 n=73 v=80
213552 Off ch=1 n=78 v=64
213552 Off ch=1 n=73 v=64
213600 On ch=1 n=85 v=80
213600 On ch=1 n=81 v=80
214464 Off ch=1 n=85 v=64
214464 Off ch=1 n=81 v=64
214560 On ch=1 n=85 v=80
214560 On ch=1 n=81 v=80
214776 Off ch=1 n=85 v=64
214776 Off ch=1 n=81 v=64
214800 On ch=1 n=83 v=80
214800 On ch=1 n=80 v=80
215016 Off ch=1 n=83 v=64
215016 Off ch=1 n=80 v=64
215040 Par ch=1 c=64 v=0
215040 On ch=1 n=81 v=80
215040 On ch=1 n=78 v=80
215472 Off ch=1 n=81 v=64
215472 Off ch=1 n=78 v=64
215520 On ch=1 n=80 v=80
215520 On ch=1 n=76 v=80
215952 Off ch=1 n=80 v=64
215952 Off ch=1 n=76 v=64
216000 On ch=1 n=78 v=80
216000 On ch=1 n=73 v=80
216432 Off ch=1 n=78 v=64
216432 Off ch=1 n=73 v=64
216480 On ch=1 n=76 v=80
216480 On ch=1 n=71 v=80
216912 Off ch=1 n=76 v=64
216912 Off ch=1 n=71 v=64
216960 On ch=1 n=73 v=80
216960 On ch=1 n=78 v=80
218400 Off ch=1 n=73 v=64
218400 Off ch=1 n=78 v=64
218880 On ch=1 n=90 v=80
218880 On ch=1 n=85 v=80
218880 On ch=1 n=78 v=80
219312 Off ch=1 n=90 v=64
219312 Off ch=1 n=85 v=64
219312 Off ch=1 n=78 v=64
219360 On ch=1 n=81 v=80
219360 On ch=1 n=78 v=80
220224 Off ch=1 n=81 v=64
220224 Off ch=1 n=78 v=64
220320 On ch=1 n=88 v=80
220320 On ch=1 n=83 v=80
220320 On ch=1 n=76 v=80
220536 Off ch=1 n=88 v=64
220536 Off ch=1 n=83 v=64
220536 Off ch=1 n=76 v=64
220560 On ch=1 n=88 v=80
220560 On ch=1 n=83 v=80
220560 On ch=1 n=76 v=80
220776 Off ch=1 n=88 v=64
220776 Off ch=1 n=83 v=64
220776 Off ch=1 n=76 v=64
220800 On ch=1 n=78 v=80
220800 On ch=1 n=73 v=80
221232 Off ch=1 n=78 v=64
221232 Off ch=1 n=73 v=64
221280 On ch=1 n=85 v=80
221280 On ch=1 n=81 v=80
222144 Off ch=1 n=85 v=64
222144 Off ch=1 n=81 v=64
222240 On ch=1 n=76 v=80
222240 On ch=1 n=73 v=80
222456 Off ch=1 n=76 v=64
222456 Off ch=1 n=73 v=64
222480 On ch=1 n=74 v=80
222480 On ch=1 n=71 v=80
222696 Off ch=1 n=74 v=64
222696 Off ch=1 n=71 v=64
222720 On ch=1 n=68 v=80
222720 On ch=1 n=71 v=80
223152 Off ch=1 n=68 v=64
223152 Off ch=1 n=71 v=64
223200 On ch=1 n=68 v=80
223200 On ch=1 n=71 v=80
223632 Off ch=1 n=68 v=64
223632 Off ch=1 n=71 v=64
223680 On ch=1 n=73 v=80
223680 On ch=1 n=69 v=80
224112 Off ch=1 n=73 v=64
224112 Off ch=1 n=69 v=64
224160 On ch=1 n=76 v=80
224160 On ch=1 n=71 v=80
224592 Off ch=1 n=76 v=64
224592 Off ch=1 n=71 v=64
224640 On ch=1 n=73 v=80
224640 On ch=1 n=78 v=80
225072 Off ch=1 n=78 v=64
226080 Off ch=1 n=73 v=64
226560 On ch=1 n=90 v=80
226560 On ch=1 n=85 v=80
226560 On ch=1 n=78 v=80
226560 On ch=1 n=73 v=80
226992 Off ch=1 n=90 v=64
226992 Off ch=1 n=85 v=64
226992 Off ch=1 n=78 v=64
226992 Off ch=1 n=73 v=64
227040 On ch=1 n=90 v=80
227040 On ch=1 n=85 v=80
227040 On ch=1 n=78 v=80
227040 On ch=1 n=73 v=80
227472 Off ch=1 n=90 v=64
227472 Off ch=1 n=85 v=64
227472 Off ch=1 n=78 v=64
227472 Off ch=1 n=73 v=64
227520 On ch=1 n=90 v=80
227520 On ch=1 n=85 v=80
227520 On ch=1 n=78 v=80
227520 On ch=1 n=73 v=80
227952 Off ch=1 n=90 v=64
227952 Off ch=1 n=85 v=64
227952 Off ch=1 n=78 v=64
227952 Off ch=1 n=73 v=64
228000 On ch=1 n=90 v=80
228000 On ch=1 n=85 v=80
228000 On ch=1 n=78 v=80
228000 On ch=1 n=73 v=80
228108 Off ch=1 n=90 v=64
228108 Off ch=1 n=85 v=64
228108 Off ch=1 n=78 v=64
228108 Off ch=1 n=73 v=64
228120 On ch=1 n=93 v=80
228120 On ch=1 n=90 v=80
228120 On ch=1 n=81 v=80
228120 On ch=1 n=78 v=80
228228 Off ch=1 n=93 v=64
228228 Off ch=1 n=90 v=64
228228 Off ch=1 n=81 v=64
228228 Off ch=1 n=78 v=64
228240 On ch=1 n=95 v=80
228240 On ch=1 n=92 v=80
228240 On ch=1 n=83 v=80
228240 On ch=1 n=80 v=80
228348 Off ch=1 n=95 v=64
228348 Off ch=1 n=92 v=64
228348 Off ch=1 n=83 v=64
228348 Off ch=1 n=80 v=64
228360 On ch=1 n=97 v=80
228360 On ch=1 n=93 v=80
228360 On ch=1 n=85 v=80
228360 On ch=1 n=81 v=80
228468 Off ch=1 n=97 v=64
228468 Off ch=1 n=93 v=64
228468 Off ch=1 n=85 v=64
228468 Off ch=1 n=81 v=64
228480 On ch=1 n=90 v=80
228480 On ch=1 n=85 v=80
228480 On ch=1 n=78 v=80
228480 On ch=1 n=73 v=80
228912 Off ch=1 n=90 v=64
228912 Off ch=1 n=85 v=64
228912 Off ch=1 n=78 v=64
228912 Off ch=1 n=73 v=64
228960 On ch=1 n=90 v=80
228960 On ch=1 n=85 v=80
228960 On ch=1 n=78 v=80
228960 On ch=1 n=73 v=80
229392 Off ch=1 n=90 v=64
229392 Off ch=1 n=85 v=64
229392 Off ch=1 n=78 v=64
229392 Off ch=1 n=73 v=64
229440 On ch=1 n=90 v=80
229440 On ch=1 n=85 v=80
229440 On ch=1 n=78 v=80
229440 On ch=1 n=73 v=80
229656 Off ch=1 n=90 v=64
229656 Off ch=1 n=85 v=64
229656 Off ch=1 n=78 v=64
229656 Off ch=1 n=73 v=64
229680 On ch=1 n=88 v=80
229680 On ch=1 n=83 v=80
229680 On ch=1 n=76 v=80
229680 On ch=1 n=71 v=80
229896 Off ch=1 n=88 v=64
229896 Off ch=1 n=83 v=64
229896 Off ch=1 n=76 v=64
229896 Off ch=1 n=71 v=64
229920 On ch=1 n=88 v=80
229920 On ch=1 n=83 v=80
229920 On ch=1 n=76 v=80
229920 On ch=1 n=71 v=80
230136 Off ch=1 n=88 v=64
230136 Off ch=1 n=83 v=64
230136 Off ch=1 n=76 v=64
230136 Off ch=1 n=71 v=64
230160 On ch=1 n=88 v=80
230160 On ch=1 n=85 v=80
230160 On ch=1 n=78 v=80
230160 On ch=1 n=73 v=80
230268 Off ch=1 n=88 v=64
230268 Off ch=1 n=85 v=64
230268 Off ch=1 n=78 v=64
230268 Off ch=1 n=73 v=64
230280 On ch=1 n=88 v=80
230280 On ch=1 n=83 v=80
230280 On ch=1 n=76 v=80
230280 On ch=1 n=71 v=80
230388 Off ch=1 n=88 v=64
230388 Off ch=1 n=83 v=64
230388 Off ch=1 n=76 v=64
230388 Off ch=1 n=71 v=64
230400 On ch=1 n=90 v=80
230400 On ch=1 n=85 v=80
230400 On ch=1 n=78 v=80
230400 On ch=1 n=73 v=80
230832 Off ch=1 n=90 v=64
230832 Off ch=1 n=85 v=64
230832 Off ch=1 n=78 v=64
230832 Off ch=1 n=73 v=64
230880 On ch=1 n=90 v=80
230880 On ch=1 n=85 v=80
230880 On ch=1 n=78 v=80
230880 On ch=1 n=73 v=80
231312 Off ch=1 n=90 v=64
231312 Off ch=1 n=85 v=64
231312 Off ch=1 n=78 v=64
231312 Off ch=1 n=73 v=64
231360 On ch=1 n=90 v=80
231360 On ch=1 n=85 v=80
231360 On ch=1 n=78 v=80
231360 On ch=1 n=73 v=80
231792 Off ch=1 n=90 v=64
231792 Off ch=1 n=85 v=64
231792 Off ch=1 n=78 v=64
231792 Off ch=1 n=73 v=64
231840 On ch=1 n=90 v=80
231840 On ch=1 n=85 v=80
231840 On ch=1 n=78 v=80
231840 On ch=1 n=73 v=80
231948 Off ch=1 n=90 v=64
231948 Off ch=1 n=85 v=64
231948 Off ch=1 n=78 v=64
231948 Off ch=1 n=73 v=64
231960 On ch=1 n=93 v=80
231960 On ch=1 n=90 v=80
231960 On ch=1 n=81 v=80
231960 On ch=1 n=78 v=80
232068 Off ch=1 n=93 v=64
232068 Off ch=1 n=90 v=64
232068 Off ch=1 n=81 v=64
232068 Off ch=1 n=78 v=64
232080 On ch=1 n=95 v=80
232080 On ch=1 n=92 v=80
232080 On ch=1 n=83 v=80
232080 On ch=1 n=80 v=80
232188 Off ch=1 n=95 v=64
232188 Off ch=1 n=92 v=64
232188 Off ch=1 n=83 v=64
232188 Off ch=1 n=80 v=64
232200 On ch=1 n=97 v=80
232200 On ch=1 n=93 v=80
232200 On ch=1 n=85 v=80
232200 On ch=1 n=81 v=80
232308 Off ch=1 n=97 v=64
232308 Off ch=1 n=93 v=64
232308 Off ch=1 n=85 v=64
232308 Off ch=1 n=81 v=64
232320 On ch=1 n=90 v=80
232320 On ch=1 n=85 v=80
232320 On ch=1 n=78 v=80
232320 On ch=1 n=73 v=80
232752 Off ch=1 n=90 v=64
232752 Off ch=1 n=85 v=64
232752 Off ch=1 n=78 v=64
232752 Off ch=1 n=73 v=64
232800 On ch=1 n=90 v=80
232800 On ch=1 n=85 v=80
232800 On ch=1 n=78 v=80
232800 On ch=1 n=73 v=80
233232 Off ch=1 n=90 v=64
233232 Off ch=1 n=85 v=64
233232 Off ch=1 n=78 v=64
233232 Off ch=1 n=73 v=64
233280 On ch=1 n=90 v=80
233280 On ch=1 n=85 v=80
233280 On ch=1 n=78 v=80
233280 On ch=1 n=73 v=80
233496 Off ch=1 n=90 v=64
233496 Off ch=1 n=85 v=64
233496 Off ch=1 n=78 v=64
233496 Off ch=1 n=73 v=64
233520 On ch=1 n=93 v=80
233520 On ch=1 n=86 v=80
233520 On ch=1 n=81 v=80
233520 On ch=1 n=74 v=80
233952 Off ch=1 n=93 v=64
233952 Off ch=1 n=86 v=64
233952 Off ch=1 n=81 v=64
233952 Off ch=1 n=74 v=64
234000 On ch=1 n=97 v=80
234000 On ch=1 n=92 v=80
234000 On ch=1 n=85 v=80
234000 On ch=1 n=80 v=80
234216 Off ch=1 n=97 v=64
234216 Off ch=1 n=92 v=64
234216 Off ch=1 n=85 v=64
234216 Off ch=1 n=80 v=64
234240 On ch=1 n=90 v=80
234240 On ch=1 n=85 v=80
234240 On ch=1 n=78 v=80
234240 On ch=1 n=73 v=80
234672 Off ch=1 n=90 v=64
234672 Off ch=1 n=85 v=64
234672 Off ch=1 n=78 v=64
234672 Off ch=1 n=73 v=64
234720 On ch=1 n=90 v=80
234720 On ch=1 n=85 v=80
234720 On ch=1 n=78 v=80
234720 On ch=1 n=73 v=80
235152 Off ch=1 n=90 v=64
235152 Off ch=1 n=85 v=64
235152 Off ch=1 n=78 v=64
235152 Off ch=1 n=73 v=64
235200 On ch=1 n=90 v=80
235200 On ch=1 n=85 v=80
235200 On ch=1 n=78 v=80
235200 On ch=1 n=73 v=80
235632 Off ch=1 n=90 v=64
235632 Off ch=1 n=85 v=64
235632 Off ch=1 n=78 v=64
235632 Off ch=1 n=73 v=64
235680 On ch=1 n=90 v=80
235680 On ch=1 n=85 v=80
235680 On ch=1 n=78 v=80
235680 On ch=1 n=73 v=80
235788 Off ch=1 n=90 v=64
235788 Off ch=1 n=85 v=64
235788 Off ch=1 n=78 v=64
235788 Off ch=1 n=73 v=64
235800 On ch=1 n=93 v=80
235800 On ch=1 n=90 v=80
235800 On ch=1 n=81 v=80
235800 On ch=1 n=78 v=80
235908 Off ch=1 n=93 v=64
235908 Off ch=1 n=90 v=64
235908 Off ch=1 n=81 v=64
235908 Off ch=1 n=78 v=64
235920 On ch=1 n=95 v=80
235920 On ch=1 n=92 v=80
235920 On ch=1 n=83 v=80
235920 On ch=1 n=80 v=80
236028 Off ch=1 n=95 v=64
236028 Off ch=1 n=92 v=64
236028 Off ch=1 n=83 v=64
236028 Off ch=1 n=80 v=64
236040 On ch=1 n=97 v=80
236040 On ch=1 n=93 v=80
236040 On ch=1 n=85 v=80
236040 On ch=1 n=81 v=80
236148 Off ch=1 n=97 v=64
236148 Off ch=1 n=93 v=64
236148 Off ch=1 n=85 v=64
236148 Off ch=1 n=81 v=64
236160 On ch=1 n=90 v=80
236160 On ch=1 n=85 v=80
236160 On ch=1 n=78 v=80
236160 On ch=1 n=73 v=80
236592 Off ch=1 n=90 v=64
236592 Off ch=1 n=85 v=64
236592 Off ch=1 n=78 v=64
236592 Off ch=1 n=73 v=64
236640 On ch=1 n=90 v=80
236640 On ch=1 n=85 v=80
236640 On ch=1 n=78 v=80
236640 On ch=1 n=73 v=80
237072 Off ch=1 n=90 v=64
237072 Off ch=1 n=85 v=64
237072 Off ch=1 n=78 v=64
237072 Off ch=1 n=73 v=64
237120 On ch=1 n=90 v=80
237120 On ch=1 n=85 v=80
237120 On ch=1 n=78 v=80
237120 On ch=1 n=73 v=80
237552 Off ch=1 n=90 v=64
237552 Off ch=1 n=85 v=64
237552 Off ch=1 n=78 v=64
237552 Off ch=1 n=73 v=64
237600 On ch=1 n=90 v=80
237600 On ch=1 n=85 v=80
237600 On ch=1 n=78 v=80
237600 On ch=1 n=73 v=80
237708 Off ch=1 n=90 v=64
237708 Off ch=1 n=85 v=64
237708 Off ch=1 n=78 v=64
237708 Off ch=1 n=73 v=64
237720 On ch=1 n=93 v=80
237720 On ch=1 n=90 v=80
237720 On ch=1 n=81 v=80
237720 On ch=1 n=78 v=80
237828 Off ch=1 n=93 v=64
237828 Off ch=1 n=90 v=64
237828 Off ch=1 n=81 v=64
237828 Off ch=1 n=78 v=64
237840 On ch=1 n=95 v=80
237840 On ch=1 n=92 v=80
237840 On ch=1 n=83 v=80
237840 On ch=1 n=80 v=80
237948 Off ch=1 n=95 v=64
237948 Off ch=1 n=92 v=64
237948 Off ch=1 n=83 v=64
237948 Off ch=1 n=80 v=64
237960 On ch=1 n=97 v=80
237960 On ch=1 n=93 v=80
237960 On ch=1 n=85 v=80
237960 On ch=1 n=81 v=80
238068 Off ch=1 n=97 v=64
238068 Off ch=1 n=93 v=64
238068 Off ch=1 n=85 v=64
238068 Off ch=1 n=81 v=64
238080 On ch=1 n=90 v=80
238080 On ch=1 n=85 v=80
238080 On ch=1 n=78 v=80
238080 On ch=1 n=73 v=80
238512 Off ch=1 n=90 v=64
238512 Off ch=1 n=85 v=64
238512 Off ch=1 n=78 v=64
238512 Off ch=1 n=73 v=64
238560 On ch=1 n=90 v=80
238560 On ch=1 n=85 v=80
238560 On ch=1 n=78 v=80
238560 On ch=1 n=73 v=80
238992 Off ch=1 n=90 v=64
238992 Off ch=1 n=85 v=64
238992 Off ch=1 n=78 v=64
238992 Off ch=1 n=73 v=64
239040 On ch=1 n=90 v=80
239040 On ch=1 n=85 v=80
239040 On ch=1 n=78 v=80
239040 On ch=1 n=73 v=80
239472 Off ch=1 n=90 v=64
239472 Off ch=1 n=85 v=64
239472 Off ch=1 n=78 v=64
239472 Off ch=1 n=73 v=64
239520 On ch=1 n=90 v=80
239520 On ch=1 n=85 v=80
239520 On ch=1 n=78 v=80
239520 On ch=1 n=73 v=80
239628 Off ch=1 n=90 v=64
239628 Off ch=1 n=85 v=64
239628 Off ch=1 n=78 v=64
239628 Off ch=1 n=73 v=64
239640 On ch=1 n=93 v=80
239640 On ch=1 n=90 v=80
239640 On ch=1 n=81 v=80
239640 On ch=1 n=78 v=80
239748 Off ch=1 n=93 v=64
239748 Off ch=1 n=90 v=64
239748 Off ch=1 n=81 v=64
239748 Off ch=1 n=78 v=64
239760 On ch=1 n=95 v=80
239760 On ch=1 n=92 v=80
239760 On ch=1 n=83 v=80
239760 On ch=1 n=80 v=80
239868 Off ch=1 n=95 v=64
239868 Off ch=1 n=92 v=64
239868 Off ch=1 n=83 v=64
239868 Off ch=1 n=80 v=64
239880 On ch=1 n=97 v=80
239880 On ch=1 n=93 v=80
239880 On ch=1 n=85 v=80
239880 On ch=1 n=81 v=80
239988 Off ch=1 n=97 v=64
239988 Off ch=1 n=93 v=64
239988 Off ch=1 n=85 v=64
239988 Off ch=1 n=81 v=64
240000 On ch=1 n=102 v=80
240000 On ch=1 n=97 v=80
240000 On ch=1 n=90 v=80
240000 On ch=1 n=85 v=80
240000 On ch=1 n=78 v=80
240000 On ch=1 n=73 v=80
240216 Off ch=1 n=102 v=64
240216 Off ch=1 n=97 v=64
240216 Off ch=1 n=90 v=64
240216 Off ch=1 n=85 v=64
240216 Off ch=1 n=78 v=64
240216 Off ch=1 n=73 v=64
240240 On ch=1 n=97 v=80
240240 On ch=1 n=93 v=80
240240 On ch=1 n=85 v=80
240240 On ch=1 n=81 v=80
240240 On ch=1 n=73 v=80
240294 Off ch=1 n=97 v=64
240294 Off ch=1 n=93 v=64
240294 Off ch=1 n=85 v=64
240294 Off ch=1 n=81 v=64
240294 Off ch=1 n=73 v=64
240300 On ch=1 n=95 v=80
240300 On ch=1 n=92 v=80
240300 On ch=1 n=83 v=80
240300 On ch=1 n=80 v=80
240300 On ch=1 n=71 v=80
240354 Off ch=1 n=95 v=64
240354 Off ch=1 n=92 v=64
240354 Off ch=1 n=83 v=64
240354 Off ch=1 n=80 v=64
240354 Off ch=1 n=71 v=64
240360 On ch=1 n=93 v=80
240360 On ch=1 n=90 v=80
240360 On ch=1 n=81 v=80
240360 On ch=1 n=78 v=80
240360 On ch=1 n=69 v=80
240414 Off ch=1 n=93 v=64
240414 Off ch=1 n=90 v=64
240414 Off ch=1 n=81 v=64
240414 Off ch=1 n=78 v=64
240414 Off ch=1 n=69 v=64
240420 On ch=1 n=90 v=80
240420 On ch=1 n=78 v=80
240420 On ch=1 n=73 v=80
240420 On ch=1 n=66 v=80
240474 Off ch=1 n=90 v=64
240474 Off ch=1 n=78 v=64
240474 Off ch=1 n=73 v=64
240474 Off ch=1 n=66 v=64
240480 On ch=1 n=90 v=80
240480 On ch=1 n=85 v=80
240480 On ch=1 n=78 v=80
240480 On ch=1 n=73 v=80
240480 On ch=1 n=66 v=80
240696 Off ch=1 n=90 v=64
240696 Off ch=1 n=85 v=64
240696 Off ch=1 n=78 v=64
240696 Off ch=1 n=73 v=64
240696 Off ch=1 n=66 v=64
240720 On ch=1 n=88 v=80
240720 On ch=1 n=83 v=80
240720 On ch=1 n=76 v=80
240720 On ch=1 n=71 v=80
240720 On ch=1 n=64 v=80
240936 Off ch=1 n=88 v=64
240936 Off ch=1 n=83 v=64
240936 Off ch=1 n=76 v=64
240936 Off ch=1 n=71 v=64
240936 Off ch=1 n=64 v=64
240960 On ch=1 n=88 v=80
240960 On ch=1 n=83 v=80
240960 On ch=1 n=76 v=80
240960 On ch=1 n=71 v=80
240960 On ch=1 n=64 v=80
241176 Off ch=1 n=88 v=64
241176 Off ch=1 n=83 v=64
241176 Off ch=1 n=76 v=64
241176 Off ch=1 n=71 v=64
241176 Off ch=1 n=64 v=64
241200 On ch=1 n=90 v=80
241200 On ch=1 n=85 v=80
241200 On ch=1 n=78 v=80
241200 On ch=1 n=73 v=80
241200 On ch=1 n=66 v=80
241416 Off ch=1 n=90 v=64
241416 Off ch=1 n=85 v=64
241416 Off ch=1 n=78 v=64
241416 Off ch=1 n=73 v=64
241416 Off ch=1 n=66 v=64
241440 On ch=1 n=90 v=80
241440 On ch=1 n=85 v=80
241440 On ch=1 n=78 v=80
241440 On ch=1 n=73 v=80
241440 On ch=1 n=66 v=80
241548 Off ch=1 n=90 v=64
241548 Off ch=1 n=85 v=64
241548 Off ch=1 n=78 v=64
241548 Off ch=1 n=73 v=64
241548 Off ch=1 n=66 v=64
241560 On ch=1 n=93 v=80
241560 On ch=1 n=90 v=80
241560 On ch=1 n=81 v=80
241560 On ch=1 n=78 v=80
241560 On ch=1 n=69 v=80
241668 Off ch=1 n=93 v=64
241668 Off ch=1 n=90 v=64
241668 Off ch=1 n=81 v=64
241668 Off ch=1 n=78 v=64
241668 Off ch=1 n=69 v=64
241680 On ch=1 n=95 v=80
241680 On ch=1 n=92 v=80
241680 On ch=1 n=83 v=80
241680 On ch=1 n=80 v=80
241680 On ch=1 n=71 v=80
241788 Off ch=1 n=95 v=64
241788 Off ch=1 n=92 v=64
241788 Off ch=1 n=83 v=64
241788 Off ch=1 n=80 v=64
241788 Off ch=1 n=71 v=64
241800 On ch=1 n=97 v=80
241800 On ch=1 n=93 v=80
241800 On ch=1 n=85 v=80
241800 On ch=1 n=81 v=80
241800 On ch=1 n=73 v=80
241908 Off ch=1 n=97 v=64
241908 Off ch=1 n=93 v=64
241908 Off ch=1 n=85 v=64
241908 Off ch=1 n=81 v=64
241908 Off ch=1 n=73 v=64
241920 On ch=1 n=73 v=80
241920 On ch=1 n=66 v=80
245568 Off ch=1 n=73 v=64
245568 Off ch=1 n=66 v=64
245760 On ch=1 n=64 v=80
245760 On ch=1 n=71 v=80
249408 Off ch=1 n=64 v=64
249408 Off ch=1 n=71 v=64
249600 KeySig 0 major
249600 On ch=1 n=24 v=3
249600 On ch=1 n=35 v=3
249600 On ch=1 n=45 v=3
249654 Off ch=1 n=24 v=64
249654 Off ch=1 n=35 v=64
249654 Off ch=1 n=45 v=64
249660 On ch=1 n=24 v=3
249660 On ch=1 n=35 v=3
249660 On ch=1 n=45 v=3
249714 Off ch=1 n=24 v=64
249714 Off ch=1 n=35 v=64
249714 Off ch=1 n=45 v=64
249720 On ch=1 n=24 v=3
249720 On ch=1 n=35 v=3
249720 On ch=1 n=45 v=3
249774 Off ch=1 n=24 v=64
249774 Off ch=1 n=35 v=64
249774 Off ch=1 n=45 v=64
249780 On ch=1 n=24 v=3
249780 On ch=1 n=35 v=3
249780 On ch=1 n=45 v=3
249834 Off ch=1 n=24 v=64
249834 Off ch=1 n=35 v=64
249834 Off ch=1 n=45 v=64
249840 On ch=1 n=24 v=3
249840 On ch=1 n=35 v=3
249840 On ch=1 n=45 v=3
249894 Off ch=1 n=24 v=64
249894 Off ch=1 n=35 v=64
249894 Off ch=1 n=45 v=64
249900 On ch=1 n=26 v=3
249900 On ch=1 n=33 v=3
249900 On ch=1 n=36 v=3
249900 On ch=1 n=43 v=3
249954 Off ch=1 n=26 v=64
249954 Off ch=1 n=33 v=64
249954 Off ch=1 n=36 v=64
249954 Off ch=1 n=43 v=64
249960 On ch=1 n=26 v=3
249960 On ch=1 n=33 v=3
249960 On ch=1 n=36 v=3
249960 On ch=1 n=43 v=3
250014 Off ch=1 n=26 v=64
250014 Off ch=1 n=33 v=64
250014 Off ch=1 n=36 v=64
250014 Off ch=1 n=43 v=64
250020 On ch=1 n=26 v=3
250020 On ch=1 n=33 v=3
250020 On ch=1 n=36 v=3
250020 On ch=1 n=43 v=3
250074 Off ch=1 n=26 v=64
250074 Off ch=1 n=33 v=64
250074 Off ch=1 n=36 v=64
250074 Off ch=1 n=43 v=64
250080 On ch=1 n=26 v=3
250080 On ch=1 n=33 v=3
250080 On ch=1 n=36 v=3
250080 On ch=1 n=43 v=3
250134 Off ch=1 n=26 v=64
250134 Off ch=1 n=33 v=64
250134 Off ch=1 n=36 v=64
250134 Off ch=1 n=43 v=64
250140 On ch=1 n=28 v=3
250140 On ch=1 n=31 v=3
250140 On ch=1 n=38 v=3
250140 On ch=1 n=41 v=3
250194 Off ch=1 n=28 v=64
250194 Off ch=1 n=31 v=64
250194 Off ch=1 n=38 v=64
250194 Off ch=1 n=41 v=64
250200 On ch=1 n=28 v=3
250200 On ch=1 n=31 v=3
250200 On ch=1 n=38 v=3
250200 On ch=1 n=41 v=3
250254 Off ch=1 n=28 v=64
250254 Off ch=1 n=31 v=64
250254 Off ch=1 n=38 v=64
250254 Off ch=1 n=41 v=64
250260 On ch=1 n=28 v=3
250260 On ch=1 n=31 v=3
250260 On ch=1 n=38 v=3
250260 On ch=1 n=41 v=3
250314 Off ch=1 n=28 v=64
250314 Off ch=1 n=31 v=64
250314 Off ch=1 n=38 v=64
250314 Off ch=1 n=41 v=64
250320 On ch=1 n=28 v=3
250320 On ch=1 n=31 v=3
250320 On ch=1 n=38 v=3
250320 On ch=1 n=41 v=3
250374 Off ch=1 n=28 v=64
250374 Off ch=1 n=31 v=64
250374 Off ch=1 n=38 v=64
250374 Off ch=1 n=41 v=64
250380 On ch=1 n=29 v=3
250380 On ch=1 n=40 v=3
250434 Off ch=1 n=29 v=64
250434 Off ch=1 n=40 v=64
250440 On ch=1 n=29 v=3
250440 On ch=1 n=40 v=3
250494 Off ch=1 n=29 v=64
250494 Off ch=1 n=40 v=64
250500 On ch=1 n=29 v=3
250500 On ch=1 n=40 v=3
250554 Off ch=1 n=29 v=64
250554 Off ch=1 n=40 v=64
251520 Meta TrkEnd
TrkEnd
MTrk
0 Meta TrkName "Sound 4"
0 Meta InstrName "Microsoft GS Wavetable Synth"
0 KeySig 3 major
0 PrCh ch=1 p=0
0 Par ch=1 c=10 v=64
0 Par ch=1 c=7 v=127
1920 On ch=1 n=50 v=80
1920 On ch=1 n=38 v=80
2136 Off ch=1 n=50 v=64
2136 Off ch=1 n=38 v=64
2160 On ch=1 n=62 v=80
2376 Off ch=1 n=62 v=64
2400 On ch=1 n=50 v=80
2508 Off ch=1 n=50 v=64
2520 On ch=1 n=62 v=80
2736 Off ch=1 n=62 v=64
2760 On ch=1 n=50 v=80
2868 Off ch=1 n=50 v=64
2880 On ch=1 n=52 v=80
2880 On ch=1 n=40 v=80
3096 Off ch=1 n=52 v=64
3096 Off ch=1 n=40 v=64
3120 On ch=1 n=62 v=80
3336 Off ch=1 n=62 v=64
3360 On ch=1 n=52 v=80
3468 Off ch=1 n=52 v=64
3480 On ch=1 n=62 v=80
3696 Off ch=1 n=62 v=64
3720 On ch=1 n=52 v=80
3828 Off ch=1 n=52 v=64
3840 On ch=1 n=54 v=80
3840 On ch=1 n=42 v=80
4056 Off ch=1 n=54 v=64
4056 Off ch=1 n=42 v=64
4080 On ch=1 n=66 v=80
4296 Off ch=1 n=66 v=64
4320 On ch=1 n=54 v=80
4428 Off ch=1 n=54 v=64
4440 On ch=1 n=66 v=80
4656 Off ch=1 n=66 v=64
4680 On ch=1 n=54 v=80
4788 Off ch=1 n=54 v=64
4800 On ch=1 n=57 v=80
4800 On ch=1 n=45 v=80
5016 Off ch=1 n=57 v=64
5016 Off ch=1 n=45 v=64
5040 On ch=1 n=69 v=80
5256 Off ch=1 n=69 v=64
5280 On ch=1 n=57 v=80
5388 Off ch=1 n=57 v=64
5400 On ch=1 n=69 v=80
5616 Off ch=1 n=69 v=64
5640 On ch=1 n=57 v=80
5748 Off ch=1 n=57 v=64
5760 On ch=1 n=50 v=80
5760 On ch=1 n=38 v=80
5976 Off ch=1 n=50 v=64
5976 Off ch=1 n=38 v=64
6000 On ch=1 n=62 v=80
6216 Off ch=1 n=62 v=64
6240 On ch=1 n=50 v=80
6348 Off ch=1 n=50 v=64
6360 On ch=1 n=62 v=80
6576 Off ch=1 n=62 v=64
6600 On ch=1 n=50 v=80
6708 Off ch=1 n=50 v=64
6720 On ch=1 n=52 v=80
6720 On ch=1 n=40 v=80
6936 Off ch=1 n=52 v=64
6936 Off ch=1 n=40 v=64
6960 On ch=1 n=62 v=80
7176 Off ch=1 n=62 v=64
7200 On ch=1 n=52 v=80
7308 Off ch=1 n=52 v=64
7320 On ch=1 n=62 v=80
7536 Off ch=1 n=62 v=64
7560 On ch=1 n=52 v=80
7668 Off ch=1 n=52 v=64
7680 On ch=1 n=54 v=80
7680 On ch=1 n=42 v=80
7896 Off ch=1 n=54 v=64
7896 Off ch=1 n=42 v=64
7920 On ch=1 n=66 v=80
8136 Off ch=1 n=66 v=64
8160 On ch=1 n=54 v=80
8268 Off ch=1 n=54 v=64
8280 On ch=1 n=66 v=80
8496 Off ch=1 n=66 v=64
8520 On ch=1 n=54 v=80
8628 Off ch=1 n=54 v=64
8640 On ch=1 n=57 v=80
8640 On ch=1 n=45 v=80
8856 Off ch=1 n=57 v=64
8856 Off ch=1 n=45 v=64
8880 On ch=1 n=69 v=80
9096 Off ch=1 n=69 v=64
9120 On ch=1 n=57 v=80
9228 Off ch=1 n=57 v=64
9240 On ch=1 n=69 v=80
9456 Off ch=1 n=69 v=64
9480 On ch=1 n=57 v=80
9588 Off ch=1 n=57 v=64
9600 On ch=1 n=50 v=80
9600 On ch=1 n=38 v=80
9816 Off ch=1 n=50 v=64
9816 Off ch=1 n=38 v=64
9840 On ch=1 n=62 v=80
10056 Off ch=1 n=62 v=64
10080 On ch=1 n=50 v=80
10188 Off ch=1 n=50 v=64
10200 On ch=1 n=62 v=80
10416 Off ch=1 n=62 v=64
10440 On ch=1 n=50 v=80
10548 Off ch=1 n=50 v=64
10560 On ch=1 n=62 v=80
10776 Off ch=1 n=62 v=64
10800 On ch=1 n=50 v=80
10908 Off ch=1 n=50 v=64
10920 On ch=1 n=62 v=80
11148 Off ch=1 n=62 v=64
11160 On ch=1 n=50 v=80
11268 Off ch=1 n=50 v=64
11280 On ch=1 n=62 v=80
11496 Off ch=1 n=62 v=64
11520 On ch=1 n=52 v=80
11520 On ch=1 n=40 v=80
11736 Off ch=1 n=52 v=64
11736 Off ch=1 n=40 v=64
11760 On ch=1 n=64 v=80
11976 Off ch=1 n=64 v=64
12000 On ch=1 n=52 v=80
12108 Off ch=1 n=52 v=64
12120 On ch=1 n=64 v=80
12336 Off ch=1 n=64 v=64
12360 On ch=1 n=52 v=80
12468 Off ch=1 n=52 v=64
12480 On ch=1 n=64 v=80
12696 Off ch=1 n=64 v=64
12720 On ch=1 n=52 v=80
12828 Off ch=1 n=52 v=64
12840 On ch=1 n=64 v=80
13068 Off ch=1 n=64 v=64
13080 On ch=1 n=52 v=80
13188 Off ch=1 n=52 v=64
13200 On ch=1 n=64 v=80
13416 Off ch=1 n=64 v=64
13440 On ch=1 n=54 v=80
13440 On ch=1 n=42 v=80
13656 Off ch=1 n=54 v=64
13656 Off ch=1 n=42 v=64
13680 On ch=1 n=66 v=80
13896 Off ch=1 n=66 v=64
13920 On ch=1 n=54 v=80
14028 Off ch=1 n=54 v=64
14040 On ch=1 n=66 v=80
14256 Off ch=1 n=66 v=64
14280 On ch=1 n=54 v=80
14388 Off ch=1 n=54 v=64
14400 On ch=1 n=66 v=80
14616 Off ch=1 n=66 v=64
14640 On ch=1 n=54 v=80
14748 Off ch=1 n=54 v=64
14760 On ch=1 n=66 v=80
14988 Off ch=1 n=66 v=64
15000 On ch=1 n=54 v=80
15108 Off ch=1 n=54 v=64
15120 On ch=1 n=66 v=80
15336 Off ch=1 n=66 v=64
15360 On ch=1 n=54 v=80
15360 On ch=1 n=42 v=80
15576 Off ch=1 n=54 v=64
15576 Off ch=1 n=42 v=64
15600 On ch=1 n=66 v=80
15816 Off ch=1 n=66 v=64
15840 On ch=1 n=54 v=80
15948 Off ch=1 n=54 v=64
15960 On ch=1 n=66 v=80
16176 Off ch=1 n=66 v=64
16200 On ch=1 n=54 v=80
16308 Off ch=1 n=54 v=64
16320 On ch=1 n=42 v=80
16320 On ch=1 n=49 v=80
16320 On ch=1 n=57 v=80
17184 Off ch=1 n=42 v=64
17184 Off ch=1 n=49 v=64
17184 Off ch=1 n=57 v=64
17280 Par ch=1 c=64 v=64
17280 On ch=1 n=30 v=80
17280 On ch=1 n=42 v=80
17496 Off ch=1 n=30 v=64
17496 Off ch=1 n=42 v=64
17520 On ch=1 n=42 v=80
17520 On ch=1 n=54 v=80
17736 Off ch=1 n=42 v=64
17736 Off ch=1 n=54 v=64
17760 On ch=1 n=30 v=80
17760 On ch=1 n=42 v=80
17976 Off ch=1 n=30 v=64
17976 Off ch=1 n=42 v=64
18000 On ch=1 n=42 v=80
18000 On ch=1 n=54 v=80
18216 Off ch=1 n=42 v=64
18216 Off ch=1 n=54 v=64
18240 On ch=1 n=30 v=80
18240 On ch=1 n=42 v=80
18456 Off ch=1 n=30 v=64
18456 Off ch=1 n=42 v=64
18480 On ch=1 n=42 v=80
18480 On ch=1 n=54 v=80
18696 Off ch=1 n=42 v=64
18696 Off ch=1 n=54 v=64
18720 On ch=1 n=30 v=80
18720 On ch=1 n=42 v=80
18828 Off ch=1 n=30 v=64
18828 Off ch=1 n=42 v=64
18840 On ch=1 n=30 v=80
18840 On ch=1 n=42 v=80
18948 Off ch=1 n=30 v=64
18948 Off ch=1 n=42 v=64
18960 On ch=1 n=42 v=80
18960 On ch=1 n=54 v=80
19068 Off ch=1 n=42 v=64
19068 Off ch=1 n=54 v=64
19080 On ch=1 n=42 v=80
19080 On ch=1 n=54 v=80
19188 Off ch=1 n=42 v=64
19188 Off ch=1 n=54 v=64
19200 Par ch=1 c=64 v=0
19200 On ch=1 n=30 v=80
19200 On ch=1 n=42 v=80
19416 Off ch=1 n=30 v=64
19416 Off ch=1 n=42 v=64
19440 On ch=1 n=42 v=80
19440 On ch=1 n=54 v=80
19656 Off ch=1 n=42 v=64
19656 Off ch=1 n=54 v=64
19680 On ch=1 n=30 v=80
19680 On ch=1 n=42 v=80
19896 Off ch=1 n=30 v=64
19896 Off ch=1 n=42 v=64
19920 On ch=1 n=42 v=80
19920 On ch=1 n=54 v=80
20136 Off ch=1 n=42 v=64
20136 Off ch=1 n=54 v=64
20160 On ch=1 n=30 v=80
20160 On ch=1 n=42 v=80
20376 Off ch=1 n=30 v=64
20376 Off ch=1 n=42 v=64
20400 On ch=1 n=42 v=80
20400 On ch=1 n=54 v=80
20616 Off ch=1 n=42 v=64
20616 Off ch=1 n=54 v=64
20640 On ch=1 n=30 v=80
20640 On ch=1 n=42 v=80
20748 Off ch=1 n=30 v=64
20748 Off ch=1 n=42 v=64
20760 On ch=1 n=30 v=80
20760 On ch=1 n=42 v=80
20868 Off ch=1 n=30 v=64
20868 Off ch=1 n=42 v=64
20880 On ch=1 n=42 v=80
20880 On ch=1 n=54 v=80
20988 Off ch=1 n=42 v=64
20988 Off ch=1 n=54 v=64
21000 On ch=1 n=42 v=80
21000 On ch=1 n=54 v=80
21108 Off ch=1 n=42 v=64
21108 Off ch=1 n=54 v=64
21120 On ch=1 n=30 v=80
21120 On ch=1 n=42 v=80
21336 Off ch=1 n=30 v=64
21336 Off ch=1 n=42 v=64
21360 On ch=1 n=42 v=80
21360 On ch=1 n=54 v=80
21576 Off ch=1 n=42 v=64
21576 Off ch=1 n=54 v=64
21600 On ch=1 n=30 v=80
21600 On ch=1 n=42 v=80
21816 Off ch=1 n=30 v=64
21816 Off ch=1 n=42 v=64
21840 On ch=1 n=42 v=80
21840 On ch=1 n=54 v=80
22056 Off ch=1 n=42 v=64
22056 Off ch=1 n=54 v=64
22080 On ch=1 n=30 v=80
22080 On ch=1 n=42 v=80
22296 Off ch=1 n=30 v=64
22296 Off ch=1 n=42 v=64
22320 On ch=1 n=42 v=80
22320 On ch=1 n=54 v=80
22536 Off ch=1 n=42 v=64
22536 Off ch=1 n=54 v=64
22560 On ch=1 n=30 v=80
22560 On ch=1 n=42 v=80
22668 Off ch=1 n=30 v=64
22668 Off ch=1 n=42 v=64
22680 On ch=1 n=30 v=80
22680 On ch=1 n=42 v=80
22788 Off ch=1 n=30 v=64
22788 Off ch=1 n=42 v=64
22800 On ch=1 n=42 v=80
22800 On ch=1 n=54 v=80
22908 Off ch=1 n=42 v=64
22908 Off ch=1 n=54 v=64
22920 On ch=1 n=42 v=80
22920 On ch=1 n=54 v=80
23028 Off ch=1 n=42 v=64
23028 Off ch=1 n=54 v=64
23040 On ch=1 n=26 v=80
23040 On ch=1 n=38 v=80
23256 Off ch=1 n=26 v=64
23256 Off ch=1 n=38 v=64
23280 On ch=1 n=38 v=80
23280 On ch=1 n=50 v=80
23496 Off ch=1 n=38 v=64
23496 Off ch=1 n=50 v=64
23520 On ch=1 n=26 v=80
23520 On ch=1 n=38 v=80
23736 Off ch=1 n=26 v=64
23736 Off ch=1 n=38 v=64
23760 On ch=1 n=38 v=80
23760 On ch=1 n=50 v=80
23976 Off ch=1 n=38 v=64
23976 Off ch=1 n=50 v=64
24000 On ch=1 n=25 v=80
24000 On ch=1 n=37 v=80
24216 Off ch=1 n=25 v=64
24216 Off ch=1 n=37 v=64
24240 On ch=1 n=37 v=80
24240 On ch=1 n=49 v=80
24456 Off ch=1 n=37 v=64
24456 Off ch=1 n=49 v=64
24480 On ch=1 n=25 v=80
24480 On ch=1 n=37 v=80
24588 Off ch=1 n=25 v=64
24588 Off ch=1 n=37 v=64
24600 On ch=1 n=25 v=80
24600 On ch=1 n=37 v=80
24708 Off ch=1 n=25 v=64
24708 Off ch=1 n=37 v=64
24720 On ch=1 n=37 v=80
24720 On ch=1 n=49 v=80
24828 Off ch=1 n=37 v=64
24828 Off ch=1 n=49 v=64
24840 On ch=1 n=37 v=80
24840 On ch=1 n=49 v=80
24948 Off ch=1 n=37 v=64
24948 Off ch=1 n=49 v=64
24960 On ch=1 n=30 v=80
24960 On ch=1 n=42 v=80
25176 Off ch=1 n=30 v=64
25176 Off ch=1 n=42 v=64
25200 On ch=1 n=42 v=80
25200 On ch=1 n=54 v=80
25416 Off ch=1 n=42 v=64
25416 Off ch=1 n=54 v=64
25440 On ch=1 n=30 v=80
25440 On ch=1 n=42 v=80
25656 Off ch=1 n=30 v=64
25656 Off ch=1 n=42 v=64
25680 On ch=1 n=42 v=80
25680 On ch=1 n=54 v=80
25896 Off ch=1 n=42 v=64
25896 Off ch=1 n=54 v=64
25920 On ch=1 n=30 v=80
25920 On ch=1 n=42 v=80
26136 Off ch=1 n=30 v=64
26136 Off ch=1 n=42 v=64
26160 On ch=1 n=42 v=80
26160 On ch=1 n=54 v=80
26376 Off ch=1 n=42 v=64
26376 Off ch=1 n=54 v=64
26400 On ch=1 n=30 v=80
26400 On ch=1 n=42 v=80
26508 Off ch=1 n=30 v=64
26508 Off ch=1 n=42 v=64
26520 On ch=1 n=30 v=80
26520 On ch=1 n=42 v=80
26628 Off ch=1 n=30 v=64
26628 Off ch=1 n=42 v=64
26640 On ch=1 n=42 v=80
26640 On ch=1 n=54 v=80
26748 Off ch=1 n=42 v=64
26748 Off ch=1 n=54 v=64
26760 On ch=1 n=42 v=80
26760 On ch=1 n=54 v=80
26868 Off ch=1 n=42 v=64
26868 Off ch=1 n=54 v=64
26880 On ch=1 n=30 v=80
26880 On ch=1 n=42 v=80
27096 Off ch=1 n=30 v=64
27096 Off ch=1 n=42 v=64
27120 On ch=1 n=42 v=80
27120 On ch=1 n=54 v=80
27336 Off ch=1 n=42 v=64
27336 Off ch=1 n=54 v=64
27360 On ch=1 n=30 v=80
27360 On ch=1 n=42 v=80
27576 Off ch=1 n=30 v=64
27576 Off ch=1 n=42 v=64
27600 On ch=1 n=42 v=80
27600 On ch=1 n=54 v=80
27816 Off ch=1 n=42 v=64
27816 Off ch=1 n=54 v=64
27840 On ch=1 n=30 v=80
27840 On ch=1 n=42 v=80
28056 Off ch=1 n=30 v=64
28056 Off ch=1 n=42 v=64
28080 On ch=1 n=42 v=80
28080 On ch=1 n=54 v=80
28296 Off ch=1 n=42 v=64
28296 Off ch=1 n=54 v=64
28320 On ch=1 n=30 v=80
28320 On ch=1 n=42 v=80
28428 Off ch=1 n=30 v=64
28428 Off ch=1 n=42 v=64
28440 On ch=1 n=30 v=80
28440 On ch=1 n=42 v=80
28548 Off ch=1 n=30 v=64
28548 Off ch=1 n=42 v=64
28560 On ch=1 n=42 v=80
28560 On ch=1 n=54 v=80
28668 Off ch=1 n=42 v=64
28668 Off ch=1 n=54 v=64
28680 On ch=1 n=42 v=80
28680 On ch=1 n=54 v=80
28788 Off ch=1 n=42 v=64
28788 Off ch=1 n=54 v=64
28800 On ch=1 n=30 v=80
28800 On ch=1 n=42 v=80
29016 Off ch=1 n=30 v=64
29016 Off ch=1 n=42 v=64
29040 On ch=1 n=42 v=80
29040 On ch=1 n=54 v=80
29256 Off ch=1 n=42 v=64
29256 Off ch=1 n=54 v=64
29280 On ch=1 n=30 v=80
29280 On ch=1 n=42 v=80
29496 Off ch=1 n=30 v=64
29496 Off ch=1 n=42 v=64
29520 On ch=1 n=42 v=80
29520 On ch=1 n=54 v=80
29736 Off ch=1 n=42 v=64
29736 Off ch=1 n=54 v=64
29760 On ch=1 n=30 v=80
29760 On ch=1 n=42 v=80
29976 Off ch=1 n=30 v=64
29976 Off ch=1 n=42 v=64
30000 On ch=1 n=42 v=80
30000 On ch=1 n=54 v=80
30216 Off ch=1 n=42 v=64
30216 Off ch=1 n=54 v=64
30240 On ch=1 n=30 v=80
30240 On ch=1 n=42 v=80
30348 Off ch=1 n=30 v=64
30348 Off ch=1 n=42 v=64
30360 On ch=1 n=30 v=80
30360 On ch=1 n=42 v=80
30468 Off ch=1 n=30 v=64
30468 Off ch=1 n=42 v=64
30480 On ch=1 n=42 v=80
30480 On ch=1 n=54 v=80
30588 Off ch=1 n=42 v=64
30588 Off ch=1 n=54 v=64
30600 On ch=1 n=42 v=80
30600 On ch=1 n=54 v=80
30708 Off ch=1 n=42 v=64
30708 Off ch=1 n=54 v=64
30720 On ch=1 n=30 v=80
30720 On ch=1 n=42 v=80
30936 Off ch=1 n=30 v=64
30936 Off ch=1 n=42 v=64
30960 On ch=1 n=42 v=80
31176 Off ch=1 n=42 v=64
31200 On ch=1 n=30 v=80
31200 On ch=1 n=42 v=80
31416 Off ch=1 n=30 v=64
31416 Off ch=1 n=42 v=64
31440 On ch=1 n=28 v=80
31440 On ch=1 n=40 v=80
31440 On ch=1 n=47 v=80
31656 Off ch=1 n=28 v=64
31656 Off ch=1 n=40 v=64
31656 Off ch=1 n=47 v=64
31680 On ch=1 n=28 v=80
31680 On ch=1 n=40 v=80
31680 On ch=1 n=47 v=80
31896 Off ch=1 n=28 v=64
31896 Off ch=1 n=40 v=64
31896 Off ch=1 n=47 v=64
31920 On ch=1 n=30 v=80
31920 On ch=1 n=42 v=80
32136 Off ch=1 n=30 v=64
32136 Off ch=1 n=42 v=64
32160 On ch=1 n=30 v=80
32160 On ch=1 n=42 v=80
32592 Off ch=1 n=30 v=64
32592 Off ch=1 n=42 v=64
32640 Par ch=1 c=64 v=64
32640 On ch=1 n=42 v=80
32856 Off ch=1 n=42 v=64
32880 On ch=1 n=54 v=80
33096 Off ch=1 n=54 v=64
33120 On ch=1 n=37 v=80
33336 Off ch=1 n=37 v=64
33360 On ch=1 n=54 v=80
33576 Off ch=1 n=54 v=64
33600 On ch=1 n=42 v=80
33816 Off ch=1 n=42 v=64
33840 On ch=1 n=54 v=80
34056 Off ch=1 n=54 v=64
34080 On ch=1 n=37 v=80
34296 Off ch=1 n=37 v=64
34320 On ch=1 n=54 v=80
34536 Off ch=1 n=54 v=64
34560 On ch=1 n=37 v=80
34776 Off ch=1 n=37 v=64
34800 On ch=1 n=49 v=80
35016 Off ch=1 n=49 v=64
35040 On ch=1 n=37 v=80
35256 Off ch=1 n=37 v=64
35280 On ch=1 n=49 v=80
35496 Off ch=1 n=49 v=64
35520 On ch=1 n=37 v=80
35736 Off ch=1 n=37 v=64
35760 On ch=1 n=49 v=80
35976 Off ch=1 n=49 v=64
36000 On ch=1 n=37 v=80
36216 Off ch=1 n=37 v=64
36240 On ch=1 n=49 v=80
36456 Off ch=1 n=49 v=64
36480 On ch=1 n=38 v=80
36696 Off ch=1 n=38 v=64
36720 On ch=1 n=50 v=80
36936 Off ch=1 n=50 v=64
36960 On ch=1 n=38 v=80
37176 Off ch=1 n=38 v=64
37200 On ch=1 n=50 v=80
37416 Off ch=1 n=50 v=64
37440 On ch=1 n=38 v=80
37656 Off ch=1 n=38 v=64
37680 On ch=1 n=50 v=80
37896 Off ch=1 n=50 v=64
37920 On ch=1 n=38 v=80
38136 Off ch=1 n=38 v=64
38160 On ch=1 n=50 v=80
38376 Off ch=1 n=50 v=64
38400 On ch=1 n=38 v=80
38616 Off ch=1 n=38 v=64
38640 On ch=1 n=50 v=80
38856 Off ch=1 n=50 v=64
38880 On ch=1 n=38 v=80
39096 Off ch=1 n=38 v=64
39120 On ch=1 n=50 v=80
39336 Off ch=1 n=50 v=64
39360 On ch=1 n=38 v=80
39576 Off ch=1 n=38 v=64
39600 On ch=1 n=50 v=80
39816 Off ch=1 n=50 v=64
39840 On ch=1 n=38 v=80
40056 Off ch=1 n=38 v=64
40080 On ch=1 n=50 v=80
40296 Off ch=1 n=50 v=64
40320 On ch=1 n=42 v=80
40536 Off ch=1 n=42 v=64
40560 On ch=1 n=54 v=80
40776 Off ch=1 n=54 v=64
40800 On ch=1 n=42 v=80
41016 Off ch=1 n=42 v=64
41040 On ch=1 n=54 v=80
41256 Off ch=1 n=54 v=64
41280 On ch=1 n=42 v=80
41496 Off ch=1 n=42 v=64
41520 On ch=1 n=54 v=80
41736 Off ch=1 n=54 v=64
41760 On ch=1 n=42 v=80
41976 Off ch=1 n=42 v=64
42000 On ch=1 n=54 v=80
42216 Off ch=1 n=54 v=64
42240 On ch=1 n=45 v=80
42456 Off ch=1 n=45 v=64
42480 On ch=1 n=57 v=80
42696 Off ch=1 n=57 v=64
42720 On ch=1 n=45 v=80
42936 Off ch=1 n=45 v=64
42960 On ch=1 n=57 v=80
43176 Off ch=1 n=57 v=64
43200 On ch=1 n=40 v=80
43416 Off ch=1 n=40 v=64
43440 On ch=1 n=52 v=80
43656 Off ch=1 n=52 v=64
43680 On ch=1 n=37 v=80
43896 Off ch=1 n=37 v=64
43920 On ch=1 n=49 v=80
44136 Off ch=1 n=49 v=64
44160 Par ch=1 c=64 v=0
44160 On ch=1 n=66 v=80
44160 On ch=1 n=62 v=80
44160 On ch=1 n=57 v=80
44376 Off ch=1 n=66 v=64
44376 Off ch=1 n=62 v=64
44376 Off ch=1 n=57 v=64
44400 On ch=1 n=66 v=80
44400 On ch=1 n=62 v=80
44400 On ch=1 n=57 v=80
44616 Off ch=1 n=66 v=64
44616 Off ch=1 n=62 v=64
44616 Off ch=1 n=57 v=64
45120 On ch=1 n=68 v=80
45120 On ch=1 n=64 v=80
45120 On ch=1 n=59 v=80
45336 Off ch=1 n=68 v=64
45336 Off ch=1 n=64 v=64
45336 Off ch=1 n=59 v=64
45360 On ch=1 n=68 v=80
45360 On ch=1 n=64 v=80
45360 On ch=1 n=59 v=80
45576 Off ch=1 n=68 v=64
45576 Off ch=1 n=64 v=64
45576 Off ch=1 n=59 v=64
46080 Par ch=1 c=64 v=64
46080 On ch=1 n=45 v=80
46296 Off ch=1 n=45 v=64
46320 On ch=1 n=57 v=80
46536 Off ch=1 n=57 v=64
46560 On ch=1 n=35 v=80
46776 Off ch=1 n=35 v=64
46800 On ch=1 n=59 v=80
46908 Off ch=1 n=59 v=64
46920 On ch=1 n=51 v=80
47028 Off ch=1 n=51 v=64
47040 On ch=1 n=54 v=80
47256 Off ch=1 n=54 v=64
47280 On ch=1 n=51 v=80
47496 Off ch=1 n=51 v=64
47520 On ch=1 n=47 v=80
47736 Off ch=1 n=47 v=64
47760 On ch=1 n=42 v=80
47976 Off ch=1 n=42 v=64
48000 Par ch=1 c=64 v=0
48000 On ch=1 n=30 v=80
48000 On ch=1 n=42 v=80
48432 Off ch=1 n=30 v=64
48432 Off ch=1 n=42 v=64
48480 On ch=1 n=42 v=80
48696 Off ch=1 n=42 v=64
48720 On ch=1 n=54 v=80
48720 On ch=1 n=57 v=80
48936 Off ch=1 n=54 v=64
48936 Off ch=1 n=57 v=64
48960 On ch=1 n=42 v=80
49176 Off ch=1 n=42 v=64
49200 On ch=1 n=54 v=80
49200 On ch=1 n=57 v=80
49416 Off ch=1 n=54 v=64
49416 Off ch=1 n=57 v=64
49440 On ch=1 n=42 v=80
49656 Off ch=1 n=42 v=64
49680 On ch=1 n=54 v=80
49680 On ch=1 n=57 v=80
49896 Off ch=1 n=54 v=64
49896 Off ch=1 n=57 v=64
49920 On ch=1 n=42 v=80
50136 Off ch=1 n=42 v=64
50160 On ch=1 n=50 v=80
50160 On ch=1 n=54 v=80
50376 Off ch=1 n=50 v=64
50376 Off ch=1 n=54 v=64
50400 On ch=1 n=42 v=80
50616 Off ch=1 n=42 v=64
50640 On ch=1 n=50 v=80
50640 On ch=1 n=54 v=80
50856 Off ch=1 n=50 v=64
50856 Off ch=1 n=54 v=64
50880 On ch=1 n=42 v=80
51096 Off ch=1 n=42 v=64
51120 On ch=1 n=50 v=80
51120 On ch=1 n=54 v=80
51336 Off ch=1 n=50 v=64
51336 Off ch=1 n=54 v=64
51360 On ch=1 n=42 v=80
51576 Off ch=1 n=42 v=64
51600 On ch=1 n=50 v=80
51600 On ch=1 n=54 v=80
51816 Off ch=1 n=50 v=64
51816 Off ch=1 n=54 v=64
51840 On ch=1 n=40 v=80
52056 Off ch=1 n=40 v=64
52080 On ch=1 n=52 v=80
52080 On ch=1 n=56 v=80
52296 Off ch=1 n=52 v=64
52296 Off ch=1 n=56 v=64
52320 On ch=1 n=40 v=80
52536 Off ch=1 n=40 v=64
52560 On ch=1 n=39 v=80
52776 Off ch=1 n=39 v=64
52800 On ch=1 n=40 v=80
53016 Off ch=1 n=40 v=64
53040 On ch=1 n=52 v=80
53040 On ch=1 n=56 v=80
53256 Off ch=1 n=52 v=64
53256 Off ch=1 n=56 v=64
53280 On ch=1 n=40 v=80
53496 Off ch=1 n=40 v=64
53520 On ch=1 n=52 v=80
53520 On ch=1 n=56 v=80
53736 Off ch=1 n=52 v=64
53736 Off ch=1 n=56 v=64
53760 On ch=1 n=30 v=80
53760 On ch=1 n=42 v=80
54192 Off ch=1 n=30 v=64
54192 Off ch=1 n=42 v=64
54240 On ch=1 n=42 v=80
54456 Off ch=1 n=42 v=64
54480 On ch=1 n=54 v=80
54480 On ch=1 n=57 v=80
54696 Off ch=1 n=54 v=64
54696 Off ch=1 n=57 v=64
54720 On ch=1 n=42 v=80
54936 Off ch=1 n=42 v=64
54960 On ch=1 n=54 v=80
54960 On ch=1 n=57 v=80
55176 Off ch=1 n=54 v=64
55176 Off ch=1 n=57 v=64
55200 On ch=1 n=42 v=80
55416 Off ch=1 n=42 v=64
55440 On ch=1 n=54 v=80
55440 On ch=1 n=57 v=80
55656 Off ch=1 n=54 v=64
55656 Off ch=1 n=57 v=64
55680 On ch=1 n=30 v=80
55680 On ch=1 n=42 v=80
56112 Off ch=1 n=30 v=64
56112 Off ch=1 n=42 v=64
56160 On ch=1 n=42 v=80
56376 Off ch=1 n=42 v=64
56400 On ch=1 n=54 v=80
56400 On ch=1 n=57 v=80
56616 Off ch=1 n=54 v=64
56616 Off ch=1 n=57 v=64
56640 On ch=1 n=42 v=80
56856 Off ch=1 n=42 v=64
56880 On ch=1 n=54 v=80
56880 On ch=1 n=57 v=80
57096 Off ch=1 n=54 v=64
57096 Off ch=1 n=57 v=64
57120 On ch=1 n=42 v=80
57336 Off ch=1 n=42 v=64
57360 On ch=1 n=54 v=80
57360 On ch=1 n=57 v=80
57576 Off ch=1 n=54 v=64
57576 Off ch=1 n=57 v=64
57600 On ch=1 n=38 v=80
57816 Off ch=1 n=38 v=64
57840 On ch=1 n=50 v=80
57840 On ch=1 n=54 v=80
58056 Off ch=1 n=50 v=64
58056 Off ch=1 n=54 v=64
58080 On ch=1 n=38 v=80
58296 Off ch=1 n=38 v=64
58320 On ch=1 n=50 v=80
58320 On ch=1 n=54 v=80
58536 Off ch=1 n=50 v=64
58536 Off ch=1 n=54 v=64
58560 On ch=1 n=38 v=80
58776 Off ch=1 n=38 v=64
58800 On ch=1 n=50 v=80
58800 On ch=1 n=54 v=80
59016 Off ch=1 n=50 v=64
59016 Off ch=1 n=54 v=64
59040 On ch=1 n=38 v=80
59256 Off ch=1 n=38 v=64
59280 On ch=1 n=50 v=80
59280 On ch=1 n=54 v=80
59496 Off ch=1 n=50 v=64
59496 Off ch=1 n=54 v=64
59520 On ch=1 n=40 v=80
59520 On ch=1 n=52 v=80
59952 Off ch=1 n=40 v=64
59952 Off ch=1 n=52 v=64
60000 On ch=1 n=28 v=80
60216 Off ch=1 n=28 v=64
60240 On ch=1 n=44 v=80
60240 On ch=1 n=47 v=80
60456 Off ch=1 n=44 v=64
60456 Off ch=1 n=47 v=64
60480 On ch=1 n=40 v=80
60696 Off ch=1 n=40 v=64
60720 On ch=1 n=56 v=80
60720 On ch=1 n=59 v=80
60936 Off ch=1 n=56 v=64
60936 Off ch=1 n=59 v=64
60960 On ch=1 n=40 v=80
61392 Off ch=1 n=40 v=64
61440 On ch=1 n=30 v=80
61440 On ch=1 n=42 v=80
61548 Off ch=1 n=30 v=64
61548 Off ch=1 n=42 v=64
61560 On ch=1 n=37 v=80
61668 Off ch=1 n=37 v=64
61680 On ch=1 n=34 v=80
61680 On ch=1 n=46 v=80
61788 Off ch=1 n=34 v=64
61788 Off ch=1 n=46 v=64
61800 On ch=1 n=42 v=80
61908 Off ch=1 n=42 v=64
61920 On ch=1 n=37 v=80
61920 On ch=1 n=49 v=80
62028 Off ch=1 n=37 v=64
62028 Off ch=1 n=49 v=64
62040 On ch=1 n=46 v=80
62148 Off ch=1 n=46 v=64
62160 On ch=1 n=42 v=80
62160 On ch=1 n=54 v=80
62268 Off ch=1 n=42 v=64
62268 Off ch=1 n=54 v=64
62280 On ch=1 n=49 v=80
62388 Off ch=1 n=49 v=64
62400 On ch=1 n=58 v=80
62400 On ch=1 n=46 v=80
62508 Off ch=1 n=58 v=64
62508 Off ch=1 n=46 v=64
62520 On ch=1 n=54 v=80
62628 Off ch=1 n=54 v=64
62640 On ch=1 n=61 v=80
62640 On ch=1 n=49 v=80
62748 Off ch=1 n=61 v=64
62748 Off ch=1 n=49 v=64
62760 On ch=1 n=58 v=80
62868 Off ch=1 n=58 v=64
62880 On ch=1 n=66 v=80
62880 On ch=1 n=54 v=80
62988 Off ch=1 n=66 v=64
62988 Off ch=1 n=54 v=64
63000 On ch=1 n=61 v=80
63108 Off ch=1 n=61 v=64
63120 On ch=1 n=70 v=80
63120 On ch=1 n=58 v=80
63228 Off ch=1 n=70 v=64
63228 Off ch=1 n=58 v=64
63240 On ch=1 n=66 v=80
63348 Off ch=1 n=66 v=64
63360 On ch=1 n=26 v=80
63360 On ch=1 n=38 v=80
63576 Off ch=1 n=26 v=64
63576 Off ch=1 n=38 v=64
63600 On ch=1 n=50 v=80
63600 On ch=1 n=54 v=80
63816 Off ch=1 n=50 v=64
63816 Off ch=1 n=54 v=64
63840 On ch=1 n=38 v=80
63948 Off ch=1 n=38 v=64
63960 On ch=1 n=54 v=80
63960 On ch=1 n=57 v=80
64176 Off ch=1 n=54 v=64
64176 Off ch=1 n=57 v=64
64200 On ch=1 n=38 v=80
64308 Off ch=1 n=38 v=64
64320 On ch=1 n=40 v=80
64536 Off ch=1 n=40 v=64
64560 On ch=1 n=52 v=80
64560 On ch=1 n=56 v=80
64776 Off ch=1 n=52 v=64
64776 Off ch=1 n=56 v=64
64800 On ch=1 n=40 v=80
64908 Off ch=1 n=40 v=64
64920 On ch=1 n=56 v=80
64920 On ch=1 n=59 v=80
65136 Off ch=1 n=56 v=64
65136 Off ch=1 n=59 v=64
65160 On ch=1 n=40 v=80
65268 Off ch=1 n=40 v=64
65280 On ch=1 n=28 v=80
65280 On ch=1 n=40 v=80
65496 Off ch=1 n=28 v=64
65496 Off ch=1 n=40 v=64
65520 On ch=1 n=52 v=80
65520 On ch=1 n=56 v=80
65736 Off ch=1 n=52 v=64
65736 Off ch=1 n=56 v=64
65760 On ch=1 n=40 v=80
65868 Off ch=1 n=40 v=64
65880 On ch=1 n=56 v=80
65880 On ch=1 n=59 v=80
66096 Off ch=1 n=56 v=64
66096 Off ch=1 n=59 v=64
66120 On ch=1 n=40 v=80
66228 Off ch=1 n=40 v=64
66240 On ch=1 n=42 v=80
66456 Off ch=1 n=42 v=64
66480 On ch=1 n=54 v=80
66480 On ch=1 n=57 v=80
66696 Off ch=1 n=54 v=64
66696 Off ch=1 n=57 v=64
66720 On ch=1 n=42 v=80
66828 Off ch=1 n=42 v=64
66840 On ch=1 n=61 v=80
66840 On ch=1 n=57 v=80
67056 Off ch=1 n=61 v=64
67056 Off ch=1 n=57 v=64
67080 On ch=1 n=42 v=80
67188 Off ch=1 n=42 v=64
67200 On ch=1 n=26 v=80
67200 On ch=1 n=38 v=80
67416 Off ch=1 n=26 v=64
67416 Off ch=1 n=38 v=64
67440 On ch=1 n=50 v=80
67440 On ch=1 n=54 v=80
67656 Off ch=1 n=50 v=64
67656 Off ch=1 n=54 v=64
67680 On ch=1 n=38 v=80
67788 Off ch=1 n=38 v=64
67800 On ch=1 n=54 v=80
67800 On ch=1 n=57 v=80
68016 Off ch=1 n=54 v=64
68016 Off ch=1 n=57 v=64
68040 On ch=1 n=38 v=80
68148 Off ch=1 n=38 v=64
68160 On ch=1 n=40 v=80
68376 Off ch=1 n=40 v=64
68400 On ch=1 n=52 v=80
68400 On ch=1 n=56 v=80
68616 Off ch=1 n=52 v=64
68616 Off ch=1 n=56 v=64
68640 On ch=1 n=40 v=80
68748 Off ch=1 n=40 v=64
68760 On ch=1 n=56 v=80
68760 On ch=1 n=59 v=80
68976 Off ch=1 n=56 v=64
68976 Off ch=1 n=59 v=64
69000 On ch=1 n=40 v=80
69108 Off ch=1 n=40 v=64
69120 On ch=1 n=26 v=80
69120 On ch=1 n=38 v=80
69336 Off ch=1 n=26 v=64
69336 Off ch=1 n=38 v=64
69360 On ch=1 n=50 v=80
69360 On ch=1 n=54 v=80
69576 Off ch=1 n=50 v=64
69576 Off ch=1 n=54 v=64
69600 On ch=1 n=38 v=80
69708 Off ch=1 n=38 v=64
69720 On ch=1 n=54 v=80
69720 On ch=1 n=57 v=80
69936 Off ch=1 n=54 v=64
69936 Off ch=1 n=57 v=64
69960 On ch=1 n=38 v=80
70068 Off ch=1 n=38 v=64
70080 On ch=1 n=28 v=80
70080 On ch=1 n=40 v=80
70296 Off ch=1 n=28 v=64
70296 Off ch=1 n=40 v=64
70320 On ch=1 n=52 v=80
70320 On ch=1 n=56 v=80
70536 Off ch=1 n=52 v=64
70536 Off ch=1 n=56 v=64
70560 On ch=1 n=40 v=80
70668 Off ch=1 n=40 v=64
70680 On ch=1 n=56 v=80
70680 On ch=1 n=59 v=80
70896 Off ch=1 n=56 v=64
70896 Off ch=1 n=59 v=64
70920 On ch=1 n=40 v=80
71028 Off ch=1 n=40 v=64
71040 On ch=1 n=26 v=80
71040 On ch=1 n=38 v=80
71472 Off ch=1 n=26 v=64
71472 Off ch=1 n=38 v=64
71520 On ch=1 n=57 v=80
71520 On ch=1 n=54 v=80
71520 On ch=1 n=50 v=80
71952 Off ch=1 n=57 v=64
71952 Off ch=1 n=54 v=64
71952 Off ch=1 n=50 v=64
72000 On ch=1 n=28 v=80
72000 On ch=1 n=40 v=80
72432 Off ch=1 n=28 v=64
72432 Off ch=1 n=40 v=64
72480 On ch=1 n=59 v=80
72480 On ch=1 n=56 v=80
72480 On ch=1 n=52 v=80
72912 Off ch=1 n=59 v=64
72912 Off ch=1 n=56 v=64
72912 Off ch=1 n=52 v=64
72960 On ch=1 n=28 v=80
72960 On ch=1 n=40 v=80
73176 Off ch=1 n=28 v=64
73176 Off ch=1 n=40 v=64
73200 On ch=1 n=52 v=80
73200 On ch=1 n=56 v=80
73416 Off ch=1 n=52 v=64
73416 Off ch=1 n=56 v=64
73440 On ch=1 n=40 v=80
73548 Off ch=1 n=40 v=64
73560 On ch=1 n=56 v=80
73560 On ch=1 n=59 v=80
73776 Off ch=1 n=56 v=64
73776 Off ch=1 n=59 v=64
73800 On ch=1 n=40 v=80
73908 Off ch=1 n=40 v=64
73920 On ch=1 n=33 v=80
73920 On ch=1 n=45 v=80
74136 Off ch=1 n=33 v=64
74136 Off ch=1 n=45 v=64
74160 On ch=1 n=57 v=80
74160 On ch=1 n=61 v=80
74376 Off ch=1 n=57 v=64
74376 Off ch=1 n=61 v=64
74400 On ch=1 n=45 v=80
74508 Off ch=1 n=45 v=64
74520 On ch=1 n=64 v=80
74520 On ch=1 n=61 v=80
74736 Off ch=1 n=64 v=64
74736 Off ch=1 n=61 v=64
74760 On ch=1 n=45 v=80
74868 Off ch=1 n=45 v=64
74880 On ch=1 n=26 v=80
74880 On ch=1 n=38 v=80
75312 Off ch=1 n=26 v=64
75312 Off ch=1 n=38 v=64
75360 On ch=1 n=57 v=80
75360 On ch=1 n=54 v=80
75360 On ch=1 n=50 v=80
75792 Off ch=1 n=57 v=64
75792 Off ch=1 n=54 v=64
75792 Off ch=1 n=50 v=64
75840 On ch=1 n=28 v=80
75840 On ch=1 n=40 v=80
76272 Off ch=1 n=28 v=64
76272 Off ch=1 n=40 v=64
76320 On ch=1 n=59 v=80
76320 On ch=1 n=56 v=80
76320 On ch=1 n=52 v=80
76752 Off ch=1 n=59 v=64
76752 Off ch=1 n=56 v=64
76752 Off ch=1 n=52 v=64
76800 On ch=1 n=30 v=80
76800 On ch=1 n=42 v=80
77232 Off ch=1 n=30 v=64
77232 Off ch=1 n=42 v=64
77280 On ch=1 n=40 v=80
77496 Off ch=1 n=40 v=64
77520 On ch=1 n=52 v=80
77736 Off ch=1 n=52 v=64
77760 On ch=1 n=30 v=80
77760 On ch=1 n=42 v=80
78192 Off ch=1 n=30 v=64
78192 Off ch=1 n=42 v=64
78240 On ch=1 n=54 v=80
78456 Off ch=1 n=54 v=64
78480 On ch=1 n=42 v=80
78696 Off ch=1 n=42 v=64
78720 On ch=1 n=30 v=80
78720 On ch=1 n=42 v=80
78936 Off ch=1 n=30 v=64
78936 Off ch=1 n=42 v=64
78960 On ch=1 n=42 v=80
78960 On ch=1 n=54 v=80
79176 Off ch=1 n=42 v=64
79176 Off ch=1 n=54 v=64
79200 On ch=1 n=30 v=80
79200 On ch=1 n=42 v=80
79416 Off ch=1 n=30 v=64
79416 Off ch=1 n=42 v=64
79440 On ch=1 n=42 v=80
79440 On ch=1 n=54 v=80
79656 Off ch=1 n=42 v=64
79656 Off ch=1 n=54 v=64
79680 On ch=1 n=30 v=80
79680 On ch=1 n=42 v=80
79896 Off ch=1 n=30 v=64
79896 Off ch=1 n=42 v=64
79920 On ch=1 n=42 v=80
79920 On ch=1 n=54 v=80
80136 Off ch=1 n=42 v=64
80136 Off ch=1 n=54 v=64
80160 On ch=1 n=30 v=80
80160 On ch=1 n=42 v=80
80268 Off ch=1 n=30 v=64
80268 Off ch=1 n=42 v=64
80280 On ch=1 n=30 v=80
80280 On ch=1 n=42 v=80
80388 Off ch=1 n=30 v=64
80388 Off ch=1 n=42 v=64
80400 On ch=1 n=42 v=80
80400 On ch=1 n=54 v=80
80508 Off ch=1 n=42 v=64
80508 Off ch=1 n=54 v=64
80520 On ch=1 n=42 v=80
80520 On ch=1 n=54 v=80
80628 Off ch=1 n=42 v=64
80628 Off ch=1 n=54 v=64
80640 On ch=1 n=30 v=80
80640 On ch=1 n=42 v=80
80856 Off ch=1 n=30 v=64
80856 Off ch=1 n=42 v=64
80880 On ch=1 n=42 v=80
80880 On ch=1 n=54 v=80
81096 Off ch=1 n=42 v=64
81096 Off ch=1 n=54 v=64
81120 On ch=1 n=30 v=80
81120 On ch=1 n=42 v=80
81336 Off ch=1 n=30 v=64
81336 Off ch=1 n=42 v=64
81360 On ch=1 n=42 v=80
81360 On ch=1 n=54 v=80
81576 Off ch=1 n=42 v=64
81576 Off ch=1 n=54 v=64
81600 On ch=1 n=30 v=80
81600 On ch=1 n=42 v=80
81816 Off ch=1 n=30 v=64
81816 Off ch=1 n=42 v=64
81840 On ch=1 n=42 v=80
81840 On ch=1 n=54 v=80
82056 Off ch=1 n=42 v=64
82056 Off ch=1 n=54 v=64
82080 On ch=1 n=30 v=80
82080 On ch=1 n=42 v=80
82188 Off ch=1 n=30 v=64
82188 Off ch=1 n=42 v=64
82200 On ch=1 n=30 v=80
82200 On ch=1 n=42 v=80
82308 Off ch=1 n=30 v=64
82308 Off ch=1 n=42 v=64
82320 On ch=1 n=42 v=80
82320 On ch=1 n=54 v=80
82428 Off ch=1 n=42 v=64
82428 Off ch=1 n=54 v=64
82440 On ch=1 n=42 v=80
82440 On ch=1 n=54 v=80
82548 Off ch=1 n=42 v=64
82548 Off ch=1 n=54 v=64
82560 On ch=1 n=30 v=80
82560 On ch=1 n=42 v=80
82776 Off ch=1 n=30 v=64
82776 Off ch=1 n=42 v=64
82800 On ch=1 n=42 v=80
82800 On ch=1 n=54 v=80
83016 Off ch=1 n=42 v=64
83016 Off ch=1 n=54 v=64
83040 On ch=1 n=30 v=80
83040 On ch=1 n=42 v=80
83256 Off ch=1 n=30 v=64
83256 Off ch=1 n=42 v=64
83280 On ch=1 n=42 v=80
83280 On ch=1 n=54 v=80
83496 Off ch=1 n=42 v=64
83496 Off ch=1 n=54 v=64
83520 On ch=1 n=30 v=80
83520 On ch=1 n=42 v=80
83736 Off ch=1 n=30 v=64
83736 Off ch=1 n=42 v=64
83760 On ch=1 n=42 v=80
83760 On ch=1 n=54 v=80
83976 Off ch=1 n=42 v=64
83976 Off ch=1 n=54 v=64
84000 On ch=1 n=30 v=80
84000 On ch=1 n=42 v=80
84108 Off ch=1 n=30 v=64
84108 Off ch=1 n=42 v=64
84120 On ch=1 n=30 v=80
84120 On ch=1 n=42 v=80
84228 Off ch=1 n=30 v=64
84228 Off ch=1 n=42 v=64
84240 On ch=1 n=42 v=80
84240 On ch=1 n=54 v=80
84348 Off ch=1 n=42 v=64
84348 Off ch=1 n=54 v=64
84360 On ch=1 n=42 v=80
84360 On ch=1 n=54 v=80
84468 Off ch=1 n=42 v=64
84468 Off ch=1 n=54 v=64
84480 On ch=1 n=26 v=80
84480 On ch=1 n=38 v=80
84696 Off ch=1 n=26 v=64
84696 Off ch=1 n=38 v=64
84720 On ch=1 n=38 v=80
84720 On ch=1 n=50 v=80
84936 Off ch=1 n=38 v=64
84936 Off ch=1 n=50 v=64
84960 On ch=1 n=26 v=80
84960 On ch=1 n=38 v=80
85176 Off ch=1 n=26 v=64
85176 Off ch=1 n=38 v=64
85200 On ch=1 n=38 v=80
85200 On ch=1 n=50 v=80
85416 Off ch=1 n=38 v=64
85416 Off ch=1 n=50 v=64
85440 On ch=1 n=25 v=80
85440 On ch=1 n=37 v=80
85656 Off ch=1 n=25 v=64
85656 Off ch=1 n=37 v=64
85680 On ch=1 n=37 v=80
85680 On ch=1 n=49 v=80
85896 Off ch=1 n=37 v=64
85896 Off ch=1 n=49 v=64
85920 On ch=1 n=25 v=80
85920 On ch=1 n=37 v=80
86028 Off ch=1 n=25 v=64
86028 Off ch=1 n=37 v=64
86040 On ch=1 n=25 v=80
86040 On ch=1 n=37 v=80
86148 Off ch=1 n=25 v=64
86148 Off ch=1 n=37 v=64
86160 On ch=1 n=37 v=80
86160 On ch=1 n=49 v=80
86268 Off ch=1 n=37 v=64
86268 Off ch=1 n=49 v=64
86280 On ch=1 n=37 v=80
86280 On ch=1 n=49 v=80
86388 Off ch=1 n=37 v=64
86388 Off ch=1 n=49 v=64
86400 On ch=1 n=30 v=80
86400 On ch=1 n=42 v=80
86616 Off ch=1 n=30 v=64
86616 Off ch=1 n=42 v=64
86640 On ch=1 n=42 v=80
86640 On ch=1 n=54 v=80
86856 Off ch=1 n=42 v=64
86856 Off ch=1 n=54 v=64
86880 On ch=1 n=30 v=80
86880 On ch=1 n=42 v=80
87096 Off ch=1 n=30 v=64
87096 Off ch=1 n=42 v=64
87120 On ch=1 n=42 v=80
87120 On ch=1 n=54 v=80
87336 Off ch=1 n=42 v=64
87336 Off ch=1 n=54 v=64
87360 On ch=1 n=30 v=80
87360 On ch=1 n=42 v=80
87576 Off ch=1 n=30 v=64
87576 Off ch=1 n=42 v=64
87600 On ch=1 n=42 v=80
87600 On ch=1 n=54 v=80
87816 Off ch=1 n=42 v=64
87816 Off ch=1 n=54 v=64
87840 On ch=1 n=30 v=80
87840 On ch=1 n=42 v=80
87948 Off ch=1 n=30 v=64
87948 Off ch=1 n=42 v=64
87960 On ch=1 n=30 v=80
87960 On ch=1 n=42 v=80
88068 Off ch=1 n=30 v=64
88068 Off ch=1 n=42 v=64
88080 On ch=1 n=42 v=80
88080 On ch=1 n=54 v=80
88188 Off ch=1 n=42 v=64
88188 Off ch=1 n=54 v=64
88200 On ch=1 n=42 v=80
88200 On ch=1 n=54 v=80
88308 Off ch=1 n=42 v=64
88308 Off ch=1 n=54 v=64
88320 On ch=1 n=30 v=80
88320 On ch=1 n=42 v=80
88536 Off ch=1 n=30 v=64
88536 Off ch=1 n=42 v=64
88560 On ch=1 n=42 v=80
88560 On ch=1 n=54 v=80
88776 Off ch=1 n=42 v=64
88776 Off ch=1 n=54 v=64
88800 On ch=1 n=30 v=80
88800 On ch=1 n=42 v=80
89016 Off ch=1 n=30 v=64
89016 Off ch=1 n=42 v=64
89040 On ch=1 n=42 v=80
89040 On ch=1 n=54 v=80
89256 Off ch=1 n=42 v=64
89256 Off ch=1 n=54 v=64
89280 On ch=1 n=30 v=80
89280 On ch=1 n=42 v=80
89496 Off ch=1 n=30 v=64
89496 Off ch=1 n=42 v=64
89520 On ch=1 n=42 v=80
89520 On ch=1 n=54 v=80
89736 Off ch=1 n=42 v=64
89736 Off ch=1 n=54 v=64
89760 On ch=1 n=30 v=80
89760 On ch=1 n=42 v=80
89868 Off ch=1 n=30 v=64
89868 Off ch=1 n=42 v=64
89880 On ch=1 n=30 v=80
89880 On ch=1 n=42 v=80
89988 Off ch=1 n=30 v=64
89988 Off ch=1 n=42 v=64
90000 On ch=1 n=42 v=80
90000 On ch=1 n=54 v=80
90108 Off ch=1 n=42 v=64
90108 Off ch=1 n=54 v=64
90120 On ch=1 n=42 v=80
90120 On ch=1 n=54 v=80
90228 Off ch=1 n=42 v=64
90228 Off ch=1 n=54 v=64
90240 On ch=1 n=30 v=80
90240 On ch=1 n=42 v=80
90456 Off ch=1 n=30 v=64
90456 Off ch=1 n=42 v=64
90480 On ch=1 n=42 v=80
90480 On ch=1 n=54 v=80
90696 Off ch=1 n=42 v=64
90696 Off ch=1 n=54 v=64
90720 On ch=1 n=30 v=80
90720 On ch=1 n=42 v=80
90936 Off ch=1 n=30 v=64
90936 Off ch=1 n=42 v=64
90960 On ch=1 n=42 v=80
90960 On ch=1 n=54 v=80
91176 Off ch=1 n=42 v=64
91176 Off ch=1 n=54 v=64
91200 On ch=1 n=30 v=80
91200 On ch=1 n=42 v=80
91416 Off ch=1 n=30 v=64
91416 Off ch=1 n=42 v=64
91440 On ch=1 n=42 v=80
91440 On ch=1 n=54 v=80
91656 Off ch=1 n=42 v=64
91656 Off ch=1 n=54 v=64
91680 On ch=1 n=30 v=80
91680 On ch=1 n=42 v=80
91788 Off ch=1 n=30 v=64
91788 Off ch=1 n=42 v=64
91800 On ch=1 n=30 v=80
91800 On ch=1 n=42 v=80
91908 Off ch=1 n=30 v=64
91908 Off ch=1 n=42 v=64
91920 On ch=1 n=42 v=80
91920 On ch=1 n=54 v=80
92028 Off ch=1 n=42 v=64
92028 Off ch=1 n=54 v=64
92040 On ch=1 n=42 v=80
92040 On ch=1 n=54 v=80
92148 Off ch=1 n=42 v=64
92148 Off ch=1 n=54 v=64
92160 On ch=1 n=30 v=80
92160 On ch=1 n=42 v=80
92376 Off ch=1 n=30 v=64
92376 Off ch=1 n=42 v=64
92400 On ch=1 n=42 v=80
92616 Off ch=1 n=42 v=64
92640 On ch=1 n=30 v=80
92640 On ch=1 n=42 v=80
92856 Off ch=1 n=30 v=64
92856 Off ch=1 n=42 v=64
92880 On ch=1 n=28 v=80
92880 On ch=1 n=40 v=80
92880 On ch=1 n=47 v=80
93096 Off ch=1 n=28 v=64
93096 Off ch=1 n=40 v=64
93096 Off ch=1 n=47 v=64
93120 On ch=1 n=28 v=80
93120 On ch=1 n=40 v=80
93120 On ch=1 n=47 v=80
93336 Off ch=1 n=28 v=64
93336 Off ch=1 n=40 v=64
93336 Off ch=1 n=47 v=64
93360 On ch=1 n=30 v=80
93360 On ch=1 n=42 v=80
93576 Off ch=1 n=30 v=64
93576 Off ch=1 n=42 v=64
93600 On ch=1 n=30 v=80
93600 On ch=1 n=42 v=80
94032 Off ch=1 n=30 v=64
94032 Off ch=1 n=42 v=64
94080 Par ch=1 c=64 v=64
94080 On ch=1 n=42 v=80
94296 Off ch=1 n=42 v=64
94320 On ch=1 n=49 v=80
94536 Off ch=1 n=49 v=64
94560 On ch=1 n=54 v=80
94776 Off ch=1 n=54 v=64
94800 On ch=1 n=57 v=80
95016 Off ch=1 n=57 v=64
95040 On ch=1 n=61 v=80
95256 Off ch=1 n=61 v=64
95280 On ch=1 n=49 v=80
95496 Off ch=1 n=49 v=64
95520 On ch=1 n=57 v=80
95736 Off ch=1 n=57 v=64
95760 On ch=1 n=54 v=80
95976 Off ch=1 n=54 v=64
96000 On ch=1 n=45 v=80
96216 Off ch=1 n=45 v=64
96240 On ch=1 n=49 v=80
96456 Off ch=1 n=49 v=64
96480 On ch=1 n=52 v=80
96696 Off ch=1 n=52 v=64
96720 On ch=1 n=61 v=80
96936 Off ch=1 n=61 v=64
96960 On ch=1 n=57 v=80
97176 Off ch=1 n=57 v=64
97200 On ch=1 n=49 v=80
97416 Off ch=1 n=49 v=64
97440 On ch=1 n=61 v=80
97656 Off ch=1 n=61 v=64
97680 On ch=1 n=49 v=80
97896 Off ch=1 n=49 v=64
97920 On ch=1 n=38 v=80
98136 Off ch=1 n=38 v=64
98160 On ch=1 n=42 v=80
98376 Off ch=1 n=42 v=64
98400 On ch=1 n=45 v=80
98616 Off ch=1 n=45 v=64
98640 On ch=1 n=54 v=80
98856 Off ch=1 n=54 v=64
98880 On ch=1 n=50 v=80
99096 Off ch=1 n=50 v=64
99120 On ch=1 n=42 v=80
99336 Off ch=1 n=42 v=64
99360 On ch=1 n=54 v=80
99576 Off ch=1 n=54 v=64
99600 On ch=1 n=42 v=80
99816 Off ch=1 n=42 v=64
99840 Par ch=1 c=64 v=64
99840 On ch=1 n=38 v=80
100056 Off ch=1 n=38 v=64
100080 On ch=1 n=50 v=80
100296 Off ch=1 n=50 v=64
100320 Par ch=1 c=64 v=0
100320 On ch=1 n=57 v=80
100320 On ch=1 n=54 v=80
100752 Off ch=1 n=57 v=64
100752 Off ch=1 n=54 v=64
100800 Par ch=1 c=64 v=64
100800 On ch=1 n=40 v=80
101016 Off ch=1 n=40 v=64
101040 On ch=1 n=52 v=80
101256 Off ch=1 n=52 v=64
101280 Par ch=1 c=64 v=0
101280 On ch=1 n=59 v=80
101280 On ch=1 n=56 v=80
101712 Off ch=1 n=59 v=64
101712 Off ch=1 n=56 v=64
101760 Par ch=1 c=64 v=64
101760 On ch=1 n=30 v=80
101760 On ch=1 n=42 v=80
101976 Off ch=1 n=30 v=64
101976 Off ch=1 n=42 v=64
102000 On ch=1 n=42 v=80
102216 Off ch=1 n=42 v=64
102240 On ch=1 n=49 v=80
102240 On ch=1 n=54 v=80
102240 On ch=1 n=57 v=80
102456 Off ch=1 n=49 v=64
102456 Off ch=1 n=54 v=64
102456 Off ch=1 n=57 v=64
102480 On ch=1 n=42 v=80
102696 Off ch=1 n=42 v=64
102720 On ch=1 n=30 v=80
102720 On ch=1 n=42 v=80
102936 Off ch=1 n=30 v=64
102936 Off ch=1 n=42 v=64
102960 On ch=1 n=42 v=80
103176 Off ch=1 n=42 v=64
103200 On ch=1 n=49 v=80
103200 On ch=1 n=54 v=80
103200 On ch=1 n=57 v=80
103416 Off ch=1 n=49 v=64
103416 Off ch=1 n=54 v=64
103416 Off ch=1 n=57 v=64
103440 On ch=1 n=42 v=80
103656 Off ch=1 n=42 v=64
103680 On ch=1 n=33 v=80
103680 On ch=1 n=45 v=80
103896 Off ch=1 n=33 v=64
103896 Off ch=1 n=45 v=64
103920 On ch=1 n=45 v=80
104136 Off ch=1 n=45 v=64
104160 On ch=1 n=52 v=80
104160 On ch=1 n=57 v=80
104160 On ch=1 n=61 v=80
104376 Off ch=1 n=52 v=64
104376 Off ch=1 n=57 v=64
104376 Off ch=1 n=61 v=64
104400 On ch=1 n=45 v=80
104616 Off ch=1 n=45 v=64
104640 On ch=1 n=33 v=80
104640 On ch=1 n=45 v=80
104856 Off ch=1 n=33 v=64
104856 Off ch=1 n=45 v=64
104880 On ch=1 n=45 v=80
105096 Off ch=1 n=45 v=64
105120 On ch=1 n=52 v=80
105120 On ch=1 n=57 v=80
105120 On ch=1 n=61 v=80
105336 Off ch=1 n=52 v=64
105336 Off ch=1 n=57 v=64
105336 Off ch=1 n=61 v=64
105360 On ch=1 n=45 v=80
105576 Off ch=1 n=45 v=64
105600 Par ch=1 c=64 v=0
105600 On ch=1 n=66 v=80
105600 On ch=1 n=62 v=80
105600 On ch=1 n=57 v=80
105816 Off ch=1 n=66 v=64
105816 Off ch=1 n=62 v=64
105816 Off ch=1 n=57 v=64
105840 On ch=1 n=66 v=80
105840 On ch=1 n=62 v=80
105840 On ch=1 n=57 v=80
106056 Off ch=1 n=66 v=64
106056 Off ch=1 n=62 v=64
106056 Off ch=1 n=57 v=64
106560 On ch=1 n=68 v=80
106560 On ch=1 n=64 v=80
106560 On ch=1 n=59 v=80
106776 Off ch=1 n=68 v=64
106776 Off ch=1 n=64 v=64
106776 Off ch=1 n=59 v=64
106800 On ch=1 n=68 v=80
106800 On ch=1 n=64 v=80
106800 On ch=1 n=59 v=80
107016 Off ch=1 n=68 v=64
107016 Off ch=1 n=64 v=64
107016 Off ch=1 n=59 v=64
107520 Par ch=1 c=64 v=64
107520 On ch=1 n=45 v=80
107736 Off ch=1 n=45 v=64
107760 On ch=1 n=57 v=80
107976 Off ch=1 n=57 v=64
108000 On ch=1 n=35 v=80
108216 Off ch=1 n=35 v=64
108240 On ch=1 n=59 v=80
108348 Off ch=1 n=59 v=64
108360 On ch=1 n=51 v=80
108468 Off ch=1 n=51 v=64
108480 On ch=1 n=54 v=80
108696 Off ch=1 n=54 v=64
108720 On ch=1 n=51 v=80
108936 Off ch=1 n=51 v=64
108960 On ch=1 n=47 v=80
109176 Off ch=1 n=47 v=64
109200 On ch=1 n=42 v=80
109416 Off ch=1 n=42 v=64
109440 Par ch=1 c=64 v=0
109440 On ch=1 n=30 v=80
109440 On ch=1 n=42 v=80
109872 Off ch=1 n=30 v=64
109872 Off ch=1 n=42 v=64
109920 On ch=1 n=42 v=80
110136 Off ch=1 n=42 v=64
110160 On ch=1 n=54 v=80
110160 On ch=1 n=57 v=80
110376 Off ch=1 n=54 v=64
110376 Off ch=1 n=57 v=64
110400 On ch=1 n=42 v=80
110616 Off ch=1 n=42 v=64
110640 On ch=1 n=54 v=80
110640 On ch=1 n=57 v=80
110856 Off ch=1 n=54 v=64
110856 Off ch=1 n=57 v=64
110880 On ch=1 n=42 v=80
111096 Off ch=1 n=42 v=64
111120 On ch=1 n=54 v=80
111120 On ch=1 n=57 v=80
111336 Off ch=1 n=54 v=64
111336 Off ch=1 n=57 v=64
111360 On ch=1 n=42 v=80
111576 Off ch=1 n=42 v=64
111600 On ch=1 n=50 v=80
111600 On ch=1 n=54 v=80
111816 Off ch=1 n=50 v=64
111816 Off ch=1 n=54 v=64
111840 On ch=1 n=42 v=80
112056 Off ch=1 n=42 v=64
112080 On ch=1 n=50 v=80
112080 On ch=1 n=54 v=80
112296 Off ch=1 n=50 v=64
112296 Off ch=1 n=54 v=64
112320 On ch=1 n=42 v=80
112536 Off ch=1 n=42 v=64
112560 On ch=1 n=50 v=80
112560 On ch=1 n=54 v=80
112776 Off ch=1 n=50 v=64
112776 Off ch=1 n=54 v=64
112800 On ch=1 n=42 v=80
113016 Off ch=1 n=42 v=64
113040 On ch=1 n=50 v=80
113040 On ch=1 n=54 v=80
113256 Off ch=1 n=50 v=64
113256 Off ch=1 n=54 v=64
113280 On ch=1 n=40 v=80
113496 Off ch=1 n=40 v=64
113520 On ch=1 n=52 v=80
113520 On ch=1 n=56 v=80
113736 Off ch=1 n=52 v=64
113736 Off ch=1 n=56 v=64
113760 On ch=1 n=40 v=80
113976 Off ch=1 n=40 v=64
114000 On ch=1 n=39 v=80
114216 Off ch=1 n=39 v=64
114240 On ch=1 n=40 v=80
114456 Off ch=1 n=40 v=64
114480 On ch=1 n=52 v=80
114480 On ch=1 n=56 v=80
114696 Off ch=1 n=52 v=64
114696 Off ch=1 n=56 v=64
114720 On ch=1 n=40 v=80
114936 Off ch=1 n=40 v=64
114960 On ch=1 n=52 v=80
114960 On ch=1 n=56 v=80
115176 Off ch=1 n=52 v=64
115176 Off ch=1 n=56 v=64
115200 On ch=1 n=30 v=80
115200 On ch=1 n=42 v=80
115632 Off ch=1 n=30 v=64
115632 Off ch=1 n=42 v=64
115680 On ch=1 n=42 v=80
115896 Off ch=1 n=42 v=64
115920 On ch=1 n=54 v=80
115920 On ch=1 n=57 v=80
116136 Off ch=1 n=54 v=64
116136 Off ch=1 n=57 v=64
116160 On ch=1 n=42 v=80
116376 Off ch=1 n=42 v=64
116400 On ch=1 n=54 v=80
116400 On ch=1 n=57 v=80
116616 Off ch=1 n=54 v=64
116616 Off ch=1 n=57 v=64
116640 On ch=1 n=42 v=80
116856 Off ch=1 n=42 v=64
116880 On ch=1 n=54 v=80
116880 On ch=1 n=57 v=80
117096 Off ch=1 n=54 v=64
117096 Off ch=1 n=57 v=64
117120 On ch=1 n=30 v=80
117120 On ch=1 n=42 v=80
117552 Off ch=1 n=30 v=64
117552 Off ch=1 n=42 v=64
117600 On ch=1 n=42 v=80
117816 Off ch=1 n=42 v=64
117840 On ch=1 n=54 v=80
117840 On ch=1 n=57 v=80
118056 Off ch=1 n=54 v=64
118056 Off ch=1 n=57 v=64
118080 On ch=1 n=42 v=80
118296 Off ch=1 n=42 v=64
118320 On ch=1 n=54 v=80
118320 On ch=1 n=57 v=80
118536 Off ch=1 n=54 v=64
118536 Off ch=1 n=57 v=64
118560 On ch=1 n=42 v=80
118776 Off ch=1 n=42 v=64
118800 On ch=1 n=54 v=80
118800 On ch=1 n=57 v=80
119016 Off ch=1 n=54 v=64
119016 Off ch=1 n=57 v=64
119040 On ch=1 n=38 v=80
119256 Off ch=1 n=38 v=64
119280 On ch=1 n=50 v=80
119280 On ch=1 n=54 v=80
119496 Off ch=1 n=50 v=64
119496 Off ch=1 n=54 v=64
119520 On ch=1 n=38 v=80
119736 Off ch=1 n=38 v=64
119760 On ch=1 n=50 v=80
119760 On ch=1 n=54 v=80
119976 Off ch=1 n=50 v=64
119976 Off ch=1 n=54 v=64
120000 On ch=1 n=38 v=80
120216 Off ch=1 n=38 v=64
120240 On ch=1 n=50 v=80
120240 On ch=1 n=54 v=80
120456 Off ch=1 n=50 v=64
120456 Off ch=1 n=54 v=64
120480 On ch=1 n=38 v=80
120696 Off ch=1 n=38 v=64
120720 On ch=1 n=50 v=80
120720 On ch=1 n=54 v=80
120936 Off ch=1 n=50 v=64
120936 Off ch=1 n=54 v=64
120960 On ch=1 n=40 v=80
120960 On ch=1 n=52 v=80
121392 Off ch=1 n=40 v=64
121392 Off ch=1 n=52 v=64
121440 On ch=1 n=28 v=80
121656 Off ch=1 n=28 v=64
121680 On ch=1 n=44 v=80
121680 On ch=1 n=47 v=80
121896 Off ch=1 n=44 v=64
121896 Off ch=1 n=47 v=64
121920 On ch=1 n=40 v=80
122136 Off ch=1 n=40 v=64
122160 On ch=1 n=56 v=80
122160 On ch=1 n=59 v=80
122376 Off ch=1 n=56 v=64
122376 Off ch=1 n=59 v=64
122400 On ch=1 n=40 v=80
122832 Off ch=1 n=40 v=64
122880 On ch=1 n=30 v=80
122880 On ch=1 n=42 v=80
122988 Off ch=1 n=30 v=64
122988 Off ch=1 n=42 v=64
123000 On ch=1 n=37 v=80
123108 Off ch=1 n=37 v=64
123120 On ch=1 n=34 v=80
123120 On ch=1 n=46 v=80
123228 Off ch=1 n=34 v=64
123228 Off ch=1 n=46 v=64
123240 On ch=1 n=42 v=80
123348 Off ch=1 n=42 v=64
123360 On ch=1 n=37 v=80
123360 On ch=1 n=49 v=80
123468 Off ch=1 n=37 v=64
123468 Off ch=1 n=49 v=64
123480 On ch=1 n=46 v=80
123588 Off ch=1 n=46 v=64
123600 On ch=1 n=42 v=80
123600 On ch=1 n=54 v=80
123708 Off ch=1 n=42 v=64
123708 Off ch=1 n=54 v=64
123720 On ch=1 n=49 v=80
123828 Off ch=1 n=49 v=64
123840 On ch=1 n=58 v=80
123840 On ch=1 n=46 v=80
123948 Off ch=1 n=58 v=64
123948 Off ch=1 n=46 v=64
123960 On ch=1 n=54 v=80
124068 Off ch=1 n=54 v=64
124080 On ch=1 n=61 v=80
124080 On ch=1 n=49 v=80
124188 Off ch=1 n=61 v=64
124188 Off ch=1 n=49 v=64
124200 On ch=1 n=58 v=80
124308 Off ch=1 n=58 v=64
124320 On ch=1 n=66 v=80
124320 On ch=1 n=54 v=80
124428 Off ch=1 n=66 v=64
124428 Off ch=1 n=54 v=64
124440 On ch=1 n=61 v=80
124548 Off ch=1 n=61 v=64
124560 On ch=1 n=70 v=80
124560 On ch=1 n=58 v=80
124668 Off ch=1 n=70 v=64
124668 Off ch=1 n=58 v=64
124680 On ch=1 n=66 v=80
124788 Off ch=1 n=66 v=64
124800 On ch=1 n=26 v=80
124800 On ch=1 n=38 v=80
125016 Off ch=1 n=26 v=64
125016 Off ch=1 n=38 v=64
125040 On ch=1 n=50 v=80
125040 On ch=1 n=54 v=80
125256 Off ch=1 n=50 v=64
125256 Off ch=1 n=54 v=64
125280 On ch=1 n=38 v=80
125388 Off ch=1 n=38 v=64
125400 On ch=1 n=54 v=80
125400 On ch=1 n=57 v=80
125616 Off ch=1 n=54 v=64
125616 Off ch=1 n=57 v=64
125640 On ch=1 n=38 v=80
125748 Off ch=1 n=38 v=64
125760 On ch=1 n=40 v=80
125976 Off ch=1 n=40 v=64
126000 On ch=1 n=52 v=80
126000 On ch=1 n=56 v=80
126216 Off ch=1 n=52 v=64
126216 Off ch=1 n=56 v=64
126240 On ch=1 n=40 v=80
126348 Off ch=1 n=40 v=64
126360 On ch=1 n=56 v=80
126360 On ch=1 n=59 v=80
126576 Off ch=1 n=56 v=64
126576 Off ch=1 n=59 v=64
126600 On ch=1 n=40 v=80
126708 Off ch=1 n=40 v=64
126720 On ch=1 n=28 v=80
126720 On ch=1 n=40 v=80
126936 Off ch=1 n=28 v=64
126936 Off ch=1 n=40 v=64
126960 On ch=1 n=52 v=80
126960 On ch=1 n=56 v=80
127176 Off ch=1 n=52 v=64
127176 Off ch=1 n=56 v=64
127200 On ch=1 n=40 v=80
127308 Off ch=1 n=40 v=64
127320 On ch=1 n=56 v=80
127320 On ch=1 n=59 v=80
127536 Off ch=1 n=56 v=64
127536 Off ch=1 n=59 v=64
127560 On ch=1 n=40 v=80
127668 Off ch=1 n=40 v=64
127680 On ch=1 n=42 v=80
127896 Off ch=1 n=42 v=64
127920 On ch=1 n=54 v=80
127920 On ch=1 n=57 v=80
128136 Off ch=1 n=54 v=64
128136 Off ch=1 n=57 v=64
128160 On ch=1 n=42 v=80
128268 Off ch=1 n=42 v=64
128280 On ch=1 n=61 v=80
128280 On ch=1 n=57 v=80
128496 Off ch=1 n=61 v=64
128496 Off ch=1 n=57 v=64
128520 On ch=1 n=42 v=80
128628 Off ch=1 n=42 v=64
128640 On ch=1 n=26 v=80
128640 On ch=1 n=38 v=80
128856 Off ch=1 n=26 v=64
128856 Off ch=1 n=38 v=64
128880 On ch=1 n=50 v=80
128880 On ch=1 n=54 v=80
129096 Off ch=1 n=50 v=64
129096 Off ch=1 n=54 v=64
129120 On ch=1 n=38 v=80
129228 Off ch=1 n=38 v=64
129240 On ch=1 n=54 v=80
129240 On ch=1 n=57 v=80
129456 Off ch=1 n=54 v=64
129456 Off ch=1 n=57 v=64
129480 On ch=1 n=38 v=80
129588 Off ch=1 n=38 v=64
129600 On ch=1 n=40 v=80
129816 Off ch=1 n=40 v=64
129840 On ch=1 n=52 v=80
129840 On ch=1 n=56 v=80
130056 Off ch=1 n=52 v=64
130056 Off ch=1 n=56 v=64
130080 On ch=1 n=40 v=80
130188 Off ch=1 n=40 v=64
130200 On ch=1 n=56 v=80
130200 On ch=1 n=59 v=80
130416 Off ch=1 n=56 v=64
130416 Off ch=1 n=59 v=64
130440 On ch=1 n=40 v=80
130548 Off ch=1 n=40 v=64
130560 On ch=1 n=26 v=80
130560 On ch=1 n=38 v=80
130776 Off ch=1 n=26 v=64
130776 Off ch=1 n=38 v=64
130800 On ch=1 n=50 v=80
130800 On ch=1 n=54 v=80
131016 Off ch=1 n=50 v=64
131016 Off ch=1 n=54 v=64
131040 On ch=1 n=38 v=80
131148 Off ch=1 n=38 v=64
131160 On ch=1 n=54 v=80
131160 On ch=1 n=57 v=80
131376 Off ch=1 n=54 v=64
131376 Off ch=1 n=57 v=64
131400 On ch=1 n=38 v=80
131508 Off ch=1 n=38 v=64
131520 On ch=1 n=40 v=80
131736 Off ch=1 n=40 v=64
131760 On ch=1 n=52 v=80
131760 On ch=1 n=56 v=80
131976 Off ch=1 n=52 v=64
131976 Off ch=1 n=56 v=64
132000 On ch=1 n=40 v=80
132108 Off ch=1 n=40 v=64
132120 On ch=1 n=56 v=80
132120 On ch=1 n=59 v=80
132336 Off ch=1 n=56 v=64
132336 Off ch=1 n=59 v=64
132360 On ch=1 n=40 v=80
132468 Off ch=1 n=40 v=64
132480 On ch=1 n=26 v=80
132480 On ch=1 n=38 v=80
132696 Off ch=1 n=26 v=64
132696 Off ch=1 n=38 v=64
132720 On ch=1 n=50 v=80
132720 On ch=1 n=54 v=80
132936 Off ch=1 n=50 v=64
132936 Off ch=1 n=54 v=64
132960 On ch=1 n=38 v=80
133068 Off ch=1 n=38 v=64
133080 On ch=1 n=54 v=80
133080 On ch=1 n=57 v=80
133296 Off ch=1 n=54 v=64
133296 Off ch=1 n=57 v=64
133320 On ch=1 n=38 v=80
133428 Off ch=1 n=38 v=64
133440 On ch=1 n=40 v=80
133656 Off ch=1 n=40 v=64
133680 On ch=1 n=52 v=80
133680 On ch=1 n=56 v=80
133896 Off ch=1 n=52 v=64
133896 Off ch=1 n=56 v=64
133920 On ch=1 n=40 v=80
134028 Off ch=1 n=40 v=64
134040 On ch=1 n=56 v=80
134040 On ch=1 n=59 v=80
134256 Off ch=1 n=56 v=64
134256 Off ch=1 n=59 v=64
134280 On ch=1 n=40 v=80
134388 Off ch=1 n=40 v=64
134400 On ch=1 n=28 v=80
134400 On ch=1 n=40 v=80
134616 Off ch=1 n=28 v=64
134616 Off ch=1 n=40 v=64
134640 On ch=1 n=52 v=80
134640 On ch=1 n=56 v=80
134856 Off ch=1 n=52 v=64
134856 Off ch=1 n=56 v=64
134880 On ch=1 n=40 v=80
134988 Off ch=1 n=40 v=64
135000 On ch=1 n=56 v=80
135000 On ch=1 n=59 v=80
135216 Off ch=1 n=56 v=64
135216 Off ch=1 n=59 v=64
135240 On ch=1 n=40 v=80
135348 Off ch=1 n=40 v=64
135360 On ch=1 n=42 v=80
135576 Off ch=1 n=42 v=64
135600 On ch=1 n=59 v=80
135600 On ch=1 n=54 v=80
135816 Off ch=1 n=59 v=64
135816 Off ch=1 n=54 v=64
135840 On ch=1 n=42 v=80
135948 Off ch=1 n=42 v=64
135960 On ch=1 n=61 v=80
135960 On ch=1 n=57 v=80
136176 Off ch=1 n=61 v=64
136176 Off ch=1 n=57 v=64
136200 On ch=1 n=42 v=80
136308 Off ch=1 n=42 v=64
136320 On ch=1 n=26 v=80
136320 On ch=1 n=38 v=80
136752 Off ch=1 n=26 v=64
136752 Off ch=1 n=38 v=64
136800 On ch=1 n=57 v=80
136800 On ch=1 n=54 v=80
136800 On ch=1 n=50 v=80
137232 Off ch=1 n=57 v=64
137232 Off ch=1 n=54 v=64
137232 Off ch=1 n=50 v=64
137280 On ch=1 n=28 v=80
137280 On ch=1 n=40 v=80
137712 Off ch=1 n=28 v=64
137712 Off ch=1 n=40 v=64
137760 On ch=1 n=59 v=80
137760 On ch=1 n=56 v=80
137760 On ch=1 n=52 v=80
138192 Off ch=1 n=59 v=64
138192 Off ch=1 n=56 v=64
138192 Off ch=1 n=52 v=64
138240 On ch=1 n=57 v=80
138240 On ch=1 n=45 v=80
138456 Off ch=1 n=57 v=64
138456 Off ch=1 n=45 v=64
138480 On ch=1 n=61 v=80
138480 On ch=1 n=54 v=80
138480 On ch=1 n=49 v=80
138696 Off ch=1 n=61 v=64
138696 Off ch=1 n=54 v=64
138696 Off ch=1 n=49 v=64
138720 On ch=1 n=57 v=80
138720 On ch=1 n=45 v=80
138828 Off ch=1 n=57 v=64
138828 Off ch=1 n=45 v=64
138840 On ch=1 n=61 v=80
138840 On ch=1 n=54 v=80
138840 On ch=1 n=49 v=80
139056 Off ch=1 n=61 v=64
139056 Off ch=1 n=54 v=64
139056 Off ch=1 n=49 v=64
139080 On ch=1 n=57 v=80
139080 On ch=1 n=45 v=80
139188 Off ch=1 n=57 v=64
139188 Off ch=1 n=45 v=64
139200 On ch=1 n=61 v=80
139200 On ch=1 n=54 v=80
139200 On ch=1 n=49 v=80
139416 Off ch=1 n=61 v=64
139416 Off ch=1 n=54 v=64
139416 Off ch=1 n=49 v=64
139440 On ch=1 n=57 v=80
139440 On ch=1 n=45 v=80
139548 Off ch=1 n=57 v=64
139548 Off ch=1 n=45 v=64
139560 On ch=1 n=61 v=80
139560 On ch=1 n=54 v=80
139560 On ch=1 n=49 v=80
139788 Off ch=1 n=61 v=64
139788 Off ch=1 n=54 v=64
139788 Off ch=1 n=49 v=64
139800 On ch=1 n=57 v=80
139800 On ch=1 n=45 v=80
139908 Off ch=1 n=57 v=64
139908 Off ch=1 n=45 v=64
139920 On ch=1 n=61 v=80
139920 On ch=1 n=54 v=80
139920 On ch=1 n=49 v=80
140136 Off ch=1 n=61 v=64
140136 Off ch=1 n=54 v=64
140136 Off ch=1 n=49 v=64
142080 Par ch=1 c=64 v=64
142080 On ch=1 n=30 v=80
142080 On ch=1 n=42 v=80
142776 Off ch=1 n=30 v=64
142776 Off ch=1 n=42 v=64
142800 On ch=1 n=42 v=80
143016 Off ch=1 n=42 v=64
143040 On ch=1 n=49 v=80
143040 On ch=1 n=54 v=80
143256 Off ch=1 n=49 v=64
143256 Off ch=1 n=54 v=64
143280 On ch=1 n=42 v=80
143952 Off ch=1 n=42 v=64
144000 On ch=1 n=42 v=80
144348 Off ch=1 n=42 v=64
144360 On ch=1 n=42 v=80
144696 Off ch=1 n=42 v=64
144720 On ch=1 n=42 v=80
144936 Off ch=1 n=42 v=64
144960 On ch=1 n=50 v=80
144960 On ch=1 n=54 v=80
145176 Off ch=1 n=50 v=64
145176 Off ch=1 n=54 v=64
145200 On ch=1 n=42 v=80
145872 Off ch=1 n=42 v=64
145920 On ch=1 n=42 v=80
146616 Off ch=1 n=42 v=64
146640 On ch=1 n=42 v=80
146856 Off ch=1 n=42 v=64
146880 On ch=1 n=49 v=80
146880 On ch=1 n=54 v=80
147096 Off ch=1 n=49 v=64
147096 Off ch=1 n=54 v=64
147120 On ch=1 n=42 v=80
147792 Off ch=1 n=42 v=64
147840 On ch=1 n=42 v=80
148188 Off ch=1 n=42 v=64
148200 On ch=1 n=42 v=80
148536 Off ch=1 n=42 v=64
148560 On ch=1 n=42 v=80
148776 Off ch=1 n=42 v=64
148800 On ch=1 n=49 v=80
148800 On ch=1 n=54 v=80
149016 Off ch=1 n=49 v=64
149016 Off ch=1 n=54 v=64
149040 On ch=1 n=42 v=80
149256 Off ch=1 n=42 v=64
149280 On ch=1 n=30 v=80
149388 Off ch=1 n=30 v=64
149400 On ch=1 n=30 v=80
149508 Off ch=1 n=30 v=64
149520 On ch=1 n=30 v=80
149628 Off ch=1 n=30 v=64
149640 On ch=1 n=30 v=80
149748 Off ch=1 n=30 v=64
149760 On ch=1 n=30 v=80
149760 On ch=1 n=42 v=80
150456 Off ch=1 n=30 v=64
150456 Off ch=1 n=42 v=64
150480 On ch=1 n=42 v=80
150696 Off ch=1 n=42 v=64
150720 On ch=1 n=49 v=80
150720 On ch=1 n=54 v=80
150936 Off ch=1 n=49 v=64
150936 Off ch=1 n=54 v=64
150960 On ch=1 n=42 v=80
151632 Off ch=1 n=42 v=64
151680 On ch=1 n=42 v=80
152028 Off ch=1 n=42 v=64
152040 On ch=1 n=42 v=80
152376 Off ch=1 n=42 v=64
152400 On ch=1 n=42 v=80
152616 Off ch=1 n=42 v=64
152640 On ch=1 n=50 v=80
152640 On ch=1 n=54 v=80
152856 Off ch=1 n=50 v=64
152856 Off ch=1 n=54 v=64
152880 On ch=1 n=42 v=80
153552 Off ch=1 n=42 v=64
153600 On ch=1 n=42 v=80
154296 Off ch=1 n=42 v=64
154320 On ch=1 n=42 v=80
154536 Off ch=1 n=42 v=64
154560 On ch=1 n=49 v=80
154560 On ch=1 n=54 v=80
154776 Off ch=1 n=49 v=64
154776 Off ch=1 n=54 v=64
154800 On ch=1 n=42 v=80
155472 Off ch=1 n=42 v=64
155520 On ch=1 n=42 v=80
155868 Off ch=1 n=42 v=64
155880 On ch=1 n=42 v=80
156216 Off ch=1 n=42 v=64
156240 On ch=1 n=42 v=80
156456 Off ch=1 n=42 v=64
156480 On ch=1 n=49 v=80
156480 On ch=1 n=54 v=80
156696 Off ch=1 n=49 v=64
156696 Off ch=1 n=54 v=64
156720 On ch=1 n=42 v=80
156936 Off ch=1 n=42 v=64
156960 On ch=1 n=30 v=80
157068 Off ch=1 n=30 v=64
157080 On ch=1 n=33 v=80
157188 Off ch=1 n=33 v=64
157200 On ch=1 n=35 v=80
157308 Off ch=1 n=35 v=64
157320 On ch=1 n=37 v=80
157428 Off ch=1 n=37 v=64
157440 On ch=1 n=50 v=80
157440 On ch=1 n=38 v=80
157656 Off ch=1 n=50 v=64
157656 Off ch=1 n=38 v=64
157680 On ch=1 n=62 v=80
157896 Off ch=1 n=62 v=64
157920 On ch=1 n=50 v=80
158028 Off ch=1 n=50 v=64
158040 On ch=1 n=62 v=80
158256 Off ch=1 n=62 v=64
158280 On ch=1 n=50 v=80
158388 Off ch=1 n=50 v=64
158400 On ch=1 n=62 v=80
158616 Off ch=1 n=62 v=64
158640 On ch=1 n=50 v=80
158748 Off ch=1 n=50 v=64
158760 On ch=1 n=62 v=80
158988 Off ch=1 n=62 v=64
159000 On ch=1 n=50 v=80
159108 Off ch=1 n=50 v=64
159120 On ch=1 n=62 v=80
159336 Off ch=1 n=62 v=64
159360 On ch=1 n=40 v=80
159360 On ch=1 n=52 v=80
161088 Off ch=1 n=40 v=64
161088 Off ch=1 n=52 v=64
161280 On ch=1 n=42 v=80
161280 On ch=1 n=54 v=80
163008 Off ch=1 n=42 v=64
163008 Off ch=1 n=54 v=64
163200 On ch=1 n=52 v=80
163200 On ch=1 n=40 v=80
163416 Off ch=1 n=52 v=64
163416 Off ch=1 n=40 v=64
163440 On ch=1 n=64 v=80
163656 Off ch=1 n=64 v=64
163680 On ch=1 n=52 v=80
163788 Off ch=1 n=52 v=64
163800 On ch=1 n=64 v=80
164016 Off ch=1 n=64 v=64
164040 On ch=1 n=52 v=80
164148 Off ch=1 n=52 v=64
164160 On ch=1 n=64 v=80
164376 Off ch=1 n=64 v=64
164400 On ch=1 n=52 v=80
164508 Off ch=1 n=52 v=64
164520 On ch=1 n=64 v=80
164748 Off ch=1 n=64 v=64
164760 On ch=1 n=52 v=80
164868 Off ch=1 n=52 v=64
164880 On ch=1 n=64 v=80
165096 Off ch=1 n=64 v=64
165120 On ch=1 n=50 v=80
165120 On ch=1 n=38 v=80
165336 Off ch=1 n=50 v=64
165336 Off ch=1 n=38 v=64
165360 On ch=1 n=62 v=80
165576 Off ch=1 n=62 v=64
165600 On ch=1 n=50 v=80
165708 Off ch=1 n=50 v=64
165720 On ch=1 n=62 v=80
165936 Off ch=1 n=62 v=64
165960 On ch=1 n=50 v=80
166068 Off ch=1 n=50 v=64
166080 On ch=1 n=62 v=80
166296 Off ch=1 n=62 v=64
166320 On ch=1 n=50 v=80
166428 Off ch=1 n=50 v=64
166440 On ch=1 n=62 v=80
166668 Off ch=1 n=62 v=64
166680 On ch=1 n=50 v=80
166788 Off ch=1 n=50 v=64
166800 On ch=1 n=62 v=80
167016 Off ch=1 n=62 v=64
167040 On ch=1 n=52 v=80
167040 On ch=1 n=40 v=80
167256 Off ch=1 n=52 v=64
167256 Off ch=1 n=40 v=64
167280 On ch=1 n=64 v=80
167496 Off ch=1 n=64 v=64
167520 On ch=1 n=52 v=80
167628 Off ch=1 n=52 v=64
167640 On ch=1 n=64 v=80
167856 Off ch=1 n=64 v=64
167880 On ch=1 n=52 v=80
167988 Off ch=1 n=52 v=64
168000 On ch=1 n=64 v=80
168216 Off ch=1 n=64 v=64
168240 On ch=1 n=52 v=80
168348 Off ch=1 n=52 v=64
168360 On ch=1 n=64 v=80
168468 Off ch=1 n=64 v=64
168480 On ch=1 n=64 v=80
168588 Off ch=1 n=64 v=64
168600 On ch=1 n=52 v=80
168708 Off ch=1 n=52 v=64
168720 On ch=1 n=64 v=80
168936 Off ch=1 n=64 v=64
168960 On ch=1 n=54 v=80
168960 On ch=1 n=42 v=80
169176 Off ch=1 n=54 v=64
169176 Off ch=1 n=42 v=64
169200 On ch=1 n=66 v=80
169416 Off ch=1 n=66 v=64
169440 On ch=1 n=54 v=80
169548 Off ch=1 n=54 v=64
169560 On ch=1 n=66 v=80
169776 Off ch=1 n=66 v=64
169800 On ch=1 n=54 v=80
169908 Off ch=1 n=54 v=64
169920 On ch=1 n=66 v=80
170136 Off ch=1 n=66 v=64
170160 On ch=1 n=54 v=80
170268 Off ch=1 n=54 v=64
170280 On ch=1 n=66 v=80
170388 Off ch=1 n=66 v=64
170400 On ch=1 n=66 v=80
170508 Off ch=1 n=66 v=64
170520 On ch=1 n=54 v=80
170628 Off ch=1 n=54 v=64
170640 On ch=1 n=66 v=80
170856 Off ch=1 n=66 v=64
170880 On ch=1 n=52 v=80
170988 Off ch=1 n=52 v=64
171000 On ch=1 n=64 v=80
171216 Off ch=1 n=64 v=64
171240 On ch=1 n=52 v=80
171348 Off ch=1 n=52 v=64
171360 On ch=1 n=64 v=80
171576 Off ch=1 n=64 v=64
171600 On ch=1 n=52 v=80
171708 Off ch=1 n=52 v=64
171720 On ch=1 n=64 v=80
171828 Off ch=1 n=64 v=64
171840 On ch=1 n=64 v=80
172428 Off ch=1 n=64 v=64
172440 On ch=1 n=52 v=80
172548 Off ch=1 n=52 v=64
172560 On ch=1 n=64 v=80
172776 Off ch=1 n=64 v=64
172800 On ch=1 n=50 v=80
172908 Off ch=1 n=50 v=64
172920 On ch=1 n=62 v=80
173136 Off ch=1 n=62 v=64
173160 On ch=1 n=50 v=80
173268 Off ch=1 n=50 v=64
173280 On ch=1 n=62 v=80
173496 Off ch=1 n=62 v=64
173520 On ch=1 n=50 v=80
173628 Off ch=1 n=50 v=64
173640 On ch=1 n=62 v=80
173748 Off ch=1 n=62 v=64
173760 On ch=1 n=62 v=80
174348 Off ch=1 n=62 v=64
174360 On ch=1 n=50 v=80
174468 Off ch=1 n=50 v=64
174480 On ch=1 n=62 v=80
174696 Off ch=1 n=62 v=64
174720 On ch=1 n=50 v=80
174720 On ch=1 n=38 v=80
174936 Off ch=1 n=50 v=64
174936 Off ch=1 n=38 v=64
174960 On ch=1 n=62 v=80
175176 Off ch=1 n=62 v=64
175200 On ch=1 n=50 v=80
175308 Off ch=1 n=50 v=64
175320 On ch=1 n=62 v=80
175536 Off ch=1 n=62 v=64
175560 On ch=1 n=50 v=80
175668 Off ch=1 n=50 v=64
175680 On ch=1 n=62 v=80
175896 Off ch=1 n=62 v=64
175920 On ch=1 n=50 v=80
176028 Off ch=1 n=50 v=64
176040 On ch=1 n=62 v=80
176148 Off ch=1 n=62 v=64
176160 On ch=1 n=62 v=80
176268 Off ch=1 n=62 v=64
176280 On ch=1 n=50 v=80
176388 Off ch=1 n=50 v=64
176400 On ch=1 n=62 v=80
176616 Off ch=1 n=62 v=64
176640 On ch=1 n=52 v=80
176640 On ch=1 n=40 v=80
176856 Off ch=1 n=52 v=64
176856 Off ch=1 n=40 v=64
176880 On ch=1 n=64 v=80
177096 Off ch=1 n=64 v=64
177120 On ch=1 n=52 v=80
177228 Off ch=1 n=52 v=64
177240 On ch=1 n=64 v=80
177456 Off ch=1 n=64 v=64
177480 On ch=1 n=52 v=80
177588 Off ch=1 n=52 v=64
177600 On ch=1 n=64 v=80
177816 Off ch=1 n=64 v=64
177840 On ch=1 n=52 v=80
177948 Off ch=1 n=52 v=64
177960 On ch=1 n=64 v=80
178068 Off ch=1 n=64 v=64
178080 On ch=1 n=64 v=80
178188 Off ch=1 n=64 v=64
178200 On ch=1 n=52 v=80
178308 Off ch=1 n=52 v=64
178320 On ch=1 n=64 v=80
178536 Off ch=1 n=64 v=64
178560 On ch=1 n=37 v=80
178560 On ch=1 n=49 v=80
178776 Off ch=1 n=37 v=64
178776 Off ch=1 n=49 v=64
178800 On ch=1 n=61 v=80
179016 Off ch=1 n=61 v=64
179040 On ch=1 n=49 v=80
179148 Off ch=1 n=49 v=64
179160 On ch=1 n=61 v=80
179376 Off ch=1 n=61 v=64
179400 On ch=1 n=49 v=80
179508 Off ch=1 n=49 v=64
179520 On ch=1 n=61 v=80
179736 Off ch=1 n=61 v=64
179760 On ch=1 n=49 v=80
179868 Off ch=1 n=49 v=64
179880 On ch=1 n=61 v=80
179988 Off ch=1 n=61 v=64
180000 On ch=1 n=61 v=80
180108 Off ch=1 n=61 v=64
180120 On ch=1 n=49 v=80
180228 Off ch=1 n=49 v=64
180240 On ch=1 n=61 v=80
180456 Off ch=1 n=61 v=64
180480 On ch=1 n=37 v=80
180480 On ch=1 n=49 v=80
180696 Off ch=1 n=37 v=64
180696 Off ch=1 n=49 v=64
180720 On ch=1 n=61 v=80
180936 Off ch=1 n=61 v=64
180960 On ch=1 n=49 v=80
181068 Off ch=1 n=49 v=64
181080 On ch=1 n=61 v=80
181296 Off ch=1 n=61 v=64
181320 On ch=1 n=49 v=80
181428 Off ch=1 n=49 v=64
181440 On ch=1 n=61 v=80
181656 Off ch=1 n=61 v=64
181680 On ch=1 n=49 v=80
181788 Off ch=1 n=49 v=64
181800 On ch=1 n=61 v=80
181908 Off ch=1 n=61 v=64
181920 On ch=1 n=61 v=80
182028 Off ch=1 n=61 v=64
182040 On ch=1 n=49 v=80
182148 Off ch=1 n=49 v=64
182160 On ch=1 n=61 v=80
182376 Off ch=1 n=61 v=64
182400 On ch=1 n=50 v=80
182400 On ch=1 n=38 v=80
182616 Off ch=1 n=50 v=64
182616 Off ch=1 n=38 v=64
182640 On ch=1 n=62 v=80
182856 Off ch=1 n=62 v=64
182880 On ch=1 n=50 v=80
182988 Off ch=1 n=50 v=64
183000 On ch=1 n=62 v=80
183216 Off ch=1 n=62 v=64
183240 On ch=1 n=50 v=80
183348 Off ch=1 n=50 v=64
183360 On ch=1 n=62 v=80
183576 Off ch=1 n=62 v=64
183600 On ch=1 n=50 v=80
183708 Off ch=1 n=50 v=64
183720 On ch=1 n=62 v=80
183948 Off ch=1 n=62 v=64
183960 On ch=1 n=50 v=80
184068 Off ch=1 n=50 v=64
184080 On ch=1 n=62 v=80
184296 Off ch=1 n=62 v=64
184320 Par ch=1 c=64 v=0
184320 On ch=1 n=52 v=80
184320 On ch=1 n=40 v=80
184536 Off ch=1 n=52 v=64
184536 Off ch=1 n=40 v=64
184560 On ch=1 n=64 v=80
184776 Off ch=1 n=64 v=64
184800 On ch=1 n=52 v=80
184908 Off ch=1 n=52 v=64
184920 On ch=1 n=64 v=80
185136 Off ch=1 n=64 v=64
185160 On ch=1 n=52 v=80
185268 Off ch=1 n=52 v=64
185280 On ch=1 n=64 v=80
185496 Off ch=1 n=64 v=64
185520 On ch=1 n=52 v=80
185628 Off ch=1 n=52 v=64
185640 On ch=1 n=64 v=80
185868 Off ch=1 n=64 v=64
185880 On ch=1 n=52 v=80
185988 Off ch=1 n=52 v=64
186000 On ch=1 n=64 v=80
186000 On ch=1 n=52 v=80
186216 Off ch=1 n=64 v=64
186216 Off ch=1 n=52 v=64
186240 On ch=1 n=28 v=80
186240 On ch=1 n=40 v=80
186348 Off ch=1 n=28 v=64
186348 Off ch=1 n=40 v=64
186360 On ch=1 n=35 v=80
186468 Off ch=1 n=35 v=64
186480 On ch=1 n=32 v=80
186480 On ch=1 n=44 v=80
186588 Off ch=1 n=32 v=64
186588 Off ch=1 n=44 v=64
186600 On ch=1 n=40 v=80
186708 Off ch=1 n=40 v=64
186720 On ch=1 n=35 v=80
186720 On ch=1 n=47 v=80
186828 Off ch=1 n=35 v=64
186828 Off ch=1 n=47 v=64
186840 On ch=1 n=44 v=80
186948 Off ch=1 n=44 v=64
186960 On ch=1 n=40 v=80
186960 On ch=1 n=52 v=80
187068 Off ch=1 n=40 v=64
187068 Off ch=1 n=52 v=64
187080 On ch=1 n=47 v=80
187188 Off ch=1 n=47 v=64
187200 On ch=1 n=56 v=80
187200 On ch=1 n=44 v=80
187308 Off ch=1 n=56 v=64
187308 Off ch=1 n=44 v=64
187320 On ch=1 n=52 v=80
187428 Off ch=1 n=52 v=64
187440 On ch=1 n=59 v=80
187440 On ch=1 n=47 v=80
187548 Off ch=1 n=59 v=64
187548 Off ch=1 n=47 v=64
187560 On ch=1 n=56 v=80
187668 Off ch=1 n=56 v=64
188160 Par ch=1 c=64 v=64
188160 On ch=1 n=38 v=80
188376 Off ch=1 n=38 v=64
188400 On ch=1 n=54 v=80
188400 On ch=1 n=57 v=80
188616 Off ch=1 n=54 v=64
188616 Off ch=1 n=57 v=64
188640 On ch=1 n=38 v=80
188856 Off ch=1 n=38 v=64
188880 On ch=1 n=54 v=80
188880 On ch=1 n=57 v=80
189096 Off ch=1 n=54 v=64
189096 Off ch=1 n=57 v=64
189120 On ch=1 n=38 v=80
189336 Off ch=1 n=38 v=64
189360 On ch=1 n=54 v=80
189360 On ch=1 n=57 v=80
189576 Off ch=1 n=54 v=64
189576 Off ch=1 n=57 v=64
189600 On ch=1 n=38 v=80
189816 Off ch=1 n=38 v=64
189840 On ch=1 n=54 v=80
189840 On ch=1 n=57 v=80
190056 Off ch=1 n=54 v=64
190056 Off ch=1 n=57 v=64
190080 On ch=1 n=40 v=80
190080 On ch=1 n=44 v=80
190080 On ch=1 n=47 v=80
190080 On ch=1 n=52 v=80
190080 On ch=1 n=56 v=80
191808 Off ch=1 n=40 v=64
191808 Off ch=1 n=44 v=64
191808 Off ch=1 n=47 v=64
191808 Off ch=1 n=52 v=64
191808 Off ch=1 n=56 v=64
192000 On ch=1 n=73 v=80
192000 On ch=1 n=69 v=80
192000 On ch=1 n=66 v=80
192000 On ch=1 n=61 v=80
192000 On ch=1 n=57 v=80
193728 Off ch=1 n=73 v=64
193728 Off ch=1 n=69 v=64
193728 Off ch=1 n=66 v=64
193728 Off ch=1 n=61 v=64
193728 Off ch=1 n=57 v=64
193920 On ch=1 n=73 v=80
193920 On ch=1 n=69 v=80
193920 On ch=1 n=64 v=80
193920 On ch=1 n=61 v=80
193920 On ch=1 n=57 v=80
193920 On ch=1 n=52 v=80
195648 Off ch=1 n=73 v=64
195648 Off ch=1 n=69 v=64
195648 Off ch=1 n=64 v=64
195648 Off ch=1 n=61 v=64
195648 Off ch=1 n=57 v=64
195648 Off ch=1 n=52 v=64
195840 Par ch=1 c=64 v=0
195840 On ch=1 n=57 v=80
195840 On ch=1 n=54 v=80
195840 On ch=1 n=50 v=80
197568 Off ch=1 n=57 v=64
197568 Off ch=1 n=54 v=64
197568 Off ch=1 n=50 v=64
197760 On ch=1 n=40 v=80
198192 Off ch=1 n=40 v=64
198240 On ch=1 n=52 v=80
198240 On ch=1 n=56 v=80
198672 Off ch=1 n=52 v=64
198672 Off ch=1 n=56 v=64
198720 On ch=1 n=40 v=80
198936 Off ch=1 n=40 v=64
198960 On ch=1 n=56 v=80
198960 On ch=1 n=59 v=80
199392 Off ch=1 n=56 v=64
199392 Off ch=1 n=59 v=64
199440 On ch=1 n=40 v=80
199656 Off ch=1 n=40 v=64
199680 On ch=1 n=38 v=95
199680 On ch=1 n=50 v=95
200112 Off ch=1 n=38 v=64
200112 Off ch=1 n=50 v=64
200160 On ch=1 n=66 v=95
200160 On ch=1 n=62 v=95
200376 Off ch=1 n=66 v=64
200376 Off ch=1 n=62 v=64
200400 On ch=1 n=57 v=95
200616 Off ch=1 n=57 v=64
200640 On ch=1 n=50 v=95
201072 Off ch=1 n=50 v=64
201120 On ch=1 n=62 v=95
201120 On ch=1 n=59 v=95
201552 Off ch=1 n=62 v=64
201552 Off ch=1 n=59 v=64
201600 On ch=1 n=28 v=95
201600 On ch=1 n=40 v=95
202032 Off ch=1 n=28 v=64
202032 Off ch=1 n=40 v=64
202080 On ch=1 n=56 v=95
202080 On ch=1 n=52 v=95
202296 Off ch=1 n=56 v=64
202296 Off ch=1 n=52 v=64
202320 On ch=1 n=47 v=95
202536 Off ch=1 n=47 v=64
202560 On ch=1 n=40 v=95
202992 Off ch=1 n=40 v=64
203040 On ch=1 n=52 v=95
203040 On ch=1 n=49 v=95
203472 Off ch=1 n=52 v=64
203472 Off ch=1 n=49 v=64
203520 On ch=1 n=26 v=95
203520 On ch=1 n=38 v=95
203952 Off ch=1 n=26 v=64
203952 Off ch=1 n=38 v=64
204000 On ch=1 n=50 v=95
204000 On ch=1 n=54 v=95
204216 Off ch=1 n=50 v=64
204216 Off ch=1 n=54 v=64
204240 On ch=1 n=45 v=95
204456 Off ch=1 n=45 v=64
204480 On ch=1 n=38 v=95
204912 Off ch=1 n=38 v=64
204960 On ch=1 n=47 v=95
204960 On ch=1 n=50 v=95
205392 Off ch=1 n=47 v=64
205392 Off ch=1 n=50 v=64
205440 On ch=1 n=28 v=95
205440 On ch=1 n=40 v=95
205872 Off ch=1 n=28 v=64
205872 Off ch=1 n=40 v=64
205920 On ch=1 n=56 v=95
205920 On ch=1 n=52 v=95
206136 Off ch=1 n=56 v=64
206136 Off ch=1 n=52 v=64
206160 On ch=1 n=47 v=95
206376 Off ch=1 n=47 v=64
206400 On ch=1 n=40 v=95
206832 Off ch=1 n=40 v=64
206880 On ch=1 n=52 v=95
206880 On ch=1 n=49 v=95
207312 Off ch=1 n=52 v=64
207312 Off ch=1 n=49 v=64
207360 On ch=1 n=30 v=95
207360 On ch=1 n=42 v=95
207792 Off ch=1 n=30 v=64
207792 Off ch=1 n=42 v=64
207840 On ch=1 n=57 v=95
207840 On ch=1 n=54 v=95
208056 Off ch=1 n=57 v=64
208056 Off ch=1 n=54 v=64
208080 On ch=1 n=49 v=95
208296 Off ch=1 n=49 v=64
208320 On ch=1 n=42 v=95
208752 Off ch=1 n=42 v=64
208800 On ch=1 n=54 v=95
208800 On ch=1 n=50 v=95
209232 Off ch=1 n=54 v=64
209232 Off ch=1 n=50 v=64
209280 On ch=1 n=33 v=95
209280 On ch=1 n=45 v=95
209712 Off ch=1 n=33 v=64
209712 Off ch=1 n=45 v=64
209760 On ch=1 n=61 v=95
209760 On ch=1 n=57 v=95
209976 Off ch=1 n=61 v=64
209976 Off ch=1 n=57 v=64
210000 On ch=1 n=52 v=95
210216 Off ch=1 n=52 v=64
210240 On ch=1 n=45 v=95
210672 Off ch=1 n=45 v=64
210720 On ch=1 n=57 v=95
210720 On ch=1 n=54 v=95
211152 Off ch=1 n=57 v=64
211152 Off ch=1 n=54 v=64
211200 Par ch=1 c=64 v=64
211200 On ch=1 n=35 v=95
211200 On ch=1 n=42 v=95
212928 Off ch=1 n=35 v=64
212928 Off ch=1 n=42 v=64
215040 Par ch=1 c=64 v=0
215040 On ch=1 n=57 v=95
215040 On ch=1 n=45 v=95
215472 Off ch=1 n=57 v=64
215472 Off ch=1 n=45 v=64
215520 On ch=1 n=61 v=95
215520 On ch=1 n=54 v=95
215520 On ch=1 n=49 v=95
215952 Off ch=1 n=61 v=64
215952 Off ch=1 n=54 v=64
215952 Off ch=1 n=49 v=64
216000 On ch=1 n=57 v=95
216000 On ch=1 n=45 v=95
216216 Off ch=1 n=57 v=64
216216 Off ch=1 n=45 v=64
216240 On ch=1 n=61 v=95
216240 On ch=1 n=54 v=95
216240 On ch=1 n=49 v=95
216672 Off ch=1 n=61 v=64
216672 Off ch=1 n=54 v=64
216672 Off ch=1 n=49 v=64
216720 On ch=1 n=57 v=95
216720 On ch=1 n=45 v=95
216936 Off ch=1 n=57 v=64
216936 Off ch=1 n=45 v=64
216960 On ch=1 n=61 v=95
216960 On ch=1 n=54 v=95
216960 On ch=1 n=49 v=95
217392 Off ch=1 n=61 v=64
217392 Off ch=1 n=54 v=64
217392 Off ch=1 n=49 v=64
217440 On ch=1 n=57 v=95
217440 On ch=1 n=45 v=95
217656 Off ch=1 n=57 v=64
217656 Off ch=1 n=45 v=64
217680 On ch=1 n=61 v=95
217680 On ch=1 n=54 v=95
217680 On ch=1 n=49 v=95
218136 Off ch=1 n=61 v=64
218136 Off ch=1 n=54 v=64
218136 Off ch=1 n=49 v=64
218160 On ch=1 n=57 v=95
218160 On ch=1 n=45 v=95
218376 Off ch=1 n=57 v=64
218376 Off ch=1 n=45 v=64
218400 On ch=1 n=61 v=95
218400 On ch=1 n=54 v=95
218400 On ch=1 n=49 v=95
218832 Off ch=1 n=61 v=64
218832 Off ch=1 n=54 v=64
218832 Off ch=1 n=49 v=64
218880 On ch=1 n=26 v=95
218880 On ch=1 n=38 v=95
219312 Off ch=1 n=26 v=64
219312 Off ch=1 n=38 v=64
219360 On ch=1 n=57 v=95
219360 On ch=1 n=54 v=95
219360 On ch=1 n=50 v=95
219792 Off ch=1 n=57 v=64
219792 Off ch=1 n=54 v=64
219792 Off ch=1 n=50 v=64
219840 On ch=1 n=28 v=95
219840 On ch=1 n=40 v=95
220272 Off ch=1 n=28 v=64
220272 Off ch=1 n=40 v=64
220320 On ch=1 n=59 v=95
220320 On ch=1 n=56 v=95
220320 On ch=1 n=52 v=95
220752 Off ch=1 n=59 v=64
220752 Off ch=1 n=56 v=64
220752 Off ch=1 n=52 v=64
220800 On ch=1 n=28 v=95
220800 On ch=1 n=40 v=95
221232 Off ch=1 n=28 v=64
221232 Off ch=1 n=40 v=64
221280 On ch=1 n=52 v=95
221280 On ch=1 n=56 v=95
221712 Off ch=1 n=52 v=64
221712 Off ch=1 n=56 v=64
221760 On ch=1 n=40 v=95
221976 Off ch=1 n=40 v=64
222000 On ch=1 n=56 v=95
222000 On ch=1 n=59 v=95
222432 Off ch=1 n=56 v=64
222432 Off ch=1 n=59 v=64
222480 On ch=1 n=40 v=95
222696 Off ch=1 n=40 v=64
222720 On ch=1 n=26 v=95
222720 On ch=1 n=38 v=95
223152 Off ch=1 n=26 v=64
223152 Off ch=1 n=38 v=64
223200 On ch=1 n=57 v=95
223200 On ch=1 n=54 v=95
223200 On ch=1 n=50 v=95
223632 Off ch=1 n=57 v=64
223632 Off ch=1 n=54 v=64
223632 Off ch=1 n=50 v=64
223680 On ch=1 n=28 v=95
223680 On ch=1 n=40 v=95
224112 Off ch=1 n=28 v=64
224112 Off ch=1 n=40 v=64
224160 On ch=1 n=59 v=95
224160 On ch=1 n=56 v=95
224160 On ch=1 n=52 v=95
224592 Off ch=1 n=59 v=64
224592 Off ch=1 n=56 v=64
224592 Off ch=1 n=52 v=64
224640 On ch=1 n=30 v=95
224640 On ch=1 n=42 v=95
225072 Off ch=1 n=30 v=64
225072 Off ch=1 n=42 v=64
225120 On ch=1 n=40 v=95
225336 Off ch=1 n=40 v=64
225360 On ch=1 n=52 v=95
225576 Off ch=1 n=52 v=64
225600 On ch=1 n=30 v=95
225600 On ch=1 n=42 v=95
226032 Off ch=1 n=30 v=64
226032 Off ch=1 n=42 v=64
226080 On ch=1 n=54 v=95
226296 Off ch=1 n=54 v=64
226320 On ch=1 n=42 v=95
226536 Off ch=1 n=42 v=64
226560 On ch=1 n=30 v=80
226560 On ch=1 n=42 v=80
226776 Off ch=1 n=30 v=64
226776 Off ch=1 n=42 v=64
226800 On ch=1 n=42 v=80
226800 On ch=1 n=49 v=80
226800 On ch=1 n=54 v=80
227016 Off ch=1 n=42 v=64
227016 Off ch=1 n=49 v=64
227016 Off ch=1 n=54 v=64
227040 On ch=1 n=30 v=80
227040 On ch=1 n=42 v=80
227256 Off ch=1 n=30 v=64
227256 Off ch=1 n=42 v=64
227280 On ch=1 n=42 v=80
227280 On ch=1 n=49 v=80
227280 On ch=1 n=54 v=80
227496 Off ch=1 n=42 v=64
227496 Off ch=1 n=49 v=64
227496 Off ch=1 n=54 v=64
227520 On ch=1 n=30 v=80
227520 On ch=1 n=42 v=80
227736 Off ch=1 n=30 v=64
227736 Off ch=1 n=42 v=64
227760 On ch=1 n=42 v=80
227760 On ch=1 n=49 v=80
227760 On ch=1 n=54 v=80
227976 Off ch=1 n=42 v=64
227976 Off ch=1 n=49 v=64
227976 Off ch=1 n=54 v=64
228000 On ch=1 n=30 v=80
228000 On ch=1 n=42 v=80
228108 Off ch=1 n=30 v=64
228108 Off ch=1 n=42 v=64
228120 On ch=1 n=30 v=80
228120 On ch=1 n=42 v=80
228228 Off ch=1 n=30 v=64
228228 Off ch=1 n=42 v=64
228240 On ch=1 n=42 v=80
228240 On ch=1 n=49 v=80
228240 On ch=1 n=54 v=80
228348 Off ch=1 n=42 v=64
228348 Off ch=1 n=49 v=64
228348 Off ch=1 n=54 v=64
228360 On ch=1 n=42 v=80
228360 On ch=1 n=49 v=80
228360 On ch=1 n=54 v=80
228468 Off ch=1 n=42 v=64
228468 Off ch=1 n=49 v=64
228468 Off ch=1 n=54 v=64
228480 On ch=1 n=30 v=80
228480 On ch=1 n=42 v=80
228696 Off ch=1 n=30 v=64
228696 Off ch=1 n=42 v=64
228720 On ch=1 n=42 v=80
228720 On ch=1 n=49 v=80
228720 On ch=1 n=54 v=80
228936 Off ch=1 n=42 v=64
228936 Off ch=1 n=49 v=64
228936 Off ch=1 n=54 v=64
228960 On ch=1 n=30 v=80
228960 On ch=1 n=42 v=80
229176 Off ch=1 n=30 v=64
229176 Off ch=1 n=42 v=64
229200 On ch=1 n=42 v=80
229200 On ch=1 n=49 v=80
229200 On ch=1 n=54 v=80
229416 Off ch=1 n=42 v=64
229416 Off ch=1 n=49 v=64
229416 Off ch=1 n=54 v=64
229440 On ch=1 n=30 v=80
229440 On ch=1 n=42 v=80
229656 Off ch=1 n=30 v=64
229656 Off ch=1 n=42 v=64
229680 On ch=1 n=42 v=80
229680 On ch=1 n=49 v=80
229680 On ch=1 n=54 v=80
229896 Off ch=1 n=42 v=64
229896 Off ch=1 n=49 v=64
229896 Off ch=1 n=54 v=64
229920 On ch=1 n=30 v=80
229920 On ch=1 n=42 v=80
230028 Off ch=1 n=30 v=64
230028 Off ch=1 n=42 v=64
230040 On ch=1 n=30 v=80
230040 On ch=1 n=42 v=80
230148 Off ch=1 n=30 v=64
230148 Off ch=1 n=42 v=64
230160 On ch=1 n=42 v=80
230160 On ch=1 n=49 v=80
230160 On ch=1 n=54 v=80
230268 Off ch=1 n=42 v=64
230268 Off ch=1 n=49 v=64
230268 Off ch=1 n=54 v=64
230280 On ch=1 n=42 v=80
230280 On ch=1 n=49 v=80
230280 On ch=1 n=54 v=80
230388 Off ch=1 n=42 v=64
230388 Off ch=1 n=49 v=64
230388 Off ch=1 n=54 v=64
230400 On ch=1 n=30 v=80
230400 On ch=1 n=42 v=80
230616 Off ch=1 n=30 v=64
230616 Off ch=1 n=42 v=64
230640 On ch=1 n=42 v=80
230640 On ch=1 n=49 v=80
230640 On ch=1 n=54 v=80
230856 Off ch=1 n=42 v=64
230856 Off ch=1 n=49 v=64
230856 Off ch=1 n=54 v=64
230880 On ch=1 n=30 v=80
230880 On ch=1 n=42 v=80
231096 Off ch=1 n=30 v=64
231096 Off ch=1 n=42 v=64
231120 On ch=1 n=42 v=80
231120 On ch=1 n=49 v=80
231120 On ch=1 n=54 v=80
231336 Off ch=1 n=42 v=64
231336 Off ch=1 n=49 v=64
231336 Off ch=1 n=54 v=64
231360 On ch=1 n=30 v=80
231360 On ch=1 n=42 v=80
231576 Off ch=1 n=30 v=64
231576 Off ch=1 n=42 v=64
231600 On ch=1 n=42 v=80
231600 On ch=1 n=49 v=80
231600 On ch=1 n=54 v=80
231816 Off ch=1 n=42 v=64
231816 Off ch=1 n=49 v=64
231816 Off ch=1 n=54 v=64
231840 On ch=1 n=30 v=80
231840 On ch=1 n=42 v=80
231948 Off ch=1 n=30 v=64
231948 Off ch=1 n=42 v=64
231960 On ch=1 n=30 v=80
231960 On ch=1 n=42 v=80
232068 Off ch=1 n=30 v=64
232068 Off ch=1 n=42 v=64
232080 On ch=1 n=42 v=80
232080 On ch=1 n=49 v=80
232080 On ch=1 n=54 v=80
232188 Off ch=1 n=42 v=64
232188 Off ch=1 n=49 v=64
232188 Off ch=1 n=54 v=64
232200 On ch=1 n=42 v=80
232200 On ch=1 n=49 v=80
232200 On ch=1 n=54 v=80
232308 Off ch=1 n=42 v=64
232308 Off ch=1 n=49 v=64
232308 Off ch=1 n=54 v=64
232320 On ch=1 n=26 v=80
232320 On ch=1 n=38 v=80
232536 Off ch=1 n=26 v=64
232536 Off ch=1 n=38 v=64
232560 On ch=1 n=38 v=80
232560 On ch=1 n=45 v=80
232560 On ch=1 n=50 v=80
232776 Off ch=1 n=38 v=64
232776 Off ch=1 n=45 v=64
232776 Off ch=1 n=50 v=64
232800 On ch=1 n=26 v=80
232800 On ch=1 n=38 v=80
233016 Off ch=1 n=26 v=64
233016 Off ch=1 n=38 v=64
233040 On ch=1 n=38 v=80
233040 On ch=1 n=45 v=80
233040 On ch=1 n=50 v=80
233256 Off ch=1 n=38 v=64
233256 Off ch=1 n=45 v=64
233256 Off ch=1 n=50 v=64
233280 On ch=1 n=25 v=80
233280 On ch=1 n=37 v=80
233496 Off ch=1 n=25 v=64
233496 Off ch=1 n=37 v=64
233520 On ch=1 n=37 v=80
233520 On ch=1 n=44 v=80
233520 On ch=1 n=49 v=80
233736 Off ch=1 n=37 v=64
233736 Off ch=1 n=44 v=64
233736 Off ch=1 n=49 v=64
233760 On ch=1 n=25 v=80
233760 On ch=1 n=37 v=80
233868 Off ch=1 n=25 v=64
233868 Off ch=1 n=37 v=64
233880 On ch=1 n=25 v=80
233880 On ch=1 n=37 v=80
233988 Off ch=1 n=25 v=64
233988 Off ch=1 n=37 v=64
234000 On ch=1 n=37 v=80
234000 On ch=1 n=41 v=80
234000 On ch=1 n=49 v=80
234108 Off ch=1 n=37 v=64
234108 Off ch=1 n=41 v=64
234108 Off ch=1 n=49 v=64
234120 On ch=1 n=37 v=80
234120 On ch=1 n=41 v=80
234120 On ch=1 n=49 v=80
234228 Off ch=1 n=37 v=64
234228 Off ch=1 n=41 v=64
234228 Off ch=1 n=49 v=64
234240 On ch=1 n=30 v=80
234240 On ch=1 n=42 v=80
234456 Off ch=1 n=30 v=64
234456 Off ch=1 n=42 v=64
234480 On ch=1 n=42 v=80
234480 On ch=1 n=49 v=80
234480 On ch=1 n=54 v=80
234696 Off ch=1 n=42 v=64
234696 Off ch=1 n=49 v=64
234696 Off ch=1 n=54 v=64
234720 On ch=1 n=30 v=80
234720 On ch=1 n=42 v=80
234936 Off ch=1 n=30 v=64
234936 Off ch=1 n=42 v=64
234960 On ch=1 n=42 v=80
234960 On ch=1 n=49 v=80
234960 On ch=1 n=54 v=80
235176 Off ch=1 n=42 v=64
235176 Off ch=1 n=49 v=64
235176 Off ch=1 n=54 v=64
235200 On ch=1 n=30 v=80
235200 On ch=1 n=42 v=80
235416 Off ch=1 n=30 v=64
235416 Off ch=1 n=42 v=64
235440 On ch=1 n=42 v=80
235440 On ch=1 n=49 v=80
235440 On ch=1 n=54 v=80
235656 Off ch=1 n=42 v=64
235656 Off ch=1 n=49 v=64
235656 Off ch=1 n=54 v=64
235680 On ch=1 n=30 v=80
235680 On ch=1 n=42 v=80
235788 Off ch=1 n=30 v=64
235788 Off ch=1 n=42 v=64
235800 On ch=1 n=30 v=80
235800 On ch=1 n=42 v=80
235908 Off ch=1 n=30 v=64
235908 Off ch=1 n=42 v=64
235920 On ch=1 n=42 v=80
235920 On ch=1 n=49 v=80
235920 On ch=1 n=54 v=80
236028 Off ch=1 n=42 v=64
236028 Off ch=1 n=49 v=64
236028 Off ch=1 n=54 v=64
236040 On ch=1 n=42 v=80
236040 On ch=1 n=49 v=80
236040 On ch=1 n=54 v=80
236148 Off ch=1 n=42 v=64
236148 Off ch=1 n=49 v=64
236148 Off ch=1 n=54 v=64
236160 On ch=1 n=30 v=80
236160 On ch=1 n=42 v=80
236376 Off ch=1 n=30 v=64
236376 Off ch=1 n=42 v=64
236400 On ch=1 n=42 v=80
236400 On ch=1 n=49 v=80
236400 On ch=1 n=54 v=80
236616 Off ch=1 n=42 v=64
236616 Off ch=1 n=49 v=64
236616 Off ch=1 n=54 v=64
236640 On ch=1 n=30 v=80
236640 On ch=1 n=42 v=80
236856 Off ch=1 n=30 v=64
236856 Off ch=1 n=42 v=64
236880 On ch=1 n=42 v=80
236880 On ch=1 n=49 v=80
236880 On ch=1 n=54 v=80
237096 Off ch=1 n=42 v=64
237096 Off ch=1 n=49 v=64
237096 Off ch=1 n=54 v=64
237120 On ch=1 n=30 v=80
237120 On ch=1 n=42 v=80
237336 Off ch=1 n=30 v=64
237336 Off ch=1 n=42 v=64
237360 On ch=1 n=42 v=80
237360 On ch=1 n=49 v=80
237360 On ch=1 n=54 v=80
237576 Off ch=1 n=42 v=64
237576 Off ch=1 n=49 v=64
237576 Off ch=1 n=54 v=64
237600 On ch=1 n=30 v=80
237600 On ch=1 n=42 v=80
237708 Off ch=1 n=30 v=64
237708 Off ch=1 n=42 v=64
237720 On ch=1 n=30 v=80
237720 On ch=1 n=42 v=80
237828 Off ch=1 n=30 v=64
237828 Off ch=1 n=42 v=64
237840 On ch=1 n=42 v=80
237840 On ch=1 n=49 v=80
237840 On ch=1 n=54 v=80
237948 Off ch=1 n=42 v=64
237948 Off ch=1 n=49 v=64
237948 Off ch=1 n=54 v=64
237960 On ch=1 n=42 v=80
237960 On ch=1 n=49 v=80
237960 On ch=1 n=54 v=80
238068 Off ch=1 n=42 v=64
238068 Off ch=1 n=49 v=64
238068 Off ch=1 n=54 v=64
238080 On ch=1 n=30 v=80
238080 On ch=1 n=42 v=80
238296 Off ch=1 n=30 v=64
238296 Off ch=1 n=42 v=64
238320 On ch=1 n=42 v=80
238320 On ch=1 n=49 v=80
238320 On ch=1 n=54 v=80
238536 Off ch=1 n=42 v=64
238536 Off ch=1 n=49 v=64
238536 Off ch=1 n=54 v=64
238560 On ch=1 n=30 v=80
238560 On ch=1 n=42 v=80
238776 Off ch=1 n=30 v=64
238776 Off ch=1 n=42 v=64
238800 On ch=1 n=42 v=80
238800 On ch=1 n=49 v=80
238800 On ch=1 n=54 v=80
239016 Off ch=1 n=42 v=64
239016 Off ch=1 n=49 v=64
239016 Off ch=1 n=54 v=64
239040 On ch=1 n=30 v=80
239040 On ch=1 n=42 v=80
239256 Off ch=1 n=30 v=64
239256 Off ch=1 n=42 v=64
239280 On ch=1 n=42 v=80
239280 On ch=1 n=49 v=80
239280 On ch=1 n=54 v=80
239496 Off ch=1 n=42 v=64
239496 Off ch=1 n=49 v=64
239496 Off ch=1 n=54 v=64
239520 On ch=1 n=30 v=80
239520 On ch=1 n=42 v=80
239628 Off ch=1 n=30 v=64
239628 Off ch=1 n=42 v=64
239640 On ch=1 n=30 v=80
239640 On ch=1 n=42 v=80
239748 Off ch=1 n=30 v=64
239748 Off ch=1 n=42 v=64
239760 On ch=1 n=42 v=80
239760 On ch=1 n=49 v=80
239760 On ch=1 n=54 v=80
239868 Off ch=1 n=42 v=64
239868 Off ch=1 n=49 v=64
239868 Off ch=1 n=54 v=64
239880 On ch=1 n=42 v=80
239880 On ch=1 n=49 v=80
239880 On ch=1 n=54 v=80
239988 Off ch=1 n=42 v=64
239988 Off ch=1 n=49 v=64
239988 Off ch=1 n=54 v=64
240000 On ch=1 n=30 v=80
240000 On ch=1 n=42 v=80
240216 Off ch=1 n=30 v=64
240216 Off ch=1 n=42 v=64
240240 On ch=1 n=42 v=80
240240 On ch=1 n=49 v=80
240240 On ch=1 n=54 v=80
240456 Off ch=1 n=42 v=64
240456 Off ch=1 n=49 v=64
240456 Off ch=1 n=54 v=64
240480 On ch=1 n=30 v=80
240480 On ch=1 n=42 v=80
240696 Off ch=1 n=30 v=64
240696 Off ch=1 n=42 v=64
240720 On ch=1 n=42 v=80
240720 On ch=1 n=49 v=80
240720 On ch=1 n=54 v=80
240936 Off ch=1 n=42 v=64
240936 Off ch=1 n=49 v=64
240936 Off ch=1 n=54 v=64
240960 On ch=1 n=30 v=80
240960 On ch=1 n=42 v=80
241176 Off ch=1 n=30 v=64
241176 Off ch=1 n=42 v=64
241200 On ch=1 n=42 v=80
241200 On ch=1 n=49 v=80
241200 On ch=1 n=54 v=80
241416 Off ch=1 n=42 v=64
241416 Off ch=1 n=49 v=64
241416 Off ch=1 n=54 v=64
241440 On ch=1 n=30 v=80
241440 On ch=1 n=42 v=80
241548 Off ch=1 n=30 v=64
241548 Off ch=1 n=42 v=64
241560 On ch=1 n=30 v=80
241560 On ch=1 n=42 v=80
241668 Off ch=1 n=30 v=64
241668 Off ch=1 n=42 v=64
241680 On ch=1 n=42 v=80
241680 On ch=1 n=49 v=80
241680 On ch=1 n=54 v=80
241788 Off ch=1 n=42 v=64
241788 Off ch=1 n=49 v=64
241788 Off ch=1 n=54 v=64
241800 On ch=1 n=42 v=80
241800 On ch=1 n=49 v=80
241800 On ch=1 n=54 v=80
241908 Off ch=1 n=42 v=64
241908 Off ch=1 n=49 v=64
241908 Off ch=1 n=54 v=64
241920 On ch=1 n=57 v=80
241920 On ch=1 n=54 v=80
241920 On ch=1 n=49 v=80
245568 Off ch=1 n=57 v=64
245568 Off ch=1 n=54 v=64
245568 Off ch=1 n=49 v=64
245760 On ch=1 n=55 v=80
245760 On ch=1 n=52 v=80
245760 On ch=1 n=47 v=80
249408 Off ch=1 n=55 v=64
249408 Off ch=1 n=52 v=64
249408 Off ch=1 n=47 v=64
249600 KeySig 0 major
251520 Meta TrkEnd
TrkEnd
