MFile 1 3 960
MTrk
0 Tempo 625000
0 KeySig 0 major
0 Meta SeqName "\"\0nama\0"
0 TimeSig 4/4 24 8
0 Meta TrkEnd
TrkEnd
MTrk
0 Par ch=1 c=0 v=0
0 Par ch=1 c=32 v=0
0 PrCh ch=1 p=0
0 Meta TrkName "Main Melodyne\0"
0 Par ch=1 c=7 v=127
479 On ch=1 n=69 v=96
953 Off ch=1 n=69 v=0
957 On ch=1 n=71 v=95
1429 Off ch=1 n=71 v=0
1433 On ch=1 n=72 v=107
1925 Off ch=1 n=72 v=0
1925 On ch=1 n=72 v=108
2400 Off ch=1 n=72 v=0
2400 On ch=1 n=72 v=93
2873 Off ch=1 n=72 v=0
2877 On ch=1 n=69 v=96
3349 Off ch=1 n=69 v=0
3353 On ch=1 n=72 v=101
3842 Off ch=1 n=72 v=0
3842 On ch=1 n=72 v=102
4327 Off ch=1 n=72 v=0
4327 On ch=1 n=72 v=94
4793 Off ch=1 n=72 v=0
4797 On ch=1 n=69 v=96
5267 Off ch=1 n=69 v=0
5271 On ch=1 n=72 v=107
5765 Off ch=1 n=72 v=0
5765 On ch=1 n=72 v=108
6240 Off ch=1 n=72 v=0
6240 On ch=1 n=72 v=94
6713 Off ch=1 n=72 v=0
6717 On ch=1 n=74 v=92
7190 Off ch=1 n=74 v=0
7194 On ch=1 n=71 v=87
8440 Off ch=1 n=71 v=0
9120 On ch=1 n=76 v=108
9365 Off ch=1 n=76 v=0
9365 On ch=1 n=76 v=114
9601 Off ch=1 n=76 v=0
9605 On ch=1 n=74 v=116
9837 Off ch=1 n=74 v=0
9837 On ch=1 n=76 v=104
10558 Off ch=1 n=76 v=0
10558 On ch=1 n=76 v=99
10811 Off ch=1 n=76 v=0
10811 On ch=1 n=76 v=99
11030 Off ch=1 n=76 v=0
11034 On ch=1 n=74 v=109
11279 Off ch=1 n=74 v=0
11279 On ch=1 n=74 v=108
11526 Off ch=1 n=74 v=0
11534 On ch=1 n=76 v=103
11996 Off ch=1 n=76 v=0
12000 On ch=1 n=74 v=93
12474 Off ch=1 n=74 v=0
12478 On ch=1 n=69 v=96
12954 Off ch=1 n=69 v=0
12959 On ch=1 n=76 v=110
13204 Off ch=1 n=76 v=0
13204 On ch=1 n=76 v=114
13440 Off ch=1 n=76 v=0
13444 On ch=1 n=74 v=125
13671 Off ch=1 n=74 v=0
13671 On ch=1 n=76 v=104
14396 Off ch=1 n=76 v=0
14396 On ch=1 n=76 v=99
14650 Off ch=1 n=76 v=0
14650 On ch=1 n=76 v=99
14869 Off ch=1 n=76 v=0
14872 On ch=1 n=74 v=108
15120 Off ch=1 n=74 v=0
15120 On ch=1 n=74 v=104
15365 Off ch=1 n=74 v=0
15365 On ch=1 n=74 v=101
15842 Off ch=1 n=74 v=0
15848 On ch=1 n=76 v=94
16326 Off ch=1 n=76 v=0
16326 On ch=1 n=76 v=94
16791 Off ch=1 n=76 v=0
16794 On ch=1 n=74 v=115
17038 Off ch=1 n=74 v=0
17038 On ch=1 n=76 v=113
17280 Off ch=1 n=76 v=0
17284 On ch=1 n=74 v=116
17515 Off ch=1 n=74 v=0
17515 On ch=1 n=76 v=114
17773 Off ch=1 n=76 v=0
17773 On ch=1 n=74 v=103
18006 Off ch=1 n=74 v=0
18006 On ch=1 n=76 v=89
18709 Off ch=1 n=76 v=0
18713 On ch=1 n=74 v=99
19205 Off ch=1 n=74 v=0
19205 On ch=1 n=74 v=100
19680 Off ch=1 n=74 v=0
19688 On ch=1 n=76 v=94
20155 Off ch=1 n=76 v=0
20159 On ch=1 n=69 v=97
20632 Off ch=1 n=69 v=0
20639 On ch=1 n=76 v=108
21131 Off ch=1 n=76 v=0
21131 On ch=1 n=76 v=106
21362 Off ch=1 n=76 v=0
21362 On ch=1 n=76 v=112
21607 Off ch=1 n=76 v=0
21607 On ch=1 n=76 v=94
22073 Off ch=1 n=76 v=0
22077 On ch=1 n=72 v=94
22548 Off ch=1 n=72 v=0
22552 On ch=1 n=74 v=108
22799 Off ch=1 n=74 v=0
22799 On ch=1 n=74 v=105
23045 Off ch=1 n=74 v=0
23045 On ch=1 n=74 v=108
23274 Off ch=1 n=74 v=0
23277 On ch=1 n=79 v=108
23506 Off ch=1 n=79 v=0
23506 On ch=1 n=60 v=97
23993 Off ch=1 n=60 v=0
23997 On ch=1 n=71 v=94
24469 Off ch=1 n=71 v=0
24473 On ch=1 n=81 v=97
25442 Off ch=1 n=81 v=0
25448 On ch=1 n=76 v=88
26163 Off ch=1 n=76 v=0
26163 On ch=1 n=76 v=100
26391 Off ch=1 n=76 v=0
26395 On ch=1 n=74 v=109
26639 Off ch=1 n=74 v=0
26639 On ch=1 n=74 v=108
26886 Off ch=1 n=74 v=0
26886 On ch=1 n=76 v=108
27105 Off ch=1 n=76 v=0
27105 On ch=1 n=72 v=110
27356 Off ch=1 n=72 v=0
27356 On ch=1 n=69 v=103
27606 Off ch=1 n=69 v=0
27606 On ch=1 n=69 v=104
27837 Off ch=1 n=69 v=0
27849 On ch=1 n=72 v=103
28077 Off ch=1 n=72 v=0
28077 On ch=1 n=69 v=104
28309 Off ch=1 n=69 v=0
28313 On ch=1 n=81 v=105
28805 Off ch=1 n=81 v=0
28811 On ch=1 n=76 v=108
29287 Off ch=1 n=76 v=0
29287 On ch=1 n=76 v=94
29757 Off ch=1 n=76 v=0
29757 On ch=1 n=76 v=99
30011 Off ch=1 n=76 v=0
30011 On ch=1 n=76 v=99
30232 Off ch=1 n=76 v=0
30236 On ch=1 n=74 v=108
30479 Off ch=1 n=74 v=0
30479 On ch=1 n=74 v=105
30724 Off ch=1 n=74 v=0
30724 On ch=1 n=74 v=108
30955 Off ch=1 n=74 v=0
30955 On ch=1 n=74 v=108
31205 Off ch=1 n=74 v=0
31205 On ch=1 n=76 v=98
31447 Off ch=1 n=76 v=0
31447 On ch=1 n=76 v=89
32158 Off ch=1 n=76 v=0
32158 On ch=1 n=76 v=104
32874 Off ch=1 n=76 v=0
32874 On ch=1 n=76 v=112
33128 Off ch=1 n=76 v=0
33128 On ch=1 n=76 v=93
33597 Off ch=1 n=76 v=0
33597 On ch=1 n=76 v=94
34070 Off ch=1 n=76 v=0
34074 On ch=1 n=79 v=106
34326 Off ch=1 n=79 v=0
34326 On ch=1 n=79 v=102
34563 Off ch=1 n=79 v=0
34563 On ch=1 n=79 v=106
34800 Off ch=1 n=79 v=0
34800 On ch=1 n=79 v=106
35054 Off ch=1 n=79 v=0
35054 On ch=1 n=76 v=99
35287 Off ch=1 n=76 v=0
35287 On ch=1 n=76 v=100
35524 Off ch=1 n=76 v=0
35524 On ch=1 n=76 v=98
35763 Off ch=1 n=76 v=0
35763 On ch=1 n=76 v=100
36000 Off ch=1 n=76 v=0
36000 On ch=1 n=76 v=108
36490 Off ch=1 n=76 v=0
36490 On ch=1 n=76 v=107
36715 Off ch=1 n=76 v=0
36715 On ch=1 n=76 v=112
36968 Off ch=1 n=76 v=0
36968 On ch=1 n=76 v=94
37442 Off ch=1 n=76 v=0
37442 On ch=1 n=76 v=94
37910 Off ch=1 n=76 v=0
37914 On ch=1 n=79 v=107
38163 Off ch=1 n=79 v=0
38163 On ch=1 n=79 v=103
38405 Off ch=1 n=79 v=0
38405 On ch=1 n=79 v=106
38641 Off ch=1 n=79 v=0
38641 On ch=1 n=79 v=98
39355 Off ch=1 n=79 v=0
39359 On ch=1 n=81 v=92
39834 Off ch=1 n=81 v=0
39839 On ch=1 n=76 v=93
41282 Off ch=1 n=76 v=0
41282 On ch=1 n=76 v=94
41750 Off ch=1 n=76 v=0
41754 On ch=1 n=74 v=81
43193 Off ch=1 n=74 v=0
43197 On ch=1 n=72 v=94
43673 Off ch=1 n=72 v=0
43679 On ch=1 n=76 v=94
45015 Off ch=1 n=76 v=0
45593 On ch=1 n=79 v=106
45845 Off ch=1 n=79 v=0
45845 On ch=1 n=79 v=101
46084 Off ch=1 n=79 v=0
46084 On ch=1 n=79 v=106
46320 Off ch=1 n=79 v=0
46320 On ch=1 n=79 v=98
47037 Off ch=1 n=79 v=0
47041 On ch=1 n=81 v=91
47516 Off ch=1 n=81 v=0
47521 On ch=1 n=76 v=93
48957 Off ch=1 n=76 v=0
48957 On ch=1 n=76 v=94
49430 Off ch=1 n=76 v=0
49434 On ch=1 n=74 v=81
50872 Off ch=1 n=74 v=0
50876 On ch=1 n=72 v=93
51355 Off ch=1 n=72 v=0
51361 On ch=1 n=76 v=94
52695 Off ch=1 n=76 v=0
54240 On ch=1 n=69 v=96
54714 Off ch=1 n=69 v=0
54718 On ch=1 n=71 v=95
55190 Off ch=1 n=71 v=0
55194 On ch=1 n=72 v=107
55683 Off ch=1 n=72 v=0
55683 On ch=1 n=72 v=108
56160 Off ch=1 n=72 v=0
56160 On ch=1 n=72 v=93
56634 Off ch=1 n=72 v=0
56638 On ch=1 n=69 v=96
57110 Off ch=1 n=69 v=0
57114 On ch=1 n=72 v=101
57604 Off ch=1 n=72 v=0
57604 On ch=1 n=72 v=103
58081 Off ch=1 n=72 v=0
58081 On ch=1 n=72 v=94
58554 Off ch=1 n=72 v=0
58558 On ch=1 n=69 v=96
59030 Off ch=1 n=69 v=0
59034 On ch=1 n=72 v=107
59525 Off ch=1 n=72 v=0
59525 On ch=1 n=72 v=108
59998 Off ch=1 n=72 v=0
60002 On ch=1 n=71 v=95
60474 Off ch=1 n=71 v=0
60478 On ch=1 n=69 v=96
60948 Off ch=1 n=69 v=0
60952 On ch=1 n=71 v=91
61918 Off ch=1 n=71 v=0
61922 On ch=1 n=69 v=96
62394 Off ch=1 n=69 v=0
62398 On ch=1 n=71 v=95
62871 Off ch=1 n=71 v=0
62875 On ch=1 n=72 v=107
63365 Off ch=1 n=72 v=0
63365 On ch=1 n=72 v=108
63841 Off ch=1 n=72 v=0
63841 On ch=1 n=72 v=94
64314 Off ch=1 n=72 v=0
64318 On ch=1 n=69 v=96
64789 Off ch=1 n=69 v=0
64793 On ch=1 n=72 v=101
65285 Off ch=1 n=72 v=0
65285 On ch=1 n=72 v=102
65760 Off ch=1 n=72 v=0
65760 On ch=1 n=72 v=93
66233 Off ch=1 n=72 v=0
66237 On ch=1 n=69 v=96
66710 Off ch=1 n=69 v=0
66714 On ch=1 n=72 v=108
67204 Off ch=1 n=72 v=0
67204 On ch=1 n=72 v=108
67682 Off ch=1 n=72 v=0
67688 On ch=1 n=71 v=95
68152 Off ch=1 n=71 v=0
68156 On ch=1 n=69 v=96
68631 Off ch=1 n=69 v=0
68635 On ch=1 n=71 v=91
69596 Off ch=1 n=71 v=0
69600 On ch=1 n=72 v=94
70078 Off ch=1 n=72 v=0
70088 On ch=1 n=74 v=92
70554 Off ch=1 n=74 v=0
70559 On ch=1 n=76 v=100
71519 Off ch=1 n=76 v=0
71522 On ch=1 n=57 v=97
71994 Off ch=1 n=57 v=0
71998 On ch=1 n=74 v=74
73438 Off ch=1 n=74 v=0
73442 On ch=1 n=72 v=94
73914 Off ch=1 n=72 v=0
73918 On ch=1 n=74 v=92
74393 Off ch=1 n=74 v=0
74399 On ch=1 n=76 v=99
75357 Off ch=1 n=76 v=0
75361 On ch=1 n=69 v=97
75833 Off ch=1 n=69 v=0
75837 On ch=1 n=74 v=74
77277 Off ch=1 n=74 v=0
77281 On ch=1 n=72 v=94
77758 Off ch=1 n=72 v=0
77769 On ch=1 n=74 v=92
78231 Off ch=1 n=74 v=0
78235 On ch=1 n=72 v=108
78725 Off ch=1 n=72 v=0
78725 On ch=1 n=72 v=108
79200 Off ch=1 n=72 v=0
79200 On ch=1 n=72 v=93
79676 Off ch=1 n=72 v=0
79680 On ch=1 n=69 v=96
80149 Off ch=1 n=69 v=0
80153 On ch=1 n=72 v=101
80644 Off ch=1 n=72 v=0
80644 On ch=1 n=72 v=103
81121 Off ch=1 n=72 v=0
81121 On ch=1 n=72 v=94
81594 Off ch=1 n=72 v=0
81598 On ch=1 n=69 v=96
82069 Off ch=1 n=69 v=0
82073 On ch=1 n=72 v=107
82565 Off ch=1 n=72 v=0
82565 On ch=1 n=72 v=108
83041 Off ch=1 n=72 v=0
83041 On ch=1 n=72 v=94
83514 Off ch=1 n=72 v=0
83517 On ch=1 n=74 v=92
83990 Off ch=1 n=74 v=0
83994 On ch=1 n=71 v=96
84714 Off ch=1 n=71 v=0
84714 On ch=1 n=71 v=110
84965 Off ch=1 n=71 v=0
84965 On ch=1 n=69 v=97
85433 Off ch=1 n=69 v=0
85437 On ch=1 n=67 v=93
85911 Off ch=1 n=67 v=0
85915 On ch=1 n=69 v=92
87358 Off ch=1 n=69 v=0
87364 On ch=1 n=76 v=94
87828 Off ch=1 n=76 v=0
87832 On ch=1 n=74 v=81
89277 Off ch=1 n=74 v=0
89277 On ch=1 n=74 v=92
89750 Off ch=1 n=74 v=0
89754 On ch=1 n=72 v=90
91197 Off ch=1 n=72 v=0
91197 On ch=1 n=72 v=94
91671 Off ch=1 n=72 v=0
91674 On ch=1 n=71 v=102
92163 Off ch=1 n=71 v=0
92163 On ch=1 n=71 v=103
92638 Off ch=1 n=71 v=0
92641 On ch=1 n=69 v=96
93114 Off ch=1 n=69 v=0
93118 On ch=1 n=67 v=93
93589 Off ch=1 n=67 v=0
93593 On ch=1 n=69 v=93
95033 Off ch=1 n=69 v=0
95037 On ch=1 n=76 v=94
95510 Off ch=1 n=76 v=0
95514 On ch=1 n=74 v=81
96959 Off ch=1 n=74 v=0
96959 On ch=1 n=74 v=92
97431 Off ch=1 n=74 v=0
97435 On ch=1 n=72 v=90
98876 Off ch=1 n=72 v=0
98876 On ch=1 n=72 v=94
99350 Off ch=1 n=72 v=0
99354 On ch=1 n=74 v=100
99845 Off ch=1 n=74 v=0
99845 On ch=1 n=74 v=100
100321 Off ch=1 n=74 v=0
100329 On ch=1 n=76 v=94
100797 Off ch=1 n=76 v=0
100805 On ch=1 n=77 v=94
101275 Off ch=1 n=77 v=0
101281 On ch=1 n=76 v=108
101761 Off ch=1 n=76 v=0
101765 On ch=1 n=69 v=99
102715 Off ch=1 n=69 v=0
102719 On ch=1 n=76 v=94
103189 Off ch=1 n=76 v=0
103193 On ch=1 n=74 v=81
104639 Off ch=1 n=74 v=0
104639 On ch=1 n=74 v=92
105110 Off ch=1 n=74 v=0
105114 On ch=1 n=72 v=90
106558 Off ch=1 n=72 v=0
106558 On ch=1 n=72 v=94
107029 Off ch=1 n=72 v=0
107033 On ch=1 n=71 v=103
107524 Off ch=1 n=71 v=0
107524 On ch=1 n=71 v=103
107998 Off ch=1 n=71 v=0
108002 On ch=1 n=69 v=96
108474 Off ch=1 n=69 v=0
108478 On ch=1 n=67 v=93
108950 Off ch=1 n=67 v=0
108954 On ch=1 n=69 v=92
110397 Off ch=1 n=69 v=0
110404 On ch=1 n=76 v=94
110870 Off ch=1 n=76 v=0
110874 On ch=1 n=74 v=81
112312 Off ch=1 n=74 v=0
112316 On ch=1 n=72 v=93
112794 Off ch=1 n=72 v=0
112802 On ch=1 n=76 v=92
114234 Off ch=1 n=76 v=0
114238 On ch=1 n=79 v=99
114487 Off ch=1 n=79 v=0
114487 On ch=1 n=79 v=95
114719 Off ch=1 n=79 v=0
114719 On ch=1 n=79 v=100
115205 Off ch=1 n=79 v=0
115205 On ch=1 n=79 v=101
115679 Off ch=1 n=79 v=0
115683 On ch=1 n=69 v=96
116154 Off ch=1 n=69 v=0
116158 On ch=1 n=71 v=95
116631 Off ch=1 n=71 v=0
116635 On ch=1 n=72 v=108
117125 Off ch=1 n=72 v=0
117125 On ch=1 n=72 v=108
117599 Off ch=1 n=72 v=0
117599 On ch=1 n=72 v=93
118075 Off ch=1 n=72 v=0
118079 On ch=1 n=69 v=96
118550 Off ch=1 n=69 v=0
118554 On ch=1 n=72 v=101
119045 Off ch=1 n=72 v=0
119045 On ch=1 n=72 v=102
119522 Off ch=1 n=72 v=0
119522 On ch=1 n=72 v=94
119993 Off ch=1 n=72 v=0
119997 On ch=1 n=69 v=96
120471 Off ch=1 n=69 v=0
120475 On ch=1 n=72 v=108
120966 Off ch=1 n=72 v=0
120966 On ch=1 n=72 v=108
121441 Off ch=1 n=72 v=0
121441 On ch=1 n=72 v=93
121915 Off ch=1 n=72 v=0
121918 On ch=1 n=74 v=92
122389 Off ch=1 n=74 v=0
122393 On ch=1 n=71 v=86
123644 Off ch=1 n=71 v=0
124319 On ch=1 n=76 v=109
124559 Off ch=1 n=76 v=0
124559 On ch=1 n=76 v=113
124802 Off ch=1 n=76 v=0
124806 On ch=1 n=74 v=116
125036 Off ch=1 n=74 v=0
125036 On ch=1 n=76 v=104
125757 Off ch=1 n=76 v=0
125757 On ch=1 n=76 v=99
126011 Off ch=1 n=76 v=0
126011 On ch=1 n=76 v=99
126230 Off ch=1 n=76 v=0
126233 On ch=1 n=74 v=108
126479 Off ch=1 n=74 v=0
126479 On ch=1 n=74 v=108
126725 Off ch=1 n=74 v=0
126725 On ch=1 n=76 v=103
127197 Off ch=1 n=76 v=0
127200 On ch=1 n=74 v=93
127674 Off ch=1 n=74 v=0
127678 On ch=1 n=69 v=96
128154 Off ch=1 n=69 v=0
128159 On ch=1 n=76 v=108
128401 Off ch=1 n=76 v=0
128401 On ch=1 n=76 v=113
128647 Off ch=1 n=76 v=0
128657 On ch=1 n=74 v=116
128877 Off ch=1 n=74 v=0
128883 On ch=1 n=76 v=103
129599 Off ch=1 n=76 v=0
129599 On ch=1 n=76 v=99
129853 Off ch=1 n=76 v=0
129853 On ch=1 n=76 v=99
130070 Off ch=1 n=76 v=0
130074 On ch=1 n=74 v=109
130320 Off ch=1 n=74 v=0
130320 On ch=1 n=74 v=105
130564 Off ch=1 n=74 v=0
130564 On ch=1 n=74 v=100
131042 Off ch=1 n=74 v=0
131048 On ch=1 n=76 v=94
131526 Off ch=1 n=76 v=0
131526 On ch=1 n=76 v=94
131990 Off ch=1 n=76 v=0
131994 On ch=1 n=74 v=114
132240 Off ch=1 n=74 v=0
132247 On ch=1 n=76 v=114
132485 Off ch=1 n=76 v=0
132498 On ch=1 n=74 v=116
132718 Off ch=1 n=74 v=0
132718 On ch=1 n=76 v=114
132968 Off ch=1 n=76 v=0
132968 On ch=1 n=74 v=103
133209 Off ch=1 n=74 v=0
133209 On ch=1 n=76 v=89
133911 Off ch=1 n=76 v=0
133915 On ch=1 n=74 v=100
134405 Off ch=1 n=74 v=0
134405 On ch=1 n=74 v=100
134884 Off ch=1 n=74 v=0
134888 On ch=1 n=76 v=94
135355 Off ch=1 n=76 v=0
135359 On ch=1 n=69 v=97
135834 Off ch=1 n=69 v=0
135842 On ch=1 n=76 v=108
136330 Off ch=1 n=76 v=0
136330 On ch=1 n=76 v=106
136562 Off ch=1 n=76 v=0
136562 On ch=1 n=76 v=112
136808 Off ch=1 n=76 v=0
136808 On ch=1 n=76 v=94
137274 Off ch=1 n=76 v=0
137278 On ch=1 n=72 v=94
137750 Off ch=1 n=72 v=0
137754 On ch=1 n=74 v=108
138000 Off ch=1 n=74 v=0
138000 On ch=1 n=74 v=105
138245 Off ch=1 n=74 v=0
138245 On ch=1 n=74 v=109
138472 Off ch=1 n=74 v=0
138476 On ch=1 n=79 v=108
138708 Off ch=1 n=79 v=0
138708 On ch=1 n=60 v=97
139194 Off ch=1 n=60 v=0
139198 On ch=1 n=71 v=95
139670 Off ch=1 n=71 v=0
139674 On ch=1 n=81 v=97
140643 Off ch=1 n=81 v=0
140650 On ch=1 n=76 v=89
141364 Off ch=1 n=76 v=0
141364 On ch=1 n=76 v=100
141591 Off ch=1 n=76 v=0
141595 On ch=1 n=74 v=108
141840 Off ch=1 n=74 v=0
141840 On ch=1 n=74 v=108
142087 Off ch=1 n=74 v=0
142095 On ch=1 n=76 v=107
142319 Off ch=1 n=76 v=0
142327 On ch=1 n=72 v=110
142561 Off ch=1 n=72 v=0
142561 On ch=1 n=69 v=103
142808 Off ch=1 n=69 v=0
142808 On ch=1 n=69 v=104
143039 Off ch=1 n=69 v=0
143049 On ch=1 n=72 v=103
143278 Off ch=1 n=72 v=0
143278 On ch=1 n=69 v=104
143509 Off ch=1 n=69 v=0
143513 On ch=1 n=81 v=105
144007 Off ch=1 n=81 v=0
144013 On ch=1 n=76 v=109
144482 Off ch=1 n=76 v=0
144482 On ch=1 n=76 v=93
144965 Off ch=1 n=76 v=0
144965 On ch=1 n=76 v=100
145208 Off ch=1 n=76 v=0
145208 On ch=1 n=76 v=101
145431 Off ch=1 n=76 v=0
145435 On ch=1 n=74 v=108
145680 Off ch=1 n=74 v=0
145680 On ch=1 n=74 v=105
145925 Off ch=1 n=74 v=0
145925 On ch=1 n=74 v=108
146156 Off ch=1 n=74 v=0
146156 On ch=1 n=74 v=108
146408 Off ch=1 n=74 v=0
146408 On ch=1 n=76 v=98
146649 Off ch=1 n=76 v=0
146649 On ch=1 n=76 v=88
147359 Off ch=1 n=76 v=0
147359 On ch=1 n=76 v=103
148076 Off ch=1 n=76 v=0
148076 On ch=1 n=76 v=112
148329 Off ch=1 n=76 v=0
148329 On ch=1 n=76 v=94
148799 Off ch=1 n=76 v=0
148799 On ch=1 n=76 v=94
149271 Off ch=1 n=76 v=0
149275 On ch=1 n=79 v=106
149527 Off ch=1 n=79 v=0
149527 On ch=1 n=79 v=100
149766 Off ch=1 n=79 v=0
149766 On ch=1 n=79 v=106
150000 Off ch=1 n=79 v=0
150000 On ch=1 n=79 v=107
150235 Off ch=1 n=79 v=0
150235 On ch=1 n=76 v=98
150487 Off ch=1 n=76 v=0
150487 On ch=1 n=76 v=100
150725 Off ch=1 n=76 v=0
150725 On ch=1 n=76 v=95
150964 Off ch=1 n=76 v=0
150964 On ch=1 n=76 v=100
151196 Off ch=1 n=76 v=0
151201 On ch=1 n=76 v=108
151693 Off ch=1 n=76 v=0
151693 On ch=1 n=76 v=106
151922 Off ch=1 n=76 v=0
151922 On ch=1 n=76 v=112
152167 Off ch=1 n=76 v=0
152167 On ch=1 n=76 v=94
152637 Off ch=1 n=76 v=0
152637 On ch=1 n=76 v=94
153110 Off ch=1 n=76 v=0
153114 On ch=1 n=79 v=106
153366 Off ch=1 n=79 v=0
153366 On ch=1 n=79 v=101
153605 Off ch=1 n=79 v=0
153605 On ch=1 n=79 v=106
153840 Off ch=1 n=79 v=0
153840 On ch=1 n=79 v=107
154087 Off ch=1 n=79 v=0
154087 On ch=1 n=79 v=92
154554 Off ch=1 n=79 v=0
154558 On ch=1 n=81 v=91
155036 Off ch=1 n=81 v=0
155043 On ch=1 n=76 v=93
156477 Off ch=1 n=76 v=0
156477 On ch=1 n=76 v=94
156949 Off ch=1 n=76 v=0
156953 On ch=1 n=74 v=81
158395 Off ch=1 n=74 v=0
158398 On ch=1 n=72 v=94
158874 Off ch=1 n=72 v=0
158882 On ch=1 n=76 v=94
160216 Off ch=1 n=76 v=0
160799 On ch=1 n=79 v=105
161046 Off ch=1 n=79 v=0
161046 On ch=1 n=79 v=101
161291 Off ch=1 n=79 v=0
161291 On ch=1 n=79 v=106
161521 Off ch=1 n=79 v=0
161521 On ch=1 n=79 v=98
162235 Off ch=1 n=79 v=0
162239 On ch=1 n=81 v=92
162714 Off ch=1 n=81 v=0
162720 On ch=1 n=76 v=92
164164 Off ch=1 n=76 v=0
164164 On ch=1 n=76 v=94
164631 Off ch=1 n=76 v=0
164635 On ch=1 n=74 v=81
166073 Off ch=1 n=74 v=0
166077 On ch=1 n=72 v=93
166555 Off ch=1 n=72 v=0
166561 On ch=1 n=76 v=94
167896 Off ch=1 n=76 v=0
169442 On ch=1 n=69 v=96
169915 Off ch=1 n=69 v=0
169919 On ch=1 n=71 v=95
170391 Off ch=1 n=71 v=0
170395 On ch=1 n=72 v=107
170886 Off ch=1 n=72 v=0
170886 On ch=1 n=72 v=108
171360 Off ch=1 n=72 v=0
171360 On ch=1 n=72 v=93
171835 Off ch=1 n=72 v=0
171839 On ch=1 n=69 v=96
172311 Off ch=1 n=69 v=0
172315 On ch=1 n=72 v=102
172805 Off ch=1 n=72 v=0
172805 On ch=1 n=72 v=102
173283 Off ch=1 n=72 v=0
173283 On ch=1 n=72 v=94
173755 Off ch=1 n=72 v=0
173759 On ch=1 n=69 v=96
174231 Off ch=1 n=69 v=0
174234 On ch=1 n=72 v=108
174725 Off ch=1 n=72 v=0
174725 On ch=1 n=72 v=108
175199 Off ch=1 n=72 v=0
175203 On ch=1 n=71 v=95
175676 Off ch=1 n=71 v=0
175680 On ch=1 n=69 v=96
176150 Off ch=1 n=69 v=0
176154 On ch=1 n=71 v=91
177119 Off ch=1 n=71 v=0
177123 On ch=1 n=69 v=96
177595 Off ch=1 n=69 v=0
177599 On ch=1 n=71 v=95
178069 Off ch=1 n=71 v=0
178073 On ch=1 n=72 v=108
178566 Off ch=1 n=72 v=0
178566 On ch=1 n=72 v=108
179042 Off ch=1 n=72 v=0
179042 On ch=1 n=72 v=94
179514 Off ch=1 n=72 v=0
179518 On ch=1 n=69 v=96
179991 Off ch=1 n=69 v=0
179995 On ch=1 n=72 v=101
180486 Off ch=1 n=72 v=0
180486 On ch=1 n=72 v=103
180963 Off ch=1 n=72 v=0
180963 On ch=1 n=72 v=94
181434 Off ch=1 n=72 v=0
181438 On ch=1 n=69 v=96
181909 Off ch=1 n=69 v=0
181913 On ch=1 n=72 v=107
182405 Off ch=1 n=72 v=0
182405 On ch=1 n=72 v=108
182878 Off ch=1 n=72 v=0
182882 On ch=1 n=71 v=95
183355 Off ch=1 n=71 v=0
183359 On ch=1 n=69 v=96
183831 Off ch=1 n=69 v=0
183834 On ch=1 n=71 v=91
184800 Off ch=1 n=71 v=0
184804 On ch=1 n=72 v=94
185274 Off ch=1 n=72 v=0
185278 On ch=1 n=74 v=93
185755 Off ch=1 n=74 v=0
185760 On ch=1 n=76 v=100
186720 Off ch=1 n=76 v=0
186724 On ch=1 n=69 v=97
187194 Off ch=1 n=69 v=0
187198 On ch=1 n=74 v=75
188638 Off ch=1 n=74 v=0
188642 On ch=1 n=72 v=94
189114 Off ch=1 n=72 v=0
189118 On ch=1 n=74 v=92
189591 Off ch=1 n=74 v=0
189595 On ch=1 n=76 v=100
190559 Off ch=1 n=76 v=0
190563 On ch=1 n=69 v=96
191034 Off ch=1 n=69 v=0
191038 On ch=1 n=74 v=75
192478 Off ch=1 n=74 v=0
192482 On ch=1 n=72 v=94
192955 Off ch=1 n=72 v=0
192959 On ch=1 n=74 v=92
193430 Off ch=1 n=74 v=0
193433 On ch=1 n=72 v=107
193926 Off ch=1 n=72 v=0
193926 On ch=1 n=72 v=108
194402 Off ch=1 n=72 v=0
194402 On ch=1 n=72 v=94
194875 Off ch=1 n=72 v=0
194879 On ch=1 n=69 v=96
195349 Off ch=1 n=69 v=0
195353 On ch=1 n=72 v=102
195845 Off ch=1 n=72 v=0
195845 On ch=1 n=72 v=103
196323 Off ch=1 n=72 v=0
196323 On ch=1 n=72 v=94
196795 Off ch=1 n=72 v=0
196799 On ch=1 n=69 v=96
197270 Off ch=1 n=69 v=0
197274 On ch=1 n=72 v=107
197766 Off ch=1 n=72 v=0
197766 On ch=1 n=72 v=108
198242 Off ch=1 n=72 v=0
198242 On ch=1 n=72 v=93
198715 Off ch=1 n=72 v=0
198719 On ch=1 n=74 v=92
199191 Off ch=1 n=74 v=0
199195 On ch=1 n=71 v=96
199917 Off ch=1 n=71 v=0
199917 On ch=1 n=71 v=110
200161 Off ch=1 n=71 v=0
200161 On ch=1 n=69 v=96
200635 Off ch=1 n=69 v=0
200639 On ch=1 n=67 v=93
201111 Off ch=1 n=67 v=0
201115 On ch=1 n=69 v=92
202555 Off ch=1 n=69 v=0
202559 On ch=1 n=76 v=94
203031 Off ch=1 n=76 v=0
203035 On ch=1 n=74 v=81
204479 Off ch=1 n=74 v=0
204479 On ch=1 n=74 v=92
204950 Off ch=1 n=74 v=0
204954 On ch=1 n=72 v=90
206398 Off ch=1 n=72 v=0
206398 On ch=1 n=72 v=93
206870 Off ch=1 n=72 v=0
206874 On ch=1 n=71 v=102
207365 Off ch=1 n=71 v=0
207365 On ch=1 n=71 v=103
207844 Off ch=1 n=71 v=0
207851 On ch=1 n=69 v=96
208314 Off ch=1 n=69 v=0
208318 On ch=1 n=67 v=93
208792 Off ch=1 n=67 v=0
208796 On ch=1 n=69 v=92
210238 Off ch=1 n=69 v=0
210244 On ch=1 n=76 v=94
210710 Off ch=1 n=76 v=0
210714 On ch=1 n=74 v=81
212157 Off ch=1 n=74 v=0
212157 On ch=1 n=74 v=92
212631 Off ch=1 n=74 v=0
212635 On ch=1 n=72 v=90
214075 Off ch=1 n=72 v=0
214079 On ch=1 n=72 v=94
214550 Off ch=1 n=72 v=0
214553 On ch=1 n=74 v=100
215045 Off ch=1 n=74 v=0
215045 On ch=1 n=74 v=101
215523 Off ch=1 n=74 v=0
215528 On ch=1 n=76 v=94
215999 Off ch=1 n=76 v=0
216006 On ch=1 n=77 v=93
216475 Off ch=1 n=77 v=0
216480 On ch=1 n=76 v=108
216963 Off ch=1 n=76 v=0
216967 On ch=1 n=69 v=98
217919 Off ch=1 n=69 v=0
217925 On ch=1 n=76 v=94
218391 Off ch=1 n=76 v=0
218395 On ch=1 n=74 v=81
219838 Off ch=1 n=74 v=0
219838 On ch=1 n=74 v=92
220310 Off ch=1 n=74 v=0
220314 On ch=1 n=72 v=90
221758 Off ch=1 n=72 v=0
221758 On ch=1 n=72 v=94
222231 Off ch=1 n=72 v=0
222235 On ch=1 n=71 v=103
222724 Off ch=1 n=71 v=0
222724 On ch=1 n=71 v=103
223203 Off ch=1 n=71 v=0
223210 On ch=1 n=69 v=97
223675 Off ch=1 n=69 v=0
223679 On ch=1 n=67 v=93
224152 Off ch=1 n=67 v=0
224156 On ch=1 n=69 v=92
225596 Off ch=1 n=69 v=0
225599 On ch=1 n=76 v=94
226071 Off ch=1 n=76 v=0
226075 On ch=1 n=74 v=81
227515 Off ch=1 n=74 v=0
227519 On ch=1 n=72 v=94
227991 Off ch=1 n=72 v=0
227995 On ch=1 n=45 v=115
229344 Off ch=1 n=45 v=0
230399 Par ch=1 c=127 v=0
230399 Meta TrkEnd
TrkEnd
MTrk
0 Par ch=2 c=0 v=0
0 Par ch=2 c=32 v=0
0 PrCh ch=2 p=0
0 Meta TrkName "Left Hand\0"
0 Par ch=2 c=7 v=127
1421 On ch=2 n=64 v=84
1421 On ch=2 n=60 v=95
1421 On ch=2 n=57 v=96
3360 Off ch=2 n=60 v=0
3360 Off ch=2 n=57 v=0
3360 On ch=2 n=50 v=74
3360 On ch=2 n=57 v=81
3360 On ch=2 n=60 v=81
3393 Off ch=2 n=64 v=0
5276 Off ch=2 n=57 v=0
5276 Off ch=2 n=60 v=0
5276 On ch=2 n=53 v=96
5276 On ch=2 n=57 v=78
5276 On ch=2 n=60 v=88
5359 Off ch=2 n=50 v=0
7196 On ch=2 n=55 v=78
7196 On ch=2 n=62 v=65
7196 On ch=2 n=59 v=78
7227 Off ch=2 n=60 v=0
7259 Off ch=2 n=57 v=0
7259 Off ch=2 n=53 v=0
9118 On ch=2 n=45 v=100
9160 Off ch=2 n=62 v=0
9160 Off ch=2 n=55 v=0
9193 Off ch=2 n=59 v=0
9609 On ch=2 n=57 v=92
9609 On ch=2 n=52 v=93
9684 Off ch=2 n=45 v=0
9946 Off ch=2 n=52 v=0
10012 Off ch=2 n=57 v=0
10560 On ch=2 n=52 v=79
10560 On ch=2 n=57 v=66
11028 Off ch=2 n=57 v=0
11035 On ch=2 n=50 v=90
11060 Off ch=2 n=52 v=0
11527 On ch=2 n=53 v=81
11527 On ch=2 n=57 v=80
11552 Off ch=2 n=50 v=0
11912 Off ch=2 n=57 v=0
12482 Off ch=2 n=53 v=0
12482 On ch=2 n=53 v=81
12482 On ch=2 n=57 v=73
12954 On ch=2 n=48 v=106
12994 Off ch=2 n=53 v=0
12994 Off ch=2 n=57 v=0
13449 On ch=2 n=55 v=93
13449 On ch=2 n=52 v=96
13485 Off ch=2 n=48 v=0
13813 Off ch=2 n=55 v=0
13911 Off ch=2 n=52 v=0
14401 On ch=2 n=55 v=84
14401 On ch=2 n=52 v=78
14829 Off ch=2 n=55 v=0
14876 On ch=2 n=43 v=99
14894 Off ch=2 n=52 v=0
15370 On ch=2 n=55 v=81
15370 On ch=2 n=50 v=71
15418 Off ch=2 n=43 v=0
15681 Off ch=2 n=50 v=0
15779 Off ch=2 n=55 v=0
16320 On ch=2 n=55 v=81
16320 On ch=2 n=50 v=71
16762 Off ch=2 n=50 v=0
16795 Off ch=2 n=55 v=0
16798 On ch=2 n=45 v=101
17289 On ch=2 n=52 v=93
17289 On ch=2 n=57 v=92
17352 Off ch=2 n=45 v=0
17614 Off ch=2 n=52 v=0
17680 Off ch=2 n=57 v=0
18239 On ch=2 n=52 v=79
18239 On ch=2 n=57 v=68
18718 On ch=2 n=50 v=92
18761 Off ch=2 n=52 v=0
18826 Off ch=2 n=57 v=0
19209 On ch=2 n=57 v=80
19209 On ch=2 n=53 v=81
19220 Off ch=2 n=50 v=0
19547 Off ch=2 n=53 v=0
19613 Off ch=2 n=57 v=0
20161 On ch=2 n=57 v=72
20161 On ch=2 n=53 v=80
20630 On ch=2 n=48 v=105
20661 Off ch=2 n=57 v=0
20661 Off ch=2 n=53 v=0
21125 On ch=2 n=52 v=97
21125 On ch=2 n=55 v=92
21153 Off ch=2 n=48 v=0
21481 Off ch=2 n=55 v=0
21677 Off ch=2 n=52 v=0
22081 On ch=2 n=55 v=82
22081 On ch=2 n=52 v=75
22529 Off ch=2 n=55 v=0
22555 On ch=2 n=43 v=100
22562 Off ch=2 n=52 v=0
23053 On ch=2 n=55 v=79
23053 On ch=2 n=50 v=69
23086 Off ch=2 n=43 v=0
23348 Off ch=2 n=55 v=0
23348 Off ch=2 n=50 v=0
24000 On ch=2 n=50 v=66
24000 On ch=2 n=55 v=77
24462 Off ch=2 n=50 v=0
24477 On ch=2 n=45 v=105
24495 Off ch=2 n=55 v=0
24968 On ch=2 n=52 v=94
24968 On ch=2 n=57 v=96
25020 Off ch=2 n=45 v=0
25347 Off ch=2 n=52 v=0
25347 Off ch=2 n=57 v=0
25919 On ch=2 n=57 v=66
25919 On ch=2 n=52 v=80
26392 On ch=2 n=50 v=90
26396 Off ch=2 n=57 v=0
26396 Off ch=2 n=52 v=0
26889 On ch=2 n=57 v=79
26889 On ch=2 n=53 v=81
26920 Off ch=2 n=50 v=0
27215 Off ch=2 n=53 v=0
27281 Off ch=2 n=57 v=0
27840 On ch=2 n=53 v=74
27840 On ch=2 n=57 v=72
28296 Off ch=2 n=53 v=0
28313 On ch=2 n=48 v=104
28329 Off ch=2 n=57 v=0
28806 On ch=2 n=55 v=93
28806 On ch=2 n=52 v=97
28821 Off ch=2 n=48 v=0
29148 Off ch=2 n=55 v=0
29247 Off ch=2 n=52 v=0
29760 On ch=2 n=55 v=82
29760 On ch=2 n=52 v=78
30197 Off ch=2 n=55 v=0
30230 Off ch=2 n=52 v=0
30236 On ch=2 n=43 v=99
30727 On ch=2 n=50 v=69
30727 On ch=2 n=55 v=81
30787 Off ch=2 n=43 v=0
31016 Off ch=2 n=50 v=0
31049 Off ch=2 n=55 v=0
31680 On ch=2 n=55 v=79
31680 On ch=2 n=50 v=68
32130 Off ch=2 n=55 v=0
32130 Off ch=2 n=50 v=0
32155 On ch=2 n=45 v=107
32647 On ch=2 n=52 v=100
32647 On ch=2 n=69 v=65
32687 Off ch=2 n=45 v=0
32949 Off ch=2 n=69 v=0
33600 Off ch=2 n=52 v=0
33600 On ch=2 n=57 v=65
33600 On ch=2 n=52 v=78
34063 Off ch=2 n=57 v=0
34075 On ch=2 n=50 v=91
34096 Off ch=2 n=52 v=0
34568 On ch=2 n=53 v=80
34568 On ch=2 n=57 v=80
34588 Off ch=2 n=50 v=0
34883 Off ch=2 n=53 v=0
34948 Off ch=2 n=57 v=0
35514 On ch=2 n=57 v=69
35514 On ch=2 n=53 v=78
35964 Off ch=2 n=57 v=0
35992 On ch=2 n=48 v=105
35997 Off ch=2 n=53 v=0
36486 On ch=2 n=52 v=97
36486 On ch=2 n=55 v=93
36488 Off ch=2 n=48 v=0
36816 Off ch=2 n=55 v=0
36882 Off ch=2 n=52 v=0
37440 On ch=2 n=52 v=78
37440 On ch=2 n=55 v=83
37865 Off ch=2 n=55 v=0
37897 Off ch=2 n=52 v=0
37917 On ch=2 n=43 v=100
38323 On ch=2 n=50 v=70
38356 On ch=2 n=55 v=82
38487 Off ch=2 n=43 v=0
38684 Off ch=2 n=50 v=0
38782 Off ch=2 n=55 v=0
39354 On ch=2 n=50 v=69
39354 On ch=2 n=55 v=80
39798 Off ch=2 n=50 v=0
39831 Off ch=2 n=55 v=0
39839 On ch=2 n=45 v=94
40328 On ch=2 n=52 v=94
40328 On ch=2 n=57 v=96
40355 Off ch=2 n=45 v=0
40683 Off ch=2 n=57 v=0
40781 Off ch=2 n=52 v=0
41281 On ch=2 n=52 v=80
41281 On ch=2 n=57 v=67
41757 On ch=2 n=50 v=88
41797 Off ch=2 n=52 v=0
41862 Off ch=2 n=57 v=0
42246 On ch=2 n=57 v=80
42246 On ch=2 n=53 v=81
42256 Off ch=2 n=50 v=0
42583 Off ch=2 n=53 v=0
42649 Off ch=2 n=57 v=0
43201 On ch=2 n=57 v=71
43201 On ch=2 n=53 v=82
43665 Off ch=2 n=57 v=0
43672 On ch=2 n=48 v=84
43672 On ch=2 n=60 v=35
43697 Off ch=2 n=53 v=0
44168 On ch=2 n=52 v=96
44168 On ch=2 n=55 v=91
44189 Off ch=2 n=48 v=0
44254 Off ch=2 n=60 v=0
44516 Off ch=2 n=55 v=0
44549 Off ch=2 n=52 v=0
45119 On ch=2 n=52 v=79
45119 On ch=2 n=55 v=82
45565 Off ch=2 n=55 v=0
45596 On ch=2 n=43 v=98
45598 Off ch=2 n=52 v=0
46091 On ch=2 n=50 v=71
46091 On ch=2 n=55 v=81
46155 Off ch=2 n=43 v=0
46384 Off ch=2 n=50 v=0
46483 Off ch=2 n=55 v=0
47040 On ch=2 n=55 v=82
47040 On ch=2 n=50 v=71
47498 Off ch=2 n=50 v=0
47516 On ch=2 n=45 v=98
47531 Off ch=2 n=55 v=0
48009 On ch=2 n=52 v=93
48009 On ch=2 n=57 v=94
48055 Off ch=2 n=45 v=0
48350 Off ch=2 n=52 v=0
48416 Off ch=2 n=57 v=0
48960 On ch=2 n=52 v=77
48960 On ch=2 n=57 v=67
49432 Off ch=2 n=52 v=0
49432 Off ch=2 n=57 v=0
49439 On ch=2 n=50 v=89
49926 On ch=2 n=57 v=81
49926 On ch=2 n=53 v=81
49956 Off ch=2 n=50 v=0
50284 Off ch=2 n=53 v=0
50316 Off ch=2 n=57 v=0
50880 On ch=2 n=57 v=71
50880 On ch=2 n=53 v=78
51353 On ch=2 n=48 v=105
51365 Off ch=2 n=53 v=0
51398 Off ch=2 n=57 v=0
51847 On ch=2 n=55 v=94
51847 On ch=2 n=52 v=96
51889 Off ch=2 n=48 v=0
52184 Off ch=2 n=55 v=0
52250 Off ch=2 n=52 v=0
52799 On ch=2 n=52 v=79
52799 On ch=2 n=55 v=84
53233 Off ch=2 n=55 v=0
53266 Off ch=2 n=52 v=0
53278 On ch=2 n=43 v=100
53768 On ch=2 n=50 v=73
53768 On ch=2 n=55 v=82
53823 Off ch=2 n=43 v=0
54085 Off ch=2 n=50 v=0
54150 Off ch=2 n=55 v=0
54720 On ch=2 n=50 v=76
54720 On ch=2 n=55 v=82
55035 Off ch=2 n=50 v=0
55101 On ch=2 n=60 v=94
55101 On ch=2 n=64 v=84
55166 Off ch=2 n=55 v=0
55194 On ch=2 n=57 v=96
57034 Off ch=2 n=60 v=0
57034 Off ch=2 n=57 v=0
57034 On ch=2 n=57 v=79
57034 On ch=2 n=50 v=72
57034 On ch=2 n=60 v=81
57165 Off ch=2 n=64 v=0
59000 Off ch=2 n=50 v=0
59038 Off ch=2 n=60 v=0
59038 Off ch=2 n=57 v=0
59038 On ch=2 n=60 v=90
59038 On ch=2 n=53 v=96
59038 On ch=2 n=57 v=97
60868 On ch=2 n=62 v=71
60933 Off ch=2 n=60 v=0
60955 On ch=2 n=59 v=81
60955 On ch=2 n=55 v=78
60999 Off ch=2 n=53 v=0
60999 Off ch=2 n=57 v=0
62867 Off ch=2 n=62 v=0
62867 Off ch=2 n=59 v=0
62877 On ch=2 n=57 v=106
62877 On ch=2 n=60 v=107
62877 On ch=2 n=64 v=102
62899 Off ch=2 n=55 v=0
63784 Off ch=2 n=60 v=0
63784 Off ch=2 n=64 v=0
63784 On ch=2 n=64 v=66
63784 On ch=2 n=60 v=81
63844 Off ch=2 n=57 v=0
63844 On ch=2 n=57 v=80
64734 Off ch=2 n=60 v=0
64734 On ch=2 n=60 v=97
64799 Off ch=2 n=57 v=0
64799 On ch=2 n=50 v=88
64799 On ch=2 n=57 v=94
64833 Off ch=2 n=64 v=0
65717 Off ch=2 n=60 v=0
65717 On ch=2 n=60 v=83
65765 Off ch=2 n=50 v=0
65765 Off ch=2 n=57 v=0
65765 On ch=2 n=57 v=81
65765 On ch=2 n=50 v=73
66700 Off ch=2 n=50 v=0
66713 Off ch=2 n=60 v=0
66713 Off ch=2 n=57 v=0
66713 On ch=2 n=60 v=105
66713 On ch=2 n=53 v=107
66713 On ch=2 n=57 v=109
67684 Off ch=2 n=60 v=0
67684 Off ch=2 n=53 v=0
67684 Off ch=2 n=57 v=0
67684 On ch=2 n=53 v=76
67684 On ch=2 n=57 v=78
67684 On ch=2 n=60 v=73
68634 Off ch=2 n=60 v=0
68638 On ch=2 n=55 v=95
68638 On ch=2 n=62 v=89
68638 On ch=2 n=59 v=95
68667 Off ch=2 n=57 v=0
68699 Off ch=2 n=53 v=0
69602 Off ch=2 n=55 v=0
69602 Off ch=2 n=62 v=0
69602 Off ch=2 n=59 v=0
69602 On ch=2 n=62 v=75
69602 On ch=2 n=55 v=77
69602 On ch=2 n=59 v=82
70556 On ch=2 n=64 v=103
70556 On ch=2 n=57 v=107
70556 On ch=2 n=60 v=106
70567 Off ch=2 n=59 v=0
70600 Off ch=2 n=55 v=0
70633 Off ch=2 n=62 v=0
71521 Off ch=2 n=64 v=0
71521 Off ch=2 n=57 v=0
71521 Off ch=2 n=60 v=0
71521 On ch=2 n=57 v=82
71521 On ch=2 n=64 v=68
71521 On ch=2 n=60 v=82
72476 Off ch=2 n=60 v=0
72476 Off ch=2 n=57 v=0
72476 On ch=2 n=57 v=94
72476 On ch=2 n=50 v=88
72476 On ch=2 n=60 v=97
72566 Off ch=2 n=64 v=0
73057 Off ch=2 n=50 v=0
73445 Off ch=2 n=60 v=0
73445 Off ch=2 n=57 v=0
73445 On ch=2 n=60 v=83
73445 On ch=2 n=57 v=79
73445 On ch=2 n=50 v=73
74041 Off ch=2 n=50 v=0
74397 Off ch=2 n=57 v=0
74397 Off ch=2 n=60 v=0
74397 On ch=2 n=60 v=107
74397 On ch=2 n=53 v=109
74397 On ch=2 n=57 v=110
75365 Off ch=2 n=60 v=0
75365 Off ch=2 n=53 v=0
75365 Off ch=2 n=57 v=0
75365 On ch=2 n=53 v=79
75365 On ch=2 n=60 v=77
75365 On ch=2 n=57 v=74
76317 On ch=2 n=59 v=95
76317 On ch=2 n=62 v=88
76317 On ch=2 n=55 v=95
76367 Off ch=2 n=57 v=0
76367 Off ch=2 n=53 v=0
76400 Off ch=2 n=60 v=0
77286 Off ch=2 n=59 v=0
77286 Off ch=2 n=62 v=0
77286 Off ch=2 n=55 v=0
77286 On ch=2 n=59 v=80
77286 On ch=2 n=55 v=71
77286 On ch=2 n=62 v=71
78235 Off ch=2 n=55 v=0
78235 Off ch=2 n=59 v=0
78236 On ch=2 n=60 v=106
78236 On ch=2 n=64 v=102
78236 On ch=2 n=57 v=105
78268 Off ch=2 n=62 v=0
79201 Off ch=2 n=60 v=0
79201 Off ch=2 n=64 v=0
79201 Off ch=2 n=57 v=0
79201 On ch=2 n=60 v=81
79201 On ch=2 n=64 v=73
79201 On ch=2 n=57 v=82
80103 Off ch=2 n=60 v=0
80103 On ch=2 n=60 v=98
80158 Off ch=2 n=57 v=0
80158 On ch=2 n=50 v=89
80158 On ch=2 n=57 v=96
80234 Off ch=2 n=64 v=0
80758 Off ch=2 n=50 v=0
81124 Off ch=2 n=60 v=0
81124 Off ch=2 n=57 v=0
81124 On ch=2 n=57 v=79
81124 On ch=2 n=50 v=73
81124 On ch=2 n=60 v=85
82074 Off ch=2 n=60 v=0
82074 Off ch=2 n=57 v=0
82074 On ch=2 n=57 v=110
82074 On ch=2 n=53 v=108
82074 On ch=2 n=60 v=104
82101 Off ch=2 n=50 v=0
82986 Off ch=2 n=60 v=0
82986 On ch=2 n=60 v=75
83041 Off ch=2 n=53 v=0
83041 Off ch=2 n=57 v=0
83041 On ch=2 n=57 v=78
83041 On ch=2 n=53 v=79
83904 On ch=2 n=62 v=90
83995 On ch=2 n=59 v=85
83995 On ch=2 n=55 v=96
84002 Off ch=2 n=57 v=0
84035 Off ch=2 n=60 v=0
84067 Off ch=2 n=53 v=0
84964 Off ch=2 n=62 v=0
84964 Off ch=2 n=55 v=0
84964 On ch=2 n=62 v=60
84964 On ch=2 n=55 v=77
85920 On ch=2 n=45 v=105
85935 Off ch=2 n=62 v=0
85935 Off ch=2 n=55 v=0
85968 Off ch=2 n=59 v=0
86408 On ch=2 n=52 v=109
86408 On ch=2 n=57 v=119
86460 Off ch=2 n=45 v=0
86638 Off ch=2 n=52 v=0
86638 Off ch=2 n=57 v=0
86638 On ch=2 n=52 v=105
86638 On ch=2 n=57 v=106
86984 Off ch=2 n=52 v=0
87017 Off ch=2 n=57 v=0
87359 On ch=2 n=57 v=68
87359 On ch=2 n=52 v=81
87836 Off ch=2 n=52 v=0
87836 On ch=2 n=50 v=93
87934 Off ch=2 n=57 v=0
88327 Off ch=2 n=50 v=0
88328 On ch=2 n=53 v=102
88328 On ch=2 n=57 v=101
88557 Off ch=2 n=53 v=0
88557 Off ch=2 n=57 v=0
88557 On ch=2 n=53 v=92
88557 On ch=2 n=57 v=92
88950 Off ch=2 n=53 v=0
88950 Off ch=2 n=57 v=0
89274 On ch=2 n=53 v=84
89274 On ch=2 n=57 v=71
89736 Off ch=2 n=53 v=0
89736 Off ch=2 n=57 v=0
89753 On ch=2 n=48 v=104
90248 On ch=2 n=55 v=109
90248 On ch=2 n=52 v=111
90261 Off ch=2 n=48 v=0
90477 Off ch=2 n=55 v=0
90477 Off ch=2 n=52 v=0
90477 On ch=2 n=52 v=107
90477 On ch=2 n=55 v=104
90818 Off ch=2 n=55 v=0
90850 Off ch=2 n=52 v=0
91201 On ch=2 n=52 v=76
91201 On ch=2 n=55 v=83
91637 Off ch=2 n=55 v=0
91670 Off ch=2 n=52 v=0
91676 On ch=2 n=43 v=110
92167 On ch=2 n=55 v=103
92167 On ch=2 n=50 v=92
92227 Off ch=2 n=43 v=0
92398 Off ch=2 n=55 v=0
92398 Off ch=2 n=50 v=0
92398 On ch=2 n=55 v=94
92398 On ch=2 n=50 v=84
92718 Off ch=2 n=50 v=0
92784 Off ch=2 n=55 v=0
93114 On ch=2 n=50 v=71
93114 On ch=2 n=55 v=81
93570 Off ch=2 n=50 v=0
93595 On ch=2 n=45 v=107
93636 Off ch=2 n=55 v=0
94087 On ch=2 n=52 v=110
94087 On ch=2 n=57 v=111
94160 Off ch=2 n=45 v=0
94317 Off ch=2 n=52 v=0
94317 Off ch=2 n=57 v=0
94317 On ch=2 n=57 v=105
94317 On ch=2 n=52 v=104
94684 Off ch=2 n=52 v=0
94717 Off ch=2 n=57 v=0
95033 On ch=2 n=52 v=80
95033 On ch=2 n=57 v=68
95518 On ch=2 n=50 v=94
95536 Off ch=2 n=52 v=0
95569 Off ch=2 n=57 v=0
96007 On ch=2 n=53 v=101
96007 On ch=2 n=57 v=102
96028 Off ch=2 n=50 v=0
96239 Off ch=2 n=53 v=0
96239 Off ch=2 n=57 v=0
96239 On ch=2 n=53 v=91
96239 On ch=2 n=57 v=90
96650 Off ch=2 n=53 v=0
96650 Off ch=2 n=57 v=0
96958 On ch=2 n=57 v=77
96958 On ch=2 n=53 v=75
97433 On ch=2 n=48 v=104
97437 Off ch=2 n=53 v=0
97470 Off ch=2 n=57 v=0
97928 On ch=2 n=55 v=111
97928 On ch=2 n=52 v=114
97961 Off ch=2 n=48 v=0
98158 Off ch=2 n=55 v=0
98158 Off ch=2 n=52 v=0
98158 On ch=2 n=52 v=106
98158 On ch=2 n=55 v=104
98551 Off ch=2 n=52 v=0
98584 Off ch=2 n=55 v=0
98879 On ch=2 n=55 v=82
98879 On ch=2 n=52 v=74
99337 Off ch=2 n=55 v=0
99355 On ch=2 n=43 v=100
99370 Off ch=2 n=52 v=0
99849 On ch=2 n=55 v=102
99849 On ch=2 n=50 v=93
99927 Off ch=2 n=43 v=0
100080 Off ch=2 n=55 v=0
100080 Off ch=2 n=50 v=0
100080 On ch=2 n=55 v=91
100080 On ch=2 n=50 v=83
100419 Off ch=2 n=50 v=0
100484 Off ch=2 n=55 v=0
100800 On ch=2 n=50 v=70
100800 On ch=2 n=55 v=80
101271 Off ch=2 n=50 v=0
101272 On ch=2 n=45 v=98
101303 Off ch=2 n=55 v=0
101767 On ch=2 n=52 v=110
101767 On ch=2 n=57 v=113
101795 Off ch=2 n=45 v=0
101998 Off ch=2 n=52 v=0
101998 Off ch=2 n=57 v=0
101998 On ch=2 n=57 v=106
101998 On ch=2 n=52 v=103
102352 Off ch=2 n=52 v=0
102385 Off ch=2 n=57 v=0
102719 On ch=2 n=57 v=64
102719 On ch=2 n=52 v=76
103191 On ch=2 n=50 v=93
103204 Off ch=2 n=57 v=0
103204 Off ch=2 n=52 v=0
103687 On ch=2 n=57 v=100
103687 On ch=2 n=53 v=99
103728 Off ch=2 n=50 v=0
103919 Off ch=2 n=57 v=0
103919 Off ch=2 n=53 v=0
103919 On ch=2 n=57 v=89
103919 On ch=2 n=53 v=92
104285 Off ch=2 n=53 v=0
104318 Off ch=2 n=57 v=0
104641 On ch=2 n=57 v=72
104641 On ch=2 n=53 v=75
105105 Off ch=2 n=57 v=0
105105 Off ch=2 n=53 v=0
105113 On ch=2 n=48 v=101
105605 On ch=2 n=55 v=109
105605 On ch=2 n=52 v=112
105662 Off ch=2 n=48 v=0
105838 Off ch=2 n=55 v=0
105838 Off ch=2 n=52 v=0
105838 On ch=2 n=52 v=106
105838 On ch=2 n=55 v=104
106251 Off ch=2 n=52 v=0
106251 Off ch=2 n=55 v=0
106559 On ch=2 n=52 v=81
106559 On ch=2 n=55 v=82
107005 Off ch=2 n=52 v=0
107005 Off ch=2 n=55 v=0
107037 On ch=2 n=43 v=101
107529 On ch=2 n=50 v=93
107529 On ch=2 n=55 v=103
107595 Off ch=2 n=43 v=0
107759 Off ch=2 n=50 v=0
107759 Off ch=2 n=55 v=0
107759 On ch=2 n=55 v=92
107759 On ch=2 n=50 v=82
108086 Off ch=2 n=50 v=0
108152 Off ch=2 n=55 v=0
108475 On ch=2 n=55 v=82
108475 On ch=2 n=50 v=71
108938 Off ch=2 n=55 v=0
108938 Off ch=2 n=50 v=0
108956 On ch=2 n=45 v=106
109364 On ch=2 n=52 v=112
109447 On ch=2 n=57 v=125
109495 Off ch=2 n=45 v=0
109679 Off ch=2 n=52 v=0
109679 Off ch=2 n=57 v=0
109679 On ch=2 n=52 v=103
109679 On ch=2 n=57 v=103
110020 Off ch=2 n=52 v=0
110085 Off ch=2 n=57 v=0
110394 On ch=2 n=52 v=75
110394 On ch=2 n=57 v=67
110839 Off ch=2 n=57 v=0
110872 Off ch=2 n=52 v=0
110877 On ch=2 n=50 v=91
111367 On ch=2 n=57 v=100
111367 On ch=2 n=53 v=101
111396 Off ch=2 n=50 v=0
111597 Off ch=2 n=57 v=0
111597 Off ch=2 n=53 v=0
111597 On ch=2 n=57 v=91
111597 On ch=2 n=53 v=92
111953 Off ch=2 n=53 v=0
111986 Off ch=2 n=57 v=0
112314 On ch=2 n=53 v=75
112314 On ch=2 n=57 v=69
112772 Off ch=2 n=53 v=0
112772 Off ch=2 n=57 v=0
112791 On ch=2 n=48 v=104
113198 On ch=2 n=52 v=111
113288 On ch=2 n=55 v=112
113297 Off ch=2 n=48 v=0
113518 Off ch=2 n=52 v=0
113518 Off ch=2 n=55 v=0
113518 On ch=2 n=52 v=106
113518 On ch=2 n=55 v=104
113919 Off ch=2 n=52 v=0
113919 Off ch=2 n=55 v=0
114240 On ch=2 n=55 v=84
114240 On ch=2 n=52 v=78
114673 Off ch=2 n=55 v=0
114706 Off ch=2 n=52 v=0
114716 On ch=2 n=43 v=109
115207 On ch=2 n=50 v=92
115207 On ch=2 n=55 v=103
115328 Off ch=2 n=43 v=0
115437 Off ch=2 n=50 v=0
115437 Off ch=2 n=55 v=0
115437 On ch=2 n=50 v=83
115437 On ch=2 n=55 v=91
115754 Off ch=2 n=50 v=0
115820 Off ch=2 n=55 v=0
116159 On ch=2 n=55 v=79
116159 On ch=2 n=50 v=77
116606 Off ch=2 n=50 v=0
116636 On ch=2 n=64 v=80
116636 On ch=2 n=60 v=94
116636 On ch=2 n=57 v=95
116639 Off ch=2 n=55 v=0
118507 Off ch=2 n=60 v=0
118507 On ch=2 n=60 v=82
118557 Off ch=2 n=57 v=0
118557 On ch=2 n=57 v=82
118557 On ch=2 n=50 v=73
118638 Off ch=2 n=64 v=0
120407 Off ch=2 n=60 v=0
120407 On ch=2 n=60 v=87
120473 Off ch=2 n=50 v=0
120475 Off ch=2 n=57 v=0
120475 On ch=2 n=53 v=93
120475 On ch=2 n=57 v=95
122275 On ch=2 n=59 v=77
122308 On ch=2 n=55 v=79
122308 On ch=2 n=62 v=66
122406 Off ch=2 n=53 v=0
122406 Off ch=2 n=57 v=0
122439 Off ch=2 n=60 v=0
124309 On ch=2 n=45 v=95
124339 Off ch=2 n=62 v=0
124339 Off ch=2 n=59 v=0
124339 Off ch=2 n=55 v=0
124807 On ch=2 n=52 v=92
124807 On ch=2 n=57 v=96
124831 Off ch=2 n=45 v=0
125159 Off ch=2 n=52 v=0
125159 Off ch=2 n=57 v=0
125759 On ch=2 n=52 v=76
125759 On ch=2 n=57 v=67
126207 Off ch=2 n=52 v=0
126207 Off ch=2 n=57 v=0
126238 On ch=2 n=50 v=91
126726 On ch=2 n=53 v=81
126726 On ch=2 n=57 v=80
126731 Off ch=2 n=50 v=0
127059 Off ch=2 n=53 v=0
127092 Off ch=2 n=57 v=0
127679 On ch=2 n=53 v=80
127679 On ch=2 n=57 v=70
128140 Off ch=2 n=57 v=0
128150 On ch=2 n=48 v=105
128173 Off ch=2 n=53 v=0
128649 On ch=2 n=52 v=97
128649 On ch=2 n=55 v=93
128665 Off ch=2 n=48 v=0
128960 Off ch=2 n=52 v=0
128992 Off ch=2 n=55 v=0
129600 On ch=2 n=55 v=83
129600 On ch=2 n=52 v=80
130041 Off ch=2 n=55 v=0
130041 Off ch=2 n=52 v=0
130078 On ch=2 n=43 v=99
130568 On ch=2 n=50 v=73
130568 On ch=2 n=55 v=82
130598 Off ch=2 n=43 v=0
130860 Off ch=2 n=50 v=0
130958 Off ch=2 n=55 v=0
131519 On ch=2 n=50 v=71
131519 On ch=2 n=55 v=82
131909 On ch=2 n=45 v=101
131942 Off ch=2 n=50 v=0
131974 Off ch=2 n=55 v=0
132481 On ch=2 n=57 v=95
132481 On ch=2 n=52 v=93
132531 Off ch=2 n=45 v=0
132859 Off ch=2 n=52 v=0
132892 Off ch=2 n=57 v=0
133438 On ch=2 n=52 v=80
133438 On ch=2 n=57 v=66
133777 Off ch=2 n=52 v=0
133908 Off ch=2 n=57 v=0
133913 On ch=2 n=50 v=87
134410 On ch=2 n=57 v=80
134410 On ch=2 n=53 v=81
134432 Off ch=2 n=50 v=0
134792 Off ch=2 n=57 v=0
135355 Off ch=2 n=53 v=0
135355 On ch=2 n=53 v=80
135355 On ch=2 n=57 v=70
135832 On ch=2 n=48 v=105
135841 Off ch=2 n=57 v=0
135874 Off ch=2 n=53 v=0
136327 On ch=2 n=55 v=94
136327 On ch=2 n=52 v=96
136365 Off ch=2 n=48 v=0
136726 Off ch=2 n=55 v=0
136824 Off ch=2 n=52 v=0
137278 On ch=2 n=55 v=82
137278 On ch=2 n=52 v=79
137741 Off ch=2 n=55 v=0
137741 Off ch=2 n=52 v=0
137756 On ch=2 n=43 v=100
138251 On ch=2 n=50 v=72
138251 On ch=2 n=55 v=81
138298 Off ch=2 n=43 v=0
138561 Off ch=2 n=50 v=0
138659 Off ch=2 n=55 v=0
139200 On ch=2 n=55 v=79
139200 On ch=2 n=50 v=68
139642 Off ch=2 n=50 v=0
139675 Off ch=2 n=55 v=0
139678 On ch=2 n=45 v=102
140167 On ch=2 n=57 v=92
140167 On ch=2 n=52 v=93
140232 Off ch=2 n=45 v=0
140494 Off ch=2 n=52 v=0
140559 Off ch=2 n=57 v=0
141118 On ch=2 n=57 v=68
141118 On ch=2 n=52 v=81
141597 On ch=2 n=50 v=92
141608 Off ch=2 n=52 v=0
141674 Off ch=2 n=57 v=0
142087 On ch=2 n=53 v=81
142087 On ch=2 n=57 v=79
142100 Off ch=2 n=50 v=0
142427 Off ch=2 n=53 v=0
142427 Off ch=2 n=57 v=0
143038 On ch=2 n=57 v=71
143038 On ch=2 n=53 v=74
143509 Off ch=2 n=57 v=0
143509 Off ch=2 n=53 v=0
143516 On ch=2 n=48 v=101
144006 On ch=2 n=55 v=92
144006 On ch=2 n=52 v=97
144033 Off ch=2 n=48 v=0
144361 Off ch=2 n=55 v=0
144557 Off ch=2 n=52 v=0
144958 On ch=2 n=55 v=82
144958 On ch=2 n=52 v=78
145409 Off ch=2 n=55 v=0
145409 Off ch=2 n=52 v=0
145436 On ch=2 n=43 v=99
145928 On ch=2 n=50 v=71
145928 On ch=2 n=55 v=82
145966 Off ch=2 n=43 v=0
146228 Off ch=2 n=50 v=0
146327 Off ch=2 n=55 v=0
146880 On ch=2 n=55 v=81
146880 On ch=2 n=50 v=71
147310 Off ch=2 n=50 v=0
147342 Off ch=2 n=55 v=0
147356 On ch=2 n=45 v=105
147847 On ch=2 n=52 v=94
147847 On ch=2 n=57 v=96
147900 Off ch=2 n=45 v=0
148194 Off ch=2 n=52 v=0
148227 Off ch=2 n=57 v=0
148800 On ch=2 n=57 v=68
148800 On ch=2 n=52 v=78
149276 Off ch=2 n=52 v=0
149278 On ch=2 n=50 v=92
149374 Off ch=2 n=57 v=0
149767 Off ch=2 n=50 v=0
149768 On ch=2 n=53 v=80
149768 On ch=2 n=57 v=80
150095 Off ch=2 n=53 v=0
150161 Off ch=2 n=57 v=0
150721 On ch=2 n=53 v=68
150721 On ch=2 n=57 v=71
151111 On ch=2 n=48 v=104
151144 Off ch=2 n=57 v=0
151176 Off ch=2 n=53 v=0
151689 On ch=2 n=52 v=96
151689 On ch=2 n=55 v=94
151701 Off ch=2 n=48 v=0
152028 Off ch=2 n=55 v=0
152127 Off ch=2 n=52 v=0
152639 On ch=2 n=55 v=82
152639 On ch=2 n=52 v=79
153077 Off ch=2 n=55 v=0
153110 Off ch=2 n=52 v=0
153116 On ch=2 n=43 v=100
153608 On ch=2 n=55 v=82
153608 On ch=2 n=50 v=72
153667 Off ch=2 n=43 v=0
153896 Off ch=2 n=50 v=0
153994 Off ch=2 n=55 v=0
154563 On ch=2 n=55 v=77
154563 On ch=2 n=50 v=71
155010 Off ch=2 n=55 v=0
155010 Off ch=2 n=50 v=0
155032 On ch=2 n=45 v=98
155469 On ch=2 n=69 v=64
155526 On ch=2 n=52 v=99
155567 Off ch=2 n=45 v=0
155829 Off ch=2 n=69 v=0
156478 Off ch=2 n=52 v=0
156478 On ch=2 n=57 v=67
156478 On ch=2 n=52 v=81
156944 Off ch=2 n=52 v=0
156952 On ch=2 n=50 v=92
157042 Off ch=2 n=57 v=0
157449 On ch=2 n=53 v=81
157449 On ch=2 n=57 v=80
157468 Off ch=2 n=50 v=0
157763 Off ch=2 n=53 v=0
157828 Off ch=2 n=57 v=0
158399 On ch=2 n=57 v=70
158399 On ch=2 n=53 v=76
158872 On ch=2 n=48 v=92
158877 Off ch=2 n=53 v=0
158910 Off ch=2 n=57 v=0
159366 On ch=2 n=55 v=92
159366 On ch=2 n=52 v=97
159401 Off ch=2 n=48 v=0
159729 Off ch=2 n=55 v=0
159925 Off ch=2 n=52 v=0
160320 On ch=2 n=52 v=81
160320 On ch=2 n=55 v=83
160777 Off ch=2 n=52 v=0
160777 Off ch=2 n=55 v=0
160797 On ch=2 n=43 v=99
161289 On ch=2 n=55 v=81
161289 On ch=2 n=50 v=70
161367 Off ch=2 n=43 v=0
161597 Off ch=2 n=50 v=0
161695 Off ch=2 n=55 v=0
162240 On ch=2 n=55 v=84
162240 On ch=2 n=50 v=66
162711 Off ch=2 n=50 v=0
162711 On ch=2 n=45 v=105
162743 Off ch=2 n=55 v=0
163207 On ch=2 n=52 v=93
163207 On ch=2 n=57 v=92
163268 Off ch=2 n=45 v=0
163595 Off ch=2 n=57 v=0
164162 Off ch=2 n=52 v=0
164162 On ch=2 n=57 v=66
164162 On ch=2 n=52 v=79
164638 On ch=2 n=50 v=78
164644 Off ch=2 n=57 v=0
164677 Off ch=2 n=52 v=0
165130 On ch=2 n=57 v=80
165130 On ch=2 n=53 v=81
165168 Off ch=2 n=50 v=0
165463 Off ch=2 n=53 v=0
165529 Off ch=2 n=57 v=0
166079 On ch=2 n=53 v=76
166079 On ch=2 n=57 v=72
166545 Off ch=2 n=53 v=0
166545 Off ch=2 n=57 v=0
166552 On ch=2 n=48 v=105
167040 On ch=2 n=55 v=92
167040 On ch=2 n=52 v=97
167069 Off ch=2 n=48 v=0
167396 Off ch=2 n=55 v=0
167429 Off ch=2 n=52 v=0
168000 On ch=2 n=52 v=70
168000 On ch=2 n=55 v=84
168445 Off ch=2 n=55 v=0
168477 On ch=2 n=43 v=103
168478 Off ch=2 n=52 v=0
168969 On ch=2 n=50 v=71
168969 On ch=2 n=55 v=80
169068 Off ch=2 n=43 v=0
169297 Off ch=2 n=50 v=0
169363 Off ch=2 n=55 v=0
169920 On ch=2 n=50 v=73
169920 On ch=2 n=55 v=76
170378 Off ch=2 n=50 v=0
170378 Off ch=2 n=55 v=0
170394 On ch=2 n=57 v=96
170394 On ch=2 n=64 v=87
170394 On ch=2 n=60 v=95
172317 Off ch=2 n=60 v=0
172317 Off ch=2 n=57 v=0
172317 On ch=2 n=60 v=81
172317 On ch=2 n=57 v=82
172317 On ch=2 n=50 v=74
172377 Off ch=2 n=64 v=0
172902 Off ch=2 n=50 v=0
174180 Off ch=2 n=60 v=0
174180 On ch=2 n=60 v=91
174236 Off ch=2 n=57 v=0
174236 On ch=2 n=53 v=94
174236 On ch=2 n=57 v=79
176154 On ch=2 n=55 v=78
176154 On ch=2 n=62 v=72
176154 On ch=2 n=59 v=79
176178 Off ch=2 n=60 v=0
176211 Off ch=2 n=53 v=0
176211 Off ch=2 n=57 v=0
177981 On ch=2 n=64 v=102
177981 On ch=2 n=60 v=107
178076 On ch=2 n=57 v=92
178112 Off ch=2 n=62 v=0
178112 Off ch=2 n=55 v=0
178177 Off ch=2 n=59 v=0
178996 Off ch=2 n=57 v=0
179038 Off ch=2 n=64 v=0
179038 Off ch=2 n=60 v=0
179038 On ch=2 n=64 v=62
179038 On ch=2 n=60 v=81
179038 On ch=2 n=69 v=28
179586 Off ch=2 n=69 v=0
179995 Off ch=2 n=60 v=0
179995 On ch=2 n=60 v=97
179995 On ch=2 n=57 v=93
179995 On ch=2 n=50 v=88
180045 Off ch=2 n=64 v=0
180961 Off ch=2 n=60 v=0
180961 Off ch=2 n=57 v=0
180961 Off ch=2 n=50 v=0
180961 On ch=2 n=60 v=84
180961 On ch=2 n=50 v=73
180961 On ch=2 n=57 v=79
181880 Off ch=2 n=50 v=0
181915 Off ch=2 n=57 v=0
181915 Off ch=2 n=60 v=0
181915 On ch=2 n=57 v=108
181915 On ch=2 n=53 v=108
181915 On ch=2 n=60 v=105
182830 Off ch=2 n=60 v=0
182830 Off ch=2 n=57 v=0
182830 On ch=2 n=60 v=75
182830 On ch=2 n=57 v=79
182884 Off ch=2 n=53 v=0
182884 On ch=2 n=53 v=79
183748 On ch=2 n=59 v=95
183748 On ch=2 n=62 v=90
183836 On ch=2 n=55 v=95
183846 Off ch=2 n=60 v=0
183846 Off ch=2 n=57 v=0
183879 Off ch=2 n=53 v=0
184806 Off ch=2 n=55 v=0
184806 Off ch=2 n=59 v=0
184806 Off ch=2 n=62 v=0
184806 On ch=2 n=59 v=83
184806 On ch=2 n=55 v=76
184806 On ch=2 n=62 v=74
185747 Off ch=2 n=55 v=0
185756 On ch=2 n=60 v=107
185756 On ch=2 n=57 v=107
185756 On ch=2 n=64 v=103
185779 Off ch=2 n=59 v=0
185812 Off ch=2 n=62 v=0
186724 Off ch=2 n=60 v=0
186724 Off ch=2 n=57 v=0
186724 Off ch=2 n=64 v=0
186724 On ch=2 n=57 v=79
186724 On ch=2 n=60 v=81
186724 On ch=2 n=64 v=68
187677 Off ch=2 n=60 v=0
187677 Off ch=2 n=57 v=0
187677 On ch=2 n=57 v=93
187677 On ch=2 n=60 v=97
187677 On ch=2 n=50 v=88
187745 Off ch=2 n=64 v=0
188645 Off ch=2 n=57 v=0
188645 Off ch=2 n=60 v=0
188645 Off ch=2 n=50 v=0
188645 On ch=2 n=60 v=83
188645 On ch=2 n=50 v=69
188645 On ch=2 n=57 v=79
189580 Off ch=2 n=50 v=0
189591 Off ch=2 n=57 v=0
189591 Off ch=2 n=60 v=0
189591 On ch=2 n=57 v=108
189591 On ch=2 n=53 v=108
189591 On ch=2 n=60 v=106
190562 Off ch=2 n=57 v=0
190562 Off ch=2 n=53 v=0
190562 Off ch=2 n=60 v=0
190562 On ch=2 n=60 v=74
190562 On ch=2 n=53 v=79
190562 On ch=2 n=57 v=79
191514 Off ch=2 n=60 v=0
191517 On ch=2 n=62 v=88
191517 On ch=2 n=55 v=94
191517 On ch=2 n=59 v=95
191547 Off ch=2 n=53 v=0
191547 Off ch=2 n=57 v=0
192485 Off ch=2 n=62 v=0
192485 Off ch=2 n=55 v=0
192485 Off ch=2 n=59 v=0
192485 On ch=2 n=62 v=74
192485 On ch=2 n=55 v=77
192485 On ch=2 n=59 v=81
193437 On ch=2 n=57 v=106
193437 On ch=2 n=64 v=103
193437 On ch=2 n=60 v=107
193480 Off ch=2 n=55 v=0
193480 Off ch=2 n=62 v=0
193578 Off ch=2 n=59 v=0
194398 Off ch=2 n=57 v=0
194398 Off ch=2 n=64 v=0
194398 Off ch=2 n=60 v=0
194398 On ch=2 n=57 v=80
194398 On ch=2 n=64 v=65
194398 On ch=2 n=60 v=81
195357 Off ch=2 n=60 v=0
195357 Off ch=2 n=57 v=0
195357 On ch=2 n=60 v=98
195357 On ch=2 n=50 v=89
195357 On ch=2 n=57 v=92
195413 Off ch=2 n=64 v=0
196326 Off ch=2 n=60 v=0
196326 Off ch=2 n=50 v=0
196326 Off ch=2 n=57 v=0
196326 On ch=2 n=50 v=73
196326 On ch=2 n=60 v=83
196326 On ch=2 n=57 v=78
197276 Off ch=2 n=60 v=0
197276 Off ch=2 n=57 v=0
197276 On ch=2 n=57 v=109
197276 On ch=2 n=53 v=93
197276 On ch=2 n=60 v=106
197281 Off ch=2 n=50 v=0
198231 Off ch=2 n=53 v=0
198244 Off ch=2 n=60 v=0
198244 Off ch=2 n=57 v=0
198244 On ch=2 n=65 v=28
198244 On ch=2 n=60 v=71
198244 On ch=2 n=57 v=78
199195 On ch=2 n=55 v=95
199195 On ch=2 n=59 v=95
199195 On ch=2 n=62 v=91
199214 Off ch=2 n=60 v=0
199214 Off ch=2 n=57 v=0
199280 Off ch=2 n=65 v=0
200163 Off ch=2 n=55 v=0
200163 Off ch=2 n=59 v=0
200163 Off ch=2 n=62 v=0
200163 On ch=2 n=59 v=76
200163 On ch=2 n=62 v=58
200163 On ch=2 n=55 v=69
201119 On ch=2 n=45 v=104
201147 Off ch=2 n=59 v=0
201147 Off ch=2 n=62 v=0
201147 Off ch=2 n=55 v=0
201609 On ch=2 n=52 v=109
201609 On ch=2 n=57 v=113
201639 Off ch=2 n=45 v=0
201841 Off ch=2 n=52 v=0
201841 Off ch=2 n=57 v=0
201841 On ch=2 n=52 v=103
201841 On ch=2 n=57 v=105
202196 Off ch=2 n=52 v=0
202229 Off ch=2 n=57 v=0
202560 On ch=2 n=57 v=68
202560 On ch=2 n=52 v=81
203015 Off ch=2 n=57 v=0
203038 On ch=2 n=50 v=92
203048 Off ch=2 n=52 v=0
203441 On ch=2 n=53 v=100
203528 On ch=2 n=57 v=103
203540 Off ch=2 n=50 v=0
203754 Off ch=2 n=53 v=0
203754 Off ch=2 n=57 v=0
203754 On ch=2 n=53 v=92
203754 On ch=2 n=57 v=88
204129 Off ch=2 n=53 v=0
204129 Off ch=2 n=57 v=0
204478 On ch=2 n=57 v=73
204478 On ch=2 n=53 v=77
204949 Off ch=2 n=53 v=0
204954 On ch=2 n=48 v=103
204981 Off ch=2 n=57 v=0
205447 On ch=2 n=52 v=114
205447 On ch=2 n=55 v=112
205473 Off ch=2 n=48 v=0
205679 Off ch=2 n=52 v=0
205679 Off ch=2 n=55 v=0
205679 On ch=2 n=55 v=104
205679 On ch=2 n=52 v=106
206030 Off ch=2 n=55 v=0
206030 Off ch=2 n=52 v=0
206397 On ch=2 n=55 v=83
206397 On ch=2 n=52 v=78
206849 Off ch=2 n=55 v=0
206849 Off ch=2 n=52 v=0
206877 On ch=2 n=43 v=109
207371 On ch=2 n=50 v=97
207371 On ch=2 n=55 v=103
207406 Off ch=2 n=43 v=0
207600 Off ch=2 n=50 v=0
207600 Off ch=2 n=55 v=0
207600 On ch=2 n=50 v=84
207600 On ch=2 n=55 v=93
207931 Off ch=2 n=50 v=0
207996 Off ch=2 n=55 v=0
208320 On ch=2 n=55 v=81
208320 On ch=2 n=50 v=71
208782 Off ch=2 n=55 v=0
208782 Off ch=2 n=50 v=0
208791 On ch=2 n=45 v=107
209290 On ch=2 n=57 v=115
209290 On ch=2 n=52 v=110
209340 Off ch=2 n=45 v=0
209519 Off ch=2 n=57 v=0
209519 Off ch=2 n=52 v=0
209519 On ch=2 n=57 v=106
209519 On ch=2 n=52 v=105
209864 Off ch=2 n=52 v=0
209897 Off ch=2 n=57 v=0
210235 On ch=2 n=57 v=67
210235 On ch=2 n=52 v=79
210717 On ch=2 n=50 v=87
210749 Off ch=2 n=57 v=0
210749 Off ch=2 n=52 v=0
211209 On ch=2 n=53 v=99
211209 On ch=2 n=57 v=101
211240 Off ch=2 n=50 v=0
211440 Off ch=2 n=53 v=0
211440 Off ch=2 n=57 v=0
211440 On ch=2 n=53 v=91
211440 On ch=2 n=57 v=90
211830 Off ch=2 n=53 v=0
211863 Off ch=2 n=57 v=0
212160 On ch=2 n=53 v=81
212160 On ch=2 n=57 v=68
212630 On ch=2 n=48 v=104
212649 Off ch=2 n=57 v=0
212682 Off ch=2 n=53 v=0
213129 On ch=2 n=55 v=111
213129 On ch=2 n=52 v=114
213173 Off ch=2 n=48 v=0
213360 Off ch=2 n=55 v=0
213360 Off ch=2 n=52 v=0
213360 On ch=2 n=55 v=104
213360 On ch=2 n=52 v=106
213730 Off ch=2 n=55 v=0
213829 Off ch=2 n=52 v=0
214080 On ch=2 n=55 v=83
214080 On ch=2 n=52 v=83
214517 Off ch=2 n=55 v=0
214555 On ch=2 n=43 v=111
214582 Off ch=2 n=52 v=0
215047 On ch=2 n=55 v=99
215047 On ch=2 n=50 v=92
215107 Off ch=2 n=43 v=0
215278 Off ch=2 n=55 v=0
215278 Off ch=2 n=50 v=0
215278 On ch=2 n=55 v=91
215278 On ch=2 n=50 v=82
215598 Off ch=2 n=50 v=0
215697 Off ch=2 n=55 v=0
216001 On ch=2 n=50 v=70
216001 On ch=2 n=55 v=73
216450 Off ch=2 n=50 v=0
216475 On ch=2 n=45 v=106
216483 Off ch=2 n=55 v=0
216967 On ch=2 n=52 v=111
216967 On ch=2 n=57 v=113
217040 Off ch=2 n=45 v=0
217199 Off ch=2 n=52 v=0
217199 Off ch=2 n=57 v=0
217199 On ch=2 n=57 v=103
217199 On ch=2 n=52 v=103
217630 Off ch=2 n=57 v=0
217919 Off ch=2 n=52 v=0
217919 On ch=2 n=57 v=68
217919 On ch=2 n=52 v=81
218397 On ch=2 n=50 v=93
218416 Off ch=2 n=52 v=0
218515 Off ch=2 n=57 v=0
218890 On ch=2 n=57 v=97
218890 On ch=2 n=53 v=104
218941 Off ch=2 n=50 v=0
219120 Off ch=2 n=57 v=0
219120 Off ch=2 n=53 v=0
219120 On ch=2 n=53 v=92
219120 On ch=2 n=57 v=92
219530 Off ch=2 n=53 v=0
219530 Off ch=2 n=57 v=0
219833 On ch=2 n=57 v=70
219833 On ch=2 n=53 v=73
220316 On ch=2 n=48 v=103
220317 Off ch=2 n=57 v=0
220317 Off ch=2 n=53 v=0
220807 On ch=2 n=55 v=110
220807 On ch=2 n=52 v=113
220841 Off ch=2 n=48 v=0
221036 Off ch=2 n=55 v=0
221036 Off ch=2 n=52 v=0
221036 On ch=2 n=55 v=103
221036 On ch=2 n=52 v=107
221398 Off ch=2 n=55 v=0
221464 Off ch=2 n=52 v=0
221760 On ch=2 n=52 v=77
221760 On ch=2 n=55 v=82
222217 Off ch=2 n=55 v=0
222235 On ch=2 n=43 v=108
222250 Off ch=2 n=52 v=0
222727 On ch=2 n=50 v=91
222727 On ch=2 n=55 v=101
222807 Off ch=2 n=43 v=0
222959 Off ch=2 n=50 v=0
222959 Off ch=2 n=55 v=0
222959 On ch=2 n=55 v=92
222959 On ch=2 n=50 v=84
223299 Off ch=2 n=50 v=0
223364 Off ch=2 n=55 v=0
223679 On ch=2 n=55 v=81
223679 On ch=2 n=50 v=70
224118 Off ch=2 n=50 v=0
224151 Off ch=2 n=55 v=0
224158 On ch=2 n=45 v=107
224648 On ch=2 n=52 v=112
224648 On ch=2 n=57 v=113
224708 Off ch=2 n=45 v=0
224880 Off ch=2 n=52 v=0
224880 Off ch=2 n=57 v=0
224880 On ch=2 n=52 v=105
224880 On ch=2 n=57 v=105
225232 Off ch=2 n=52 v=0
225265 Off ch=2 n=57 v=0
225599 On ch=2 n=57 v=68
225599 On ch=2 n=52 v=74
226072 On ch=2 n=50 v=93
226084 Off ch=2 n=52 v=0
226182 Off ch=2 n=57 v=0
226569 On ch=2 n=53 v=102
226569 On ch=2 n=57 v=94
226608 Off ch=2 n=50 v=0
226799 Off ch=2 n=53 v=0
226799 On ch=2 n=53 v=91
227198 Off ch=2 n=57 v=0
227198 Off ch=2 n=53 v=0
227518 On ch=2 n=53 v=78
227518 On ch=2 n=57 v=84
227952 Off ch=2 n=57 v=0
227985 Off ch=2 n=53 v=0
227996 On ch=2 n=45 v=77
229066 Off ch=2 n=45 v=0
230399 Par ch=1 c=127 v=0
230399 Meta TrkEnd
TrkEnd
