MFile 1 7 480
MTrk
0 TimeSig 4/4 24 8
1 Meta TrkEnd
TrkEnd
MTrk
0 PrCh ch=1 p=0
0 Par ch=1 c=7 v=103
0 Par ch=1 c=10 v=63
0 Par ch=1 c=64 v=64
0 Meta TrkName "\xffffffe7\xffffff99\xffffffbb"
0 Meta Text "start"
0 Tempo 495867
0 TimeSig 1/4 0 0
0 KeySig 0 major
479 Par ch=1 c=64 v=0
480 TimeSig 4/4 0 0
480 Par ch=1 c=64 v=64
480 On ch=1 n=50 v=95
480 On ch=1 n=57 v=95
480 On ch=1 n=62 v=95
2015 Off ch=1 n=62 v=0
2015 Off ch=1 n=50 v=0
2015 Off ch=1 n=57 v=0
2399 Par ch=1 c=64 v=0
2400 Par ch=1 c=64 v=64
2400 On ch=1 n=50 v=95
2400 On ch=1 n=58 v=95
2400 On ch=1 n=62 v=95
3935 Off ch=1 n=62 v=0
3935 Off ch=1 n=50 v=0
3935 Off ch=1 n=58 v=0
4319 Par ch=1 c=64 v=0
4320 Par ch=1 c=64 v=64
4320 On ch=1 n=53 v=95
4320 On ch=1 n=57 v=95
4320 On ch=1 n=60 v=95
6239 Par ch=1 c=64 v=0
6240 Par ch=1 c=64 v=64
7007 Off ch=1 n=60 v=0
7007 Off ch=1 n=53 v=0
7007 Off ch=1 n=57 v=0
7200 On ch=1 n=60 v=95
7200 On ch=1 n=52 v=95
7200 On ch=1 n=55 v=95
7967 Off ch=1 n=60 v=0
7967 Off ch=1 n=52 v=0
7967 Off ch=1 n=55 v=0
8159 Par ch=1 c=64 v=0
8160 Par ch=1 c=64 v=64
8160 On ch=1 n=50 v=95
8160 On ch=1 n=57 v=95
8160 On ch=1 n=62 v=95
9695 Off ch=1 n=62 v=0
9695 Off ch=1 n=50 v=0
9695 Off ch=1 n=57 v=0
10079 Par ch=1 c=64 v=0
10080 Par ch=1 c=64 v=64
10080 On ch=1 n=50 v=95
10080 On ch=1 n=58 v=95
10080 On ch=1 n=62 v=95
11231 Off ch=1 n=62 v=0
11231 Off ch=1 n=50 v=0
11231 Off ch=1 n=58 v=0
11280 On ch=1 n=72 v=95
11855 Off ch=1 n=72 v=0
11999 Par ch=1 c=64 v=0
12000 Par ch=1 c=64 v=64
12000 On ch=1 n=53 v=95
12000 On ch=1 n=57 v=95
12000 On ch=1 n=60 v=95
13919 Par ch=1 c=64 v=0
13920 Par ch=1 c=64 v=64
14687 Off ch=1 n=60 v=0
14687 Off ch=1 n=53 v=0
14687 Off ch=1 n=57 v=0
14880 On ch=1 n=60 v=95
14880 On ch=1 n=52 v=95
14880 On ch=1 n=55 v=95
15647 Off ch=1 n=60 v=0
15647 Off ch=1 n=52 v=0
15647 Off ch=1 n=55 v=0
15839 Par ch=1 c=64 v=0
15840 Par ch=1 c=64 v=64
15840 On ch=1 n=50 v=95
15840 On ch=1 n=57 v=95
15840 On ch=1 n=62 v=95
17375 Off ch=1 n=62 v=0
17375 Off ch=1 n=50 v=0
17375 Off ch=1 n=57 v=0
17759 Par ch=1 c=64 v=0
17760 Par ch=1 c=64 v=64
17760 On ch=1 n=50 v=95
17760 On ch=1 n=58 v=95
17760 On ch=1 n=62 v=95
19295 Off ch=1 n=62 v=0
19295 Off ch=1 n=50 v=0
19295 Off ch=1 n=58 v=0
19679 Par ch=1 c=64 v=0
19680 Par ch=1 c=64 v=64
19680 On ch=1 n=53 v=95
19680 On ch=1 n=57 v=95
19680 On ch=1 n=60 v=95
21599 Par ch=1 c=64 v=0
21600 Par ch=1 c=64 v=64
22367 Off ch=1 n=60 v=0
22367 Off ch=1 n=53 v=0
22367 Off ch=1 n=57 v=0
22560 On ch=1 n=60 v=95
22560 On ch=1 n=52 v=95
22560 On ch=1 n=55 v=95
23327 Off ch=1 n=60 v=0
23327 Off ch=1 n=52 v=0
23327 Off ch=1 n=55 v=0
23519 Par ch=1 c=64 v=0
23520 Par ch=1 c=64 v=64
23520 On ch=1 n=50 v=95
23520 On ch=1 n=57 v=95
23520 On ch=1 n=62 v=95
25055 Off ch=1 n=62 v=0
25055 Off ch=1 n=50 v=0
25055 Off ch=1 n=57 v=0
25439 Par ch=1 c=64 v=0
25440 Par ch=1 c=64 v=64
25440 On ch=1 n=50 v=95
25440 On ch=1 n=58 v=95
25440 On ch=1 n=62 v=95
26975 Off ch=1 n=62 v=0
26975 Off ch=1 n=50 v=0
26975 Off ch=1 n=58 v=0
27359 Par ch=1 c=64 v=0
27360 Par ch=1 c=64 v=64
27360 On ch=1 n=53 v=95
27360 On ch=1 n=57 v=95
27360 On ch=1 n=60 v=95
29279 Par ch=1 c=64 v=0
29280 Par ch=1 c=64 v=64
30815 Off ch=1 n=60 v=0
30815 Off ch=1 n=53 v=0
30815 Off ch=1 n=57 v=0
31199 Par ch=1 c=64 v=0
31200 Par ch=1 c=64 v=64
31200 On ch=1 n=50 v=95
31200 On ch=1 n=57 v=95
31200 On ch=1 n=62 v=95
31583 Off ch=1 n=62 v=0
31583 Off ch=1 n=50 v=0
31583 Off ch=1 n=57 v=0
31680 On ch=1 n=62 v=95
31680 On ch=1 n=50 v=95
31680 On ch=1 n=57 v=95
32063 Off ch=1 n=62 v=0
32063 Off ch=1 n=50 v=0
32063 Off ch=1 n=57 v=0
32160 On ch=1 n=62 v=95
32160 On ch=1 n=50 v=95
32160 On ch=1 n=57 v=95
32543 Off ch=1 n=62 v=0
32543 Off ch=1 n=50 v=0
32543 Off ch=1 n=57 v=0
32640 On ch=1 n=62 v=95
32640 On ch=1 n=50 v=95
32640 On ch=1 n=57 v=95
33023 Off ch=1 n=62 v=0
33023 Off ch=1 n=50 v=0
33023 Off ch=1 n=57 v=0
33119 Par ch=1 c=64 v=0
33120 Par ch=1 c=64 v=64
33120 On ch=1 n=50 v=95
33120 On ch=1 n=58 v=95
33120 On ch=1 n=62 v=95
33503 Off ch=1 n=62 v=0
33503 Off ch=1 n=50 v=0
33503 Off ch=1 n=58 v=0
33600 On ch=1 n=62 v=95
33600 On ch=1 n=50 v=95
33600 On ch=1 n=58 v=95
33983 Off ch=1 n=62 v=0
33983 Off ch=1 n=50 v=0
33983 Off ch=1 n=58 v=0
34080 On ch=1 n=62 v=95
34080 On ch=1 n=50 v=95
34080 On ch=1 n=58 v=95
34463 Off ch=1 n=62 v=0
34463 Off ch=1 n=50 v=0
34463 Off ch=1 n=58 v=0
34560 On ch=1 n=62 v=95
34560 On ch=1 n=50 v=95
34560 On ch=1 n=58 v=95
34943 Off ch=1 n=62 v=0
34943 Off ch=1 n=50 v=0
34943 Off ch=1 n=58 v=0
35039 Par ch=1 c=64 v=0
35040 Par ch=1 c=64 v=64
35040 On ch=1 n=53 v=95
35040 On ch=1 n=57 v=95
35040 On ch=1 n=60 v=95
35423 Off ch=1 n=60 v=0
35423 Off ch=1 n=53 v=0
35423 Off ch=1 n=57 v=0
35520 On ch=1 n=60 v=95
35520 On ch=1 n=53 v=95
35520 On ch=1 n=57 v=95
35903 Off ch=1 n=60 v=0
35903 Off ch=1 n=53 v=0
35903 Off ch=1 n=57 v=0
36000 On ch=1 n=60 v=95
36000 On ch=1 n=53 v=95
36000 On ch=1 n=57 v=95
36383 Off ch=1 n=60 v=0
36383 Off ch=1 n=53 v=0
36383 Off ch=1 n=57 v=0
36480 On ch=1 n=60 v=95
36480 On ch=1 n=53 v=95
36480 On ch=1 n=57 v=95
36863 Off ch=1 n=60 v=0
36863 Off ch=1 n=53 v=0
36863 Off ch=1 n=57 v=0
36959 Par ch=1 c=64 v=0
36960 Par ch=1 c=64 v=64
36960 On ch=1 n=53 v=95
36960 On ch=1 n=57 v=95
36960 On ch=1 n=60 v=95
37343 Off ch=1 n=60 v=0
37343 Off ch=1 n=53 v=0
37343 Off ch=1 n=57 v=0
37440 On ch=1 n=60 v=95
37440 On ch=1 n=53 v=95
37440 On ch=1 n=57 v=95
37823 Off ch=1 n=60 v=0
37823 Off ch=1 n=53 v=0
37823 Off ch=1 n=57 v=0
37920 On ch=1 n=60 v=95
37920 On ch=1 n=52 v=95
37920 On ch=1 n=55 v=95
38303 Off ch=1 n=60 v=0
38303 Off ch=1 n=52 v=0
38303 Off ch=1 n=55 v=0
38400 On ch=1 n=60 v=95
38400 On ch=1 n=52 v=95
38400 On ch=1 n=55 v=95
38783 Off ch=1 n=60 v=0
38783 Off ch=1 n=52 v=0
38783 Off ch=1 n=55 v=0
38879 Par ch=1 c=64 v=0
38880 Par ch=1 c=64 v=64
38880 On ch=1 n=50 v=95
38880 On ch=1 n=57 v=95
38880 On ch=1 n=62 v=95
39263 Off ch=1 n=62 v=0
39263 Off ch=1 n=50 v=0
39263 Off ch=1 n=57 v=0
39360 On ch=1 n=62 v=95
39360 On ch=1 n=50 v=95
39360 On ch=1 n=57 v=95
39743 Off ch=1 n=62 v=0
39743 Off ch=1 n=50 v=0
39743 Off ch=1 n=57 v=0
39840 On ch=1 n=62 v=95
39840 On ch=1 n=50 v=95
39840 On ch=1 n=57 v=95
40223 Off ch=1 n=62 v=0
40223 Off ch=1 n=50 v=0
40223 Off ch=1 n=57 v=0
40320 On ch=1 n=62 v=95
40320 On ch=1 n=50 v=95
40320 On ch=1 n=57 v=95
40703 Off ch=1 n=62 v=0
40703 Off ch=1 n=50 v=0
40703 Off ch=1 n=57 v=0
40799 Par ch=1 c=64 v=0
40800 Par ch=1 c=64 v=64
40800 On ch=1 n=50 v=95
40800 On ch=1 n=58 v=95
40800 On ch=1 n=62 v=95
41183 Off ch=1 n=62 v=0
41183 Off ch=1 n=50 v=0
41183 Off ch=1 n=58 v=0
41280 On ch=1 n=62 v=95
41280 On ch=1 n=50 v=95
41280 On ch=1 n=58 v=95
41663 Off ch=1 n=62 v=0
41663 Off ch=1 n=50 v=0
41663 Off ch=1 n=58 v=0
41760 On ch=1 n=62 v=95
41760 On ch=1 n=50 v=95
41760 On ch=1 n=58 v=95
42143 Off ch=1 n=62 v=0
42143 Off ch=1 n=50 v=0
42143 Off ch=1 n=58 v=0
42240 On ch=1 n=62 v=95
42240 On ch=1 n=50 v=95
42240 On ch=1 n=58 v=95
42623 Off ch=1 n=62 v=0
42623 Off ch=1 n=50 v=0
42623 Off ch=1 n=58 v=0
42719 Par ch=1 c=64 v=0
42720 Par ch=1 c=64 v=64
42720 On ch=1 n=53 v=95
42720 On ch=1 n=57 v=95
42720 On ch=1 n=60 v=95
43103 Off ch=1 n=60 v=0
43103 Off ch=1 n=53 v=0
43103 Off ch=1 n=57 v=0
43200 On ch=1 n=60 v=95
43200 On ch=1 n=53 v=95
43200 On ch=1 n=57 v=95
43583 Off ch=1 n=60 v=0
43583 Off ch=1 n=53 v=0
43583 Off ch=1 n=57 v=0
43680 On ch=1 n=60 v=95
43680 On ch=1 n=53 v=95
43680 On ch=1 n=57 v=95
44063 Off ch=1 n=60 v=0
44063 Off ch=1 n=53 v=0
44063 Off ch=1 n=57 v=0
44160 On ch=1 n=60 v=95
44160 On ch=1 n=53 v=95
44160 On ch=1 n=57 v=95
44543 Off ch=1 n=60 v=0
44543 Off ch=1 n=53 v=0
44543 Off ch=1 n=57 v=0
44639 Par ch=1 c=64 v=0
44640 Par ch=1 c=64 v=64
44640 On ch=1 n=53 v=95
44640 On ch=1 n=57 v=95
44640 On ch=1 n=60 v=95
45023 Off ch=1 n=60 v=0
45023 Off ch=1 n=53 v=0
45023 Off ch=1 n=57 v=0
45120 On ch=1 n=60 v=95
45120 On ch=1 n=53 v=95
45120 On ch=1 n=57 v=95
45503 Off ch=1 n=60 v=0
45503 Off ch=1 n=53 v=0
45503 Off ch=1 n=57 v=0
45600 On ch=1 n=60 v=95
45600 On ch=1 n=52 v=95
45600 On ch=1 n=55 v=95
45983 Off ch=1 n=60 v=0
45983 Off ch=1 n=52 v=0
45983 Off ch=1 n=55 v=0
46080 On ch=1 n=60 v=95
46080 On ch=1 n=52 v=95
46080 On ch=1 n=55 v=95
46463 Off ch=1 n=60 v=0
46463 Off ch=1 n=52 v=0
46463 Off ch=1 n=55 v=0
46559 Par ch=1 c=64 v=0
46560 Par ch=1 c=64 v=64
46560 On ch=1 n=50 v=95
46560 On ch=1 n=57 v=95
46560 On ch=1 n=62 v=95
46943 Off ch=1 n=62 v=0
46943 Off ch=1 n=50 v=0
46943 Off ch=1 n=57 v=0
47040 On ch=1 n=62 v=95
47040 On ch=1 n=50 v=95
47040 On ch=1 n=57 v=95
47423 Off ch=1 n=62 v=0
47423 Off ch=1 n=50 v=0
47423 Off ch=1 n=57 v=0
47520 On ch=1 n=62 v=95
47520 On ch=1 n=50 v=95
47520 On ch=1 n=57 v=95
47903 Off ch=1 n=62 v=0
47903 Off ch=1 n=50 v=0
47903 Off ch=1 n=57 v=0
48000 On ch=1 n=62 v=95
48000 On ch=1 n=50 v=95
48000 On ch=1 n=57 v=95
48383 Off ch=1 n=62 v=0
48383 Off ch=1 n=50 v=0
48383 Off ch=1 n=57 v=0
48479 Par ch=1 c=64 v=0
48480 Par ch=1 c=64 v=64
48480 On ch=1 n=50 v=95
48480 On ch=1 n=58 v=95
48480 On ch=1 n=62 v=95
48863 Off ch=1 n=62 v=0
48863 Off ch=1 n=50 v=0
48863 Off ch=1 n=58 v=0
48960 On ch=1 n=62 v=95
48960 On ch=1 n=50 v=95
48960 On ch=1 n=58 v=95
49343 Off ch=1 n=62 v=0
49343 Off ch=1 n=50 v=0
49343 Off ch=1 n=58 v=0
49440 On ch=1 n=62 v=95
49440 On ch=1 n=50 v=95
49440 On ch=1 n=58 v=95
49823 Off ch=1 n=62 v=0
49823 Off ch=1 n=50 v=0
49823 Off ch=1 n=58 v=0
49920 On ch=1 n=62 v=95
49920 On ch=1 n=50 v=95
49920 On ch=1 n=58 v=95
50303 Off ch=1 n=62 v=0
50303 Off ch=1 n=50 v=0
50303 Off ch=1 n=58 v=0
50399 Par ch=1 c=64 v=0
50400 Par ch=1 c=64 v=64
50400 On ch=1 n=53 v=95
50400 On ch=1 n=57 v=95
50400 On ch=1 n=60 v=95
50783 Off ch=1 n=60 v=0
50783 Off ch=1 n=53 v=0
50783 Off ch=1 n=57 v=0
50880 On ch=1 n=60 v=95
50880 On ch=1 n=53 v=95
50880 On ch=1 n=57 v=95
51263 Off ch=1 n=60 v=0
51263 Off ch=1 n=53 v=0
51263 Off ch=1 n=57 v=0
51360 On ch=1 n=60 v=95
51360 On ch=1 n=53 v=95
51360 On ch=1 n=57 v=95
51743 Off ch=1 n=60 v=0
51743 Off ch=1 n=53 v=0
51743 Off ch=1 n=57 v=0
51840 On ch=1 n=60 v=95
51840 On ch=1 n=53 v=95
51840 On ch=1 n=57 v=95
52223 Off ch=1 n=60 v=0
52223 Off ch=1 n=53 v=0
52223 Off ch=1 n=57 v=0
52319 Par ch=1 c=64 v=0
52320 Par ch=1 c=64 v=64
52320 On ch=1 n=53 v=95
52320 On ch=1 n=57 v=95
52320 On ch=1 n=60 v=95
52703 Off ch=1 n=60 v=0
52703 Off ch=1 n=53 v=0
52703 Off ch=1 n=57 v=0
52800 On ch=1 n=60 v=95
52800 On ch=1 n=53 v=95
52800 On ch=1 n=57 v=95
53183 Off ch=1 n=60 v=0
53183 Off ch=1 n=53 v=0
53183 Off ch=1 n=57 v=0
53280 On ch=1 n=60 v=95
53280 On ch=1 n=52 v=95
53280 On ch=1 n=55 v=95
53663 Off ch=1 n=60 v=0
53663 Off ch=1 n=52 v=0
53663 Off ch=1 n=55 v=0
53760 On ch=1 n=60 v=95
53760 On ch=1 n=52 v=95
53760 On ch=1 n=55 v=95
54143 Off ch=1 n=60 v=0
54143 Off ch=1 n=52 v=0
54143 Off ch=1 n=55 v=0
54239 Par ch=1 c=64 v=0
54240 Par ch=1 c=64 v=64
54240 On ch=1 n=50 v=95
54240 On ch=1 n=57 v=95
54240 On ch=1 n=62 v=95
54623 Off ch=1 n=62 v=0
54623 Off ch=1 n=50 v=0
54623 Off ch=1 n=57 v=0
54720 On ch=1 n=62 v=95
54720 On ch=1 n=50 v=95
54720 On ch=1 n=57 v=95
55103 Off ch=1 n=62 v=0
55103 Off ch=1 n=50 v=0
55103 Off ch=1 n=57 v=0
55200 On ch=1 n=62 v=95
55200 On ch=1 n=50 v=95
55200 On ch=1 n=57 v=95
55583 Off ch=1 n=62 v=0
55583 Off ch=1 n=50 v=0
55583 Off ch=1 n=57 v=0
55680 On ch=1 n=62 v=95
55680 On ch=1 n=50 v=95
55680 On ch=1 n=57 v=95
56063 Off ch=1 n=62 v=0
56063 Off ch=1 n=50 v=0
56063 Off ch=1 n=57 v=0
56159 Par ch=1 c=64 v=0
56160 Par ch=1 c=64 v=64
56160 On ch=1 n=50 v=95
56160 On ch=1 n=58 v=95
56160 On ch=1 n=62 v=95
56543 Off ch=1 n=62 v=0
56543 Off ch=1 n=50 v=0
56543 Off ch=1 n=58 v=0
56640 On ch=1 n=62 v=95
56640 On ch=1 n=50 v=95
56640 On ch=1 n=58 v=95
57023 Off ch=1 n=62 v=0
57023 Off ch=1 n=50 v=0
57023 Off ch=1 n=58 v=0
57120 On ch=1 n=62 v=95
57120 On ch=1 n=50 v=95
57120 On ch=1 n=58 v=95
57503 Off ch=1 n=62 v=0
57503 Off ch=1 n=50 v=0
57503 Off ch=1 n=58 v=0
57600 On ch=1 n=62 v=95
57600 On ch=1 n=50 v=95
57600 On ch=1 n=58 v=95
57983 Off ch=1 n=62 v=0
57983 Off ch=1 n=50 v=0
57983 Off ch=1 n=58 v=0
58079 Par ch=1 c=64 v=0
58080 Par ch=1 c=64 v=64
58080 On ch=1 n=53 v=95
58080 On ch=1 n=57 v=95
58080 On ch=1 n=60 v=95
58463 Off ch=1 n=60 v=0
58463 Off ch=1 n=53 v=0
58463 Off ch=1 n=57 v=0
58560 On ch=1 n=60 v=95
58560 On ch=1 n=53 v=95
58560 On ch=1 n=57 v=95
58943 Off ch=1 n=60 v=0
58943 Off ch=1 n=53 v=0
58943 Off ch=1 n=57 v=0
59040 On ch=1 n=60 v=95
59040 On ch=1 n=53 v=95
59040 On ch=1 n=57 v=95
59423 Off ch=1 n=60 v=0
59423 Off ch=1 n=53 v=0
59423 Off ch=1 n=57 v=0
59520 On ch=1 n=60 v=95
59520 On ch=1 n=53 v=95
59520 On ch=1 n=57 v=95
59903 Off ch=1 n=60 v=0
59903 Off ch=1 n=53 v=0
59903 Off ch=1 n=57 v=0
59999 Par ch=1 c=64 v=0
60000 Par ch=1 c=64 v=64
60000 On ch=1 n=53 v=95
60000 On ch=1 n=57 v=95
60000 On ch=1 n=60 v=95
60383 Off ch=1 n=60 v=0
60383 Off ch=1 n=53 v=0
60383 Off ch=1 n=57 v=0
60480 On ch=1 n=60 v=95
60480 On ch=1 n=53 v=95
60480 On ch=1 n=57 v=95
60863 Off ch=1 n=60 v=0
60863 Off ch=1 n=53 v=0
60863 Off ch=1 n=57 v=0
60960 On ch=1 n=60 v=95
60960 On ch=1 n=53 v=95
60960 On ch=1 n=57 v=95
61343 Off ch=1 n=60 v=0
61343 Off ch=1 n=53 v=0
61343 Off ch=1 n=57 v=0
61440 On ch=1 n=60 v=95
61440 On ch=1 n=53 v=95
61440 On ch=1 n=57 v=95
61823 Off ch=1 n=60 v=0
61823 Off ch=1 n=53 v=0
61823 Off ch=1 n=57 v=0
61919 Par ch=1 c=64 v=0
61920 Par ch=1 c=64 v=64
63839 Par ch=1 c=64 v=0
63840 Par ch=1 c=64 v=64
65759 Par ch=1 c=64 v=0
65760 Par ch=1 c=64 v=64
67679 Par ch=1 c=64 v=0
67680 Par ch=1 c=64 v=64
69599 Par ch=1 c=64 v=0
69600 Par ch=1 c=64 v=64
71519 Par ch=1 c=64 v=0
71520 Par ch=1 c=64 v=64
73439 Par ch=1 c=64 v=0
73440 Par ch=1 c=64 v=64
75359 Par ch=1 c=64 v=0
75360 Par ch=1 c=64 v=64
77279 Par ch=1 c=64 v=0
77280 On ch=1 n=65 v=95
77280 On ch=1 n=50 v=95
77280 On ch=1 n=57 v=95
77280 On ch=1 n=62 v=95
77299 Off ch=1 n=62 v=0
77299 Off ch=1 n=57 v=0
78815 Off ch=1 n=65 v=0
78815 Off ch=1 n=50 v=0
79199 Off ch=1 n=0 v=0
79200 Meta Text "end"
79201 Meta TrkEnd
TrkEnd
MTrk
0 PrCh ch=3 p=38
0 Par ch=3 c=7 v=103
0 Par ch=3 c=10 v=63
0 Meta TrkName "\xffffffe6\xffffffa2\xffffff97"
0 Meta Text "start"
479 Par ch=3 c=64 v=0
2399 Par ch=3 c=64 v=0
4319 Par ch=3 c=64 v=0
6239 Par ch=3 c=64 v=0
8159 Par ch=3 c=64 v=0
10079 Par ch=3 c=64 v=0
11999 Par ch=3 c=64 v=0
13919 Par ch=3 c=64 v=0
15839 Par ch=3 c=64 v=0
17759 Par ch=3 c=64 v=0
19679 Par ch=3 c=64 v=0
21599 Par ch=3 c=64 v=0
23519 Par ch=3 c=64 v=0
25439 Par ch=3 c=64 v=0
27359 Par ch=3 c=64 v=0
29279 Par ch=3 c=64 v=0
30480 On ch=3 n=62 v=95
30671 Off ch=3 n=62 v=0
30960 On ch=3 n=62 v=95
31151 Off ch=3 n=62 v=0
31199 Par ch=3 c=64 v=0
31440 On ch=3 n=69 v=95
31631 Off ch=3 n=69 v=0
31800 On ch=3 n=60 v=95
31895 Off ch=3 n=60 v=0
31920 On ch=3 n=62 v=95
32015 Off ch=3 n=62 v=0
32040 On ch=3 n=65 v=95
32231 Off ch=3 n=65 v=0
32280 On ch=3 n=60 v=95
32375 Off ch=3 n=60 v=0
32400 On ch=3 n=62 v=95
32495 Off ch=3 n=62 v=0
33119 Par ch=3 c=64 v=0
33120 On ch=3 n=62 v=95
33215 Off ch=3 n=62 v=0
33240 On ch=3 n=67 v=95
33335 Off ch=3 n=67 v=0
33360 On ch=3 n=62 v=95
33455 Off ch=3 n=62 v=0
33480 On ch=3 n=60 v=95
33671 Off ch=3 n=60 v=0
33720 On ch=3 n=60 v=95
33815 Off ch=3 n=60 v=0
33840 On ch=3 n=62 v=95
33935 Off ch=3 n=62 v=0
33960 On ch=3 n=65 v=95
34151 Off ch=3 n=65 v=0
34200 On ch=3 n=60 v=95
34295 Off ch=3 n=60 v=0
34320 On ch=3 n=62 v=95
34415 Off ch=3 n=62 v=0
34800 On ch=3 n=62 v=95
34895 Off ch=3 n=62 v=0
35039 Par ch=3 c=64 v=0
35040 On ch=3 n=69 v=95
35135 Off ch=3 n=69 v=0
35160 On ch=3 n=65 v=95
35255 Off ch=3 n=65 v=0
35280 On ch=3 n=67 v=95
35375 Off ch=3 n=67 v=0
35520 On ch=3 n=69 v=95
35615 Off ch=3 n=69 v=0
35760 On ch=3 n=72 v=95
35855 Off ch=3 n=72 v=0
36000 On ch=3 n=67 v=95
36095 Off ch=3 n=67 v=0
36120 On ch=3 n=69 v=95
36311 Off ch=3 n=69 v=0
36360 On ch=3 n=65 v=95
36551 Off ch=3 n=65 v=0
36600 On ch=3 n=67 v=95
36695 Off ch=3 n=67 v=0
36720 On ch=3 n=62 v=95
36815 Off ch=3 n=62 v=0
36840 On ch=3 n=60 v=95
36935 Off ch=3 n=60 v=0
36959 Par ch=3 c=64 v=0
36960 On ch=3 n=62 v=95
37055 Off ch=3 n=62 v=0
37080 On ch=3 n=69 v=95
37175 Off ch=3 n=69 v=0
37440 On ch=3 n=60 v=95
37535 Off ch=3 n=60 v=0
37560 On ch=3 n=62 v=95
37655 Off ch=3 n=62 v=0
37680 On ch=3 n=65 v=95
37871 Off ch=3 n=65 v=0
37920 On ch=3 n=60 v=95
38015 Off ch=3 n=60 v=0
38040 On ch=3 n=62 v=95
38135 Off ch=3 n=62 v=0
38400 On ch=3 n=60 v=95
38495 Off ch=3 n=60 v=0
38640 On ch=3 n=62 v=95
38831 Off ch=3 n=62 v=0
38879 Par ch=3 c=64 v=0
39120 On ch=3 n=69 v=95
39311 Off ch=3 n=69 v=0
39480 On ch=3 n=60 v=95
39575 Off ch=3 n=60 v=0
39600 On ch=3 n=62 v=95
39695 Off ch=3 n=62 v=0
39720 On ch=3 n=65 v=95
39911 Off ch=3 n=65 v=0
39960 On ch=3 n=60 v=95
40055 Off ch=3 n=60 v=0
40080 On ch=3 n=62 v=95
40175 Off ch=3 n=62 v=0
40799 Par ch=3 c=64 v=0
40800 On ch=3 n=62 v=95
40895 Off ch=3 n=62 v=0
40920 On ch=3 n=67 v=95
41015 Off ch=3 n=67 v=0
41040 On ch=3 n=62 v=95
41135 Off ch=3 n=62 v=0
41160 On ch=3 n=60 v=95
41351 Off ch=3 n=60 v=0
41400 On ch=3 n=60 v=95
41495 Off ch=3 n=60 v=0
41520 On ch=3 n=62 v=95
41615 Off ch=3 n=62 v=0
41640 On ch=3 n=65 v=95
41831 Off ch=3 n=65 v=0
41880 On ch=3 n=60 v=95
41975 Off ch=3 n=60 v=0
42000 On ch=3 n=62 v=95
42095 Off ch=3 n=62 v=0
42480 On ch=3 n=62 v=95
42575 Off ch=3 n=62 v=0
42719 Par ch=3 c=64 v=0
42720 On ch=3 n=69 v=95
42815 Off ch=3 n=69 v=0
42840 On ch=3 n=65 v=95
42935 Off ch=3 n=65 v=0
42960 On ch=3 n=67 v=95
43055 Off ch=3 n=67 v=0
43200 On ch=3 n=69 v=95
43295 Off ch=3 n=69 v=0
43440 On ch=3 n=72 v=95
43535 Off ch=3 n=72 v=0
43680 On ch=3 n=67 v=95
43775 Off ch=3 n=67 v=0
43800 On ch=3 n=69 v=95
43991 Off ch=3 n=69 v=0
44040 On ch=3 n=65 v=95
44231 Off ch=3 n=65 v=0
44280 On ch=3 n=67 v=95
44375 Off ch=3 n=67 v=0
44400 On ch=3 n=62 v=95
44495 Off ch=3 n=62 v=0
44520 On ch=3 n=60 v=95
44615 Off ch=3 n=60 v=0
44639 Par ch=3 c=64 v=0
44640 On ch=3 n=62 v=95
44735 Off ch=3 n=62 v=0
44760 On ch=3 n=69 v=95
44855 Off ch=3 n=69 v=0
45120 On ch=3 n=60 v=95
45215 Off ch=3 n=60 v=0
45240 On ch=3 n=62 v=95
45335 Off ch=3 n=62 v=0
45360 On ch=3 n=65 v=95
45551 Off ch=3 n=65 v=0
45600 On ch=3 n=60 v=95
45695 Off ch=3 n=60 v=0
45720 On ch=3 n=62 v=95
45815 Off ch=3 n=62 v=0
46080 On ch=3 n=60 v=95
46175 Off ch=3 n=60 v=0
46320 On ch=3 n=62 v=95
46511 Off ch=3 n=62 v=0
46559 Par ch=3 c=64 v=0
46800 On ch=3 n=69 v=95
46991 Off ch=3 n=69 v=0
47160 On ch=3 n=60 v=95
47255 Off ch=3 n=60 v=0
47280 On ch=3 n=62 v=95
47375 Off ch=3 n=62 v=0
47400 On ch=3 n=65 v=95
47591 Off ch=3 n=65 v=0
47640 On ch=3 n=60 v=95
47735 Off ch=3 n=60 v=0
47760 On ch=3 n=62 v=95
47855 Off ch=3 n=62 v=0
48479 Par ch=3 c=64 v=0
48480 On ch=3 n=62 v=95
48575 Off ch=3 n=62 v=0
48600 On ch=3 n=67 v=95
48695 Off ch=3 n=67 v=0
48720 On ch=3 n=62 v=95
48815 Off ch=3 n=62 v=0
48840 On ch=3 n=60 v=95
49031 Off ch=3 n=60 v=0
49080 On ch=3 n=60 v=95
49175 Off ch=3 n=60 v=0
49200 On ch=3 n=62 v=95
49295 Off ch=3 n=62 v=0
49320 On ch=3 n=65 v=95
49511 Off ch=3 n=65 v=0
49560 On ch=3 n=60 v=95
49655 Off ch=3 n=60 v=0
49680 On ch=3 n=62 v=95
49775 Off ch=3 n=62 v=0
50160 On ch=3 n=62 v=95
50255 Off ch=3 n=62 v=0
50399 Par ch=3 c=64 v=0
50400 On ch=3 n=69 v=95
50495 Off ch=3 n=69 v=0
50520 On ch=3 n=65 v=95
50615 Off ch=3 n=65 v=0
50640 On ch=3 n=67 v=95
50735 Off ch=3 n=67 v=0
50880 On ch=3 n=69 v=95
50975 Off ch=3 n=69 v=0
51120 On ch=3 n=72 v=95
51215 Off ch=3 n=72 v=0
51360 On ch=3 n=67 v=95
51455 Off ch=3 n=67 v=0
51480 On ch=3 n=69 v=95
51671 Off ch=3 n=69 v=0
51720 On ch=3 n=65 v=95
51911 Off ch=3 n=65 v=0
51960 On ch=3 n=67 v=95
52055 Off ch=3 n=67 v=0
52080 On ch=3 n=62 v=95
52175 Off ch=3 n=62 v=0
52200 On ch=3 n=60 v=95
52295 Off ch=3 n=60 v=0
52319 Par ch=3 c=64 v=0
52320 On ch=3 n=62 v=95
52415 Off ch=3 n=62 v=0
52440 On ch=3 n=69 v=95
52535 Off ch=3 n=69 v=0
52800 On ch=3 n=60 v=95
52895 Off ch=3 n=60 v=0
52920 On ch=3 n=62 v=95
53015 Off ch=3 n=62 v=0
53040 On ch=3 n=65 v=95
53231 Off ch=3 n=65 v=0
53280 On ch=3 n=60 v=95
53375 Off ch=3 n=60 v=0
53400 On ch=3 n=62 v=95
53495 Off ch=3 n=62 v=0
53760 On ch=3 n=60 v=95
53855 Off ch=3 n=60 v=0
54000 On ch=3 n=62 v=95
54191 Off ch=3 n=62 v=0
54239 Par ch=3 c=64 v=0
54480 On ch=3 n=69 v=95
54671 Off ch=3 n=69 v=0
54840 On ch=3 n=60 v=95
54935 Off ch=3 n=60 v=0
54960 On ch=3 n=62 v=95
55055 Off ch=3 n=62 v=0
55080 On ch=3 n=65 v=95
55271 Off ch=3 n=65 v=0
55320 On ch=3 n=60 v=95
55415 Off ch=3 n=60 v=0
55440 On ch=3 n=62 v=95
55535 Off ch=3 n=62 v=0
56159 Par ch=3 c=64 v=0
56160 On ch=3 n=62 v=95
56255 Off ch=3 n=62 v=0
56280 On ch=3 n=67 v=95
56375 Off ch=3 n=67 v=0
56400 On ch=3 n=62 v=95
56495 Off ch=3 n=62 v=0
56520 On ch=3 n=60 v=95
56711 Off ch=3 n=60 v=0
56760 On ch=3 n=60 v=95
56855 Off ch=3 n=60 v=0
56880 On ch=3 n=62 v=95
56975 Off ch=3 n=62 v=0
57000 On ch=3 n=65 v=95
57191 Off ch=3 n=65 v=0
57240 On ch=3 n=60 v=95
57335 Off ch=3 n=60 v=0
57360 On ch=3 n=62 v=95
57455 Off ch=3 n=62 v=0
57840 On ch=3 n=62 v=95
57935 Off ch=3 n=62 v=0
58079 Par ch=3 c=64 v=0
58080 On ch=3 n=69 v=95
58175 Off ch=3 n=69 v=0
58200 On ch=3 n=65 v=95
58295 Off ch=3 n=65 v=0
58320 On ch=3 n=67 v=95
58415 Off ch=3 n=67 v=0
58560 On ch=3 n=69 v=95
58655 Off ch=3 n=69 v=0
58800 On ch=3 n=72 v=95
58895 Off ch=3 n=72 v=0
59040 On ch=3 n=67 v=95
59135 Off ch=3 n=67 v=0
59160 On ch=3 n=69 v=95
59351 Off ch=3 n=69 v=0
59400 On ch=3 n=65 v=95
59591 Off ch=3 n=65 v=0
59640 On ch=3 n=67 v=95
59735 Off ch=3 n=67 v=0
59760 On ch=3 n=62 v=95
59855 Off ch=3 n=62 v=0
59880 On ch=3 n=60 v=95
59975 Off ch=3 n=60 v=0
59999 Par ch=3 c=64 v=0
60000 On ch=3 n=62 v=95
60191 Off ch=3 n=62 v=0
60240 On ch=3 n=69 v=95
60431 Off ch=3 n=69 v=0
60480 On ch=3 n=62 v=95
60671 Off ch=3 n=62 v=0
60720 On ch=3 n=69 v=95
60911 Off ch=3 n=69 v=0
60960 On ch=3 n=62 v=95
61151 Off ch=3 n=62 v=0
61200 On ch=3 n=69 v=95
61391 Off ch=3 n=69 v=0
61440 On ch=3 n=62 v=95
61631 Off ch=3 n=62 v=0
61680 On ch=3 n=69 v=95
61871 Off ch=3 n=69 v=0
61919 Par ch=3 c=64 v=0
63839 Par ch=3 c=64 v=0
65759 Par ch=3 c=64 v=0
67679 Par ch=3 c=64 v=0
69599 Par ch=3 c=64 v=0
71519 Par ch=3 c=64 v=0
73439 Par ch=3 c=64 v=0
75359 Par ch=3 c=64 v=0
77279 Par ch=3 c=64 v=0
77280 On ch=3 n=62 v=95
78815 Off ch=3 n=62 v=0
79199 Par ch=3 c=64 v=0
79199 Off ch=3 n=12 v=0
79200 Meta Text "end"
79201 Meta TrkEnd
TrkEnd
MTrk
0 PrCh ch=9 p=30
0 Par ch=9 c=7 v=103
0 Par ch=9 c=10 v=63
0 Meta TrkName "\xffffffe7\xffffffbb\xffffff8f"
0 Meta Text "start"
479 Par ch=9 c=64 v=0
2399 Par ch=9 c=64 v=0
4319 Par ch=9 c=64 v=0
6239 Par ch=9 c=64 v=0
8159 Par ch=9 c=64 v=0
10079 Par ch=9 c=64 v=0
11999 Par ch=9 c=64 v=0
13919 Par ch=9 c=64 v=0
15839 Par ch=9 c=64 v=0
17759 Par ch=9 c=64 v=0
19679 Par ch=9 c=64 v=0
21599 Par ch=9 c=64 v=0
23519 Par ch=9 c=64 v=0
25439 Par ch=9 c=64 v=0
27359 Par ch=9 c=64 v=0
29279 Par ch=9 c=64 v=0
31199 Par ch=9 c=64 v=0
33119 Par ch=9 c=64 v=0
35039 Par ch=9 c=64 v=0
36959 Par ch=9 c=64 v=0
38879 Par ch=9 c=64 v=0
40799 Par ch=9 c=64 v=0
42719 Par ch=9 c=64 v=0
44639 Par ch=9 c=64 v=0
46559 Par ch=9 c=64 v=0
48479 Par ch=9 c=64 v=0
50399 Par ch=9 c=64 v=0
52319 Par ch=9 c=64 v=0
54239 Par ch=9 c=64 v=0
56159 Par ch=9 c=64 v=0
58079 Par ch=9 c=64 v=0
59999 Par ch=9 c=64 v=0
61919 Par ch=9 c=64 v=0
61920 On ch=9 n=65 v=95
62495 Off ch=9 n=65 v=0
62640 On ch=9 n=64 v=95
63215 Off ch=9 n=64 v=0
63360 On ch=9 n=64 v=95
63551 Off ch=9 n=64 v=0
63600 On ch=9 n=65 v=95
63791 Off ch=9 n=65 v=0
63839 Par ch=9 c=64 v=0
63840 On ch=9 n=65 v=95
64415 Off ch=9 n=65 v=0
64560 On ch=9 n=64 v=95
65135 Off ch=9 n=64 v=0
65280 On ch=9 n=64 v=95
65471 Off ch=9 n=64 v=0
65520 On ch=9 n=65 v=95
65711 Off ch=9 n=65 v=0
65759 Par ch=9 c=64 v=0
65760 On ch=9 n=65 v=95
66335 Off ch=9 n=65 v=0
66480 On ch=9 n=64 v=95
67055 Off ch=9 n=64 v=0
67200 On ch=9 n=64 v=95
67391 Off ch=9 n=64 v=0
67440 On ch=9 n=65 v=95
67631 Off ch=9 n=65 v=0
67679 Par ch=9 c=64 v=0
67680 On ch=9 n=65 v=95
68255 Off ch=9 n=65 v=0
68400 On ch=9 n=64 v=95
68975 Off ch=9 n=64 v=0
69120 On ch=9 n=64 v=95
69311 Off ch=9 n=64 v=0
69360 On ch=9 n=65 v=95
69551 Off ch=9 n=65 v=0
69599 Par ch=9 c=64 v=0
69600 On ch=9 n=65 v=95
70175 Off ch=9 n=65 v=0
70320 On ch=9 n=64 v=95
70895 Off ch=9 n=64 v=0
71040 On ch=9 n=64 v=95
71231 Off ch=9 n=64 v=0
71280 On ch=9 n=65 v=95
71471 Off ch=9 n=65 v=0
71519 Par ch=9 c=64 v=0
71520 On ch=9 n=65 v=95
72095 Off ch=9 n=65 v=0
72240 On ch=9 n=64 v=95
72815 Off ch=9 n=64 v=0
72960 On ch=9 n=64 v=95
73151 Off ch=9 n=64 v=0
73200 On ch=9 n=65 v=95
73391 Off ch=9 n=65 v=0
73439 Par ch=9 c=64 v=0
73440 On ch=9 n=65 v=95
74015 Off ch=9 n=65 v=0
74160 On ch=9 n=64 v=95
74735 Off ch=9 n=64 v=0
74880 On ch=9 n=64 v=95
75071 Off ch=9 n=64 v=0
75120 On ch=9 n=65 v=95
75311 Off ch=9 n=65 v=0
75359 Par ch=9 c=64 v=0
75360 On ch=9 n=65 v=95
75935 Off ch=9 n=65 v=0
76080 On ch=9 n=64 v=95
76655 Off ch=9 n=64 v=0
76800 On ch=9 n=64 v=95
76991 Off ch=9 n=64 v=0
77040 On ch=9 n=65 v=95
77231 Off ch=9 n=65 v=0
77279 Par ch=9 c=64 v=0
77280 On ch=9 n=62 v=95
78815 Off ch=9 n=62 v=0
79199 Par ch=9 c=64 v=0
79199 Off ch=9 n=0 v=0
79200 Meta Text "end"
79201 Meta TrkEnd
TrkEnd
MTrk
0 PrCh ch=5 p=80
0 Par ch=5 c=7 v=103
0 Par ch=5 c=10 v=63
0 Meta TrkName "\xffffffe5\xffffff95\xffffff8a"
0 Meta Text "start"
479 Par ch=5 c=64 v=0
2399 Par ch=5 c=64 v=0
4319 Par ch=5 c=64 v=0
6239 Par ch=5 c=64 v=0
8159 Par ch=5 c=64 v=0
10079 Par ch=5 c=64 v=0
11999 Par ch=5 c=64 v=0
13919 Par ch=5 c=64 v=0
15839 Par ch=5 c=64 v=0
15840 On ch=5 n=65 v=95
15935 Off ch=5 n=65 v=0
15960 On ch=5 n=67 v=95
16151 Off ch=5 n=67 v=0
16200 On ch=5 n=69 v=95
16295 Off ch=5 n=69 v=0
16320 On ch=5 n=67 v=95
16511 Off ch=5 n=67 v=0
16560 On ch=5 n=67 v=95
16751 Off ch=5 n=67 v=0
16800 On ch=5 n=67 v=95
16895 Off ch=5 n=67 v=0
16920 On ch=5 n=69 v=95
17111 Off ch=5 n=69 v=0
17160 On ch=5 n=70 v=95
17255 Off ch=5 n=70 v=0
17280 On ch=5 n=69 v=95
17471 Off ch=5 n=69 v=0
17520 On ch=5 n=65 v=95
17711 Off ch=5 n=65 v=0
17759 Par ch=5 c=64 v=0
17760 On ch=5 n=70 v=95
17855 Off ch=5 n=70 v=0
17880 On ch=5 n=69 v=95
18071 Off ch=5 n=69 v=0
18120 On ch=5 n=67 v=95
18311 Off ch=5 n=67 v=0
18360 On ch=5 n=65 v=95
18551 Off ch=5 n=65 v=0
18600 On ch=5 n=69 v=95
18887 Off ch=5 n=69 v=0
18960 On ch=5 n=65 v=95
19343 Off ch=5 n=65 v=0
19440 On ch=5 n=65 v=95
19631 Off ch=5 n=65 v=0
19679 Par ch=5 c=64 v=0
19680 On ch=5 n=65 v=95
19967 Off ch=5 n=65 v=0
20040 On ch=5 n=65 v=95
20543 Off ch=5 n=65 v=0
20640 On ch=5 n=65 v=95
20927 Off ch=5 n=65 v=0
21000 On ch=5 n=65 v=95
21503 Off ch=5 n=65 v=0
21599 Par ch=5 c=64 v=0
21600 On ch=5 n=70 v=95
21695 Off ch=5 n=70 v=0
21720 On ch=5 n=69 v=95
21911 Off ch=5 n=69 v=0
21960 On ch=5 n=67 v=95
22151 Off ch=5 n=67 v=0
22200 On ch=5 n=65 v=95
22391 Off ch=5 n=65 v=0
22440 On ch=5 n=69 v=95
22727 Off ch=5 n=69 v=0
22800 On ch=5 n=65 v=95
22991 Off ch=5 n=65 v=0
23040 On ch=5 n=67 v=95
23231 Off ch=5 n=67 v=0
23280 On ch=5 n=65 v=95
23471 Off ch=5 n=65 v=0
23519 Par ch=5 c=64 v=0
23520 On ch=5 n=65 v=95
23807 Off ch=5 n=65 v=0
23880 On ch=5 n=65 v=95
24383 Off ch=5 n=65 v=0
24480 On ch=5 n=65 v=95
24767 Off ch=5 n=65 v=0
24840 On ch=5 n=65 v=95
25343 Off ch=5 n=65 v=0
25439 Par ch=5 c=64 v=0
25440 On ch=5 n=70 v=95
25535 Off ch=5 n=70 v=0
25560 On ch=5 n=69 v=95
25751 Off ch=5 n=69 v=0
25800 On ch=5 n=67 v=95
25991 Off ch=5 n=67 v=0
26040 On ch=5 n=65 v=95
26231 Off ch=5 n=65 v=0
26280 On ch=5 n=69 v=95
26567 Off ch=5 n=69 v=0
26640 On ch=5 n=65 v=95
26831 Off ch=5 n=65 v=0
26880 On ch=5 n=67 v=95
27071 Off ch=5 n=67 v=0
27120 On ch=5 n=65 v=95
27311 Off ch=5 n=65 v=0
27359 Par ch=5 c=64 v=0
27360 On ch=5 n=65 v=95
27647 Off ch=5 n=65 v=0
27720 On ch=5 n=65 v=95
28223 Off ch=5 n=65 v=0
28320 On ch=5 n=65 v=95
28607 Off ch=5 n=65 v=0
28680 On ch=5 n=65 v=95
29183 Off ch=5 n=65 v=0
29279 Par ch=5 c=64 v=0
29280 On ch=5 n=65 v=95
29567 Off ch=5 n=65 v=0
29640 On ch=5 n=65 v=95
30143 Off ch=5 n=65 v=0
30240 On ch=5 n=65 v=95
30527 Off ch=5 n=65 v=0
30600 On ch=5 n=65 v=95
31103 Off ch=5 n=65 v=0
31199 Par ch=5 c=64 v=0
33119 Par ch=5 c=64 v=0
35039 Par ch=5 c=64 v=0
36959 Par ch=5 c=64 v=0
38879 Par ch=5 c=64 v=0
40799 Par ch=5 c=64 v=0
42719 Par ch=5 c=64 v=0
44639 Par ch=5 c=64 v=0
46559 Par ch=5 c=64 v=0
48479 Par ch=5 c=64 v=0
50399 Par ch=5 c=64 v=0
52319 Par ch=5 c=64 v=0
54239 Par ch=5 c=64 v=0
56159 Par ch=5 c=64 v=0
58079 Par ch=5 c=64 v=0
59999 Par ch=5 c=64 v=0
61919 Par ch=5 c=64 v=0
63839 Par ch=5 c=64 v=0
65759 Par ch=5 c=64 v=0
67679 Par ch=5 c=64 v=0
69599 Par ch=5 c=64 v=0
71519 Par ch=5 c=64 v=0
73439 Par ch=5 c=64 v=0
75359 Par ch=5 c=64 v=0
77279 Par ch=5 c=64 v=0
79199 Par ch=5 c=64 v=0
79199 Off ch=5 n=12 v=0
79200 Meta Text "end"
79201 Meta TrkEnd
TrkEnd
MTrk
0 PrCh ch=7 p=33
0 Par ch=7 c=7 v=127
0 Par ch=7 c=10 v=63
0 Meta TrkName "bass"
0 Meta Text "start"
479 Par ch=7 c=64 v=0
2399 Par ch=7 c=64 v=0
4319 Par ch=7 c=64 v=0
6239 Par ch=7 c=64 v=0
8159 Par ch=7 c=64 v=0
10079 Par ch=7 c=64 v=0
11999 Par ch=7 c=64 v=0
13919 Par ch=7 c=64 v=0
15839 Par ch=7 c=64 v=0
17759 Par ch=7 c=64 v=0
19679 Par ch=7 c=64 v=0
21599 Par ch=7 c=64 v=0
23519 Par ch=7 c=64 v=0
25439 Par ch=7 c=64 v=0
27359 Par ch=7 c=64 v=0
29279 Par ch=7 c=64 v=0
31199 Par ch=7 c=64 v=0
33119 Par ch=7 c=64 v=0
35039 Par ch=7 c=64 v=0
36959 Par ch=7 c=64 v=0
38879 Par ch=7 c=64 v=0
40799 Par ch=7 c=64 v=0
42719 Par ch=7 c=64 v=0
44639 Par ch=7 c=64 v=0
46559 Par ch=7 c=64 v=0
48479 Par ch=7 c=64 v=0
50399 Par ch=7 c=64 v=0
52319 Par ch=7 c=64 v=0
54239 Par ch=7 c=64 v=0
56159 Par ch=7 c=64 v=0
58079 Par ch=7 c=64 v=0
59999 Par ch=7 c=64 v=0
61919 Par ch=7 c=64 v=0
61920 On ch=7 n=38 v=95
62111 Off ch=7 n=38 v=0
62160 On ch=7 n=38 v=95
62351 Off ch=7 n=38 v=0
62400 On ch=7 n=38 v=95
62495 Off ch=7 n=38 v=0
62520 On ch=7 n=38 v=95
62615 Off ch=7 n=38 v=0
62640 On ch=7 n=38 v=95
62831 Off ch=7 n=38 v=0
62880 On ch=7 n=38 v=95
63071 Off ch=7 n=38 v=0
63120 On ch=7 n=38 v=95
63311 Off ch=7 n=38 v=0
63360 On ch=7 n=38 v=95
63455 Off ch=7 n=38 v=0
63480 On ch=7 n=38 v=95
63575 Off ch=7 n=38 v=0
63600 On ch=7 n=38 v=95
63791 Off ch=7 n=38 v=0
63839 Par ch=7 c=64 v=0
63840 On ch=7 n=46 v=95
64031 Off ch=7 n=46 v=0
64080 On ch=7 n=46 v=95
64271 Off ch=7 n=46 v=0
64320 On ch=7 n=46 v=95
64415 Off ch=7 n=46 v=0
64440 On ch=7 n=46 v=95
64535 Off ch=7 n=46 v=0
64560 On ch=7 n=46 v=95
64751 Off ch=7 n=46 v=0
64800 On ch=7 n=46 v=95
64991 Off ch=7 n=46 v=0
65040 On ch=7 n=46 v=95
65231 Off ch=7 n=46 v=0
65280 On ch=7 n=46 v=95
65375 Off ch=7 n=46 v=0
65400 On ch=7 n=46 v=95
65495 Off ch=7 n=46 v=0
65520 On ch=7 n=46 v=95
65711 Off ch=7 n=46 v=0
65759 Par ch=7 c=64 v=0
65760 On ch=7 n=41 v=95
65951 Off ch=7 n=41 v=0
66000 On ch=7 n=41 v=95
66191 Off ch=7 n=41 v=0
66240 On ch=7 n=41 v=95
66335 Off ch=7 n=41 v=0
66360 On ch=7 n=41 v=95
66455 Off ch=7 n=41 v=0
66480 On ch=7 n=41 v=95
66671 Off ch=7 n=41 v=0
66720 On ch=7 n=41 v=95
66911 Off ch=7 n=41 v=0
66960 On ch=7 n=41 v=95
67151 Off ch=7 n=41 v=0
67200 On ch=7 n=41 v=95
67295 Off ch=7 n=41 v=0
67320 On ch=7 n=41 v=95
67415 Off ch=7 n=41 v=0
67440 On ch=7 n=41 v=95
67631 Off ch=7 n=41 v=0
67679 Par ch=7 c=64 v=0
67680 On ch=7 n=41 v=95
67871 Off ch=7 n=41 v=0
67920 On ch=7 n=41 v=95
68111 Off ch=7 n=41 v=0
68160 On ch=7 n=41 v=95
68255 Off ch=7 n=41 v=0
68280 On ch=7 n=41 v=95
68375 Off ch=7 n=41 v=0
68400 On ch=7 n=41 v=95
68591 Off ch=7 n=41 v=0
68640 On ch=7 n=36 v=95
68831 Off ch=7 n=36 v=0
68880 On ch=7 n=36 v=95
69071 Off ch=7 n=36 v=0
69120 On ch=7 n=36 v=95
69215 Off ch=7 n=36 v=0
69240 On ch=7 n=36 v=95
69335 Off ch=7 n=36 v=0
69360 On ch=7 n=36 v=95
69551 Off ch=7 n=36 v=0
69599 Par ch=7 c=64 v=0
69600 On ch=7 n=38 v=95
69791 Off ch=7 n=38 v=0
69840 On ch=7 n=38 v=95
70031 Off ch=7 n=38 v=0
70080 On ch=7 n=38 v=95
70175 Off ch=7 n=38 v=0
70200 On ch=7 n=38 v=95
70295 Off ch=7 n=38 v=0
70320 On ch=7 n=38 v=95
70511 Off ch=7 n=38 v=0
70560 On ch=7 n=38 v=95
70751 Off ch=7 n=38 v=0
70800 On ch=7 n=38 v=95
70991 Off ch=7 n=38 v=0
71040 On ch=7 n=38 v=95
71135 Off ch=7 n=38 v=0
71160 On ch=7 n=38 v=95
71255 Off ch=7 n=38 v=0
71280 On ch=7 n=38 v=95
71471 Off ch=7 n=38 v=0
71519 Par ch=7 c=64 v=0
71520 On ch=7 n=46 v=95
71711 Off ch=7 n=46 v=0
71760 On ch=7 n=46 v=95
71951 Off ch=7 n=46 v=0
72000 On ch=7 n=46 v=95
72095 Off ch=7 n=46 v=0
72120 On ch=7 n=46 v=95
72215 Off ch=7 n=46 v=0
72240 On ch=7 n=46 v=95
72431 Off ch=7 n=46 v=0
72480 On ch=7 n=46 v=95
72671 Off ch=7 n=46 v=0
72720 On ch=7 n=46 v=95
72911 Off ch=7 n=46 v=0
72960 On ch=7 n=46 v=95
73055 Off ch=7 n=46 v=0
73080 On ch=7 n=46 v=95
73175 Off ch=7 n=46 v=0
73200 On ch=7 n=46 v=95
73391 Off ch=7 n=46 v=0
73439 Par ch=7 c=64 v=0
73440 On ch=7 n=41 v=95
73631 Off ch=7 n=41 v=0
73680 On ch=7 n=41 v=95
73871 Off ch=7 n=41 v=0
73920 On ch=7 n=41 v=95
74015 Off ch=7 n=41 v=0
74040 On ch=7 n=41 v=95
74135 Off ch=7 n=41 v=0
74160 On ch=7 n=41 v=95
74351 Off ch=7 n=41 v=0
74400 On ch=7 n=41 v=95
74591 Off ch=7 n=41 v=0
74640 On ch=7 n=41 v=95
74831 Off ch=7 n=41 v=0
74880 On ch=7 n=41 v=95
74975 Off ch=7 n=41 v=0
75000 On ch=7 n=41 v=95
75095 Off ch=7 n=41 v=0
75120 On ch=7 n=41 v=95
75311 Off ch=7 n=41 v=0
75359 Par ch=7 c=64 v=0
75360 On ch=7 n=41 v=95
75551 Off ch=7 n=41 v=0
75600 On ch=7 n=41 v=95
75791 Off ch=7 n=41 v=0
75840 On ch=7 n=41 v=95
75935 Off ch=7 n=41 v=0
75960 On ch=7 n=41 v=95
76055 Off ch=7 n=41 v=0
76080 On ch=7 n=41 v=95
76271 Off ch=7 n=41 v=0
76320 On ch=7 n=36 v=95
76511 Off ch=7 n=36 v=0
76560 On ch=7 n=36 v=95
76751 Off ch=7 n=36 v=0
76800 On ch=7 n=36 v=95
76895 Off ch=7 n=36 v=0
76920 On ch=7 n=36 v=95
77015 Off ch=7 n=36 v=0
77040 On ch=7 n=36 v=95
77231 Off ch=7 n=36 v=0
77279 Par ch=7 c=64 v=0
77280 On ch=7 n=45 v=95
77280 On ch=7 n=38 v=95
78815 Off ch=7 n=45 v=0
78815 Off ch=7 n=38 v=0
79199 Par ch=7 c=64 v=0
79199 Off ch=7 n=0 v=0
79200 Meta Text "end"
79201 Meta TrkEnd
TrkEnd
MTrk
0 PrCh ch=10 p=0
0 Par ch=10 c=7 v=103
0 Par ch=10 c=10 v=63
0 Meta TrkName "\xffffffe6\xffffff95\xffffffb2\xffffffe5\xffffff87\xffffffbb\xffffffe4\xffffffb9\xffffff90\xffffffe5\xffffff99\xffffffa8"
0 Meta Text "instrument_plugin_packagename:com.perfectpiano.drum.analogkit"
0 Meta Text "instrument_type:767"
0 Meta Text "start"
480 On ch=10 n=44 v=95
480 On ch=10 n=48 v=95
575 Off ch=10 n=44 v=0
575 Off ch=10 n=48 v=0
600 On ch=10 n=44 v=95
695 Off ch=10 n=44 v=0
720 On ch=10 n=44 v=95
815 Off ch=10 n=44 v=0
840 On ch=10 n=44 v=95
935 Off ch=10 n=44 v=0
960 On ch=10 n=44 v=95
960 On ch=10 n=38 v=95
1055 Off ch=10 n=44 v=0
1055 Off ch=10 n=38 v=0
1080 On ch=10 n=44 v=95
1175 Off ch=10 n=44 v=0
1200 On ch=10 n=44 v=95
1200 On ch=10 n=48 v=95
1295 Off ch=10 n=44 v=0
1295 Off ch=10 n=48 v=0
1320 On ch=10 n=44 v=95
1415 Off ch=10 n=44 v=0
1440 On ch=10 n=44 v=95
1535 Off ch=10 n=44 v=0
1560 On ch=10 n=44 v=95
1655 Off ch=10 n=44 v=0
1680 On ch=10 n=44 v=95
1775 Off ch=10 n=44 v=0
1800 On ch=10 n=44 v=95
1895 Off ch=10 n=44 v=0
1920 On ch=10 n=44 v=95
1920 On ch=10 n=38 v=95
2015 Off ch=10 n=44 v=0
2015 Off ch=10 n=38 v=0
2040 On ch=10 n=44 v=95
2135 Off ch=10 n=44 v=0
2160 On ch=10 n=44 v=95
2255 Off ch=10 n=44 v=0
2280 On ch=10 n=44 v=95
2375 Off ch=10 n=44 v=0
2400 On ch=10 n=44 v=95
2400 On ch=10 n=48 v=95
2495 Off ch=10 n=44 v=0
2495 Off ch=10 n=48 v=0
2520 On ch=10 n=44 v=95
2615 Off ch=10 n=44 v=0
2640 On ch=10 n=44 v=95
2735 Off ch=10 n=44 v=0
2760 On ch=10 n=44 v=95
2855 Off ch=10 n=44 v=0
2880 On ch=10 n=44 v=95
2880 On ch=10 n=38 v=95
2975 Off ch=10 n=44 v=0
2975 Off ch=10 n=38 v=0
3000 On ch=10 n=44 v=95
3095 Off ch=10 n=44 v=0
3120 On ch=10 n=44 v=95
3120 On ch=10 n=48 v=95
3215 Off ch=10 n=44 v=0
3215 Off ch=10 n=48 v=0
3240 On ch=10 n=44 v=95
3335 Off ch=10 n=44 v=0
3360 On ch=10 n=44 v=95
3455 Off ch=10 n=44 v=0
3480 On ch=10 n=44 v=95
3575 Off ch=10 n=44 v=0
3600 On ch=10 n=44 v=95
3695 Off ch=10 n=44 v=0
3720 On ch=10 n=44 v=95
3815 Off ch=10 n=44 v=0
3840 On ch=10 n=44 v=95
3840 On ch=10 n=38 v=95
3935 Off ch=10 n=44 v=0
3935 Off ch=10 n=38 v=0
3960 On ch=10 n=44 v=95
4055 Off ch=10 n=44 v=0
4080 On ch=10 n=44 v=95
4175 Off ch=10 n=44 v=0
4200 On ch=10 n=44 v=95
4295 Off ch=10 n=44 v=0
4320 On ch=10 n=44 v=95
4320 On ch=10 n=48 v=95
4415 Off ch=10 n=44 v=0
4415 Off ch=10 n=48 v=0
4440 On ch=10 n=44 v=95
4535 Off ch=10 n=44 v=0
4560 On ch=10 n=44 v=95
4655 Off ch=10 n=44 v=0
4680 On ch=10 n=44 v=95
4775 Off ch=10 n=44 v=0
4800 On ch=10 n=44 v=95
4800 On ch=10 n=38 v=95
4895 Off ch=10 n=44 v=0
4895 Off ch=10 n=38 v=0
4920 On ch=10 n=44 v=95
5015 Off ch=10 n=44 v=0
5040 On ch=10 n=44 v=95
5040 On ch=10 n=48 v=95
5135 Off ch=10 n=44 v=0
5135 Off ch=10 n=48 v=0
5160 On ch=10 n=44 v=95
5255 Off ch=10 n=44 v=0
5280 On ch=10 n=44 v=95
5375 Off ch=10 n=44 v=0
5400 On ch=10 n=44 v=95
5495 Off ch=10 n=44 v=0
5520 On ch=10 n=44 v=95
5615 Off ch=10 n=44 v=0
5640 On ch=10 n=44 v=95
5735 Off ch=10 n=44 v=0
5760 On ch=10 n=44 v=95
5760 On ch=10 n=38 v=95
5855 Off ch=10 n=44 v=0
5855 Off ch=10 n=38 v=0
5880 On ch=10 n=44 v=95
5975 Off ch=10 n=44 v=0
6000 On ch=10 n=44 v=95
6095 Off ch=10 n=44 v=0
6120 On ch=10 n=44 v=95
6215 Off ch=10 n=44 v=0
6240 On ch=10 n=44 v=95
6240 On ch=10 n=48 v=95
6335 Off ch=10 n=44 v=0
6335 Off ch=10 n=48 v=0
6360 On ch=10 n=44 v=95
6455 Off ch=10 n=44 v=0
6480 On ch=10 n=44 v=95
6575 Off ch=10 n=44 v=0
6600 On ch=10 n=44 v=95
6695 Off ch=10 n=44 v=0
6720 On ch=10 n=44 v=95
6720 On ch=10 n=38 v=95
6815 Off ch=10 n=44 v=0
6815 Off ch=10 n=38 v=0
6840 On ch=10 n=44 v=95
6935 Off ch=10 n=44 v=0
6960 On ch=10 n=44 v=95
6960 On ch=10 n=48 v=95
7055 Off ch=10 n=44 v=0
7055 Off ch=10 n=48 v=0
7080 On ch=10 n=44 v=95
7175 Off ch=10 n=44 v=0
7200 On ch=10 n=44 v=95
7295 Off ch=10 n=44 v=0
7320 On ch=10 n=44 v=95
7415 Off ch=10 n=44 v=0
7440 On ch=10 n=44 v=95
7535 Off ch=10 n=44 v=0
7560 On ch=10 n=44 v=95
7655 Off ch=10 n=44 v=0
7680 On ch=10 n=44 v=95
7680 On ch=10 n=38 v=95
7775 Off ch=10 n=44 v=0
7775 Off ch=10 n=38 v=0
7800 On ch=10 n=44 v=95
7895 Off ch=10 n=44 v=0
7920 On ch=10 n=44 v=95
8015 Off ch=10 n=44 v=0
8040 On ch=10 n=44 v=95
8135 Off ch=10 n=44 v=0
8160 On ch=10 n=44 v=95
8160 On ch=10 n=48 v=95
8255 Off ch=10 n=44 v=0
8255 Off ch=10 n=48 v=0
8280 On ch=10 n=44 v=95
8375 Off ch=10 n=44 v=0
8400 On ch=10 n=44 v=95
8495 Off ch=10 n=44 v=0
8520 On ch=10 n=44 v=95
8615 Off ch=10 n=44 v=0
8640 On ch=10 n=44 v=95
8640 On ch=10 n=38 v=95
8735 Off ch=10 n=44 v=0
8735 Off ch=10 n=38 v=0
8760 On ch=10 n=44 v=95
8855 Off ch=10 n=44 v=0
8880 On ch=10 n=44 v=95
8880 On ch=10 n=48 v=95
8975 Off ch=10 n=44 v=0
8975 Off ch=10 n=48 v=0
9000 On ch=10 n=44 v=95
9095 Off ch=10 n=44 v=0
9120 On ch=10 n=44 v=95
9215 Off ch=10 n=44 v=0
9240 On ch=10 n=44 v=95
9335 Off ch=10 n=44 v=0
9360 On ch=10 n=44 v=95
9455 Off ch=10 n=44 v=0
9480 On ch=10 n=44 v=95
9575 Off ch=10 n=44 v=0
9600 On ch=10 n=44 v=95
9600 On ch=10 n=38 v=95
9695 Off ch=10 n=44 v=0
9695 Off ch=10 n=38 v=0
9720 On ch=10 n=44 v=95
9815 Off ch=10 n=44 v=0
9840 On ch=10 n=44 v=95
9935 Off ch=10 n=44 v=0
9960 On ch=10 n=44 v=95
10055 Off ch=10 n=44 v=0
10080 On ch=10 n=44 v=95
10080 On ch=10 n=48 v=95
10175 Off ch=10 n=44 v=0
10175 Off ch=10 n=48 v=0
10200 On ch=10 n=44 v=95
10295 Off ch=10 n=44 v=0
10320 On ch=10 n=44 v=95
10415 Off ch=10 n=44 v=0
10440 On ch=10 n=44 v=95
10535 Off ch=10 n=44 v=0
10560 On ch=10 n=44 v=95
10560 On ch=10 n=38 v=95
10655 Off ch=10 n=44 v=0
10655 Off ch=10 n=38 v=0
10680 On ch=10 n=44 v=95
10775 Off ch=10 n=44 v=0
10800 On ch=10 n=44 v=95
10800 On ch=10 n=48 v=95
10895 Off ch=10 n=44 v=0
10895 Off ch=10 n=48 v=0
10920 On ch=10 n=44 v=95
11015 Off ch=10 n=44 v=0
11040 On ch=10 n=44 v=95
11135 Off ch=10 n=44 v=0
11160 On ch=10 n=44 v=95
11255 Off ch=10 n=44 v=0
11280 On ch=10 n=44 v=95
11375 Off ch=10 n=44 v=0
11400 On ch=10 n=44 v=95
11495 Off ch=10 n=44 v=0
11520 On ch=10 n=44 v=95
11520 On ch=10 n=38 v=95
11615 Off ch=10 n=44 v=0
11615 Off ch=10 n=38 v=0
11640 On ch=10 n=44 v=95
11735 Off ch=10 n=44 v=0
11760 On ch=10 n=44 v=95
11855 Off ch=10 n=44 v=0
11880 On ch=10 n=44 v=95
11975 Off ch=10 n=44 v=0
12000 On ch=10 n=44 v=95
12000 On ch=10 n=48 v=95
12095 Off ch=10 n=44 v=0
12095 Off ch=10 n=48 v=0
12120 On ch=10 n=44 v=95
12215 Off ch=10 n=44 v=0
12240 On ch=10 n=44 v=95
12335 Off ch=10 n=44 v=0
12360 On ch=10 n=44 v=95
12455 Off ch=10 n=44 v=0
12480 On ch=10 n=44 v=95
12480 On ch=10 n=38 v=95
12575 Off ch=10 n=44 v=0
12575 Off ch=10 n=38 v=0
12600 On ch=10 n=44 v=95
12695 Off ch=10 n=44 v=0
12720 On ch=10 n=44 v=95
12720 On ch=10 n=48 v=95
12815 Off ch=10 n=44 v=0
12815 Off ch=10 n=48 v=0
12840 On ch=10 n=44 v=95
12935 Off ch=10 n=44 v=0
12960 On ch=10 n=44 v=95
13055 Off ch=10 n=44 v=0
13080 On ch=10 n=44 v=95
13175 Off ch=10 n=44 v=0
13200 On ch=10 n=44 v=95
13295 Off ch=10 n=44 v=0
13320 On ch=10 n=44 v=95
13415 Off ch=10 n=44 v=0
13440 On ch=10 n=44 v=95
13440 On ch=10 n=38 v=95
13535 Off ch=10 n=44 v=0
13535 Off ch=10 n=38 v=0
13560 On ch=10 n=44 v=95
13655 Off ch=10 n=44 v=0
13680 On ch=10 n=44 v=95
13775 Off ch=10 n=44 v=0
13800 On ch=10 n=44 v=95
13895 Off ch=10 n=44 v=0
13920 On ch=10 n=44 v=95
13920 On ch=10 n=48 v=95
14015 Off ch=10 n=44 v=0
14015 Off ch=10 n=48 v=0
14040 On ch=10 n=44 v=95
14135 Off ch=10 n=44 v=0
14160 On ch=10 n=44 v=95
14255 Off ch=10 n=44 v=0
14280 On ch=10 n=44 v=95
14375 Off ch=10 n=44 v=0
14400 On ch=10 n=44 v=95
14400 On ch=10 n=38 v=95
14495 Off ch=10 n=44 v=0
14495 Off ch=10 n=38 v=0
14520 On ch=10 n=44 v=95
14615 Off ch=10 n=44 v=0
14640 On ch=10 n=44 v=95
14640 On ch=10 n=48 v=95
14735 Off ch=10 n=44 v=0
14735 Off ch=10 n=48 v=0
14760 On ch=10 n=44 v=95
14855 Off ch=10 n=44 v=0
14880 On ch=10 n=44 v=95
14975 Off ch=10 n=44 v=0
15000 On ch=10 n=44 v=95
15095 Off ch=10 n=44 v=0
15120 On ch=10 n=44 v=95
15215 Off ch=10 n=44 v=0
15240 On ch=10 n=44 v=95
15335 Off ch=10 n=44 v=0
15360 On ch=10 n=44 v=95
15360 On ch=10 n=38 v=95
15455 Off ch=10 n=44 v=0
15455 Off ch=10 n=38 v=0
15480 On ch=10 n=44 v=95
15575 Off ch=10 n=44 v=0
15600 On ch=10 n=44 v=95
15600 On ch=10 n=35 v=95
15695 Off ch=10 n=44 v=0
15695 Off ch=10 n=35 v=0
15720 On ch=10 n=44 v=95
15720 On ch=10 n=35 v=95
15815 Off ch=10 n=44 v=0
15815 Off ch=10 n=35 v=0
15840 On ch=10 n=44 v=95
15840 On ch=10 n=35 v=95
15935 Off ch=10 n=44 v=0
15935 Off ch=10 n=35 v=0
15960 On ch=10 n=44 v=95
16055 Off ch=10 n=44 v=0
16080 On ch=10 n=44 v=95
16175 Off ch=10 n=44 v=0
16200 On ch=10 n=44 v=95
16295 Off ch=10 n=44 v=0
16320 On ch=10 n=44 v=95
16320 On ch=10 n=38 v=95
16415 Off ch=10 n=44 v=0
16415 Off ch=10 n=38 v=0
16440 On ch=10 n=44 v=95
16535 Off ch=10 n=44 v=0
16560 On ch=10 n=44 v=95
16655 Off ch=10 n=44 v=0
16680 On ch=10 n=44 v=95
16680 On ch=10 n=35 v=95
16775 Off ch=10 n=44 v=0
16775 Off ch=10 n=35 v=0
16800 On ch=10 n=44 v=95
16800 On ch=10 n=35 v=95
16895 Off ch=10 n=44 v=0
16895 Off ch=10 n=35 v=0
16920 On ch=10 n=44 v=95
17015 Off ch=10 n=44 v=0
17040 On ch=10 n=44 v=95
17135 Off ch=10 n=44 v=0
17160 On ch=10 n=44 v=95
17255 Off ch=10 n=44 v=0
17280 On ch=10 n=44 v=95
17280 On ch=10 n=38 v=95
17375 Off ch=10 n=44 v=0
17375 Off ch=10 n=38 v=0
17400 On ch=10 n=44 v=95
17495 Off ch=10 n=44 v=0
17520 On ch=10 n=44 v=95
17615 Off ch=10 n=44 v=0
17640 On ch=10 n=44 v=95
17735 Off ch=10 n=44 v=0
17760 On ch=10 n=44 v=95
17760 On ch=10 n=35 v=95
17855 Off ch=10 n=44 v=0
17855 Off ch=10 n=35 v=0
17880 On ch=10 n=44 v=95
17975 Off ch=10 n=44 v=0
18000 On ch=10 n=44 v=95
18095 Off ch=10 n=44 v=0
18120 On ch=10 n=44 v=95
18215 Off ch=10 n=44 v=0
18240 On ch=10 n=44 v=95
18240 On ch=10 n=38 v=95
18335 Off ch=10 n=44 v=0
18335 Off ch=10 n=38 v=0
18360 On ch=10 n=44 v=95
18455 Off ch=10 n=44 v=0
18480 On ch=10 n=44 v=95
18575 Off ch=10 n=44 v=0
18600 On ch=10 n=44 v=95
18600 On ch=10 n=56 v=95
18695 Off ch=10 n=44 v=0
18695 Off ch=10 n=56 v=0
18720 On ch=10 n=44 v=95
18720 On ch=10 n=56 v=95
18815 Off ch=10 n=44 v=0
18815 Off ch=10 n=56 v=0
18840 On ch=10 n=44 v=95
18935 Off ch=10 n=44 v=0
18960 On ch=10 n=44 v=95
19055 Off ch=10 n=44 v=0
19080 On ch=10 n=44 v=95
19175 Off ch=10 n=44 v=0
19200 On ch=10 n=44 v=95
19200 On ch=10 n=38 v=95
19295 Off ch=10 n=44 v=0
19295 Off ch=10 n=38 v=0
19320 On ch=10 n=44 v=95
19415 Off ch=10 n=44 v=0
19440 On ch=10 n=44 v=95
19535 Off ch=10 n=44 v=0
19560 On ch=10 n=44 v=95
19655 Off ch=10 n=44 v=0
19680 On ch=10 n=44 v=95
19680 On ch=10 n=35 v=95
19775 Off ch=10 n=44 v=0
19775 Off ch=10 n=35 v=0
19800 On ch=10 n=44 v=95
19895 Off ch=10 n=44 v=0
19920 On ch=10 n=44 v=95
20015 Off ch=10 n=44 v=0
20040 On ch=10 n=44 v=95
20135 Off ch=10 n=44 v=0
20160 On ch=10 n=44 v=95
20160 On ch=10 n=38 v=95
20255 Off ch=10 n=44 v=0
20255 Off ch=10 n=38 v=0
20280 On ch=10 n=44 v=95
20375 Off ch=10 n=44 v=0
20400 On ch=10 n=44 v=95
20495 Off ch=10 n=44 v=0
20520 On ch=10 n=44 v=95
20520 On ch=10 n=56 v=95
20615 Off ch=10 n=44 v=0
20615 Off ch=10 n=56 v=0
20640 On ch=10 n=44 v=95
20640 On ch=10 n=56 v=95
20735 Off ch=10 n=44 v=0
20735 Off ch=10 n=56 v=0
20760 On ch=10 n=44 v=95
20855 Off ch=10 n=44 v=0
20880 On ch=10 n=44 v=95
20975 Off ch=10 n=44 v=0
21000 On ch=10 n=44 v=95
21095 Off ch=10 n=44 v=0
21120 On ch=10 n=44 v=95
21120 On ch=10 n=38 v=95
21215 Off ch=10 n=44 v=0
21215 Off ch=10 n=38 v=0
21240 On ch=10 n=44 v=95
21335 Off ch=10 n=44 v=0
21360 On ch=10 n=44 v=95
21455 Off ch=10 n=44 v=0
21480 On ch=10 n=44 v=95
21575 Off ch=10 n=44 v=0
21600 On ch=10 n=44 v=95
21600 On ch=10 n=35 v=95
21695 Off ch=10 n=44 v=0
21695 Off ch=10 n=35 v=0
21720 On ch=10 n=44 v=95
21815 Off ch=10 n=44 v=0
21840 On ch=10 n=44 v=95
21935 Off ch=10 n=44 v=0
21960 On ch=10 n=44 v=95
22055 Off ch=10 n=44 v=0
22080 On ch=10 n=44 v=95
22080 On ch=10 n=38 v=95
22175 Off ch=10 n=44 v=0
22175 Off ch=10 n=38 v=0
22200 On ch=10 n=44 v=95
22295 Off ch=10 n=44 v=0
22320 On ch=10 n=44 v=95
22415 Off ch=10 n=44 v=0
22440 On ch=10 n=44 v=95
22440 On ch=10 n=56 v=95
22535 Off ch=10 n=44 v=0
22535 Off ch=10 n=56 v=0
22560 On ch=10 n=44 v=95
22560 On ch=10 n=56 v=95
22655 Off ch=10 n=44 v=0
22655 Off ch=10 n=56 v=0
22680 On ch=10 n=44 v=95
22775 Off ch=10 n=44 v=0
22800 On ch=10 n=44 v=95
22895 Off ch=10 n=44 v=0
22920 On ch=10 n=44 v=95
23015 Off ch=10 n=44 v=0
23040 On ch=10 n=44 v=95
23040 On ch=10 n=38 v=95
23135 Off ch=10 n=44 v=0
23135 Off ch=10 n=38 v=0
23160 On ch=10 n=44 v=95
23255 Off ch=10 n=44 v=0
23280 On ch=10 n=44 v=95
23375 Off ch=10 n=44 v=0
23400 On ch=10 n=44 v=95
23495 Off ch=10 n=44 v=0
23520 On ch=10 n=44 v=95
23520 On ch=10 n=35 v=95
23615 Off ch=10 n=44 v=0
23615 Off ch=10 n=35 v=0
23640 On ch=10 n=44 v=95
23735 Off ch=10 n=44 v=0
23760 On ch=10 n=44 v=95
23855 Off ch=10 n=44 v=0
23880 On ch=10 n=44 v=95
23975 Off ch=10 n=44 v=0
24000 On ch=10 n=44 v=95
24000 On ch=10 n=38 v=95
24095 Off ch=10 n=44 v=0
24095 Off ch=10 n=38 v=0
24120 On ch=10 n=44 v=95
24215 Off ch=10 n=44 v=0
24240 On ch=10 n=44 v=95
24335 Off ch=10 n=44 v=0
24360 On ch=10 n=44 v=95
24360 On ch=10 n=56 v=95
24455 Off ch=10 n=44 v=0
24455 Off ch=10 n=56 v=0
24480 On ch=10 n=44 v=95
24480 On ch=10 n=56 v=95
24575 Off ch=10 n=44 v=0
24575 Off ch=10 n=56 v=0
24600 On ch=10 n=44 v=95
24695 Off ch=10 n=44 v=0
24720 On ch=10 n=44 v=95
24815 Off ch=10 n=44 v=0
24840 On ch=10 n=44 v=95
24935 Off ch=10 n=44 v=0
24960 On ch=10 n=44 v=95
24960 On ch=10 n=38 v=95
25055 Off ch=10 n=44 v=0
25055 Off ch=10 n=38 v=0
25080 On ch=10 n=44 v=95
25175 Off ch=10 n=44 v=0
25200 On ch=10 n=44 v=95
25295 Off ch=10 n=44 v=0
25320 On ch=10 n=44 v=95
25415 Off ch=10 n=44 v=0
25440 On ch=10 n=44 v=95
25440 On ch=10 n=35 v=95
25535 Off ch=10 n=44 v=0
25535 Off ch=10 n=35 v=0
25560 On ch=10 n=44 v=95
25655 Off ch=10 n=44 v=0
25680 On ch=10 n=44 v=95
25775 Off ch=10 n=44 v=0
25800 On ch=10 n=44 v=95
25895 Off ch=10 n=44 v=0
25920 On ch=10 n=44 v=95
25920 On ch=10 n=38 v=95
26015 Off ch=10 n=44 v=0
26015 Off ch=10 n=38 v=0
26040 On ch=10 n=44 v=95
26135 Off ch=10 n=44 v=0
26160 On ch=10 n=44 v=95
26255 Off ch=10 n=44 v=0
26280 On ch=10 n=44 v=95
26280 On ch=10 n=56 v=95
26375 Off ch=10 n=44 v=0
26375 Off ch=10 n=56 v=0
26400 On ch=10 n=44 v=95
26400 On ch=10 n=56 v=95
26495 Off ch=10 n=44 v=0
26495 Off ch=10 n=56 v=0
26520 On ch=10 n=44 v=95
26615 Off ch=10 n=44 v=0
26640 On ch=10 n=44 v=95
26735 Off ch=10 n=44 v=0
26760 On ch=10 n=44 v=95
26855 Off ch=10 n=44 v=0
26880 On ch=10 n=44 v=95
26880 On ch=10 n=38 v=95
26975 Off ch=10 n=44 v=0
26975 Off ch=10 n=38 v=0
27000 On ch=10 n=44 v=95
27095 Off ch=10 n=44 v=0
27120 On ch=10 n=44 v=95
27215 Off ch=10 n=44 v=0
27240 On ch=10 n=44 v=95
27335 Off ch=10 n=44 v=0
27360 On ch=10 n=44 v=95
27360 On ch=10 n=35 v=95
27455 Off ch=10 n=44 v=0
27455 Off ch=10 n=35 v=0
27480 On ch=10 n=44 v=95
27575 Off ch=10 n=44 v=0
27600 On ch=10 n=44 v=95
27695 Off ch=10 n=44 v=0
27720 On ch=10 n=44 v=95
27815 Off ch=10 n=44 v=0
27840 On ch=10 n=44 v=95
27840 On ch=10 n=38 v=95
27935 Off ch=10 n=44 v=0
27935 Off ch=10 n=38 v=0
27960 On ch=10 n=44 v=95
28055 Off ch=10 n=44 v=0
28080 On ch=10 n=44 v=95
28175 Off ch=10 n=44 v=0
28200 On ch=10 n=44 v=95
28200 On ch=10 n=56 v=95
28295 Off ch=10 n=44 v=0
28295 Off ch=10 n=56 v=0
28320 On ch=10 n=44 v=95
28320 On ch=10 n=56 v=95
28415 Off ch=10 n=44 v=0
28415 Off ch=10 n=56 v=0
28440 On ch=10 n=44 v=95
28535 Off ch=10 n=44 v=0
28560 On ch=10 n=44 v=95
28655 Off ch=10 n=44 v=0
28680 On ch=10 n=44 v=95
28775 Off ch=10 n=44 v=0
28800 On ch=10 n=44 v=95
28800 On ch=10 n=38 v=95
28895 Off ch=10 n=44 v=0
28895 Off ch=10 n=38 v=0
28920 On ch=10 n=44 v=95
29015 Off ch=10 n=44 v=0
29040 On ch=10 n=44 v=95
29040 On ch=10 n=56 v=95
29135 Off ch=10 n=44 v=0
29135 Off ch=10 n=56 v=0
29160 On ch=10 n=44 v=95
29160 On ch=10 n=56 v=95
29255 Off ch=10 n=44 v=0
29255 Off ch=10 n=56 v=0
29280 On ch=10 n=42 v=95
29663 Off ch=10 n=42 v=0
29760 On ch=10 n=42 v=95
30143 Off ch=10 n=42 v=0
30240 On ch=10 n=42 v=95
30623 Off ch=10 n=42 v=0
30720 On ch=10 n=42 v=95
31103 Off ch=10 n=42 v=0
31200 On ch=10 n=35 v=95
31583 Off ch=10 n=35 v=0
31680 On ch=10 n=38 v=95
32063 Off ch=10 n=38 v=0
32160 On ch=10 n=35 v=95
32543 Off ch=10 n=35 v=0
32640 On ch=10 n=38 v=95
33023 Off ch=10 n=38 v=0
33120 On ch=10 n=35 v=95
33503 Off ch=10 n=35 v=0
33600 On ch=10 n=38 v=95
33983 Off ch=10 n=38 v=0
34080 On ch=10 n=35 v=95
34463 Off ch=10 n=35 v=0
34560 On ch=10 n=38 v=95
34943 Off ch=10 n=38 v=0
35040 On ch=10 n=35 v=95
35423 Off ch=10 n=35 v=0
35520 On ch=10 n=38 v=95
35903 Off ch=10 n=38 v=0
36000 On ch=10 n=35 v=95
36383 Off ch=10 n=35 v=0
36480 On ch=10 n=38 v=95
36863 Off ch=10 n=38 v=0
36960 On ch=10 n=35 v=95
37343 Off ch=10 n=35 v=0
37440 On ch=10 n=38 v=95
37823 Off ch=10 n=38 v=0
37920 On ch=10 n=35 v=95
38303 Off ch=10 n=35 v=0
38400 On ch=10 n=38 v=95
38783 Off ch=10 n=38 v=0
38880 On ch=10 n=35 v=95
39263 Off ch=10 n=35 v=0
39360 On ch=10 n=38 v=95
39743 Off ch=10 n=38 v=0
39840 On ch=10 n=35 v=95
40223 Off ch=10 n=35 v=0
40320 On ch=10 n=38 v=95
40703 Off ch=10 n=38 v=0
40800 On ch=10 n=35 v=95
41183 Off ch=10 n=35 v=0
41280 On ch=10 n=38 v=95
41663 Off ch=10 n=38 v=0
41760 On ch=10 n=35 v=95
42143 Off ch=10 n=35 v=0
42240 On ch=10 n=38 v=95
42623 Off ch=10 n=38 v=0
42720 On ch=10 n=35 v=95
43103 Off ch=10 n=35 v=0
43200 On ch=10 n=38 v=95
43583 Off ch=10 n=38 v=0
43680 On ch=10 n=35 v=95
44063 Off ch=10 n=35 v=0
44160 On ch=10 n=38 v=95
44543 Off ch=10 n=38 v=0
44640 On ch=10 n=35 v=95
45023 Off ch=10 n=35 v=0
45120 On ch=10 n=38 v=95
45503 Off ch=10 n=38 v=0
45600 On ch=10 n=35 v=95
45983 Off ch=10 n=35 v=0
46080 On ch=10 n=38 v=95
46463 Off ch=10 n=38 v=0
46560 On ch=10 n=35 v=95
46560 On ch=10 n=44 v=95
46655 Off ch=10 n=35 v=0
46655 Off ch=10 n=44 v=0
46680 On ch=10 n=44 v=95
46775 Off ch=10 n=44 v=0
46800 On ch=10 n=44 v=95
46895 Off ch=10 n=44 v=0
46920 On ch=10 n=44 v=95
47015 Off ch=10 n=44 v=0
47040 On ch=10 n=38 v=95
47040 On ch=10 n=44 v=95
47135 Off ch=10 n=38 v=0
47135 Off ch=10 n=44 v=0
47160 On ch=10 n=44 v=95
47255 Off ch=10 n=44 v=0
47280 On ch=10 n=44 v=95
47375 Off ch=10 n=44 v=0
47400 On ch=10 n=44 v=95
47495 Off ch=10 n=44 v=0
47520 On ch=10 n=35 v=95
47520 On ch=10 n=44 v=95
47615 Off ch=10 n=35 v=0
47615 Off ch=10 n=44 v=0
47640 On ch=10 n=44 v=95
47735 Off ch=10 n=44 v=0
47760 On ch=10 n=44 v=95
47855 Off ch=10 n=44 v=0
47880 On ch=10 n=44 v=95
47975 Off ch=10 n=44 v=0
48000 On ch=10 n=38 v=95
48000 On ch=10 n=44 v=95
48095 Off ch=10 n=38 v=0
48095 Off ch=10 n=44 v=0
48120 On ch=10 n=44 v=95
48215 Off ch=10 n=44 v=0
48240 On ch=10 n=44 v=95
48335 Off ch=10 n=44 v=0
48360 On ch=10 n=44 v=95
48455 Off ch=10 n=44 v=0
48480 On ch=10 n=35 v=95
48480 On ch=10 n=44 v=95
48575 Off ch=10 n=35 v=0
48575 Off ch=10 n=44 v=0
48600 On ch=10 n=44 v=95
48695 Off ch=10 n=44 v=0
48720 On ch=10 n=44 v=95
48815 Off ch=10 n=44 v=0
48840 On ch=10 n=44 v=95
48935 Off ch=10 n=44 v=0
48960 On ch=10 n=38 v=95
48960 On ch=10 n=44 v=95
49055 Off ch=10 n=38 v=0
49055 Off ch=10 n=44 v=0
49080 On ch=10 n=44 v=95
49175 Off ch=10 n=44 v=0
49200 On ch=10 n=44 v=95
49295 Off ch=10 n=44 v=0
49320 On ch=10 n=44 v=95
49415 Off ch=10 n=44 v=0
49440 On ch=10 n=35 v=95
49440 On ch=10 n=44 v=95
49535 Off ch=10 n=35 v=0
49535 Off ch=10 n=44 v=0
49560 On ch=10 n=44 v=95
49655 Off ch=10 n=44 v=0
49680 On ch=10 n=44 v=95
49775 Off ch=10 n=44 v=0
49800 On ch=10 n=44 v=95
49895 Off ch=10 n=44 v=0
49920 On ch=10 n=38 v=95
49920 On ch=10 n=44 v=95
50015 Off ch=10 n=38 v=0
50015 Off ch=10 n=44 v=0
50040 On ch=10 n=44 v=95
50135 Off ch=10 n=44 v=0
50160 On ch=10 n=44 v=95
50255 Off ch=10 n=44 v=0
50280 On ch=10 n=44 v=95
50375 Off ch=10 n=44 v=0
50400 On ch=10 n=35 v=95
50400 On ch=10 n=44 v=95
50495 Off ch=10 n=35 v=0
50495 Off ch=10 n=44 v=0
50520 On ch=10 n=44 v=95
50615 Off ch=10 n=44 v=0
50640 On ch=10 n=44 v=95
50735 Off ch=10 n=44 v=0
50760 On ch=10 n=44 v=95
50855 Off ch=10 n=44 v=0
50880 On ch=10 n=38 v=95
50880 On ch=10 n=44 v=95
50975 Off ch=10 n=38 v=0
50975 Off ch=10 n=44 v=0
51000 On ch=10 n=44 v=95
51095 Off ch=10 n=44 v=0
51120 On ch=10 n=44 v=95
51215 Off ch=10 n=44 v=0
51240 On ch=10 n=44 v=95
51335 Off ch=10 n=44 v=0
51360 On ch=10 n=35 v=95
51360 On ch=10 n=44 v=95
51455 Off ch=10 n=35 v=0
51455 Off ch=10 n=44 v=0
51480 On ch=10 n=44 v=95
51575 Off ch=10 n=44 v=0
51600 On ch=10 n=44 v=95
51695 Off ch=10 n=44 v=0
51720 On ch=10 n=44 v=95
51815 Off ch=10 n=44 v=0
51840 On ch=10 n=38 v=95
51840 On ch=10 n=44 v=95
51935 Off ch=10 n=38 v=0
51935 Off ch=10 n=44 v=0
51960 On ch=10 n=44 v=95
52055 Off ch=10 n=44 v=0
52080 On ch=10 n=44 v=95
52175 Off ch=10 n=44 v=0
52200 On ch=10 n=44 v=95
52295 Off ch=10 n=44 v=0
52320 On ch=10 n=35 v=95
52320 On ch=10 n=44 v=95
52415 Off ch=10 n=35 v=0
52415 Off ch=10 n=44 v=0
52440 On ch=10 n=44 v=95
52535 Off ch=10 n=44 v=0
52560 On ch=10 n=44 v=95
52655 Off ch=10 n=44 v=0
52680 On ch=10 n=44 v=95
52775 Off ch=10 n=44 v=0
52800 On ch=10 n=38 v=95
52800 On ch=10 n=44 v=95
52895 Off ch=10 n=38 v=0
52895 Off ch=10 n=44 v=0
52920 On ch=10 n=44 v=95
53015 Off ch=10 n=44 v=0
53040 On ch=10 n=44 v=95
53135 Off ch=10 n=44 v=0
53160 On ch=10 n=44 v=95
53255 Off ch=10 n=44 v=0
53280 On ch=10 n=35 v=95
53280 On ch=10 n=44 v=95
53375 Off ch=10 n=35 v=0
53375 Off ch=10 n=44 v=0
53400 On ch=10 n=44 v=95
53495 Off ch=10 n=44 v=0
53520 On ch=10 n=44 v=95
53615 Off ch=10 n=44 v=0
53640 On ch=10 n=44 v=95
53735 Off ch=10 n=44 v=0
53760 On ch=10 n=38 v=95
53760 On ch=10 n=44 v=95
53855 Off ch=10 n=38 v=0
53855 Off ch=10 n=44 v=0
53880 On ch=10 n=44 v=95
53975 Off ch=10 n=44 v=0
54000 On ch=10 n=44 v=95
54095 Off ch=10 n=44 v=0
54120 On ch=10 n=44 v=95
54215 Off ch=10 n=44 v=0
54240 On ch=10 n=35 v=95
54240 On ch=10 n=44 v=95
54335 Off ch=10 n=35 v=0
54335 Off ch=10 n=44 v=0
54360 On ch=10 n=44 v=95
54455 Off ch=10 n=44 v=0
54480 On ch=10 n=44 v=95
54575 Off ch=10 n=44 v=0
54600 On ch=10 n=44 v=95
54695 Off ch=10 n=44 v=0
54720 On ch=10 n=38 v=95
54720 On ch=10 n=44 v=95
54815 Off ch=10 n=38 v=0
54815 Off ch=10 n=44 v=0
54840 On ch=10 n=44 v=95
54935 Off ch=10 n=44 v=0
54960 On ch=10 n=44 v=95
55055 Off ch=10 n=44 v=0
55080 On ch=10 n=44 v=95
55175 Off ch=10 n=44 v=0
55200 On ch=10 n=35 v=95
55200 On ch=10 n=44 v=95
55295 Off ch=10 n=35 v=0
55295 Off ch=10 n=44 v=0
55320 On ch=10 n=44 v=95
55415 Off ch=10 n=44 v=0
55440 On ch=10 n=44 v=95
55535 Off ch=10 n=44 v=0
55560 On ch=10 n=44 v=95
55655 Off ch=10 n=44 v=0
55680 On ch=10 n=38 v=95
55680 On ch=10 n=44 v=95
55775 Off ch=10 n=38 v=0
55775 Off ch=10 n=44 v=0
55800 On ch=10 n=44 v=95
55895 Off ch=10 n=44 v=0
55920 On ch=10 n=44 v=95
56015 Off ch=10 n=44 v=0
56040 On ch=10 n=44 v=95
56135 Off ch=10 n=44 v=0
56160 On ch=10 n=35 v=95
56160 On ch=10 n=44 v=95
56255 Off ch=10 n=35 v=0
56255 Off ch=10 n=44 v=0
56280 On ch=10 n=44 v=95
56375 Off ch=10 n=44 v=0
56400 On ch=10 n=44 v=95
56495 Off ch=10 n=44 v=0
56520 On ch=10 n=44 v=95
56615 Off ch=10 n=44 v=0
56640 On ch=10 n=38 v=95
56640 On ch=10 n=44 v=95
56735 Off ch=10 n=38 v=0
56735 Off ch=10 n=44 v=0
56760 On ch=10 n=44 v=95
56855 Off ch=10 n=44 v=0
56880 On ch=10 n=44 v=95
56975 Off ch=10 n=44 v=0
57000 On ch=10 n=44 v=95
57095 Off ch=10 n=44 v=0
57120 On ch=10 n=35 v=95
57120 On ch=10 n=44 v=95
57215 Off ch=10 n=35 v=0
57215 Off ch=10 n=44 v=0
57240 On ch=10 n=44 v=95
57335 Off ch=10 n=44 v=0
57360 On ch=10 n=44 v=95
57455 Off ch=10 n=44 v=0
57480 On ch=10 n=44 v=95
57575 Off ch=10 n=44 v=0
57600 On ch=10 n=38 v=95
57600 On ch=10 n=44 v=95
57695 Off ch=10 n=38 v=0
57695 Off ch=10 n=44 v=0
57720 On ch=10 n=44 v=95
57815 Off ch=10 n=44 v=0
57840 On ch=10 n=44 v=95
57935 Off ch=10 n=44 v=0
57960 On ch=10 n=44 v=95
58055 Off ch=10 n=44 v=0
58080 On ch=10 n=35 v=95
58080 On ch=10 n=44 v=95
58175 Off ch=10 n=35 v=0
58175 Off ch=10 n=44 v=0
58200 On ch=10 n=44 v=95
58295 Off ch=10 n=44 v=0
58320 On ch=10 n=44 v=95
58415 Off ch=10 n=44 v=0
58440 On ch=10 n=44 v=95
58535 Off ch=10 n=44 v=0
58560 On ch=10 n=38 v=95
58560 On ch=10 n=44 v=95
58655 Off ch=10 n=38 v=0
58655 Off ch=10 n=44 v=0
58680 On ch=10 n=44 v=95
58775 Off ch=10 n=44 v=0
58800 On ch=10 n=44 v=95
58895 Off ch=10 n=44 v=0
58920 On ch=10 n=44 v=95
59015 Off ch=10 n=44 v=0
59040 On ch=10 n=35 v=95
59040 On ch=10 n=44 v=95
59135 Off ch=10 n=35 v=0
59135 Off ch=10 n=44 v=0
59160 On ch=10 n=44 v=95
59255 Off ch=10 n=44 v=0
59280 On ch=10 n=44 v=95
59375 Off ch=10 n=44 v=0
59400 On ch=10 n=44 v=95
59495 Off ch=10 n=44 v=0
59520 On ch=10 n=38 v=95
59520 On ch=10 n=44 v=95
59615 Off ch=10 n=38 v=0
59615 Off ch=10 n=44 v=0
59640 On ch=10 n=44 v=95
59735 Off ch=10 n=44 v=0
59760 On ch=10 n=44 v=95
59855 Off ch=10 n=44 v=0
59880 On ch=10 n=44 v=95
59975 Off ch=10 n=44 v=0
60000 On ch=10 n=35 v=95
60000 On ch=10 n=44 v=95
60095 Off ch=10 n=35 v=0
60095 Off ch=10 n=44 v=0
60120 On ch=10 n=44 v=95
60215 Off ch=10 n=44 v=0
60240 On ch=10 n=44 v=95
60335 Off ch=10 n=44 v=0
60360 On ch=10 n=44 v=95
60455 Off ch=10 n=44 v=0
60480 On ch=10 n=38 v=95
60480 On ch=10 n=44 v=95
60575 Off ch=10 n=38 v=0
60575 Off ch=10 n=44 v=0
60600 On ch=10 n=44 v=95
60695 Off ch=10 n=44 v=0
60720 On ch=10 n=44 v=95
60815 Off ch=10 n=44 v=0
60840 On ch=10 n=44 v=95
60935 Off ch=10 n=44 v=0
60960 On ch=10 n=35 v=95
60960 On ch=10 n=44 v=95
61055 Off ch=10 n=35 v=0
61055 Off ch=10 n=44 v=0
61080 On ch=10 n=44 v=95
61175 Off ch=10 n=44 v=0
61200 On ch=10 n=44 v=95
61295 Off ch=10 n=44 v=0
61320 On ch=10 n=44 v=95
61415 Off ch=10 n=44 v=0
61440 On ch=10 n=38 v=95
61440 On ch=10 n=44 v=95
61535 Off ch=10 n=38 v=0
61535 Off ch=10 n=44 v=0
61560 On ch=10 n=44 v=95
61655 Off ch=10 n=44 v=0
61680 On ch=10 n=44 v=95
61775 Off ch=10 n=44 v=0
61800 On ch=10 n=44 v=95
61895 Off ch=10 n=44 v=0
61920 On ch=10 n=35 v=95
61920 On ch=10 n=44 v=95
62015 Off ch=10 n=35 v=0
62015 Off ch=10 n=44 v=0
62040 On ch=10 n=44 v=95
62135 Off ch=10 n=44 v=0
62160 On ch=10 n=44 v=95
62255 Off ch=10 n=44 v=0
62280 On ch=10 n=44 v=95
62375 Off ch=10 n=44 v=0
62400 On ch=10 n=38 v=95
62400 On ch=10 n=44 v=95
62495 Off ch=10 n=38 v=0
62495 Off ch=10 n=44 v=0
62520 On ch=10 n=44 v=95
62615 Off ch=10 n=44 v=0
62640 On ch=10 n=44 v=95
62735 Off ch=10 n=44 v=0
62760 On ch=10 n=44 v=95
62855 Off ch=10 n=44 v=0
62880 On ch=10 n=35 v=95
62880 On ch=10 n=44 v=95
62975 Off ch=10 n=35 v=0
62975 Off ch=10 n=44 v=0
63000 On ch=10 n=44 v=95
63095 Off ch=10 n=44 v=0
63120 On ch=10 n=44 v=95
63215 Off ch=10 n=44 v=0
63240 On ch=10 n=44 v=95
63335 Off ch=10 n=44 v=0
63360 On ch=10 n=38 v=95
63360 On ch=10 n=44 v=95
63455 Off ch=10 n=38 v=0
63455 Off ch=10 n=44 v=0
63480 On ch=10 n=44 v=95
63575 Off ch=10 n=44 v=0
63600 On ch=10 n=44 v=95
63695 Off ch=10 n=44 v=0
63720 On ch=10 n=44 v=95
63815 Off ch=10 n=44 v=0
63840 On ch=10 n=35 v=95
63840 On ch=10 n=44 v=95
63935 Off ch=10 n=35 v=0
63935 Off ch=10 n=44 v=0
63960 On ch=10 n=44 v=95
64055 Off ch=10 n=44 v=0
64080 On ch=10 n=44 v=95
64175 Off ch=10 n=44 v=0
64200 On ch=10 n=44 v=95
64295 Off ch=10 n=44 v=0
64320 On ch=10 n=38 v=95
64320 On ch=10 n=44 v=95
64415 Off ch=10 n=38 v=0
64415 Off ch=10 n=44 v=0
64440 On ch=10 n=44 v=95
64535 Off ch=10 n=44 v=0
64560 On ch=10 n=44 v=95
64655 Off ch=10 n=44 v=0
64680 On ch=10 n=44 v=95
64775 Off ch=10 n=44 v=0
64800 On ch=10 n=35 v=95
64800 On ch=10 n=44 v=95
64895 Off ch=10 n=35 v=0
64895 Off ch=10 n=44 v=0
64920 On ch=10 n=44 v=95
65015 Off ch=10 n=44 v=0
65040 On ch=10 n=44 v=95
65135 Off ch=10 n=44 v=0
65160 On ch=10 n=44 v=95
65255 Off ch=10 n=44 v=0
65280 On ch=10 n=38 v=95
65280 On ch=10 n=44 v=95
65375 Off ch=10 n=38 v=0
65375 Off ch=10 n=44 v=0
65400 On ch=10 n=44 v=95
65495 Off ch=10 n=44 v=0
65520 On ch=10 n=44 v=95
65615 Off ch=10 n=44 v=0
65640 On ch=10 n=44 v=95
65735 Off ch=10 n=44 v=0
65760 On ch=10 n=35 v=95
65760 On ch=10 n=44 v=95
65855 Off ch=10 n=35 v=0
65855 Off ch=10 n=44 v=0
65880 On ch=10 n=44 v=95
65975 Off ch=10 n=44 v=0
66000 On ch=10 n=44 v=95
66095 Off ch=10 n=44 v=0
66120 On ch=10 n=44 v=95
66215 Off ch=10 n=44 v=0
66240 On ch=10 n=38 v=95
66240 On ch=10 n=44 v=95
66335 Off ch=10 n=38 v=0
66335 Off ch=10 n=44 v=0
66360 On ch=10 n=44 v=95
66455 Off ch=10 n=44 v=0
66480 On ch=10 n=44 v=95
66575 Off ch=10 n=44 v=0
66600 On ch=10 n=44 v=95
66695 Off ch=10 n=44 v=0
66720 On ch=10 n=35 v=95
66720 On ch=10 n=44 v=95
66815 Off ch=10 n=35 v=0
66815 Off ch=10 n=44 v=0
66840 On ch=10 n=44 v=95
66935 Off ch=10 n=44 v=0
66960 On ch=10 n=44 v=95
67055 Off ch=10 n=44 v=0
67080 On ch=10 n=44 v=95
67175 Off ch=10 n=44 v=0
67200 On ch=10 n=38 v=95
67200 On ch=10 n=44 v=95
67295 Off ch=10 n=38 v=0
67295 Off ch=10 n=44 v=0
67320 On ch=10 n=44 v=95
67415 Off ch=10 n=44 v=0
67440 On ch=10 n=44 v=95
67535 Off ch=10 n=44 v=0
67560 On ch=10 n=44 v=95
67655 Off ch=10 n=44 v=0
67680 On ch=10 n=35 v=95
67680 On ch=10 n=44 v=95
67775 Off ch=10 n=35 v=0
67775 Off ch=10 n=44 v=0
67800 On ch=10 n=44 v=95
67895 Off ch=10 n=44 v=0
67920 On ch=10 n=44 v=95
68015 Off ch=10 n=44 v=0
68040 On ch=10 n=44 v=95
68135 Off ch=10 n=44 v=0
68160 On ch=10 n=38 v=95
68160 On ch=10 n=44 v=95
68255 Off ch=10 n=38 v=0
68255 Off ch=10 n=44 v=0
68280 On ch=10 n=44 v=95
68375 Off ch=10 n=44 v=0
68400 On ch=10 n=44 v=95
68495 Off ch=10 n=44 v=0
68520 On ch=10 n=44 v=95
68615 Off ch=10 n=44 v=0
68640 On ch=10 n=35 v=95
68640 On ch=10 n=44 v=95
68735 Off ch=10 n=35 v=0
68735 Off ch=10 n=44 v=0
68760 On ch=10 n=44 v=95
68855 Off ch=10 n=44 v=0
68880 On ch=10 n=44 v=95
68975 Off ch=10 n=44 v=0
69000 On ch=10 n=44 v=95
69095 Off ch=10 n=44 v=0
69120 On ch=10 n=38 v=95
69120 On ch=10 n=44 v=95
69215 Off ch=10 n=38 v=0
69215 Off ch=10 n=44 v=0
69240 On ch=10 n=44 v=95
69335 Off ch=10 n=44 v=0
69360 On ch=10 n=44 v=95
69455 Off ch=10 n=44 v=0
69480 On ch=10 n=44 v=95
69575 Off ch=10 n=44 v=0
69600 On ch=10 n=35 v=95
69600 On ch=10 n=44 v=95
69695 Off ch=10 n=35 v=0
69695 Off ch=10 n=44 v=0
69720 On ch=10 n=44 v=95
69815 Off ch=10 n=44 v=0
69840 On ch=10 n=44 v=95
69935 Off ch=10 n=44 v=0
69960 On ch=10 n=44 v=95
70055 Off ch=10 n=44 v=0
70080 On ch=10 n=38 v=95
70080 On ch=10 n=44 v=95
70175 Off ch=10 n=38 v=0
70175 Off ch=10 n=44 v=0
70200 On ch=10 n=44 v=95
70295 Off ch=10 n=44 v=0
70320 On ch=10 n=44 v=95
70415 Off ch=10 n=44 v=0
70440 On ch=10 n=44 v=95
70535 Off ch=10 n=44 v=0
70560 On ch=10 n=35 v=95
70560 On ch=10 n=44 v=95
70655 Off ch=10 n=35 v=0
70655 Off ch=10 n=44 v=0
70680 On ch=10 n=44 v=95
70775 Off ch=10 n=44 v=0
70800 On ch=10 n=44 v=95
70895 Off ch=10 n=44 v=0
70920 On ch=10 n=44 v=95
71015 Off ch=10 n=44 v=0
71040 On ch=10 n=38 v=95
71040 On ch=10 n=44 v=95
71135 Off ch=10 n=38 v=0
71135 Off ch=10 n=44 v=0
71160 On ch=10 n=44 v=95
71255 Off ch=10 n=44 v=0
71280 On ch=10 n=44 v=95
71375 Off ch=10 n=44 v=0
71400 On ch=10 n=44 v=95
71495 Off ch=10 n=44 v=0
71520 On ch=10 n=35 v=95
71520 On ch=10 n=44 v=95
71615 Off ch=10 n=35 v=0
71615 Off ch=10 n=44 v=0
71640 On ch=10 n=44 v=95
71735 Off ch=10 n=44 v=0
71760 On ch=10 n=44 v=95
71855 Off ch=10 n=44 v=0
71880 On ch=10 n=44 v=95
71975 Off ch=10 n=44 v=0
72000 On ch=10 n=38 v=95
72000 On ch=10 n=44 v=95
72095 Off ch=10 n=38 v=0
72095 Off ch=10 n=44 v=0
72120 On ch=10 n=44 v=95
72215 Off ch=10 n=44 v=0
72240 On ch=10 n=44 v=95
72335 Off ch=10 n=44 v=0
72360 On ch=10 n=44 v=95
72455 Off ch=10 n=44 v=0
72480 On ch=10 n=35 v=95
72480 On ch=10 n=44 v=95
72575 Off ch=10 n=35 v=0
72575 Off ch=10 n=44 v=0
72600 On ch=10 n=44 v=95
72695 Off ch=10 n=44 v=0
72720 On ch=10 n=44 v=95
72815 Off ch=10 n=44 v=0
72840 On ch=10 n=44 v=95
72935 Off ch=10 n=44 v=0
72960 On ch=10 n=38 v=95
72960 On ch=10 n=44 v=95
73055 Off ch=10 n=38 v=0
73055 Off ch=10 n=44 v=0
73080 On ch=10 n=44 v=95
73175 Off ch=10 n=44 v=0
73200 On ch=10 n=44 v=95
73295 Off ch=10 n=44 v=0
73320 On ch=10 n=44 v=95
73415 Off ch=10 n=44 v=0
73440 On ch=10 n=35 v=95
73440 On ch=10 n=44 v=95
73535 Off ch=10 n=35 v=0
73535 Off ch=10 n=44 v=0
73560 On ch=10 n=44 v=95
73655 Off ch=10 n=44 v=0
73680 On ch=10 n=44 v=95
73775 Off ch=10 n=44 v=0
73800 On ch=10 n=44 v=95
73895 Off ch=10 n=44 v=0
73920 On ch=10 n=38 v=95
73920 On ch=10 n=44 v=95
74015 Off ch=10 n=38 v=0
74015 Off ch=10 n=44 v=0
74040 On ch=10 n=44 v=95
74135 Off ch=10 n=44 v=0
74160 On ch=10 n=44 v=95
74255 Off ch=10 n=44 v=0
74280 On ch=10 n=44 v=95
74375 Off ch=10 n=44 v=0
74400 On ch=10 n=35 v=95
74400 On ch=10 n=44 v=95
74495 Off ch=10 n=35 v=0
74495 Off ch=10 n=44 v=0
74520 On ch=10 n=44 v=95
74615 Off ch=10 n=44 v=0
74640 On ch=10 n=44 v=95
74735 Off ch=10 n=44 v=0
74760 On ch=10 n=44 v=95
74855 Off ch=10 n=44 v=0
74880 On ch=10 n=38 v=95
74880 On ch=10 n=44 v=95
74975 Off ch=10 n=38 v=0
74975 Off ch=10 n=44 v=0
75000 On ch=10 n=44 v=95
75095 Off ch=10 n=44 v=0
75120 On ch=10 n=44 v=95
75215 Off ch=10 n=44 v=0
75240 On ch=10 n=44 v=95
75335 Off ch=10 n=44 v=0
75360 On ch=10 n=35 v=95
75360 On ch=10 n=44 v=95
75455 Off ch=10 n=35 v=0
75455 Off ch=10 n=44 v=0
75480 On ch=10 n=44 v=95
75575 Off ch=10 n=44 v=0
75600 On ch=10 n=44 v=95
75695 Off ch=10 n=44 v=0
75720 On ch=10 n=44 v=95
75815 Off ch=10 n=44 v=0
75840 On ch=10 n=38 v=95
75840 On ch=10 n=44 v=95
75935 Off ch=10 n=38 v=0
75935 Off ch=10 n=44 v=0
75960 On ch=10 n=44 v=95
76055 Off ch=10 n=44 v=0
76080 On ch=10 n=44 v=95
76175 Off ch=10 n=44 v=0
76200 On ch=10 n=44 v=95
76295 Off ch=10 n=44 v=0
76320 On ch=10 n=35 v=95
76320 On ch=10 n=44 v=95
76415 Off ch=10 n=35 v=0
76415 Off ch=10 n=44 v=0
76440 On ch=10 n=44 v=95
76535 Off ch=10 n=44 v=0
76560 On ch=10 n=44 v=95
76655 Off ch=10 n=44 v=0
76680 On ch=10 n=44 v=95
76775 Off ch=10 n=44 v=0
76800 On ch=10 n=38 v=95
76800 On ch=10 n=44 v=95
76895 Off ch=10 n=38 v=0
76895 Off ch=10 n=44 v=0
76920 On ch=10 n=44 v=95
77015 Off ch=10 n=44 v=0
77040 On ch=10 n=44 v=95
77135 Off ch=10 n=44 v=0
77160 On ch=10 n=44 v=95
77255 Off ch=10 n=44 v=0
77280 On ch=10 n=49 v=95
78815 Off ch=10 n=49 v=0
79199 Off ch=10 n=0 v=0
79200 Meta Text "end"
79201 Meta TrkEnd
TrkEnd
