MFile 1 3 480
MTrk
0 Meta SeqName "Shape of You"
0 Tempo 625000
0 TimeSig 4/4 24 8
0 Meta TrkEnd
TrkEnd
MTrk
0 Meta TrkName "MIDI 01"
0 On ch=1 n=73 v=92
360 Off ch=1 n=73 v=64
360 On ch=1 n=76 v=94
720 Off ch=1 n=76 v=64
720 On ch=1 n=73 v=94
960 Off ch=1 n=73 v=64
960 On ch=1 n=73 v=94
1320 Off ch=1 n=73 v=64
1320 On ch=1 n=76 v=93
1680 Off ch=1 n=76 v=64
1680 On ch=1 n=73 v=96
1920 Off ch=1 n=73 v=64
1920 On ch=1 n=73 v=96
2280 Off ch=1 n=73 v=64
2280 On ch=1 n=76 v=95
2640 Off ch=1 n=76 v=64
2640 On ch=1 n=73 v=94
2880 Off ch=1 n=73 v=64
2880 On ch=1 n=75 v=96
3240 Off ch=1 n=75 v=64
3240 On ch=1 n=73 v=96
3600 Off ch=1 n=73 v=64
3600 On ch=1 n=71 v=95
3840 Off ch=1 n=71 v=64
3840 On ch=1 n=73 v=94
4200 Off ch=1 n=73 v=64
4200 On ch=1 n=76 v=94
4560 Off ch=1 n=76 v=64
4560 On ch=1 n=73 v=94
4800 Off ch=1 n=73 v=64
4800 On ch=1 n=73 v=94
5160 Off ch=1 n=73 v=64
5160 On ch=1 n=76 v=94
5520 Off ch=1 n=76 v=64
5520 On ch=1 n=73 v=94
5760 Off ch=1 n=73 v=64
5760 On ch=1 n=73 v=94
6120 Off ch=1 n=73 v=64
6120 On ch=1 n=76 v=95
6480 Off ch=1 n=76 v=64
6480 On ch=1 n=73 v=95
6720 Off ch=1 n=73 v=64
6720 On ch=1 n=75 v=95
7080 Off ch=1 n=75 v=64
7080 On ch=1 n=73 v=93
7440 Off ch=1 n=73 v=64
7440 On ch=1 n=71 v=94
7680 Off ch=1 n=71 v=64
7680 On ch=1 n=64 v=94
7920 Off ch=1 n=64 v=64
7920 On ch=1 n=64 v=94
8040 Off ch=1 n=64 v=64
8040 On ch=1 n=64 v=93
8280 Off ch=1 n=64 v=64
8280 On ch=1 n=64 v=93
8520 Off ch=1 n=64 v=64
8520 On ch=1 n=64 v=93
8760 Off ch=1 n=64 v=64
8760 On ch=1 n=64 v=94
8880 Off ch=1 n=64 v=64
8880 On ch=1 n=64 v=94
9000 Off ch=1 n=64 v=64
9000 On ch=1 n=64 v=94
9120 Off ch=1 n=64 v=64
9120 On ch=1 n=64 v=94
9240 Off ch=1 n=64 v=64
9240 On ch=1 n=64 v=93
9360 Off ch=1 n=64 v=64
9360 On ch=1 n=64 v=93
9600 Off ch=1 n=64 v=64
9600 On ch=1 n=64 v=93
9840 Off ch=1 n=64 v=64
9840 On ch=1 n=64 v=94
10080 Off ch=1 n=64 v=64
10080 On ch=1 n=68 v=94
10200 Off ch=1 n=68 v=64
10200 On ch=1 n=68 v=94
10440 Off ch=1 n=68 v=64
10440 On ch=1 n=68 v=95
11040 Off ch=1 n=68 v=64
11040 On ch=1 n=68 v=95
11160 Off ch=1 n=68 v=64
11160 On ch=1 n=64 v=95
11280 Off ch=1 n=64 v=64
11280 On ch=1 n=66 v=95
11520 Off ch=1 n=66 v=64
11520 On ch=1 n=71 v=95
11640 Off ch=1 n=71 v=64
11640 On ch=1 n=66 v=95
11760 Off ch=1 n=66 v=64
11760 On ch=1 n=68 v=95
11880 Off ch=1 n=68 v=64
11880 On ch=1 n=68 v=94
12120 Off ch=1 n=68 v=64
12120 On ch=1 n=68 v=93
12360 Off ch=1 n=68 v=64
12360 On ch=1 n=68 v=93
12480 Off ch=1 n=68 v=64
12480 On ch=1 n=66 v=93
12600 Off ch=1 n=66 v=64
12600 On ch=1 n=66 v=93
12720 Off ch=1 n=66 v=64
12720 On ch=1 n=66 v=94
12840 Off ch=1 n=66 v=64
12840 On ch=1 n=66 v=94
12960 Off ch=1 n=66 v=64
12960 On ch=1 n=66 v=94
13200 Off ch=1 n=66 v=64
13200 On ch=1 n=66 v=94
13320 Off ch=1 n=66 v=64
13320 On ch=1 n=66 v=94
13440 Off ch=1 n=66 v=64
13440 On ch=1 n=66 v=94
13680 Off ch=1 n=66 v=64
13680 On ch=1 n=66 v=93
13800 Off ch=1 n=66 v=64
13800 On ch=1 n=66 v=93
14040 Off ch=1 n=66 v=64
14040 On ch=1 n=66 v=93
14160 Off ch=1 n=66 v=64
14160 On ch=1 n=64 v=93
14280 Off ch=1 n=64 v=64
14280 On ch=1 n=61 v=93
14880 Off ch=1 n=61 v=64
15240 On ch=1 n=61 v=93
15360 Off ch=1 n=61 v=64
15360 On ch=1 n=68 v=93
15480 Off ch=1 n=68 v=64
15480 On ch=1 n=68 v=93
15600 Off ch=1 n=68 v=64
15600 On ch=1 n=68 v=93
15720 Off ch=1 n=68 v=64
15720 On ch=1 n=68 v=93
15840 Off ch=1 n=68 v=64
15960 On ch=1 n=68 v=93
16080 Off ch=1 n=68 v=64
16080 On ch=1 n=68 v=93
16200 Off ch=1 n=68 v=64
16200 On ch=1 n=68 v=93
16320 Off ch=1 n=68 v=64
16320 On ch=1 n=68 v=93
16440 Off ch=1 n=68 v=64
16440 On ch=1 n=68 v=93
16680 Off ch=1 n=68 v=64
16680 On ch=1 n=68 v=93
16920 Off ch=1 n=68 v=64
16920 On ch=1 n=68 v=94
17160 Off ch=1 n=68 v=64
17160 On ch=1 n=68 v=94
17280 Off ch=1 n=68 v=64
17280 On ch=1 n=71 v=94
17400 Off ch=1 n=71 v=64
17400 On ch=1 n=66 v=94
17520 Off ch=1 n=66 v=64
17520 On ch=1 n=68 v=94
17640 Off ch=1 n=68 v=64
17640 On ch=1 n=68 v=94
17760 Off ch=1 n=68 v=64
17760 On ch=1 n=66 v=94
17880 Off ch=1 n=66 v=64
17880 On ch=1 n=66 v=94
18000 Off ch=1 n=66 v=64
18000 On ch=1 n=66 v=94
18240 Off ch=1 n=66 v=64
18240 On ch=1 n=68 v=94
18720 Off ch=1 n=68 v=64
18720 On ch=1 n=66 v=94
18960 Off ch=1 n=66 v=64
18960 On ch=1 n=64 v=93
19080 Off ch=1 n=64 v=64
19080 On ch=1 n=64 v=93
19200 Off ch=1 n=64 v=64
19200 On ch=1 n=64 v=93
19560 Off ch=1 n=64 v=64
19560 On ch=1 n=71 v=93
19800 Off ch=1 n=71 v=64
19800 On ch=1 n=66 v=93
19920 Off ch=1 n=66 v=64
19920 On ch=1 n=68 v=93
20040 Off ch=1 n=68 v=64
20040 On ch=1 n=68 v=93
20160 Off ch=1 n=68 v=64
20160 On ch=1 n=66 v=93
20280 Off ch=1 n=66 v=64
20280 On ch=1 n=66 v=93
20400 Off ch=1 n=66 v=64
20400 On ch=1 n=66 v=93
20520 Off ch=1 n=66 v=64
20520 On ch=1 n=66 v=93
20760 Off ch=1 n=66 v=64
20760 On ch=1 n=66 v=94
21120 Off ch=1 n=66 v=64
21120 On ch=1 n=66 v=94
21360 Off ch=1 n=66 v=64
21360 On ch=1 n=66 v=95
21600 Off ch=1 n=66 v=64
21600 On ch=1 n=66 v=95
21840 Off ch=1 n=66 v=64
21840 On ch=1 n=64 v=95
21960 Off ch=1 n=64 v=64
21960 On ch=1 n=61 v=95
22200 Off ch=1 n=61 v=64
22200 On ch=1 n=59 v=95
22320 Off ch=1 n=59 v=64
22320 On ch=1 n=56 v=96
22560 Off ch=1 n=56 v=64
22560 On ch=1 n=61 v=95
22680 Off ch=1 n=61 v=64
22680 On ch=1 n=61 v=95
22800 Off ch=1 n=61 v=64
22800 On ch=1 n=61 v=95
23040 Off ch=1 n=61 v=64
23040 On ch=1 n=61 v=95
23280 Off ch=1 n=61 v=64
23280 On ch=1 n=61 v=94
23520 Off ch=1 n=61 v=64
23520 On ch=1 n=61 v=94
23760 Off ch=1 n=61 v=64
23760 On ch=1 n=59 v=94
24000 Off ch=1 n=59 v=64
24000 On ch=1 n=61 v=94
24240 Off ch=1 n=61 v=64
24240 On ch=1 n=68 v=94
24480 Off ch=1 n=68 v=64
24480 On ch=1 n=66 v=93
24960 Off ch=1 n=66 v=64
24960 On ch=1 n=64 v=93
25080 Off ch=1 n=64 v=64
25080 On ch=1 n=66 v=93
25320 Off ch=1 n=66 v=64
25320 On ch=1 n=68 v=93
25440 Off ch=1 n=68 v=64
25440 On ch=1 n=66 v=93
25680 Off ch=1 n=66 v=64
25680 On ch=1 n=64 v=94
25920 Off ch=1 n=64 v=64
25920 On ch=1 n=61 v=94
26160 Off ch=1 n=61 v=64
26160 On ch=1 n=64 v=95
26400 Off ch=1 n=64 v=64
26400 On ch=1 n=68 v=95
26520 Off ch=1 n=68 v=64
26520 On ch=1 n=66 v=95
26640 Off ch=1 n=66 v=64
26640 On ch=1 n=64 v=95
26760 Off ch=1 n=64 v=64
26760 On ch=1 n=66 v=95
26880 Off ch=1 n=66 v=64
26880 On ch=1 n=61 v=95
27360 Off ch=1 n=61 v=64
27360 On ch=1 n=71 v=95
27480 Off ch=1 n=71 v=64
27480 On ch=1 n=66 v=95
27600 Off ch=1 n=66 v=64
27600 On ch=1 n=68 v=95
27840 Off ch=1 n=68 v=64
27840 On ch=1 n=66 v=95
27960 Off ch=1 n=66 v=64
27960 On ch=1 n=64 v=95
28080 Off ch=1 n=64 v=64
28080 On ch=1 n=64 v=95
28320 Off ch=1 n=64 v=64
28320 On ch=1 n=61 v=95
28800 Off ch=1 n=61 v=64
28800 On ch=1 n=64 v=95
28920 Off ch=1 n=64 v=64
28920 On ch=1 n=66 v=94
29160 Off ch=1 n=66 v=64
29160 On ch=1 n=66 v=94
29280 Off ch=1 n=66 v=64
29280 On ch=1 n=66 v=94
29520 Off ch=1 n=66 v=64
29520 On ch=1 n=64 v=94
29760 Off ch=1 n=64 v=64
29760 On ch=1 n=66 v=95
30000 Off ch=1 n=66 v=64
30000 On ch=1 n=64 v=95
30240 Off ch=1 n=64 v=64
30240 On ch=1 n=61 v=96
30480 Off ch=1 n=61 v=64
30480 On ch=1 n=61 v=96
30720 Off ch=1 n=61 v=64
30720 On ch=1 n=61 v=96
31200 Off ch=1 n=61 v=64
31200 On ch=1 n=61 v=96
31440 Off ch=1 n=61 v=64
31440 On ch=1 n=59 v=96
31680 Off ch=1 n=59 v=64
31680 On ch=1 n=61 v=96
31920 Off ch=1 n=61 v=64
31920 On ch=1 n=68 v=96
32160 Off ch=1 n=68 v=64
32160 On ch=1 n=66 v=96
32640 Off ch=1 n=66 v=64
32640 On ch=1 n=66 v=96
32760 Off ch=1 n=66 v=64
32760 On ch=1 n=66 v=96
33000 Off ch=1 n=66 v=64
33000 On ch=1 n=68 v=96
33120 Off ch=1 n=68 v=64
33120 On ch=1 n=66 v=96
33360 Off ch=1 n=66 v=64
33360 On ch=1 n=64 v=95
33600 Off ch=1 n=64 v=64
33600 On ch=1 n=61 v=95
33840 Off ch=1 n=61 v=64
33840 On ch=1 n=64 v=95
34080 Off ch=1 n=64 v=64
34080 On ch=1 n=68 v=95
34200 Off ch=1 n=68 v=64
34200 On ch=1 n=66 v=95
34320 Off ch=1 n=66 v=64
34320 On ch=1 n=64 v=95
34440 Off ch=1 n=64 v=64
34440 On ch=1 n=66 v=95
34560 Off ch=1 n=66 v=64
34560 On ch=1 n=61 v=96
35040 Off ch=1 n=61 v=64
35040 On ch=1 n=71 v=96
35160 Off ch=1 n=71 v=64
35160 On ch=1 n=66 v=96
35280 Off ch=1 n=66 v=64
35280 On ch=1 n=68 v=96
35520 Off ch=1 n=68 v=64
35520 On ch=1 n=66 v=96
35640 Off ch=1 n=66 v=64
35640 On ch=1 n=64 v=96
35760 Off ch=1 n=64 v=64
35760 On ch=1 n=64 v=95
36000 Off ch=1 n=64 v=64
36000 On ch=1 n=61 v=95
36240 Off ch=1 n=61 v=64
36240 On ch=1 n=61 v=95
36480 Off ch=1 n=61 v=64
36480 On ch=1 n=71 v=95
36600 Off ch=1 n=71 v=64
36600 On ch=1 n=66 v=95
36720 Off ch=1 n=66 v=64
36720 On ch=1 n=68 v=95
36960 Off ch=1 n=68 v=64
36960 On ch=1 n=66 v=95
37080 Off ch=1 n=66 v=64
37080 On ch=1 n=64 v=95
37200 Off ch=1 n=64 v=64
37200 On ch=1 n=64 v=94
37440 Off ch=1 n=64 v=64
37440 On ch=1 n=61 v=94
37680 Off ch=1 n=61 v=64
37680 On ch=1 n=56 v=94
37920 Off ch=1 n=56 v=64
37920 On ch=1 n=59 v=94
38160 Off ch=1 n=59 v=64
38160 On ch=1 n=61 v=94
38400 Off ch=1 n=61 v=64
39120 On ch=1 n=64 v=94
39240 Off ch=1 n=64 v=64
39240 On ch=1 n=66 v=94
39360 Off ch=1 n=66 v=64
39360 On ch=1 n=68 v=94
39600 Off ch=1 n=68 v=64
39600 On ch=1 n=66 v=94
39720 Off ch=1 n=66 v=64
39720 On ch=1 n=64 v=95
39840 Off ch=1 n=64 v=64
39840 On ch=1 n=64 v=95
40080 Off ch=1 n=64 v=64
40080 On ch=1 n=66 v=95
40320 Off ch=1 n=66 v=64
40320 On ch=1 n=66 v=95
40560 Off ch=1 n=66 v=64
41040 On ch=1 n=64 v=95
41160 Off ch=1 n=64 v=64
41160 On ch=1 n=66 v=95
41280 Off ch=1 n=66 v=64
41280 On ch=1 n=68 v=92
41520 Off ch=1 n=68 v=64
41520 On ch=1 n=66 v=92
41640 Off ch=1 n=66 v=64
41640 On ch=1 n=64 v=91
41760 Off ch=1 n=64 v=64
41760 On ch=1 n=64 v=91
42000 Off ch=1 n=64 v=64
42000 On ch=1 n=66 v=90
42240 Off ch=1 n=66 v=64
42240 On ch=1 n=61 v=93
42720 Off ch=1 n=61 v=64
42960 On ch=1 n=64 v=93
43080 Off ch=1 n=64 v=64
43080 On ch=1 n=66 v=93
43200 Off ch=1 n=66 v=64
43200 On ch=1 n=68 v=92
43440 Off ch=1 n=68 v=64
43440 On ch=1 n=61 v=92
43680 Off ch=1 n=61 v=64
43680 On ch=1 n=64 v=91
43920 Off ch=1 n=64 v=64
43920 On ch=1 n=66 v=91
44160 Off ch=1 n=66 v=64
44160 On ch=1 n=66 v=91
44640 Off ch=1 n=66 v=64
44880 On ch=1 n=64 v=91
45000 Off ch=1 n=64 v=64
45000 On ch=1 n=66 v=92
45120 Off ch=1 n=66 v=64
45120 On ch=1 n=68 v=92
45360 Off ch=1 n=68 v=64
45360 On ch=1 n=66 v=92
45480 Off ch=1 n=66 v=64
45480 On ch=1 n=64 v=92
45600 Off ch=1 n=64 v=64
45600 On ch=1 n=66 v=92
45960 Off ch=1 n=66 v=64
45960 On ch=1 n=61 v=91
46560 Off ch=1 n=61 v=64
46800 On ch=1 n=66 v=92
47040 Off ch=1 n=66 v=64
47040 On ch=1 n=68 v=93
47280 Off ch=1 n=68 v=64
47280 On ch=1 n=71 v=93
47400 Off ch=1 n=71 v=64
47400 On ch=1 n=68 v=93
47520 Off ch=1 n=68 v=64
47520 On ch=1 n=66 v=93
47760 Off ch=1 n=66 v=64
47760 On ch=1 n=64 v=93
48000 Off ch=1 n=64 v=64
48000 On ch=1 n=66 v=93
48480 Off ch=1 n=66 v=64
48720 On ch=1 n=64 v=93
48840 Off ch=1 n=64 v=64
48840 On ch=1 n=66 v=93
48960 Off ch=1 n=66 v=64
48960 On ch=1 n=68 v=93
49200 Off ch=1 n=68 v=64
49200 On ch=1 n=66 v=92
49440 Off ch=1 n=66 v=64
49440 On ch=1 n=64 v=92
49680 Off ch=1 n=64 v=64
49680 On ch=1 n=66 v=92
49920 Off ch=1 n=66 v=64
49920 On ch=1 n=61 v=92
50160 Off ch=1 n=61 v=64
50160 On ch=1 n=61 v=92
50280 Off ch=1 n=61 v=64
50280 On ch=1 n=61 v=92
50400 Off ch=1 n=61 v=64
50400 On ch=1 n=61 v=91
50520 Off ch=1 n=61 v=64
50520 On ch=1 n=61 v=91
50640 Off ch=1 n=61 v=64
50640 On ch=1 n=64 v=91
50760 Off ch=1 n=64 v=64
50760 On ch=1 n=66 v=91
50880 Off ch=1 n=66 v=64
50880 On ch=1 n=68 v=91
51120 Off ch=1 n=68 v=64
51120 On ch=1 n=61 v=91
51360 Off ch=1 n=61 v=64
51360 On ch=1 n=64 v=90
51600 Off ch=1 n=64 v=64
51600 On ch=1 n=66 v=90
51840 Off ch=1 n=66 v=64
51840 On ch=1 n=66 v=92
52320 Off ch=1 n=66 v=64
52560 On ch=1 n=64 v=92
52680 Off ch=1 n=64 v=64
52680 On ch=1 n=66 v=92
52800 Off ch=1 n=66 v=64
52800 On ch=1 n=68 v=92
53040 Off ch=1 n=68 v=64
53040 On ch=1 n=66 v=92
53160 Off ch=1 n=66 v=64
53160 On ch=1 n=64 v=92
53280 Off ch=1 n=64 v=64
53280 On ch=1 n=66 v=92
53640 Off ch=1 n=66 v=64
53640 On ch=1 n=61 v=92
53760 Off ch=1 n=61 v=64
53760 On ch=1 n=61 v=92
54000 Off ch=1 n=61 v=64
54000 On ch=1 n=61 v=92
54240 Off ch=1 n=61 v=64
54240 On ch=1 n=64 v=92
54480 Off ch=1 n=64 v=64
54480 On ch=1 n=64 v=92
54720 Off ch=1 n=64 v=64
54720 On ch=1 n=66 v=92
54960 Off ch=1 n=66 v=64
54960 On ch=1 n=66 v=92
55200 Off ch=1 n=66 v=64
55200 On ch=1 n=68 v=92
55440 Off ch=1 n=68 v=64
55440 On ch=1 n=68 v=92
55680 Off ch=1 n=68 v=64
56400 On ch=1 n=64 v=93
56520 Off ch=1 n=64 v=64
56520 On ch=1 n=66 v=93
56640 Off ch=1 n=66 v=64
56640 On ch=1 n=68 v=93
56880 Off ch=1 n=68 v=64
56880 On ch=1 n=66 v=93
57000 Off ch=1 n=66 v=64
57000 On ch=1 n=64 v=93
57120 Off ch=1 n=64 v=64
57120 On ch=1 n=66 v=93
57480 Off ch=1 n=66 v=64
57480 On ch=1 n=61 v=93
57600 Off ch=1 n=61 v=64
57600 On ch=1 n=61 v=93
57840 Off ch=1 n=61 v=64
57840 On ch=1 n=61 v=93
58080 Off ch=1 n=61 v=64
58080 On ch=1 n=64 v=93
58320 Off ch=1 n=64 v=64
58320 On ch=1 n=64 v=93
58560 Off ch=1 n=64 v=64
58560 On ch=1 n=66 v=92
58800 Off ch=1 n=66 v=64
58800 On ch=1 n=66 v=92
59040 Off ch=1 n=66 v=64
59040 On ch=1 n=68 v=92
59280 Off ch=1 n=68 v=64
59280 On ch=1 n=68 v=92
59520 Off ch=1 n=68 v=64
60240 On ch=1 n=64 v=92
60360 Off ch=1 n=64 v=64
60360 On ch=1 n=66 v=92
60480 Off ch=1 n=66 v=64
60480 On ch=1 n=68 v=93
60720 Off ch=1 n=68 v=64
60720 On ch=1 n=66 v=93
60840 Off ch=1 n=66 v=64
60840 On ch=1 n=64 v=93
60960 Off ch=1 n=64 v=64
60960 On ch=1 n=66 v=93
61320 Off ch=1 n=66 v=64
61320 On ch=1 n=61 v=94
61440 Off ch=1 n=61 v=64
61440 On ch=1 n=61 v=93
61680 Off ch=1 n=61 v=64
61680 On ch=1 n=61 v=93
61920 Off ch=1 n=61 v=64
61920 On ch=1 n=64 v=93
62160 Off ch=1 n=64 v=64
62160 On ch=1 n=64 v=93
62400 Off ch=1 n=64 v=64
62400 On ch=1 n=66 v=93
62640 Off ch=1 n=66 v=64
62640 On ch=1 n=66 v=93
62880 Off ch=1 n=66 v=64
62880 On ch=1 n=68 v=93
63120 Off ch=1 n=68 v=64
63120 On ch=1 n=68 v=93
63360 Off ch=1 n=68 v=64
64080 On ch=1 n=64 v=93
64200 Off ch=1 n=64 v=64
64200 On ch=1 n=66 v=93
64320 Off ch=1 n=66 v=64
64320 On ch=1 n=68 v=93
64560 Off ch=1 n=68 v=64
64560 On ch=1 n=66 v=93
64680 Off ch=1 n=66 v=64
64680 On ch=1 n=64 v=93
64800 Off ch=1 n=64 v=64
64800 On ch=1 n=66 v=93
65280 Off ch=1 n=66 v=64
65280 On ch=1 n=61 v=93
65520 Off ch=1 n=61 v=64
65520 On ch=1 n=61 v=93
65640 Off ch=1 n=61 v=64
65640 On ch=1 n=61 v=93
65760 Off ch=1 n=61 v=64
65760 On ch=1 n=61 v=93
65880 Off ch=1 n=61 v=64
65880 On ch=1 n=61 v=93
66000 Off ch=1 n=61 v=64
66000 On ch=1 n=64 v=93
66120 Off ch=1 n=64 v=64
66120 On ch=1 n=66 v=93
66240 Off ch=1 n=66 v=64
66240 On ch=1 n=68 v=93
66480 Off ch=1 n=68 v=64
66480 On ch=1 n=61 v=93
66720 Off ch=1 n=61 v=64
66720 On ch=1 n=64 v=93
66960 Off ch=1 n=64 v=64
66960 On ch=1 n=66 v=94
67200 Off ch=1 n=66 v=64
67200 On ch=1 n=66 v=94
67680 Off ch=1 n=66 v=64
67920 On ch=1 n=64 v=93
68040 Off ch=1 n=64 v=64
68040 On ch=1 n=66 v=93
68160 Off ch=1 n=66 v=64
68160 On ch=1 n=68 v=93
68400 Off ch=1 n=68 v=64
68400 On ch=1 n=66 v=93
68520 Off ch=1 n=66 v=64
68520 On ch=1 n=64 v=93
68640 Off ch=1 n=64 v=64
68640 On ch=1 n=64 v=93
68880 Off ch=1 n=64 v=64
68880 On ch=1 n=66 v=93
69120 Off ch=1 n=66 v=64
69120 On ch=1 n=64 v=93
69240 Off ch=1 n=64 v=64
69240 On ch=1 n=64 v=93
69480 Off ch=1 n=64 v=64
69480 On ch=1 n=64 v=93
69720 Off ch=1 n=64 v=64
69720 On ch=1 n=64 v=93
69840 Off ch=1 n=64 v=64
69840 On ch=1 n=64 v=94
70080 Off ch=1 n=64 v=64
70080 On ch=1 n=64 v=94
70200 Off ch=1 n=64 v=64
70200 On ch=1 n=64 v=94
70320 Off ch=1 n=64 v=64
70320 On ch=1 n=64 v=94
70440 Off ch=1 n=64 v=64
70440 On ch=1 n=64 v=94
70680 Off ch=1 n=64 v=64
70680 On ch=1 n=64 v=94
70800 Off ch=1 n=64 v=64
70800 On ch=1 n=64 v=94
71040 Off ch=1 n=64 v=64
71040 On ch=1 n=64 v=94
71280 Off ch=1 n=64 v=64
71280 On ch=1 n=64 v=94
71520 Off ch=1 n=64 v=64
71520 On ch=1 n=68 v=94
71640 Off ch=1 n=68 v=64
71640 On ch=1 n=68 v=95
71880 Off ch=1 n=68 v=64
71880 On ch=1 n=68 v=96
72000 Off ch=1 n=68 v=64
72720 On ch=1 n=68 v=95
72840 Off ch=1 n=68 v=64
72840 On ch=1 n=68 v=95
72960 Off ch=1 n=68 v=64
72960 On ch=1 n=71 v=94
73320 Off ch=1 n=71 v=64
73320 On ch=1 n=66 v=94
73560 Off ch=1 n=66 v=64
73560 On ch=1 n=66 v=94
73680 Off ch=1 n=66 v=64
73680 On ch=1 n=66 v=93
73800 Off ch=1 n=66 v=64
73800 On ch=1 n=66 v=93
73920 Off ch=1 n=66 v=64
73920 On ch=1 n=66 v=93
74040 Off ch=1 n=66 v=64
74040 On ch=1 n=66 v=93
74160 Off ch=1 n=66 v=64
74160 On ch=1 n=66 v=93
74280 Off ch=1 n=66 v=64
74280 On ch=1 n=66 v=93
74520 Off ch=1 n=66 v=64
74520 On ch=1 n=66 v=93
74640 Off ch=1 n=66 v=64
74640 On ch=1 n=66 v=93
74760 Off ch=1 n=66 v=64
74760 On ch=1 n=66 v=93
74880 Off ch=1 n=66 v=64
74880 On ch=1 n=66 v=93
75120 Off ch=1 n=66 v=64
75120 On ch=1 n=66 v=93
75240 Off ch=1 n=66 v=64
75240 On ch=1 n=68 v=93
75360 Off ch=1 n=68 v=64
75360 On ch=1 n=66 v=94
75480 Off ch=1 n=66 v=64
75480 On ch=1 n=64 v=94
75720 Off ch=1 n=64 v=64
75720 On ch=1 n=64 v=94
75840 Off ch=1 n=64 v=64
76440 On ch=1 n=66 v=94
76560 Off ch=1 n=66 v=64
76560 On ch=1 n=66 v=94
76680 Off ch=1 n=66 v=64
76680 On ch=1 n=66 v=94
76800 Off ch=1 n=66 v=64
76800 On ch=1 n=73 v=94
76920 Off ch=1 n=73 v=64
76920 On ch=1 n=73 v=95
77040 Off ch=1 n=73 v=64
77040 On ch=1 n=73 v=95
77160 Off ch=1 n=73 v=64
77160 On ch=1 n=73 v=95
77280 Off ch=1 n=73 v=64
77280 On ch=1 n=73 v=95
77400 Off ch=1 n=73 v=64
77400 On ch=1 n=71 v=95
77520 Off ch=1 n=71 v=64
77520 On ch=1 n=68 v=95
77760 Off ch=1 n=68 v=64
77760 On ch=1 n=71 v=95
77880 Off ch=1 n=71 v=64
77880 On ch=1 n=66 v=95
78120 Off ch=1 n=66 v=64
78120 On ch=1 n=66 v=95
78360 Off ch=1 n=66 v=64
78360 On ch=1 n=66 v=95
78480 Off ch=1 n=66 v=64
78480 On ch=1 n=66 v=95
78600 Off ch=1 n=66 v=64
78600 On ch=1 n=66 v=94
78720 Off ch=1 n=66 v=64
78720 On ch=1 n=66 v=94
78840 Off ch=1 n=66 v=64
78840 On ch=1 n=66 v=94
78960 Off ch=1 n=66 v=64
78960 On ch=1 n=66 v=94
79200 Off ch=1 n=66 v=64
79200 On ch=1 n=66 v=94
79320 Off ch=1 n=66 v=64
79320 On ch=1 n=66 v=94
79440 Off ch=1 n=66 v=64
79440 On ch=1 n=66 v=94
79560 Off ch=1 n=66 v=64
79560 On ch=1 n=68 v=95
79920 Off ch=1 n=68 v=64
80400 On ch=1 n=64 v=95
80520 Off ch=1 n=64 v=64
80520 On ch=1 n=64 v=95
80640 Off ch=1 n=64 v=64
80640 On ch=1 n=64 v=95
80760 Off ch=1 n=64 v=64
80760 On ch=1 n=64 v=95
80880 Off ch=1 n=64 v=64
80880 On ch=1 n=64 v=95
81000 Off ch=1 n=64 v=64
81000 On ch=1 n=68 v=95
81240 Off ch=1 n=68 v=64
81240 On ch=1 n=68 v=96
81600 Off ch=1 n=68 v=64
81600 On ch=1 n=64 v=96
81720 Off ch=1 n=64 v=64
81720 On ch=1 n=64 v=96
81840 Off ch=1 n=64 v=64
81840 On ch=1 n=64 v=96
81960 Off ch=1 n=64 v=64
81960 On ch=1 n=68 v=96
82200 Off ch=1 n=68 v=64
82200 On ch=1 n=68 v=96
82320 Off ch=1 n=68 v=64
82320 On ch=1 n=68 v=96
82440 Off ch=1 n=68 v=64
82440 On ch=1 n=68 v=96
82560 Off ch=1 n=68 v=64
82560 On ch=1 n=66 v=96
82680 Off ch=1 n=66 v=64
82680 On ch=1 n=66 v=96
82800 Off ch=1 n=66 v=64
82800 On ch=1 n=66 v=96
82920 Off ch=1 n=66 v=64
82920 On ch=1 n=66 v=95
83040 Off ch=1 n=66 v=64
83040 On ch=1 n=66 v=95
83160 Off ch=1 n=66 v=64
83160 On ch=1 n=66 v=95
83280 Off ch=1 n=66 v=64
83280 On ch=1 n=64 v=95
83520 Off ch=1 n=64 v=64
83520 On ch=1 n=64 v=95
83760 Off ch=1 n=64 v=64
83760 On ch=1 n=56 v=94
84000 Off ch=1 n=56 v=64
84000 On ch=1 n=61 v=94
84120 Off ch=1 n=61 v=64
84120 On ch=1 n=61 v=94
84240 Off ch=1 n=61 v=64
84240 On ch=1 n=61 v=94
84480 Off ch=1 n=61 v=64
84480 On ch=1 n=61 v=94
84720 Off ch=1 n=61 v=64
84720 On ch=1 n=61 v=94
84960 Off ch=1 n=61 v=64
84960 On ch=1 n=61 v=94
85200 Off ch=1 n=61 v=64
85200 On ch=1 n=59 v=95
85440 Off ch=1 n=59 v=64
85440 On ch=1 n=61 v=95
85680 Off ch=1 n=61 v=64
85680 On ch=1 n=68 v=94
85920 Off ch=1 n=68 v=64
85920 On ch=1 n=66 v=93
86400 Off ch=1 n=66 v=64
86400 On ch=1 n=64 v=93
86520 Off ch=1 n=64 v=64
86520 On ch=1 n=66 v=93
86760 Off ch=1 n=66 v=64
86760 On ch=1 n=68 v=93
86880 Off ch=1 n=68 v=64
86880 On ch=1 n=66 v=93
87120 Off ch=1 n=66 v=64
87120 On ch=1 n=64 v=93
87360 Off ch=1 n=64 v=64
87360 On ch=1 n=61 v=93
87600 Off ch=1 n=61 v=64
87600 On ch=1 n=64 v=93
87840 Off ch=1 n=64 v=64
87840 On ch=1 n=68 v=93
87960 Off ch=1 n=68 v=64
87960 On ch=1 n=66 v=93
88080 Off ch=1 n=66 v=64
88080 On ch=1 n=64 v=94
88200 Off ch=1 n=64 v=64
88200 On ch=1 n=66 v=94
88320 Off ch=1 n=66 v=64
88320 On ch=1 n=61 v=94
88800 Off ch=1 n=61 v=64
88800 On ch=1 n=71 v=94
88920 Off ch=1 n=71 v=64
88920 On ch=1 n=66 v=94
89040 Off ch=1 n=66 v=64
89040 On ch=1 n=68 v=94
89280 Off ch=1 n=68 v=64
89280 On ch=1 n=66 v=94
89400 Off ch=1 n=66 v=64
89400 On ch=1 n=64 v=94
89520 Off ch=1 n=64 v=64
89520 On ch=1 n=64 v=94
89760 Off ch=1 n=64 v=64
89760 On ch=1 n=61 v=94
90000 Off ch=1 n=61 v=64
90240 On ch=1 n=64 v=94
90360 Off ch=1 n=64 v=64
90360 On ch=1 n=66 v=95
90600 Off ch=1 n=66 v=64
90600 On ch=1 n=66 v=95
90720 Off ch=1 n=66 v=64
90720 On ch=1 n=66 v=95
90960 Off ch=1 n=66 v=64
90960 On ch=1 n=64 v=96
91200 Off ch=1 n=64 v=64
91200 On ch=1 n=66 v=96
91440 Off ch=1 n=66 v=64
91440 On ch=1 n=64 v=96
91680 Off ch=1 n=64 v=64
91680 On ch=1 n=61 v=96
91920 Off ch=1 n=61 v=64
91920 On ch=1 n=61 v=96
92160 Off ch=1 n=61 v=64
92160 On ch=1 n=61 v=95
92640 Off ch=1 n=61 v=64
92640 On ch=1 n=61 v=95
92880 Off ch=1 n=61 v=64
92880 On ch=1 n=59 v=95
93120 Off ch=1 n=59 v=64
93120 On ch=1 n=61 v=96
93360 Off ch=1 n=61 v=64
93360 On ch=1 n=68 v=96
93600 Off ch=1 n=68 v=64
93600 On ch=1 n=64 v=96
93720 Off ch=1 n=64 v=64
93720 On ch=1 n=66 v=96
94080 Off ch=1 n=66 v=64
94080 On ch=1 n=66 v=96
94200 Off ch=1 n=66 v=64
94200 On ch=1 n=66 v=95
94440 Off ch=1 n=66 v=64
94440 On ch=1 n=68 v=95
94560 Off ch=1 n=68 v=64
94560 On ch=1 n=66 v=95
94800 Off ch=1 n=66 v=64
94800 On ch=1 n=64 v=95
95040 Off ch=1 n=64 v=64
95040 On ch=1 n=61 v=95
95280 Off ch=1 n=61 v=64
95280 On ch=1 n=64 v=95
95520 Off ch=1 n=64 v=64
95520 On ch=1 n=68 v=95
95640 Off ch=1 n=68 v=64
95640 On ch=1 n=66 v=95
95760 Off ch=1 n=66 v=64
95760 On ch=1 n=64 v=95
95880 Off ch=1 n=64 v=64
95880 On ch=1 n=66 v=95
96000 Off ch=1 n=66 v=64
96000 On ch=1 n=61 v=95
96480 Off ch=1 n=61 v=64
96480 On ch=1 n=71 v=95
96600 Off ch=1 n=71 v=64
96600 On ch=1 n=66 v=95
96720 Off ch=1 n=66 v=64
96720 On ch=1 n=68 v=95
96960 Off ch=1 n=68 v=64
96960 On ch=1 n=66 v=95
97080 Off ch=1 n=66 v=64
97080 On ch=1 n=64 v=95
97200 Off ch=1 n=64 v=64
97200 On ch=1 n=64 v=95
97440 Off ch=1 n=64 v=64
97440 On ch=1 n=61 v=95
97680 Off ch=1 n=61 v=64
97680 On ch=1 n=61 v=96
97920 Off ch=1 n=61 v=64
97920 On ch=1 n=71 v=96
98040 Off ch=1 n=71 v=64
98040 On ch=1 n=66 v=96
98160 Off ch=1 n=66 v=64
98160 On ch=1 n=68 v=96
98400 Off ch=1 n=68 v=64
98400 On ch=1 n=66 v=96
98520 Off ch=1 n=66 v=64
98520 On ch=1 n=64 v=96
98640 Off ch=1 n=64 v=64
98640 On ch=1 n=64 v=96
98880 Off ch=1 n=64 v=64
98880 On ch=1 n=61 v=96
99120 Off ch=1 n=61 v=64
99120 On ch=1 n=56 v=96
99360 Off ch=1 n=56 v=64
99360 On ch=1 n=59 v=96
99600 Off ch=1 n=59 v=64
99600 On ch=1 n=61 v=94
99840 Off ch=1 n=61 v=64
100560 On ch=1 n=64 v=94
100680 Off ch=1 n=64 v=64
100680 On ch=1 n=66 v=94
100800 Off ch=1 n=66 v=64
100800 On ch=1 n=68 v=94
101040 Off ch=1 n=68 v=64
101040 On ch=1 n=66 v=94
101160 Off ch=1 n=66 v=64
101160 On ch=1 n=64 v=94
101280 Off ch=1 n=64 v=64
101280 On ch=1 n=64 v=95
101520 Off ch=1 n=64 v=64
101520 On ch=1 n=66 v=95
101760 Off ch=1 n=66 v=64
101760 On ch=1 n=66 v=95
102240 Off ch=1 n=66 v=64
102480 On ch=1 n=64 v=95
102600 Off ch=1 n=64 v=64
102600 On ch=1 n=66 v=95
102720 Off ch=1 n=66 v=64
102720 On ch=1 n=68 v=96
102960 Off ch=1 n=68 v=64
102960 On ch=1 n=66 v=96
103080 Off ch=1 n=66 v=64
103080 On ch=1 n=64 v=96
103200 Off ch=1 n=64 v=64
103200 On ch=1 n=64 v=96
103440 Off ch=1 n=64 v=64
103440 On ch=1 n=66 v=96
103680 Off ch=1 n=66 v=64
103680 On ch=1 n=61 v=95
103920 Off ch=1 n=61 v=64
104400 On ch=1 n=64 v=95
104520 Off ch=1 n=64 v=64
104520 On ch=1 n=66 v=95
104640 Off ch=1 n=66 v=64
104640 On ch=1 n=68 v=94
104880 Off ch=1 n=68 v=64
104880 On ch=1 n=66 v=94
105000 Off ch=1 n=66 v=64
105000 On ch=1 n=61 v=94
105120 Off ch=1 n=61 v=64
105120 On ch=1 n=64 v=94
105360 Off ch=1 n=64 v=64
105360 On ch=1 n=66 v=93
105600 Off ch=1 n=66 v=64
105600 On ch=1 n=66 v=93
106080 Off ch=1 n=66 v=64
106320 On ch=1 n=64 v=93
106440 Off ch=1 n=64 v=64
106440 On ch=1 n=66 v=93
106560 Off ch=1 n=66 v=64
106560 On ch=1 n=68 v=93
106800 Off ch=1 n=68 v=64
106800 On ch=1 n=66 v=94
106920 Off ch=1 n=66 v=64
106920 On ch=1 n=64 v=94
107040 Off ch=1 n=64 v=64
107040 On ch=1 n=66 v=94
107400 Off ch=1 n=66 v=64
107400 On ch=1 n=61 v=94
108000 Off ch=1 n=61 v=64
108240 On ch=1 n=66 v=95
108480 Off ch=1 n=66 v=64
108480 On ch=1 n=68 v=95
108720 Off ch=1 n=68 v=64
108720 On ch=1 n=71 v=95
108840 Off ch=1 n=71 v=64
108840 On ch=1 n=68 v=95
108960 Off ch=1 n=68 v=64
108960 On ch=1 n=66 v=95
109200 Off ch=1 n=66 v=64
109200 On ch=1 n=64 v=95
109440 Off ch=1 n=64 v=64
109440 On ch=1 n=66 v=95
109920 Off ch=1 n=66 v=64
110160 On ch=1 n=64 v=95
110280 Off ch=1 n=64 v=64
110280 On ch=1 n=66 v=95
110400 Off ch=1 n=66 v=64
110400 On ch=1 n=68 v=95
110640 Off ch=1 n=68 v=64
110640 On ch=1 n=66 v=95
110760 Off ch=1 n=66 v=64
110760 On ch=1 n=64 v=95
110880 Off ch=1 n=64 v=64
110880 On ch=1 n=64 v=94
111120 Off ch=1 n=64 v=64
111120 On ch=1 n=66 v=94
111360 Off ch=1 n=66 v=64
111360 On ch=1 n=61 v=94
111600 Off ch=1 n=61 v=64
111600 On ch=1 n=61 v=94
111720 Off ch=1 n=61 v=64
111720 On ch=1 n=61 v=94
111840 Off ch=1 n=61 v=64
111840 On ch=1 n=61 v=94
111960 Off ch=1 n=61 v=64
111960 On ch=1 n=61 v=94
112080 Off ch=1 n=61 v=64
112080 On ch=1 n=64 v=94
112200 Off ch=1 n=64 v=64
112200 On ch=1 n=66 v=94
112320 Off ch=1 n=66 v=64
112320 On ch=1 n=68 v=95
112560 Off ch=1 n=68 v=64
112560 On ch=1 n=61 v=95
112800 Off ch=1 n=61 v=64
112800 On ch=1 n=64 v=95
113040 Off ch=1 n=64 v=64
113040 On ch=1 n=66 v=95
113280 Off ch=1 n=66 v=64
113280 On ch=1 n=66 v=96
113760 Off ch=1 n=66 v=64
114000 On ch=1 n=64 v=96
114120 Off ch=1 n=64 v=64
114120 On ch=1 n=66 v=96
114240 Off ch=1 n=66 v=64
114240 On ch=1 n=68 v=96
114480 Off ch=1 n=68 v=64
114480 On ch=1 n=66 v=96
114600 Off ch=1 n=66 v=64
114600 On ch=1 n=64 v=96
114720 Off ch=1 n=64 v=64
114720 On ch=1 n=66 v=96
115080 Off ch=1 n=66 v=64
115080 On ch=1 n=61 v=96
115200 Off ch=1 n=61 v=64
115200 On ch=1 n=61 v=96
115440 Off ch=1 n=61 v=64
115440 On ch=1 n=61 v=95
115680 Off ch=1 n=61 v=64
115680 On ch=1 n=64 v=94
115920 Off ch=1 n=64 v=64
115920 On ch=1 n=64 v=94
116160 Off ch=1 n=64 v=64
116160 On ch=1 n=66 v=94
116400 Off ch=1 n=66 v=64
116400 On ch=1 n=66 v=94
116640 Off ch=1 n=66 v=64
116640 On ch=1 n=68 v=93
116880 Off ch=1 n=68 v=64
116880 On ch=1 n=68 v=94
117120 Off ch=1 n=68 v=64
117840 On ch=1 n=64 v=94
117960 Off ch=1 n=64 v=64
117960 On ch=1 n=66 v=94
118080 Off ch=1 n=66 v=64
118080 On ch=1 n=68 v=95
118320 Off ch=1 n=68 v=64
118320 On ch=1 n=66 v=95
118440 Off ch=1 n=66 v=64
118440 On ch=1 n=64 v=95
118560 Off ch=1 n=64 v=64
118560 On ch=1 n=66 v=95
118920 Off ch=1 n=66 v=64
118920 On ch=1 n=61 v=95
119040 Off ch=1 n=61 v=64
119040 On ch=1 n=61 v=95
119280 Off ch=1 n=61 v=64
119280 On ch=1 n=61 v=95
119520 Off ch=1 n=61 v=64
119520 On ch=1 n=64 v=95
119760 Off ch=1 n=64 v=64
119760 On ch=1 n=64 v=96
120000 Off ch=1 n=64 v=64
120000 On ch=1 n=66 v=96
120240 Off ch=1 n=66 v=64
120240 On ch=1 n=66 v=96
120480 Off ch=1 n=66 v=64
120480 On ch=1 n=68 v=96
120720 Off ch=1 n=68 v=64
120720 On ch=1 n=68 v=96
120960 Off ch=1 n=68 v=64
121680 On ch=1 n=64 v=96
121800 Off ch=1 n=64 v=64
121800 On ch=1 n=66 v=96
121920 Off ch=1 n=66 v=64
121920 On ch=1 n=68 v=96
122160 Off ch=1 n=68 v=64
122160 On ch=1 n=66 v=96
122280 Off ch=1 n=66 v=64
122280 On ch=1 n=64 v=97
122400 Off ch=1 n=64 v=64
122400 On ch=1 n=66 v=97
122760 Off ch=1 n=66 v=64
122760 On ch=1 n=61 v=97
122880 Off ch=1 n=61 v=64
122880 On ch=1 n=61 v=96
123120 Off ch=1 n=61 v=64
123120 On ch=1 n=61 v=96
123360 Off ch=1 n=61 v=64
123360 On ch=1 n=64 v=95
123600 Off ch=1 n=64 v=64
123600 On ch=1 n=64 v=95
123840 Off ch=1 n=64 v=64
123840 On ch=1 n=66 v=95
124080 Off ch=1 n=66 v=64
124080 On ch=1 n=66 v=95
124320 Off ch=1 n=66 v=64
124320 On ch=1 n=68 v=95
124560 Off ch=1 n=68 v=64
124560 On ch=1 n=68 v=96
124800 Off ch=1 n=68 v=64
125520 On ch=1 n=64 v=96
125640 Off ch=1 n=64 v=64
125640 On ch=1 n=66 v=96
125760 Off ch=1 n=66 v=64
125760 On ch=1 n=68 v=96
126000 Off ch=1 n=68 v=64
126000 On ch=1 n=66 v=96
126120 Off ch=1 n=66 v=64
126120 On ch=1 n=64 v=96
126240 Off ch=1 n=64 v=64
126240 On ch=1 n=66 v=96
126600 Off ch=1 n=66 v=64
126600 On ch=1 n=61 v=96
126720 Off ch=1 n=61 v=64
126960 On ch=1 n=61 v=96
127080 Off ch=1 n=61 v=64
127080 On ch=1 n=61 v=96
127200 Off ch=1 n=61 v=64
127200 On ch=1 n=61 v=97
127320 Off ch=1 n=61 v=64
127320 On ch=1 n=61 v=97
127440 Off ch=1 n=61 v=64
127440 On ch=1 n=64 v=97
127560 Off ch=1 n=64 v=64
127560 On ch=1 n=66 v=97
127680 Off ch=1 n=66 v=64
127680 On ch=1 n=68 v=97
127920 Off ch=1 n=68 v=64
127920 On ch=1 n=61 v=97
128160 Off ch=1 n=61 v=64
128160 On ch=1 n=64 v=97
128400 Off ch=1 n=64 v=64
128400 On ch=1 n=66 v=97
128640 Off ch=1 n=66 v=64
128640 On ch=1 n=66 v=98
129120 Off ch=1 n=66 v=64
129360 On ch=1 n=64 v=98
129480 Off ch=1 n=64 v=64
129480 On ch=1 n=66 v=98
129600 Off ch=1 n=66 v=64
129600 On ch=1 n=68 v=98
129840 Off ch=1 n=68 v=64
129840 On ch=1 n=66 v=98
129960 Off ch=1 n=66 v=64
129960 On ch=1 n=64 v=98
130080 Off ch=1 n=64 v=64
130080 On ch=1 n=64 v=98
130320 Off ch=1 n=64 v=64
130320 On ch=1 n=66 v=98
130560 Off ch=1 n=66 v=64
130560 On ch=1 n=61 v=98
130800 Off ch=1 n=61 v=64
130800 On ch=1 n=68 v=97
130920 Off ch=1 n=68 v=64
130920 On ch=1 n=68 v=97
131160 Off ch=1 n=68 v=64
131160 On ch=1 n=66 v=97
131400 Off ch=1 n=66 v=64
131400 On ch=1 n=64 v=97
131520 Off ch=1 n=64 v=64
131520 On ch=1 n=66 v=96
131760 Off ch=1 n=66 v=64
131760 On ch=1 n=68 v=96
132000 Off ch=1 n=68 v=64
132000 On ch=1 n=61 v=96
132240 Off ch=1 n=61 v=64
132240 On ch=1 n=61 v=96
132480 Off ch=1 n=61 v=64
132720 On ch=1 n=68 v=96
132840 Off ch=1 n=68 v=64
132840 On ch=1 n=68 v=96
133080 Off ch=1 n=68 v=64
133080 On ch=1 n=66 v=96
133320 Off ch=1 n=66 v=64
133320 On ch=1 n=64 v=96
133440 Off ch=1 n=64 v=64
133440 On ch=1 n=66 v=96
133680 Off ch=1 n=66 v=64
133680 On ch=1 n=64 v=96
133920 Off ch=1 n=64 v=64
133920 On ch=1 n=61 v=96
134160 Off ch=1 n=61 v=64
134160 On ch=1 n=61 v=97
134400 Off ch=1 n=61 v=64
134640 On ch=1 n=68 v=97
134760 Off ch=1 n=68 v=64
134760 On ch=1 n=68 v=97
135000 Off ch=1 n=68 v=64
135000 On ch=1 n=66 v=98
135240 Off ch=1 n=66 v=64
135240 On ch=1 n=64 v=98
135360 Off ch=1 n=64 v=64
135360 On ch=1 n=66 v=98
135600 Off ch=1 n=66 v=64
135600 On ch=1 n=68 v=98
135840 Off ch=1 n=68 v=64
135840 On ch=1 n=61 v=98
136080 Off ch=1 n=61 v=64
136080 On ch=1 n=61 v=98
136320 Off ch=1 n=61 v=64
136560 On ch=1 n=68 v=98
136680 Off ch=1 n=68 v=64
136680 On ch=1 n=68 v=98
136920 Off ch=1 n=68 v=64
136920 On ch=1 n=66 v=98
137160 Off ch=1 n=66 v=64
137160 On ch=1 n=64 v=98
137280 Off ch=1 n=64 v=64
137280 On ch=1 n=66 v=98
137520 Off ch=1 n=66 v=64
137520 On ch=1 n=64 v=97
137760 Off ch=1 n=64 v=64
137760 On ch=1 n=61 v=97
138000 Off ch=1 n=61 v=64
138000 On ch=1 n=61 v=97
138240 Off ch=1 n=61 v=64
138480 On ch=1 n=68 v=97
138600 Off ch=1 n=68 v=64
138600 On ch=1 n=68 v=97
138840 Off ch=1 n=68 v=64
138840 On ch=1 n=66 v=97
139080 Off ch=1 n=66 v=64
139080 On ch=1 n=64 v=97
139200 Off ch=1 n=64 v=64
139200 On ch=1 n=66 v=97
139440 Off ch=1 n=66 v=64
139440 On ch=1 n=68 v=97
139680 Off ch=1 n=68 v=64
139680 On ch=1 n=61 v=97
139920 Off ch=1 n=61 v=64
139920 On ch=1 n=61 v=97
140160 Off ch=1 n=61 v=64
140400 On ch=1 n=68 v=97
140520 Off ch=1 n=68 v=64
140520 On ch=1 n=68 v=97
140760 Off ch=1 n=68 v=64
140760 On ch=1 n=66 v=97
141000 Off ch=1 n=66 v=64
141000 On ch=1 n=64 v=97
141120 Off ch=1 n=64 v=64
141120 On ch=1 n=66 v=97
141360 Off ch=1 n=66 v=64
141360 On ch=1 n=64 v=97
141600 Off ch=1 n=64 v=64
141600 On ch=1 n=61 v=97
141840 Off ch=1 n=61 v=64
141840 On ch=1 n=61 v=97
142080 Off ch=1 n=61 v=64
142320 On ch=1 n=68 v=97
142440 Off ch=1 n=68 v=64
142440 On ch=1 n=68 v=97
142680 Off ch=1 n=68 v=64
142680 On ch=1 n=66 v=97
142920 Off ch=1 n=66 v=64
142920 On ch=1 n=64 v=97
143040 Off ch=1 n=64 v=64
143040 On ch=1 n=66 v=97
143280 Off ch=1 n=66 v=64
143280 On ch=1 n=68 v=97
143520 Off ch=1 n=68 v=64
143520 On ch=1 n=61 v=97
143760 Off ch=1 n=61 v=64
143760 On ch=1 n=61 v=97
144000 Off ch=1 n=61 v=64
144240 On ch=1 n=68 v=96
144360 Off ch=1 n=68 v=64
144360 On ch=1 n=68 v=96
144600 Off ch=1 n=68 v=64
144600 On ch=1 n=66 v=96
144840 Off ch=1 n=66 v=64
144840 On ch=1 n=64 v=96
144960 Off ch=1 n=64 v=64
144960 On ch=1 n=66 v=96
145200 Off ch=1 n=66 v=64
145200 On ch=1 n=64 v=96
145440 Off ch=1 n=64 v=64
145440 On ch=1 n=61 v=96
145680 Off ch=1 n=61 v=64
145680 On ch=1 n=61 v=96
145920 Off ch=1 n=61 v=64
146640 On ch=1 n=64 v=96
146760 Off ch=1 n=64 v=64
146760 On ch=1 n=66 v=96
146880 Off ch=1 n=66 v=64
146880 On ch=1 n=68 v=97
147120 Off ch=1 n=68 v=64
147120 On ch=1 n=66 v=97
147240 Off ch=1 n=66 v=64
147240 On ch=1 n=64 v=97
147360 Off ch=1 n=64 v=64
147360 On ch=1 n=64 v=97
147600 Off ch=1 n=64 v=64
147600 On ch=1 n=66 v=97
147840 Off ch=1 n=66 v=64
147840 On ch=1 n=66 v=97
148320 Off ch=1 n=66 v=64
148560 On ch=1 n=64 v=97
148680 Off ch=1 n=64 v=64
148680 On ch=1 n=66 v=97
148800 Off ch=1 n=66 v=64
148800 On ch=1 n=68 v=97
149040 Off ch=1 n=68 v=64
149040 On ch=1 n=66 v=97
149160 Off ch=1 n=66 v=64
149160 On ch=1 n=64 v=97
149280 Off ch=1 n=64 v=64
149280 On ch=1 n=64 v=97
149520 Off ch=1 n=64 v=64
149520 On ch=1 n=66 v=97
149760 Off ch=1 n=66 v=64
149760 On ch=1 n=61 v=97
150240 Off ch=1 n=61 v=64
150480 On ch=1 n=64 v=97
150600 Off ch=1 n=64 v=64
150600 On ch=1 n=66 v=97
150720 Off ch=1 n=66 v=64
150720 On ch=1 n=68 v=96
150960 Off ch=1 n=68 v=64
150960 On ch=1 n=66 v=96
151080 Off ch=1 n=66 v=64
151080 On ch=1 n=61 v=96
151200 Off ch=1 n=61 v=64
151200 On ch=1 n=64 v=96
151440 Off ch=1 n=64 v=64
151440 On ch=1 n=66 v=96
151680 Off ch=1 n=66 v=64
151680 On ch=1 n=66 v=96
151920 Off ch=1 n=66 v=64
152400 On ch=1 n=64 v=96
152520 Off ch=1 n=64 v=64
152520 On ch=1 n=66 v=96
152640 Off ch=1 n=66 v=64
152640 On ch=1 n=68 v=96
152880 Off ch=1 n=68 v=64
152880 On ch=1 n=66 v=97
153000 Off ch=1 n=66 v=64
153000 On ch=1 n=64 v=97
153120 Off ch=1 n=64 v=64
153120 On ch=1 n=66 v=97
153480 Off ch=1 n=66 v=64
153480 On ch=1 n=61 v=96
154080 Off ch=1 n=61 v=64
154320 On ch=1 n=66 v=96
154560 Off ch=1 n=66 v=64
154560 On ch=1 n=68 v=96
154800 Off ch=1 n=68 v=64
154800 On ch=1 n=71 v=96
154920 Off ch=1 n=71 v=64
154920 On ch=1 n=68 v=96
155040 Off ch=1 n=68 v=64
155040 On ch=1 n=66 v=96
155280 Off ch=1 n=66 v=64
155280 On ch=1 n=64 v=96
155520 Off ch=1 n=64 v=64
155520 On ch=1 n=66 v=96
156000 Off ch=1 n=66 v=64
156240 On ch=1 n=64 v=96
156360 Off ch=1 n=64 v=64
156360 On ch=1 n=66 v=96
156480 Off ch=1 n=66 v=64
156480 On ch=1 n=68 v=96
156720 Off ch=1 n=68 v=64
156720 On ch=1 n=66 v=96
156960 Off ch=1 n=66 v=64
156960 On ch=1 n=64 v=96
157200 Off ch=1 n=64 v=64
157200 On ch=1 n=66 v=96
157440 Off ch=1 n=66 v=64
157440 On ch=1 n=61 v=96
157680 Off ch=1 n=61 v=64
157680 On ch=1 n=61 v=96
157800 Off ch=1 n=61 v=64
157800 On ch=1 n=61 v=96
157920 Off ch=1 n=61 v=64
157920 On ch=1 n=61 v=96
158040 Off ch=1 n=61 v=64
158040 On ch=1 n=61 v=96
158160 Off ch=1 n=61 v=64
158160 On ch=1 n=64 v=96
158280 Off ch=1 n=64 v=64
158280 On ch=1 n=66 v=96
158400 Off ch=1 n=66 v=64
158400 On ch=1 n=68 v=96
158640 Off ch=1 n=68 v=64
158640 On ch=1 n=61 v=96
158880 Off ch=1 n=61 v=64
158880 On ch=1 n=64 v=96
159120 Off ch=1 n=64 v=64
159120 On ch=1 n=66 v=96
159360 Off ch=1 n=66 v=64
159360 On ch=1 n=66 v=96
159840 Off ch=1 n=66 v=64
160080 On ch=1 n=64 v=96
160200 Off ch=1 n=64 v=64
160200 On ch=1 n=66 v=96
160320 Off ch=1 n=66 v=64
160320 On ch=1 n=68 v=96
160560 Off ch=1 n=68 v=64
160560 On ch=1 n=66 v=96
160680 Off ch=1 n=66 v=64
160680 On ch=1 n=64 v=95
160800 Off ch=1 n=64 v=64
160800 On ch=1 n=66 v=95
161160 Off ch=1 n=66 v=64
161160 On ch=1 n=61 v=95
161520 Off ch=1 n=61 v=64
161520 On ch=1 n=68 v=95
161640 Off ch=1 n=68 v=64
161640 On ch=1 n=68 v=95
161880 Off ch=1 n=68 v=64
161880 On ch=1 n=66 v=95
162120 Off ch=1 n=66 v=64
162120 On ch=1 n=64 v=95
162240 Off ch=1 n=64 v=64
162240 On ch=1 n=66 v=95
162480 Off ch=1 n=66 v=64
162480 On ch=1 n=68 v=95
162720 Off ch=1 n=68 v=64
162720 On ch=1 n=61 v=95
162960 Off ch=1 n=61 v=64
162960 On ch=1 n=61 v=96
163200 Off ch=1 n=61 v=64
163920 On ch=1 n=64 v=96
164040 Off ch=1 n=64 v=64
164040 On ch=1 n=66 v=96
164160 Off ch=1 n=66 v=64
164160 On ch=1 n=68 v=97
164400 Off ch=1 n=68 v=64
164400 On ch=1 n=66 v=97
164520 Off ch=1 n=66 v=64
164520 On ch=1 n=64 v=97
164640 Off ch=1 n=64 v=64
164640 On ch=1 n=66 v=97
165000 Off ch=1 n=66 v=64
165000 On ch=1 n=61 v=97
165360 Off ch=1 n=61 v=64
165360 On ch=1 n=68 v=97
165480 Off ch=1 n=68 v=64
165480 On ch=1 n=68 v=97
165720 Off ch=1 n=68 v=64
165720 On ch=1 n=66 v=97
165960 Off ch=1 n=66 v=64
165960 On ch=1 n=64 v=97
166080 Off ch=1 n=64 v=64
166080 On ch=1 n=66 v=96
166320 Off ch=1 n=66 v=64
166320 On ch=1 n=68 v=95
166560 Off ch=1 n=68 v=64
166560 On ch=1 n=61 v=95
166800 Off ch=1 n=61 v=64
166800 On ch=1 n=61 v=95
167040 Off ch=1 n=61 v=64
167760 On ch=1 n=64 v=96
167880 Off ch=1 n=64 v=64
167880 On ch=1 n=66 v=96
168000 Off ch=1 n=66 v=64
168000 On ch=1 n=68 v=96
168240 Off ch=1 n=68 v=64
168240 On ch=1 n=66 v=96
168360 Off ch=1 n=66 v=64
168360 On ch=1 n=64 v=96
168480 Off ch=1 n=64 v=64
168480 On ch=1 n=66 v=96
168840 Off ch=1 n=66 v=64
168840 On ch=1 n=61 v=95
169200 Off ch=1 n=61 v=64
169200 On ch=1 n=68 v=95
169320 Off ch=1 n=68 v=64
169320 On ch=1 n=68 v=95
169560 Off ch=1 n=68 v=64
169560 On ch=1 n=66 v=95
169800 Off ch=1 n=66 v=64
169800 On ch=1 n=64 v=95
169920 Off ch=1 n=64 v=64
169920 On ch=1 n=66 v=94
170160 Off ch=1 n=66 v=64
170160 On ch=1 n=68 v=94
170400 Off ch=1 n=68 v=64
170400 On ch=1 n=61 v=94
170640 Off ch=1 n=61 v=64
170640 On ch=1 n=61 v=96
170880 Off ch=1 n=61 v=64
171600 On ch=1 n=64 v=96
171720 Off ch=1 n=64 v=64
171720 On ch=1 n=66 v=96
171840 Off ch=1 n=66 v=64
171840 On ch=1 n=68 v=96
172080 Off ch=1 n=68 v=64
172080 On ch=1 n=66 v=96
172200 Off ch=1 n=66 v=64
172200 On ch=1 n=64 v=96
172320 Off ch=1 n=64 v=64
172320 On ch=1 n=66 v=97
172680 Off ch=1 n=66 v=64
172680 On ch=1 n=61 v=97
173040 Off ch=1 n=61 v=64
173040 On ch=1 n=61 v=97
173160 Off ch=1 n=61 v=64
173160 On ch=1 n=61 v=96
173280 Off ch=1 n=61 v=64
173280 On ch=1 n=61 v=96
173400 Off ch=1 n=61 v=64
173400 On ch=1 n=61 v=96
173520 Off ch=1 n=61 v=64
173520 On ch=1 n=64 v=96
173640 Off ch=1 n=64 v=64
173640 On ch=1 n=66 v=96
173760 Off ch=1 n=66 v=64
173760 On ch=1 n=68 v=95
174000 Off ch=1 n=68 v=64
174000 On ch=1 n=61 v=95
174240 Off ch=1 n=61 v=64
174240 On ch=1 n=64 v=94
174480 Off ch=1 n=64 v=64
174480 On ch=1 n=66 v=94
174720 Off ch=1 n=66 v=64
174720 On ch=1 n=66 v=94
175200 Off ch=1 n=66 v=64
175440 On ch=1 n=64 v=94
175560 Off ch=1 n=64 v=64
175560 On ch=1 n=66 v=94
175680 Off ch=1 n=66 v=64
175680 On ch=1 n=68 v=94
175920 Off ch=1 n=68 v=64
175920 On ch=1 n=66 v=94
176040 Off ch=1 n=66 v=64
176040 On ch=1 n=64 v=94
176160 Off ch=1 n=64 v=64
176160 On ch=1 n=66 v=94
176400 Off ch=1 n=66 v=64
176400 On ch=1 n=66 v=94
176640 Off ch=1 n=66 v=64
176640 On ch=1 n=61 v=95
178560 Off ch=1 n=61 v=64
178560 Meta TrkEnd
TrkEnd
MTrk
0 Meta TrkName "MIDI 02"
0 On ch=1 n=49 v=95
360 Off ch=1 n=49 v=0
360 On ch=1 n=49 v=78
720 Off ch=1 n=49 v=0
720 On ch=1 n=49 v=76
960 Off ch=1 n=49 v=0
960 On ch=1 n=42 v=86
1320 Off ch=1 n=42 v=0
1320 On ch=1 n=42 v=84
1680 Off ch=1 n=42 v=0
1680 On ch=1 n=42 v=86
1920 Off ch=1 n=42 v=0
1920 On ch=1 n=45 v=86
2280 Off ch=1 n=45 v=0
2280 On ch=1 n=45 v=90
2640 Off ch=1 n=45 v=0
2640 On ch=1 n=45 v=84
2880 Off ch=1 n=45 v=0
2880 On ch=1 n=47 v=79
3240 Off ch=1 n=47 v=0
3240 On ch=1 n=47 v=84
3600 Off ch=1 n=47 v=0
3600 On ch=1 n=47 v=82
3840 Off ch=1 n=47 v=0
3840 On ch=1 n=49 v=86
4200 Off ch=1 n=49 v=0
4200 On ch=1 n=49 v=80
4560 Off ch=1 n=49 v=0
4560 On ch=1 n=49 v=79
4800 Off ch=1 n=49 v=0
4800 On ch=1 n=42 v=79
5160 Off ch=1 n=42 v=0
5160 On ch=1 n=42 v=86
5520 Off ch=1 n=42 v=0
5520 On ch=1 n=42 v=86
5760 Off ch=1 n=42 v=0
5760 On ch=1 n=45 v=90
6120 Off ch=1 n=45 v=0
6120 On ch=1 n=45 v=84
6480 Off ch=1 n=45 v=0
6480 On ch=1 n=45 v=84
6720 Off ch=1 n=45 v=0
6720 On ch=1 n=47 v=83
7080 Off ch=1 n=47 v=0
7080 On ch=1 n=47 v=84
7440 Off ch=1 n=47 v=0
7440 On ch=1 n=47 v=80
7678 Off ch=1 n=47 v=0
7680 On ch=1 n=49 v=84
8040 Off ch=1 n=49 v=0
8040 On ch=1 n=49 v=82
8400 Off ch=1 n=49 v=0
8400 On ch=1 n=49 v=76
8640 Off ch=1 n=49 v=0
8640 On ch=1 n=42 v=90
9000 Off ch=1 n=42 v=0
9000 On ch=1 n=42 v=90
9360 Off ch=1 n=42 v=0
9360 On ch=1 n=42 v=86
9600 Off ch=1 n=42 v=0
9600 On ch=1 n=45 v=98
9960 Off ch=1 n=45 v=0
9960 On ch=1 n=45 v=91
10320 Off ch=1 n=45 v=0
10320 On ch=1 n=45 v=86
10560 Off ch=1 n=45 v=0
10560 On ch=1 n=47 v=84
10920 Off ch=1 n=47 v=0
10920 On ch=1 n=47 v=83
11280 Off ch=1 n=47 v=0
11280 On ch=1 n=47 v=90
11520 Off ch=1 n=47 v=0
11520 On ch=1 n=49 v=95
11880 Off ch=1 n=49 v=0
11880 On ch=1 n=49 v=78
12240 Off ch=1 n=49 v=0
12240 On ch=1 n=49 v=76
12480 Off ch=1 n=49 v=0
12480 On ch=1 n=42 v=86
12840 Off ch=1 n=42 v=0
12840 On ch=1 n=42 v=84
13200 Off ch=1 n=42 v=0
13200 On ch=1 n=42 v=86
13440 Off ch=1 n=42 v=0
13440 On ch=1 n=45 v=86
13800 Off ch=1 n=45 v=0
13800 On ch=1 n=45 v=90
14160 Off ch=1 n=45 v=0
14160 On ch=1 n=45 v=84
14400 Off ch=1 n=45 v=0
14400 On ch=1 n=47 v=79
14760 Off ch=1 n=47 v=0
14760 On ch=1 n=47 v=84
15120 Off ch=1 n=47 v=0
15120 On ch=1 n=47 v=82
15360 Off ch=1 n=47 v=0
15360 On ch=1 n=49 v=86
15720 Off ch=1 n=49 v=0
15720 On ch=1 n=49 v=80
16080 Off ch=1 n=49 v=0
16080 On ch=1 n=49 v=79
16320 Off ch=1 n=49 v=0
16320 On ch=1 n=42 v=79
16680 Off ch=1 n=42 v=0
16680 On ch=1 n=42 v=86
17040 Off ch=1 n=42 v=0
17040 On ch=1 n=42 v=86
17280 Off ch=1 n=42 v=0
17280 On ch=1 n=45 v=90
17640 Off ch=1 n=45 v=0
17640 On ch=1 n=45 v=84
18000 Off ch=1 n=45 v=0
18000 On ch=1 n=45 v=84
18240 Off ch=1 n=45 v=0
18240 On ch=1 n=47 v=83
18600 Off ch=1 n=47 v=0
18600 On ch=1 n=47 v=84
18960 Off ch=1 n=47 v=0
18960 On ch=1 n=47 v=80
19198 Off ch=1 n=47 v=0
19200 On ch=1 n=49 v=84
19560 Off ch=1 n=49 v=0
19560 On ch=1 n=49 v=82
19920 Off ch=1 n=49 v=0
19920 On ch=1 n=49 v=76
20160 Off ch=1 n=49 v=0
20160 On ch=1 n=42 v=90
20520 Off ch=1 n=42 v=0
20520 On ch=1 n=42 v=90
20880 Off ch=1 n=42 v=0
20880 On ch=1 n=42 v=86
21120 Off ch=1 n=42 v=0
21120 On ch=1 n=45 v=98
21480 Off ch=1 n=45 v=0
21480 On ch=1 n=45 v=91
21840 Off ch=1 n=45 v=0
21840 On ch=1 n=45 v=86
22080 Off ch=1 n=45 v=0
22080 On ch=1 n=47 v=84
22440 Off ch=1 n=47 v=0
22440 On ch=1 n=47 v=83
22800 Off ch=1 n=47 v=0
22800 On ch=1 n=47 v=90
23040 Off ch=1 n=47 v=0
23040 On ch=1 n=49 v=95
23400 Off ch=1 n=49 v=0
23400 On ch=1 n=49 v=78
23760 Off ch=1 n=49 v=0
23760 On ch=1 n=49 v=76
24000 Off ch=1 n=49 v=0
24000 On ch=1 n=42 v=86
24360 Off ch=1 n=42 v=0
24360 On ch=1 n=42 v=84
24720 Off ch=1 n=42 v=0
24720 On ch=1 n=42 v=86
24960 Off ch=1 n=42 v=0
24960 On ch=1 n=45 v=86
25320 Off ch=1 n=45 v=0
25320 On ch=1 n=45 v=90
25680 Off ch=1 n=45 v=0
25680 On ch=1 n=45 v=84
25920 Off ch=1 n=45 v=0
25920 On ch=1 n=47 v=79
26280 Off ch=1 n=47 v=0
26280 On ch=1 n=47 v=84
26640 Off ch=1 n=47 v=0
26640 On ch=1 n=47 v=82
26880 Off ch=1 n=47 v=0
26880 On ch=1 n=49 v=86
27240 Off ch=1 n=49 v=0
27240 On ch=1 n=49 v=80
27600 Off ch=1 n=49 v=0
27600 On ch=1 n=49 v=79
27840 Off ch=1 n=49 v=0
27840 On ch=1 n=42 v=79
28200 Off ch=1 n=42 v=0
28200 On ch=1 n=42 v=86
28560 Off ch=1 n=42 v=0
28560 On ch=1 n=42 v=86
28800 Off ch=1 n=42 v=0
28800 On ch=1 n=45 v=90
29160 Off ch=1 n=45 v=0
29160 On ch=1 n=45 v=84
29520 Off ch=1 n=45 v=0
29520 On ch=1 n=45 v=84
29760 Off ch=1 n=45 v=0
29760 On ch=1 n=47 v=83
30120 Off ch=1 n=47 v=0
30120 On ch=1 n=47 v=84
30480 Off ch=1 n=47 v=0
30480 On ch=1 n=47 v=80
30718 Off ch=1 n=47 v=0
30720 On ch=1 n=49 v=84
31080 Off ch=1 n=49 v=0
31080 On ch=1 n=49 v=82
31440 Off ch=1 n=49 v=0
31440 On ch=1 n=49 v=76
31680 Off ch=1 n=49 v=0
31680 On ch=1 n=42 v=90
32040 Off ch=1 n=42 v=0
32040 On ch=1 n=42 v=90
32400 Off ch=1 n=42 v=0
32400 On ch=1 n=42 v=86
32640 Off ch=1 n=42 v=0
32640 On ch=1 n=45 v=98
33000 Off ch=1 n=45 v=0
33000 On ch=1 n=45 v=91
33360 Off ch=1 n=45 v=0
33360 On ch=1 n=45 v=86
33600 Off ch=1 n=45 v=0
33600 On ch=1 n=47 v=84
33960 Off ch=1 n=47 v=0
33960 On ch=1 n=47 v=83
34320 Off ch=1 n=47 v=0
34320 On ch=1 n=47 v=90
34560 Off ch=1 n=47 v=0
34560 On ch=1 n=49 v=95
34920 Off ch=1 n=49 v=0
34920 On ch=1 n=49 v=78
35280 Off ch=1 n=49 v=0
35280 On ch=1 n=49 v=76
35520 Off ch=1 n=49 v=0
35520 On ch=1 n=42 v=86
35880 Off ch=1 n=42 v=0
35880 On ch=1 n=42 v=84
36240 Off ch=1 n=42 v=0
36240 On ch=1 n=42 v=86
36480 Off ch=1 n=42 v=0
36480 On ch=1 n=45 v=86
36840 Off ch=1 n=45 v=0
36840 On ch=1 n=45 v=90
37200 Off ch=1 n=45 v=0
37200 On ch=1 n=45 v=84
37440 Off ch=1 n=45 v=0
37440 On ch=1 n=47 v=79
37800 Off ch=1 n=47 v=0
37800 On ch=1 n=47 v=84
38160 Off ch=1 n=47 v=0
38160 On ch=1 n=47 v=82
38400 Off ch=1 n=47 v=0
38400 On ch=1 n=49 v=86
38760 Off ch=1 n=49 v=0
38760 On ch=1 n=49 v=80
39120 Off ch=1 n=49 v=0
39120 On ch=1 n=49 v=79
39360 Off ch=1 n=49 v=0
39360 On ch=1 n=42 v=79
39720 Off ch=1 n=42 v=0
39720 On ch=1 n=42 v=86
40080 Off ch=1 n=42 v=0
40080 On ch=1 n=42 v=86
40320 Off ch=1 n=42 v=0
40320 On ch=1 n=45 v=90
40680 Off ch=1 n=45 v=0
40680 On ch=1 n=45 v=84
41040 Off ch=1 n=45 v=0
41040 On ch=1 n=45 v=84
41280 Off ch=1 n=45 v=0
41280 On ch=1 n=47 v=83
41640 Off ch=1 n=47 v=0
41640 On ch=1 n=47 v=84
42000 Off ch=1 n=47 v=0
42000 On ch=1 n=47 v=80
42238 Off ch=1 n=47 v=0
42240 On ch=1 n=49 v=84
42600 Off ch=1 n=49 v=0
42600 On ch=1 n=49 v=82
42960 Off ch=1 n=49 v=0
42960 On ch=1 n=49 v=76
43200 Off ch=1 n=49 v=0
43200 On ch=1 n=42 v=90
43560 Off ch=1 n=42 v=0
43560 On ch=1 n=42 v=90
43920 Off ch=1 n=42 v=0
43920 On ch=1 n=42 v=86
44160 Off ch=1 n=42 v=0
44160 On ch=1 n=45 v=98
44520 Off ch=1 n=45 v=0
44520 On ch=1 n=45 v=91
44880 Off ch=1 n=45 v=0
44880 On ch=1 n=45 v=86
45120 Off ch=1 n=45 v=0
45120 On ch=1 n=47 v=84
45480 Off ch=1 n=47 v=0
45480 On ch=1 n=47 v=83
45840 Off ch=1 n=47 v=0
45840 On ch=1 n=47 v=90
46080 Off ch=1 n=47 v=0
46080 On ch=1 n=49 v=95
46440 Off ch=1 n=49 v=0
46440 On ch=1 n=49 v=78
46800 Off ch=1 n=49 v=0
46800 On ch=1 n=49 v=76
47040 Off ch=1 n=49 v=0
47040 On ch=1 n=42 v=86
47400 Off ch=1 n=42 v=0
47400 On ch=1 n=42 v=84
47760 Off ch=1 n=42 v=0
47760 On ch=1 n=42 v=86
48000 Off ch=1 n=42 v=0
48000 On ch=1 n=45 v=86
48360 Off ch=1 n=45 v=0
48360 On ch=1 n=45 v=90
48720 Off ch=1 n=45 v=0
48720 On ch=1 n=45 v=84
48960 Off ch=1 n=45 v=0
48960 On ch=1 n=47 v=79
49320 Off ch=1 n=47 v=0
49320 On ch=1 n=47 v=84
49680 Off ch=1 n=47 v=0
49680 On ch=1 n=47 v=82
49920 Off ch=1 n=47 v=0
49920 On ch=1 n=49 v=86
50280 Off ch=1 n=49 v=0
50280 On ch=1 n=49 v=80
50640 Off ch=1 n=49 v=0
50640 On ch=1 n=49 v=79
50880 Off ch=1 n=49 v=0
50880 On ch=1 n=42 v=79
51240 Off ch=1 n=42 v=0
51240 On ch=1 n=42 v=86
51600 Off ch=1 n=42 v=0
51600 On ch=1 n=42 v=86
51840 Off ch=1 n=42 v=0
51840 On ch=1 n=45 v=90
52200 Off ch=1 n=45 v=0
52200 On ch=1 n=45 v=84
52560 Off ch=1 n=45 v=0
52560 On ch=1 n=45 v=84
52800 Off ch=1 n=45 v=0
52800 On ch=1 n=47 v=83
53160 Off ch=1 n=47 v=0
53160 On ch=1 n=47 v=84
53520 Off ch=1 n=47 v=0
53520 On ch=1 n=47 v=80
53758 Off ch=1 n=47 v=0
53760 On ch=1 n=49 v=84
54120 Off ch=1 n=49 v=0
54120 On ch=1 n=49 v=82
54480 Off ch=1 n=49 v=0
54480 On ch=1 n=49 v=76
54720 Off ch=1 n=49 v=0
54720 On ch=1 n=42 v=90
55080 Off ch=1 n=42 v=0
55080 On ch=1 n=42 v=90
55440 Off ch=1 n=42 v=0
55440 On ch=1 n=42 v=86
55680 Off ch=1 n=42 v=0
55680 On ch=1 n=45 v=98
56040 Off ch=1 n=45 v=0
56040 On ch=1 n=45 v=91
56400 Off ch=1 n=45 v=0
56400 On ch=1 n=45 v=86
56640 Off ch=1 n=45 v=0
56640 On ch=1 n=47 v=84
57000 Off ch=1 n=47 v=0
57000 On ch=1 n=47 v=83
57360 Off ch=1 n=47 v=0
57360 On ch=1 n=47 v=90
57600 Off ch=1 n=47 v=0
57600 On ch=1 n=49 v=95
57960 Off ch=1 n=49 v=0
57960 On ch=1 n=49 v=78
58320 Off ch=1 n=49 v=0
58320 On ch=1 n=49 v=76
58560 Off ch=1 n=49 v=0
58560 On ch=1 n=42 v=86
58920 Off ch=1 n=42 v=0
58920 On ch=1 n=42 v=84
59280 Off ch=1 n=42 v=0
59280 On ch=1 n=42 v=86
59520 Off ch=1 n=42 v=0
59520 On ch=1 n=45 v=86
59880 Off ch=1 n=45 v=0
59880 On ch=1 n=45 v=90
60240 Off ch=1 n=45 v=0
60240 On ch=1 n=45 v=84
60480 Off ch=1 n=45 v=0
60480 On ch=1 n=47 v=79
60840 Off ch=1 n=47 v=0
60840 On ch=1 n=47 v=84
61200 Off ch=1 n=47 v=0
61200 On ch=1 n=47 v=82
61440 Off ch=1 n=47 v=0
61440 On ch=1 n=49 v=86
61800 Off ch=1 n=49 v=0
61800 On ch=1 n=49 v=80
62160 Off ch=1 n=49 v=0
62160 On ch=1 n=49 v=79
62400 Off ch=1 n=49 v=0
62400 On ch=1 n=42 v=79
62760 Off ch=1 n=42 v=0
62760 On ch=1 n=42 v=86
63120 Off ch=1 n=42 v=0
63120 On ch=1 n=42 v=86
63360 Off ch=1 n=42 v=0
63360 On ch=1 n=45 v=90
63720 Off ch=1 n=45 v=0
63720 On ch=1 n=45 v=84
64080 Off ch=1 n=45 v=0
64080 On ch=1 n=45 v=84
64320 Off ch=1 n=45 v=0
64320 On ch=1 n=47 v=83
64680 Off ch=1 n=47 v=0
64680 On ch=1 n=47 v=84
65040 Off ch=1 n=47 v=0
65040 On ch=1 n=47 v=80
65278 Off ch=1 n=47 v=0
65280 On ch=1 n=49 v=84
65640 Off ch=1 n=49 v=0
65640 On ch=1 n=49 v=82
66000 Off ch=1 n=49 v=0
66000 On ch=1 n=49 v=76
66240 Off ch=1 n=49 v=0
66240 On ch=1 n=42 v=90
66600 Off ch=1 n=42 v=0
66600 On ch=1 n=42 v=90
66960 Off ch=1 n=42 v=0
66960 On ch=1 n=42 v=86
67200 Off ch=1 n=42 v=0
67200 On ch=1 n=45 v=98
67560 Off ch=1 n=45 v=0
67560 On ch=1 n=45 v=91
67920 Off ch=1 n=45 v=0
67920 On ch=1 n=45 v=86
68160 Off ch=1 n=45 v=0
68160 On ch=1 n=47 v=84
68520 Off ch=1 n=47 v=0
68520 On ch=1 n=47 v=83
68880 Off ch=1 n=47 v=0
68880 On ch=1 n=47 v=90
69120 Off ch=1 n=47 v=0
69120 On ch=1 n=49 v=95
69480 Off ch=1 n=49 v=0
69480 On ch=1 n=49 v=78
69840 Off ch=1 n=49 v=0
69840 On ch=1 n=49 v=76
70080 Off ch=1 n=49 v=0
70080 On ch=1 n=42 v=86
70440 Off ch=1 n=42 v=0
70440 On ch=1 n=42 v=84
70800 Off ch=1 n=42 v=0
70800 On ch=1 n=42 v=86
71040 Off ch=1 n=42 v=0
71040 On ch=1 n=45 v=86
71400 Off ch=1 n=45 v=0
71400 On ch=1 n=45 v=90
71760 Off ch=1 n=45 v=0
71760 On ch=1 n=45 v=84
72000 Off ch=1 n=45 v=0
72000 On ch=1 n=47 v=79
72360 Off ch=1 n=47 v=0
72360 On ch=1 n=47 v=84
72720 Off ch=1 n=47 v=0
72720 On ch=1 n=47 v=82
72960 Off ch=1 n=47 v=0
72960 On ch=1 n=49 v=86
73320 Off ch=1 n=49 v=0
73320 On ch=1 n=49 v=80
73680 Off ch=1 n=49 v=0
73680 On ch=1 n=49 v=79
73920 Off ch=1 n=49 v=0
73920 On ch=1 n=42 v=79
74280 Off ch=1 n=42 v=0
74280 On ch=1 n=42 v=86
74640 Off ch=1 n=42 v=0
74640 On ch=1 n=42 v=86
74880 Off ch=1 n=42 v=0
74880 On ch=1 n=45 v=90
75240 Off ch=1 n=45 v=0
75240 On ch=1 n=45 v=84
75600 Off ch=1 n=45 v=0
75600 On ch=1 n=45 v=84
75840 Off ch=1 n=45 v=0
75840 On ch=1 n=47 v=83
76200 Off ch=1 n=47 v=0
76200 On ch=1 n=47 v=84
76560 Off ch=1 n=47 v=0
76560 On ch=1 n=47 v=80
76798 Off ch=1 n=47 v=0
76800 On ch=1 n=49 v=84
77160 Off ch=1 n=49 v=0
77160 On ch=1 n=49 v=82
77520 Off ch=1 n=49 v=0
77520 On ch=1 n=49 v=76
77760 Off ch=1 n=49 v=0
77760 On ch=1 n=42 v=90
78120 Off ch=1 n=42 v=0
78120 On ch=1 n=42 v=90
78480 Off ch=1 n=42 v=0
78480 On ch=1 n=42 v=86
78720 Off ch=1 n=42 v=0
78720 On ch=1 n=45 v=98
79080 Off ch=1 n=45 v=0
79080 On ch=1 n=45 v=91
79440 Off ch=1 n=45 v=0
79440 On ch=1 n=45 v=86
79680 Off ch=1 n=45 v=0
79680 On ch=1 n=47 v=84
80040 Off ch=1 n=47 v=0
80040 On ch=1 n=47 v=83
80400 Off ch=1 n=47 v=0
80400 On ch=1 n=47 v=90
80640 Off ch=1 n=47 v=0
80640 On ch=1 n=49 v=95
81000 Off ch=1 n=49 v=0
81000 On ch=1 n=49 v=78
81360 Off ch=1 n=49 v=0
81360 On ch=1 n=49 v=76
81600 Off ch=1 n=49 v=0
81600 On ch=1 n=42 v=86
81960 Off ch=1 n=42 v=0
81960 On ch=1 n=42 v=84
82320 Off ch=1 n=42 v=0
82320 On ch=1 n=42 v=86
82560 Off ch=1 n=42 v=0
82560 On ch=1 n=45 v=86
82920 Off ch=1 n=45 v=0
82920 On ch=1 n=45 v=90
83280 Off ch=1 n=45 v=0
83280 On ch=1 n=45 v=84
83520 Off ch=1 n=45 v=0
83520 On ch=1 n=47 v=79
83880 Off ch=1 n=47 v=0
83880 On ch=1 n=47 v=84
84240 Off ch=1 n=47 v=0
84240 On ch=1 n=47 v=82
84480 Off ch=1 n=47 v=0
84480 On ch=1 n=49 v=86
84840 Off ch=1 n=49 v=0
84840 On ch=1 n=49 v=80
85200 Off ch=1 n=49 v=0
85200 On ch=1 n=49 v=79
85440 Off ch=1 n=49 v=0
85440 On ch=1 n=42 v=79
85800 Off ch=1 n=42 v=0
85800 On ch=1 n=42 v=86
86160 Off ch=1 n=42 v=0
86160 On ch=1 n=42 v=86
86400 Off ch=1 n=42 v=0
86400 On ch=1 n=45 v=90
86760 Off ch=1 n=45 v=0
86760 On ch=1 n=45 v=84
87120 Off ch=1 n=45 v=0
87120 On ch=1 n=45 v=84
87360 Off ch=1 n=45 v=0
87360 On ch=1 n=47 v=83
87720 Off ch=1 n=47 v=0
87720 On ch=1 n=47 v=84
88080 Off ch=1 n=47 v=0
88080 On ch=1 n=47 v=80
88318 Off ch=1 n=47 v=0
88320 On ch=1 n=49 v=84
88680 Off ch=1 n=49 v=0
88680 On ch=1 n=49 v=82
89040 Off ch=1 n=49 v=0
89040 On ch=1 n=49 v=76
89280 Off ch=1 n=49 v=0
89280 On ch=1 n=42 v=90
89640 Off ch=1 n=42 v=0
89640 On ch=1 n=42 v=90
90000 Off ch=1 n=42 v=0
90000 On ch=1 n=42 v=86
90240 Off ch=1 n=42 v=0
90240 On ch=1 n=45 v=98
90600 Off ch=1 n=45 v=0
90600 On ch=1 n=45 v=91
90960 Off ch=1 n=45 v=0
90960 On ch=1 n=45 v=86
91200 Off ch=1 n=45 v=0
91200 On ch=1 n=47 v=84
91560 Off ch=1 n=47 v=0
91560 On ch=1 n=47 v=83
91920 Off ch=1 n=47 v=0
91920 On ch=1 n=47 v=90
92160 Off ch=1 n=47 v=0
92160 On ch=1 n=49 v=95
92520 Off ch=1 n=49 v=0
92520 On ch=1 n=49 v=78
92880 Off ch=1 n=49 v=0
92880 On ch=1 n=49 v=76
93120 Off ch=1 n=49 v=0
93120 On ch=1 n=42 v=86
93480 Off ch=1 n=42 v=0
93480 On ch=1 n=42 v=84
93840 Off ch=1 n=42 v=0
93840 On ch=1 n=42 v=86
94080 Off ch=1 n=42 v=0
94080 On ch=1 n=45 v=86
94440 Off ch=1 n=45 v=0
94440 On ch=1 n=45 v=90
94800 Off ch=1 n=45 v=0
94800 On ch=1 n=45 v=84
95040 Off ch=1 n=45 v=0
95040 On ch=1 n=47 v=79
95400 Off ch=1 n=47 v=0
95400 On ch=1 n=47 v=84
95760 Off ch=1 n=47 v=0
95760 On ch=1 n=47 v=82
96000 Off ch=1 n=47 v=0
96000 On ch=1 n=49 v=86
96360 Off ch=1 n=49 v=0
96360 On ch=1 n=49 v=80
96720 Off ch=1 n=49 v=0
96720 On ch=1 n=49 v=79
96960 Off ch=1 n=49 v=0
96960 On ch=1 n=42 v=79
97320 Off ch=1 n=42 v=0
97320 On ch=1 n=42 v=86
97680 Off ch=1 n=42 v=0
97680 On ch=1 n=42 v=86
97920 Off ch=1 n=42 v=0
97920 On ch=1 n=45 v=90
98280 Off ch=1 n=45 v=0
98280 On ch=1 n=45 v=84
98640 Off ch=1 n=45 v=0
98640 On ch=1 n=45 v=84
98880 Off ch=1 n=45 v=0
98880 On ch=1 n=47 v=83
99240 Off ch=1 n=47 v=0
99240 On ch=1 n=47 v=84
99600 Off ch=1 n=47 v=0
99600 On ch=1 n=47 v=80
99838 Off ch=1 n=47 v=0
99840 On ch=1 n=49 v=84
100200 Off ch=1 n=49 v=0
100200 On ch=1 n=49 v=82
100560 Off ch=1 n=49 v=0
100560 On ch=1 n=49 v=76
100800 Off ch=1 n=49 v=0
100800 On ch=1 n=42 v=90
101160 Off ch=1 n=42 v=0
101160 On ch=1 n=42 v=90
101520 Off ch=1 n=42 v=0
101520 On ch=1 n=42 v=86
101760 Off ch=1 n=42 v=0
101760 On ch=1 n=45 v=98
102120 Off ch=1 n=45 v=0
102120 On ch=1 n=45 v=91
102480 Off ch=1 n=45 v=0
102480 On ch=1 n=45 v=86
102720 Off ch=1 n=45 v=0
102720 On ch=1 n=47 v=84
103080 Off ch=1 n=47 v=0
103080 On ch=1 n=47 v=83
103440 Off ch=1 n=47 v=0
103440 On ch=1 n=47 v=90
103680 Off ch=1 n=47 v=0
103680 On ch=1 n=49 v=95
104040 Off ch=1 n=49 v=0
104040 On ch=1 n=49 v=78
104400 Off ch=1 n=49 v=0
104400 On ch=1 n=49 v=76
104640 Off ch=1 n=49 v=0
104640 On ch=1 n=42 v=86
105000 Off ch=1 n=42 v=0
105000 On ch=1 n=42 v=84
105360 Off ch=1 n=42 v=0
105360 On ch=1 n=42 v=86
105600 Off ch=1 n=42 v=0
105600 On ch=1 n=45 v=86
105960 Off ch=1 n=45 v=0
105960 On ch=1 n=45 v=90
106320 Off ch=1 n=45 v=0
106320 On ch=1 n=45 v=84
106560 Off ch=1 n=45 v=0
106560 On ch=1 n=47 v=79
106920 Off ch=1 n=47 v=0
106920 On ch=1 n=47 v=84
107280 Off ch=1 n=47 v=0
107280 On ch=1 n=47 v=82
107520 Off ch=1 n=47 v=0
107520 On ch=1 n=49 v=86
107880 Off ch=1 n=49 v=0
107880 On ch=1 n=49 v=80
108240 Off ch=1 n=49 v=0
108240 On ch=1 n=49 v=79
108480 Off ch=1 n=49 v=0
108480 On ch=1 n=42 v=79
108840 Off ch=1 n=42 v=0
108840 On ch=1 n=42 v=86
109200 Off ch=1 n=42 v=0
109200 On ch=1 n=42 v=86
109440 Off ch=1 n=42 v=0
109440 On ch=1 n=45 v=90
109800 Off ch=1 n=45 v=0
109800 On ch=1 n=45 v=84
110160 Off ch=1 n=45 v=0
110160 On ch=1 n=45 v=84
110400 Off ch=1 n=45 v=0
110400 On ch=1 n=47 v=83
110760 Off ch=1 n=47 v=0
110760 On ch=1 n=47 v=84
111120 Off ch=1 n=47 v=0
111120 On ch=1 n=47 v=80
111358 Off ch=1 n=47 v=0
111360 On ch=1 n=49 v=84
111720 Off ch=1 n=49 v=0
111720 On ch=1 n=49 v=82
112080 Off ch=1 n=49 v=0
112080 On ch=1 n=49 v=76
112320 Off ch=1 n=49 v=0
112320 On ch=1 n=42 v=90
112680 Off ch=1 n=42 v=0
112680 On ch=1 n=42 v=90
113040 Off ch=1 n=42 v=0
113040 On ch=1 n=42 v=86
113280 Off ch=1 n=42 v=0
113280 On ch=1 n=45 v=98
113640 Off ch=1 n=45 v=0
113640 On ch=1 n=45 v=91
114000 Off ch=1 n=45 v=0
114000 On ch=1 n=45 v=86
114240 Off ch=1 n=45 v=0
114240 On ch=1 n=47 v=84
114600 Off ch=1 n=47 v=0
114600 On ch=1 n=47 v=83
114960 Off ch=1 n=47 v=0
114960 On ch=1 n=47 v=90
115200 Off ch=1 n=47 v=0
115200 On ch=1 n=49 v=95
115560 Off ch=1 n=49 v=0
115560 On ch=1 n=49 v=78
115920 Off ch=1 n=49 v=0
115920 On ch=1 n=49 v=76
116160 Off ch=1 n=49 v=0
116160 On ch=1 n=42 v=86
116520 Off ch=1 n=42 v=0
116520 On ch=1 n=42 v=84
116880 Off ch=1 n=42 v=0
116880 On ch=1 n=42 v=86
117120 Off ch=1 n=42 v=0
117120 On ch=1 n=45 v=86
117480 Off ch=1 n=45 v=0
117480 On ch=1 n=45 v=90
117840 Off ch=1 n=45 v=0
117840 On ch=1 n=45 v=84
118080 Off ch=1 n=45 v=0
118080 On ch=1 n=47 v=79
118440 Off ch=1 n=47 v=0
118440 On ch=1 n=47 v=84
118800 Off ch=1 n=47 v=0
118800 On ch=1 n=47 v=82
119040 Off ch=1 n=47 v=0
119040 On ch=1 n=49 v=86
119400 Off ch=1 n=49 v=0
119400 On ch=1 n=49 v=80
119760 Off ch=1 n=49 v=0
119760 On ch=1 n=49 v=79
120000 Off ch=1 n=49 v=0
120000 On ch=1 n=42 v=79
120360 Off ch=1 n=42 v=0
120360 On ch=1 n=42 v=86
120720 Off ch=1 n=42 v=0
120720 On ch=1 n=42 v=86
120960 Off ch=1 n=42 v=0
120960 On ch=1 n=45 v=90
121320 Off ch=1 n=45 v=0
121320 On ch=1 n=45 v=84
121680 Off ch=1 n=45 v=0
121680 On ch=1 n=45 v=84
121920 Off ch=1 n=45 v=0
121920 On ch=1 n=47 v=83
122280 Off ch=1 n=47 v=0
122280 On ch=1 n=47 v=84
122640 Off ch=1 n=47 v=0
122640 On ch=1 n=47 v=80
122878 Off ch=1 n=47 v=0
122880 On ch=1 n=49 v=84
123240 Off ch=1 n=49 v=0
123240 On ch=1 n=49 v=82
123600 Off ch=1 n=49 v=0
123600 On ch=1 n=49 v=76
123840 Off ch=1 n=49 v=0
123840 On ch=1 n=42 v=90
124200 Off ch=1 n=42 v=0
124200 On ch=1 n=42 v=90
124560 Off ch=1 n=42 v=0
124560 On ch=1 n=42 v=86
124800 Off ch=1 n=42 v=0
124800 On ch=1 n=45 v=98
125160 Off ch=1 n=45 v=0
125160 On ch=1 n=45 v=91
125520 Off ch=1 n=45 v=0
125520 On ch=1 n=45 v=86
125760 Off ch=1 n=45 v=0
125760 On ch=1 n=47 v=84
126120 Off ch=1 n=47 v=0
126120 On ch=1 n=47 v=83
126480 Off ch=1 n=47 v=0
126480 On ch=1 n=47 v=90
126720 Off ch=1 n=47 v=0
126720 On ch=1 n=49 v=95
127080 Off ch=1 n=49 v=0
127080 On ch=1 n=49 v=78
127440 Off ch=1 n=49 v=0
127440 On ch=1 n=49 v=76
127680 Off ch=1 n=49 v=0
127680 On ch=1 n=42 v=86
128040 Off ch=1 n=42 v=0
128040 On ch=1 n=42 v=84
128400 Off ch=1 n=42 v=0
128400 On ch=1 n=42 v=86
128640 Off ch=1 n=42 v=0
128640 On ch=1 n=45 v=86
129000 Off ch=1 n=45 v=0
129000 On ch=1 n=45 v=90
129360 Off ch=1 n=45 v=0
129360 On ch=1 n=45 v=84
129600 Off ch=1 n=45 v=0
129600 On ch=1 n=47 v=79
129960 Off ch=1 n=47 v=0
129960 On ch=1 n=47 v=84
130320 Off ch=1 n=47 v=0
130320 On ch=1 n=47 v=82
130560 Off ch=1 n=47 v=0
130560 On ch=1 n=49 v=86
130920 Off ch=1 n=49 v=0
130920 On ch=1 n=49 v=80
131280 Off ch=1 n=49 v=0
131280 On ch=1 n=49 v=79
131520 Off ch=1 n=49 v=0
131520 On ch=1 n=42 v=79
131880 Off ch=1 n=42 v=0
131880 On ch=1 n=42 v=86
132240 Off ch=1 n=42 v=0
132240 On ch=1 n=42 v=86
132480 Off ch=1 n=42 v=0
132480 On ch=1 n=45 v=90
132840 Off ch=1 n=45 v=0
132840 On ch=1 n=45 v=84
133200 Off ch=1 n=45 v=0
133200 On ch=1 n=45 v=84
133440 Off ch=1 n=45 v=0
133440 On ch=1 n=47 v=83
133800 Off ch=1 n=47 v=0
133800 On ch=1 n=47 v=84
134160 Off ch=1 n=47 v=0
134160 On ch=1 n=47 v=80
134398 Off ch=1 n=47 v=0
134400 On ch=1 n=49 v=84
134760 Off ch=1 n=49 v=0
134760 On ch=1 n=49 v=82
135120 Off ch=1 n=49 v=0
135120 On ch=1 n=49 v=76
135360 Off ch=1 n=49 v=0
135360 On ch=1 n=42 v=90
135720 Off ch=1 n=42 v=0
135720 On ch=1 n=42 v=90
136080 Off ch=1 n=42 v=0
136080 On ch=1 n=42 v=86
136320 Off ch=1 n=42 v=0
136320 On ch=1 n=45 v=98
136680 Off ch=1 n=45 v=0
136680 On ch=1 n=45 v=91
137040 Off ch=1 n=45 v=0
137040 On ch=1 n=45 v=86
137280 Off ch=1 n=45 v=0
137280 On ch=1 n=47 v=84
137640 Off ch=1 n=47 v=0
137640 On ch=1 n=47 v=83
138000 Off ch=1 n=47 v=0
138000 On ch=1 n=47 v=90
138240 Off ch=1 n=47 v=0
138240 On ch=1 n=49 v=95
138600 Off ch=1 n=49 v=0
138600 On ch=1 n=49 v=78
138960 Off ch=1 n=49 v=0
138960 On ch=1 n=49 v=76
139200 Off ch=1 n=49 v=0
139200 On ch=1 n=42 v=86
139560 Off ch=1 n=42 v=0
139560 On ch=1 n=42 v=84
139920 Off ch=1 n=42 v=0
139920 On ch=1 n=42 v=86
140160 Off ch=1 n=42 v=0
140160 On ch=1 n=45 v=86
140520 Off ch=1 n=45 v=0
140520 On ch=1 n=45 v=90
140880 Off ch=1 n=45 v=0
140880 On ch=1 n=45 v=84
141120 Off ch=1 n=45 v=0
141120 On ch=1 n=47 v=79
141480 Off ch=1 n=47 v=0
141480 On ch=1 n=47 v=84
141840 Off ch=1 n=47 v=0
141840 On ch=1 n=47 v=82
142080 Off ch=1 n=47 v=0
142080 On ch=1 n=49 v=86
142440 Off ch=1 n=49 v=0
142440 On ch=1 n=49 v=80
142800 Off ch=1 n=49 v=0
142800 On ch=1 n=49 v=79
143040 Off ch=1 n=49 v=0
143040 On ch=1 n=42 v=79
143400 Off ch=1 n=42 v=0
143400 On ch=1 n=42 v=86
143760 Off ch=1 n=42 v=0
143760 On ch=1 n=42 v=86
144000 Off ch=1 n=42 v=0
144000 On ch=1 n=45 v=90
144360 Off ch=1 n=45 v=0
144360 On ch=1 n=45 v=84
144720 Off ch=1 n=45 v=0
144720 On ch=1 n=45 v=84
144960 Off ch=1 n=45 v=0
144960 On ch=1 n=47 v=83
145320 Off ch=1 n=47 v=0
145320 On ch=1 n=47 v=84
145680 Off ch=1 n=47 v=0
145680 On ch=1 n=47 v=80
145918 Off ch=1 n=47 v=0
145920 On ch=1 n=49 v=84
146280 Off ch=1 n=49 v=0
146280 On ch=1 n=49 v=82
146640 Off ch=1 n=49 v=0
146640 On ch=1 n=49 v=76
146880 Off ch=1 n=49 v=0
146880 On ch=1 n=42 v=90
147240 Off ch=1 n=42 v=0
147240 On ch=1 n=42 v=90
147600 Off ch=1 n=42 v=0
147600 On ch=1 n=42 v=86
147840 Off ch=1 n=42 v=0
147840 On ch=1 n=45 v=98
148200 Off ch=1 n=45 v=0
148200 On ch=1 n=45 v=91
148560 Off ch=1 n=45 v=0
148560 On ch=1 n=45 v=86
148800 Off ch=1 n=45 v=0
148800 On ch=1 n=47 v=84
149160 Off ch=1 n=47 v=0
149160 On ch=1 n=47 v=83
149520 Off ch=1 n=47 v=0
149520 On ch=1 n=47 v=90
149760 Off ch=1 n=47 v=0
149760 On ch=1 n=49 v=95
150120 Off ch=1 n=49 v=0
150120 On ch=1 n=49 v=78
150480 Off ch=1 n=49 v=0
150480 On ch=1 n=49 v=76
150720 Off ch=1 n=49 v=0
150720 On ch=1 n=42 v=86
151080 Off ch=1 n=42 v=0
151080 On ch=1 n=42 v=84
151440 Off ch=1 n=42 v=0
151440 On ch=1 n=42 v=86
151680 Off ch=1 n=42 v=0
151680 On ch=1 n=45 v=86
152040 Off ch=1 n=45 v=0
152040 On ch=1 n=45 v=90
152400 Off ch=1 n=45 v=0
152400 On ch=1 n=45 v=84
152640 Off ch=1 n=45 v=0
152640 On ch=1 n=47 v=79
153000 Off ch=1 n=47 v=0
153000 On ch=1 n=47 v=84
153360 Off ch=1 n=47 v=0
153360 On ch=1 n=47 v=82
153600 Off ch=1 n=47 v=0
153600 On ch=1 n=49 v=86
153960 Off ch=1 n=49 v=0
153960 On ch=1 n=49 v=80
154320 Off ch=1 n=49 v=0
154320 On ch=1 n=49 v=79
154560 Off ch=1 n=49 v=0
154560 On ch=1 n=42 v=79
154920 Off ch=1 n=42 v=0
154920 On ch=1 n=42 v=86
155280 Off ch=1 n=42 v=0
155280 On ch=1 n=42 v=86
155520 Off ch=1 n=42 v=0
155520 On ch=1 n=45 v=90
155880 Off ch=1 n=45 v=0
155880 On ch=1 n=45 v=84
156240 Off ch=1 n=45 v=0
156240 On ch=1 n=45 v=84
156480 Off ch=1 n=45 v=0
156480 On ch=1 n=47 v=83
156840 Off ch=1 n=47 v=0
156840 On ch=1 n=47 v=84
157200 Off ch=1 n=47 v=0
157200 On ch=1 n=47 v=80
157438 Off ch=1 n=47 v=0
157440 On ch=1 n=49 v=84
157800 Off ch=1 n=49 v=0
157800 On ch=1 n=49 v=82
158160 Off ch=1 n=49 v=0
158160 On ch=1 n=49 v=76
158400 Off ch=1 n=49 v=0
158400 On ch=1 n=42 v=90
158760 Off ch=1 n=42 v=0
158760 On ch=1 n=42 v=90
159120 Off ch=1 n=42 v=0
159120 On ch=1 n=42 v=86
159360 Off ch=1 n=42 v=0
159360 On ch=1 n=45 v=98
159720 Off ch=1 n=45 v=0
159720 On ch=1 n=45 v=91
160080 Off ch=1 n=45 v=0
160080 On ch=1 n=45 v=86
160320 Off ch=1 n=45 v=0
160320 On ch=1 n=47 v=84
160680 Off ch=1 n=47 v=0
160680 On ch=1 n=47 v=83
161040 Off ch=1 n=47 v=0
161040 On ch=1 n=47 v=90
161280 Off ch=1 n=47 v=0
161280 On ch=1 n=49 v=84
161640 Off ch=1 n=49 v=0
161640 On ch=1 n=49 v=82
162000 Off ch=1 n=49 v=0
162000 On ch=1 n=49 v=76
162240 Off ch=1 n=49 v=0
162240 On ch=1 n=42 v=90
162600 Off ch=1 n=42 v=0
162600 On ch=1 n=42 v=90
162960 Off ch=1 n=42 v=0
162960 On ch=1 n=42 v=86
163200 Off ch=1 n=42 v=0
163200 On ch=1 n=45 v=98
163560 Off ch=1 n=45 v=0
163560 On ch=1 n=45 v=91
163920 Off ch=1 n=45 v=0
163920 On ch=1 n=45 v=86
164160 Off ch=1 n=45 v=0
164160 On ch=1 n=47 v=84
164520 Off ch=1 n=47 v=0
164520 On ch=1 n=47 v=83
164880 Off ch=1 n=47 v=0
164880 On ch=1 n=47 v=90
165120 Off ch=1 n=47 v=0
165120 On ch=1 n=49 v=84
165480 Off ch=1 n=49 v=0
165480 On ch=1 n=49 v=82
165840 Off ch=1 n=49 v=0
165840 On ch=1 n=49 v=76
166080 Off ch=1 n=49 v=0
166080 On ch=1 n=42 v=90
166440 Off ch=1 n=42 v=0
166440 On ch=1 n=42 v=90
166800 Off ch=1 n=42 v=0
166800 On ch=1 n=42 v=86
167040 Off ch=1 n=42 v=0
167040 On ch=1 n=45 v=98
167400 Off ch=1 n=45 v=0
167400 On ch=1 n=45 v=91
167760 Off ch=1 n=45 v=0
167760 On ch=1 n=45 v=86
168000 Off ch=1 n=45 v=0
168000 On ch=1 n=47 v=84
168360 Off ch=1 n=47 v=0
168360 On ch=1 n=47 v=83
168720 Off ch=1 n=47 v=0
168720 On ch=1 n=47 v=90
168960 Off ch=1 n=47 v=0
168960 On ch=1 n=49 v=84
169320 Off ch=1 n=49 v=0
169320 On ch=1 n=49 v=82
169680 Off ch=1 n=49 v=0
169680 On ch=1 n=49 v=76
169920 Off ch=1 n=49 v=0
169920 On ch=1 n=42 v=90
170280 Off ch=1 n=42 v=0
170280 On ch=1 n=42 v=90
170640 Off ch=1 n=42 v=0
170640 On ch=1 n=42 v=86
170880 Off ch=1 n=42 v=0
170880 On ch=1 n=45 v=98
171240 Off ch=1 n=45 v=0
171240 On ch=1 n=45 v=91
171600 Off ch=1 n=45 v=0
171600 On ch=1 n=45 v=86
171840 Off ch=1 n=45 v=0
171840 On ch=1 n=47 v=84
172200 Off ch=1 n=47 v=0
172200 On ch=1 n=47 v=83
172560 Off ch=1 n=47 v=0
172560 On ch=1 n=47 v=90
172800 Off ch=1 n=47 v=0
172800 On ch=1 n=49 v=84
173160 Off ch=1 n=49 v=0
173160 On ch=1 n=49 v=82
173520 Off ch=1 n=49 v=0
173520 On ch=1 n=49 v=76
173760 Off ch=1 n=49 v=0
173760 On ch=1 n=42 v=90
174120 Off ch=1 n=42 v=0
174120 On ch=1 n=42 v=90
174480 Off ch=1 n=42 v=0
174480 On ch=1 n=42 v=86
174720 Off ch=1 n=42 v=0
174720 On ch=1 n=45 v=98
175080 Off ch=1 n=45 v=0
175080 On ch=1 n=45 v=91
175440 Off ch=1 n=45 v=0
175440 On ch=1 n=45 v=86
175680 Off ch=1 n=45 v=0
175680 On ch=1 n=47 v=84
176040 Off ch=1 n=47 v=0
176040 On ch=1 n=47 v=83
176400 Off ch=1 n=47 v=0
176400 On ch=1 n=47 v=90
176640 Off ch=1 n=47 v=0
176640 Meta TrkEnd
TrkEnd
